<svg xmlns="http://www.w3.org/2000/svg" viewBox="0 0 464 464"><path fill="#de335e" d="M24 144c-4.414 0-8 3.586-8 8v120h16V152c0-4.414-3.586-8-8-8m80 112H72c-10.414 0-19.215 6.71-22.527 16h77.047c-3.305-9.29-12.106-16-22.52-16M56 417.47v-97.473H40v97.473c-9.305 3.304-16 12.093-16 22.527 0 13.258 10.742 24 24 24s24-10.742 24-24c0-10.434-6.695-19.223-16-22.527M0 288h464v16H0zm48-39.793c.09-.07.16-.144.246-.207-.086-.062-.156-.137-.246-.207zM101.121 192H72c-13.23 0-24 10.77-24 24s10.77 24 24 24h29.121c13.23 0 24-10.77 24-24s-10.77-24-24-24m42.07 80h304.34c-3.992-35.945-34.527-64-71.527-64h-192c-11.129 0-22.258 2.625-32.191 7.602l-11.215 5.605c-1.364 10.313-6.61 19.32-14.29 25.61 8.544 5.769 14.758 14.742 16.887 25.183m270.08-192-29.882-69.734-33.504 92.14L340.282 88h-52.28V16c0-8.824-7.176-16-16-16h-80c-8.824 0-16 7.176-16 16v40h-69.273L88.611 98.266l-30.488-83.86L35.722 48H.002v16h44.281l9.598-14.406 33.504 92.14L117.275 72h58.727v40c0 8.824 7.176 16 16 16h16v24h16v40h16v-40h16v-24h16c8.824 0 16-7.176 16-16v-8h43.719l22.402 33.594 30.496-83.86L402.729 96h61.273V80zm-157.27-16h-16v16h-16V64h-16V48h16V32h16v16h16zm168 353.47v-97.473h-16v97.473c-9.305 3.304-16 12.093-16 22.527 0 13.258 10.742 24 24 24s24-10.742 24-24c0-10.434-6.695-19.223-16-22.527"/></svg>