<svg viewBox="0 0 123.18 102.93" xmlns="http://www.w3.org/2000/svg"><path d="M114.1 14.043a4.96 4.96 0 01-4.96-4.96 4.958 4.958 0 014.96-4.962 4.96 4.96 0 110 9.922M64.83 98.805a4.96 4.96 0 01-4.96-4.96 4.958 4.958 0 014.96-4.962 4.957 4.957 0 014.957 4.961 4.96 4.96 0 01-4.957 4.961M114.1 0a9.082 9.082 0 00-9.082 9.082c0 1.07.27 2.066.61 3.02L63.021 85.124c-4.117.864-7.273 4.344-7.273 8.72a9.082 9.082 0 009.082 9.081c5.012 0 9.078-4.066 9.078-9.082 0-1.008-.27-1.93-.57-2.836l42.82-73.262c3.992-.957 7.023-4.378 7.023-8.664A9.082 9.082 0 00114.1 0" fill="#0c544c"/><g fill="#073551"><path d="M76.941 14.043a4.96 4.96 0 01-4.96-4.96 4.958 4.958 0 014.96-4.962 4.957 4.957 0 014.957 4.961 4.96 4.96 0 01-4.957 4.961M27.668 98.805a4.96 4.96 0 110-9.922 4.958 4.958 0 014.96 4.961 4.96 4.96 0 01-4.96 4.961M76.941 0a9.08 9.08 0 00-9.082 9.082c0 1.07.27 2.066.61 3.02L25.862 85.124c-4.12.864-7.277 4.344-7.277 8.72a9.082 9.082 0 0018.164 0c0-1.008-.27-1.93-.57-2.837L79 17.745c3.992-.957 7.023-4.378 7.023-8.664 0-5.015-4.07-9.082-9.082-9.082M9.082 29.227c2.738 0 4.96 2.223 4.96 4.96s-2.222 4.962-4.96 4.962a4.96 4.96 0 110-9.922m0 14.043a9.082 9.082 0 009.082-9.082c0-1.004-.273-1.93-.574-2.836-1.203-3.605-4.5-6.246-8.508-6.246-.64 0-1.203.238-1.809.367C3.156 26.333 0 29.813 0 34.188a9.082 9.082 0 009.082 9.082M4.121 65.922a4.96 4.96 0 119.922 0c0 2.738-2.223 4.957-4.961 4.957s-4.96-2.219-4.96-4.957m14.042 0c0-1.008-.273-1.93-.574-2.836-1.203-3.605-4.496-6.246-8.508-6.246-.64 0-1.203.238-1.809.363C3.156 58.067 0 61.547 0 65.923c0 5.01 4.066 9.081 9.082 9.081 5.016 0 9.082-4.07 9.082-9.082"/></g></svg>
