<svg xmlns="http://www.w3.org/2000/svg" fill="none" viewBox="0 0 10.961 19.999"><linearGradient id="a" x2="1" gradientTransform="matrix(4.8373 1.899 -1.0316 8.9043 3.103 4.695)" gradientUnits="userSpaceOnUse"><stop offset="0" stop-color="#919191"/><stop offset="1" stop-color="#fff"/></linearGradient><linearGradient id="c" x2="1" gradientTransform="matrix(2.9261 1.1487 -.68472 4.909 2.803 9.869)" gradientUnits="userSpaceOnUse"><stop offset="0" stop-color="#900"/><stop offset="1" stop-color="#e80000"/></linearGradient><path fill="#000" d="M6.099.407a.24.24 0 0 0 0 .115s.122.814-.02 1.177L.306 17.039c-.412 1.13.14 2.384 1.247 2.814 1.106.43 2.334-.124 2.775-1.244l5.775-15.341c.112-.297.76-.88.76-.88a.6.6 0 0 0 .074-.087v-.01c0-.01.01-.01.01-.02.15-.391-.816-1.137-2.147-1.664s-2.54-.631-2.69-.23c0 0-.01.01-.01.03" opacity=".1"/><path fill="url(#a)" d="M5.93.273a.24.24 0 0 0 0 .115s.123.814-.018 1.177L.137 16.905c-.412 1.13.14 2.385 1.247 2.815s2.335-.124 2.775-1.244L9.934 3.135c.113-.297.76-.88.76-.88a.6.6 0 0 0 .074-.087v-.01c0-.01.01-.01.01-.02C10.928 1.747 9.962 1 8.63.474S6.09-.157 5.94.244c0 .01 0 .02-.01.03z"/><path fill="url(#c)" d="M7.75 7.212 3.578 18.275c-.31.795-1.2 1.206-1.997.89S.36 17.92.653 17.127l2.662-7.073s.329-.545.985-.937c.656-.393 1.19-.307 1.912-.632.73-.326 1.539-1.273 1.539-1.273z"/><path fill="#333" d="M9.77 1.82c.085-.222-.513-.664-1.334-.987C7.616.509 6.882.426 6.799.648c-.083.22.515.663 1.336.986.82.324 1.554.407 1.637.185z"/><path fill="#fff" d="M5.89.387s.122.81-.017 1.174L.136 16.859c-.41 1.126.14 2.376 1.238 2.806.187.076.382.124.578.133-.368-.286-.636-.686-.765-1.14s-.112-.936.048-1.38L6.86 2.286s-.773-.735-.97-1.9z" opacity=".3"/><path fill="#fff" d="M4.047 10.427a.17.17 0 0 0 .168-.172.17.17 0 0 0-.168-.172.17.17 0 0 0-.167.172.17.17 0 0 0 .167.172m1.09 1.317c.139 0 .252-.116.252-.258s-.113-.258-.252-.258-.251.116-.251.258.112.258.25.258zM3.47 13.442c.262 0 .475-.218.475-.486s-.213-.487-.475-.487c-.263 0-.475.218-.475.487s.212.486.475.486m-.764.668c.139 0 .252-.115.252-.257s-.113-.258-.252-.258-.251.115-.251.258.112.257.25.257zm.997 1.823a.17.17 0 0 0 .167-.172.17.17 0 0 0-.167-.171.17.17 0 0 0-.168.171.17.17 0 0 0 .168.172" opacity=".5"/></svg>