<svg xmlns="http://www.w3.org/2000/svg" viewBox="0 0 44.3 50"><path fill="#4c4c4c" d="M44.3 35V11.7L24.1 0v8.9l7.9 4.6a.5.5 0 0 1 0 .8l-9.4 5.4a.8.8 0 0 1-.9 0l-9.4-5.4a.5.5 0 0 1 0-.8l7.9-4.6V0L0 11.7V35l7.7-4.5v-9.1a.403.403 0 0 1 .7-.4l9.4 5.4a1 1 0 0 1 .5.8v10.9a.4.4 0 0 1-.7.3l-7.9-4.5-7.8 4.4L22.1 50l20.2-11.7-7.7-4.4-7.9 4.5a.4.4 0 0 1-.7-.3V27.2a1 1 0 0 1 .5-.8l9.4-5.4c.2-.2.6 0 .6.4v9.1z"/><path d="m22.1 50 20.2-11.7-7.7-4.4-7.9 4.5a.4.4 0 0 1-.7-.3V27.2a1 1 0 0 1 .5-.8l9.4-5.4c.2-.2.6 0 .6.4v9.1l7.8 4.5V11.7L22.1 24.4Z"/><path d="M24.1 0v8.9l7.9 4.6a.5.5 0 0 1 0 .8l-9.4 5.4a.8.8 0 0 1-.9 0l-9.4-5.4a.5.5 0 0 1 0-.8l7.9-4.6V0L0 11.7l22.1 12.7 22.2-12.7Z" style="fill:gray"/><path fill="#4c4c4c" d="m17.6 38.4-7.9-4.5-7.8 4.4L22.1 50V24.4L0 11.7V35l7.7-4.5v-9.1a.403.403 0 0 1 .7-.4l9.4 5.4a1 1 0 0 1 .5.8v10.9a.4.4 0 0 1-.7.3"/></svg>