<svg viewBox="0 0 49.496 40" xmlns="http://www.w3.org/2000/svg"><defs><linearGradient id="prefix__a" x1="16.819" x2="16.819" y1="31.634" y2=".147" gradientTransform="scale(1.0663 .93783)" gradientUnits="userSpaceOnUse"><stop stop-color="#78D431" offset="0"/><stop stop-color="#9EEE69" offset="1"/></linearGradient><linearGradient id="prefix__b" x1="32.65" x2="32.65" y1="40.611" y2="14.335" gradientTransform="scale(1.0607 .94282)" gradientUnits="userSpaceOnUse"><stop stop-color="#E4E6E6" offset="0"/><stop stop-color="#F5F5FF" offset="1"/></linearGradient></defs><g fill-rule="evenodd"><path d="M0 14.874c0 4.462 2.433 8.539 6.192 11.238.332.22.498.551.498.992 0 .11-.055.275-.055.385-.277 1.102-.774 2.92-.83 2.975-.055.165-.11.276-.11.44 0 .331.276.607.608.607.11 0 .221-.055.332-.11l3.925-2.259c.277-.165.608-.275.94-.275.166 0 .387 0 .553.055 1.825.55 3.815.826 5.86.826 9.897 0 17.914-6.666 17.914-14.874S27.81 0 17.914 0C8.017 0 0 6.666 0 14.874" fill="url(#prefix__a)"/><path d="M34.604 38.501c1.71 0 3.365-.222 4.854-.666.11-.055.276-.055.441-.055.276 0 .552.11.772.222l3.255 1.887c.11.055.165.111.275.111a.496.496 0 00.497-.5c0-.11-.055-.222-.055-.388 0-.056-.442-1.554-.662-2.498-.055-.11-.055-.222-.055-.333 0-.333.165-.61.44-.832 3.145-2.276 5.13-5.662 5.13-9.436 0-6.882-6.673-12.488-14.892-12.488-8.218 0-14.892 5.55-14.892 12.488 0 6.883 6.674 12.488 14.892 12.488z" fill="url(#prefix__b)"/><path d="M14.245 10.072a2.285 2.285 0 01-2.303 2.302 2.285 2.285 0 01-2.302-2.302 2.285 2.285 0 012.302-2.302 2.285 2.285 0 012.303 2.302m11.942 0a2.285 2.285 0 01-2.302 2.302 2.285 2.285 0 01-2.302-2.302 2.285 2.285 0 012.302-2.302 2.285 2.285 0 012.302 2.302" fill="#187e28"/><path d="M37.698 22.158c0 1.12.895 2.015 2.014 2.015 1.12 0 2.015-.896 2.015-2.015s-.896-2.014-2.015-2.014-2.014.895-2.014 2.014m-9.928 0c0 1.12.895 2.015 2.014 2.015 1.12 0 2.015-.896 2.015-2.015s-.896-2.014-2.015-2.014-2.014.895-2.014 2.014" fill="#858c8c"/></g></svg>
