<svg xmlns="http://www.w3.org/2000/svg" fill="none" viewBox="3 9 30 18.5"><g fill="#000"><path d="M8.7 14.725Q8.425 15 8 15c-.425 0-.525-.092-.725-.275Q7 14.425 7 14c0-.425.092-.517.275-.7q.3-.3.725-.3c.425 0 .517.1.7.3q.3.275.3.7c0 .425-.1.525-.3.725M14.7 14.725Q14.425 15 14 15c-.425 0-.525-.092-.725-.275Q13 14.425 13 14c0-.425.092-.517.275-.7q.3-.3.725-.3c.425 0 .517.1.7.3q.3.275.3.7c0 .425-.1.525-.3.725M22.7 14.725Q22.425 15 22 15c-.425 0-.525-.092-.725-.275Q21 14.425 21 14c0-.425.092-.517.275-.7q.3-.3.725-.3c.425 0 .517.1.7.3q.3.275.3.7c0 .425-.1.525-.3.725M28.7 14.725Q28.425 15 28 15c-.425 0-.525-.092-.725-.275Q27 14.425 27 14c0-.425.092-.517.275-.7q.3-.3.725-.3c.425 0 .517.1.7.3q.3.275.3.7c0 .425-.1.525-.3.725"/><path fill-rule="evenodd" d="M5 14a3 3 0 0 1 3-3h6c.776 0 1.284.154 1.64.382.219-.588.512-1.211.915-1.784C15.88 9.212 15.039 9 14 9H8a5 5 0 0 0 0 10h6c1.763 0 2.957-.61 3.738-1.65.685-.914.977-2.084 1.21-3.02l.022-.087c.263-1.05.474-1.835.892-2.393.345-.46.901-.85 2.138-.85h6a3 3 0 1 1 0 6h-6c-.776 0-1.284-.154-1.64-.382a7.9 7.9 0 0 1-.915 1.784c.675.387 1.516.598 2.555.598h6a5 5 0 0 0 0-10h-6c-1.763 0-2.957.61-3.737 1.65-.686.914-.978 2.084-1.211 3.02l-.022.087c-.263 1.05-.474 1.835-.892 2.393-.345.46-.901.85-2.138.85H8a3 3 0 0 1-3-3" clip-rule="evenodd"/><path d="M7 23.5q-.425 0-.725-.275Q6 22.925 6 22.5c0-.425.092-.517.275-.7q.3-.3.725-.3h5q.425 0 .7.3.3.275.3.7c0 .425-.1.525-.3.725a.95.95 0 0 1-.7.275zm-2 4q-.425 0-.725-.275Q4 26.925 4 26.5c0-.425.092-.517.275-.7q.3-.3.725-.3h3q.425 0 .7.3.3.275.3.7c0 .425-.1.525-.3.725a.95.95 0 0 1-.7.275zm7 0q-.425 0-.725-.275-.275-.3-.275-.725c0-.425.092-.517.275-.7q.3-.3.725-.3h8q.425 0 .7.3.3.275.3.7c0 .425-.1.525-.3.725a.95.95 0 0 1-.7.275zm16 0q-.425 0-.725-.275-.275-.3-.275-.725c0-.425.092-.517.275-.7q.3-.3.725-.3h4q.425 0 .7.3.3.275.3.7c0 .425-.1.525-.3.725a.95.95 0 0 1-.7.275zm-12-4q-.425 0-.725-.275-.275-.3-.275-.725c0-.425.092-.517.275-.7q.3-.3.725-.3c.425 0 .517.1.7.3q.3.275.3.7c0 .425-.1.525-.3.725a.95.95 0 0 1-.7.275m8 4q-.425 0-.725-.275-.275-.3-.275-.725c0-.425.092-.517.275-.7q.3-.3.725-.3c.425 0 .517.1.7.3q.3.275.3.7c0 .425-.1.525-.3.725a.95.95 0 0 1-.7.275M19.275 23.225q.3.275.725.275h3a.95.95 0 0 0 .7-.275q.3-.3.3-.725c0-.425-.1-.517-.3-.7a.9.9 0 0 0-.7-.3h-3q-.425 0-.725.3-.275.275-.275.7c0 .425.092.525.275.725M26.275 23.225q.3.275.725.275h3a.95.95 0 0 0 .7-.275q.3-.3.3-.725c0-.425-.1-.517-.3-.7a.9.9 0 0 0-.7-.3h-3q-.425 0-.725.3-.275.275-.275.7c0 .425.092.525.275.725"/></g></svg>