<svg xmlns="http://www.w3.org/2000/svg" fill="none" viewBox="0 0 27.999 24.788"><g fill="#000" clip-path="url(#a)" transform="translate(0 -1.606)"><path d="m10.592 12.61 8.906 3.688-.21.556-9.115-3.14z"/><path d="m10.838 13.175 1.842 9.497-1.165.19-1.264-9.592z"/><path d="m19.988 16.85-7.735 5.941-.377-.46 7.365-6.394z"/><path d="M21.752 18.14 9.916 10.851l.688-1.061 11.494 7.816z"/><path d="m10.578 10.337-.394 13.894-1.264-.064 1.022-13.863z"/><path d="m9.407 23.916 12.23-6.605.576 1.125-12.516 6.047z"/><path d="M24.863 21.13 10.767 6.492l.987-.919L25.36 20.667z"/><path d="M11.684 6.238 6.097 25.625l-1.29-.395 6.228-19.191z"/><path d="m5.376 25.096 19.743-4.892.304 1.315-19.894 4.239zm5.556-8.966 2.68 4.644a.447.447 0 0 0 .776 0l2.68-4.644a.447.447 0 0 0-.387-.671H11.32a.447.447 0 0 0-.387.67m2.832 3.053-1.38-2.389a.273.273 0 0 1 .237-.41h2.76c.21 0 .34.228.236.41l-1.38 2.39a.273.273 0 0 1-.472 0z"/><path d="M13.563 3.373c-1.34 2.32-10.918 18.899-12.01 20.811-.124.3.106.68.433.685.088.009.757.004.885.005 6.26.003 16.618-.002 22.893 0 .098 0 .243.001.25-.005.04.003.07-.013.106-.014a.514.514 0 0 0 .327-.67c-.026-.038-.015-.043-.086-.16-3.179-5.51-7.785-13.479-10.97-19-.196-.324-.761-1.329-.954-1.652a.51.51 0 0 0-.875 0zm-1.314-.76c.583-1.029 1.986-1.327 2.942-.625.228.17.417.387.561.626l.318.55.636 1.102 10.175 17.623.636 1.101c.107.192.206.337.335.618.103.264.156.548.147.832a2.04 2.04 0 0 1-1.466 1.874c-.268.076-.586.08-.769.076-6.288-.007-16.624.006-22.893 0-.43-.015-.93.05-1.404-.076C.327 25.996-.307 24.7.15 23.607c1.12-2.02 10.727-18.597 12.1-20.993"/><path d="M12.742 3.523c-1.468 3.411-2.73 7.372-1.492 11.034.18.504.403.988.68 1.447l-.8.468a9 9 0 0 1-.748-1.616c-1.137-3.341-.29-6.95.929-10.129a37 37 0 0 1 .65-1.554l.78.35M2.565 25.507c3.688-.434 7.75-1.322 10.301-4.226.347-.407.655-.843.914-1.313l.806.459a9 9 0 0 1-1.027 1.456c-2.324 2.655-5.872 3.726-9.235 4.26a38 38 0 0 1-1.671.213zm24.128-2.177c-2.22-2.978-5.019-6.051-8.81-6.81a8 8 0 0 0-1.593-.134l-.005-.927c.587-.007 1.19.05 1.773.161 3.462.686 6.163 3.223 8.307 5.868q.527.662 1.02 1.341z"/></g><defs><clipPath id="a"><path fill="#000" d="M0 0h28v28H0z"/></clipPath></defs></svg>