<svg xmlns="http://www.w3.org/2000/svg" viewBox="0 0 58.872 58.869"><defs><clipPath id="a"><path fill="none" d="M0 0h155.31v60H0z" data-name="Rectangle 1"/></clipPath></defs><g clip-path="url(#a)" data-name="Group 2" transform="translate(-.5 -.48)"><g data-name="Group 1" transform="translate(.486 .486)"><path fill="#017cee" d="m1 58.64 28.187-28.893a.52.52 0 0 0 .063-.666c-1.714-2.393-4.877-2.808-6.049-4.416-3.472-4.763-4.353-7.459-5.845-7.292a.46.46 0 0 0-.271.143L6.903 27.954c-5.858 6-6.7 19.225-6.852 30.3A.552.552 0 0 0 1 58.64" data-name="Path 1"/><path fill="#00ad46" d="M58.6 57.92 29.707 29.731a.52.52 0 0 0-.667-.063c-2.393 1.715-2.808 4.877-4.416 6.049-4.763 3.472-7.459 4.353-7.292 5.845a.46.46 0 0 0 .143.27l10.438 10.182c6 5.858 19.225 6.7 30.3 6.852a.552.552 0 0 0 .387-.946" data-name="Path 2"/><path fill="#04d659" d="M27.9 52.02c-3.28-3.2-4.8-9.53 1.486-22.583-10.219 4.567-13.8 10.57-12.039 12.289z" data-name="Path 3"/><path fill="#00c7d4" d="M57.9.24 29.714 29.133a.52.52 0 0 0-.063.666c1.715 2.393 4.876 2.808 6.049 4.416 3.472 4.763 4.354 7.459 5.845 7.292a.45.45 0 0 0 .271-.143l10.182-10.438c5.858-6 6.7-19.225 6.852-30.3A.553.553 0 0 0 57.9.24" data-name="Path 4"/><path fill="#11e1ee" d="M52 30.93c-3.2 3.28-9.53 4.8-22.584-1.486 4.567 10.219 10.57 13.8 12.289 12.039z" data-name="Path 5"/><path fill="#e43921" d="m.2.95 28.893 28.186a.52.52 0 0 0 .666.063c2.393-1.715 2.808-4.877 4.416-6.049 4.763-3.472 7.459-4.353 7.292-5.845a.46.46 0 0 0-.143-.271L30.886 6.852C24.886.994 11.661.152.586 0A.552.552 0 0 0 .2.95" data-name="Path 6"/><path fill="#ff7557" fill-rule="evenodd" d="M30.9 6.85c3.28 3.2 4.8 9.53-1.486 22.584 10.219-4.567 13.8-10.571 12.039-12.289z" data-name="Path 7"/><path fill="#0cb6ff" d="M6.9 27.95c3.2-3.28 9.53-4.8 22.584 1.486-4.567-10.219-10.57-13.8-12.289-12.039z" data-name="Path 8"/><circle cx="1.26" cy="1.26" r="1.26" fill="#4a4848" data-name="Ellipse 1" transform="translate(28.18 28.171)"/></g></g></svg>