<svg viewBox="0 0 98.662 49.332" xmlns="http://www.w3.org/2000/svg"><g fill="#F60"><path d="M86.938 49.217c-.026.036-.055.07-.082.105a3.38 3.38 0 00.088-.006c-.002-.033-.005-.066-.006-.1z" fill-rule="evenodd"/><path d="M55.473.002a59.92 59.92 0 00-18.47 3.73c-16.45 5.79-26.77 15.08-33.26 25.36-6.9 10.19-4.63 19.91 9.92 20.24 11.16-.45 18.41-3.54 26-7.41 0 0-20.91 6-28.61 1.58a3.38 3.38 0 01-1.88-2.811c0-3.64 6-7.41 9.39-8.62v-6.3a22.22 22.22 0 0022.309-3.7 5.36 5.36 0 01.13 1.83h1.52a4.52 4.52 0 00-.709-2.9 4.63 4.63 0 00-3.76-2.14 5.48 5.48 0 012.18 1.92 20.39 20.39 0 01-19.18 3.83l5-4.94-1.38-3.59a180.56 180.56 0 0132.09-8.57l-3.071-2.51 1.6-1c8.26 2.29 13.71 4.001 13.37 8.391a10.91 10.91 0 01-.83 2.51c-2.4 4.76-9.559 12.7-12.449 16a61.61 61.61 0 00-5.12 6.42 11.37 11.37 0 00-2.26 5.86c.17 14.41 42.48-6.73 50.66-12.34-12.1 5.16-25.13 10.23-39.5 11.16-4 .18-3.56-1.881-1.24-5.071 5.42-7.27 15.7-17.41 16-24.59C74.602 3 65.172-.09 55.472 0z"/></g></svg>
