<svg xmlns="http://www.w3.org/2000/svg" viewBox="0 0 319 319"><path d="M0 0h11v11H0zm11 0h11v11H11zm11 0h11v11H22zm11 0h11v11H33zm11 0h11v11H44zm11 0h11v11H55zm11 0h11v11H66zm22 0h11v11H88zm33 0h11v11h-11zm11 0h11v11h-11zm22 0h11v11h-11zm11 0h11v11h-11zm22 0h11v11h-11zm11 0h11v11h-11zm44 0h11v11h-11zm11 0h11v11h-11zm11 0h11v11h-11zm11 0h11v11h-11zm11 0h11v11h-11zm11 0h11v11h-11zm11 0h11v11h-11zM0 11h11v11H0zm66 0h11v11H66zm22 0h11v11H88zm11 0h11v11H99zm11 0h11v11h-11zm22 0h11v11h-11zm11 0h11v11h-11zm11 0h11v11h-11zm33 0h11v11h-11zm11 0h11v11h-11zm22 0h11v11h-11zm22 0h11v11h-11zm66 0h11v11h-11zM0 22h11v11H0zm22 0h11v11H22zm11 0h11v11H33zm11 0h11v11H44zm22 0h11v11H66zm44 0h11v11h-11zm11 0h11v11h-11zm11 0h11v11h-11zm11 0h11v11h-11zm11 0h11v11h-11zm11 0h11v11h-11zm22 0h11v11h-11zm11 0h11v11h-11zm44 0h11v11h-11zm22 0h11v11h-11zm11 0h11v11h-11zm11 0h11v11h-11zm22 0h11v11h-11zM0 33h11v11H0zm22 0h11v11H22zm11 0h11v11H33zm11 0h11v11H44zm22 0h11v11H66zm44 0h11v11h-11zm33 0h11v11h-11zm22 0h11v11h-11zm22 0h11v11h-11zm11 0h11v11h-11zm11 0h11v11h-11zm33 0h11v11h-11zm22 0h11v11h-11zm11 0h11v11h-11zm11 0h11v11h-11zm22 0h11v11h-11zM0 44h11v11H0zm22 0h11v11H22zm11 0h11v11H33zm11 0h11v11H44zm22 0h11v11H66zm22 0h11v11H88zm11 0h11v11H99zm11 0h11v11h-11zm11 0h11v11h-11zm33 0h11v11h-11zm11 0h11v11h-11zm11 0h11v11h-11zm22 0h11v11h-11zm22 0h11v11h-11zm22 0h11v11h-11zm22 0h11v11h-11zm11 0h11v11h-11zm11 0h11v11h-11zm22 0h11v11h-11zM0 55h11v11H0zm66 0h11v11H66zm22 0h11v11H88zm33 0h11v11h-11zm22 0h11v11h-11zm11 0h11v11h-11zm11 0h11v11h-11zm22 0h11v11h-11zm33 0h11v11h-11zm22 0h11v11h-11zm66 0h11v11h-11zM0 66h11v11H0zm11 0h11v11H11zm11 0h11v11H22zm11 0h11v11H33zm11 0h11v11H44zm11 0h11v11H55zm11 0h11v11H66zm22 0h11v11H88zm22 0h11v11h-11zm22 0h11v11h-11zm22 0h11v11h-11zm22 0h11v11h-11zm22 0h11v11h-11zm22 0h11v11h-11zm22 0h11v11h-11zm11 0h11v11h-11zm11 0h11v11h-11zm11 0h11v11h-11zm11 0h11v11h-11zm11 0h11v11h-11zm11 0h11v11h-11zM88 77h11v11H88zm22 0h11v11h-11zm11 0h11v11h-11zm11 0h11v11h-11zm11 0h11v11h-11zm22 0h11v11h-11zm11 0h11v11h-11zm22 0h11v11h-11zm22 0h11v11h-11zM0 88h11v11H0zm11 0h11v11H11zm11 0h11v11H22zm33 0h11v11H55zm11 0h11v11H66zm22 0h11v11H88zm11 0h11v11H99zm11 0h11v11h-11zm33 0h11v11h-11zm11 0h11v11h-11zm22 0h11v11h-11zm44 0h11v11h-11zm11 0h11v11h-11zm11 0h11v11h-11zm11 0h11v11h-11zm11 0h11v11h-11zm33 0h11v11h-11zm11 0h11v11h-11zM11 99h11v11H11zm33 0h11v11H44zm11 0h11v11H55zm22 0h11v11H77zm11 0h11v11H88zm11 0h11v11H99zm11 0h11v11h-11zm33 0h11v11h-11zm22 0h11v11h-11zm11 0h11v11h-11zm11 0h11v11h-11zm11 0h11v11h-11zm11 0h11v11h-11zm11 0h11v11h-11zm22 0h11v11h-11zm11 0h11v11h-11zm44 0h11v11h-11zm11 0h11v11h-11zM0 110h11v11H0zm11 0h11v11H11zm22 0h11v11H33zm11 0h11v11H44zm11 0h11v11H55zm11 0h11v11H66zm55 0h11v11h-11zm22 0h11v11h-11zm33 0h11v11h-11zm11 0h11v11h-11zm11 0h11v11h-11zm11 0h11v11h-11zm55 0h11v11h-11zm11 0h11v11h-11zm11 0h11v11h-11zm22 0h11v11h-11zM0 121h11v11H0zm11 0h11v11H11zm11 0h11v11H22zm11 0h11v11H33zm22 0h11v11H55zm22 0h11v11H77zm22 0h11v11H99zm44 0h11v11h-11zm22 0h11v11h-11zm11 0h11v11h-11zm33 0h11v11h-11zm11 0h11v11h-11zm55 0h11v11h-11zM55 132h11v11H55zm11 0h11v11H66zm11 0h11v11H77zm11 0h11v11H88zm11 0h11v11H99zm22 0h11v11h-11zm11 0h11v11h-11zm11 0h11v11h-11zm11 0h11v11h-11zm22 0h11v11h-11zm11 0h11v11h-11zm11 0h11v11h-11zm22 0h11v11h-11zm22 0h11v11h-11zm11 0h11v11h-11zm55 0h11v11h-11zM11 143h11v11H11zm22 0h11v11H33zm11 0h11v11H44zm11 0h11v11H55zm44 0h11v11H99zm33 0h11v11h-11zm11 0h11v11h-11zm22 0h11v11h-11zm33 0h11v11h-11zm11 0h11v11h-11zm11 0h11v11h-11zm22 0h11v11h-11zm11 0h11v11h-11zm44 0h11v11h-11zm11 0h11v11h-11zM0 154h11v11H0zm33 0h11v11H33zm33 0h11v11H66zm11 0h11v11H77zm11 0h11v11H88zm22 0h11v11h-11zm22 0h11v11h-11zm33 0h11v11h-11zm11 0h11v11h-11zm11 0h11v11h-11zm11 0h11v11h-11zm11 0h11v11h-11zm22 0h11v11h-11zm22 0h11v11h-11zm55 0h11v11h-11zM0 165h11v11H0zm11 0h11v11H11zm22 0h11v11H33zm11 0h11v11H44zm11 0h11v11H55zm33 0h11v11H88zm33 0h11v11h-11zm11 0h11v11h-11zm11 0h11v11h-11zm33 0h11v11h-11zm33 0h11v11h-11zm22 0h11v11h-11zm22 0h11v11h-11zm11 0h11v11h-11zM33 176h11v11H33zm11 0h11v11H44zm22 0h11v11H66zm66 0h11v11h-11zm44 0h11v11h-11zm11 0h11v11h-11zm11 0h11v11h-11zm11 0h11v11h-11zm11 0h11v11h-11zm22 0h11v11h-11zm11 0h11v11h-11zm55 0h11v11h-11zM11 187h11v11H11zm11 0h11v11H22zm11 0h11v11H33zm22 0h11v11H55zm33 0h11v11H88zm11 0h11v11H99zm11 0h11v11h-11zm33 0h11v11h-11zm55 0h11v11h-11zm11 0h11v11h-11zm11 0h11v11h-11zm11 0h11v11h-11zm11 0h11v11h-11zm44 0h11v11h-11zm11 0h11v11h-11zm11 0h11v11h-11zM0 198h11v11H0zm11 0h11v11H11zm11 0h11v11H22zm22 0h11v11H44zm22 0h11v11H66zm22 0h11v11H88zm11 0h11v11H99zm22 0h11v11h-11zm11 0h11v11h-11zm11 0h11v11h-11zm44 0h11v11h-11zm22 0h11v11h-11zm11 0h11v11h-11zm11 0h11v11h-11zm11 0h11v11h-11zm11 0h11v11h-11zm22 0h11v11h-11zm33 0h11v11h-11zM22 209h11v11H22zm22 0h11v11H44zm11 0h11v11H55zm22 0h11v11H77zm99 0h11v11h-11zm11 0h11v11h-11zm22 0h11v11h-11zm11 0h11v11h-11zM0 220h11v11H0zm11 0h11v11H11zm22 0h11v11H33zm11 0h11v11H44zm11 0h11v11H55zm11 0h11v11H66zm11 0h11v11H77zm22 0h11v11H99zm22 0h11v11h-11zm11 0h11v11h-11zm11 0h11v11h-11zm33 0h11v11h-11zm22 0h11v11h-11zm22 0h11v11h-11zm11 0h11v11h-11zm11 0h11v11h-11zm11 0h11v11h-11zm11 0h11v11h-11zm11 0h11v11h-11zm22 0h11v11h-11zM88 231h11v11H88zm11 0h11v11H99zm11 0h11v11h-11zm11 0h11v11h-11zm44 0h11v11h-11zm11 0h11v11h-11zm22 0h11v11h-11zm22 0h11v11h-11zm44 0h11v11h-11zm11 0h11v11h-11zm11 0h11v11h-11zm22 0h11v11h-11zM0 242h11v11H0zm11 0h11v11H11zm11 0h11v11H22zm11 0h11v11H33zm11 0h11v11H44zm11 0h11v11H55zm11 0h11v11H66zm44 0h11v11h-11zm22 0h11v11h-11zm44 0h11v11h-11zm11 0h11v11h-11zm33 0h11v11h-11zm22 0h11v11h-11zm22 0h11v11h-11zm44 0h11v11h-11zM0 253h11v11H0zm66 0h11v11H66zm22 0h11v11H88zm44 0h11v11h-11zm33 0h11v11h-11zm11 0h11v11h-11zm11 0h11v11h-11zm33 0h11v11h-11zm44 0h11v11h-11zm33 0h11v11h-11zM0 264h11v11H0zm22 0h11v11H22zm11 0h11v11H33zm11 0h11v11H44zm22 0h11v11H66zm33 0h11v11H99zm11 0h11v11h-11zm22 0h11v11h-11zm11 0h11v11h-11zm11 0h11v11h-11zm22 0h11v11h-11zm11 0h11v11h-11zm11 0h11v11h-11zm11 0h11v11h-11zm11 0h11v11h-11zm11 0h11v11h-11zm11 0h11v11h-11zm11 0h11v11h-11zm11 0h11v11h-11zm11 0h11v11h-11zm22 0h11v11h-11zM0 275h11v11H0zm22 0h11v11H22zm11 0h11v11H33zm11 0h11v11H44zm22 0h11v11H66zm55 0h11v11h-11zm22 0h11v11h-11zm22 0h11v11h-11zm11 0h11v11h-11zm33 0h11v11h-11zm22 0h11v11h-11zm22 0h11v11h-11zm11 0h11v11h-11zm11 0h11v11h-11zm11 0h11v11h-11zm11 0h11v11h-11zM0 286h11v11H0zm22 0h11v11H22zm11 0h11v11H33zm11 0h11v11H44zm22 0h11v11H66zm22 0h11v11H88zm11 0h11v11H99zm33 0h11v11h-11zm77 0h11v11h-11zm22 0h11v11h-11zm33 0h11v11h-11zm33 0h11v11h-11zm11 0h11v11h-11zM0 297h11v11H0zm66 0h11v11H66zm22 0h11v11H88zm11 0h11v11H99zm33 0h11v11h-11zm55 0h11v11h-11zm22 0h11v11h-11zm11 0h11v11h-11zm33 0h11v11h-11zm22 0h11v11h-11zM0 308h11v11H0zm11 0h11v11H11zm11 0h11v11H22zm11 0h11v11H33zm11 0h11v11H44zm11 0h11v11H55zm11 0h11v11H66zm22 0h11v11H88zm44 0h11v11h-11zm33 0h11v11h-11zm11 0h11v11h-11zm11 0h11v11h-11zm11 0h11v11h-11zm22 0h11v11h-11zm22 0h11v11h-11zm11 0h11v11h-11zm11 0h11v11h-11zm44 0h11v11h-11z"/></svg>