<svg viewBox="0 0 37.606 23.527" xmlns="http://www.w3.org/2000/svg" xmlns:xlink="http://www.w3.org/1999/xlink"><defs><path id="a" d="M.808.58h14.551v23.527H.808z"/><path id="c" d="M0 .58h14.552v23.527H0z"/></defs><g fill="none" fill-rule="evenodd"><path fill="#ff6a00" d="M12.539 13.118h12.529v-2.834h-12.53z"/><g transform="translate(0 -.58)"><g transform="translate(22.248)"><mask id="b" fill="#fff"><use width="100%" height="100%" xlink:href="#a"/></mask><path d="M9.097.58H.807l2.002 2.84 6.044 1.858a2.62 2.62 0 011.825 2.517v9.096a2.624 2.624 0 01-1.825 2.517l-6.044 1.858-2 2.84h8.29c3.458 0 6.26-2.813 6.26-6.282V6.863c0-3.47-2.802-6.283-6.26-6.283" fill="#ff6a00" mask="url(#b)"/></g><mask id="d" fill="#fff"><use width="100%" height="100%" xlink:href="#c"/></mask><path d="M6.262.58h8.29l-2.001 2.84-6.044 1.859a2.62 2.62 0 00-1.825 2.517v9.096a2.624 2.624 0 001.825 2.517l6.044 1.858 2.001 2.84h-8.29C2.803 24.108 0 21.295 0 17.826V6.863C0 3.393 2.803.58 6.262.58" fill="#ff6a00" mask="url(#d)"/></g></g></svg>
