<svg xmlns="http://www.w3.org/2000/svg" viewBox="0 .231 186.12 161.44"><path d="M379.152 161.442V111.85s-14.88.822-14.88 11.582v38.011zM324.127.005v51.911s-14.88-.822-14.88-11.582V.005zm2.013 89.55c-1.299-4.721-1.899-8.911-1.971-12.626l-.043-12.819c0-10.76-14.891-11.464-14.891-11.464v24.205c.046 5.3.85 10.893 2.442 16.684 3.367 12.238 12.458 21.253 26.288 26.069 9.772 3.404 18.74 3.429 19.111 3.431l.008-14.927c-.259-.002-25.945-.382-30.944-18.553M67.615 100.643v-19.61L53.495 95.17a40.486 40.486 0 004.304 2.636 28.84 28.84 0 003.787 1.673c1.176.417 2.268.702 3.271.887a16.56 16.56 0 002.758.278m72.189-1.63c.025.02.162.137.416.298a7.28 7.28 0 001.122.578 10.05 10.05 0 001.857.56c.745.152 1.617.252 2.622.252.839 0 1.764-.073 2.778-.25a21.064 21.064 0 003.306-.873 28.945 28.945 0 003.837-1.68 40.657 40.657 0 004.37-2.67L149.395 84.73l-35.512-35.645L98.3 64.673 77.28 42.996 24.525 95.155a40.621 40.621 0 004.364 2.67 28.912 28.912 0 003.834 1.68 20.89 20.89 0 003.303.873 16.11 16.11 0 002.775.25c1.005 0 1.878-.1 2.622-.252a9.977 9.977 0 001.856-.561c.495-.205.866-.414 1.121-.576s.393-.279.418-.3l23.815-23.815 8.516-8.166 23.582 23.582 8.24 8.473c.024.02.162.137.417.298a7.26 7.26 0 001.121.578 10.11 10.11 0 001.856.56c.745.152 1.619.252 2.624.252.837 0 1.764-.073 2.777-.25a21.1 21.1 0 003.307-.873 29.006 29.006 0 003.836-1.68 40.657 40.657 0 004.369-2.67l-18.924-18.532 3.522-3.522 16.377 16.376 9.55 9.463M139.6.243l46.524 80.602-46.524 80.603H46.521L-.003 80.844 46.521.243z" fill="#0d597f"/></svg>
