<svg xmlns="http://www.w3.org/2000/svg" fill="none" viewBox="0 0 450 450"><g transform="translate(-31 -31)"><rect width="395" height="395" x="58.5" y="58.5" fill="#1d2126" stroke="#4285f4" stroke-width="55" rx="68.5"/><path fill="#fff" d="M152.16 72h-4.032l1.368-3.546 7.776-20.232.756-1.998h5.238l.774 1.98 7.722 20.214L173.148 72h-6.282l-.54-1.656-4.842-13.968-.864-2.88h-.108l-.864 2.862-4.878 13.95-.522 1.692zm.792-5.004 1.53-4.122h11.808l1.584 4.122zM186.634 72h-2.808V46.224h5.904l.882 1.386 9.198 14.436h.108l-.108-3.996V46.224h5.598V72h-5.202l-.774-1.188-10.008-15.282h-.126l.126 3.978V72zm35.052 0H218.5V46.224h9.18q5.904 0 9.522 3.546 3.618 3.528 3.618 9.324 0 5.832-3.618 9.378Q233.584 72 227.68 72zm2.61-5.148h3.06q3.492.036 5.526-1.998 2.052-2.052 2.052-5.706 0-3.618-2.034-5.616c-2.034-1.998-3.204-1.998-5.544-1.998h-3.06zM255.404 72h-2.898V46.224h10.26q3.834 0 6.444 2.268 2.628 2.268 2.628 6.048 0 3.546-2.502 5.832-2.484 2.268-6.48 2.268h-7.938v-4.158h7.29q1.62 0 2.718-1.008 1.116-1.026 1.116-2.682 0-1.494-1.08-2.502-1.062-1.026-2.61-1.026h-4.05V72zm13.302 0h-1.728l-.648-1.008-6.84-10.548 6.12-.216 5.31 7.776L273.692 72zm26.788.594q-5.58 0-9.504-3.744-3.906-3.762-3.906-9.756 0-6.012 3.924-9.738 3.942-3.726 9.468-3.726c5.526 0 6.84 1.26 9.468 3.78q3.942 3.762 3.942 9.684 0 5.886-3.924 9.702-3.906 3.798-9.468 3.798m-.018-5.598q3.258 0 5.418-2.232 2.178-2.25 2.178-5.67 0-3.456-2.178-5.652-2.178-2.214-5.418-2.214-3.204 0-5.4 2.214-2.178 2.214-2.178 5.652c0 3.438.72 4.182 2.16 5.67q2.178 2.232 5.418 2.232M323.522 72h-2.934V46.224h5.868V72zm19.211 0h-3.186V46.224h9.18q5.904 0 9.522 3.546 3.618 3.528 3.618 9.324 0 5.832-3.618 9.378Q354.631 72 348.727 72zm2.61-5.148h3.06q3.492.036 5.526-1.998 2.052-2.052 2.052-5.706 0-3.618-2.034-5.616c-2.034-1.998-3.204-1.998-5.544-1.998h-3.06z"/><path fill="#1f8e3d" d="M196.97 198.17h60.869l-60.869 60.87zM318.71 319.91h-60.869l60.869-60.869z"/><g fill="#34a853"><path d="M318.71 198.17v60.87l-60.869-60.87zM196.97 319.91v-60.869l60.869 60.869zM257.84 259.04h-60.869l60.869-60.869zM257.84 198.17h-60.869l60.869-60.869zM257.84 319.91h60.869l-60.869 60.869zM257.84 259.04h60.869l-60.869 60.87zM318.71 259.04h60.87l-60.87 60.87zM196.97 259.04H136.1l60.87-60.869z"/></g><g fill="#1f8e3d"><path d="M257.84 259.04v-60.869l60.869 60.869zM257.84 198.17v-60.869l60.869 60.869zM257.84 319.91v60.869l-60.869-60.869zM318.71 259.04v-60.869l60.87 60.869zM196.97 259.04v60.87l-60.87-60.87zM257.84 259.04v60.87l-60.869-60.87z"/></g><path fill="#e8f5e9" d="M342.41 405.07q-2.464 0-4.256-1.792-1.746-1.792-1.747-4.3v-43.497l-7.839 5.644q-1.658 1.21-3.718.851-2.061-.358-3.27-2.061t-.852-3.762q.404-2.106 2.061-3.36l16.709-11.916a10 10 0 0 1 1.344-.806q.717-.404 1.926-.404 2.374 0 3.987 1.703 1.658 1.657 1.658 4.121v53.487q0 2.508-1.792 4.3-1.748 1.792-4.211 1.792m39.968.448q-10.392 0-16.933-6.226-6.495-6.228-6.495-15.814 0-6.54 2.911-12.229 2.956-5.69 8.109-12.364l12.677-16.351q1.389-1.791 3.584-2.15 2.24-.358 4.076.896 2.06 1.479 2.419 3.853.358 2.373-1.254 4.3l-8.019 10.214q-1.836 2.284-7.526 6.406-5.644 4.12-7.705 17.246l-6.495-.045q1.389-10.572 8.556-15.544 7.212-4.972 15.544-4.972 8.243 0 14.067 5.734 5.823 5.688 5.823 14.827 0 9.632-6.585 15.948-6.54 6.271-16.754 6.271m-.045-10.482q5.241 0 8.601-3.225 3.405-3.226 3.405-8.288 0-4.972-3.405-8.198-3.36-3.27-8.511-3.27-5.196 0-8.646 3.27-3.404 3.226-3.404 8.243 0 4.972 3.359 8.243 3.405 3.225 8.601 3.225"/><rect width="184.32" height="184.32" x="257.84" y="128.71" stroke="#5f6368" stroke-width="14.335" rx="10.249" transform="rotate(45 257.84 128.71)"/><path fill="#c6ff00" fill-rule="evenodd" d="M172.35 318.42a1.48 1.48 0 0 0-.104-1.963 1.475 1.475 0 0 0-2.189.128c-36.669 45.83-55.876 82.05-46.139 91.787 14.588 14.588 88.614-35.788 165.34-112.52a1032 1032 0 0 0 21.301-21.936 2 2 0 0 0-.043-2.782l-4.185-4.185a2.004 2.004 0 0 0-2.874.044 1033 1033 0 0 1-21.215 21.844c-69.976 69.976-136.5 116.9-148.59 104.82-7.636-7.636 8.284-37.001 38.691-75.238z" clip-rule="evenodd"/><g fill="#000"><path d="M347.27 248.09a3 3 0 0 1 1.553 5.795zm1.553 5.795-27.368 7.333-1.553-5.795 27.368-7.333z"/><path d="M325.11 230.18a3 3 0 0 1 5.796 1.553zm5.796 1.553-7.334 27.368-5.795-1.553 7.333-27.368z"/><path d="M335.66 242.98c-8.171-8.171-21.231-8.361-29.167-.425l-17.724 17.724a3.924 3.924 0 0 0 5.549 5.548l4.777-4.777a7.846 7.846 0 0 1 11.097 0l7.398 7.398a7.846 7.846 0 0 1 0 11.097l-4.777 4.777a3.924 3.924 0 0 0 5.548 5.549l17.724-17.724c7.936-7.936 7.746-20.996-.425-29.167"/></g><g fill="#e8f5e9"><path d="m123.07 117 7.071 7.071-7.071 7.071-7.071-7.07zM108.07 332l7.071 7.071-7.071 7.071-7.071-7.07zM120.61 299l10.607 10.607-10.607 10.606-10.607-10.606zM123.07 183.44l7.071 7.071-7.071 7.071-7.071-7.07zM174.61 137l10.607 10.607-10.607 10.606-10.607-10.606zM145.21 139.15l7.071 7.071-7.071 7.071-7.071-7.07zM215.61 385l10.607 10.607-10.607 10.606-10.607-10.606zM227.07 110l7.071 7.071-7.071 7.071-7.071-7.07zM400.57 124.08l-7.071 7.071-7.071-7.071 7.07-7.071zM388.21 149.61l-10.607 10.607-10.606-10.607 10.606-10.607zM331.14 121.07l-7.071 7.071-7.071-7.071 7.07-7.071zM338.14 153.07l-7.071 7.071-7.071-7.071 7.07-7.071zM374.14 320.07l-7.071 7.071-7.071-7.071 7.07-7.071zM307.21 109.61l-10.607 10.607-10.606-10.607 10.606-10.607zM181.14 353.07l-7.071 7.071-7.071-7.071 7.07-7.071zM400.57 190.5l-10.607 10.607-10.606-10.607 10.606-10.607z"/></g></g></svg>