<svg xmlns="http://www.w3.org/2000/svg" viewBox="0 0 1000 900.01"><g fill-rule="evenodd" stroke="#fdee21" stroke-width="5.129"><path d="M596.792 704.6v192.85h47.346v-88.632l9.767.183v88.45h47.881V704.6h-47.88v71.552h-9.768V704.6zM760.712 704.6h-46.116v192.85h46.116zM768.262 704.6l36.429 192.85h54.984l36.429-192.85h-48.951l-12.067 82.517c-1.006 3.16-4.402 3.16-5.01 0l-12.06-82.52zM997.432 704.6h-91.538v192.85h91.538v-50.569l-50.898-.434v-21.679h24.248v-50.204h-24.248v-19.397h50.898z"/></g><path fill="#fdee21" fill-rule="evenodd" d="M503.122 119.762c-7.71-21.115-272.92-124.22-276.31-112.9-48.7 12.695-68.52 68.826-102.02 104.38l-74.393-4.261C17.628 149.123.432 192.18 12.14 236.931c42.002 56.906 90.76 105.33 121.15 176.81 2.402 33.692 145.82 3.533 176.56-3.136-41.992 30.059-78.561 76.65-62.846 210.84 14.346 63.014 24.159 133.37 151.4 204.64 16.75 9.381 51.407 20.207 72.838 28.098 20.495 9.4 44.46 13.264 112.07-7.413 39.124-16.863 81.365-27.022 119.65-43.844l-46.017 2.16c-63.37 1.378-112.29 6.105-127.38-11.6l-58.32-100.68 34-66.04c47.056 4.826 62.675 42.986 104.15 57.518l48.885-36.215c141.99 83.816 198.48-53.12 214.67-159.77-1.728-43.392-93.952 13.61-88.362-6.68 2.166-46.643-35.854-107.67-60.42-155.22l28.43-110.01c12.9-11.49-59.72-133.86-119.02-149.12-52.03-13.39-130.46 52.493-130.46 52.493z"/><g fill-rule="evenodd"><g fill="#c8c037"><path d="M736.382 353.56c.509 11.816.452 26.187 1.594 35.15-.197 6.838-5.323 7.088-9.565 8.52l27.631 10.12c5.486 9.231 9.894 18.463 14.347 27.694 5.166 22.708 1.31 23.357-2.125 25.03-10.027.103-20.025.122-29.358-1.863 4.18 2.206 5.1 3.815 5.543 6.642.815 5.212-2.54 12.329-8.067 19.188 8.172 4.534 23.071 8.97 34.14 13.18l12.62-28.092c-5.715-41.271-23.045-79.31-46.76-115.57zM787.952 491.99c15.324 6.387 36.495 4.514 65.848-10.613 4.365-3.105 8.43-1.249.62 3.857-38.5 34.547-56.928 17.265-66.468 6.756z"/><path d="M856.742 476.85c4.552 8.716 1.794 15.805.265 23.167-4.753 37.449-16.423 67.056-39.32 97.994-74.479 119.74-149.67 44.817-209.62-3.946l-24.799 62.137c-1.316 5.447-6.79 9.688 31.937 26.738l39.452-27.867c150.46 114.48 257.08-160.24 202.08-178.22zM626.212 583.85c-10.151.724-40.361 10.997-41.706 16.946l13.902-20.712zM606.472 456.88c1.86 0 10.788 2.397 9.83 1.864-1.37-.763-.153 12.519 2.657 19.439l-10.893 23.7c20.865-24.063 53.858-22.462 84.486-25.564l-14.612-9.054c2.538-8.466-.45-15.165-1.86-22.368zM657.742 385.52c-22.387 6.863-43.816 18.075-58.203 41.976 10.976-39.395 13.213-37.9 16.757-39.846 15.35-6.865 27.922-2.587 41.446-2.13z"/></g><g fill="#fcf6a0"><path d="M538.192 847.26c-27.07 29.87-87.47-2.26-137.63-18.64-127.46-81.05-152.36-157.35-154.09-232.2-6.554-107.22 26.37-169.52 68.014-184.27-27.561 53.129-40.41 148.5-27.631 219.42 10.315 39.455 10.529 106 76.545 141.62 32.327 18.199 23.57 32.368 45.43 49.413 23.956 18.679 90.748 36.437 129.36 24.658zM578.632 351.75c-45.831-64.991-110.29-89.387-182.98-92.053 14.568-4.75 29.136-7.222 43.704-14.246 3.567-3.749 2.4-10.344 1.062-17.042-69.97-18.27-114.13-40.85-170.03-61.781l150.91 36.215c101.91 3.872 93.158 29.032 157.34 148.91z"/><path d="M627.702 320.41c-33.87-48.35-66.72-107.03-111.31-144.35-107.64-48.584-214.12-84.666-338.91-117.5l39.827-51.216c132.42 30.227 256.8 80.808 368.21 164.19 18.849 47.66 31.419 95.383 42.173 148.87zM695.982 234.97s-18.988-42.6-28.233-58.866c-21.446-23.766-32.29-68.054-76.213-88.922 13.892 3.751 23.399-.719 51.759 24.992l44.669 84.734z"/><path d="M719.602 308.77c4.379-36.908 12.695-96.11 3.151-119.5-26.55-35.624-53.29-72.446-80.04-106.63-4.43-4.123-7.62-9.719-11.11-14.084 37.61 9.744 76.86 35.894 129.79 139.13z"/></g><path d="M561.482 313.13c-14.98-11.79-28.33-53.49-51.03-62.16-21.011-1.758-28.715-8.369-56.344-2.739 10.02-5.021 19.482-11.446 30.134-14.885 7.215-1.703 13.983.184 20.867 1.133 1.7-.803 2.814-1.802 2.398-3.313-27.812-17.187-84.866-17.432-123.38-27.243 44.699 1.496 94.156-.981 127.75 9.791 27.013 23.973 35.788 69.12 49.605 99.415zM643.392 112.037c6.2.563 39.574 53.353 41.142 62.137 2.775 19.202 9.62 40.728 11.46 60.819-5.497-19.27-11.486-38.537-18.974-57.806-2.19-5.307-7.724-17.302-23.107-34.27-7.163-11.958-8.71-21.358-10.52-30.88zM756.482 399.56h-14.278l15.78 4.142zM659.062 385.3c-14.358-1.765-29.091-2-43.448 1.156-5.852 7.86-6.256 15.856-8.813 23.245 17.454-19.236 24.38-20.412 52.26-24.4zM854.882 484.58c-7.99 6.377-8.789 12.379-32.413 19.572-17.228 4.074-26.961-2.832-35.07-12.116 12.294 3.521 14.259 12.81 47.225 2.396zM783.282 488.57c-5.75 15.812-11.95 31.79-18.2 46.6-14.882 17.454-8.54 7.508-30.818 34.617 7.128-10.998 16.4-21.566 21.254-33.02 3.409-7.543 7.653-15.543 9.532-22.244-5.907-2.95-17.999-3.184-19.639-2.125-19.808 11.683-23.382 24.047-35.059 36.086 8.464-13.53 15.693-28.298 25.505-40.476 1.118-1.58 8.383-1.886 12.849-2.819-6.94-1.19-19.786-3.685-20.82-3.572-12.922 3.105-20.163 14.361-29.756 21.836 6.994-10.098 13.436-20.612 22.317-29.292.879-1.02 24.883 1.082 37.324 6.047l.247 4.949 7.063 2.85 5.314-13.313zM626.532 583.9c-3.188-1.09-31.35-4.712-31.35-3.861-10.813 7.695-12.453 15.059-12.221 21.436 17.989-17.697 17.319-17.747 43.572-17.575zM605.142 456.62s20.322-2.963 19.926-1.066c-1.472 7.05 2.487 24.233 2.922 21.836l-11.424 9.32c23.926-12.029 49.113-9.611 74.656-11.45 0 0-21.507-5.938-20.192-6.124 4.798-.68-1.277-22.43-2.922-22.901 4.091-1.385 8.087-2.429 12.22-3.462-30.755-8.048-48.54-3.306-75.187 13.847z"/><path d="m781.022 471.79-4.517 2.263c-.64-13.231-14.85-12.26-26.834-12.382l-9.83-2.397c2.989 2.767 12.229 2.55 8.502 8.522-3.137 1.676-4.58 8.87-6.377 14.912l-5.313.266c9.387 3.668 18.095 6.883 28.428 11.184l6.11.932 14.612-7.856z"/><g fill="#fff"><path d="M646.322 462.87c-2.287-4.525-13.794-3.883-16.275-.955-2.016 2.379-.125 17.642 2.46 15.068 3.736-3.285 8.617-4.659 14.48-4.394.738-2.82.477-5.865-.665-9.72zM756.672 485.61c1.081-.792 3.369-8.444 2.63-10.733-1.512-5.404-12.212-4.266-12.212-4.266-2.611 1.536-4.9 9.96-3.945 12.739.455 2.352 11.809 3.102 13.526 2.26z"/></g><path d="m299.102 749.65 6.76.66c40.07 19.676 106.05 48.848 201.57 33.172l14.987 23.584c-42.067 20.442-87.312 15.738-129.71 17.172zM241.572 594.11l20.073 84.268c53.74 33.593 145.54 72.07 222.06 68.965l-16.91-38.8c-159.73-33.92-173.24-76.8-225.22-114.44zM291.522 421.5c9.81 65.302 22.907 114.81 79.69 156.28 34.804 25.03 69.35 49.954 111.37 70.524 0 0-3.684 19.17-6.763 18.829-125.05-13.89-216.6-117.58-227.69-164.94 10.74-36.33 26.149-59.021 43.389-80.693zM351.632 384.5c16.664 72.376 56.397 145.68 95.889 212.18 14.477 18.369 18.266 26.475 40.579 37.659 30.159 9.549 51.486 7.112 73.377 5.675-5.998-11.102-11.33-22.706-18.217-33.14-49.018-38.765-26.364-74.06-13.344-96.406-27.256-6.887-63.37-21.525-68.345-40.778-8-62.27-3.938-82.025 4.068-114.01-36.909 7.782-74.309 15.494-114.01 28.82z"/><path stroke="#000" stroke-width=".114" d="M216.77-66.742c-12.131 7.925-23.818 19.256-36.391 32.135-20.843 21.575-34.699 42.621-55.915 58.224-4.243 3.659-16.151 9.551-31.121 10.425-7.052.352-11.646 1.519-24.604-.108-11.428-6.188-22.285-2.164-32.881 10.51-11.619 16.709-26.334 48.437-32.453 68.41-12.611 50.937 19.541 92.905 50.374 125.25 27.429 26.796 43.243 43.542 54.505 68.107 8.527 15.933 14.844 37.799 21.683 53.13 2.466 4.86 1.953 4.835 8.591 6.3 14.333 3.059 34.215 3.083 51.915 4.604 7.659.107 18.175-.178 28.14-1.217 13.731-2.592 29.863-5.133 43.384-9.81 13.213-3.253 24.985-7.759 35.597-11.906-1.368 4.644-11.478 9.115-15.268 15.002-35.97 51.49-45.823 97.308-39.56 169.6 3.542 32.042 10.895 58.605 21.991 88.997 5.078 13.908 15.882 35.934 26.236 50.565 30.79 43.506 99.672 99.374 195.56 120.88 16.73 2.286 35.715 1.067 53.571-3.689 47.326-14.346 143.78-48.275 143.78-48.275s-85.619 7.083-124.83 3.206c-9.077-1.42-19.08-1.901-25.405-8.087-1.06-1.37-4.914-9.132-2.425-9.202 3.395-.095 13.142-4.14 28.19-5.482-32.128-3.459-31.67-3.418-34.015-9.27-3.648-9.085-9.23-21.502-14.977-32.367 14.118 1.19 45.376 2.945 55.984-8.003 0 0-18.497 2.136-34.843.219-5.508-.646-14.891-3.995-17.71-5.03-7.339-2.858-13.38-3.746-14.788-5.61-2.549-6.485-4.276-8.666-7.351-17.355-4.166-11.504-4.496-24.337-5.29-36.083 10.693 13.18 24.318 24.275 42.356 29.94.232-.487 23.4 10.073 40.226 4.643l3.489-1.126c0 .312-11.148.977-15.237-1.047-34.219-14.545-39.37-27.276-44.895-33.599l-14.777-22.133c4.494-8.96 7.035-9.301 12.989-9.384 18.011 2 25.848 3.54 36.807.896 7.405 15.24 9.406 30.57 26.265 41.662 56.166 16.672 68.369-4.951 81.973-24.057 40.412 29.658 106.2 38.803 151.89.514 58.086-67.212 76.476-173.17 71.325-179.22-7.254-12.307-16.772-24.999-24.945-23.245-29.13 7.952-39.871 22.73-68.735 19.36 3.438-.195 9.219-.288 9.263-.616 2.224-24.44-.179-36.267-1.252-38.297-8.759-19.317-20.261-39.646-28.278-54.88-2.067-3.161-8.137-27.166-18.308-36.649-4.362-3.724-15.039-13.546-15.039-13.546l-.905 10.44s4.174.63 5.763 7.097c6.022 24.517 36.687 82.485 38.938 85.263 10.868 17.545 1.104 39.4 9.367 51.663.794 1.557 16.857-.137 29.307.628 20.473-4.403 19.609-13.426 37.294-14.782 11.913-.913 13.108 21.46 12.95 23.196-2.22 24.704-9.734 53.427-21.235 79.658-23.912 46.07-50.691 87.446-88.67 93.216-46.326 8.095-70.4-12.158-95.512-25.055l-9.607 8.194c-32.637 32.5-71.389 29.614-87.239-12.851-7.89-16.473-18.172-26.57-26.976-40.7l-46.688 33.627c-3.886 7.97-8.665 20.54-14.47 34.58-4.036 9.76-7.42 26.525-7.2 40.456-5.984 10.195 20.73 51.542 37.61 76.692 4.98 7.42 14.279 20.385 14.59 21.193 3.347 8.683 10.679 16.349 11.124 17.284 31.337 40.872-39.531 31.46-54.167 28.99-28.876-4.6-57.121-16.662-83.67-32.791a339 339 0 0 1-4.605-2.848c-31.551-19.866-60.581-45.283-85.264-70.423-14.718-16.666-28.732-50.827-39.083-75.045-15.513-58.226-37.776-159.15 22.532-235.63 3.823-4.372 7.948-11.65 11.46-13.09 17.918-12.12 37.375-20.38 58.298-24.966l-2.112-13.563c-10.45 2.374-45.633 15.243-55.581 20.629-22.623 6.558-41.388 13.406-70.22 20.625-9.373 1.146-18.592 1.167-27.58-.054-20.74-2.818-56.093-.3-58.348-2.396-14.044-19.585-17.89-54.676-30.703-73.456l-.152-.187-.162-.178c-7.47-10.04-16.177-18.23-24.752-26.75-30.708-30.51-56.99-60.01-64.348-91.27-1.85-9.23-6.614-18.79-4.082-46.1l.047-.134.044-.133C24.942 92.06 36.961 71.263 57.36 50.42c21.228.342 42.24.809 58.607 3.935 7.51 1.256 23.124 3.296 39.252 9.304 40.822 15.207 94.76 40.209 94.76 40.209-40.488-22.236-85.76-51.115-114.35-56.943-4.253-.602-6.868-2.543-8.13-5.93 42.998-25.264 50.864-55.009 79.146-81.686 12.925-5.626 17.965-8.498 28.947-9.692 101.57 16.06 165.51 56.515 216.09 83.566 20.53 11.164 39.191 19.606 57.015 29.773 15.624 5.14 62.771 40.734 76.57 59.925 14.016 29.595 24.25 61.563 33.584 92.411 6.693 31.375 12.564 44.102 12.564 44.102s-5.688-26.243-4.74-30.958c5.898 2.204 19.84 6.558 25.62 5.881 0 0-25.817-13.346-29.2-25.14-10.856-37.848-21.744-96.766-24.68-99.838-8.274-10.41-42.777-36.816-63.941-49.03-8.006-4.62-12.333-7.486-12.671-9.518 6.76-6.83 15.11-15.865 22.598-21.606 7.177-5.503 13.71-11.709 23.713-15.423 43.963-19.8 69.1 7.618 75.066 2.066 0 0-9.458-10.841-5.257-9.056 4.302 2.33 18.323 5.078 19.862 6.509 16.023 12.534 57.913 58.344 83.16 106.68 6.065 11.84 8.53 19.636 5.717 33.893-2.82 14.27-5.001 22.117-8.077 31.647-2.779 6.371-18.498 49.988-18.437 55.848-3.167 23.932 10.264 53.893 10.264 53.893.127-8.133-.5-12.466.236-18.282l.904-10.393s-.573-2.764-.469-3.86c.682-7.187 2.445-13.229 2.963-17.345 5.047-31.255 13.822-53.755 23.775-81.182 2.958-6.922 6.828-10.771 6.63-16.041.163-9.352-8.205-21.904-14.252-34.163-6.1-12.39-13.39-26.202-22.96-40.76-21.82-31.376-40.42-55.925-74.48-71.289-9.53-4.182-47.03-8.27-59.98-5.841-15.71 3.273-29.22 6.5-39.99 13.398-16.95 10.854-30.27 27.659-45.89 37.56-34.56-17.281-51.24-30.215-54.35-31.998-20.54-11.006-45.2-23.778-71.73-35.89-12.72-11.862-91.71-40.233-164.04-45.892zm442.08 644.59c-21.3-16.65-39.23-33.79-51.05-51.44-3.858 20.758-17.864 35.542-28.688 50.083-2.155 3.41-3.708 8.06 6.902 22.879 2.86 3.948 13.207 4.623 20.192 4.26-7.106-5.371-17.918-11.052-19.66-15.976 12.501 8.51 24.076 10.957 34.538 9.586 2.39-.269 5.36-2.804 7.656-6.706 4.663-10.02 8.315-12.433 12.005-15.13l8.501 10.651z" color="#000" style="isolation:auto;mix-blend-mode:normal;text-decoration-color:#000;text-decoration-line:none;text-decoration-style:solid;text-indent:0;text-transform:none;white-space:normal" transform="translate(-.538 66.81)"/></g></svg>