<svg viewBox="0 0 54.851 64" xmlns="http://www.w3.org/2000/svg"><defs><linearGradient id="a" x1="4.06" x2="316.39" y1="39.27" y2="39.27" gradientUnits="userSpaceOnUse"><stop stop-color="#8953ff" offset="0"/><stop stop-color="#00e0e3" offset="1"/></linearGradient></defs><path d="M0 0v64h29.18c10.95 0 19.299-7.18 23.289-17.15a45.12 45.12 0 002.38-14.869 45.121 45.121 0 00-2.38-14.83C48.779 7.371 40.13.001 29.18.001zm21.309 10h8.3v4.63h-3.33a3.44 3.44 0 00-3.439 3.44v27.91c0 1.9 1.54 3.44 3.44 3.44h3.33v4.63h-8.301a6.87 6.87 0 01-6.87-6.87V16.869a6.868 6.868 0 016.87-6.87z" fill="url(#a)"/></svg>
