<svg xmlns="http://www.w3.org/2000/svg" version="1.1" viewBox="0 0 1000.7 499.01"><path d="m809.62 498.53-309.25-119.87-309.24 119.84 122.1-191.05-313.24-116.99 384.71 1.793 115.64-192.15 115.66 192.15 384.71-1.758-313.24 116.96 122.12 191.06"/><path d="m767.8 464.36-267.15-103.55-267.14 103.52 105.48-165.04-270.59-101.06 332.34 1.548 99.905-165.99 99.911 166 332.34-1.522-270.59 101.04 105.5 165.05" fill="#619cbc"/><path d="m295.57 98.301c26.685 0 11.132 66.68 1.642 86.786-8.126 17.214-26.42 42.04-48.102 42.04-26.014 0-25.24-29.136-14.885-51.07 5.606-11.875 14.221-25.186 26.091-34.973-3.038 10.215 7.232 17.193 3.078 25.994-2.837 6.01-8.709 12.578-11.76 19.041-4.935 10.452-3.05 29 8.873 29 10.671 0 20.155-13.22 24.042-21.455 7.964-16.874 27.878-88.862 5.619-88.862-25.636 0-69.811 62.471-79.061 82.066-16.512 34.978-4.543 78.061 33.078 78.061 25.42 0 46.33-24.439 56.428-45.834 6.016-12.743 9.292-25.423 10.582-37.38l4.935-0.902c1.09 32.91 35.907 87.408 21.086 118.8-18.969 40.183-75.689 39.823-108.07 54.085-6.807-15.924-16.029-30.73-29.015-42.028 28.889-9.717 99.878-26.035 115.31-58.735 6.487-13.74 2.07-36.52-5.425-44.24a85.337 85.337 0 0 1-5.382 14.768c-13.217 27.997-41.516 49.71-70.69 49.71-40.619 0-57.839-29.188-38.722-69.688 11.472-24.301 70.057-105.19 100.35-105.19"/><path d="m295.57 98.301c26.685 0 11.132 66.68 1.642 86.786-8.126 17.214-26.42 42.04-48.102 42.04-26.014 0-25.24-29.136-14.885-51.07 5.606-11.875 14.221-25.186 26.091-34.973-3.038 10.215 7.232 17.193 3.078 25.994-2.837 6.01-8.709 12.578-11.76 19.041-4.935 10.452-3.05 29 8.873 29 10.671 0 20.155-13.22 24.042-21.455 7.964-16.874 27.878-88.862 5.619-88.862-25.636 0-69.811 62.471-79.061 82.066-16.512 34.978-4.543 78.061 33.078 78.061 25.42 0 46.33-24.439 56.428-45.834 6.016-12.743 9.292-25.423 10.582-37.38l4.935-0.902c1.09 32.91 35.907 87.408 21.086 118.8-18.969 40.183-75.689 39.823-108.07 54.085-6.807-15.924-16.029-30.73-29.015-42.028 28.889-9.717 99.878-26.035 115.31-58.735 6.487-13.74 2.07-36.52-5.425-44.24a85.337 85.337 0 0 1-5.382 14.768c-13.217 27.997-41.516 49.71-70.69 49.71-40.619 0-57.839-29.188-38.722-69.688 11.472-24.301 70.057-105.19 100.35-105.19z" fill="none" stroke="#000" stroke-linejoin="round" stroke-miterlimit="3.864" stroke-width="44.698"/><path d="m364.97 194.8c1.613 3.965 6.278 26.417 9.822 26.417 7.651 0 21.479-20.819 25.188-26.224 6.804 4.456 3.03 13.81 15.638 13.81 5.709 0 8.58-12.296 14.52-12.496 0.21 4.97 0.529 9.468-2.18 15.21-4.18 8.853-14.752 20.849-25.145 20.849-7.445 0-17.813-8.963-19.85-8.963-2.212 0-6.272 1.035-7.568 3.777-5.411 11.466 9.057 49.746 23.568 49.746 7.753 0 17.006-5.688 25.116-9.197-2.112 13.794-2.405 25.424 0.389 37.291-7.39 4.683-16.048 6.657-22.995 6.657-35.655 0-15.992-82.92-48.87-100.59l12.366-16.29"/><path d="m364.97 194.8c1.613 3.965 6.278 26.417 9.822 26.417 7.651 0 21.479-20.819 25.188-26.224 6.804 4.456 3.03 13.81 15.638 13.81 5.709 0 8.58-12.296 14.52-12.496 0.21 4.97 0.529 9.468-2.18 15.21-4.18 8.853-14.752 20.849-25.145 20.849-7.445 0-17.813-8.963-19.85-8.963-2.212 0-6.272 1.035-7.568 3.777-5.411 11.466 9.057 49.746 23.568 49.746 7.753 0 17.006-5.688 25.116-9.197-2.112 13.794-2.405 25.424 0.389 37.291-7.39 4.683-16.048 6.657-22.995 6.657-35.655 0-15.992-82.92-48.87-100.59z" fill="none" stroke="#000" stroke-linejoin="round" stroke-miterlimit="3.864" stroke-width="44.698"/><path d="m502.01 188.16c26.946 0 37.585 48.474 25.496 74.086-9.381 19.87-26.01 34.273-47.316 34.273-37.626 0-32.911-51.29-18.232-82.388 4.048-8.566 17.878-27.239 28.696-27.239 3.974 0 7.267 1.267 11.357 1.267zm-0.834 4.525c-4.241 0-7.972 2.096-9.938 6.27-4.131 8.747 16.465 17.598 13.507 23.858-1.86 3.94-8.944 7.627-12.517 7.627-17.855 0-17.704-23.232-7.06-38.374-6.618 4.217-10.957 10.658-13.775 16.633-10.464 22.162-2.16 52.65 21.72 52.65 13.195 0 28.392-11.855 34.297-24.369 7.268-15.387-11.316-44.295-26.232-44.295" fill-rule="evenodd"/><path d="m502.01 188.16c26.946 0 37.585 48.474 25.496 74.086-9.381 19.87-26.01 34.273-47.316 34.273-37.626 0-32.911-51.29-18.232-82.388 4.048-8.566 17.878-27.239 28.696-27.239 3.974 0 7.267 1.267 11.357 1.267z" fill="none" stroke="#000" stroke-linejoin="round" stroke-miterlimit="3.864" stroke-width="44.698"/><path d="m501.17 192.69c-4.242 0-7.973 2.097-9.94 6.27-4.13 8.747 16.466 17.598 13.508 23.858-1.86 3.94-8.943 7.627-12.517 7.627-17.855 0-17.704-23.232-7.06-38.373-6.618 4.216-10.957 10.657-13.775 16.632-10.464 22.163-2.16 52.65 21.72 52.65 13.195 0 28.392-11.855 34.297-24.369 7.268-15.387-11.315-44.295-26.232-44.295z" fill="none" stroke="#000" stroke-linejoin="round" stroke-miterlimit="3.864" stroke-width="44.698"/><path d="m624.47 267.96c-7.042 14.915-20.163 23.104-34.938 23.104-46.889 0-56.191-42.756-35.872-85.804 4.798-10.16 12.673-21.401 24.698-21.401 37.67 0 63.91 46.39 46.11 84.101zm-37.41-78.7c-3.46 0-6.494 1.25-8.152 4.765-3.648 7.73 16.197 14.621 16.225 22.609-2.073 2.454-7.876 5.201-10.404 5.201-14.291 0-25.076-19.374-12.877-33.772-4.951 3.144-7.89 7.85-9.98 12.275-12.37 26.204 5.264 52.696 30.957 52.696 10.694 0 24.478-5.951 30.033-17.721 7.861-16.658-20.14-46.054-35.803-46.054" fill-rule="evenodd"/><path d="m624.47 267.96c-7.042 14.915-20.163 23.104-34.938 23.104-46.889 0-56.191-42.756-35.872-85.804 4.798-10.16 12.673-21.401 24.698-21.401 37.67 0 63.91 46.39 46.11 84.101z" fill="none" stroke="#000" stroke-linejoin="round" stroke-miterlimit="3.864" stroke-width="44.698"/><path d="m587.06 189.26c-3.459 0-6.494 1.25-8.152 4.765-3.647 7.73 16.198 14.621 16.225 22.609-2.072 2.454-7.875 5.201-10.403 5.201-14.292 0-25.077-19.374-12.878-33.772-4.95 3.144-7.89 7.85-9.98 12.275-12.37 26.204 5.264 52.696 30.958 52.696 10.693 0 24.477-5.951 30.032-17.721 7.862-16.658-20.14-46.054-35.802-46.054z" fill="none" stroke="#000" stroke-linejoin="round" stroke-miterlimit="3.864" stroke-width="44.698"/><path d="m672.96 189c40.409 0 60.94 74.15 42.881 112.4-3.45 7.313-9.883 14.621-18.366 14.621-46.165 0-34.38-91.763-60.369-117.84a115.39 115.39 0 0 0 6.738-7.825c17.561 20.608 8.833 74.845 46.34 74.845 8.64 0 15.175-7.566 18.661-14.95 9.313-19.73-7.921-53.997-26.785-53.997-0.189 0-2.897 0.113-2.837 1.21 0.696 12.592 10.602 4.74 0.627 26.171-10.192-2.03-20.988-18.393-15.415-30.2 1.64-3.47 5.743-4.437 8.524-4.437"/><path d="m672.96 189c40.409 0 60.94 74.15 42.881 112.4-3.45 7.313-9.883 14.621-18.366 14.621-46.165 0-34.38-91.763-60.369-117.84a115.39 115.39 0 0 0 6.738-7.825c17.561 20.608 8.833 74.845 46.34 74.845 8.64 0 15.175-7.566 18.661-14.95 9.313-19.73-7.921-53.997-26.785-53.997-0.189 0-2.897 0.113-2.837 1.21 0.696 12.592 10.602 4.74 0.627 26.171-10.192-2.03-20.988-18.393-15.415-30.2 1.64-3.47 5.743-4.437 8.524-4.437z" fill="none" stroke="#000" stroke-linejoin="round" stroke-miterlimit="3.864" stroke-width="44.698"/><path d="m773.44 188.18c3.804 0.36 9.524 0.02 12.79 1.013 0.613 0.185 0.147 0.952 0.253 1.555 0.99 5.602 2.552 10.92 3.901 16.333 5.264 21.096 8.433 42.752 14.475 63.662 6.572 22.766 13.425 48.421 5.467 76.989a53.4 53.4 0 0 1-3.164 8.481c-9.022 19.116-86.716 41.14-107 41.14-2.464 0-5.126-0.699-6.3-2.302 8.557-5.442 13.917-11.02 17.745-19.125 4.582-9.712 4.513-18.808 3.91-27.185 1.621 0.943 61.312-0.528 63.477-0.528 8.774 0 16.308-8.485 19.827-15.943 6.466-13.696 5.36-27.675 4.241-39.34-0.561-5.839-1.349-11.6-2.436-17.195l-1.649-8.103-0.207-0.888-0.203-0.885c0.981 0 0.102 1.72 0.139 2.587 0.603 14.121 0.35 33.835-7.236 49.906-3.527 7.468-9.293 15.166-18.145 15.166-38.796 0-19.282-110.03-50.375-136.19a80.643 80.643 0 0 0 4.55-8.642c18.4 22.221 19.362 83.476 46.442 83.476 6.572 0 13.365-6.16 16.16-12.079 12.03-25.484-7.954-55.172-16.663-71.906" fill-rule="evenodd"/><path d="m773.44 188.18c3.804 0.36 9.524 0.02 12.79 1.013 0.613 0.185 0.147 0.952 0.253 1.555 0.99 5.602 2.552 10.92 3.901 16.333 5.264 21.096 8.433 42.752 14.475 63.662 6.572 22.766 13.425 48.421 5.467 76.989a53.4 53.4 0 0 1-3.164 8.481c-9.022 19.116-86.716 41.14-107 41.14-2.464 0-5.126-0.699-6.3-2.302 8.557-5.442 13.917-11.02 17.745-19.125 4.582-9.712 4.513-18.808 3.91-27.185 1.621 0.943 61.312-0.528 63.477-0.528 8.774 0 16.308-8.485 19.827-15.943 6.466-13.696 5.36-27.675 4.241-39.34-0.561-5.839-1.349-11.6-2.436-17.195l-1.649-8.103-0.207-0.888-0.203-0.885c0.981 0 0.102 1.72 0.139 2.587 0.603 14.121 0.35 33.835-7.236 49.906-3.527 7.468-9.293 15.166-18.145 15.166-38.796 0-19.282-110.03-50.375-136.19a80.643 80.643 0 0 0 4.55-8.642c18.4 22.221 19.362 83.476 46.442 83.476 6.572 0 13.365-6.16 16.16-12.079 12.03-25.484-7.954-55.172-16.663-71.906z" fill="none" stroke="#000" stroke-linejoin="round" stroke-miterlimit="3.864" stroke-width="44.698"/><path d="m295.57 98.301c26.685 0 11.132 66.68 1.642 86.786-8.126 17.214-26.42 42.04-48.102 42.04-26.014 0-25.24-29.136-14.885-51.07 5.606-11.875 14.221-25.186 26.091-34.973-3.038 10.215 7.232 17.193 3.078 25.994-2.837 6.01-8.709 12.578-11.76 19.041-4.935 10.452-3.05 29 8.873 29 10.671 0 20.155-13.22 24.042-21.455 7.964-16.874 27.878-88.862 5.619-88.862-25.636 0-69.811 62.471-79.061 82.066-16.512 34.978-4.543 78.061 33.078 78.061 25.42 0 46.33-24.439 56.428-45.834 6.016-12.743 9.292-25.423 10.582-37.38l4.935-0.902c1.09 32.91 35.907 87.408 21.086 118.8-18.969 40.183-75.689 39.823-108.07 54.085-6.807-15.924-16.029-30.73-29.015-42.028 28.889-9.717 99.878-26.035 115.31-58.735 6.487-13.74 2.07-36.52-5.425-44.24a85.337 85.337 0 0 1-5.382 14.768c-13.217 27.997-41.516 49.71-70.69 49.71-40.619 0-57.839-29.188-38.722-69.688 11.472-24.301 70.057-105.19 100.35-105.19"/><path d="m295.57 98.301c26.685 0 11.132 66.68 1.642 86.786-8.126 17.214-26.42 42.04-48.102 42.04-26.014 0-25.24-29.136-14.885-51.07 5.606-11.875 14.221-25.186 26.091-34.973-3.038 10.215 7.232 17.193 3.078 25.994-2.837 6.01-8.709 12.578-11.76 19.041-4.935 10.452-3.05 29 8.873 29 10.671 0 20.155-13.22 24.042-21.455 7.964-16.874 27.878-88.862 5.619-88.862-25.636 0-69.811 62.471-79.061 82.066-16.512 34.978-4.543 78.061 33.078 78.061 25.42 0 46.33-24.439 56.428-45.834 6.016-12.743 9.292-25.423 10.582-37.38l4.935-0.902c1.09 32.91 35.907 87.408 21.086 118.8-18.969 40.183-75.689 39.823-108.07 54.085-6.807-15.924-16.029-30.73-29.015-42.028 28.889-9.717 99.878-26.035 115.31-58.735 6.487-13.74 2.07-36.52-5.425-44.24a85.337 85.337 0 0 1-5.382 14.768c-13.217 27.997-41.516 49.71-70.69 49.71-40.619 0-57.839-29.188-38.722-69.688 11.472-24.301 70.057-105.19 100.35-105.19z" fill="none" stroke="#000" stroke-miterlimit="3.864" stroke-width="3.7249"/><path d="m364.97 194.8c1.613 3.965 6.278 26.417 9.822 26.417 7.651 0 21.479-20.819 25.188-26.224 6.804 4.456 3.03 13.81 15.638 13.81 5.709 0 8.58-12.296 14.52-12.496 0.21 4.97 0.529 9.468-2.18 15.21-4.18 8.853-14.752 20.849-25.145 20.849-7.445 0-17.813-8.963-19.85-8.963-2.212 0-6.272 1.035-7.568 3.777-5.411 11.466 9.057 49.746 23.568 49.746 7.753 0 17.006-5.688 25.116-9.197-2.112 13.794-2.405 25.424 0.389 37.291-7.39 4.683-16.048 6.657-22.995 6.657-35.655 0-15.992-82.92-48.87-100.59l12.366-16.29"/><path d="m364.97 194.8c1.613 3.965 6.278 26.417 9.822 26.417 7.651 0 21.479-20.819 25.188-26.224 6.804 4.456 3.03 13.81 15.638 13.81 5.709 0 8.58-12.296 14.52-12.496 0.21 4.97 0.529 9.468-2.18 15.21-4.18 8.853-14.752 20.849-25.145 20.849-7.445 0-17.813-8.963-19.85-8.963-2.212 0-6.272 1.035-7.568 3.777-5.411 11.466 9.057 49.746 23.568 49.746 7.753 0 17.006-5.688 25.116-9.197-2.112 13.794-2.405 25.424 0.389 37.291-7.39 4.683-16.048 6.657-22.995 6.657-35.655 0-15.992-82.92-48.87-100.59z" fill="none" stroke="#000" stroke-miterlimit="3.864" stroke-width="3.7249"/><path d="m502.01 188.16c26.946 0 37.585 48.474 25.496 74.086-9.381 19.87-26.01 34.273-47.316 34.273-37.626 0-32.911-51.29-18.232-82.388 4.048-8.566 17.878-27.239 28.696-27.239 3.974 0 7.267 1.267 11.357 1.267zm-0.834 4.525c-4.241 0-7.972 2.096-9.938 6.27-4.131 8.747 16.465 17.598 13.507 23.858-1.86 3.94-8.944 7.627-12.517 7.627-17.855 0-17.704-23.232-7.06-38.374-6.618 4.217-10.957 10.658-13.775 16.633-10.464 22.162-2.16 52.65 21.72 52.65 13.195 0 28.392-11.855 34.297-24.369 7.268-15.387-11.316-44.295-26.232-44.295" fill-rule="evenodd"/><path d="m502.01 188.16c26.946 0 37.585 48.474 25.496 74.086-9.381 19.87-26.01 34.273-47.316 34.273-37.626 0-32.911-51.29-18.232-82.388 4.048-8.566 17.878-27.239 28.696-27.239 3.974 0 7.267 1.267 11.357 1.267z" fill="none" stroke="#000" stroke-miterlimit="3.864" stroke-width="3.7249"/><path d="m501.17 192.69c-4.242 0-7.973 2.097-9.94 6.27-4.13 8.747 16.466 17.598 13.508 23.858-1.86 3.94-8.943 7.627-12.517 7.627-17.855 0-17.704-23.232-7.06-38.373-6.618 4.216-10.957 10.657-13.775 16.632-10.464 22.163-2.16 52.65 21.72 52.65 13.195 0 28.392-11.855 34.297-24.369 7.268-15.387-11.315-44.295-26.232-44.295z" fill="none" stroke="#000" stroke-miterlimit="3.864" stroke-width="3.7249"/><path d="m624.47 267.96c-7.042 14.915-20.163 23.104-34.938 23.104-46.889 0-56.191-42.756-35.872-85.804 4.798-10.16 12.673-21.401 24.698-21.401 37.67 0 63.91 46.39 46.11 84.101zm-37.41-78.7c-3.46 0-6.494 1.25-8.152 4.765-3.648 7.73 16.197 14.621 16.225 22.609-2.073 2.454-7.876 5.201-10.404 5.201-14.291 0-25.076-19.374-12.877-33.772-4.951 3.144-7.89 7.85-9.98 12.275-12.37 26.204 5.264 52.696 30.957 52.696 10.694 0 24.478-5.951 30.033-17.721 7.861-16.658-20.14-46.054-35.803-46.054" fill-rule="evenodd"/><path d="m624.47 267.96c-7.042 14.915-20.163 23.104-34.938 23.104-46.889 0-56.191-42.756-35.872-85.804 4.798-10.16 12.673-21.401 24.698-21.401 37.67 0 63.91 46.39 46.11 84.101z" fill="none" stroke="#000" stroke-miterlimit="3.864" stroke-width="3.7249"/><path d="m587.06 189.26c-3.459 0-6.494 1.25-8.152 4.765-3.647 7.73 16.198 14.621 16.225 22.609-2.072 2.454-7.875 5.201-10.403 5.201-14.292 0-25.077-19.374-12.878-33.772-4.95 3.144-7.89 7.85-9.98 12.275-12.37 26.204 5.264 52.696 30.958 52.696 10.693 0 24.477-5.951 30.032-17.721 7.862-16.658-20.14-46.054-35.802-46.054z" fill="none" stroke="#000" stroke-miterlimit="3.864" stroke-width="3.7249"/><path d="m672.96 189c40.409 0 60.94 74.15 42.881 112.4-3.45 7.313-9.883 14.621-18.366 14.621-46.165 0-34.38-91.763-60.369-117.84a115.39 115.39 0 0 0 6.738-7.825c17.561 20.608 8.833 74.845 46.34 74.845 8.64 0 15.175-7.566 18.661-14.95 9.313-19.73-7.921-53.997-26.785-53.997-0.189 0-2.897 0.113-2.837 1.21 0.696 12.592 10.602 4.74 0.627 26.171-10.192-2.03-20.988-18.393-15.415-30.2 1.64-3.47 5.743-4.437 8.524-4.437"/><path d="m672.96 189c40.409 0 60.94 74.15 42.881 112.4-3.45 7.313-9.883 14.621-18.366 14.621-46.165 0-34.38-91.763-60.369-117.84a115.39 115.39 0 0 0 6.738-7.825c17.561 20.608 8.833 74.845 46.34 74.845 8.64 0 15.175-7.566 18.661-14.95 9.313-19.73-7.921-53.997-26.785-53.997-0.189 0-2.897 0.113-2.837 1.21 0.696 12.592 10.602 4.74 0.627 26.171-10.192-2.03-20.988-18.393-15.415-30.2 1.64-3.47 5.743-4.437 8.524-4.437z" fill="none" stroke="#000" stroke-miterlimit="3.864" stroke-width="3.7249"/><path d="m773.44 188.18c3.804 0.36 9.524 0.02 12.79 1.013 0.613 0.185 0.147 0.952 0.253 1.555 0.99 5.602 2.552 10.92 3.901 16.333 5.264 21.096 8.433 42.752 14.475 63.662 6.572 22.766 13.425 48.421 5.467 76.989a53.4 53.4 0 0 1-3.164 8.481c-9.022 19.116-32.22 37.313-52.508 37.313-2.463 0-5.12-0.697-6.3-2.3 8.562-5.442 13.918-11.023 17.745-19.124 4.587-9.714 4.518-18.811 3.915-27.185 1.621 0.943 6.816 3.298 8.98 3.298 8.774 0 16.308-8.485 19.827-15.943 6.466-13.696 5.36-27.675 4.241-39.34-0.561-5.839-1.349-11.6-2.436-17.195l-1.649-8.103-0.207-0.887-0.203-0.886c0.981 0 0.102 1.721 0.139 2.587 0.603 14.121 0.35 33.835-7.236 49.906-3.527 7.468-9.293 15.167-18.145 15.167-38.796 0-19.282-110.03-50.375-136.19a80.643 80.643 0 0 0 4.55-8.642c18.4 22.222 19.362 83.477 46.442 83.477 6.572 0 13.365-6.16 16.16-12.08 12.03-25.483-7.954-55.172-16.663-71.906" fill-rule="evenodd"/><path d="m773.44 188.18c3.804 0.36 9.524 0.02 12.79 1.013 0.613 0.185 0.147 0.952 0.253 1.555 0.99 5.602 2.552 10.92 3.901 16.333 5.264 21.096 8.433 42.752 14.475 63.662 6.572 22.766 13.425 48.421 5.467 76.989a53.4 53.4 0 0 1-3.164 8.481c-9.022 19.116-32.22 37.313-52.508 37.313-2.463 0-5.12-0.697-6.3-2.3 8.562-5.442 13.918-11.023 17.745-19.124 4.587-9.714 4.518-18.811 3.915-27.185 1.621 0.943 6.816 3.298 8.98 3.298 8.774 0 16.308-8.485 19.827-15.943 6.466-13.696 5.36-27.675 4.241-39.34-0.561-5.839-1.349-11.6-2.436-17.195l-1.649-8.103-0.207-0.887-0.203-0.886c0.981 0 0.102 1.721 0.139 2.587 0.603 14.121 0.35 33.835-7.236 49.906-3.527 7.468-9.293 15.167-18.145 15.167-38.796 0-19.282-110.03-50.375-136.19a80.643 80.643 0 0 0 4.55-8.642c18.4 22.222 19.362 83.477 46.442 83.477 6.572 0 13.365-6.16 16.16-12.08 12.03-25.483-7.954-55.172-16.663-71.906z" fill="none" stroke="#000" stroke-miterlimit="3.864" stroke-width="3.7249"/><path d="m295.57 98.301c26.685 0 11.132 66.68 1.642 86.786-8.126 17.214-26.42 42.04-48.102 42.04-26.014 0-25.24-29.136-14.885-51.07 5.606-11.875 14.221-25.186 26.091-34.973-3.038 10.215 7.232 17.193 3.078 25.994-2.837 6.01-8.709 12.578-11.76 19.041-4.935 10.452-3.05 29 8.873 29 10.671 0 20.155-13.22 24.042-21.455 7.964-16.874 27.878-88.862 5.619-88.862-25.636 0-69.811 62.471-79.061 82.066-16.512 34.978-4.543 78.061 33.078 78.061 25.42 0 46.33-24.439 56.428-45.834 6.016-12.743 9.292-25.423 10.582-37.38l4.935-0.902c1.09 32.91 35.907 87.408 21.086 118.8-18.969 40.183-75.689 39.823-108.07 54.085-6.807-15.924-16.029-30.73-29.015-42.028 28.889-9.717 99.878-26.035 115.31-58.735 6.487-13.74 2.07-36.52-5.425-44.24a85.337 85.337 0 0 1-5.382 14.768c-13.217 27.997-41.516 49.71-70.69 49.71-40.619 0-57.839-29.188-38.722-69.688 11.472-24.301 70.057-105.19 100.35-105.19"/><path d="m295.57 98.301c26.685 0 11.132 66.68 1.642 86.786-8.126 17.214-26.42 42.04-48.102 42.04-26.014 0-25.24-29.136-14.885-51.07 5.606-11.875 14.221-25.186 26.091-34.973-3.038 10.215 7.232 17.193 3.078 25.994-2.837 6.01-8.709 12.578-11.76 19.041-4.935 10.452-3.05 29 8.873 29 10.671 0 20.155-13.22 24.042-21.455 7.964-16.874 27.878-88.862 5.619-88.862-25.636 0-69.811 62.471-79.061 82.066-16.512 34.978-4.543 78.061 33.078 78.061 25.42 0 46.33-24.439 56.428-45.834 6.016-12.743 9.292-25.423 10.582-37.38l4.935-0.902c1.09 32.91 35.907 87.408 21.086 118.8-18.969 40.183-75.689 39.823-108.07 54.085-6.807-15.924-16.029-30.73-29.015-42.028 28.889-9.717 99.878-26.035 115.31-58.735 6.487-13.74 2.07-36.52-5.425-44.24a85.337 85.337 0 0 1-5.382 14.768c-13.217 27.997-41.516 49.71-70.69 49.71-40.619 0-57.839-29.188-38.722-69.688 11.472-24.301 70.057-105.19 100.35-105.19z" fill="none" stroke="#000" stroke-linejoin="round" stroke-miterlimit="3.864" stroke-width="44.698"/><path d="m364.97 194.8c1.613 3.965 6.278 26.417 9.822 26.417 7.651 0 21.479-20.819 25.188-26.224 6.804 4.456 3.03 13.81 15.638 13.81 5.709 0 8.58-12.296 14.52-12.496 0.21 4.97 0.529 9.468-2.18 15.21-4.18 8.853-14.752 20.849-25.145 20.849-7.445 0-17.813-8.963-19.85-8.963-2.212 0-6.272 1.035-7.568 3.777-5.411 11.466 9.057 49.746 23.568 49.746 7.753 0 17.006-5.688 25.116-9.197-2.112 13.794-2.405 25.424 0.389 37.291-7.39 4.683-16.048 6.657-22.995 6.657-35.655 0-15.992-82.92-48.87-100.59l12.366-16.29"/><path d="m364.97 194.8c1.613 3.965 6.278 26.417 9.822 26.417 7.651 0 21.479-20.819 25.188-26.224 6.804 4.456 3.03 13.81 15.638 13.81 5.709 0 8.58-12.296 14.52-12.496 0.21 4.97 0.529 9.468-2.18 15.21-4.18 8.853-14.752 20.849-25.145 20.849-7.445 0-17.813-8.963-19.85-8.963-2.212 0-6.272 1.035-7.568 3.777-5.411 11.466 9.057 49.746 23.568 49.746 7.753 0 17.006-5.688 25.116-9.197-2.112 13.794-2.405 25.424 0.389 37.291-7.39 4.683-16.048 6.657-22.995 6.657-35.655 0-15.992-82.92-48.87-100.59z" fill="none" stroke="#000" stroke-linejoin="round" stroke-miterlimit="3.864" stroke-width="44.698"/><path d="m502.01 188.16c26.946 0 37.585 48.474 25.496 74.086-9.381 19.87-26.01 34.273-47.316 34.273-37.626 0-32.911-51.29-18.232-82.388 4.048-8.566 17.878-27.239 28.696-27.239 3.974 0 7.267 1.267 11.357 1.267zm-0.834 4.525c-4.241 0-7.972 2.096-9.938 6.27-4.131 8.747 16.465 17.598 13.507 23.858-1.86 3.94-8.944 7.627-12.517 7.627-17.855 0-17.704-23.232-7.06-38.374-6.618 4.217-10.957 10.658-13.775 16.633-10.464 22.162-2.16 52.65 21.72 52.65 13.195 0 28.392-11.855 34.297-24.369 7.268-15.387-11.316-44.295-26.232-44.295" fill-rule="evenodd"/><path d="m502.01 188.16c26.946 0 37.585 48.474 25.496 74.086-9.381 19.87-26.01 34.273-47.316 34.273-37.626 0-32.911-51.29-18.232-82.388 4.048-8.566 17.878-27.239 28.696-27.239 3.974 0 7.267 1.267 11.357 1.267z" fill="none" stroke="#000" stroke-linejoin="round" stroke-miterlimit="3.864" stroke-width="44.698"/><path d="m501.17 192.69c-4.242 0-7.973 2.097-9.94 6.27-4.13 8.747 16.466 17.598 13.508 23.858-1.86 3.94-8.943 7.627-12.517 7.627-17.855 0-17.704-23.232-7.06-38.373-6.618 4.216-10.957 10.657-13.775 16.632-10.464 22.163-2.16 52.65 21.72 52.65 13.195 0 28.392-11.855 34.297-24.369 7.268-15.387-11.315-44.295-26.232-44.295z" fill="none" stroke="#000" stroke-linejoin="round" stroke-miterlimit="3.864" stroke-width="44.698"/><path d="m624.47 267.96c-7.042 14.915-20.163 23.104-34.938 23.104-46.889 0-56.191-42.756-35.872-85.804 4.798-10.16 12.673-21.401 24.698-21.401 37.67 0 63.91 46.39 46.11 84.101zm-37.41-78.7c-3.46 0-6.494 1.25-8.152 4.765-3.648 7.73 16.197 14.621 16.225 22.609-2.073 2.454-7.876 5.201-10.404 5.201-14.291 0-25.076-19.374-12.877-33.772-4.951 3.144-7.89 7.85-9.98 12.275-12.37 26.204 5.264 52.696 30.957 52.696 10.694 0 24.478-5.951 30.033-17.721 7.861-16.658-20.14-46.054-35.803-46.054" fill-rule="evenodd"/><path d="m624.47 267.96c-7.042 14.915-20.163 23.104-34.938 23.104-46.889 0-56.191-42.756-35.872-85.804 4.798-10.16 12.673-21.401 24.698-21.401 37.67 0 63.91 46.39 46.11 84.101z" fill="none" stroke="#000" stroke-linejoin="round" stroke-miterlimit="3.864" stroke-width="44.698"/><path d="m587.06 189.26c-3.459 0-6.494 1.25-8.152 4.765-3.647 7.73 16.198 14.621 16.225 22.609-2.072 2.454-7.875 5.201-10.403 5.201-14.292 0-25.077-19.374-12.878-33.772-4.95 3.144-7.89 7.85-9.98 12.275-12.37 26.204 5.264 52.696 30.958 52.696 10.693 0 24.477-5.951 30.032-17.721 7.862-16.658-20.14-46.054-35.802-46.054z" fill="none" stroke="#000" stroke-linejoin="round" stroke-miterlimit="3.864" stroke-width="44.698"/><path d="m672.96 189c40.409 0 60.94 74.15 42.881 112.4-3.45 7.313-9.883 14.621-18.366 14.621-46.165 0-34.38-91.763-60.369-117.84a115.39 115.39 0 0 0 6.738-7.825c17.561 20.608 8.833 74.845 46.34 74.845 8.64 0 15.175-7.566 18.661-14.95 9.313-19.73-7.921-53.997-26.785-53.997-0.189 0-2.897 0.113-2.837 1.21 0.696 12.592 10.602 4.74 0.627 26.171-10.192-2.03-20.988-18.393-15.415-30.2 1.64-3.47 5.743-4.437 8.524-4.437"/><path d="m672.96 189c40.409 0 60.94 74.15 42.881 112.4-3.45 7.313-9.883 14.621-18.366 14.621-46.165 0-34.38-91.763-60.369-117.84a115.39 115.39 0 0 0 6.738-7.825c17.561 20.608 8.833 74.845 46.34 74.845 8.64 0 15.175-7.566 18.661-14.95 9.313-19.73-7.921-53.997-26.785-53.997-0.189 0-2.897 0.113-2.837 1.21 0.696 12.592 10.602 4.74 0.627 26.171-10.192-2.03-20.988-18.393-15.415-30.2 1.64-3.47 5.743-4.437 8.524-4.437z" fill="none" stroke="#000" stroke-linejoin="round" stroke-miterlimit="3.864" stroke-width="44.698"/><path d="m773.44 188.18c3.804 0.36 9.524 0.02 12.79 1.013 0.613 0.185 0.147 0.952 0.253 1.555 0.99 5.602 2.552 10.92 3.901 16.333 5.264 21.096 8.433 42.752 14.475 63.662 6.572 22.766 13.425 48.421 5.467 76.989a53.4 53.4 0 0 1-3.164 8.481c-9.022 19.116-32.22 37.313-52.508 37.313-2.463 0-5.12-0.697-6.3-2.3 8.562-5.442 13.918-11.023 17.745-19.124 4.587-9.714 4.518-18.811 3.915-27.185 1.621 0.943 6.816 3.298 8.98 3.298 8.774 0 16.308-8.485 19.827-15.943 6.466-13.696 5.36-27.675 4.241-39.34-0.561-5.839-1.349-11.6-2.436-17.195l-1.649-8.103-0.207-0.887-0.203-0.886c0.981 0 0.102 1.721 0.139 2.587 0.603 14.121 0.35 33.835-7.236 49.906-3.527 7.468-9.293 15.167-18.145 15.167-38.796 0-19.282-110.03-50.375-136.19a80.643 80.643 0 0 0 4.55-8.642c18.4 22.222 19.362 83.477 46.442 83.477 6.572 0 13.365-6.16 16.16-12.08 12.03-25.483-7.954-55.172-16.663-71.906" fill-rule="evenodd"/><path d="m773.44 188.18c3.804 0.36 9.524 0.02 12.79 1.013 0.613 0.185 0.147 0.952 0.253 1.555 0.99 5.602 2.552 10.92 3.901 16.333 5.264 21.096 8.433 42.752 14.475 63.662 6.572 22.766 13.425 48.421 5.467 76.989a53.4 53.4 0 0 1-3.164 8.481c-9.022 19.116-32.22 37.313-52.508 37.313-2.463 0-5.12-0.697-6.3-2.3 8.562-5.442 13.918-11.023 17.745-19.124 4.587-9.714 4.518-18.811 3.915-27.185 1.621 0.943 6.816 3.298 8.98 3.298 8.774 0 16.308-8.485 19.827-15.943 6.466-13.696 5.36-27.675 4.241-39.34-0.561-5.839-1.349-11.6-2.436-17.195l-1.649-8.103-0.207-0.887-0.203-0.886c0.981 0 0.102 1.721 0.139 2.587 0.603 14.121 0.35 33.835-7.236 49.906-3.527 7.468-9.293 15.167-18.145 15.167-38.796 0-19.282-110.03-50.375-136.19a80.643 80.643 0 0 0 4.55-8.642c18.4 22.222 19.362 83.477 46.442 83.477 6.572 0 13.365-6.16 16.16-12.08 12.03-25.483-7.954-55.172-16.663-71.906z" fill="none" stroke="#000" stroke-linejoin="round" stroke-miterlimit="3.864" stroke-width="44.698"/><path d="m295.57 98.301c26.685 0 11.132 66.68 1.642 86.786-8.126 17.214-26.42 42.04-48.102 42.04-26.014 0-25.24-29.136-14.885-51.07 5.606-11.875 14.221-25.186 26.091-34.973-3.038 10.215 7.232 17.193 3.078 25.994-2.837 6.01-8.709 12.578-11.76 19.041-4.935 10.452-3.05 29 8.873 29 10.671 0 20.155-13.22 24.042-21.455 7.964-16.874 27.878-88.862 5.619-88.862-25.636 0-69.811 62.471-79.061 82.066-16.512 34.978-4.543 78.061 33.078 78.061 25.42 0 46.33-24.439 56.428-45.834 6.016-12.743 9.292-25.423 10.582-37.38l4.935-0.902c1.09 32.91 35.907 87.408 21.086 118.8-18.969 40.183-75.689 39.823-108.07 54.085-6.807-15.924-16.029-30.73-29.015-42.028 28.889-9.717 99.878-26.035 115.31-58.735 6.487-13.74 2.07-36.52-5.425-44.24a85.337 85.337 0 0 1-5.382 14.768c-13.217 27.997-41.516 49.71-70.69 49.71-40.619 0-57.839-29.188-38.722-69.688 11.472-24.301 70.057-105.19 100.35-105.19m69.4 96.502c1.613 3.965 6.278 26.417 9.822 26.417 7.651 0 21.479-20.819 25.188-26.224 6.804 4.456 3.03 13.81 15.638 13.81 5.709 0 8.58-12.296 14.52-12.496 0.21 4.97 0.529 9.468-2.18 15.21-4.18 8.853-14.752 20.849-25.145 20.849-7.445 0-17.813-8.963-19.85-8.963-2.212 0-6.272 1.035-7.568 3.777-5.411 11.466 9.057 49.746 23.568 49.746 7.753 0 17.006-5.688 25.116-9.197-2.112 13.794-2.405 25.424 0.389 37.291-7.39 4.683-16.048 6.657-22.995 6.657-35.655 0-15.992-82.92-48.87-100.59l12.366-16.29" fill="#fff"/><path d="m502.01 188.16c26.946 0 37.585 48.474 25.496 74.086-9.381 19.87-26.01 34.273-47.316 34.273-37.626 0-32.911-51.29-18.232-82.388 4.048-8.566 17.878-27.239 28.696-27.239 3.974 0 7.267 1.267 11.357 1.267zm-0.834 4.525c-4.241 0-7.972 2.096-9.938 6.27-4.131 8.747 16.465 17.598 13.507 23.858-1.86 3.94-8.944 7.627-12.517 7.627-17.855 0-17.704-23.232-7.06-38.374-6.618 4.217-10.957 10.658-13.775 16.633-10.464 22.162-2.16 52.65 21.72 52.65 13.195 0 28.392-11.855 34.297-24.369 7.268-15.387-11.316-44.295-26.232-44.295m123.3 75.275c-7.042 14.915-20.163 23.104-34.938 23.104-46.889 0-56.191-42.756-35.872-85.804 4.798-10.16 12.673-21.401 24.698-21.401 37.67 0 63.91 46.39 46.11 84.101zm-37.41-78.7c-3.46 0-6.494 1.25-8.152 4.765-3.648 7.73 16.197 14.621 16.225 22.609-2.073 2.454-7.876 5.201-10.404 5.201-14.291 0-25.076-19.374-12.877-33.772-4.951 3.144-7.89 7.85-9.98 12.275-12.37 26.204 5.264 52.696 30.957 52.696 10.694 0 24.478-5.951 30.033-17.721 7.861-16.658-20.14-46.054-35.803-46.054" fill="#fff" fill-rule="evenodd"/><path d="m672.96 189c40.409 0 60.94 74.15 42.881 112.4-3.45 7.313-9.883 14.621-18.366 14.621-46.165 0-34.38-91.763-60.369-117.84a115.39 115.39 0 0 0 6.738-7.825c17.561 20.608 8.833 74.845 46.34 74.845 8.64 0 15.175-7.566 18.661-14.95 9.313-19.73-7.921-53.997-26.785-53.997-0.189 0-2.897 0.113-2.837 1.21 0.696 12.592 10.602 4.74 0.627 26.171-10.192-2.03-20.988-18.393-15.415-30.2 1.64-3.47 5.743-4.437 8.524-4.437" fill="#fff"/><path d="m773.44 188.18c3.804 0.36 9.524 0.02 12.79 1.013 0.613 0.185 0.147 0.952 0.253 1.555 0.99 5.602 2.552 10.92 3.901 16.333 5.264 21.096 8.433 42.752 14.475 63.662 6.572 22.766 13.425 48.421 5.467 76.989a53.4 53.4 0 0 1-3.164 8.481c-30.254 58.113-95.001 42.45-115.28 42.45-2.464 0-5.126-0.699-6.3-2.301 8.557-5.443 13.917-11.022 17.74-19.123 4.587-9.714 4.518-18.811 3.915-27.187 1.62 0.944 6.82 3.297 8.98 3.297 8.774 0 57.679 25.128 82.609-21.079 6.466-13.696 5.36-27.675 4.242-39.34-0.562-5.839-1.35-11.6-2.437-17.195l-1.648-8.103-0.208-0.887-0.202-0.885c0.98 0 0.101 1.72 0.138 2.586 0.603 14.122 0.35 33.835-7.235 49.907-3.528 7.467-9.294 15.166-18.145 15.166-38.797 0-19.283-110.03-50.375-136.19a80.643 80.643 0 0 0 4.55-8.641c18.399 22.22 19.361 83.476 46.441 83.476 6.572 0 13.365-6.16 16.16-12.08 12.03-25.483-7.953-55.172-16.662-71.906" fill="#fff" fill-rule="evenodd"/><path d="m809.14 499.01-309.02-120.01-309.01 119.98 122.01-191.28-313.01-117.13 384.42 1.796 115.56-192.38 115.57 192.38 384.44-1.76-313.01 117.1 122.03 191.29"/><path d="m767.8 464.36-267.15-103.55-267.14 103.52 105.48-165.04-270.59-101.06 332.34 1.548 99.905-165.99 99.911 166 332.34-1.522-270.59 101.04 105.5 165.05" fill="#619cbc"/><path d="m295.57 98.301c26.685 0 11.132 66.68 1.642 86.786-8.126 17.214-26.42 42.04-48.102 42.04-26.014 0-25.24-29.136-14.885-51.07 5.606-11.875 14.221-25.186 26.091-34.973-3.038 10.215 7.232 17.193 3.078 25.994-2.837 6.01-8.709 12.578-11.76 19.041-4.935 10.452-3.05 29 8.873 29 10.671 0 20.155-13.22 24.042-21.455 7.964-16.874 27.878-88.862 5.619-88.862-25.636 0-69.811 62.471-79.061 82.066-16.512 34.978-4.543 78.061 33.078 78.061 25.42 0 46.33-24.439 56.428-45.834 6.016-12.743 9.292-25.423 10.582-37.38l4.935-0.902c1.09 32.91 35.907 87.408 21.086 118.8-18.969 40.183-75.689 39.823-108.07 54.085-6.807-15.924-16.029-30.73-29.015-42.028 28.889-9.717 99.878-26.035 115.31-58.735 6.487-13.74 2.07-36.52-5.425-44.24a85.337 85.337 0 0 1-5.382 14.768c-13.217 27.997-41.516 49.71-70.69 49.71-40.619 0-57.839-29.188-38.722-69.688 11.472-24.301 70.057-105.19 100.35-105.19"/><path d="m295.57 98.301c26.685 0 11.132 66.68 1.642 86.786-8.126 17.214-26.42 42.04-48.102 42.04-26.014 0-25.24-29.136-14.885-51.07 5.606-11.875 14.221-25.186 26.091-34.973-3.038 10.215 7.232 17.193 3.078 25.994-2.837 6.01-8.709 12.578-11.76 19.041-4.935 10.452-3.05 29 8.873 29 10.671 0 20.155-13.22 24.042-21.455 7.964-16.874 27.878-88.862 5.619-88.862-25.636 0-69.811 62.471-79.061 82.066-16.512 34.978-4.543 78.061 33.078 78.061 25.42 0 46.33-24.439 56.428-45.834 6.016-12.743 9.292-25.423 10.582-37.38l4.935-0.902c1.09 32.91 35.907 87.408 21.086 118.8-18.969 40.183-75.689 39.823-108.07 54.085-6.807-15.924-16.029-30.73-29.015-42.028 28.889-9.717 99.878-26.035 115.31-58.735 6.487-13.74 2.07-36.52-5.425-44.24a85.337 85.337 0 0 1-5.382 14.768c-13.217 27.997-41.516 49.71-70.69 49.71-40.619 0-57.839-29.188-38.722-69.688 11.472-24.301 70.057-105.19 100.35-105.19z" fill="none" stroke="#000" stroke-linejoin="round" stroke-miterlimit="3.864" stroke-width="44.698"/><path d="m364.97 194.8c1.613 3.965 6.278 26.417 9.822 26.417 7.651 0 21.479-20.819 25.188-26.224 6.804 4.456 3.03 13.81 15.638 13.81 5.709 0 8.58-12.296 14.52-12.496 0.21 4.97 0.529 9.468-2.18 15.21-4.18 8.853-14.752 20.849-25.145 20.849-7.445 0-17.813-8.963-19.85-8.963-2.212 0-6.272 1.035-7.568 3.777-5.411 11.466 9.057 49.746 23.568 49.746 7.753 0 17.006-5.688 25.116-9.197-2.112 13.794-2.405 25.424 0.389 37.291-7.39 4.683-16.048 6.657-22.995 6.657-35.655 0-15.992-82.92-48.87-100.59l12.366-16.29"/><path d="m364.97 194.8c1.613 3.965 6.278 26.417 9.822 26.417 7.651 0 21.479-20.819 25.188-26.224 6.804 4.456 3.03 13.81 15.638 13.81 5.709 0 8.58-12.296 14.52-12.496 0.21 4.97 0.529 9.468-2.18 15.21-4.18 8.853-14.752 20.849-25.145 20.849-7.445 0-17.813-8.963-19.85-8.963-2.212 0-6.272 1.035-7.568 3.777-5.411 11.466 9.057 49.746 23.568 49.746 7.753 0 17.006-5.688 25.116-9.197-2.112 13.794-2.405 25.424 0.389 37.291-7.39 4.683-16.048 6.657-22.995 6.657-35.655 0-15.992-82.92-48.87-100.59z" fill="none" stroke="#000" stroke-linejoin="round" stroke-miterlimit="3.864" stroke-width="44.698"/><path d="m502.01 188.16c26.946 0 37.585 48.474 25.496 74.086-9.381 19.87-26.01 34.273-47.316 34.273-37.626 0-32.911-51.29-18.232-82.388 4.048-8.566 17.878-27.239 28.696-27.239 3.974 0 7.267 1.267 11.357 1.267zm-0.834 4.525c-4.241 0-7.972 2.096-9.938 6.27-4.131 8.747 16.465 17.598 13.507 23.858-1.86 3.94-8.944 7.627-12.517 7.627-17.855 0-17.704-23.232-7.06-38.374-6.618 4.217-10.957 10.658-13.775 16.633-10.464 22.162-2.16 52.65 21.72 52.65 13.195 0 28.392-11.855 34.297-24.369 7.268-15.387-11.316-44.295-26.232-44.295" fill-rule="evenodd"/><path d="m502.01 188.16c26.946 0 37.585 48.474 25.496 74.086-9.381 19.87-26.01 34.273-47.316 34.273-37.626 0-32.911-51.29-18.232-82.388 4.048-8.566 17.878-27.239 28.696-27.239 3.974 0 7.267 1.267 11.357 1.267z" fill="none" stroke="#000" stroke-linejoin="round" stroke-miterlimit="3.864" stroke-width="44.698"/><path d="m501.17 192.69c-4.242 0-7.973 2.097-9.94 6.27-4.13 8.747 16.466 17.598 13.508 23.858-1.86 3.94-8.943 7.627-12.517 7.627-17.855 0-17.704-23.232-7.06-38.373-6.618 4.216-10.957 10.657-13.775 16.632-10.464 22.163-2.16 52.65 21.72 52.65 13.195 0 28.392-11.855 34.297-24.369 7.268-15.387-11.315-44.295-26.232-44.295z" fill="none" stroke="#000" stroke-linejoin="round" stroke-miterlimit="3.864" stroke-width="44.698"/><path d="m624.47 267.96c-7.042 14.915-20.163 23.104-34.938 23.104-46.889 0-56.191-42.756-35.872-85.804 4.798-10.16 12.673-21.401 24.698-21.401 37.67 0 63.91 46.39 46.11 84.101zm-37.41-78.7c-3.46 0-6.494 1.25-8.152 4.765-3.648 7.73 16.197 14.621 16.225 22.609-2.073 2.454-7.876 5.201-10.404 5.201-14.291 0-25.076-19.374-12.877-33.772-4.951 3.144-7.89 7.85-9.98 12.275-12.37 26.204 5.264 52.696 30.957 52.696 10.694 0 24.478-5.951 30.033-17.721 7.861-16.658-20.14-46.054-35.803-46.054" fill-rule="evenodd"/><path d="m624.47 267.96c-7.042 14.915-20.163 23.104-34.938 23.104-46.889 0-56.191-42.756-35.872-85.804 4.798-10.16 12.673-21.401 24.698-21.401 37.67 0 63.91 46.39 46.11 84.101z" fill="none" stroke="#000" stroke-linejoin="round" stroke-miterlimit="3.864" stroke-width="44.698"/><path d="m587.06 189.26c-3.459 0-6.494 1.25-8.152 4.765-3.647 7.73 16.198 14.621 16.225 22.609-2.072 2.454-7.875 5.201-10.403 5.201-14.292 0-25.077-19.374-12.878-33.772-4.95 3.144-7.89 7.85-9.98 12.275-12.37 26.204 5.264 52.696 30.958 52.696 10.693 0 24.477-5.951 30.032-17.721 7.862-16.658-20.14-46.054-35.802-46.054z" fill="none" stroke="#000" stroke-linejoin="round" stroke-miterlimit="3.864" stroke-width="44.698"/><path d="m672.96 189c40.409 0 60.94 74.15 42.881 112.4-3.45 7.313-9.883 14.621-18.366 14.621-46.165 0-34.38-91.763-60.369-117.84a115.39 115.39 0 0 0 6.738-7.825c17.561 20.608 8.833 74.845 46.34 74.845 8.64 0 15.175-7.566 18.661-14.95 9.313-19.73-7.921-53.997-26.785-53.997-0.189 0-2.897 0.113-2.837 1.21 0.696 12.592 10.602 4.74 0.627 26.171-10.192-2.03-20.988-18.393-15.415-30.2 1.64-3.47 5.743-4.437 8.524-4.437"/><path d="m672.96 189c40.409 0 60.94 74.15 42.881 112.4-3.45 7.313-9.883 14.621-18.366 14.621-46.165 0-34.38-91.763-60.369-117.84a115.39 115.39 0 0 0 6.738-7.825c17.561 20.608 8.833 74.845 46.34 74.845 8.64 0 15.175-7.566 18.661-14.95 9.313-19.73-7.921-53.997-26.785-53.997-0.189 0-2.897 0.113-2.837 1.21 0.696 12.592 10.602 4.74 0.627 26.171-10.192-2.03-20.988-18.393-15.415-30.2 1.64-3.47 5.743-4.437 8.524-4.437z" fill="none" stroke="#000" stroke-linejoin="round" stroke-miterlimit="3.864" stroke-width="44.698"/><path d="m773.44 188.18c3.804 0.36 9.524 0.02 12.79 1.013 0.613 0.185 0.147 0.952 0.253 1.555 0.99 5.602 2.552 10.92 3.901 16.333 5.264 21.096 8.433 42.752 14.475 63.662 6.572 22.766 13.425 48.421 5.467 76.989a53.4 53.4 0 0 1-3.164 8.481c-9.022 19.116-86.716 41.14-107 41.14-2.464 0-5.126-0.699-6.3-2.302 8.557-5.442 13.917-11.02 17.745-19.125 4.582-9.712 4.513-18.808 3.91-27.185 1.621 0.943 61.312-0.528 63.477-0.528 8.774 0 16.308-8.485 19.827-15.943 6.466-13.696 5.36-27.675 4.241-39.34-0.561-5.839-1.349-11.6-2.436-17.195l-1.649-8.103-0.207-0.888-0.203-0.885c0.981 0 0.102 1.72 0.139 2.587 0.603 14.121 0.35 33.835-7.236 49.906-3.527 7.468-9.293 15.166-18.145 15.166-38.796 0-19.282-110.03-50.375-136.19a80.643 80.643 0 0 0 4.55-8.642c18.4 22.221 19.362 83.476 46.442 83.476 6.572 0 13.365-6.16 16.16-12.079 12.03-25.484-7.954-55.172-16.663-71.906" fill-rule="evenodd"/><path d="m773.44 188.18c3.804 0.36 9.524 0.02 12.79 1.013 0.613 0.185 0.147 0.952 0.253 1.555 0.99 5.602 2.552 10.92 3.901 16.333 5.264 21.096 8.433 42.752 14.475 63.662 6.572 22.766 13.425 48.421 5.467 76.989a53.4 53.4 0 0 1-3.164 8.481c-9.022 19.116-86.716 41.14-107 41.14-2.464 0-5.126-0.699-6.3-2.302 8.557-5.442 13.917-11.02 17.745-19.125 4.582-9.712 4.513-18.808 3.91-27.185 1.621 0.943 61.312-0.528 63.477-0.528 8.774 0 16.308-8.485 19.827-15.943 6.466-13.696 5.36-27.675 4.241-39.34-0.561-5.839-1.349-11.6-2.436-17.195l-1.649-8.103-0.207-0.888-0.203-0.885c0.981 0 0.102 1.72 0.139 2.587 0.603 14.121 0.35 33.835-7.236 49.906-3.527 7.468-9.293 15.166-18.145 15.166-38.796 0-19.282-110.03-50.375-136.19a80.643 80.643 0 0 0 4.55-8.642c18.4 22.221 19.362 83.476 46.442 83.476 6.572 0 13.365-6.16 16.16-12.079 12.03-25.484-7.954-55.172-16.663-71.906z" fill="none" stroke="#000" stroke-linejoin="round" stroke-miterlimit="3.864" stroke-width="44.698"/><path d="m295.57 98.301c26.685 0 11.132 66.68 1.642 86.786-8.126 17.214-26.42 42.04-48.102 42.04-26.014 0-25.24-29.136-14.885-51.07 5.606-11.875 14.221-25.186 26.091-34.973-3.038 10.215 7.232 17.193 3.078 25.994-2.837 6.01-8.709 12.578-11.76 19.041-4.935 10.452-3.05 29 8.873 29 10.671 0 20.155-13.22 24.042-21.455 7.964-16.874 27.878-88.862 5.619-88.862-25.636 0-69.811 62.471-79.061 82.066-16.512 34.978-4.543 78.061 33.078 78.061 25.42 0 46.33-24.439 56.428-45.834 6.016-12.743 9.292-25.423 10.582-37.38l4.935-0.902c1.09 32.91 35.907 87.408 21.086 118.8-18.969 40.183-75.689 39.823-108.07 54.085-6.807-15.924-16.029-30.73-29.015-42.028 28.889-9.717 99.878-26.035 115.31-58.735 6.487-13.74 2.07-36.52-5.425-44.24a85.337 85.337 0 0 1-5.382 14.768c-13.217 27.997-41.516 49.71-70.69 49.71-40.619 0-57.839-29.188-38.722-69.688 11.472-24.301 70.057-105.19 100.35-105.19"/><path d="m295.57 98.301c26.685 0 11.132 66.68 1.642 86.786-8.126 17.214-26.42 42.04-48.102 42.04-26.014 0-25.24-29.136-14.885-51.07 5.606-11.875 14.221-25.186 26.091-34.973-3.038 10.215 7.232 17.193 3.078 25.994-2.837 6.01-8.709 12.578-11.76 19.041-4.935 10.452-3.05 29 8.873 29 10.671 0 20.155-13.22 24.042-21.455 7.964-16.874 27.878-88.862 5.619-88.862-25.636 0-69.811 62.471-79.061 82.066-16.512 34.978-4.543 78.061 33.078 78.061 25.42 0 46.33-24.439 56.428-45.834 6.016-12.743 9.292-25.423 10.582-37.38l4.935-0.902c1.09 32.91 35.907 87.408 21.086 118.8-18.969 40.183-75.689 39.823-108.07 54.085-6.807-15.924-16.029-30.73-29.015-42.028 28.889-9.717 99.878-26.035 115.31-58.735 6.487-13.74 2.07-36.52-5.425-44.24a85.337 85.337 0 0 1-5.382 14.768c-13.217 27.997-41.516 49.71-70.69 49.71-40.619 0-57.839-29.188-38.722-69.688 11.472-24.301 70.057-105.19 100.35-105.19z" fill="none" stroke="#000" stroke-miterlimit="3.864" stroke-width="3.7249"/><path d="m364.97 194.8c1.613 3.965 6.278 26.417 9.822 26.417 7.651 0 21.479-20.819 25.188-26.224 6.804 4.456 3.03 13.81 15.638 13.81 5.709 0 8.58-12.296 14.52-12.496 0.21 4.97 0.529 9.468-2.18 15.21-4.18 8.853-14.752 20.849-25.145 20.849-7.445 0-17.813-8.963-19.85-8.963-2.212 0-6.272 1.035-7.568 3.777-5.411 11.466 9.057 49.746 23.568 49.746 7.753 0 17.006-5.688 25.116-9.197-2.112 13.794-2.405 25.424 0.389 37.291-7.39 4.683-16.048 6.657-22.995 6.657-35.655 0-15.992-82.92-48.87-100.59l12.366-16.29"/><path d="m364.97 194.8c1.613 3.965 6.278 26.417 9.822 26.417 7.651 0 21.479-20.819 25.188-26.224 6.804 4.456 3.03 13.81 15.638 13.81 5.709 0 8.58-12.296 14.52-12.496 0.21 4.97 0.529 9.468-2.18 15.21-4.18 8.853-14.752 20.849-25.145 20.849-7.445 0-17.813-8.963-19.85-8.963-2.212 0-6.272 1.035-7.568 3.777-5.411 11.466 9.057 49.746 23.568 49.746 7.753 0 17.006-5.688 25.116-9.197-2.112 13.794-2.405 25.424 0.389 37.291-7.39 4.683-16.048 6.657-22.995 6.657-35.655 0-15.992-82.92-48.87-100.59z" fill="none" stroke="#000" stroke-miterlimit="3.864" stroke-width="3.7249"/><path d="m502.01 188.16c26.946 0 37.585 48.474 25.496 74.086-9.381 19.87-26.01 34.273-47.316 34.273-37.626 0-32.911-51.29-18.232-82.388 4.048-8.566 17.878-27.239 28.696-27.239 3.974 0 7.267 1.267 11.357 1.267zm-0.834 4.525c-4.241 0-7.972 2.096-9.938 6.27-4.131 8.747 16.465 17.598 13.507 23.858-1.86 3.94-8.944 7.627-12.517 7.627-17.855 0-17.704-23.232-7.06-38.374-6.618 4.217-10.957 10.658-13.775 16.633-10.464 22.162-2.16 52.65 21.72 52.65 13.195 0 28.392-11.855 34.297-24.369 7.268-15.387-11.316-44.295-26.232-44.295" fill-rule="evenodd"/><path d="m502.01 188.16c26.946 0 37.585 48.474 25.496 74.086-9.381 19.87-26.01 34.273-47.316 34.273-37.626 0-32.911-51.29-18.232-82.388 4.048-8.566 17.878-27.239 28.696-27.239 3.974 0 7.267 1.267 11.357 1.267z" fill="none" stroke="#000" stroke-miterlimit="3.864" stroke-width="3.7249"/><path d="m501.17 192.69c-4.242 0-7.973 2.097-9.94 6.27-4.13 8.747 16.466 17.598 13.508 23.858-1.86 3.94-8.943 7.627-12.517 7.627-17.855 0-17.704-23.232-7.06-38.373-6.618 4.216-10.957 10.657-13.775 16.632-10.464 22.163-2.16 52.65 21.72 52.65 13.195 0 28.392-11.855 34.297-24.369 7.268-15.387-11.315-44.295-26.232-44.295z" fill="none" stroke="#000" stroke-miterlimit="3.864" stroke-width="3.7249"/><path d="m624.47 267.96c-7.042 14.915-20.163 23.104-34.938 23.104-46.889 0-56.191-42.756-35.872-85.804 4.798-10.16 12.673-21.401 24.698-21.401 37.67 0 63.91 46.39 46.11 84.101zm-37.41-78.7c-3.46 0-6.494 1.25-8.152 4.765-3.648 7.73 16.197 14.621 16.225 22.609-2.073 2.454-7.876 5.201-10.404 5.201-14.291 0-25.076-19.374-12.877-33.772-4.951 3.144-7.89 7.85-9.98 12.275-12.37 26.204 5.264 52.696 30.957 52.696 10.694 0 24.478-5.951 30.033-17.721 7.861-16.658-20.14-46.054-35.803-46.054" fill-rule="evenodd"/><path d="m624.47 267.96c-7.042 14.915-20.163 23.104-34.938 23.104-46.889 0-56.191-42.756-35.872-85.804 4.798-10.16 12.673-21.401 24.698-21.401 37.67 0 63.91 46.39 46.11 84.101z" fill="none" stroke="#000" stroke-miterlimit="3.864" stroke-width="3.7249"/><path d="m587.06 189.26c-3.459 0-6.494 1.25-8.152 4.765-3.647 7.73 16.198 14.621 16.225 22.609-2.072 2.454-7.875 5.201-10.403 5.201-14.292 0-25.077-19.374-12.878-33.772-4.95 3.144-7.89 7.85-9.98 12.275-12.37 26.204 5.264 52.696 30.958 52.696 10.693 0 24.477-5.951 30.032-17.721 7.862-16.658-20.14-46.054-35.802-46.054z" fill="none" stroke="#000" stroke-miterlimit="3.864" stroke-width="3.7249"/><path d="m672.96 189c40.409 0 60.94 74.15 42.881 112.4-3.45 7.313-9.883 14.621-18.366 14.621-46.165 0-34.38-91.763-60.369-117.84a115.39 115.39 0 0 0 6.738-7.825c17.561 20.608 8.833 74.845 46.34 74.845 8.64 0 15.175-7.566 18.661-14.95 9.313-19.73-7.921-53.997-26.785-53.997-0.189 0-2.897 0.113-2.837 1.21 0.696 12.592 10.602 4.74 0.627 26.171-10.192-2.03-20.988-18.393-15.415-30.2 1.64-3.47 5.743-4.437 8.524-4.437"/><path d="m672.96 189c40.409 0 60.94 74.15 42.881 112.4-3.45 7.313-9.883 14.621-18.366 14.621-46.165 0-34.38-91.763-60.369-117.84a115.39 115.39 0 0 0 6.738-7.825c17.561 20.608 8.833 74.845 46.34 74.845 8.64 0 15.175-7.566 18.661-14.95 9.313-19.73-7.921-53.997-26.785-53.997-0.189 0-2.897 0.113-2.837 1.21 0.696 12.592 10.602 4.74 0.627 26.171-10.192-2.03-20.988-18.393-15.415-30.2 1.64-3.47 5.743-4.437 8.524-4.437z" fill="none" stroke="#000" stroke-miterlimit="3.864" stroke-width="3.7249"/><path d="m773.44 188.18c3.804 0.36 9.524 0.02 12.79 1.013 0.613 0.185 0.147 0.952 0.253 1.555 0.99 5.602 2.552 10.92 3.901 16.333 5.264 21.096 8.433 42.752 14.475 63.662 6.572 22.766 13.425 48.421 5.467 76.989a53.4 53.4 0 0 1-3.164 8.481c-9.022 19.116-32.22 37.313-52.508 37.313-2.463 0-5.12-0.697-6.3-2.3 8.562-5.442 13.918-11.023 17.745-19.124 4.587-9.714 4.518-18.811 3.915-27.185 1.621 0.943 6.816 3.298 8.98 3.298 8.774 0 16.308-8.485 19.827-15.943 6.466-13.696 5.36-27.675 4.241-39.34-0.561-5.839-1.349-11.6-2.436-17.195l-1.649-8.103-0.207-0.887-0.203-0.886c0.981 0 0.102 1.721 0.139 2.587 0.603 14.121 0.35 33.835-7.236 49.906-3.527 7.468-9.293 15.167-18.145 15.167-38.796 0-19.282-110.03-50.375-136.19a80.643 80.643 0 0 0 4.55-8.642c18.4 22.222 19.362 83.477 46.442 83.477 6.572 0 13.365-6.16 16.16-12.08 12.03-25.483-7.954-55.172-16.663-71.906" fill-rule="evenodd"/><path d="m773.44 188.18c3.804 0.36 9.524 0.02 12.79 1.013 0.613 0.185 0.147 0.952 0.253 1.555 0.99 5.602 2.552 10.92 3.901 16.333 5.264 21.096 8.433 42.752 14.475 63.662 6.572 22.766 13.425 48.421 5.467 76.989a53.4 53.4 0 0 1-3.164 8.481c-9.022 19.116-32.22 37.313-52.508 37.313-2.463 0-5.12-0.697-6.3-2.3 8.562-5.442 13.918-11.023 17.745-19.124 4.587-9.714 4.518-18.811 3.915-27.185 1.621 0.943 6.816 3.298 8.98 3.298 8.774 0 16.308-8.485 19.827-15.943 6.466-13.696 5.36-27.675 4.241-39.34-0.561-5.839-1.349-11.6-2.436-17.195l-1.649-8.103-0.207-0.887-0.203-0.886c0.981 0 0.102 1.721 0.139 2.587 0.603 14.121 0.35 33.835-7.236 49.906-3.527 7.468-9.293 15.167-18.145 15.167-38.796 0-19.282-110.03-50.375-136.19a80.643 80.643 0 0 0 4.55-8.642c18.4 22.222 19.362 83.477 46.442 83.477 6.572 0 13.365-6.16 16.16-12.08 12.03-25.483-7.954-55.172-16.663-71.906z" fill="none" stroke="#000" stroke-miterlimit="3.864" stroke-width="3.7249"/><path d="m295.57 98.301c26.685 0 11.132 66.68 1.642 86.786-8.126 17.214-26.42 42.04-48.102 42.04-26.014 0-25.24-29.136-14.885-51.07 5.606-11.875 14.221-25.186 26.091-34.973-3.038 10.215 7.232 17.193 3.078 25.994-2.837 6.01-8.709 12.578-11.76 19.041-4.935 10.452-3.05 29 8.873 29 10.671 0 20.155-13.22 24.042-21.455 7.964-16.874 27.878-88.862 5.619-88.862-25.636 0-69.811 62.471-79.061 82.066-16.512 34.978-4.543 78.061 33.078 78.061 25.42 0 46.33-24.439 56.428-45.834 6.016-12.743 9.292-25.423 10.582-37.38l4.935-0.902c1.09 32.91 35.907 87.408 21.086 118.8-18.969 40.183-75.689 39.823-108.07 54.085-6.807-15.924-16.029-30.73-29.015-42.028 28.889-9.717 99.878-26.035 115.31-58.735 6.487-13.74 2.07-36.52-5.425-44.24a85.337 85.337 0 0 1-5.382 14.768c-13.217 27.997-41.516 49.71-70.69 49.71-40.619 0-57.839-29.188-38.722-69.688 11.472-24.301 70.057-105.19 100.35-105.19"/><path d="m295.57 98.301c26.685 0 11.132 66.68 1.642 86.786-8.126 17.214-26.42 42.04-48.102 42.04-26.014 0-25.24-29.136-14.885-51.07 5.606-11.875 14.221-25.186 26.091-34.973-3.038 10.215 7.232 17.193 3.078 25.994-2.837 6.01-8.709 12.578-11.76 19.041-4.935 10.452-3.05 29 8.873 29 10.671 0 20.155-13.22 24.042-21.455 7.964-16.874 27.878-88.862 5.619-88.862-25.636 0-69.811 62.471-79.061 82.066-16.512 34.978-4.543 78.061 33.078 78.061 25.42 0 46.33-24.439 56.428-45.834 6.016-12.743 9.292-25.423 10.582-37.38l4.935-0.902c1.09 32.91 35.907 87.408 21.086 118.8-18.969 40.183-75.689 39.823-108.07 54.085-6.807-15.924-16.029-30.73-29.015-42.028 28.889-9.717 99.878-26.035 115.31-58.735 6.487-13.74 2.07-36.52-5.425-44.24a85.337 85.337 0 0 1-5.382 14.768c-13.217 27.997-41.516 49.71-70.69 49.71-40.619 0-57.839-29.188-38.722-69.688 11.472-24.301 70.057-105.19 100.35-105.19z" fill="none" stroke="#000" stroke-linejoin="round" stroke-miterlimit="3.864" stroke-width="44.698"/><path d="m364.97 194.8c1.613 3.965 6.278 26.417 9.822 26.417 7.651 0 21.479-20.819 25.188-26.224 6.804 4.456 3.03 13.81 15.638 13.81 5.709 0 8.58-12.296 14.52-12.496 0.21 4.97 0.529 9.468-2.18 15.21-4.18 8.853-14.752 20.849-25.145 20.849-7.445 0-17.813-8.963-19.85-8.963-2.212 0-6.272 1.035-7.568 3.777-5.411 11.466 9.057 49.746 23.568 49.746 7.753 0 17.006-5.688 25.116-9.197-2.112 13.794-2.405 25.424 0.389 37.291-7.39 4.683-16.048 6.657-22.995 6.657-35.655 0-15.992-82.92-48.87-100.59l12.366-16.29"/><path d="m364.97 194.8c1.613 3.965 6.278 26.417 9.822 26.417 7.651 0 21.479-20.819 25.188-26.224 6.804 4.456 3.03 13.81 15.638 13.81 5.709 0 8.58-12.296 14.52-12.496 0.21 4.97 0.529 9.468-2.18 15.21-4.18 8.853-14.752 20.849-25.145 20.849-7.445 0-17.813-8.963-19.85-8.963-2.212 0-6.272 1.035-7.568 3.777-5.411 11.466 9.057 49.746 23.568 49.746 7.753 0 17.006-5.688 25.116-9.197-2.112 13.794-2.405 25.424 0.389 37.291-7.39 4.683-16.048 6.657-22.995 6.657-35.655 0-15.992-82.92-48.87-100.59z" fill="none" stroke="#000" stroke-linejoin="round" stroke-miterlimit="3.864" stroke-width="44.698"/><path d="m502.01 188.16c26.946 0 37.585 48.474 25.496 74.086-9.381 19.87-26.01 34.273-47.316 34.273-37.626 0-32.911-51.29-18.232-82.388 4.048-8.566 17.878-27.239 28.696-27.239 3.974 0 7.267 1.267 11.357 1.267zm-0.834 4.525c-4.241 0-7.972 2.096-9.938 6.27-4.131 8.747 16.465 17.598 13.507 23.858-1.86 3.94-8.944 7.627-12.517 7.627-17.855 0-17.704-23.232-7.06-38.374-6.618 4.217-10.957 10.658-13.775 16.633-10.464 22.162-2.16 52.65 21.72 52.65 13.195 0 28.392-11.855 34.297-24.369 7.268-15.387-11.316-44.295-26.232-44.295" fill-rule="evenodd"/><path d="m502.01 188.16c26.946 0 37.585 48.474 25.496 74.086-9.381 19.87-26.01 34.273-47.316 34.273-37.626 0-32.911-51.29-18.232-82.388 4.048-8.566 17.878-27.239 28.696-27.239 3.974 0 7.267 1.267 11.357 1.267z" fill="none" stroke="#000" stroke-linejoin="round" stroke-miterlimit="3.864" stroke-width="44.698"/><path d="m501.17 192.69c-4.242 0-7.973 2.097-9.94 6.27-4.13 8.747 16.466 17.598 13.508 23.858-1.86 3.94-8.943 7.627-12.517 7.627-17.855 0-17.704-23.232-7.06-38.373-6.618 4.216-10.957 10.657-13.775 16.632-10.464 22.163-2.16 52.65 21.72 52.65 13.195 0 28.392-11.855 34.297-24.369 7.268-15.387-11.315-44.295-26.232-44.295z" fill="none" stroke="#000" stroke-linejoin="round" stroke-miterlimit="3.864" stroke-width="44.698"/><path d="m624.47 267.96c-7.042 14.915-20.163 23.104-34.938 23.104-46.889 0-56.191-42.756-35.872-85.804 4.798-10.16 12.673-21.401 24.698-21.401 37.67 0 63.91 46.39 46.11 84.101zm-37.41-78.7c-3.46 0-6.494 1.25-8.152 4.765-3.648 7.73 16.197 14.621 16.225 22.609-2.073 2.454-7.876 5.201-10.404 5.201-14.291 0-25.076-19.374-12.877-33.772-4.951 3.144-7.89 7.85-9.98 12.275-12.37 26.204 5.264 52.696 30.957 52.696 10.694 0 24.478-5.951 30.033-17.721 7.861-16.658-20.14-46.054-35.803-46.054" fill-rule="evenodd"/><path d="m624.47 267.96c-7.042 14.915-20.163 23.104-34.938 23.104-46.889 0-56.191-42.756-35.872-85.804 4.798-10.16 12.673-21.401 24.698-21.401 37.67 0 63.91 46.39 46.11 84.101z" fill="none" stroke="#000" stroke-linejoin="round" stroke-miterlimit="3.864" stroke-width="44.698"/><path d="m587.06 189.26c-3.459 0-6.494 1.25-8.152 4.765-3.647 7.73 16.198 14.621 16.225 22.609-2.072 2.454-7.875 5.201-10.403 5.201-14.292 0-25.077-19.374-12.878-33.772-4.95 3.144-7.89 7.85-9.98 12.275-12.37 26.204 5.264 52.696 30.958 52.696 10.693 0 24.477-5.951 30.032-17.721 7.862-16.658-20.14-46.054-35.802-46.054z" fill="none" stroke="#000" stroke-linejoin="round" stroke-miterlimit="3.864" stroke-width="44.698"/><path d="m672.96 189c40.409 0 60.94 74.15 42.881 112.4-3.45 7.313-9.883 14.621-18.366 14.621-46.165 0-34.38-91.763-60.369-117.84a115.39 115.39 0 0 0 6.738-7.825c17.561 20.608 8.833 74.845 46.34 74.845 8.64 0 15.175-7.566 18.661-14.95 9.313-19.73-7.921-53.997-26.785-53.997-0.189 0-2.897 0.113-2.837 1.21 0.696 12.592 10.602 4.74 0.627 26.171-10.192-2.03-20.988-18.393-15.415-30.2 1.64-3.47 5.743-4.437 8.524-4.437"/><path d="m672.96 189c40.409 0 60.94 74.15 42.881 112.4-3.45 7.313-9.883 14.621-18.366 14.621-46.165 0-34.38-91.763-60.369-117.84a115.39 115.39 0 0 0 6.738-7.825c17.561 20.608 8.833 74.845 46.34 74.845 8.64 0 15.175-7.566 18.661-14.95 9.313-19.73-7.921-53.997-26.785-53.997-0.189 0-2.897 0.113-2.837 1.21 0.696 12.592 10.602 4.74 0.627 26.171-10.192-2.03-20.988-18.393-15.415-30.2 1.64-3.47 5.743-4.437 8.524-4.437z" fill="none" stroke="#000" stroke-linejoin="round" stroke-miterlimit="3.864" stroke-width="44.698"/><path d="m773.44 188.18c3.804 0.36 9.524 0.02 12.79 1.013 0.613 0.185 0.147 0.952 0.253 1.555 0.99 5.602 2.552 10.92 3.901 16.333 5.264 21.096 8.433 42.752 14.475 63.662 6.572 22.766 13.425 48.421 5.467 76.989a53.4 53.4 0 0 1-3.164 8.481c-9.022 19.116-32.22 37.313-52.508 37.313-2.463 0-5.12-0.697-6.3-2.3 8.562-5.442 13.918-11.023 17.745-19.124 4.587-9.714 4.518-18.811 3.915-27.185 1.621 0.943 6.816 3.298 8.98 3.298 8.774 0 16.308-8.485 19.827-15.943 6.466-13.696 5.36-27.675 4.241-39.34-0.561-5.839-1.349-11.6-2.436-17.195l-1.649-8.103-0.207-0.887-0.203-0.886c0.981 0 0.102 1.721 0.139 2.587 0.603 14.121 0.35 33.835-7.236 49.906-3.527 7.468-9.293 15.167-18.145 15.167-38.796 0-19.282-110.03-50.375-136.19a80.643 80.643 0 0 0 4.55-8.642c18.4 22.222 19.362 83.477 46.442 83.477 6.572 0 13.365-6.16 16.16-12.08 12.03-25.483-7.954-55.172-16.663-71.906" fill-rule="evenodd"/><path d="m773.44 188.18c3.804 0.36 9.524 0.02 12.79 1.013 0.613 0.185 0.147 0.952 0.253 1.555 0.99 5.602 2.552 10.92 3.901 16.333 5.264 21.096 8.433 42.752 14.475 63.662 6.572 22.766 13.425 48.421 5.467 76.989a53.4 53.4 0 0 1-3.164 8.481c-9.022 19.116-32.22 37.313-52.508 37.313-2.463 0-5.12-0.697-6.3-2.3 8.562-5.442 13.918-11.023 17.745-19.124 4.587-9.714 4.518-18.811 3.915-27.185 1.621 0.943 6.816 3.298 8.98 3.298 8.774 0 16.308-8.485 19.827-15.943 6.466-13.696 5.36-27.675 4.241-39.34-0.561-5.839-1.349-11.6-2.436-17.195l-1.649-8.103-0.207-0.887-0.203-0.886c0.981 0 0.102 1.721 0.139 2.587 0.603 14.121 0.35 33.835-7.236 49.906-3.527 7.468-9.293 15.167-18.145 15.167-38.796 0-19.282-110.03-50.375-136.19a80.643 80.643 0 0 0 4.55-8.642c18.4 22.222 19.362 83.477 46.442 83.477 6.572 0 13.365-6.16 16.16-12.08 12.03-25.483-7.954-55.172-16.663-71.906z" fill="none" stroke="#000" stroke-linejoin="round" stroke-miterlimit="3.864" stroke-width="44.698"/><path d="m295.57 98.301c26.685 0 11.132 66.68 1.642 86.786-8.126 17.214-26.42 42.04-48.102 42.04-26.014 0-25.24-29.136-14.885-51.07 5.606-11.875 14.221-25.186 26.091-34.973-3.038 10.215 7.232 17.193 3.078 25.994-2.837 6.01-8.709 12.578-11.76 19.041-4.935 10.452-3.05 29 8.873 29 10.671 0 20.155-13.22 24.042-21.455 7.964-16.874 27.878-88.862 5.619-88.862-25.636 0-69.811 62.471-79.061 82.066-16.512 34.978-4.543 78.061 33.078 78.061 25.42 0 46.33-24.439 56.428-45.834 6.016-12.743 9.292-25.423 10.582-37.38l4.935-0.902c1.09 32.91 35.907 87.408 21.086 118.8-18.969 40.183-75.689 39.823-108.07 54.085-6.807-15.924-16.029-30.73-29.015-42.028 28.889-9.717 99.878-26.035 115.31-58.735 6.487-13.74 2.07-36.52-5.425-44.24a85.337 85.337 0 0 1-5.382 14.768c-13.217 27.997-41.516 49.71-70.69 49.71-40.619 0-57.839-29.188-38.722-69.688 11.472-24.301 70.057-105.19 100.35-105.19m69.4 96.502c1.613 3.965 6.278 26.417 9.822 26.417 7.651 0 21.479-20.819 25.188-26.224 6.804 4.456 3.03 13.81 15.638 13.81 5.709 0 8.58-12.296 14.52-12.496 0.21 4.97 0.529 9.468-2.18 15.21-4.18 8.853-14.752 20.849-25.145 20.849-7.445 0-17.813-8.963-19.85-8.963-2.212 0-6.272 1.035-7.568 3.777-5.411 11.466 9.057 49.746 23.568 49.746 7.753 0 17.006-5.688 25.116-9.197-2.112 13.794-2.405 25.424 0.389 37.291-7.39 4.683-16.048 6.657-22.995 6.657-35.655 0-15.992-82.92-48.87-100.59l12.366-16.29" fill="#fff"/><path d="m502.01 188.16c26.946 0 37.585 48.474 25.496 74.086-9.381 19.87-26.01 34.273-47.316 34.273-37.626 0-32.911-51.29-18.232-82.388 4.048-8.566 17.878-27.239 28.696-27.239 3.974 0 7.267 1.267 11.357 1.267zm-0.834 4.525c-4.241 0-7.972 2.096-9.938 6.27-4.131 8.747 16.465 17.598 13.507 23.858-1.86 3.94-8.944 7.627-12.517 7.627-17.855 0-17.704-23.232-7.06-38.374-6.618 4.217-10.957 10.658-13.775 16.633-10.464 22.162-2.16 52.65 21.72 52.65 13.195 0 28.392-11.855 34.297-24.369 7.268-15.387-11.316-44.295-26.232-44.295m123.3 75.275c-7.042 14.915-20.163 23.104-34.938 23.104-46.889 0-56.191-42.756-35.872-85.804 4.798-10.16 12.673-21.401 24.698-21.401 37.67 0 63.91 46.39 46.11 84.101zm-37.41-78.7c-3.46 0-6.494 1.25-8.152 4.765-3.648 7.73 16.197 14.621 16.225 22.609-2.073 2.454-7.876 5.201-10.404 5.201-14.291 0-25.076-19.374-12.877-33.772-4.951 3.144-7.89 7.85-9.98 12.275-12.37 26.204 5.264 52.696 30.957 52.696 10.694 0 24.478-5.951 30.033-17.721 7.861-16.658-20.14-46.054-35.803-46.054" fill="#fff" fill-rule="evenodd"/><path d="m672.96 189c40.409 0 60.94 74.15 42.881 112.4-3.45 7.313-9.883 14.621-18.366 14.621-46.165 0-34.38-91.763-60.369-117.84a115.39 115.39 0 0 0 6.738-7.825c17.561 20.608 8.833 74.845 46.34 74.845 8.64 0 15.175-7.566 18.661-14.95 9.313-19.73-7.921-53.997-26.785-53.997-0.189 0-2.897 0.113-2.837 1.21 0.696 12.592 10.602 4.74 0.627 26.171-10.192-2.03-20.988-18.393-15.415-30.2 1.64-3.47 5.743-4.437 8.524-4.437" fill="#fff"/><path d="m773.44 188.18c3.804 0.36 9.524 0.02 12.79 1.013 0.613 0.185 0.147 0.952 0.253 1.555 0.99 5.602 2.552 10.92 3.901 16.333 5.264 21.096 8.433 42.752 14.475 63.662 6.572 22.766 13.425 48.421 5.467 76.989a53.4 53.4 0 0 1-3.164 8.481c-30.254 58.113-95.001 42.45-115.28 42.45-2.464 0-5.126-0.699-6.3-2.301 8.557-5.443 13.917-11.022 17.74-19.123 4.587-9.714 4.518-18.811 3.915-27.187 1.62 0.944 6.82 3.297 8.98 3.297 8.774 0 57.679 25.128 82.609-21.079 6.466-13.696 5.36-27.675 4.242-39.34-0.562-5.839-1.35-11.6-2.437-17.195l-1.648-8.103-0.208-0.887-0.202-0.885c0.98 0 0.101 1.72 0.138 2.586 0.603 14.122 0.35 33.835-7.235 49.907-3.528 7.467-9.294 15.166-18.145 15.166-38.797 0-19.283-110.03-50.375-136.19a80.643 80.643 0 0 0 4.55-8.641c18.399 22.22 19.361 83.476 46.441 83.476 6.572 0 13.365-6.16 16.16-12.08 12.03-25.483-7.953-55.172-16.662-71.906" fill="#fff" fill-rule="evenodd"/></svg>