<svg xmlns="http://www.w3.org/2000/svg" viewBox="0 0 260.16 184.42"><path fill="#f8dc75" d="M237.69 33.617c-.019-5.071.402-24.5-2.5-30.4-7.869 2.99-19.189 11.68-22.431 21.588-15.532-2.32-35.042-2.045-50.381.608C159.816 14.753 147.954 7.596 138.251 3c-4.093 6.907-3.906 19.92-3.445 31.279l-.054.037c1.8 47.7 22.2 74.399 52.799 92.399 31.481-17.988 50.972-49.057 50.101-93.12zm-21.197-8.196.344.064q-.17-.033-.344-.064m-1.958-.338c.275.044.554.094.83.141z"/><path fill="#d2a41f" d="M91.021 133.33c46.474 4.115 90.927 22.883 141.08 49.085h25.598l.361.191c.516-2.575-1.888-6.025-4.752-9.229-4.941-5.528-11.623-6.145-19.707-5.951-5.738-6.83-41.004-43.861-41.004-43.861l-4.808 3.395c-38.75-21.75-49.155-62.513-49.155-62.513-33.792 8.148-69.78 28.334-90.391 49.761l-3.118 3.292a302 302 0 0 0-4.312 4.723c-21.843 24.44-37.81 48.649-37.81 52.992v2.25h23.816l-.505-.668c-2.449-12.943 4.443-23.341 10.279-30.385 4.179-5.044 11.1-9.801 21.968-12.457z"/><path d="M240.69 32.617c-.019-5.071-1.598-26.5-4.5-32.4-7.869 2.99-22.189 12.68-25.431 22.588-15.532-2.32-33.042-2.045-48.381.608C159.816 12.753 146.954 4.596 137.251 0c-4.093 6.907-5.906 22.92-5.445 34.279l-.054.037c1.8 47.7 25.2 77.399 55.799 95.399 31.481-17.988 53.972-53.057 53.101-97.12zm-26.197-9.196.344.064q-.17-.033-.344-.064m-1.958-.338c.275.044.554.094.83.141zm23.257 12.976c.81 39.69-19.44 71.279-47.79 87.48-48.118-23.977-57.183-84.71-48.977-117.29 2.283 12.454 6.424 20.266 15.394 24.098 19.533-5.591 46.423-6.033 66.231-.57 8.255-6.001 11.456-15.169 13.204-23.18 2.183 9.323 1.931 29.457 1.938 29.461z"/><path d="M133.22 90.51h26.245v3.239H133.22zm0-7.778h26.245v3.24H133.22zm80.14 7.778h26.244v3.239H213.36zm0-7.778h26.244v3.24H213.36zm-9.25-19.208h-42.77v-2.917h13.31c1.639-7.018 1.963-13.725-.014-17.125-.844-1.446-2.01-2.121-3.674-2.121-7.609 0-10.753 8.046-10.884 8.389l.002-.003-2.73-1.024c.156-.42 3.965-10.278 13.612-10.278 2.692 0 4.834 1.235 6.191 3.57 2.41 4.141 2.127 11.305.494 18.592h23.354c3.103-9.116 9.581-13.414 20.405-13.414v2.916c-11.732 0-15.019 4.973-17.366 10.498h12.743l-.029 2.901z"/><path d="m206.03 77.925.019-.003c-3.459-5.101-4.555-9.456-3.108-14.413l-2.971.015c-1.035 3.3-.62 8.273 1.929 12.54h-29.676c1.806-3.616 3.479-8.025 4.702-12.54h-3.021c-1.348 4.786-3.241 9.524-5.372 13.277l-.689 1.213 16.652 10.482-9.375 6.178 1.605 2.436 10.479-6.908 11.312 7.382 1.554-2.468-10.488-6.488s15.682-10.187 16.461-10.684zm-18.861 8.808-12.317-7.755 24.071.006zm-87.371-6.299 14.952-6.799 7.35 21.756zM84.569 88.32l8.702-5.167 7.889 13.597zm-16.86 11.15 7.614-5.711 3.807 13.601zm134.61 35.9-5.44-5.17-7.07 10.88zm10.06 11.96-4.35-4.62-11.42 8.7zm-18.22-122.92-13.87.272 8.43 18.492zm-55.2 35.08-1.36-7.886 13.32 7.07zm3.26 11.694-1.36-5.167 8.16 3.263zm91.92-8.431 1.9-5.982-10.88 4.623zm-4.08 12.238 1.63-4.895-8.43 2.448z"/><path d="M256.31 173.38c-4.941-5.528-14.623-8.145-22.707-7.951-5.738-6.83-39.004-41.861-39.004-41.861l-2.306 2.903 40.162 43.238 1.743-.149c10.912-.935 17.115 4.983 18.757 6.819 1.204 1.347 1.931 2.575 2.326 3.539h-22.075c-50.624-26.416-95.078-45.044-142.3-49.112.104-6.571 1.273-14.01 3.518-22.299l-4.343-1.177c-2.308 8.521-3.523 16.236-3.661 23.133-4.92-.326-9.872-.495-14.868-.495-4.237 0-8.095.394-11.614 1.077-4.59-4.587-8.5-8.959-11.823-13.108 21.936-22.85 58.15-43.498 89.533-51.092l-1.015-4.396c-33.792 8.148-70.78 30.334-91.391 51.761-9.565-12.91-13.36-23.504-14.487-31.532-1.424-10.14.997-19.441 6.999-26.899 9.398-11.675 22.75-12.497 36.478-10.188-.268 2.167.017 4.24.885 5.522 3.631 5.363 23.144 7.246 34.791 2.049-8.595-12.045-26.006-17.926-30.83-15.569-1.598.781-2.804 2.214-3.63 3.886-4.745-.849-9.458-1.48-12.903-1.455-12.107.088-21.363 4.319-28.296 12.932-6.802 8.451-9.551 18.944-7.95 30.347 1.516 10.8 6.863 22.286 15.825 34.198a302 302 0 0 0-4.312 4.723C15.969 146.666.002 172.875.002 177.218v2.25h28.816l-.505-2.668c-1.627-8.601 1.623-19.351 8.279-27.385 4.179-5.044 11.1-10.801 21.968-13.457 9.663 9.431 21.975 19.446 35.679 29.109h21.414v-2.25c0-2.539-1.259-4.762-3.545-6.257-3.383-2.212-8.605-2.517-13.402-.881-4.573-5.093-7.137-11.896-7.691-20.347 46.474 4.115 90.927 22.883 141.08 49.085h27.598l.361-1.809c.515-2.574-.888-6.024-3.752-9.228zM33.13 146.544c-6.816 8.227-10.429 19.094-9.601 28.424H5.377c3.647-7.894 18.176-30.712 39.644-53.76 2.958 3.656 6.253 7.35 9.872 11.073-10.541 3.168-17.451 9.06-21.763 14.263"/></svg>