<svg viewBox="0 0 90.713 146.16" xmlns="http://www.w3.org/2000/svg"><path d="M79.121 41.699l-.07-.11a9 9 0 00-12.22-3.19 9 9 0 00-3.29 12.28v.06a9 9 0 0012.22 3.22l.12-.06a9 9 0 003.19-12.2zm-50.32 6.87a24.64 24.64 0 0113.5 7c.57.58 1.12 1.19 1.63 1.82l9-5.18a19.34 19.34 0 018.69-22.78l.15-.09a19.32 19.32 0 0126.29 7.16 19.33 19.33 0 01-7.08 26.42l-1.23.72h-.13a19.39 19.39 0 01-22.72-4.52l-8.95 5.16a24.62 24.62 0 011.67 8.76 25 25 0 01-1.6 8.8l8.95 5.14a19.37 19.37 0 0124.07-3.8l.29.14a19.35 19.35 0 016.79 26.26l-.16.32a19.32 19.32 0 01-26.34 6.81 19.31 19.31 0 01-9-11.74 19.11 19.11 0 01.29-11l-9-5.17c-.51.63-1.06 1.22-1.63 1.8a24.51 24.51 0 01-13.5 6.92v10.36a19.13 19.13 0 019.67 5.25 19.28 19.28 0 010 27.31v.05a19.34 19.34 0 01-27.36 0v-.05a19.25 19.25 0 010-27.31 19.11 19.11 0 019.65-5.25v-10.37a24.48 24.48 0 01-13.48-6.92 24.72 24.72 0 010-35 24.62 24.62 0 0113.48-7v-10.33a19.58 19.58 0 01-9.65-5.26 19.28 19.28 0 010-27.33 19.34 19.34 0 0127.36 0 19.3 19.3 0 010 27.33 19.6 19.6 0 01-9.67 5.26v10.31zm5.18 15.29a13.06 13.06 0 103.79 9.18 13 13 0 00-3.79-9.18zm39.64 44.74a8.83 8.83 0 005.46-4.17l.17-.31a9 9 0 00-3.48-12l-.12-.08a9 9 0 00-6.68-.81 9 9 0 00-6.36 11 9.1 9.1 0 004.18 5.46 9 9 0 006.82.88zm-48.84 27.18a9.06 9.06 0 006.36-2.61 8.81 8.81 0 002.6-6.31 8.93 8.93 0 00-2.6-6.36 8.87 8.87 0 00-6.36-2.63 8.73 8.73 0 00-6.32 2.63h-.05a9 9 0 00-2.61 6.36 8.86 8.86 0 002.61 6.31h.05a8.91 8.91 0 006.32 2.61zm6.36-122.82a8.94 8.94 0 00-6.36-2.61 8.8 8.8 0 00-6.32 2.62h-.05a9 9 0 000 12.68h.05a8.82 8.82 0 006.32 2.6 9 9 0 006.36-2.6 9 9 0 000-12.68z" fill="#231815"/></svg>
