<svg xmlns="http://www.w3.org/2000/svg" viewBox="0 0 2319 1737"><path d="M2316.1 724.89c-7.355 72.197-26.616 142.35-60.975 201.82-30.752 53.31-73.594 98.14-130.68 128.72-38.796 20.588-83.867 32.536-130.46 37.408-48.381 5.032-98.323 2.344-144.91-5.561-2.184 7.238-4.436 14.545-6.574 21.738a7804 7804 0 0 1-8.204 27.045c-9.516 31.25-32.247 59.421-60.54 80.285-29.258 21.554-64.882 35.64-98.094 37.133-31.74 1.539-56.241-5.929-78.006-18.773-21.076-12.385-39.072-29.596-58.7-48.553l-25.742-24.748c-5.768-5.629-11.537-11.236-17.398-16.819-.62 4.043-1.195 7.904-1.793 11.442 9.056 18.36 15.514 35.548 22.042 53.195v.069c4.09 11.007 8.32 22.335 13.445 34.605 7.607 18.153 13.33 33.272 17.329 48.989 3.976 15.832 6.183 31.94 6.689 51.701.459 16.82.92 33.594 1.379 50.391.436 15.831.804 31.687 1.333 47.519 6.987 12.707 11.147 21.438 13.215 31.043 2.321 10.248 2.092 20.267.896 36.559-2.551 36.604-14.686 57.031-35.003 68.612-19.122 10.823-44.405 12.432-75.685 12.271-4.735-.07-12.457-.07-21.812-.07-30.362 0-77.293.07-91.658-.941-19.306-1.38-35.326-2.873-48.817-6.09-10.366-2.482-18.893-6.066-26.04-11.305-10.367 8.387-19.468 15.946-28.639 23.484-26.937 22.196-54.286 44.807-65.318 52.114-4.207 6.526-8.022 13.075-11.538 19.141-11.308 19.83-19.675 34.467-46.336 48.943-52.378 28.286-92.899 25.804-128.45 3.998-33.878-20.772-61.872-58.939-91.108-104.07-13.904-21.416-36.13-56.711-46.955-91.292-11.951-38.282-10.297-75.53 27.857-95.13 1.815-.942 3.654-1.885 5.377-2.804 3.976-2.045 7.723-3.928 11.469-5.858-14.456.757-28.983 1.332-43.439 1.148-28.407-.161-56.93-2.137-86.004-5.859.459 3.446.873 6.227 1.079 8.019 2.23 19.279 3.77 31.917 1.932 44.578-1.839 13.052-7.01 24.655-18.043 41.108a598 598 0 0 1-5.309 7.651c-10.25 15.051-16.272 24.036-30.361 55.148 1.402 15.326 1.862 27.665.85 39.959-1.126 13.235-3.907 26.7-8.62 44.301-12.019 44.394-56.653 54.62-106.14 51.517-45.37-2.826-95.06-17.096-123.77-24.908a2660 2660 0 0 0-16.203-4.228c-24.225-6.342-50.334-13.166-72.306-23.139-43.991-20.06-72.191-51.563-44.727-111.88 4.414-9.559 8.274-19.302 11.791-29.091 1.334-3.493 2.206-6.824 3.356-10.316-22.409 3.492-46.197-.759-69.364-9.559-40.521-15.396-79.271-44.831-102.97-68.544-18.938-19.003-33.694-39.408-44.703-60.386-11.951-22.726-19.582-46.279-23.466-69.487-6.389-37.96-1.931-42.279 20.524-63.81 3.332-3.286 7.079-6.871 7.998-7.767 11.102-10.96 22.111-21.944 33.188-32.858 11.792-11.719 23.742-23.507 35.51-35.272 5.401-14.614 10.78-29.205 16.227-43.957 3.47-9.42 6.918-18.911 10.388-28.309-1.655-8.732-3.172-17.532-4.436-26.539-1.448-10.502-2.597-20.176-3.355-28.884-3.402-40.12-4.551-74.633-3.379-105.86.92-23.827 3.126-45.748 6.78-66.728-18.525 4.114-37.417 3.814-54.517-1.631-21.145-6.825-39.577-21.393-51.001-45.382-4.297-8.801-7.653-17.716-10.847-27.758-2.805-8.869-5.378-18.773-8.183-29.986-15.146-15.625-23.742-32.008-26.592-48.782-3.379-19.256.529-38.466 9.148-56.871 8.252-17.67 20.938-34.513 35.601-49.771 39.532-41.039 95.727-71.899 121.86-76.425l19.628-3.424-6.527 18.774c-3.402 9.512-7.378 19.484-11.216 29.297-1.08 2.848-2.16 5.721-3.356 8.801 12.021 9.512 19.237 22.725 22.593 37.729 5.264 23.231 1.863 49.977-2.62 69.991l-5.332 23.966-15.215-19.209c-3.678-4.527-6.735-9.237-9.677-13.832-2.712-4.16-5.286-8.089-7.906-11.329-2.091 31.181-5.883 62.432-28.109 83.755.621 2.666.92 4.09 1.379 4.412.345.183 4.114-1.884 13.239-5.423 15.652-5.975 29.556-15.947 42.635-27.643 13.469-12.132 25.764-25.942 38.221-39.637 14.089-27.32 30.201-53.171 49.001-77.781 19.123-25.092 41.003-48.805 66.284-71.163 61.827-54.757 122-91.223 190.26-117.65 66.86-25.827 141.37-42.096 232.89-56.755a1644 1644 0 0 1 35.189-35.456c12.87-12.339 26.155-24.678 40.083-37.041 19.536-17.187 35.877-27.689 52.127-34.192 14.686-5.973 29.166-8.294 45.438-9.49 27.949-37.246 53.414-69.209 83.407-96.898 31.373-28.999 67.412-53.148 115.95-73.553 100.51-42.395 185.71-64.477 266.29-59.399 81.201 5.079 157.14 37.57 238.52 104.71 15.353 12.684 31.005 26.378 46.611 40.074 34.107 29.986 67.571 59.329 106.9 83.916 14.824 9.191 27.35 17.141 39.715 26.54 12.251 9.329 23.512 19.761 35.279 33.64 14.228 17.026 27.19 34.007 38.567 52.205 9.584 15.189 17.951 31.32 25.306 49.036 16.662-6.71 34.291-14.131 48.426-26.057 12.204-10.455 22.363-25.322 32.498-40.12 9.079-13.327 18.204-26.539 28.983-37.431 3.539-3.654 7.561-6.641 11.928-8.847 16.595-8.755 37.601-7.307 57.482-.436 18.755 6.411 36.866 17.83 49.162 29.964 5.677 5.537 10.228 11.442 13.193 17.187 24.73 47.266 42.496 112.96 53.253 180.61 11.996 75.92 15.261 154.62 9.423 212.5zm-964.53 820.57c18.754 1.562 92.509 2.022 111.08 2.275 40.819.758 56.309-2.344 60.423-48.783 1.999-22.771.184-26.999-11.17-46.944-.965-35.547-1.953-71.118-2.942-106.66-1.034-33.662-7.515-53.148-20.708-84.559-7.906-18.727-12.25-36.306-17.743-54.045-11.837 42.395-27.833 82.331-42.382 128.2-13.721 43.383-84.418 169.28-125.95 199.89 8.09 6.021 22.939 8.341 49.392 10.639zm-1161.4-291.5c-16.547 16.797-19.765 17.371-16.432 41.084 4.527 32.56 23.742 67.166 52.448 96.485 26.247 26.792 116.9 96.693 152.52 49.036 7.584-10.133 11.169-22.703 14.342-35.64v-1.424c-49.829-75.392-94.854-165.17-121.26-256.44-4.872 13.074-9.768 26.057-14.617 39.131-22.317 22.518-44.658 45.152-66.998 67.763zm59.39-618.2c-1.288-16.866-4.459-29.389-16.318-36.351-.85 2.735-1.517 5.491-2.299 8.272-1.54 5.446-2.481 11.213-3.263 17.257 9.124-1.034 14.824 3.768 21.88 10.822m-12.503 142c-48.703 19.463-47.714 2.642-68.675-39.637 44.565-35.593 23.948-79.298 38.13-128.42 3.309-11.282 8.09-22.335 14.87-36.857-46.702 28.079-132.48 106.55-75.156 166.02 6.229 22.449 11.032 39.913 19.559 57.652 17.536 36.65 63.366 27.252 98.209 12.477.85-3.033 1.747-6.02 2.735-9.076 5.745-18.13 11.905-35.708 18.502-52.758-13.814 12.477-29.327 23.047-48.174 30.607zm1732.8-363.93c-3.585.092-7.125.161-10.526.3 5.125 5.032 9.124 11.006 12.066 17.601a40 40 0 0 1 4.896-3.953 808 808 0 0 0-6.436-13.948m251.56-47.266c-9.493-22.977-47.438-57.422-71.549-34.007-24.339 23.691-42.634 57.031-69.134 77.988-36.107 28.377-98.232 18.635-86.97 78.952 8.205 43.935 10.573 93.108 1.172 134.06-8.986 39.316-18.317 95.175-38.842 121.51 6.068-22.288 16.272-80.515 19.123-119.81 1.563-21.508-.875-47.451-4.874-73.554-4.55.092-9.055.185-13.674.322-16.572.345-43.554 24.081-50.794 38.902-20.272 41.246-21.651 79.573-44.336 118.84 18.273-43.911 7.999-83.48 24.662-130.56 5.861-16.613 20.754-30.928 37.992-39.637-9.607-1.425-19.169 2.757-33.326 6.066-60.586 14.407-57.874 62.018-95.129 107.49 35.899-65.879 17.582-109.58 95.473-127.34 25.627-5.814 44.359-8.157 61.183 5.308.367 0 .736 0 1.057-.069 4.413-.321 8.826-.69 13.284-1.011a1409 1409 0 0 0-6.941-35.226c-35.601-4.664-68.422-3.676-104.94 1.839 7.907-3.424 15.584-6.595 23.03-9.283 11.606-4.274 22.892-7.629 34.13-9.559 1.104-2.229 1.771-4.665 2.069-7.308 1.172-12.316-7.952-23.299-20.249-24.517-12.319-1.172-22.822 7.904-24.017 20.244-.437 4.848 1.264 10.639 3.976 15.441-.575-1.08-1.173-2.16-1.701-3.309l-.046-.069c-4.711-9.053-6.849-19.508-5.883-30.354.85-8.18 3.401-15.74 7.308-22.426-1.172.298-2.39.689-3.585 1.102-8.666 3.493-27.144 2.367-35.488-.483 16.388-2.711 40.797-11.419 56.54-19.093.437-.185.851-.369 1.196-.598a54.96 54.96 0 0 1 33.946-7.881c6.252.62 12.136 2.228 17.491 4.802 7.354 2.136 15.56 5.055 25.442 8.616-15.007-31.342-31.947-59.651-52.333-88.052-19.283-26.815-35.487-36.098-63.963-52.919-6.206-3.676-12.274-7.352-18.273-11.212-21.052-3.861-44.518-7.653-64.789-3.792 16.685-6.595 29.258-9.238 43.898-10.455-40.36-28.883-75.157-61.328-114.96-94.831-153.62-129.14-277.92-119.95-473.55-35.042-79.385 34.56-107.79 69.303-156.63 131.8.437 0 .943-.046 1.517-.046 49.69-1.241 99.059-2.941 150.13-7.744-52.816 12.294-103.31 22.105-155.16 29.964-57.229 8.732-74.788 7.284-117.95 49.266-79.523 77.343-146.13 164.78-218.92 243.22-42.13 45.451-63.091 91.017-87.821 142.81-24.524 51.516-21.145 71.024 11.791 115.56 33.625 45.566 53.965 66.2 68.215 106.69 37.187-57.422 81.982-104.99 129.21-162.02-38.567 61.788-73.732 120.18-105.61 183.02-19.858 39.086-29.603 59.007-28.982 102.23 37.279 42.945 60.653 65.855 95.267 75.344 37.279 10.226 72.398 8.525 106.09-8.938 83.821-43.336 163.51-99.932 256.54-107.08 48.037-85.571 34.545-193.2 17.308-290.54-14.274-80.905-10.665-152.23 8.618-233.39 4.827 78.815 11.124 152 26.776 229.25 22.777 113.19 27.58 210.89-20.042 327.85-102.83 2.459-187.2 62.685-278.4 109.31-41.002 20.979-79.363 23.07-125.24 12.178-46.795-11.145-82.65-47.198-130.78-99.886 4.711-39.821 9.928-64.592 24.109-93.843-17.169-51.677-38.452-75.46-77.8-128.33-45.622-61.283-46.404-87.823-11.882-157.61 24.868-50.598 48.173-97.29 87.521-143.43 38.751-45.749 74.376-88.305 110.37-128.54-149.65 22.703-245.17 58.779-347.37 148.42-75.777 66.498-123.06 149.08-156.77 244.44-21.351 60.202-27.35 120.82-17.283 219.21 12.963 126.79 80.328 269.86 152.84 374.22-8.848 64.959-20.318 113.9-38.452 160.32-20.57 52.69 61.251 68.797 100.78 79.62 32.086 8.801 153.99 42.256 166.03-.943 7.193-25.896 7.193-43.956 5.401-71.278 21.719-43.29 28.316-49.081 43.83-74.701 16.593-27.437 17.973-38.374 18.11-70.589.069-41.522-1.011-115.72.736-142.56 5.631 23.989 12.319 57.399 17.881 89.454 86.625 15.487 172.61 14.361 259.21-3.332 1.103-6.043 3.102-12.615 5.333-20.704 5.791-20.266 17.421-40.51 23.281-60.799-1.631 19.967-3.171 39.912-4.78 59.834-1.609 20.543-1.678 37.156.85 57.676 1.402 11.281 2.827 22.518 4.184 33.777-6.275-10.317-16.043-20.244-21.742-30.606-38.545 25.368-59.759 39.729-97.635 59.719-39.991 21.164 5.883 96.876 22.409 123.16 36.314 57.629 79.683 125.94 147.12 90.258 22.133-11.673 35.096-38.741 49.851-58.226 19.812-11.65 124.89-100.25 141.58-109.88 23.582-13.51 108.48-152.6 119.26-187.29 23.719-76.793 51.621-135.25 59.504-215.37-54.08-22.702-80.351-47.955-119.1-93.475 54.449 40.349 101.47 61.926 160.17 80.515a16115 16115 0 0 1 65.457 57.882c32.545 28.998 62.401 58.525 109.61 59.375 51.046.874 108.78-38.143 123.63-86.512 5.701-18.612 11.446-37.27 17.124-55.883a523 523 0 0 1-29.558-8.088c-10.572 25.46-9.744 35.295-14.732 53.998-8.596 31.985-52.633 54.16-98.737 43.038-16.388-3.952-26.041-6.227-31.878-10.455 4.619 12.615 13.652 23.346 30.43 26.379 18.57 3.47 32.292 4.941 59.32-1.171-33.418 17.325-44.151 18.06-67.825 12.752-62.285-13.81-40.358-88.81-26.775-134.65 8.527-28.883 5.654-59.513-.805-88.442 23.581 14.913 42.29 28.056 69.135 37.133 125.77 42.348 275 85.524 401.62 14.82 99.289-55.4 153.74-178.29 165.96-290.83 10.847-100.34-7.929-256.9-49.07-356.39zm-139.81 99.358c-30.913 11.007-50.863-.298-82.373-9.398 30.936 2.942 48.702 7.698 76.421-6.021 51.713-25.551 89.819-67.325 114.48-117.26-15.077 59.582-45.507 110.25-108.53 132.68zm-550.64 187.55c5.7-15.695 13.698-29.872 23.26-42.441 10.916-14.407 23.994-26.839 38.244-37.477-.391-1.449-1.011-2.873-1.632-4.32-7.125-14.844-25.121-21.209-40.037-14.04-14.871 7.054-21.214 24.955-14.135 39.821 1.494 3.033 3.447 5.653 5.745 7.928-8.044-6.457-14.916-14.637-19.651-24.541a73.4 73.4 0 0 1-6.964-30.17c-17.099 13.603-35.693 26.562-54.953 34.03 26.614-23.736 62.814-79.894 89.107-97.519 29.717-20.152 70.077-16.2 104.78-32.284-11.859 10.754-26.983 19.37-42.473 27.711 17.008 6.205 31.717 18.796 40.083 36.352a70.6 70.6 0 0 1 6.527 22.955c23.329-7.583 46.22-11.213 65.573-10.983-69.181 19.369-142.75 64.844-193.48 124.98zm-126.36-191.13c-13.653-68.681 6.298-113.35 112.69-139.98-80.258 38.558-101.01 88.329-112.69 139.98m217.63 461.65c12.527-2.137 35.073-6.71 47.669-8.824-12.205 6.595-34.43 15.763-46.703 22.427-17.192 9.397-21.766 11.007-29.902 28.837-7.676 16.82-15.582 37.248-22.225 54.872 2.482-15.625 5.837-34.904 8.297-50.529 5.263-33.066 9.263-41.108 42.864-46.783m-592.95-432.75c-9.194-58.847-11.1-69.739 15.077-113.72-7.516 3.86-14.64 9.168-24.73 17.831-36.59 31.296-84.35 154.23-103.36 198.26 12.089-52.919 49.966-185.23 88.924-223.81 25.672-25.299 31.51-24.77 67.663-28.193 43.163-4.067 86.12-8.479 129.21-13.374-38.152 14.89-73.064 26.035-110.3 35.432-33.923 44.578-54.677 67.74-62.492 127.58zm-38.474-318.48c36.429-126.91 68.605-146.03 178.05-172.77-96.737 45.635-131.76 79.85-178.05 172.77m8.78-87.317c16.571-54.044 27.074-64.27 82.257-77.505-40.68 25.024-55.895 37.914-82.257 77.505m-872.04 429.51c-73.547 77.804-93.612 122.38-102.76 225.78-12.41-131.37 10.596-160.89 102.76-225.78M49.34 554.064c-28.73 38.098-38.176 55.699-48.288 102.18-4.275-56.365 1.769-69.693 48.288-102.18"/><path fill="#feeb50" d="M2270.6 722.96c-12.227 112.55-66.676 235.43-165.96 290.83-126.62 70.704-275.85 27.528-401.64-14.798-26.845-9.099-45.531-22.242-69.112-37.155 6.459 28.929 9.332 59.559.805 88.442-13.583 45.842-35.509 120.84 26.776 134.65 23.673 5.308 34.406 4.573 67.824-12.752-27.028 6.112-40.749 4.641-59.32 1.171-16.801-3.033-25.811-13.764-30.43-26.379 5.837 4.228 15.49 6.503 31.855 10.455 46.128 11.122 90.164-11.053 98.76-43.038 4.988-18.681 4.161-28.538 14.733-53.998 9.56 2.918 19.49 5.676 29.557 8.088-5.677 18.635-11.424 37.271-17.124 55.883-14.869 48.369-72.581 87.386-123.63 86.512-47.207-.85-77.063-30.377-109.61-59.375-22.455-19.968-44.06-39.04-65.457-57.882-58.7-18.589-105.72-40.166-160.17-80.515 38.751 45.52 65.021 70.773 119.1 93.475-7.884 80.125-35.786 138.58-59.505 215.37-10.779 34.696-95.681 173.78-119.26 187.29-16.686 9.651-121.77 98.232-141.58 109.88-14.755 19.485-27.718 46.553-49.851 58.226-67.434 35.685-110.8-32.629-147.12-90.258-16.525-26.287-62.4-102-22.409-123.16 37.877-19.99 59.09-34.351 97.634-59.719 5.7 10.362 15.468 20.289 21.743 30.606-1.357-11.259-2.781-22.496-4.184-33.777-2.527-20.52-2.459-37.133-.85-57.676 1.609-19.922 3.149-39.867 4.781-59.834-5.861 20.289-17.49 40.533-23.282 60.799-2.23 8.089-4.229 14.683-5.332 20.704-86.603 17.693-172.58 18.819-259.23 3.332-5.539-32.055-12.227-65.465-17.857-89.454-1.747 26.838-.667 101.03-.736 142.56-.138 32.215-1.517 43.152-18.111 70.589-15.515 25.62-22.111 31.411-43.829 74.725 1.791 27.298 1.791 45.358-5.402 71.254-12.043 43.199-133.95 9.744-166.03.943-39.532-10.823-121.35-26.93-100.78-79.62 18.133-46.415 29.603-95.359 38.451-160.32-72.536-104.37-139.88-247.43-152.84-374.22-10.067-98.391-4.067-159.01 17.284-219.19 33.717-95.383 80.994-177.97 156.77-244.46 102.21-89.638 197.73-125.71 347.37-148.42-36.016 40.235-71.617 82.791-110.37 128.54-39.348 46.14-62.654 92.832-87.545 143.43-34.498 69.784-33.717 96.324 11.906 157.61 39.347 52.872 60.63 76.655 77.799 128.33-14.181 29.251-19.398 54.022-24.11 93.843 48.128 52.688 83.983 88.741 130.75 99.886 45.899 10.892 84.235 8.801 125.26-12.156 91.175-46.645 175.57-106.87 278.4-109.33 47.623-116.96 42.819-214.66 20.042-327.85-15.651-77.253-21.95-150.44-26.776-229.23-19.282 81.136-22.892 152.46-8.618 233.36 17.238 97.336 30.729 204.96-17.307 290.54-93.038 7.146-172.72 63.742-256.54 107.08-33.695 17.463-68.814 19.164-106.09 8.938-34.613-9.489-57.987-32.399-95.266-75.344-.621-43.223 9.125-63.144 28.982-102.23 31.878-62.846 67.044-121.23 105.61-183.02-47.232 57.031-92.026 104.62-129.21 162.02-14.273-40.488-34.59-61.122-68.215-106.69-32.936-44.532-36.315-64.04-11.791-115.56 24.73-51.793 45.668-97.359 87.798-142.81 72.788-78.447 139.42-165.88 218.94-243.22 43.163-41.982 60.723-40.534 117.95-49.266 51.852-7.835 102.35-17.67 155.16-29.964-51.07 4.803-100.44 6.503-150.13 7.767-.575 0-1.08.023-1.517.023 48.839-62.5 77.247-97.243 156.63-131.8 195.64-84.904 319.93-94.094 473.55 35.065 39.808 33.48 74.605 65.925 114.96 94.831-14.64 1.194-27.213 3.837-43.898 10.432 20.271-3.861 43.737-.069 64.79 3.792 5.999 3.86 12.043 7.536 18.273 11.212 28.476 16.821 44.679 26.104 63.963 52.919 20.386 28.401 37.325 56.71 52.332 88.052-9.882-3.561-18.11-6.48-25.441-8.616-5.356-2.574-11.24-4.182-17.491-4.802a54.96 54.96 0 0 0-33.947 7.881c-.345.229-.759.413-1.195.598-15.744 7.674-40.153 16.382-56.54 19.093 8.343 2.85 26.822 3.976 35.487.483 1.195-.413 2.413-.804 3.585-1.079-3.907 6.686-6.458 14.223-7.308 22.403-.966 10.846 1.172 21.301 5.883 30.354l.046.069c.529 1.149 1.126 2.229 1.701 3.309-2.712-4.802-4.413-10.593-3.976-15.441 1.195-12.34 11.699-21.416 24.018-20.244 12.296 1.218 21.42 12.201 20.249 24.517-.3 2.643-.965 5.079-2.069 7.308-11.239 1.93-22.524 5.285-34.131 9.559-7.47 2.688-15.123 5.859-23.03 9.283 36.521-5.515 69.342-6.503 104.94-1.839a1409 1409 0 0 1 6.941 35.226c-4.458.321-8.871.69-13.284 1.011-.322.069-.689.069-1.057.069-16.847-13.465-35.556-11.122-61.183-5.308-77.891 17.762-59.573 61.466-95.496 127.34 37.279-45.474 34.545-93.085 95.152-107.49 14.157-3.286 23.719-7.491 33.326-6.066-17.238 8.709-32.131 23.024-37.991 39.637-16.687 47.082-6.391 86.651-24.662 130.56 22.685-39.27 24.063-77.597 44.312-118.84 7.264-14.821 34.245-38.557 50.794-38.902 4.642-.115 9.148-.23 13.698-.322 3.999 26.103 6.413 52.046 4.872 73.554-2.849 39.292-13.054 97.519-19.122 119.81 20.525-26.333 29.856-82.192 38.819-121.51 9.424-40.947 7.056-90.12-1.149-134.06-11.285-60.317 50.863-50.551 86.971-78.952 26.499-20.957 44.794-54.297 69.134-77.988 24.11-23.415 62.055 11.03 71.549 34.007 41.139 99.495 59.917 256.05 49.069 356.39zM1073 341.62c-36.152 3.423-41.991 2.894-67.664 28.193-38.957 38.581-76.834 170.89-88.923 223.81 19.007-44.027 66.768-166.96 103.36-198.26 10.09-8.663 17.215-13.971 24.731-17.831-26.202 43.98-24.294 54.872-15.078 113.72 7.815-59.835 28.569-82.974 62.492-127.58 37.234-9.397 72.146-20.519 110.3-35.432-43.094 4.895-86.051 9.307-129.21 13.374zm520.44 624.82c8.136-17.83 12.71-19.44 29.901-28.837 12.274-6.664 34.498-15.832 46.703-22.427-12.596 2.114-35.142 6.687-47.669 8.824-33.601 5.675-37.6 13.717-42.863 46.783-2.46 15.625-5.839 34.927-8.298 50.529 6.642-17.624 14.549-38.052 22.226-54.872m-188.7-504.09c11.676-51.654 32.43-101.42 112.69-139.98-106.39 26.632-126.34 71.302-112.69 139.98m254.27 77.138c-.828-7.675-2.966-15.464-6.528-22.955-8.366-17.556-23.075-30.147-40.083-36.352 15.491-8.341 30.614-16.957 42.474-27.711-34.706 16.084-75.065 12.132-104.78 32.284-26.293 17.625-62.493 73.783-89.108 97.519 19.261-7.468 37.854-20.427 54.954-34.03a73.4 73.4 0 0 0 6.964 30.17c4.735 9.904 11.607 18.084 19.651 24.541-2.299-2.275-4.274-4.895-5.746-7.928-7.102-14.866-.736-32.767 14.135-39.821 14.916-7.169 32.912-.804 40.014 14.04.644 1.447 1.264 2.871 1.655 4.32-14.249 10.638-27.327 23.07-38.244 37.477-9.562 12.569-17.56 26.746-23.26 42.441 50.725-60.134 124.3-105.61 193.48-124.98-19.351-.23-42.243 3.4-65.571 10.983zm416.78-88.972c-27.718 13.719-45.484 8.963-76.42 6.021 31.51 9.1 51.459 20.405 82.373 9.398 63.021-22.427 93.451-73.093 108.53-132.68-24.663 49.931-62.769 91.705-114.48 117.26zm-104.25-18.772c-2.942-6.595-6.942-12.569-12.067-17.601 3.401-.115 6.918-.208 10.527-.3a801 801 0 0 1 6.435 13.948 40 40 0 0 0-4.895 3.953m-1707.5 377.25c-34.843 14.775-80.672 24.173-98.208-12.477-8.55-17.739-13.355-35.203-19.56-57.652-57.321-59.468 28.454-137.94 75.157-166.02-6.78 14.522-11.562 25.575-14.871 36.857-14.181 49.127 6.435 92.832-38.129 128.42 20.96 42.279 19.972 59.1 68.674 39.637 18.824-7.56 34.36-18.13 48.174-30.607-6.596 17.05-12.756 34.628-18.502 52.758a239 239 0 0 0-2.735 9.076zm-36.314-184.05c.781-6.044 1.724-11.811 3.264-17.257.781-2.781 1.447-5.537 2.298-8.272 11.86 6.962 15.031 19.485 16.319 36.351-7.079-7.054-12.757-11.856-21.881-10.822m29.488 561.26c4.85-13.074 9.744-26.057 14.618-39.131 26.407 91.291 71.432 181.04 121.26 256.44v1.424c-3.171 12.937-6.756 25.507-14.34 35.64-35.648 47.679-126.27-22.244-152.54-49.036-28.706-29.319-47.898-63.925-52.426-96.485-3.332-23.713-.115-24.287 16.434-41.084 22.34-22.611 44.657-45.245 66.997-67.763zm1170.9 148.74c14.549-45.864 30.546-85.8 42.382-128.17 5.47 17.715 9.837 35.294 17.744 54.021 13.192 31.411 19.673 50.897 20.708 84.559.988 35.547 1.977 71.141 2.942 106.66 11.354 19.968 13.169 24.173 11.17 46.944-4.114 46.439-19.605 49.541-60.424 48.783-18.571-.253-92.325-.713-111.08-2.275-26.455-2.298-41.325-4.618-49.393-10.639 41.531-30.607 112.23-156.5 125.95-199.89z"/><path fill="#fdf7ba" d="M1913.8 470.13q-.448 3.964-1.999 7.377c-11.262 1.952-22.478 5.261-34.085 9.466-1.862-1.93-3.447-4.503-4.804-7.238-.874-1.769-1.609-3.562-2.115-5.446-.045-.183-.114-.344-.161-.528-.666-2.596-.988-5.17-.758-7.56 1.173-12.339 11.676-21.393 24.018-20.243a22.4 22.4 0 0 1 12.021 4.986c5.401 4.573 8.618 11.627 7.883 19.186m-332.85 112.75c-2.759 2.389-5.494 4.803-8.137 7.376-6.39 6.181-12.388 12.799-17.859 19.922-7.308-2.919-13.652-8.318-17.329-15.9-6.206-12.822-2.229-27.942 8.665-36.352 1.425-1.011 2.941-1.976 4.574-2.735 14.892-7.169 32.889-.804 40.014 14.063.62 1.424 1.241 2.826 1.609 4.251a213 213 0 0 0-10.413 8.341c-.367.322-.735.712-1.124 1.034m-300.9-421.76c-6.114 59.651 4.482 89.707 40.474 152.9-47.37-49.013-75.777-67.856-117.95-70.452 5.838-1.31 11.607-2.573 17.513-3.907-51.046 4.803-100.44 6.503-150.1 7.768-.575 0-1.104.045-1.517.045 48.84-62.523 77.248-97.266 156.63-131.82 82.741-35.892 152.68-58.181 217.49-62.294-70.606 19.876-155.53 37.983-162.54 107.77zM699.58 743.48c-20.34 34.168-23.834 63.351-29.373 101.1-5.631-7.353-11.583-15.166-18.18-24.105-32.913-44.508-36.314-64.04-11.767-115.56 24.73-51.793 45.667-97.335 87.797-142.81 72.789-78.447 139.4-165.88 218.92-243.22 27.603-26.816 44.749-35.87 68.421-41.223-81.477 81.687-128.94 147.04-183.62 245.29-41.715 74.701-88.486 146.78-132.2 220.52zm-29.419-172.84c-109.7 36.191-178.65 65.718-258.45 158.87-127.67 148.9-104.05 328.42-69.227 505.47-30.798-69.072-53.574-141.96-60.56-210.16-10.091-98.392-4.093-159.01 17.282-219.19 33.717-95.383 80.972-177.94 156.75-244.46 102.21-89.615 197.75-125.71 347.37-148.42-35.994 40.235-71.618 82.813-110.34 128.54-8.32 9.744-15.789 19.509-22.823 29.343z"/><path fill="#edd749" d="M2270.6 722.96c-12.227 112.55-66.676 235.43-165.96 290.83-126.62 70.704-275.85 27.528-401.64-14.821-9.906-3.331-18.709-7.284-27.075-11.626 140.18 35.57 288.65 70.588 415.84-12.179 117.54-76.471 142.24-236.68 145.56-363.54 2.505-96.784-22.686-184.65-44.382-278.27 12.94 8.64 24.041 22.198 28.593 33.204 41.139 99.495 59.917 256.04 49.069 356.39zm-194.83-272.45c-25.191 12.454-42.244 9.674-68.307 6.848l-1.632-.276c11.606-8.295 19.742-4.619 33.372-8.778 16.387-5.124 32.43-11.397 47.944-21.025 30.706-19.048 46.633-41.981 65.388-69.187 8.526-12.569 22.018-15.763 35.809-22.059-1.541 3.079-3.034 6.112-4.574 9.214-24.639 44.578-60.493 81.779-108 105.26zm-104.25-18.773c-2.942-6.595-6.942-12.569-12.067-17.602 3.401-.137 6.918-.207 10.527-.298a797 797 0 0 1 6.435 13.948 40 40 0 0 0-4.895 3.952m-11.608 63.052a1407 1407 0 0 1 6.941 35.225c-4.458.322-8.871.689-13.284 1.011-.322.069-.689.069-1.057.069-1.241-.987-2.505-1.7-3.769-2.528-.046-9.42-1.402-18.864-7.125-28.332-18.686-3.745-37.372-6.18-56.263-7.077 25.004-2.045 49.091-1.678 74.557 1.632m-95.68-2.069c-8.848-14.361-10.09-34.581-12.02-47.656-8.803-5.584-14.618-7.399-18.985-19.21-.115-.39 1.241-.367 3.356-.16-.666.115-1.426.298-2.069.413 8.343 2.849 26.822 3.975 35.487.483 1.195-.414 2.413-.805 3.585-1.103-3.907 6.686-6.458 14.246-7.308 22.427-.966 10.845 1.172 21.3 5.883 30.354l.046.069c.529 1.148 1.126 2.228 1.701 3.308-2.712-4.802-4.413-10.593-3.976-15.441 1.195-12.339 11.699-21.416 24.018-20.244 12.296 1.218 21.42 12.202 20.249 24.495-.3 2.666-.965 5.101-2.069 7.33-11.239 1.93-22.524 5.285-34.131 9.559a321 321 0 0 0-13.767 5.376m-143.9 35.961c.92-.206 1.862-.459 2.781-.643-.345.184-.69.368-1.011.552-.598 0-1.172.068-1.77.091m205.86-130.15c-4.62-.436-9.147-.092-13.561.575-3.193-54.734-53.62-131.09-107.33-137.52-29.533-3.652-43.301-4.641-80.212 5.768 34.981-32.858 16.778-44.853.298-68.084-27.81-39.407-65.319-71.37-102.78-102.55 24.845 14.247 50.058 32.077 76.098 53.975 39.808 33.48 74.605 65.948 114.96 94.831-14.64 1.218-27.213 3.86-43.898 10.455 20.271-3.86 43.737-.069 64.79 3.791 5.999 3.861 12.043 7.538 18.273 11.214 28.476 16.82 44.679 26.103 63.963 52.919 20.386 28.401 37.325 56.71 52.332 88.051-9.882-3.561-18.11-6.479-25.441-8.616-5.356-2.574-11.24-4.182-17.491-4.803zm-273.32 55.562c.414-.184.942-.46 1.31-.644-2.804 4.894-7.056 12.776-12.388 18.176 21.329 20.243 32.177 34.123 40.037 61.788-7.515 1.631-15.123 3.561-22.845 6.066a70.6 70.6 0 0 0-6.528-22.955c-8.366-17.555-23.075-30.147-40.083-36.352 14.687-7.904 28.936-16.13 40.497-26.079m-112.02 177.83c-24.823-13.994-31.926-25.735-44.773-52.872-15.675 4.136-30.522 8.065-43.462 3.308 3.654.046 6.688-.436 9.654-1.309-.437.391-.874.85-1.311 1.217 19.261-7.468 37.854-20.427 54.954-34.03a73.36 73.36 0 0 0 6.964 30.17c4.735 9.903 11.607 18.084 19.651 24.54-2.299-2.274-4.274-4.893-5.746-7.927-7.102-14.866-.736-32.767 14.135-39.821 14.916-7.192 32.912-.804 40.014 14.04.644 1.448 1.264 2.873 1.655 4.319-14.249 10.64-27.327 23.071-38.244 37.478-4.966 6.502-9.471 13.511-13.491 20.887m-125.22-106.3c-6.687-23.828-10.159-47.173-9.422-69.532 11.537-47.656 32.796-93.337 103.33-129.71-58.102 40.602-99.105 120.89-93.911 199.24zm-17.582 796.33c-10.779 34.697-95.681 173.78-119.26 187.29-16.686 9.629-121.77 98.232-141.58 109.88-14.755 19.485-27.718 46.554-49.851 58.226-67.434 35.685-110.8-32.628-147.12-90.257-4.482-7.124-11.124-17.993-17.652-30.332 29.121 25.529 61.206 50.874 96.118 33.388 29.212-14.637 33.602-30.608 49.507-59.422 37.348 5.262 58.47 17.004 88.716-6.319 42.06-32.445 79.501-65.028 116.6-102.53 22.042-22.128 32.016-37.914 44.45-66.591 29.579-67.969 54.081-159.54 69.434-236.63-22.018-45.221-36.82-57.906-45.692-101.79 36.935 43.061 63.343 67.67 115.84 89.706-7.884 80.125-35.786 138.58-59.505 215.37zm-57.482-310.87c6.871 6.411 14.043 12.477 21.283 18.451a634 634 0 0 1-20.479-14.315c-.276-1.401-.528-2.711-.804-4.136m-207.56 109.68c-158.33 51.839-258.82 124.45-362.64 31.64 10.113 5.262 20.478 9.353 31.464 11.995 45.899 10.891 84.259 8.8 125.26-12.178 91.175-46.623 175.57-106.85 278.4-109.31 47.623-116.96 42.819-214.66 20.042-327.85-13.606-67.096-20.133-131.14-24.777-198.46.506-3.814 1.082-7.628 1.586-11.443 28.202 132.31 68.653 259.28 86.235 393.59 11.354 87.294 12.641 129.16-31.327 204.5-47.989-3.079-77.845 2.298-124.25 17.51zm-95.634-536.38c-1.655-28.101-7.631-56.02-9.194-84.146-36.842-12.224-39.37 20.75-52.471 48.806-34.039 72.266-70.123 126.72-129.38 190.65 37.67-61.558 62.309-120.61 86.649-185.43 23.166-54.987 58.309-134.54 86.762-158.89 10.09-8.663 17.215-13.971 24.731-17.832-26.202 43.981-24.294 54.872-15.078 113.72 7.815-59.835 28.569-82.997 62.492-127.57 32.361-8.158 63.068-17.785 95.567-29.94 18.732-2.206 37.486-4.459 56.195-6.757-130.32 55.401-186.4 114.94-206.28 257.4zm27.993 643.39c-15.513 29.389-24.132 50.574-29.993 75.69.506-6.641 1.058-13.281 1.586-19.923-5.861 20.29-17.49 40.534-23.282 60.801-2.23 8.088-4.229 14.66-5.332 20.703-86.603 17.693-172.58 18.796-259.21 3.332-.346-1.93-.713-3.906-1.058-5.882.184-2.575.322-5.125.528-7.652 83.316 0 171.27-4.711 247.58-39.614 21.49-32.4 42.842-58.916 69.18-87.455zm-334.85 193.7c-.138 32.215-1.517 43.153-18.111 70.566-15.515 25.644-22.111 31.434-43.829 74.725 1.791 27.321 1.791 45.382-5.402 71.278-12.043 43.199-133.95 9.743-166.03.942-16.479-4.527-40.221-9.996-60.93-18.589 52.265 5.629 133.26 16.245 139.49-30.814 2.024-15.51 1.035-28.63-2.528-49.656 41.44-16.636 77.708-47.656 107.2-81.779 39.348-76.677 36.061-134.01 50.196-219.69 2.161 19.508 4.344 39.039 6.504 58.571.782 6.571 1.563 13.12 2.367 19.692-2.803-13.878-5.607-26.838-8.181-37.799-1.747 26.838-.667 101.04-.736 142.56zm-103.84-512c-14.847-29.734-15.859-46.99-14.526-74.427 1.701 2.391 3.379 4.78 5.241 7.285 39.347 52.872 60.63 76.654 77.799 128.33-5.976 12.316-10.297 23.851-13.721 36.053-18.892-32.215-38.176-64.04-54.793-97.243zm-400.42 482.03c-1.701-1.7-3.218-3.492-4.827-5.238 27.029.367 52.219 2.067 79.937 6.318 14.986-19.209 19.835-29.343 26.409-52.849-35.004-53.975-52.586-94.348-70.79-153.31.092-.092.161-.16.253-.23 4.85-13.074 9.744-26.057 14.618-39.132 26.407 91.27 71.432 181.04 121.26 256.44v1.402c-3.171 12.96-6.756 25.529-14.34 35.662-35.648 47.656-126.27-22.266-152.52-49.059zm37.808-582.52c-34.843 14.752-80.672 24.173-98.208-12.477-8.091-16.82-12.849-33.525-18.618-54.297-5.492-62.086 11.584-83.089 55.299-113.05-5.769 41.222 4.527 78.125-34.084 108.96 20.96 42.28 19.972 59.1 68.674 39.637 18.824-7.56 34.36-18.152 48.174-30.607-6.596 17.05-12.756 34.628-18.502 52.758a239 239 0 0 0-2.735 9.076m-36.314-184.06c.781-6.066 1.724-11.833 3.264-17.256.781-2.78 1.447-5.537 2.298-8.272 11.86 6.963 15.031 19.462 16.319 36.352-7.079-7.055-12.757-11.857-21.881-10.824m1242.8 581.81c5.47 17.739 9.837 35.317 17.744 54.045 13.192 31.411 19.673 50.896 20.708 84.559.988 35.547 1.977 71.117 2.942 106.66 11.354 19.945 13.169 24.173 11.17 46.944-4.114 46.439-19.605 49.541-60.424 48.783-18.571-.253-92.325-.712-111.08-2.275-26.455-2.298-41.303-4.619-49.393-10.639 41.531-30.607 112.23-156.5 125.95-199.89 14.549-45.888 30.546-85.8 42.382-128.2zm248.2-676.36c-77.799 42.004-151.94 84.949-191.84 164.66 0-16.82 2.988-32.009 8.067-45.842 49.139-56.295 118-99.127 183.78-118.82zm-147.09 488.01-.346.552c.207-.69.368-1.264.552-1.931-.069.437-.115.942-.206 1.379m51.643-80.791c10.504-5.722 28.223-13.235 40.819-19.416-41.371 29.411-63.206 53.677-90.9 97.794 6.183-16.337 13.261-34.375 20.18-49.563 8.136-17.809 12.71-19.417 29.901-28.815m48.036-24.586c-1.241.85-2.321 1.677-3.54 2.527-3.723.666-8.021 1.448-12.664 2.321a908 908 0 0 1 16.204-4.848m98.806 201.38c4.988-18.704 4.161-28.538 14.733-53.998a523 523 0 0 0 29.557 8.089c-5.677 18.612-11.424 37.27-17.124 55.882-11.606 37.776-49.345 69.762-89.635 81.573.298-5.998-2.391-12.478-11.285-20.014 8.733-2.183 18.732-6.411 32.889-13.742-27.028 6.113-40.749 4.642-59.32 1.172-16.801-3.032-25.811-13.763-30.43-26.378 5.837 4.205 15.49 6.503 31.855 10.454 46.128 11.122 90.164-11.052 98.76-43.038"/></svg>