<svg xmlns="http://www.w3.org/2000/svg" viewBox="0 0 39.411 39.281"><path fill="#f7931e" d="M39.39 23.727c-1.132 6.118-6.07 11.464-11.782 14.466-.715.375-1.001.589-1.807.64h11.597a1.95 1.95 0 0 0 2.013-1.946v-13.16z"/><path fill="#ffce00" d="M26.748 38.484q-.352.026-.705 0z"/><path fill="#8427e0" d="M15.198 11.923q-.261.214-.53.401C11.733 14.391 2.771 21.089.742 18.205c-1.99-2.83.106-10.857 5.265-14.72.098-.078.197-.147.298-.219 5.603-3.935 9.793-3.391 11.819-.505 1.903 2.706-.227 6.948-2.926 9.162"/><path fill="#00b5ff" d="M37.103 18.121c-2.773 1.948-7.148-.325-9.315-3.11a5 5 0 0 1-.246-.342c-2.064-2.938-8.763-11.9-5.879-13.927s11.163.188 14.94 5.564c.083.118.164.246.246.352 3.66 5.44 3.083 9.48.254 11.464"/><path fill="#ffbd00" d="M33.393 35.801a7 7 0 0 1-.29.215c-5.603 3.944-9.793 3.39-11.82.508-1.9-2.711.225-6.946 2.924-9.162.172-.145.352-.28.532-.406 2.936-2.063 11.898-8.76 13.924-5.879 1.99 2.83-.106 10.862-5.27 14.725"/><path fill="#e3006d" d="M17.751 38.541c-2.884 2.023-11.163-.188-14.94-5.564q-.115-.162-.223-.325c-3.685-5.442-3.104-9.504-.279-11.49 2.77-1.948 7.148.322 9.312 3.11q.135.169.246.342c2.073 2.938 8.77 11.9 5.884 13.927"/><path fill="#9327ff" d="M15.198 11.923c-4.006 1.76-12.5 5.422-13.776 2.486-1.07-2.464.912-7.512 4.587-10.924.098-.078.197-.147.298-.219 5.6-3.936 9.79-3.391 11.816-.505 1.903 2.706-.226 6.948-2.925 9.162"/><path fill="#00c8ff" d="M37.104 18.121c-2.773 1.948-7.148-.325-9.314-3.11-1.802-4.109-5.233-12.24-2.362-13.485C28.016.404 33.436 2.635 36.84 6.658c3.67 5.44 3.094 9.48.264 11.463"/><path fill="#ffce00" d="M33.393 35.801a7 7 0 0 1-.29.215c-5.603 3.944-9.793 3.39-11.82.508-1.9-2.711.225-6.946 2.924-9.162 4.003-1.762 12.502-5.422 13.778-2.49 1.07 2.468-.912 7.516-4.592 10.93"/><path fill="#fb006d" d="M13.982 37.759c-2.578 1.12-7.984-1.102-11.39-5.107-3.69-5.442-3.108-9.504-.284-11.49 2.77-1.948 7.148.322 9.312 3.11 1.805 4.111 5.233 12.24 2.362 13.487"/></svg>