<svg viewBox="0 0 215.45 215.54" xmlns="http://www.w3.org/2000/svg"><defs><linearGradient id="prefix__a" x1="210.81" x2="48.3" y1="137.39" y2="194.93" gradientUnits="userSpaceOnUse"><stop stop-color="#ee376d" stop-opacity="0" offset="0"/><stop stop-color="#e9376d" stop-opacity=".06" offset=".14"/><stop stop-color="#db386e" stop-opacity=".22" offset=".37"/><stop stop-color="#c6396f" stop-opacity=".48" offset=".68"/><stop stop-color="#ab3b70" stop-opacity=".8" offset="1"/></linearGradient><linearGradient id="prefix__b" x1="27.66" x2="75.1" y1="184.68" y2="25.19" gradientUnits="userSpaceOnUse"><stop stop-color="#65c9d3" stop-opacity="0" offset="0"/><stop stop-color="#65c9d3" offset="1"/></linearGradient><linearGradient id="prefix__c" x1="39.18" x2="167.4" y1="53.63" y2="53.63" gradientUnits="userSpaceOnUse"><stop stop-color="#ffca04" stop-opacity="0" offset="0"/><stop stop-color="#ffca04" stop-opacity=".07" offset=".1"/><stop stop-color="#ffca04" stop-opacity=".25" offset=".31"/><stop stop-color="#ffca04" stop-opacity=".54" offset=".59"/><stop stop-color="#ffca04" stop-opacity=".94" offset=".95"/><stop stop-color="#ffca04" offset="1"/></linearGradient></defs><g style="isolation:isolate"><path d="M158.9 98.261q-1.93 4.6-4.3 9a107.64 107.64 0 00-70.49-40.25 110.8 110.8 0 00-14.2-.93 107.32 107.32 0 00-68.67 24.76 107.84 107.84 0 01144.55-83.89 110.08 110.08 0 0112.26 5.54v.08a109.29 109.29 0 015.63 15.91 107.27 107.27 0 01-4.78 69.78z" fill="#ffcc06"/><path d="M145.79 208.601a107.84 107.84 0 01-144.57-84A110.22 110.22 0 010 113.171a107.8 107.8 0 0174-44.47c3.29-.44 6.56-.71 9.82-.83a107.78 107.78 0 0062 140.73z" fill="#65c9d3"/><path d="M215.45 107.781a107.49 107.49 0 01-39.1 83c-4.12 3.42-8.83 6.94-11 8A108.49 108.49 0 0190 156.591c-2-2.64-3.89-5.38-5.64-8.22a107.8 107.8 0 0093.33-106.79 108.62 108.62 0 00-1.32-16.84 107.56 107.56 0 0139.08 83.04z" fill="#ee376d"/><path d="M215.44 107.77a107.54 107.54 0 01-39.09 83.05c-4.12 3.41-8.83 6.92-11 8A108.51 108.51 0 0190 156.58q-3-4-5.65-8.22A107.77 107.77 0 00214.07 91l.06-.12a109.11 109.11 0 011.31 16.89z" fill="url(#prefix__a)" style="mix-blend-mode:multiply" transform="translate(0 .011)"/><path d="M50 141a108.09 108.09 0 0019.73 67.69A107.68 107.68 0 010 112.26c0 .28.05.57.08.85A107.26 107.26 0 0160 71.47a109.61 109.61 0 0114-2.78q4.94-.64 9.82-.83A108.09 108.09 0 0050 141z" fill="url(#prefix__b)" style="mix-blend-mode:multiply" transform="translate(0 .011)"/><path d="M158.9 98.26q-1.93 4.59-4.3 9A107.66 107.66 0 00107.7 41a109.86 109.86 0 00-12.47-6.83 107.09 107.09 0 00-56-9.6 107.65 107.65 0 01118.82-12.08v.07a108.63 108.63 0 015.62 15.92 107.28 107.28 0 01-4.77 69.78z" fill="url(#prefix__c)" style="mix-blend-mode:multiply" transform="translate(0 .011)"/></g></svg>
