<svg viewBox="0 0 40 40" xmlns="http://www.w3.org/2000/svg"><defs><linearGradient id="prefix__f" x1="24.312" x2="24.312" y1="22.969" y2="41.031" gradientUnits="userSpaceOnUse"><stop stop-color="#fff" offset="0"/><stop stop-color="#fff" stop-opacity="0" offset="1"/></linearGradient><linearGradient id="prefix__e" x1="7.649" x2="41.862" y1="26.437" y2="26.437" gradientTransform="matrix(0 .3705 -.36175 0 33.508 6.167)" gradientUnits="userSpaceOnUse"><stop stop-color="#fff" offset="0"/><stop stop-color="#fff" stop-opacity="0" offset="1"/></linearGradient><linearGradient id="prefix__d" x1="24" x2="24" y1="5" y2="43" gradientTransform="translate(0 1)" gradientUnits="userSpaceOnUse"><stop stop-color="#fff" offset="0"/><stop stop-color="#fff" stop-opacity="0" offset="1"/></linearGradient><linearGradient id="prefix__b" x1="14.049" x2="14.049" y1="44.137" y2="4" gradientTransform="translate(0 .967)" gradientUnits="userSpaceOnUse"><stop stop-color="#2e4a5a" offset="0"/><stop stop-color="#6e8796" offset="1"/></linearGradient><radialGradient id="prefix__c" cx="48.424" cy="-48.028" r="38.213" gradientTransform="matrix(0 1.0262 -1.6561 .00094 -56.097 -45.332)" gradientUnits="userSpaceOnUse"><stop stop-color="#fafafa" offset="0"/><stop stop-color="#e6e6e6" offset="1"/></radialGradient><radialGradient id="prefix__a" cx="9.333" cy="8.45" r="20" gradientTransform="matrix(0 2.0479 -2.7411 0 47.161 -8.837)" gradientUnits="userSpaceOnUse"><stop stop-color="#a3c0d0" offset="0"/><stop stop-color="#427da1" offset="1"/></radialGradient></defs><g transform="translate(-4 -4.967)"><rect x="4.5" y="5.467" width="39" height="39" rx="2.232" ry="2.232" fill="url(#prefix__a)" stroke="url(#prefix__b)" stroke-linecap="round" stroke-linejoin="round"/><path d="M21 6.969a2.017 2.017 0 00-2.031 2.03v3.97h-1.156a2.017 2.017 0 00-1.5 3.375l5.062 5.75c-.063.11-.179.246-.219.343-.196.479-.25.837-.25 1.22v.124l-.093-.093a3.037 3.037 0 00-1.094-.72 2.188 2.188 0 00-.969-.155c-.435.02-1.054.21-1.469.625l-1.53 1.53c-.416.415-.605 1.034-.626 1.47-.02.435.06.721.156.968.194.495.44.816.719 1.094l.094.094h-.125c-.382 0-.74.054-1.219.25-.24.098-.538.215-.844.531s-.625.915-.625 1.531v2.188c0 .616.32 1.215.625 1.53s.605.434.844.532c.478.196.837.25 1.219.25h.125L16 35.5c-.278.278-.525.6-.719 1.094a2.188 2.188 0 00-.156.968c.02.436.21 1.055.625 1.47l1.531 1.53c.415.415 1.034.605 1.47.626.435.02.72-.06.968-.157.494-.194.815-.44 1.094-.718l.093-.094v.125c0 .382.054.74.25 1.219.098.239.215.538.532.843s.914.625 1.53.625h2.188c.617 0 1.215-.32 1.532-.625s.433-.604.53-.843c.197-.479.25-.837.25-1.22v-.124l.095.093c.278.279.599.525 1.093.72.248.096.534.176.97.156.435-.021 1.053-.21 1.468-.626l1.531-1.53c.415-.415.604-1.034.625-1.47.02-.435-.06-.721-.156-.968a3.038 3.038 0 00-.719-1.094l-.094-.094h.125c.383 0 .74-.054 1.22-.25.238-.098.537-.215.843-.531s.625-.915.625-1.531v-2.188c0-.616-.32-1.215-.625-1.53s-.605-.434-.844-.532a3.003 3.003 0 00-1.219-.25h-.125l.094-.094c.278-.278.525-.6.719-1.094.097-.247.177-.533.156-.968-.02-.436-.21-1.055-.625-1.47l-1.531-1.53c-.415-.415-1.033-.605-1.469-.625-.435-.021-.721.059-.969.156-.494.194-.815.44-1.093.718l-.094.094v-.125c0-.382-.054-.74-.25-1.219a2.367 2.367 0 00-.5-.78l4.719-5.313a2.017 2.017 0 00-1.5-3.375H29.03v-3.97a2.017 2.017 0 00-2.03-2.03zm3.313 24.28c.427 0 .75.324.75.75s-.323.75-.75.75c-.428 0-.75-.322-.75-.75s.322-.75.75-.75z" opacity=".05"/><path d="M20.906 8.031a.964.964 0 00-.875.969v5.031h-2.219a.964.964 0 00-.719 1.594l5.782 6.531c-.16.062-.342.095-.438.188-.169.163-.253.323-.312.468-.12.291-.157.567-.157.844v1.656c-.25.09-.482.198-.718.313l-1.188-1.188c-.2-.2-.421-.352-.719-.468a1.32 1.32 0 00-.562-.094c-.233.011-.536.098-.75.312L16.5 25.72c-.214.214-.302.517-.313.75a1.32 1.32 0 00.094.562c.117.297.269.52.469.719l1.187 1.187a7.026 7.026 0 00-.312.72h-1.657c-.277 0-.553.036-.843.155-.146.06-.306.144-.469.313s-.313.464-.313.781v2.188c0 .317.15.612.313.78s.323.254.469.313c.29.12.566.157.843.157h1.657c.09.25.197.483.312.718L16.75 36.25c-.2.2-.352.421-.47.719a1.32 1.32 0 00-.093.562c.011.233.099.536.313.75l1.53 1.531c.215.215.518.302.75.313a1.32 1.32 0 00.563-.094c.298-.117.52-.269.72-.469l1.187-1.187c.236.115.468.223.718.312v1.657c0 .277.038.553.157.843a1.177 1.177 0 001.094.781h2.187c.317 0 .612-.149.781-.312s.253-.323.313-.469c.119-.29.156-.566.156-.843v-1.657c.25-.09.483-.197.719-.312l1.187 1.187c.2.2.422.352.719.47.149.057.33.104.562.093.233-.011.536-.098.75-.313l1.532-1.53c.214-.215.301-.518.312-.75a1.32 1.32 0 00-.094-.563 2.019 2.019 0 00-.468-.72l-1.188-1.187c.115-.235.223-.468.313-.718h1.656c.277 0 .553-.038.844-.157a1.177 1.177 0 00.781-1.094v-2.187c0-.317-.15-.612-.313-.781s-.323-.253-.468-.313a2.162 2.162 0 00-.844-.156H31a7.026 7.026 0 00-.313-.719l1.188-1.187c.2-.2.352-.422.468-.719a1.32 1.32 0 00.094-.562c-.011-.233-.098-.536-.312-.75l-1.532-1.532c-.214-.214-.517-.301-.75-.312a1.32 1.32 0 00-.562.094c-.297.116-.52.269-.719.468l-1.187 1.188a7.026 7.026 0 00-.72-.313v-1.656c0-.277-.036-.553-.155-.843-.06-.146-.144-.306-.313-.47s-.464-.312-.781-.312h-.156l5.656-6.406a.964.964 0 00-.719-1.594h-2.219V9A.964.964 0 0027 8.031h-6a.964.964 0 00-.094 0zm3.406 22.156c1.002 0 1.813.81 1.813 1.813s-.81 1.812-1.813 1.812c-1.002 0-1.812-.81-1.812-1.812s.81-1.813 1.812-1.813z" opacity=".05"/><path d="M21 9v6h-3.188L24 22l6.188-7H27V9zm2.219 14c-.173 0-.281.295-.281.656v2.281A6.234 6.234 0 0021 26.75l-1.625-1.625c-.255-.256-.534-.372-.656-.25l-1.531 1.531c-.123.122-.006.4.25.656l1.625 1.625a6.233 6.233 0 00-.813 1.938H15.97c-.361 0-.656.108-.656.281v2.188c0 .173.295.28.656.28h2.281c.159.697.442 1.352.813 1.938l-1.625 1.625c-.256.256-.373.534-.25.657l1.53 1.53c.123.123.402.006.657-.25L21 37.25c.586.37 1.241.654 1.938.812v2.282c0 .36.108.656.28.656h2.188c.173 0 .282-.295.282-.656v-2.282a6.234 6.234 0 001.937-.812l1.625 1.625c.256.255.534.372.656.25l1.532-1.531c.122-.123.005-.401-.25-.657l-1.625-1.625c.37-.586.654-1.241.812-1.937h2.281c.362 0 .656-.108.656-.281v-2.188c0-.173-.294-.281-.656-.281h-2.281a6.234 6.234 0 00-.813-1.938l1.625-1.625c.256-.255.373-.534.25-.656l-1.53-1.531c-.123-.122-.401-.006-.657.25l-1.625 1.625a6.233 6.233 0 00-1.937-.813v-2.28c0-.362-.109-.657-.282-.657zm1.094 6.219c1.528 0 2.78 1.252 2.78 2.781s-1.252 2.781-2.78 2.781c-1.529 0-2.782-1.252-2.782-2.781s1.253-2.781 2.782-2.781z" fill="url(#prefix__c)"/></g><g fill="none" transform="translate(-4 -4.967)"><rect x="5.5" y="6.5" width="37" height="37" rx="1.365" ry="1.365" opacity=".4" stroke="url(#prefix__d)" stroke-linecap="round" stroke-linejoin="round"/><path d="M28.926 15.467L24 21.177 18.963 15.5H21.5v-6h5v6l2.426-.033z" stroke="url(#prefix__e)" stroke-width=".998"/><path d="M23.438 23.469c-.012.054-.031.1-.031.188v2.28a.482.482 0 01-.375.47 5.722 5.722 0 00-1.781.75.482.482 0 01-.594-.063l-1.625-1.625c-.054-.053-.084-.066-.125-.094l-1.219 1.219c.027.041.04.072.094.125l1.625 1.625a.482.482 0 01.062.594 5.723 5.723 0 00-.75 1.781.482.482 0 01-.469.375h-2.28c-.088 0-.134.02-.188.031v1.75c.054.012.1.031.187.031h2.281a.482.482 0 01.47.375c.145.639.406 1.239.75 1.782a.482.482 0 01-.063.593l-1.625 1.625c-.054.054-.067.084-.094.125l1.219 1.22c.041-.028.071-.041.125-.095l1.625-1.625a.482.482 0 01.594-.062 5.723 5.723 0 001.78.75.482.482 0 01.376.469v2.28c0 .088.02.135.031.188h1.75c.012-.053.031-.1.031-.187v-2.281a.482.482 0 01.375-.47 5.722 5.722 0 001.781-.75.482.482 0 01.594.063l1.625 1.625c.054.054.084.067.125.094l1.219-1.219c-.027-.041-.04-.071-.094-.125l-1.625-1.625a.482.482 0 01-.062-.593 5.723 5.723 0 00.75-1.782.482.482 0 01.468-.375h2.282c.087 0 .133-.02.187-.03v-1.75c-.054-.012-.1-.032-.187-.032h-2.281a.482.482 0 01-.47-.375 5.722 5.722 0 00-.75-1.781.482.482 0 01.063-.594l1.625-1.625c.054-.053.067-.084.094-.125l-1.219-1.219c-.041.028-.071.04-.125.094l-1.625 1.625a.482.482 0 01-.594.062 5.723 5.723 0 00-1.78-.75.482.482 0 01-.376-.468v-2.281c0-.088-.02-.134-.031-.188zm.875 5.281c1.792 0 3.25 1.458 3.25 3.25s-1.458 3.25-3.25 3.25-3.25-1.458-3.25-3.25 1.458-3.25 3.25-3.25z" stroke="url(#prefix__f)"/></g></svg>
