<svg xmlns="http://www.w3.org/2000/svg" viewBox="0 0 24.443 21.91"><path fill="#fd366e" d="M24.443 16.432v5.477H10.752c-3.989 0-7.471-2.203-9.335-5.477q-.407-.715-.707-1.494A11 11 0 0 1 0 11.695v-1.48q.025-.381.075-.754.103-.766.306-1.494C1.661 3.369 5.82 0 10.752 0s9.092 3.369 10.37 7.967h-5.854c-.96-1.499-2.624-2.49-4.516-2.49s-3.555.991-4.517 2.49a5.5 5.5 0 0 0-.669 1.494 5.6 5.6 0 0 0-.202 1.494c0 1.57.65 2.985 1.69 3.983a5.32 5.32 0 0 0 3.698 1.494z"/><path fill="#fd366e" d="M24.443 9.46v5.478h-9.994a5.5 5.5 0 0 0 1.691-3.983 5.6 5.6 0 0 0-.203-1.494z"/></svg>