<svg viewBox="0 0 120.96 120.98" version="1.0" xmlns="http://www.w3.org/2000/svg"><path d="M60.472.005c-5.385 13.203-8.633 21.839-14.629 34.649 3.676 3.896 8.189 8.434 15.516 13.558-7.878-3.241-13.251-6.496-17.267-9.873-7.673 16.01-19.694 38.818-44.09 82.653 19.174-11.07 34.037-17.893 47.889-20.498a35.1 35.1 0 01-.91-8.213l.023-.614c.304-12.284 6.694-21.73 14.264-21.09 7.57.642 13.453 11.126 13.15 23.41-.058 2.312-.318 4.536-.774 6.598 13.702 2.68 28.406 9.488 47.32 20.407-3.73-6.866-7.058-13.056-10.237-18.95-5.008-3.882-10.23-8.934-20.885-14.402 7.323 1.903 12.567 4.099 16.653 6.553C74.173 34.015 71.555 26.019 60.472.005z" fill="#1793d1" fill-rule="evenodd"/></svg>
