<svg xmlns="http://www.w3.org/2000/svg" viewBox="0 0 338.25 392.4"><g transform="translate(-342.9 -187.8)"><path fill="#e1bee7" d="M516.3 308.2c-28.1 0-52.5 15.3-65.7 37.9l51.7 29.8c8.7 5 19.3 5 28 0l51.6-29.8c-13-22.7-37.5-37.9-65.6-37.9"/><path fill="#fafafa" d="m502.3 375.9-51.7-29.8c-6.5 11.2-10.2 24.1-10.2 37.9 0 41.9 33.9 75.8 75.8 75.8S592 425.9 592 384c0-13.8-3.7-26.8-10.2-37.9l-51.6 29.8c-8.5 5-19.2 5-27.9 0"/><path fill="#7b1fa2" d="M676.6 476.6 582 421.9c-13.1 22.7-37.6 37.9-65.7 37.9v120.3c4.5 0 8.9-1.2 12.9-3.5l147.5-85.2s.1 0 .1-.1c5.7-3.2 5.5-11.5-.2-14.7"/><path fill="#4a148c" d="M516.3 459.8c-28.1 0-52.6-15.2-65.7-37.9l-104.2 60.2c2.2 3.9 5.5 7.1 9.4 9.4l147.5 85.2c4 2.3 8.4 3.5 12.9 3.5V459.8z"/><path fill="#7b1fa2" d="M516.3 308.2V187.9c-4.5 0-8.9 1.2-12.9 3.5l-147.5 85.2c-4 2.3-7.2 5.6-9.4 9.4l104.2 60.2c13.1-22.8 37.6-38 65.6-38"/><path fill="#4a148c" d="M676.8 276.6s-.1 0-.1-.1l-147.5-85.2c-4-2.3-8.4-3.5-12.9-3.5v120.3c28.1 0 52.6 15.2 65.7 37.9l94.6-54.6c5.7-3.2 5.9-11.5.2-14.8"/><path fill="#ba68c8" d="M440.5 384c0-13.8 3.7-26.8 10.1-37.9l-104.2-60.2c-2.2 3.9-3.5 8.3-3.5 12.9v170.3c0 4.6 1.2 9 3.5 12.9l104.2-60.2c-6.4-11-10.1-24-10.1-37.8"/><linearGradient id="a" x1="642.41" x2="526.97" y1="526.23" y2="410.8" gradientUnits="userSpaceOnUse"><stop offset="0" stop-color="#1a237e" stop-opacity=".01"/><stop offset="1" stop-color="#1a237e" stop-opacity=".3"/></linearGradient><path fill="url(#a)" d="M582 421.9c-13.1 22.7-37.6 37.9-65.6 37.9-11.2 0-21.9-2.5-31.5-6.8l129.3 74.7 62.6-36.1c5.8-3.3 5.8-11.7 0-15z"/></g></svg>