<svg viewBox="0 0 51.25 25" xmlns="http://www.w3.org/2000/svg"><path d="M51.25 12.5C51.25 5.602 45.577 0 38.624 0c-.64 0-1.298.036-1.938.146-5.406.785-9.034 4.781-11.061 7.847C23.598 4.927 19.97.93 14.564.146A13.86 13.86 0 0012.625 0C5.655 0 0 5.602 0 12.5S5.672 25 12.625 25c.64 0 1.299-.036 1.957-.146 5.406-.803 9.033-4.8 11.06-7.865 2.028 3.066 5.655 7.062 11.062 7.865.64.091 1.298.146 1.956.146 6.917 0 12.59-5.602 12.59-12.5zm-37.308 7.974c-.445.073-.89.092-1.334.092-4.588 0-8.304-3.632-8.304-8.066 0-4.453 3.734-8.066 8.322-8.066.445 0 .89.037 1.334.092 5.103.748 8.215 5.912 9.282 7.974-1.084 2.08-4.214 7.226-9.3 7.974zM37.291 4.525c-5.104.749-8.233 5.913-9.283 7.975 1.05 2.062 4.18 7.226 9.283 7.974.445.055.89.092 1.334.092 4.57 0 8.304-3.614 8.304-8.066 0-4.434-3.716-8.066-8.304-8.066-.445 0-.89.037-1.334.091zM9.065 11.161h7.636v2.403H9.065zm33.083 2.42h-2.575v2.527h-2.468v-2.526H34.53V11.16h2.575V8.635h2.468v2.526h2.575z" clip-rule="evenodd" fill="#008184" fill-rule="evenodd"/></svg>
