<svg xmlns="http://www.w3.org/2000/svg" viewBox="0 0 213 212.57"><path fill="none" d="M205.05 66.07a106.8 106.8 0 0 0-23.61-35.24C125.16 18.17 68.88 88.38 12.61 56.2 8.2 64.42 4.83 73.29 2.69 82.63c67.53 51.52 134.85-61.96 202.36-16.57zm-4.69 90.8c4-7.44 7.15-15.41 9.3-23.78-66.52-51.53-133.04 57.96-199.56 18.72 5.26 11.18 12.41 21.3 21.04 29.95 56.41 11.96 112.81-58.52 169.22-24.88zm-70.81 53.62c5.89-1.3 11.6-3.09 17.08-5.32-5.69 1.38-11.39 3.22-17.08 5.32"/><path fill="#2c7a96" d="M181.44 30.83C162.2 11.77 135.73 0 106.5 0 65.87 0 30.56 22.75 12.61 56.2c56.28 32.18 112.56-38.03 168.83-25.37"/><path fill="#3aa4ca" d="M209.65 133.09c2.18-8.5 3.35-17.41 3.35-26.59 0-13.75-1.8-27.5-7.26-39.02-.04-.07-.07-.15-.11-.22-.37-.78-.96-1.45-1.68-1.92-.06-.04-.12-.08-.19-.12-65.6-42.88-133.99 68.6-201.07 17.42C.93 90.31 0 98.3 0 106.5c0 16.03 3.55 31.22 9.89 44.85.07.15.47.61.61.68 66.39 38.58 132.78-70.38 199.16-18.95z"/><path fill="#7cbbd2" d="M200.36 156.87c-56.41-33.64-112.81 36.84-169.22 24.88 46.91 50.06 138.08 37.29 169.22-24.88"/></svg>