<svg clip-rule="evenodd" fill-rule="evenodd" stroke-linejoin="round" stroke-miterlimit="2" viewBox="0 0 500 525" xmlns="http://www.w3.org/2000/svg"><g color="#000" paint-order="stroke markers fill"><path d="M375 125H250l-.002 400 133.73-94.727L359.996 365l55.635 42.674 84.365-59.758z" fill="#2c2c2c"/><path d="M0 347.92L250 525l15-45 6.34-255L250 177.326V165l-100-40h-25z" fill="#d3506f"/><path d="M125 125l125-42.453 59.406 20.176L290 120l85 5-125 52.326" fill="#a61200"/><path d="M225 50h75L290 0z" fill="#00a67c"/><path d="M250 125V0l-50 25z" fill="#edbb60"/><path d="M383.73 430.273l-32.819-45.613L249.991 525l.002-347.67 165.64 230.35z" fill="#fff"/><path d="M290 418.21V300l42.566 59.107z" fill="#96caf3"/><path d="M250 125h125l-65.594-22.277" fill="#530900"/></g></svg>
