<svg xmlns="http://www.w3.org/2000/svg" viewBox="0 0 313.36 512.64"><path fill="#dd552c" d="M131.736 203.709c13.187-32.608 27.901-65.152 43.688-93.997-23.567-17.504-46.196-55.25-55.493-71.972-3.34 3.793-5.507 8.163-6.49 11.718-8.759 31.625 22.42 69.814-2.693 55.862-20.924-11.627-68.04-37.09-86.012-11.782 20.128 25.862 72.773 90.93 107 110.17z"/><path fill="#f79a23" d="M175.426 109.709c15.298-27.95 31.6-52.428 48.502-70.064 0 0-16.858 24.4-40.936 73.18 14.582 4.016 56.112 12.257 113.96-2.686 1.422-10.512-5.645-22.074-40.864-25.945-22.993-2.525 27.598-54.902-9.052-79.675a46 46 0 0 0-3.485-2.14 45 45 0 0 0-3.912-1.206c-42.803-11.169-48.735 61.41-65.815 45.808-27.6-25.214-45.023-19.322-53.89-9.244 9.297 16.723 31.925 54.468 55.492 71.972z"/><path fill="#d22128" d="M97.306 297.659c9.663-28.946 21.286-61.466 34.426-93.95-34.227-19.241-86.873-84.31-107-110.17-3.593 5.056-6.049 12.108-6.867 21.752-4.39 51.802 49.052 90.153 38.398 97.158-14.092 9.267-42.141-22.261-53.196-2.229 16.023 20.584 48.661 57.777 94.239 87.44z"/><path fill="#dd552c" d="M245.386 185.939c-27.059-9.651 28.276-35.533 46.244-62.991 2.3-3.511 4.676-8.049 5.32-12.805-57.848 14.942-99.378 6.702-113.96 2.686-12.465 25.256-26.859 57.084-41.87 95.458 15.634 6.685 79.47 31.379 169.64 31.507 15.16-39.485-39.69-44.7-65.37-53.855z"/><path fill="#d22128" d="M107.766 302.869c15.9 4.955 68.584 19.756 124.54 17.528 7.517-20.352-20.586-22.338-22.875-38.661-1.772-12.63 73.957 10.614 98.323-35.311a60 60 0 0 0 3.006-6.632c-90.166-.128-154-24.822-169.64-31.507-10.97 28.044-22.255 59.517-33.354 94.583z"/><path fill="#7c297d" d="M107.766 302.869c-7.145 22.57-14.193 46.682-21.035 72.164a1772 1772 0 0 0-7.19 27.643c53.106 17.53 102.01.04 103.67-21.638.013-.172-.019-.3-.008-.465 1.264-22.96-33.15-10.233-32.335-24.038.818-13.906 60.08-.08 78.408-29.895a34 34 0 0 0 3.031-6.244c-55.953 2.228-108.64-12.573-124.54-17.528zM3.068 210.219c-.774 1.403-1.473 3.026-2.068 4.965-10.292 33.45 62.485 78.385 52.582 88.18-8.925 8.826-20.557-11.344-34.9-3.013a22 22 0 0 0-4.805 3.75c-16.222 16.619-.254 64.496 45.77 90.052-10.74 36.062-21.432 76.352-31.9 118.49 3.797-1.33 8.342-2.663 9.473-6.244 1.698-6.982 12.194-49.463 29.235-107.09 0 0 3.11-11.805 8.804-31.255a1998 1998 0 0 1 22.048-70.387c-45.578-29.663-78.216-66.856-94.24-87.44z"/></svg>