<svg xmlns="http://www.w3.org/2000/svg" viewBox="0 -6 79.3 86.942"><path fill="url(#a)" d="M25.8 72.671c-4.5-4.2-5.9-12.8-4-19.1 3.3 4 7.8 5.2 12.5 6 7.2 1 14.3.6 21-2.7l2.4-1.4c.6 1.8.8 3.7.5 5.6-.5 4.5-2.8 8-6.4 10.7-1.4 1.1-3 2-4.5 3-4.6 3.2-5.8 6.8-4 12.1v.6a12 12 0 0 1-5.3-4.6 13 13 0 0 1-2-7c0-1.2 0-2.5-.2-3.7-.4-3-1.8-4.3-4.5-4.4a5.2 5.2 0 0 0-5.4 4.2z"/><path fill="#fff" d="M0 52.471s13.4-6.5 26.8-6.5l10.1-31.3c.4-1.5 1.5-2.5 2.7-2.5 1.3 0 2.4 1 2.8 2.5l10 31.3c16 0 26.9 6.5 26.9 6.5l-22.8-62c-.6-1.8-1.7-3-3.2-3H26c-1.5 0-2.5 1.2-3.2 3z"/><defs><linearGradient id="a" x1="21" x2="64.6" y1="100" y2="79.4" gradientTransform="translate(0 -12.529)" gradientUnits="userSpaceOnUse"><stop offset="0" stop-color="#D83333"/><stop offset="1" stop-color="#F041FF"/></linearGradient></defs></svg>