<svg xmlns="http://www.w3.org/2000/svg" version="1.1" viewBox="0 0 62.431 56.1"><path d="m40.9 18.8h-19.6l3.4 18.4h13.1z" fill="none"/><path d="m2 0c-1.1 0-2 0.9-2 2v0.3l8.5 51.5c0.2 1.3 1.3 2.3 2.7 2.3h40.7c1 0 1.8-0.7 2-1.7l8.5-52.1c0.2-1.1-0.6-2.1-1.7-2.3h-0.3zm35.8 37.2h-13l-3.5-18.4h19.7z" fill="#2684ff"/><linearGradient gradientTransform="translate(0,-532)" gradientUnits="userSpaceOnUse" id="a" x1="64.03" x2="33.009" y1="555.96" y2="580.17"><stop offset=".18" stop-color="#0052CC"/><stop offset="1" stop-color="#2684FF"/></linearGradient><path d="m59.7 18.8h-18.8l-3.2 18.4h-13l-15.3 18.2c0.5 0.4 1.1 0.7 1.8 0.7h40.7c1 0 1.8-0.7 2-1.7z" fill="url(#a)"/></svg>