<svg version="1.1" viewBox="0 0 435.47 455" xmlns="http://www.w3.org/2000/svg"><path d="m218.38 155.61c-37.976 0-68.761 32.16-68.761 71.831s30.785 71.831 68.761 71.831c37.975 0 68.76-32.16 68.76-71.831s-30.785-71.831-68.76-71.831z" fill="#165bff"/><path d="m382.35 455h-168.43c-118.5-2.148-213.92-103.2-213.92-227.5 0-125.64 97.501-227.5 217.77-227.5 118.32 0 214.6 98.573 217.7 221.4l-0.377 184.72c-3.134 27.572-25.51 48.887-52.747 48.887zm-304.11-260.2c14.262-67.124 71.588-117.32 140.14-117.32 79.278 0 143.55 67.138 143.55 149.96 0 0.621 7e-3 1.295 0.014 1.985 0.016 1.437 0.032 2.949-0.014 4.23v142.72h-74.683v-17.334c-20.444 11.698-43.91 18.35-68.863 18.35-68.549 0-125.88-50.195-140.14-117.32 13.654-3.998 23.667-17.096 23.667-32.636 0-15.541-10.013-28.638-23.667-32.637zm-9.473 56.534c12.687 0 22.971-10.744 22.971-23.997s-10.284-23.996-22.97-23.996c-12.687 0-22.972 10.743-22.972 23.996s10.285 23.997 22.971 23.997z" clip-rule="evenodd" fill="#165bff" fill-rule="evenodd"/></svg>
