<svg xmlns="http://www.w3.org/2000/svg" viewBox="0 0 759.06 566.62"><path fill="#fbac30" d="M0 283.31 470.03 0v566.62z"/><path fill="#12b17d" d="m355.8 465.76 114.23-51.8v152.66zM470.03 0v152.66l-114.23-51.8z"/><path fill="#bb255c" d="M355.8 465.76v-364.9l403.26 182.45z"/><path d="M189.01 293.83H164.7l12.16-41.96zm56.54 49.57-45.31-130.19h-46.78L108.15 343.4h42.18l4.42-15.22h44.2l4.42 15.22zm39.87-42.55-26.52-87.63h-42.18l45.31 130.18h46.78l45.31-130.18h-42.18z"/><path fill="#fff" d="M459.45 343.4v-48.6h54.7v-34.35h-54.7v-12.88h55.99v-34.35h-93.2V343.4zm-91.59-130.18h37.2v130.19h-37.2z"/></svg>