<svg xmlns="http://www.w3.org/2000/svg" viewBox="0 0 30.822 31.879"><path fill="#0a094d" d="M18.121 31.265c.193-.768-.524-1.493-1.002-1.014-.59.59-.99.353-.822-.488.1-.505.05-.794-.14-.794-.51 0-.325-.743.291-1.175.324-.227 1.127-.414 1.786-.416s1.377-.131 1.595-.286c.307-.218.236-.247-.313-.128-.39.085-1.028.033-1.418-.115-.536-.204-.907-.172-1.514.131-1.007.503-.988.505-.988-.11 0-.35-.214-.537-.68-.595l-.68-.084.581-.62c.614-.656 1.285-.676 3.094-.091 1.18.381 1.08.007-.192-.708-1.192-.67-2.016-1.602-5.059-5.724-3.24-4.39-3.474-4.951-3.616-8.657L8.926 7.29l-1.68-1.97C6.32 4.237 5.442 3.275 5.294 3.184s-.868-.238-1.6-.325c-1.503-.178-1.597-.393-.773-1.788C3.575-.036 4.43-.164 5.674.659c.436.29.972.518 1.19.51.245-.01.17-.127-.198-.304C6.338.707 6.07.495 6.07.392c0-.3 3.487-.53 4.504-.295 2.106.485 2.787 1.23 3.143 3.44.242 1.503.4 1.803 1.486 2.829.668.631 1.893 1.472 2.722 1.867.828.396 1.99 1.106 2.583 1.578 1.395 1.113 3.583 4.309 4.33 6.323.322.871.718 1.744.88 1.938.435.525-.268.88-1.392.704-.51-.08-1.521-.155-2.249-.166-.728-.01-1.48-.147-1.673-.303-.49-.395-1.783-3.321-2.015-4.56-.412-2.196-1.204-3.008-3.985-4.09-1.998-.778-2.146-.896-3.219-2.57-.983-1.533-1.167-2.688-.419-2.628.765.06.56-.968-.272-1.367-.566-.272-.939-.285-1.62-.06q-.884.292-1.976.045c-.601-.135-1.093-.185-1.093-.112s.615.805 1.366 1.626C9.37 6.993 9.546 7.386 9.348 9.454c-.115 1.202-.07 1.906.137 2.155.17.204.286.473.258.598-.027.124.147.669.388 1.21.24.54.438 1.166.438 1.389s.186.405.414.405c.31 0 .367.15.227.593-.157.494-.125.54.189.28.307-.255.44-.157.719.532l.593 1.466c.138.342.48.681.76.754.284.075.577.454.667.864.089.402.379.965.645 1.25s.564.775.664 1.087c.246.778 1.439 1.577 2.54 1.703.69.079.914.23.915.616 0 .282.138.486.306.455.168-.032.45.117.628.33.177.214.448.389.6.389s0-.297-.342-.66c-.34-.364-.545-.736-.453-.828.091-.091.482.209.867.667.771.916 1.656 1.484 1.912 1.228.091-.09-.365-.624-1.014-1.185-.65-.562-1.092-1.111-.984-1.221.107-.11.491.086.853.436 1.752 1.696 3.17 2.621 4.018 2.621.4 0 .398-.045-.025-.512-.255-.282-.39-.631-.301-.776a.31.31 0 0 0-.1-.425c-.145-.09-.815-1.232-1.49-2.539s-1.452-2.497-1.726-2.643c-.986-.528-.458-.693 2.052-.64l2.551.053 2.2 2.342c1.209 1.288 2.155 2.386 2.101 2.44s-.338-.032-.632-.189c-.733-.392-.805-.365-.646.243.154.589-.179.697-.66.216-.172-.172-.404-.221-.515-.11-.112.112.506.848 1.372 1.635.932.848 1.472 1.522 1.323 1.652-.346.302-5.976-.076-6.67-.448-.307-.164-1.043-.299-1.635-.299-.896 0-1.076.088-1.076.524 0 1.058-.863 2.633-2.02 3.686-.654.595-1.243 1.082-1.309 1.082s-.05-.277.034-.615m1.27-1.72c-.111-.35-.086-.366.12-.078.21.296.338.245.665-.264.223-.347.444-.868.492-1.16.073-.446-.037-.514-.707-.436-.95.112-1.688.47-2.315 1.123-.568.591-.582.769-.064.769.22 0 .6.234.845.52.515.601 1.2.265.964-.473m-.922-.849c.66-.55 1.095-.668 1.095-.298 0 .217-1.164.845-1.533.827-.103-.005.095-.243.438-.529m9.165-3.695c-.09-.146-.282-.265-.428-.265s-.191.12-.101.265.283.264.428.264.191-.119.101-.264m-.815-3.336c.717-.275.458-.628-.343-.467-.434.086-.84.026-.942-.14-.245-.396-.748-.37-.614.033.059.178.396.404.75.503.352.098.661.19.686.205.024.015.233-.046.463-.134m-2.492-1.398c0-.13-.189-.309-.419-.397-.647-.249-.732-.195-.375.236.365.44.794.527.794.16m-3.391-3.261c-.19-.19-.313-.206-.313-.04 0 .353.313.666.49.49.074-.075-.005-.278-.177-.45m.716-.854c-.455-.455-2.177-1.469-2.295-1.35-.08.08-.096.182-.035.228l.873.661c.626.474 1.86.865 1.457.461m1.881-.67c0-.32-.97-.947-1.852-1.196-.597-.168-.57-.107.265.623.932.815 1.587 1.052 1.587.573m-2.597-4.297c-.19-.19-.313-.205-.313-.04 0 .354.313.666.49.49.074-.075-.005-.278-.177-.45m-1.9-1.382c0-.064-.12-.19-.265-.28s-.265-.038-.265.116.119.28.265.28c.145 0 .264-.052.264-.116m-3.553-1.08c-.544-.411-.848-.346-.56.12.096.156.376.279.622.274.393-.007.385-.055-.062-.394M9.51 1.717c0-.145-.126-.264-.28-.264s-.207.119-.117.264.216.265.28.265.117-.12.117-.265m-5.027-.264c0-.146-.268-.263-.595-.26-.482.002-.52.052-.199.26.513.331.794.331.794 0m14.993 21.519c-.097-.097-.176-.35-.176-.562 0-.312.075-.323.397-.056.218.182.396.434.396.562 0 .274-.366.307-.617.056M15.85 18.94c-.504-.423-.818-.868-.698-.99s.338-.008.485.253c.146.262.554.585.906.719s.64.365.64.514c0 .45-.369.312-1.333-.496M.852 2.16l-.853-.31.674-.86c.494-.631.886-.86 1.47-.86.438 0 .75.089.694.198s-.305.645-.554 1.19c-.25.546-.481.983-.516.972-.034-.01-.446-.16-.915-.33"/></svg>