<svg xmlns="http://www.w3.org/2000/svg" viewBox="0 0 159.35 188"><path fill="#f2f1f0" d="M79.68 188c3.06 0 6.07-.85 8.73-2.47l61.97-37.66c5.54-3.37 8.97-9.7 8.97-16.54V56.62c0-6.82-3.43-13.16-8.97-16.54L88.41 2.42c-5.33-3.24-12.15-3.22-17.45 0L8.99 40.1C3.45 43.47 0 49.8 0 56.64v74.7c0 5.76 2.45 11.18 6.55 14.75v.03l64.41 39.43c2.64 1.6 5.66 2.45 8.72 2.45m.65-181.05c1.95 0 4.43 1.21 6.14 2.26l60.76 37.19c3.75 2.28 5.87 8.88 5.87 13.63l-.63 71.3c0 4.75-3.2 9.02-6.95 11.3l-60.4 36.38c-3.43 2.09-6.22 2.09-9.66 0l-61.21-36.47c-3.75-2.28-6.77-6.48-6.77-11.21V57.69c0-4.74 2.73-9.63 6.5-11.92L74.56 9.21c1.7-1.04 3.82-2.26 5.77-2.26"/><path fill="url(#a)" fill-rule="evenodd" d="M87.58 10.532c-2.45-1.5-5.17-2.25-7.9-2.25s-5.45.76-7.9 2.25l-56.13 34.33c-5.02 3.07-8.13 8.82-8.13 15.07v68.1c0 6.23 3.1 12 8.13 15.07l56.13 34.33c2.45 1.5 5.17 2.25 7.9 2.25s5.45-.74 7.9-2.25l56.13-34.33c5.02-3.07 8.13-8.84 8.13-15.07v-68.1c0-6.23-3.1-11.98-8.13-15.07z" clip-rule="evenodd"/><path fill="url(#b)" d="M80.71 8.523h-.09v35.83c0 .17-.09.33-.24.42l-.18.1 42.74 24.68v-.15c0-.17.09-.33.24-.42l27.61-15.94-.03-.05-5.17 2.99v-8.91l-.97-.58v9.5l-9.35-5.4 8.25-4.76-.95-.57-7.78 4.49v-9.17l-.97-.58v9.75l-9.35-5.4 8.46-4.89-.95-.57-8 4.62v-9.42l-.97-.58v10.01l-9.35-5.4 8.68-5.01-.95-.57-8.22 4.74v-9.68l-.97-.58v10.26l-9.35-5.4 8.9-5.14-.95-.57-8.46 4.83v-9.93l-.97-.58v10.51l-9.35-5.4 9.11-5.26-.95-.57-8.65 4.99v-10.19l-.97-.58v10.77l-9.35-5.4 9.33-5.39-.96-.57-8.86 5.12v-10zm54.07 42.9 9.35 5.4-9.35 5.4zm-.97 10.8-9.35-5.4 9.35-5.4zm-9.84-17.04 9.35 5.4-9.35 5.4zm0 12.48 9.35 5.4-9.35 5.4zm-.98 10.8-9.35-5.4 9.35-5.4zm0-12.48-9.35-5.4 9.35-5.4zm-9.84-17.05 9.35 5.4-9.35 5.4zm0 12.49 9.35 5.4-9.35 5.4zm-.97 10.8-9.35-5.4 9.35-5.4zm0-12.49-9.35-5.4 9.35-5.4zm-9.84-17.04 9.35 5.4-9.35 5.4zm0 12.49 9.35 5.4-9.35 5.4zm-.97 10.8-9.35-5.4 9.35-5.4zm0-12.49-9.35-5.4 9.35-5.4zm-9.84-17.04 9.35 5.4-9.35 5.4zm0 12.48 9.35 5.4-9.35 5.4zm-10.82-6.24 9.35 5.4-9.35 5.4zm9.84 17.04-9.35-5.4 9.35-5.4zm0-12.48-9.35-5.4 9.35-5.4zm-.48-11.65-9.36 5.4v-10.8z"/><path fill="url(#c)" d="m123.24 69.732-.3-.17v49.41l.14-.08c.15-.09.34-.09.49 0l27.36 15.8.01-.01-4.91-2.83 5.74-3.31.01-1.13-6.23 3.6v-10.8l6.25 3.61.01-1.12-5.77-3.33 5.81-3.35.01-1.13-6.3 3.64v-10.8l6.32 3.65.01-1.12-5.84-3.37 5.88-3.39.01-1.13-6.37 3.68v-10.8l6.39 3.69.01-1.12-5.91-3.41 5.95-3.43.01-1.13-6.44 3.72v-10.8l6.46 3.73.01-1.12-5.98-3.45 6.02-3.47.01-1.13-6.51 3.76v-10.8l6.53 3.77.01-1.12-6.05-3.49 6.09-3.51.01-1.13-6.58 3.8v-10.8l6.6 3.81.01-1.12-6.12-3.53 5.21-3.01-.03-.05-27.49 15.87c-.21.03-.39.03-.54-.05m10.51 55.02-9.35-5.4 9.35-5.4zm0-12.49-9.35-5.4 9.35-5.4zm0-12.48-9.35-5.4 9.35-5.4zm0-12.49-9.35-5.4 9.35-5.4zm10.82 43.7-9.35-5.4 9.35-5.4zm0-12.48-9.35-5.4 9.35-5.4zm0-12.49-9.35-5.4 9.35-5.4zm0-12.49-9.35-5.4 9.35-5.4zm0-12.48-9.35-5.4 9.35-5.4zm0-23.29v10.8l-9.35-5.4zm-9.84 6.24 9.35 5.4-9.35 5.4zm0 12.49 9.35 5.4-9.35 5.4zm0 12.49 9.35 5.4-9.35 5.4zm0 12.48 9.35 5.4-9.35 5.4zm0 12.49 9.35 5.4-9.35 5.4zm-.98-49.95v10.8l-9.35-5.4zm-9.84 6.25 9.35 5.4-9.35 5.4zm0 12.48 9.35 5.4-9.35 5.4zm0 12.49 9.35 5.4-9.35 5.4zm0 12.49 9.35 5.4-9.35 5.4z"/><path fill="url(#d)" d="M123.18 68.983a.49.49 0 0 0-.24.42v.15l.3.17c.15.09.34.09.49 0l27.49-15.87-.42-.81z"/><path fill="url(#e)" d="M122.94 119.35v-.39l-42.89 24.77.22.13c.15.09.24.25.24.42v35.17l.05-.01v-9.35l8.6 4.96.96-.57-9.07-5.24 9.35-5.4v10.47l.97-.58v-9.9l8.47 4.89.96-.57-8.95-5.16 9.35-5.4v10.32l.97-.58v-9.75l8.34 4.82.96-.57-8.82-5.09 9.35-5.4v10.17l.97-.58v-9.6l8.22 4.74.96-.57-8.69-5.02 9.35-5.4v10.03l.97-.58v-9.45l8.09 4.67.96-.57-8.56-4.94 9.35-5.4v9.88l.97-.58v-9.3l7.96 4.6.96-.57-8.44-4.87 9.35-5.4v9.73l.97-.58v-9.15l5.13 2.96v-.01l-27.39-15.81c-.1-.06-.19-.22-.19-.39zm-42.38 25.77 9.35 5.4-9.35 5.4zm0 23.29v-10.8l9.35 5.4zm9.84-6.25-9.35-5.4 9.35-5.4zm0-12.48-9.35-5.4 9.35-5.4zm.97-10.8 9.35 5.4-9.35 5.4zm0 23.28v-10.8l9.35 5.4zm9.84-6.24-9.35-5.4 9.35-5.4zm0-12.49-9.35-5.4 9.35-5.4zm.97-10.8 9.35 5.4-9.35 5.4zm0 23.29v-10.8l9.35 5.4zm9.84-6.24-9.35-5.4 9.35-5.4zm0-12.49-9.35-5.4 9.35-5.4zm.98-10.8 9.35 5.4-9.35 5.4zm0 23.29v-10.8l9.35 5.4zm9.84-6.25-9.35-5.4 9.35-5.4zm0-12.48-9.35-5.4 9.35-5.4zm11.78-4.56 9.35 5.4-9.35 5.4zm-.97 10.8-9.35-5.4 9.35-5.4zm-9.84-17.04 9.35 5.4-9.35 5.4zm0 12.48 9.35 5.4-9.35 5.4z"/><path fill="url(#i)" d="m123.08 118.88-.14.08v.39c0 .17.09.33.24.42l27.39 15.81.36-.9-27.36-15.8a.53.53 0 0 0-.49 0"/><path fill="url(#j)" d="m14.27 131.73-5.18 3 5.19-2.99z"/><path fill="url(#k)" d="m79.83 143.86.22-.13-42.68-24.64v.17c0 .17-.09.33-.24.42l-.84.48v10.79l-9.35-5.4-1.47.85v10.79l-9.35-5.4-1.47.85v7.96l.97.6v-8.56l9.35 5.4-7.48 4.32.94.58 7.02-4.06v8.38l.97.6v-8.98l9.35 5.4-7.82 4.52.94.58 7.37-4.25v8.79l.97.6v-9.39l9.35 5.4-8.17 4.72.94.58 7.72-4.45v9.2l.97.6v-9.8l9.35 5.4-8.52 4.92.94.58 8.06-4.65v9.62l.97.6v-10.22l9.35 5.4-8.86 5.12.94.58 8.41-4.85v10.03l.97.6v-10.63l9.35 5.4-9.21 5.32.94.58 8.75-5.05v9.46l.05-.01v-35.27c.05-.21.15-.37.3-.45m-53.39-17.47 9.35 5.4-9.35 5.4zm9.84 17.04-9.35-5.4 9.35-5.4zm.98-23.28 9.35 5.4-9.35 5.4zm0 12.48 9.35 5.4-9.35 5.4zm9.84 17.05-9.35-5.4 9.35-5.4zm0-12.49-9.35-5.4 9.35-5.4zm.97-10.8 9.35 5.4-9.35 5.4zm0 12.49 9.35 5.4-9.35 5.4zm9.84 17.04-9.35-5.4 9.35-5.4zm0-12.49-9.35-5.4 9.35-5.4zm.97-10.8 9.35 5.4-9.35 5.4zm0 12.49 9.35 5.4-9.35 5.4zm9.84 17.04-9.35-5.4 9.35-5.4zm0-12.48-9.35-5.4 9.35-5.4zm.98-10.8 9.35 5.4-9.35 5.4zm0 12.48 9.35 5.4-9.35 5.4zm9.84 17.05-9.35-5.4 9.35-5.4zm0-12.49-9.35-5.4 9.35-5.4z"/><path fill="url(#l)" d="m25.09 125.5-.01-.01-9.34 5.4v.01z"/><path fill="url(#m)" d="M35.9 119.25h-.01l-9.34 5.39v.01z"/><path fill="url(#o)" d="m80.27 143.86-.22-.13-.22.13a.49.49 0 0 0-.24.42v35.27l.93-.1v-35.17a.5.5 0 0 0-.25-.42"/><path fill="url(#p)" d="M16.12 131.79v.01l9.35-5.4v-.01z"/><path fill="url(#q)" d="m9.5 135.61.01.01 5.15-2.98v-.01z"/><path fill="url(#r)" d="M36.39 68.483v-.01l-9.34-5.39h-.01z"/><path fill="url(#s)" d="M26.93 125.55h.01l9.34-5.39v-.01z"/><path fill="url(#z)" d="M25.58 62.243v-.02l-9.34-5.39-.01.01z"/><path fill="url(#A)" d="M15.74 130.89V120.1l9.35 5.4 1.47-.85v-10.79l9.35 5.4.63-.36c.15-.09.34-.09.49 0l.35.2V69.61l-.24.14c-.15.09-.34.09-.49 0l-.75-.43-9.34 5.39V63.92l-1.47-.85-9.34 5.39V57.68l-1.47-.85-5.68 3.28-.01 1.13 6.19-3.57v10.8l-6.21-3.58L8.55 66l5.73 3.31-5.76 3.33-.01 1.13 6.26-3.61v10.8l-6.28-3.62-.01 1.12 5.8 3.35-5.84 3.37-.01 1.13 6.33-3.65v10.8l-6.35-3.67-.01 1.12 5.87 3.39-5.91 3.41-.01 1.13 6.4-3.69v10.8l-6.42-3.71-.01 1.12 5.94 3.43-5.98 3.45-.01 1.13 6.47-3.74v10.8l-6.49-3.75-.01 1.12 6.01 3.47-6.05 3.49-.01 1.13 6.54-3.78v10.8l-6.56-3.79-.01 1.12 6.07 3.51zm20.65-12.48-9.35-5.4 9.35-5.4zm0-12.49-9.35-5.4 9.35-5.4zm0-12.48-9.35-5.4 9.35-5.4zm0-23.29v10.8l-9.35-5.4zm-9.84 6.24 9.35 5.4-9.35 5.4zm0 12.49 9.35 5.4-9.35 5.4zm0 12.49 9.35 5.4-9.35 5.4zm-.97 23.28-9.35-5.4 9.35-5.4zm0-12.48-9.35-5.4 9.35-5.4zm0-12.49-9.35-5.4 9.35-5.4zm0-12.49-9.35-5.4 9.35-5.4zm0-23.28v10.8l-9.35-5.4zm-9.84 6.24 9.35 5.4-9.35 5.4zm0 12.49 9.35 5.4-9.35 5.4zm0 12.48 9.35 5.4-9.35 5.4zm0 12.49 9.35 5.4-9.35 5.4z"/><path fill="url(#B)" d="m14.77 55.982-6.18-3.56v.01l6.18 3.57z"/><path fill="url(#C)" d="m36.53 118.88-.63.36h.01l-9.35 5.4v-.01l-1.47.85h.01l-9.35 5.4v-.01l-1.47.85h.01l-5.19 2.99.41.88 5.15-2.97v.01l1.47-.85h-.01l9.35-5.4v.01l1.47-.85h-.01l9.35-5.4v.01l.84-.48a.49.49 0 0 0 .24-.42v-.17l-.35-.2a.51.51 0 0 0-.48 0"/><path fill="url(#D)" d="M26.55 63.912v.01l9.34 5.4.01-.01z"/><path fill="url(#E)" d="M15.74 57.662v.02l9.34 5.39.01-.01z"/><path fill="url(#F)" d="M8.59 53.543v.02l5.67 3.27.02-.01z"/><path fill="url(#G)" d="M79.98 44.752a.49.49 0 0 1-.24-.42V8.502h-.09v10.04l-8.92-5.15-1.89 1.12v10.28l-8.81-5.09-.96.57 9.28 5.36-9.35 5.4v-10.73l-.97.57v10.15l-8.7-5.02-.96.57 9.17 5.3-9.35 5.4v-10.59l-.97.57v10.02l-8.58-4.96-.96.57 9.06 5.23-9.35 5.4v-10.46l-.97.57v9.89l-8.47-4.89-.96.57 8.95 5.17-9.35 5.4v-10.33l-1.01.57v9.75l-8.36-4.83-.96.57 8.84 5.1-9.36 5.41v-10.2l-.97.57v9.61l1.47.85 9.34-5.39v10.79l1.47.85 9.34-5.39v10.78l.72.42c.15.09.24.25.24.42v.3l42.84-24.73zm-53.43 17.49v-10.8l9.35 5.4zm9.84-6.24-9.35-5.4 9.35-5.4zm.98-10.8 9.35 5.4-9.35 5.4zm0 23.28v-10.8l9.35 5.4zm9.84-6.24-9.35-5.4 9.35-5.4zm0-12.49-9.35-5.4 9.35-5.4zm.97-10.8 9.35 5.4-9.35 5.4zm0 23.29v-10.8l9.35 5.4zm9.84-6.24-9.35-5.4 9.35-5.4zm0-12.49-9.35-5.4 9.35-5.4zm.97-10.8 9.35 5.4-9.35 5.4zm0 23.29v-10.8l9.35 5.4zm9.84-6.25-9.35-5.4 9.35-5.4zm0-12.48-9.35-5.4 9.35-5.4zm.98-23.29 9.35 5.4-9.35 5.4zm0 12.49 9.35 5.4-9.35 5.4zm0 23.28v-10.8l9.35 5.4zm9.84-6.24-9.35-5.4 9.35-5.4zm0-12.49-9.35-5.4 9.35-5.4z"/><path fill="url(#H)" d="m79.98 44.752.22.12.18-.1a.49.49 0 0 0 .24-.42V8.522l-.88-.02v35.83c0 .18.09.34.24.42"/><path fill="url(#I)" d="m37.12 68.892-.72-.42v.02l-9.35-5.4.01-.01-1.47-.85v.02l-9.35-5.4.01-.01-1.47-.85v.01l-6.17-3.56v1.11l5.68 3.28-.01.01 1.47.85v-.01l9.35 5.4-.01.01 1.47.85v-.01l9.35 5.4-.01.01.75.43c.15.09.34.09.49 0l.24-.14v-.3c-.02-.2-.11-.36-.26-.44"/><path fill="url(#b)" d="M80.71 8.523h-.09v35.83c0 .17-.09.33-.24.42l-.18.1 42.74 24.68v-.15c0-.17.09-.33.24-.42l27.61-15.94-.03-.05-5.17 2.99v-8.91l-.97-.58v9.5l-9.35-5.4 8.25-4.76-.95-.57-7.78 4.49v-9.17l-.97-.58v9.75l-9.35-5.4 8.46-4.89-.95-.57-8 4.62v-9.42l-.97-.58v10.01l-9.35-5.4 8.68-5.01-.95-.57-8.22 4.74v-9.68l-.97-.58v10.26l-9.35-5.4 8.9-5.14-.95-.57-8.46 4.83v-9.93l-.97-.58v10.51l-9.35-5.4 9.11-5.26-.95-.57-8.65 4.99v-10.19l-.97-.58v10.77l-9.35-5.4 9.33-5.39-.96-.57-8.86 5.12v-10zm54.07 42.9 9.35 5.4-9.35 5.4zm-.97 10.8-9.35-5.4 9.35-5.4zm-9.84-17.04 9.35 5.4-9.35 5.4zm0 12.48 9.35 5.4-9.35 5.4zm-.98 10.8-9.35-5.4 9.35-5.4zm0-12.48-9.35-5.4 9.35-5.4zm-9.84-17.05 9.35 5.4-9.35 5.4zm0 12.49 9.35 5.4-9.35 5.4zm-.97 10.8-9.35-5.4 9.35-5.4zm0-12.49-9.35-5.4 9.35-5.4zm-9.84-17.04 9.35 5.4-9.35 5.4zm0 12.49 9.35 5.4-9.35 5.4zm-.97 10.8-9.35-5.4 9.35-5.4zm0-12.49-9.35-5.4 9.35-5.4zm-9.84-17.04 9.35 5.4-9.35 5.4zm0 12.48 9.35 5.4-9.35 5.4zm-10.82-6.24 9.35 5.4-9.35 5.4zm9.84 17.04-9.35-5.4 9.35-5.4zm0-12.48-9.35-5.4 9.35-5.4zm-.48-11.65-9.36 5.4v-10.8z"/><path fill="url(#c)" d="m123.24 69.732-.3-.17v49.41l.14-.08c.15-.09.34-.09.49 0l27.36 15.8.01-.01-4.91-2.83 5.74-3.31.01-1.13-6.23 3.6v-10.8l6.25 3.61.01-1.12-5.77-3.33 5.81-3.35.01-1.13-6.3 3.64v-10.8l6.32 3.65.01-1.12-5.84-3.37 5.88-3.39.01-1.13-6.37 3.68v-10.8l6.39 3.69.01-1.12-5.91-3.41 5.95-3.43.01-1.13-6.44 3.72v-10.8l6.46 3.73.01-1.12-5.98-3.45 6.02-3.47.01-1.13-6.51 3.76v-10.8l6.53 3.77.01-1.12-6.05-3.49 6.09-3.51.01-1.13-6.58 3.8v-10.8l6.6 3.81.01-1.12-6.12-3.53 5.21-3.01-.03-.05-27.49 15.87c-.21.03-.39.03-.54-.05m10.51 55.02-9.35-5.4 9.35-5.4zm0-12.49-9.35-5.4 9.35-5.4zm0-12.48-9.35-5.4 9.35-5.4zm0-12.49-9.35-5.4 9.35-5.4zm10.82 43.7-9.35-5.4 9.35-5.4zm0-12.48-9.35-5.4 9.35-5.4zm0-12.49-9.35-5.4 9.35-5.4zm0-12.49-9.35-5.4 9.35-5.4zm0-12.48-9.35-5.4 9.35-5.4zm0-23.29v10.8l-9.35-5.4zm-9.84 6.24 9.35 5.4-9.35 5.4zm0 12.49 9.35 5.4-9.35 5.4zm0 12.49 9.35 5.4-9.35 5.4zm0 12.48 9.35 5.4-9.35 5.4zm0 12.49 9.35 5.4-9.35 5.4zm-.98-49.95v10.8l-9.35-5.4zm-9.84 6.25 9.35 5.4-9.35 5.4zm0 12.48 9.35 5.4-9.35 5.4zm0 12.49 9.35 5.4-9.35 5.4zm0 12.49 9.35 5.4-9.35 5.4z"/><path fill="url(#d)" d="M123.18 68.983a.49.49 0 0 0-.24.42v.15l.3.17c.15.09.34.09.49 0l27.49-15.87-.42-.81z"/><path fill="url(#e)" d="M122.94 119.35v-.39l-42.89 24.77.22.13c.15.09.24.25.24.42v35.17l.05-.01v-9.35l8.6 4.96.96-.57-9.07-5.24 9.35-5.4v10.47l.97-.58v-9.9l8.47 4.89.96-.57-8.95-5.16 9.35-5.4v10.32l.97-.58v-9.75l8.34 4.82.96-.57-8.82-5.09 9.35-5.4v10.17l.97-.58v-9.6l8.22 4.74.96-.57-8.69-5.02 9.35-5.4v10.03l.97-.58v-9.45l8.09 4.67.96-.57-8.56-4.94 9.35-5.4v9.88l.97-.58v-9.3l7.96 4.6.96-.57-8.44-4.87 9.35-5.4v9.73l.97-.58v-9.15l5.13 2.96v-.01l-27.39-15.81c-.1-.06-.19-.22-.19-.39zm-42.38 25.77 9.35 5.4-9.35 5.4zm0 23.29v-10.8l9.35 5.4zm9.84-6.25-9.35-5.4 9.35-5.4zm0-12.48-9.35-5.4 9.35-5.4zm.97-10.8 9.35 5.4-9.35 5.4zm0 23.28v-10.8l9.35 5.4zm9.84-6.24-9.35-5.4 9.35-5.4zm0-12.49-9.35-5.4 9.35-5.4zm.97-10.8 9.35 5.4-9.35 5.4zm0 23.29v-10.8l9.35 5.4zm9.84-6.24-9.35-5.4 9.35-5.4zm0-12.49-9.35-5.4 9.35-5.4zm.98-10.8 9.35 5.4-9.35 5.4zm0 23.29v-10.8l9.35 5.4zm9.84-6.25-9.35-5.4 9.35-5.4zm0-12.48-9.35-5.4 9.35-5.4zm11.78-4.56 9.35 5.4-9.35 5.4zm-.97 10.8-9.35-5.4 9.35-5.4zm-9.84-17.04 9.35 5.4-9.35 5.4zm0 12.48 9.35 5.4-9.35 5.4z"/><path fill="url(#i)" d="m123.08 118.88-.14.08v.39c0 .17.09.33.24.42l27.39 15.81.36-.9-27.36-15.8a.53.53 0 0 0-.49 0"/><path fill="url(#j)" d="m14.27 131.73-5.18 3 5.19-2.99z"/><path fill="url(#k)" d="m79.83 143.86.22-.13-42.68-24.64v.17c0 .17-.09.33-.24.42l-.84.48v10.79l-9.35-5.4-1.47.85v10.79l-9.35-5.4-1.47.85v7.96l.97.6v-8.56l9.35 5.4-7.48 4.32.94.58 7.02-4.06v8.38l.97.6v-8.98l9.35 5.4-7.82 4.52.94.58 7.37-4.25v8.79l.97.6v-9.39l9.35 5.4-8.17 4.72.94.58 7.72-4.45v9.2l.97.6v-9.8l9.35 5.4-8.52 4.92.94.58 8.06-4.65v9.62l.97.6v-10.22l9.35 5.4-8.86 5.12.94.58 8.41-4.85v10.03l.97.6v-10.63l9.35 5.4-9.21 5.32.94.58 8.75-5.05v9.46l.05-.01v-35.27c.05-.21.15-.37.3-.45m-53.39-17.47 9.35 5.4-9.35 5.4zm9.84 17.04-9.35-5.4 9.35-5.4zm.98-23.28 9.35 5.4-9.35 5.4zm0 12.48 9.35 5.4-9.35 5.4zm9.84 17.05-9.35-5.4 9.35-5.4zm0-12.49-9.35-5.4 9.35-5.4zm.97-10.8 9.35 5.4-9.35 5.4zm0 12.49 9.35 5.4-9.35 5.4zm9.84 17.04-9.35-5.4 9.35-5.4zm0-12.49-9.35-5.4 9.35-5.4zm.97-10.8 9.35 5.4-9.35 5.4zm0 12.49 9.35 5.4-9.35 5.4zm9.84 17.04-9.35-5.4 9.35-5.4zm0-12.48-9.35-5.4 9.35-5.4zm.98-10.8 9.35 5.4-9.35 5.4zm0 12.48 9.35 5.4-9.35 5.4zm9.84 17.05-9.35-5.4 9.35-5.4zm0-12.49-9.35-5.4 9.35-5.4z"/><path fill="url(#l)" d="m25.09 125.5-.01-.01-9.34 5.4v.01z"/><path fill="url(#m)" d="M35.9 119.25h-.01l-9.34 5.39v.01z"/><path fill="url(#o)" d="m80.27 143.86-.22-.13-.22.13a.49.49 0 0 0-.24.42v35.27l.93-.1v-35.17a.5.5 0 0 0-.25-.42"/><path fill="url(#p)" d="M16.12 131.79v.01l9.35-5.4v-.01z"/><path fill="url(#q)" d="m9.5 135.61.01.01 5.15-2.98v-.01z"/><path fill="url(#r)" d="M36.39 68.483v-.01l-9.34-5.39h-.01z"/><path fill="url(#s)" d="M26.93 125.55h.01l9.34-5.39v-.01z"/><path fill="url(#z)" d="M25.58 62.243v-.02l-9.34-5.39-.01.01z"/><path fill="url(#A)" d="M15.74 130.89V120.1l9.35 5.4 1.47-.85v-10.79l9.35 5.4.63-.36c.15-.09.34-.09.49 0l.35.2V69.61l-.24.14c-.15.09-.34.09-.49 0l-.75-.43-9.34 5.39V63.92l-1.47-.85-9.34 5.39V57.68l-1.47-.85-5.68 3.28-.01 1.13 6.19-3.57v10.8l-6.21-3.58L8.55 66l5.73 3.31-5.76 3.33-.01 1.13 6.26-3.61v10.8l-6.28-3.62-.01 1.12 5.8 3.35-5.84 3.37-.01 1.13 6.33-3.65v10.8l-6.35-3.67-.01 1.12 5.87 3.39-5.91 3.41-.01 1.13 6.4-3.69v10.8l-6.42-3.71-.01 1.12 5.94 3.43-5.98 3.45-.01 1.13 6.47-3.74v10.8l-6.49-3.75-.01 1.12 6.01 3.47-6.05 3.49-.01 1.13 6.54-3.78v10.8l-6.56-3.79-.01 1.12 6.07 3.51zm20.65-12.48-9.35-5.4 9.35-5.4zm0-12.49-9.35-5.4 9.35-5.4zm0-12.48-9.35-5.4 9.35-5.4zm0-23.29v10.8l-9.35-5.4zm-9.84 6.24 9.35 5.4-9.35 5.4zm0 12.49 9.35 5.4-9.35 5.4zm0 12.49 9.35 5.4-9.35 5.4zm-.97 23.28-9.35-5.4 9.35-5.4zm0-12.48-9.35-5.4 9.35-5.4zm0-12.49-9.35-5.4 9.35-5.4zm0-12.49-9.35-5.4 9.35-5.4zm0-23.28v10.8l-9.35-5.4zm-9.84 6.24 9.35 5.4-9.35 5.4zm0 12.49 9.35 5.4-9.35 5.4zm0 12.48 9.35 5.4-9.35 5.4zm0 12.49 9.35 5.4-9.35 5.4z"/><path fill="url(#B)" d="m14.77 55.982-6.18-3.56v.01l6.18 3.57z"/><path fill="url(#C)" d="m36.53 118.88-.63.36h.01l-9.35 5.4v-.01l-1.47.85h.01l-9.35 5.4v-.01l-1.47.85h.01l-5.19 2.99.41.88 5.15-2.97v.01l1.47-.85h-.01l9.35-5.4v.01l1.47-.85h-.01l9.35-5.4v.01l.84-.48a.49.49 0 0 0 .24-.42v-.17l-.35-.2a.51.51 0 0 0-.48 0"/><path fill="url(#D)" d="M26.55 63.912v.01l9.34 5.4.01-.01z"/><path fill="url(#E)" d="M15.74 57.662v.02l9.34 5.39.01-.01z"/><path fill="url(#F)" d="M8.59 53.543v.02l5.67 3.27.02-.01z"/><path fill="url(#G)" d="M79.98 44.752a.49.49 0 0 1-.24-.42V8.502h-.09v10.04l-8.92-5.15-1.89 1.12v10.28l-8.81-5.09-.96.57 9.28 5.36-9.35 5.4v-10.73l-.97.57v10.15l-8.7-5.02-.96.57 9.17 5.3-9.35 5.4v-10.59l-.97.57v10.02l-8.58-4.96-.96.57 9.06 5.23-9.35 5.4v-10.46l-.97.57v9.89l-8.47-4.89-.96.57 8.95 5.17-9.35 5.4v-10.33l-1.01.57v9.75l-8.36-4.83-.96.57 8.84 5.1-9.36 5.41v-10.2l-.97.57v9.61l1.47.85 9.34-5.39v10.79l1.47.85 9.34-5.39v10.78l.72.42c.15.09.24.25.24.42v.3l42.84-24.73zm-53.43 17.49v-10.8l9.35 5.4zm9.84-6.24-9.35-5.4 9.35-5.4zm.98-10.8 9.35 5.4-9.35 5.4zm0 23.28v-10.8l9.35 5.4zm9.84-6.24-9.35-5.4 9.35-5.4zm0-12.49-9.35-5.4 9.35-5.4zm.97-10.8 9.35 5.4-9.35 5.4zm0 23.29v-10.8l9.35 5.4zm9.84-6.24-9.35-5.4 9.35-5.4zm0-12.49-9.35-5.4 9.35-5.4zm.97-10.8 9.35 5.4-9.35 5.4zm0 23.29v-10.8l9.35 5.4zm9.84-6.25-9.35-5.4 9.35-5.4zm0-12.48-9.35-5.4 9.35-5.4zm.98-23.29 9.35 5.4-9.35 5.4zm0 12.49 9.35 5.4-9.35 5.4zm0 23.28v-10.8l9.35 5.4zm9.84-6.24-9.35-5.4 9.35-5.4zm0-12.49-9.35-5.4 9.35-5.4z"/><path fill="url(#H)" d="m79.98 44.752.22.12.18-.1a.49.49 0 0 0 .24-.42V8.522l-.88-.02v35.83c0 .18.09.34.24.42"/><path fill="url(#I)" d="m37.12 68.892-.72-.42v.02l-9.35-5.4.01-.01-1.47-.85v.02l-9.35-5.4.01-.01-1.47-.85v.01l-6.17-3.56v1.11l5.68 3.28-.01.01 1.47.85v-.01l9.35 5.4-.01.01 1.47.85v-.01l9.35 5.4-.01.01.75.43c.15.09.34.09.49 0l.24-.14v-.3c-.02-.2-.11-.36-.26-.44"/><path fill="#f2f1f0" d="m80.17 44.512-43.25 25.06.07 49.38 43.18 25.06 11.03-6.43 21.19 12.79 10.88-6.21-.22-12.35-10.3-6.35 10.38-6.14.07-49.9z"/><path fill="#2f2f2f" d="M123.86 119.25V69.3a.49.49 0 0 0-.24-.42L80.36 43.91a.48.48 0 0 0-.49 0L36.62 68.88a.49.49 0 0 0-.24.42v49.94c0 .17.09.33.24.42l43.25 24.97q.12.06.24.06c.12 0 .17-.02.24-.06l10.57-6.1 10.57 6.1 10.81 6.24q.12.06.24.06c.12 0 .17-.02.24-.06l10.81-6.24a.49.49 0 0 0 .24-.42v-12.49a.49.49 0 0 0-.24-.42l-10.08-5.82 10.08-5.82c.17-.08.27-.24.27-.41m-21.63 11.64v-10.8l9.35 5.4zm-22.6-37.46-9.35-5.4 9.35-5.4zm.97-10.8 9.35 5.4-9.35 5.4zm-1.46 11.64-9.35 5.4v-10.8zm.49.85v10.8l-9.35-5.4zm.97 0 9.35 5.4-9.35 5.4zm.49-.85 9.35-5.4v10.8zm0-12.48 9.35-5.4v10.8zm-11.3 5.4v-10.8l9.35 5.4zm-.97 12.48-9.35-5.4 9.35-5.4zm10.32 7.09-9.35 5.4v-10.8zm11.3-5.4v10.8l-9.35-5.4zm.98-12.49 9.35 5.4-9.35 5.4zm.48-.84 9.35-5.4v10.8zm-.48-.84v-10.8l9.35 5.4zM80.6 80.94v-10.8l9.35 5.4zm-.97 0-9.35-5.4 9.35-5.4zm-10.81 6.25-9.35-5.4 9.35-5.4zm-.49.84-9.35 5.4v-10.8zm0 12.49-9.35 5.4v-10.8zm.49.84v10.8l-9.35-5.4zm10.81 6.24v10.8l-9.35-5.4zm.97 0 9.35 5.4-9.35 5.4zm10.82-6.24 9.35 5.4-9.35 5.4zm.48-.84 9.35-5.4v10.8zm10.33-17.89 9.35 5.4-9.35 5.4zM91.9 75.54l9.35-5.4v10.8zM81.09 69.3l9.35-5.4v10.8zm-11.3 5.4V63.9l9.35 5.4zm-10.81 6.24v-10.8l9.35 5.4zM58 93.43l-9.35-5.4 9.35-5.4zm0 12.49-9.35-5.4 9.35-5.4zM68.33 113l-9.35 5.4v-10.8zm10.81 6.25-9.35 5.4v-10.8zm11.3-5.4v10.8l-9.35-5.4zm10.82-6.25v10.8l-9.35-5.4zm.97-12.48 9.35 5.4-9.35 5.4zm.49-.85 9.35-5.4v10.8zm0-12.48 9.35-5.4v10.8zm-.49-.85v-10.8l9.35 5.4zM91.42 74.7V63.9l9.35 5.4zM80.6 68.46v-10.8l9.35 5.4zm-.97 0-9.35-5.4 9.35-5.4zM68.82 74.7l-9.35-5.4 9.35-5.4zM58 80.94l-9.35-5.4 9.35-5.4zm-.48.85-9.35 5.4v-10.8zm0 12.48-9.35 5.4v-10.8zm0 12.49-9.35 5.4v-10.8zm.48.84v10.8l-9.35-5.4zm10.82 6.25v10.8l-9.35-5.4zm10.81 6.24v10.8l-9.35-5.4zm.97 0 9.35 5.4-9.35 5.4zm10.82-6.24 9.35 5.4-9.35 5.4zm10.81-6.25 9.35 5.4-9.35 5.4zm.49-.84 9.35-5.4v10.8zm10.32-17.89 9.35 5.4-9.35 5.4zm0-12.48 9.35 5.4-9.35 5.4zm-10.32-7.09 9.35-5.4v10.8zM91.9 63.06l9.35-5.4v10.8zm-10.81-6.25 9.35-5.4v10.8zm-11.3 5.4v-10.8l9.35 5.4zm-10.81 6.25v-10.8l9.35 5.4zM48.16 74.7V63.9l9.35 5.4zm-.97 12.49-9.35-5.4 9.35-5.4zm0 12.48-9.35-5.4 9.35-5.4zm0 12.49-9.35-5.4 9.35-5.4zm10.33 7.09-9.35 5.4v-10.8zm10.81 6.24-9.35 5.4v-10.8zm10.81 6.24-9.35 5.4v-10.8zm11.3-5.4v10.8l-9.35-5.4zm10.82-6.24v10.8l-9.35-5.4zm10.81 6.24v10.8l-9.35-5.4zm-9.35-7.08 9.35-5.4v10.8zm10.32-17.89 9.35 5.4-9.35 5.4zm.49-.84 9.35-5.4v10.8zm0-12.49 9.35-5.4v10.8zm0-12.49 9.35-5.4v10.8zm-.49-.84V63.9l9.35 5.4zm-10.81-6.24v-10.8l9.35 5.4zm-10.81-6.25v-10.8l9.35 5.4zM80.6 55.97v-10.8l9.35 5.4zm-.97 0-9.35-5.4 9.35-5.4zm-10.81 6.24-9.35-5.4 9.35-5.4zM58 68.46l-9.35-5.4 9.35-5.4zM47.19 74.7l-9.35-5.4 9.35-5.4zm-.49.84-9.35 5.4v-10.8zm0 12.49-9.35 5.4v-10.8zm0 12.49-9.35 5.4v-10.8zm0 12.48-9.35 5.4v-10.8zm.49.85v10.8l-9.35-5.4zM58 120.09v10.8l-9.35-5.4zm10.82 6.24v10.8l-9.35-5.4zm10.81 6.24v10.8l-9.35-5.4zm.97 0 9.35 5.4-9.35 5.4zm10.82-6.24 9.35 5.4-9.35 5.4zm20.16 11.64-9.35 5.4v-10.8zm.49.85v10.8l-9.35-5.4zm.97 0 9.35 5.4-9.35 5.4zm.49-.85 9.35-5.4v10.8zm-.49-.84v-10.8l9.35 5.4zm0-23.28 9.35 5.4-9.35 5.4zm.49-.85 9.35-5.4v10.8zm-12.27 19.57v10.8l-9.35-5.4z"/><path fill="#0078d4" fill-rule="evenodd" d="M79.68 9.752c1.68 0 3.57.87 5.63 2.12l58.47 35.54c3.65 2.22 6.06 6.49 6.06 11.32v70.48c0 4.82-2.41 9.1-6.06 11.32l-58.46 35.54c-1.96 1.19-3.88 1.94-5.63 1.94s-3.67-.75-5.63-1.94l-58.48-35.53c-2.01-1.23-3.46-2.43-4.44-4.04-.98-1.6-1.62-3.82-1.62-7.28v-70.48c0-4.83 2.41-9.1 6.06-11.32l58.46-35.54c2.09-1.25 3.95-2.13 5.64-2.13m7.71 169.75 58.46-35.54c4.92-2.99 7.98-8.61 7.98-14.74v-70.48c0-6.13-3.06-11.75-7.98-14.74L87.39 8.462c-2.11-1.28-4.82-2.71-7.71-2.71-2.9 0-5.61 1.44-7.7 2.7h-.01L13.5 44.002c-4.92 2.99-7.98 8.61-7.98 14.74v70.48c0 3.96.74 6.95 2.2 9.36 1.46 2.4 3.52 4 5.78 5.37l58.46 35.54c2.22 1.35 4.89 2.53 7.71 2.53s5.5-1.17 7.72-2.52" clip-rule="evenodd"/><defs><linearGradient id="a" x1="90.425" x2="90.425" y1="9.584" y2="180.98" gradientTransform="translate(-10.745 -1.301)" gradientUnits="userSpaceOnUse"><stop offset="0" stop-color="#00ABDE"/><stop offset="1" stop-color="#007ED8"/></linearGradient><linearGradient id="b" x1="82.445" x2="185.63" y1="-26.141" y2="153.86" gradientTransform="translate(-10.745 -1.301)" gradientUnits="userSpaceOnUse"><stop offset="0" stop-color="#7CDAF3"/><stop offset=".357" stop-color="#4DC1EA"/><stop offset=".842" stop-color="#0078D4"/></linearGradient><linearGradient id="c" x1="82.531" x2="185.71" y1="-26.19" y2="153.81" gradientTransform="translate(-10.745 -1.301)" gradientUnits="userSpaceOnUse"><stop offset="0" stop-color="#7CDAF3"/><stop offset=".357" stop-color="#4DC1EA"/><stop offset=".842" stop-color="#0078D4"/></linearGradient><linearGradient id="d" x1="93.205" x2="196.39" y1="-32.309" y2="147.69" gradientTransform="translate(-10.745 -1.301)" gradientUnits="userSpaceOnUse"><stop offset="0" stop-color="#7CDAF3"/><stop offset=".357" stop-color="#4DC1EA"/><stop offset=".842" stop-color="#0078D4"/></linearGradient><linearGradient id="e" x1="35.641" x2="138.82" y1=".688" y2="180.69" gradientTransform="translate(-10.745 -1.301)" gradientUnits="userSpaceOnUse"><stop offset="0" stop-color="#7CDAF3"/><stop offset=".357" stop-color="#4DC1EA"/><stop offset=".842" stop-color="#0078D4"/></linearGradient><linearGradient id="i" x1="64.876" x2="168.06" y1="-16.07" y2="163.93" gradientTransform="translate(-10.745 -1.301)" gradientUnits="userSpaceOnUse"><stop offset="0" stop-color="#7CDAF3"/><stop offset=".357" stop-color="#4DC1EA"/><stop offset=".842" stop-color="#0078D4"/></linearGradient><linearGradient id="j" x1="-32.055" x2="71.126" y1="39.494" y2="219.49" gradientTransform="translate(-10.745 -1.301)" gradientUnits="userSpaceOnUse"><stop offset="0" stop-color="#7CDAF3"/><stop offset=".357" stop-color="#4DC1EA"/><stop offset=".842" stop-color="#0078D4"/></linearGradient><linearGradient id="k" x1="-9.06" x2="94.121" y1="26.312" y2="206.31" gradientTransform="translate(-10.745 -1.301)" gradientUnits="userSpaceOnUse"><stop offset="0" stop-color="#7CDAF3"/><stop offset=".357" stop-color="#4DC1EA"/><stop offset=".842" stop-color="#0078D4"/></linearGradient><linearGradient id="l" x1="-23.31" x2="79.87" y1="34.481" y2="214.48" gradientTransform="translate(-10.745 -1.301)" gradientUnits="userSpaceOnUse"><stop offset="0" stop-color="#7CDAF3"/><stop offset=".357" stop-color="#4DC1EA"/><stop offset=".842" stop-color="#0078D4"/></linearGradient><linearGradient id="m" x1="-12.478" x2="90.703" y1="28.271" y2="208.27" gradientTransform="translate(-10.745 -1.301)" gradientUnits="userSpaceOnUse"><stop offset="0" stop-color="#7CDAF3"/><stop offset=".357" stop-color="#4DC1EA"/><stop offset=".842" stop-color="#0078D4"/></linearGradient><linearGradient id="o" x1="7.057" x2="110.24" y1="17.074" y2="197.07" gradientTransform="translate(-10.745 -1.301)" gradientUnits="userSpaceOnUse"><stop offset="0" stop-color="#7CDAF3"/><stop offset=".357" stop-color="#4DC1EA"/><stop offset=".842" stop-color="#0078D4"/></linearGradient><linearGradient id="p" x1="-23.41" x2="79.772" y1="34.538" y2="214.54" gradientTransform="translate(-10.745 -1.301)" gradientUnits="userSpaceOnUse"><stop offset="0" stop-color="#7CDAF3"/><stop offset=".357" stop-color="#4DC1EA"/><stop offset=".842" stop-color="#0078D4"/></linearGradient><linearGradient id="q" x1="-32.138" x2="71.043" y1="39.541" y2="219.54" gradientTransform="translate(-10.745 -1.301)" gradientUnits="userSpaceOnUse"><stop offset="0" stop-color="#7CDAF3"/><stop offset=".357" stop-color="#4DC1EA"/><stop offset=".842" stop-color="#0078D4"/></linearGradient><linearGradient id="r" x1="12.131" x2="115.31" y1="14.165" y2="194.16" gradientTransform="translate(-10.745 -1.301)" gradientUnits="userSpaceOnUse"><stop offset="0" stop-color="#7CDAF3"/><stop offset=".357" stop-color="#4DC1EA"/><stop offset=".842" stop-color="#0078D4"/></linearGradient><linearGradient id="s" x1="-12.577" x2="90.604" y1="28.328" y2="208.33" gradientTransform="translate(-10.745 -1.301)" gradientUnits="userSpaceOnUse"><stop offset="0" stop-color="#7CDAF3"/><stop offset=".357" stop-color="#4DC1EA"/><stop offset=".842" stop-color="#0078D4"/></linearGradient><linearGradient id="z" x1="6.686" x2="109.87" y1="17.286" y2="197.29" gradientTransform="translate(-10.745 -1.301)" gradientUnits="userSpaceOnUse"><stop offset="0" stop-color="#7CDAF3"/><stop offset=".357" stop-color="#4DC1EA"/><stop offset=".842" stop-color="#0078D4"/></linearGradient><linearGradient id="A" x1="-8.898" x2="94.283" y1="26.219" y2="206.22" gradientTransform="translate(-10.745 -1.301)" gradientUnits="userSpaceOnUse"><stop offset="0" stop-color="#7CDAF3"/><stop offset=".357" stop-color="#4DC1EA"/><stop offset=".842" stop-color="#0078D4"/></linearGradient><linearGradient id="B" x1="2.041" x2="105.22" y1="19.949" y2="199.95" gradientTransform="translate(-10.745 -1.301)" gradientUnits="userSpaceOnUse"><stop offset="0" stop-color="#7CDAF3"/><stop offset=".357" stop-color="#4DC1EA"/><stop offset=".842" stop-color="#0078D4"/></linearGradient><linearGradient id="C" x1="-20.67" x2="82.511" y1="32.967" y2="212.97" gradientTransform="translate(-10.745 -1.301)" gradientUnits="userSpaceOnUse"><stop offset="0" stop-color="#7CDAF3"/><stop offset=".357" stop-color="#4DC1EA"/><stop offset=".842" stop-color="#0078D4"/></linearGradient><linearGradient id="D" x1="11.398" x2="114.58" y1="14.585" y2="194.59" gradientTransform="translate(-10.745 -1.301)" gradientUnits="userSpaceOnUse"><stop offset="0" stop-color="#7CDAF3"/><stop offset=".357" stop-color="#4DC1EA"/><stop offset=".842" stop-color="#0078D4"/></linearGradient><linearGradient id="E" x1="5.953" x2="109.13" y1="17.706" y2="197.71" gradientTransform="translate(-10.745 -1.301)" gradientUnits="userSpaceOnUse"><stop offset="0" stop-color="#7CDAF3"/><stop offset=".357" stop-color="#4DC1EA"/><stop offset=".842" stop-color="#0078D4"/></linearGradient><linearGradient id="F" x1="1.432" x2="104.61" y1="20.298" y2="200.3" gradientTransform="translate(-10.745 -1.301)" gradientUnits="userSpaceOnUse"><stop offset="0" stop-color="#7CDAF3"/><stop offset=".357" stop-color="#4DC1EA"/><stop offset=".842" stop-color="#0078D4"/></linearGradient><linearGradient id="G" x1="38.292" x2="141.47" y1="-.832" y2="179.17" gradientTransform="translate(-10.745 -1.301)" gradientUnits="userSpaceOnUse"><stop offset="0" stop-color="#7CDAF3"/><stop offset=".357" stop-color="#4DC1EA"/><stop offset=".842" stop-color="#0078D4"/></linearGradient><linearGradient id="H" x1="65.557" x2="168.74" y1="-16.46" y2="163.54" gradientTransform="translate(-10.745 -1.301)" gradientUnits="userSpaceOnUse"><stop offset="0" stop-color="#7CDAF3"/><stop offset=".357" stop-color="#4DC1EA"/><stop offset=".842" stop-color="#0078D4"/></linearGradient><linearGradient id="I" x1="7.458" x2="110.64" y1="16.844" y2="196.84" gradientTransform="translate(-10.745 -1.301)" gradientUnits="userSpaceOnUse"><stop offset="0" stop-color="#7CDAF3"/><stop offset=".357" stop-color="#4DC1EA"/><stop offset=".842" stop-color="#0078D4"/></linearGradient></defs></svg>