<svg xmlns="http://www.w3.org/2000/svg" fill="none" viewBox="0 0 96 96"><mask id="a" width="96" height="96" x="0" y="0" mask-type="alpha" maskUnits="userSpaceOnUse"><g fill="#fff"><path d="m14 64.416 4.83-5.165 6.002 6.002-4.88 4.88 5.914 5.915 4.88-4.88 6.044 6.043L32 82l14 14h22a4 4 0 0 0 4-4V60.022l20.442-13.648A8 8 0 0 0 96 39.721V3.999a4 4 0 0 0-4-4H56.278a8 8 0 0 0-6.654 3.557L35.977 23.998H4a4 4 0 0 0-4 4v22zM8 88V72H0v24h24v-8z"/></g></mask><g mask="url(#a)"><path fill="#91b0f2" fill-rule="evenodd" d="M0 72h8v16h16v8H0z" clip-rule="evenodd"/><path fill="#0f46bd" d="M0 28v22l14 14.416L20 58l18 18-6 6 14 14h22a4 4 0 0 0 4-4V60L36 24H4a4 4 0 0 0-4 4z"/><g filter="url(#c)"><path fill="#062aa9" fill-rule="evenodd" d="M15 55.421 52 0h44v44L40.579 81z" clip-rule="evenodd"/></g><path fill="#2560e0" fill-rule="evenodd" d="M17.32 57.742a4 4 0 0 1-.498-5.05L49.625 3.56A8 8 0 0 1 56.278 0H92a4 4 0 0 1 4 4v35.722a8 8 0 0 1-3.558 6.653L43.308 79.179a4 4 0 0 1-5.049-.498z" clip-rule="evenodd"/><g filter="url(#d)"><path fill="#0a44c2" fill-rule="evenodd" d="m19.952 70.134 30.54-30.54 5.914 5.914-30.54 30.54z" clip-rule="evenodd"/></g><path fill="#729af2" fill-rule="evenodd" d="m19.952 70.134 30.54-30.54 5.914 5.914-30.54 30.54z" clip-rule="evenodd"/><path fill="#4c80f0" d="m30.746 71.167-5.914-5.914 25.66-25.659 5.914 5.914z"/><g filter="url(#f)"><path fill="#0a44c2" d="M70 38c6.627 0 12-5.373 12-12s-5.373-12-12-12-12 5.373-12 12 5.373 12 12 12"/></g><path fill="#91b0f2" d="M70 38c6.627 0 12-5.373 12-12s-5.373-12-12-12-12 5.373-12 12 5.373 12 12 12"/><g fill="url(#g)" opacity=".2"><path d="m14 64.416 4.83-5.165 6.002 6.002-4.88 4.88 5.914 5.915 4.88-4.88 6.044 6.043L32 82l14 14h22a4 4 0 0 0 4-4V60.022l20.442-13.648A8 8 0 0 0 96 39.721V3.999a4 4 0 0 0-4-4H56.278a8 8 0 0 0-6.654 3.557L35.977 23.998H4a4 4 0 0 0-4 4v22zM8 88V72H0v24h24v-8z"/></g></g><defs><filter id="c" width="97" height="97" x="7" y="-8" color-interpolation-filters="sRGB" filterUnits="userSpaceOnUse"><feFlood flood-opacity="0" result="BackgroundImageFix"/><feBlend in="SourceGraphic" in2="BackgroundImageFix" result="shape"/><feGaussianBlur result="effect1_foregroundBlur" stdDeviation="4"/></filter><filter id="d" width="63.768" height="63.768" x="6.295" y="25.937" color-interpolation-filters="sRGB" filterUnits="userSpaceOnUse"><feFlood flood-opacity="0" result="BackgroundImageFix"/><feBlend in="SourceGraphic" in2="BackgroundImageFix" result="shape"/><feGaussianBlur result="effect1_foregroundBlur" stdDeviation="4"/></filter><filter id="f" width="40" height="40" x="50" y="6" color-interpolation-filters="sRGB" filterUnits="userSpaceOnUse"><feFlood flood-opacity="0" result="BackgroundImageFix"/><feBlend in="SourceGraphic" in2="BackgroundImageFix" result="shape"/><feGaussianBlur result="effect1_foregroundBlur" stdDeviation="4"/></filter><linearGradient id="g" x2="1" gradientTransform="matrix(0 96 -96 0 96 0)" gradientUnits="userSpaceOnUse"><stop offset="0" stop-color="#fff"/><stop offset="1" stop-color="#fff" stop-opacity="0"/></linearGradient></defs></svg>