<svg xmlns="http://www.w3.org/2000/svg" viewBox="0 0 34.79 40.18"><g data-name="Layer 2"><g data-name="Header Bar"><path d="M24.11 9.92l5.45 3.15 5.23-3.03-5.44-3.14zM17.4 0L0 10.04l5.24 3.03L22.63 3.02zm5.44 23.23l-5.44-3.14-5.45 3.14 5.45 3.14z" fill="#e0684b"/><path d="M17.4 34.13L5.24 27.11V13.07L0 10.04v20.09l17.4 10.05 17.39-10.05V10.04l-5.23 3.03v14.04z" fill="#bb464b"/><path d="M22.84 23.23v-6.29L17.4 13.8l-5.45 3.14v6.29l5.45-3.14z" fill="#bb464b"/><path fill="#e0ded8" d="M17.4 34.13l12.16-7.02V13.07l-6.72 3.87v6.29l-5.44 3.14z"/><path fill="#d5d2ca" d="M17.4 34.13L5.24 27.11V13.07l6.71 3.87v6.29l5.45 3.14z"/><path fill="#fff" d="M11.95 16.94l-6.71-3.87L22.63 3.02l6.72 3.88-5.24 3.02 5.45 3.15-6.72 3.87-5.44-3.14z"/></g></g></svg>