<svg xmlns="http://www.w3.org/2000/svg" xmlns:xlink="http://www.w3.org/1999/xlink" viewBox="0 0 36.289 36">
    <defs>
        <path id="a" d="M0 0h181.7v36H0z" />
        <path id="c" d="M0 0h36v36H0z" />
    </defs>
    <g fill="none" fill-rule="evenodd" transform="translate(-2)">
        <mask id="b" fill="#fff">
            <use xlink:href="#a" />
        </mask>
        <g mask="url(#b)">
            <g transform="translate(2)">
                <mask id="d" fill="#fff">
                    <use xlink:href="#c" />
                </mask>
                <path fill="#0d3cfb"
                    d="M18 31.297c-7.344 0-13.297-5.953-13.297-13.297S10.656 4.703 18 4.703 31.297 10.656 31.297 18 25.344 31.297 18 31.297m8.713.173a5.634 5.634 0 0 1 5.87-5.22 2.05 2.05 0 0 0 1.994-1.227l.006-.015A17.9 17.9 0 0 0 36 18a17.9 17.9 0 0 0-1.417-7.008 17.9 17.9 0 0 0-3.855-5.72 17.9 17.9 0 0 0-5.72-3.855A17.9 17.9 0 0 0 18 0a17.9 17.9 0 0 0-7.008 1.417 17.9 17.9 0 0 0-5.72 3.855 17.9 17.9 0 0 0-3.855 5.72A17.9 17.9 0 0 0 0 18c0 2.428.477 4.786 1.417 7.008a17.9 17.9 0 0 0 3.855 5.72 17.9 17.9 0 0 0 5.72 3.856A17.9 17.9 0 0 0 18 36a17.9 17.9 0 0 0 7.529-1.646 2.06 2.06 0 0 0 1.189-2.036 6 6 0 0 1-.005-.848"
                    mask="url(#d)" />
            </g>
            <path fill="#e10602" d="M38.289 31.862a3.973 3.973 0 1 1-7.945 0 3.973 3.973 0 0 1 7.945 0" />
            <path fill="#0d3cfb"
                d="m22.216 19.913 3.443-1.988-3.443-1.987a2.14 2.14 0 0 1-1.07-1.852v-1.794c0-1.317 1.427-2.141 2.568-1.482l5.003 2.889a2.85 2.85 0 0 1 1.427 2.47v3.661c0 1.02-.544 1.961-1.426 2.471l-5.005 2.89c-1.14.658-2.567-.166-2.567-1.483l.001-1.942c0-.765.407-1.471 1.07-1.853m-4.433 0-3.443-1.988 3.443-1.987a2.14 2.14 0 0 0 1.069-1.853v-1.794c0-1.316-1.426-2.14-2.567-1.481l-5.003 2.889a2.85 2.85 0 0 0-1.427 2.47v3.661c0 1.02.544 1.961 1.426 2.471l5.004 2.889c1.141.659 2.568-.165 2.568-1.482l-.001-1.942c0-.765-.407-1.471-1.07-1.853" />
        </g>
    </g>
</svg>