<svg xmlns="http://www.w3.org/2000/svg" viewBox="0 0 46.03 52"><path fill="#5bca87" d="m44.06 12.155-8.631 5.006a1.96 1.96 0 0 1-1.942 0l-9.522-5.495a1.96 1.96 0 0 0-1.942 0l-9.508 5.495a1.96 1.96 0 0 1-1.942 0l-8.631-4.992L23.015 0z"/><path fill="#ec5d3e" d="M37.4 20.512c-.59.348-.952.983-.95 1.669v10.99a2 2 0 0 1-.259.963c-.17.293-.412.536-.704.705l-9.595 5.438c-.295.165-.54.41-.705.704a1.9 1.9 0 0 0-.259.979v9.982l9.595-5.494 11.507-6.603V15.507z"/><path fill="#2464f5" d="M20.8 41.039a2 2 0 0 0-.662-.762l-9.594-5.452a1.96 1.96 0 0 1-.935-1.654V22.167a1.93 1.93 0 0 0-.978-1.64l-.978-.561L0 15.506v24.34l11.508 6.602L21.116 52v-9.983a1.9 1.9 0 0 0-.316-.978"/></svg>