<svg xmlns="http://www.w3.org/2000/svg" fill="none" viewBox="0 0 408 408"><path fill="url(#a)" d="M0 81.6C0 36.534 36.534 0 81.6 0H204c112.67 0 204 91.334 204 204s-91.334 204-204 204S0 316.666 0 204z"/><g fill="#fff"><path fill-opacity=".5" fill-rule="evenodd" d="M104.45 0h52.224v104.45h109.5c45.884 0 83.081 37.197 83.081 83.081 0 89.315-72.404 161.72-161.72 161.72-45.884 0-83.081-37.197-83.081-83.081v-109.5H.004v-52.224h104.45zm52.224 156.67v109.5c0 17.042 13.815 30.857 30.857 30.857 60.472 0 109.5-49.023 109.5-109.5 0-17.042-13.815-30.857-30.857-30.857z" clip-rule="evenodd"/><path fill-opacity=".7" d="M156.67 50.592c0-14.421-11.691-26.112-26.112-26.112s-26.112 11.691-26.112 26.112v53.856H50.59c-14.421 0-26.112 11.691-26.112 26.112s11.691 26.112 26.112 26.112h53.856v53.856c0 14.421 11.691 26.112 26.112 26.112s26.112-11.691 26.112-26.112v-53.856h53.856c14.421 0 26.112-11.691 26.112-26.112s-11.691-26.112-26.112-26.112H156.67z"/><path d="M212.82 126.23c3.333 1.924 3.333 6.736 0 8.66l-14.376 8.3c-3.334 1.925-7.5-.481-7.5-4.33v-16.6c0-3.849 4.166-6.255 7.5-4.33zM134.89 212.82c-1.924 3.333-6.736 3.333-8.66 0l-8.3-14.376c-1.925-3.333.481-7.5 4.33-7.5h16.6c3.849 0 6.255 4.167 4.33 7.5zM126.23 48.3c1.924-3.333 6.736-3.333 8.66 0l8.3 14.376c1.925 3.333-.481 7.5-4.33 7.5h-16.6c-3.849 0-6.255-4.167-4.33-7.5zM48.3 134.89c-3.334-1.924-3.334-6.736 0-8.66l14.376-8.3c3.333-1.925 7.5.481 7.5 4.33v16.6c0 3.849-4.167 6.255-7.5 4.33z"/></g><defs><linearGradient id="a" x1="100" x2="508" y1="100" y2="508" gradientTransform="translate(-100 -100)" gradientUnits="userSpaceOnUse"><stop offset=".068" stop-color="#0047AB"/><stop offset=".741" stop-color="#8A2BE2"/></linearGradient></defs></svg>