<svg xmlns="http://www.w3.org/2000/svg" viewBox="0 0 51.509 37.725"><g transform="translate(-32.107 -123.31)"><g fill="#fefefe"><circle cx="62.581" cy="128.15" r="3.043" style="paint-order:markers stroke fill"/><circle cx="73.807" cy="134.58" r="3.043" style="paint-order:markers stroke fill"/><circle cx="78.47" cy="146.07" r="3.043" style="paint-order:markers stroke fill"/></g><circle cx="65.208" cy="154.17" r="3.043" fill="#dadada" style="paint-order:markers stroke fill"/><g stroke="#fff"><path fill="#c3c3c3" stroke-width="4.157" d="M2246 2340.2h-.047c-.98 3.068-1.739 6.4-1.883 10.195-.271 7.126.453 11.464-.367 16.08s-3.245 9.161-9.414 16.287c-7.343 8.482-18.98 15.045-32.42 17.264a70 70 0 0 1-7.92 4.363c10.462 3.939 21.402 4.153 30.076 1.307 15.279-5.014 14.096-8.616 20.943-19.107 2.157-3.305 4.647-5.828 7.148-7.9 7.125 3.106 14.143 5.101 18.516 4.607 2.351-5.45-.057-11.771-4.058-17.746 3.282-10.196-1.699-20.406-12.73-24.016-2.878-.942-5.463-1.385-7.844-1.338zm8.275 14.971a4.167 4.246 48.68 0 1 3.198 1.397 4.167 4.246 48.68 0 1-.438 5.933 4.167 4.246 48.68 0 1-5.94-.326 4.167 4.246 48.68 0 1 .438-5.934 4.167 4.246 48.68 0 1 2.742-1.07zm-68.375 45.379c.128.075.258.14.385.215l.395-.15c-.26-.024-.52-.04-.78-.065z" style="paint-order:markers stroke fill" transform="translate(-517.95 -478.52)scale(.26458)"/><g fill="#ececec" stroke-width="1.885" style="paint-order:markers stroke fill"><path fill="#282828" stroke-width="4.157" d="M2191.1 2276.8c-5.973-.035-12.098 2.348-17.361 7.459-6.913 6.713-9.06 12.756-7.848 20.295l.332 2.068-2.066-.336c-15.188-2.46-33.985-1.217-55.371 7.434 6.287 2.695 17.826 7.193 30.63 13.342l4.061 1.951-4.414.895c-16.909 3.427-36.973 13.328-55.299 34.934 8.198-.637 24.953-2.61 42.428-2.582 9.714.015 19.287.687 27.086 2.709 7.8 2.022 14.887 6.65 15.886 10.04s.432 5.177-.552 7.83-4.01 6.68-8.195 9.341-9.496 4.985-15.014 6.96c-11.035 3.953-22.78 6.478-27.965 6.96-1.102.102-1.542.498-1.967 1.27-.424.77-.659 1.982-.693 3.25-.046 1.692.217 2.576.695 3.246s1.224.938 1.993.99c32.582 2.205 56.944-5.991 74.638-13.012 20.351-9.331 33.213-27.758 36.006-44.348 1.75-10.395 1.375-15.49-.312-19.828-1.687-4.339-4.922-8.192-9.026-15.55-2.636-4.727-4.107-9.366-5.02-13.687l-.192-.91.726-.582c7.54-6.045 13.681-12.644 15.91-17.45-4.574-4.864-12.479-5.892-21.322-4.947l-.726.076-.512-.521c-4.713-4.8-10.562-7.262-16.535-7.297zm2.648 11.232c2.593-.041 4.881 1.757 5.502 4.322.731 3.022-1.08 6.053-4.047 6.77-2.965.717-5.962-1.15-6.693-4.172s1.081-6.053 4.047-6.77c.39-.094.79-.144 1.191-.15z" color="#000" style="font-feature-settings:normal;font-variant-alternates:normal;font-variant-caps:normal;font-variant-east-asian:normal;font-variant-ligatures:normal;font-variant-numeric:normal;font-variant-position:normal;font-variation-settings:normal;inline-size:0;isolation:auto;mix-blend-mode:normal;paint-order:markers stroke fill;shape-margin:0;shape-padding:0;text-decoration-color:#000;text-decoration-line:none;text-decoration-style:solid;text-indent:0;text-orientation:mixed;text-transform:none;white-space:normal" transform="matrix(.26459 0 0 .26459 -517.978 -478.553)"/></g><g fill="#757575" stroke-width="2.159" style="paint-order:markers stroke fill"><path stroke-width="4.157" d="M2230.9 2301.2a24.6 24.6 0 0 0-5.978.633c-.14.032-.262.07-.399.103-2.274 2.248-4.813 4.505-7.53 6.717.875 3.86 2.174 7.883 4.471 12.002 3.988 7.15 7.275 10.966 9.204 15.926s2.263 10.794.474 21.424c-2.218 13.178-10.24 27.132-22.959 37.434 9.872-2.879 18.287-8.191 23.858-14.627 6.013-6.946 8.02-10.876 8.723-14.836s.044-8.3.324-15.664c.18-4.745 1.191-8.896 2.477-12.545l.308-.875.922-.12c8.228-1.068 15.665-3.168 19.51-5.65-1.235-5.551-6.48-9.86-13.428-13.134l-.662-.313-.166-.713c-2.203-9.461-9.59-15.563-19.148-15.762zm4.783 11.686a4.823 4.914 17.729 0 1 1.447.225 4.823 4.914 17.729 0 1 3.098 6.148 4.823 4.914 17.729 0 1-6.09 3.213 4.823 4.914 17.729 0 1-3.097-6.149 4.823 4.914 17.729 0 1 4.642-3.437z" color="#000" style="font-feature-settings:normal;font-variant-alternates:normal;font-variant-caps:normal;font-variant-east-asian:normal;font-variant-ligatures:normal;font-variant-numeric:normal;font-variant-position:normal;font-variation-settings:normal;inline-size:0;isolation:auto;mix-blend-mode:normal;paint-order:markers stroke fill;shape-margin:0;shape-padding:0;text-decoration-color:#000;text-decoration-line:none;text-decoration-style:solid;text-indent:0;text-orientation:mixed;text-transform:none;white-space:normal" transform="matrix(.26458 0 0 .26458 -517.971 -478.529)"/></g></g></g></svg>