<svg xmlns="http://www.w3.org/2000/svg" viewBox="0 0 37.239 45"><path fill="#fff" d="M21.651 45 0 32.5v-27L9.526 0h24.25l3.463 2v34z"/><path stroke-width=".265" d="M33.581 32.344q0 1.027-.593 1.962-.592.895-1.58 1.466l-2.37 1.368q-1.028.594-1.62.383-.554-.274-.554-1.301V14.53q0-.711.474-1.42.474-.708.87-.897l.434-.25.316-.183q.316-.222.79-.061.475.16.475.832v7.31q0 2.015.197 2.454.198.44.948.796l.949.361q.79.255 1.027.711t.237 2.51z"/><path fill="#010101" stroke-width=".265" d="m9.784 31.653 1.027.593q.435.25.632.365 1.146.661 1.383.6.277-.077.277-1.143V15.907q0-1.185-.237-1.56-.198-.39-1.265-1.006l-3.516-2.03-1.067-.616-.592-.342Q5.2 9.646 4.964 9.785q-.237.14-.237 1.444v15.685q0 1.265.237 1.679.237.413 1.422 1.097zm-8.376-3.967V6.548q0-.87.632-1.136.671-.284 1.501.195l10.787 6.228q.79.456 1.462 1.476t.672 1.928v21.138q0 2.174-2.173.919L3.542 31.09q-2.134-1.232-2.134-3.405z"/><path fill="#7137c8" d="m11.262 1 10.392 6 10.392-6 3.464 2v8l-3.464-2-6.928 4v24l3.464 2-6.928 4-6.929-4 3.465-2V13L11.26 9l-3.464 2V3z"/><path fill="#442178" d="m21.651 11 13.856-8v8l-3.464-2-6.928 4v24l3.464 2-6.928 4z"/><path fill="#8d5fd3" d="m21.651 11 13.856-8-3.464-2L21.65 7 11.259 1 7.795 3z"/></svg>