<svg viewBox="0 0 39.119 39.123" xmlns="http://www.w3.org/2000/svg"><path d="M38.526 24.3C35.914 34.78 25.3 41.157 14.82 38.544 4.343 35.931-2.035 25.317.58 14.838 3.191 4.358 13.805-2.02 24.282.592 34.762 3.205 41.139 13.82 38.526 24.3z" fill="#f7931a"/><path d="M28.177 16.781c.39-2.602-1.592-4.002-4.302-4.935l.879-3.526-2.146-.535-.856 3.433a89.782 89.782 0 00-1.72-.405l.862-3.455-2.145-.535-.88 3.525a71.8 71.8 0 01-1.37-.322l.003-.012-2.96-.739-.571 2.293s1.592.365 1.559.387c.869.217 1.026.793 1 1.249l-1.002 4.016c.06.016.138.038.223.072l-.226-.056-1.404 5.627c-.106.264-.376.66-.983.51.02.03-1.56-.39-1.56-.39L9.512 25.44l2.793.696c.52.13 1.029.267 1.53.395l-.888 3.566 2.144.535.88-3.528c.585.159 1.153.305 1.71.444l-.877 3.511 2.146.535.889-3.56c3.66.693 6.411.414 7.57-2.896.933-2.665-.047-4.203-1.972-5.205 1.402-.324 2.458-1.246 2.74-3.152zm-4.904 6.877c-.663 2.665-5.15 1.224-6.605.863l1.178-4.725c1.455.363 6.12 1.082 5.427 3.862zm.664-6.915c-.605 2.424-4.34 1.193-5.551.89l1.068-4.285c1.212.302 5.113.866 4.483 3.395z" fill="#fff"/></svg>
