<svg clip-rule="evenodd" fill-rule="evenodd" stroke-linejoin="round" stroke-miterlimit="1.414" viewBox="0 0 56.696 46.055" xmlns="http://www.w3.org/2000/svg"><g fill-rule="nonzero"><path d="M29.555 25.895c.106-1.89 1.032-3.557 2.43-4.738 1.37-1.16 3.213-1.869 5.225-1.869 2.01 0 3.854.71 5.225 1.87 1.396 1.18 2.322 2.846 2.43 4.735.105 1.943-.676 3.748-2.046 5.086-1.397 1.361-3.384 2.215-5.609 2.215s-4.216-.854-5.612-2.215c-1.37-1.338-2.15-3.143-2.043-5.084z" fill="#0e548b"/><path d="M17.365 29.716c.013.74.25 2.178.603 3.301.744 2.377 2.006 4.576 3.762 6.514 1.802 1.992 4.021 3.592 6.584 4.728 2.694 1.193 5.613 1.801 8.645 1.796a21.179 21.179 0 008.64-1.826c2.563-1.147 4.78-2.754 6.58-4.747 1.754-1.946 3.014-4.149 3.76-6.526.375-1.2.612-2.42.707-3.643a16.605 16.605 0 00-.117-3.618 16.819 16.819 0 00-2.399-6.565 18.316 18.316 0 00-4.376-4.825l.004-.003L32.048.703C32.03.691 32.017.678 32 .667c-1.162-.892-3.116-.889-4.394.005-1.292.904-1.44 2.4-.29 3.342l-.005.005 7.387 6.007-22.515.024h-.03c-1.86.002-3.65 1.223-4.004 2.766-.364 1.572.9 2.876 2.835 2.883l-.003.007 11.412-.022L2.03 31.315l-.078.058C.032 32.844-.59 35.29.62 36.838c1.228 1.574 3.84 1.577 5.78.01l11.114-9.097s-.162 1.228-.149 1.965zm28.56 4.112c-2.29 2.333-5.497 3.656-8.966 3.663-3.474.006-6.68-1.305-8.97-3.634a10.665 10.665 0 01-2.448-3.832 9.95 9.95 0 01-.562-4.282 10.11 10.11 0 011.227-4.03 11.11 11.11 0 012.724-3.24c2.226-1.814 5.06-2.796 8.024-2.8 2.967-.004 5.8.97 8.027 2.777a11.067 11.067 0 012.721 3.23 10.115 10.115 0 011.232 4.028 9.975 9.975 0 01-.564 4.28 10.714 10.714 0 01-2.446 3.84z" fill="#f4792b"/></g></svg>
