<svg xmlns="http://www.w3.org/2000/svg" fill="none" viewBox="0 0 109 109"><g fill="#0096cf"><path fill-rule="evenodd" d="m68.118 7.223-1.867-5.21a1.5 1.5 0 0 0-2.523-.503L60 5.618q-.678-.075-1.362-.133L55.786.728a1.5 1.5 0 0 0-2.572 0l-2.855 4.758q-.683.057-1.362.132L45.27 1.51a1.5 1.5 0 0 0-2.523.502L40.88 7.224q-.666.19-1.323.4L35.109 4.33a1.5 1.5 0 0 0-2.376.984l-.816 5.48q-.611.315-1.213.65l-5.01-2.367a1.5 1.5 0 0 0-2.14 1.43l.27 5.542q-.533.426-1.053.866l-5.385-1.346a1.5 1.5 0 0 0-1.82 1.82l1.347 5.384q-.44.52-.866 1.054l-5.543-.27a1.5 1.5 0 0 0-1.43 2.14l2.368 5.009q-.335.602-.65 1.214l-5.48.815a1.5 1.5 0 0 0-.984 2.377l3.296 4.447q-.21.658-.401 1.323l-5.211 1.867a1.5 1.5 0 0 0-.502 2.523l4.107 3.727q-.075.678-.132 1.36L.728 53.215a1.5 1.5 0 0 0 0 2.572l4.757 2.855q.057.684.132 1.36L1.51 63.73a1.5 1.5 0 0 0 .502 2.523l5.21 1.867q.192.665.4 1.323L4.33 73.889a1.5 1.5 0 0 0 .985 2.377l5.478.815q.317.612.65 1.214l-2.366 5.01a1.5 1.5 0 0 0 1.429 2.138l5.543-.27q.426.534.866 1.055l-1.346 5.385a1.5 1.5 0 0 0 1.82 1.819l5.384-1.346q.52.44 1.054.866l-.27 5.543a1.5 1.5 0 0 0 2.14 1.43l5.009-2.367q.602.333 1.214.65l.815 5.478c.078.522.423.964.91 1.165a1.5 1.5 0 0 0 1.467-.18l4.447-3.295q.658.209 1.323.4l1.867 5.212a1.5 1.5 0 0 0 2.523.502l3.727-4.108q.678.075 1.36.132l2.856 4.758a1.5 1.5 0 0 0 2.572 0l2.855-4.758q.683-.056 1.36-.132l3.728 4.107a1.498 1.498 0 0 0 2.523-.501l1.867-5.211q.665-.192 1.323-.401l4.447 3.295a1.498 1.498 0 0 0 2.377-.985l.815-5.478q.612-.317 1.214-.65l5.01 2.366a1.5 1.5 0 0 0 2.138-1.43l-.27-5.541q.534-.426 1.056-.867l5.384 1.346a1.5 1.5 0 0 0 1.819-1.82l-1.346-5.383q.44-.522.867-1.055l5.542.27a1.5 1.5 0 0 0 1.429-2.14l-2.366-5.008q.333-.603.65-1.215l5.478-.815a1.5 1.5 0 0 0 .985-2.377l-3.295-4.447q.21-.658.4-1.323l5.21-1.867a1.498 1.498 0 0 0 .503-2.523l-4.107-3.726q.075-.68.133-1.363l4.756-2.854a1.5 1.5 0 0 0 0-2.572l-4.756-2.854q-.058-.684-.133-1.363l4.107-3.726a1.5 1.5 0 0 0-.502-2.523l-5.21-1.867a46 46 0 0 0-.402-1.324l3.295-4.446a1.5 1.5 0 0 0-.984-2.377l-5.478-.815a50 50 0 0 0-.65-1.215l2.366-5.01a1.5 1.5 0 0 0-1.43-2.137l-5.541.27a50 50 0 0 0-.867-1.056l1.346-5.384a1.5 1.5 0 0 0-1.82-1.82l-5.383 1.347q-.522-.441-1.056-.867l.27-5.542a1.5 1.5 0 0 0-2.14-1.43l-5.008 2.367a49 49 0 0 0-1.214-.65l-.815-5.48a1.5 1.5 0 0 0-2.377-.983l-4.447 3.295q-.658-.21-1.323-.4M19.203 35.27l3.377 6.627a3 3 0 0 1-1.311 4.035l-6.624 3.375q-.331 2.55-.332 5.192c0 10.7 4.182 20.424 11 27.625l7.337-1.162a3 3 0 0 1 3.432 2.494l1.164 7.348c5.228 2.488 11.077 3.88 17.252 3.88s12.025-1.392 17.252-3.88l1.164-7.35a3 3 0 0 1 3.432-2.492l7.338 1.162c6.818-7.202 11-16.925 11-27.625q-.001-2.641-.332-5.192l-6.624-3.375a3 3 0 0 1-1.311-4.035l3.377-6.628c-5.69-10.42-15.857-18.042-27.916-20.28l-5.26 5.258a3 3 0 0 1-4.242 0l-5.257-5.258c-12.06 2.238-22.227 9.86-27.916 20.282z" clip-rule="evenodd"/><path d="M58.499 61.5c1.528 2.53 5.505 4.584 9.02 4.584 2.955 0 4.842-1.497 4.842-3.566 0-2.48-1.94-3.357-5.19-4.8l-1.782-.775c-5.145-2.223-8.563-5.007-8.563-10.893 0-5.422 4.074-9.55 10.44-9.55 2.886 0 5.433 1.013 7.16 3.038a5 5 0 0 1 3.48 6.108l-.635 2.37 2.14 3.705-1.186-.318-.318 1.186-2.14-3.706-2.37-.635a5 5 0 0 1-3.706-4.842c-.695-.416-1.482-.6-2.424-.6-2.088 0-3.411 1.343-3.411 3.097 0 2.17 1.324 3.047 4.383 4.39l1.782.775c6.058 2.634 9.478 5.32 9.478 11.357 0 6.51-5.042 10.075-11.814 10.075-6.621 0-10.778-5.9-9.186-11m-23.197.82c1.12 2.015 2.139 3.719 4.588 3.719 2.342 0 3.82-.93 3.82-4.543V36.913h7.13v24.68c0 7.487-4.33 10.894-10.647 10.894-5.708 0-9.014-2.996-10.695-6.604z"/></g></svg>