<svg version="1.1" viewBox="0 0 53.57 25.414" xmlns="http://www.w3.org/2000/svg"><g transform="matrix(.08467 0 0 .08467 -117.92 -13.137)" clip-path="url(#clipPath1764)"><path transform="matrix(2.9889,0,0,2.9889,1854.3,395.81)" d="m57.23-25.594h-2.5898q-8.6836 0-12.898 4.875-4.2148 4.8242-4.2148 13.406v7.5664q0 9.5469-5.6875 14.574-5.6367 5.0781-14.727 5.0781h-7.6172v-7.0078h5.7891q6.9062 0 10.004-3.1992 3.1484-3.1992 3.1484-10.309v-8.8867q0-7.0586 3.9102-11.832 3.9102-4.8242 10.867-7.6172v-1.2188q-6.957-2.793-10.867-7.5664-3.9102-4.8242-3.9102-11.883v-8.8867q0-7.1094-3.1484-10.309-3.0977-3.1992-10.004-3.1992h-5.7891v-7.0078h7.6172q9.0898 0 14.727 5.0781 5.6875 5.0273 5.6875 14.574v7.5664q0 8.582 4.2148 13.457 4.2148 4.8242 12.898 4.8242h2.5898z"/><path transform="matrix(2.9889,0,0,2.9889,1563.7,201.53)" d="m6.6041-15.517q2.4172 0 3.7121 2.0827 1.3057 2.0719 1.3057 5.8271 0 3.6366-1.2625 5.7732-1.2625 2.1258-3.7553 2.1258-2.4064 0-3.7121-2.0719t-1.3057-5.8271q0-3.6474 1.2625-5.7732 1.2733-2.1366 3.7553-2.1366zm0 14.255q1.5971 0 2.3632-1.5107 0.77695-1.5215 0.77695-4.8344 0-3.3236-0.77695-4.8236-0.76616-1.5107-2.3632-1.5107-1.5755 0-2.3524 1.5431-0.77695 1.5431-0.77695 4.7912 0 3.2913 0.76616 4.8236 0.77695 1.5215 2.3632 1.5215zm-0.043164-7.9638q0.67983 0 1.1438 0.4748 0.4748 0.46401 0.4748 1.1438 0 0.70142-0.4748 1.2086-0.4748 0.49639-1.1438 0.49639-0.65825 0-1.1331-0.49639-0.46401-0.50718-0.46401-1.2086 0-0.69063 0.45322-1.1546 0.46401-0.46401 1.1438-0.46401zm16.575 9.2263h-8.0069v-1.5431h3.2265v-11.827l-3.0431 1.5215v-1.7697l3.2913-1.6942h1.5215v13.769h3.0107zm7.7695-15.517q2.4172 0 3.7121 2.0827 1.3057 2.0719 1.3057 5.8271 0 3.6366-1.2625 5.7732-1.2625 2.1258-3.7553 2.1258-2.4064 0-3.7121-2.0719t-1.3057-5.8271q0-3.6474 1.2625-5.7732 1.2733-2.1366 3.7553-2.1366zm0 14.255q1.5971 0 2.3632-1.5107 0.77695-1.5215 0.77695-4.8344 0-3.3236-0.77695-4.8236-0.76616-1.5107-2.3632-1.5107-1.5755 0-2.3524 1.5431t-0.77695 4.7912q0 3.2913 0.76616 4.8236 0.77695 1.5215 2.3632 1.5215zm-0.04316-7.9638q0.67983 0 1.1438 0.4748 0.4748 0.46401 0.4748 1.1438 0 0.70142-0.4748 1.2086-0.4748 0.49639-1.1438 0.49639-0.65825 0-1.1331-0.49639-0.46401-0.50718-0.46401-1.2086 0-0.69063 0.45322-1.1546 0.46401-0.46401 1.1438-0.46401zm12.194-6.2912q2.4172 0 3.7121 2.0827 1.3057 2.0719 1.3057 5.8271 0 3.6366-1.2625 5.7732-1.2625 2.1258-3.7553 2.1258-2.4064 0-3.7121-2.0719t-1.3057-5.8271q0-3.6474 1.2625-5.7732 1.2733-2.1366 3.7553-2.1366zm0 14.255q1.5971 0 2.3632-1.5107 0.77695-1.5215 0.77695-4.8344 0-3.3236-0.77695-4.8236-0.76616-1.5107-2.3632-1.5107-1.5755 0-2.3524 1.5431t-0.77695 4.7912q0 3.2913 0.76616 4.8236 0.77695 1.5215 2.3632 1.5215zm-0.04316-7.9638q0.67983 0 1.1438 0.4748 0.4748 0.46401 0.4748 1.1438 0 0.70142-0.4748 1.2086-0.4748 0.49639-1.1438 0.49639-0.65825 0-1.1331-0.49639-0.46401-0.50718-0.46401-1.2086 0-0.69063 0.45322-1.1546 0.46401-0.46401 1.1438-0.46401zm12.194-6.2912q2.4172 0 3.7121 2.0827 1.3057 2.0719 1.3057 5.8271 0 3.6366-1.2625 5.7732-1.2625 2.1258-3.7553 2.1258-2.4064 0-3.7121-2.0719t-1.3057-5.8271q0-3.6474 1.2625-5.7732 1.2733-2.1366 3.7553-2.1366zm0 14.255q1.5971 0 2.3632-1.5107 0.77695-1.5215 0.77695-4.8344 0-3.3236-0.77695-4.8236-0.76616-1.5107-2.3632-1.5107-1.5755 0-2.3524 1.5431-0.77695 1.5431-0.77695 4.7912 0 3.2913 0.76616 4.8236 0.77695 1.5215 2.3632 1.5215zm-0.04316-7.9638q0.67983 0 1.1438 0.4748 0.4748 0.46401 0.4748 1.1438 0 0.70142-0.4748 1.2086-0.4748 0.49639-1.1438 0.49639-0.65825 0-1.1331-0.49639-0.46401-0.50718-0.46401-1.2086 0-0.69063 0.45322-1.1546 0.46401-0.46401 1.1438-0.46401zm12.194-6.2912q2.4172 0 3.7121 2.0827 1.3057 2.0719 1.3057 5.8271 0 3.6366-1.2625 5.7732-1.2625 2.1258-3.7553 2.1258-2.4064 0-3.7121-2.0719t-1.3057-5.8271q0-3.6474 1.2625-5.7732 1.2733-2.1366 3.7553-2.1366zm0 14.255q1.5971 0 2.3632-1.5107 0.77695-1.5215 0.77695-4.8344 0-3.3236-0.77695-4.8236-0.76616-1.5107-2.3632-1.5107-1.5755 0-2.3524 1.5431t-0.77695 4.7912q0 3.2913 0.76616 4.8236 0.77695 1.5215 2.3632 1.5215zm-0.04316-7.9638q0.67983 0 1.1438 0.4748 0.4748 0.46401 0.4748 1.1438 0 0.70142-0.4748 1.2086-0.4748 0.49639-1.1438 0.49639-0.65825 0-1.1331-0.49639-0.46401-0.50718-0.46401-1.2086 0-0.69063 0.45322-1.1546 0.46401-0.46401 1.1438-0.46401zm16.575 9.2263h-8.0069v-1.5431h3.2265v-11.827l-3.0431 1.5215v-1.7697l3.2913-1.6942h1.5215v13.769h3.0107zm7.7695-15.517q2.4172 0 3.7121 2.0827 1.3057 2.0719 1.3057 5.8271 0 3.6366-1.2625 5.7732-1.2625 2.1258-3.7553 2.1258-2.4064 0-3.7121-2.0719t-1.3057-5.8271q0-3.6474 1.2625-5.7732 1.2733-2.1366 3.7553-2.1366zm0 14.255q1.5971 0 2.3632-1.5107 0.77695-1.5215 0.77695-4.8344 0-3.3236-0.77695-4.8236-0.76616-1.5107-2.3632-1.5107-1.5755 0-2.3524 1.5431t-0.77695 4.7912q0 3.2913 0.76616 4.8236 0.77695 1.5215 2.3632 1.5215zm-0.04316-7.9638q0.67983 0 1.1438 0.4748 0.4748 0.46401 0.4748 1.1438 0 0.70142-0.4748 1.2086-0.4748 0.49639-1.1438 0.49639-0.65825 0-1.1331-0.49639-0.46401-0.50718-0.46401-1.2086 0-0.69063 0.45322-1.1546 0.46401-0.46401 1.1438-0.46401z"/><path transform="matrix(2.9889,0,0,2.9889,1563.7,282.23)" d="m6.6041-15.517q2.4172 0 3.7121 2.0827 1.3057 2.0719 1.3057 5.8271 0 3.6366-1.2625 5.7732-1.2625 2.1258-3.7553 2.1258-2.4064 0-3.7121-2.0719t-1.3057-5.8271q0-3.6474 1.2625-5.7732 1.2733-2.1366 3.7553-2.1366zm0 14.255q1.5971 0 2.3632-1.5107 0.77695-1.5215 0.77695-4.8344 0-3.3236-0.77695-4.8236-0.76616-1.5107-2.3632-1.5107-1.5755 0-2.3524 1.5431-0.77695 1.5431-0.77695 4.7912 0 3.2913 0.76616 4.8236 0.77695 1.5215 2.3632 1.5215zm-0.043164-7.9638q0.67983 0 1.1438 0.4748 0.4748 0.46401 0.4748 1.1438 0 0.70142-0.4748 1.2086-0.4748 0.49639-1.1438 0.49639-0.65825 0-1.1331-0.49639-0.46401-0.50718-0.46401-1.2086 0-0.69063 0.45322-1.1546 0.46401-0.46401 1.1438-0.46401zm16.575 9.2263h-8.0069v-1.5431h3.2265v-11.827l-3.0431 1.5215v-1.7697l3.2913-1.6942h1.5215v13.769h3.0107zm7.7695-15.517q2.4172 0 3.7121 2.0827 1.3057 2.0719 1.3057 5.8271 0 3.6366-1.2625 5.7732-1.2625 2.1258-3.7553 2.1258-2.4064 0-3.7121-2.0719t-1.3057-5.8271q0-3.6474 1.2625-5.7732 1.2733-2.1366 3.7553-2.1366zm0 14.255q1.5971 0 2.3632-1.5107 0.77695-1.5215 0.77695-4.8344 0-3.3236-0.77695-4.8236-0.76616-1.5107-2.3632-1.5107-1.5755 0-2.3524 1.5431t-0.77695 4.7912q0 3.2913 0.76616 4.8236 0.77695 1.5215 2.3632 1.5215zm-0.04316-7.9638q0.67983 0 1.1438 0.4748 0.4748 0.46401 0.4748 1.1438 0 0.70142-0.4748 1.2086-0.4748 0.49639-1.1438 0.49639-0.65825 0-1.1331-0.49639-0.46401-0.50718-0.46401-1.2086 0-0.69063 0.45322-1.1546 0.46401-0.46401 1.1438-0.46401zm16.575 9.2263h-8.0069v-1.5431h3.2265v-11.827l-3.0431 1.5215v-1.7697l3.2913-1.6942h1.5215v13.769h3.0107zm7.7695-15.517q2.4172 0 3.7121 2.0827 1.3057 2.0719 1.3057 5.8271 0 3.6366-1.2625 5.7732-1.2625 2.1258-3.7553 2.1258-2.4064 0-3.7121-2.0719t-1.3057-5.8271q0-3.6474 1.2625-5.7732 1.2733-2.1366 3.7553-2.1366zm0 14.255q1.5971 0 2.3632-1.5107 0.77695-1.5215 0.77695-4.8344 0-3.3236-0.77695-4.8236-0.76616-1.5107-2.3632-1.5107-1.5755 0-2.3524 1.5431-0.77695 1.5431-0.77695 4.7912 0 3.2913 0.76616 4.8236 0.77695 1.5215 2.3632 1.5215zm-0.04316-7.9638q0.67983 0 1.1438 0.4748 0.4748 0.46401 0.4748 1.1438 0 0.70142-0.4748 1.2086-0.4748 0.49639-1.1438 0.49639-0.65825 0-1.1331-0.49639-0.46401-0.50718-0.46401-1.2086 0-0.69063 0.45322-1.1546 0.46401-0.46401 1.1438-0.46401zm12.194-6.2912q2.4172 0 3.7121 2.0827 1.3057 2.0719 1.3057 5.8271 0 3.6366-1.2625 5.7732-1.2625 2.1258-3.7553 2.1258-2.4064 0-3.7121-2.0719t-1.3057-5.8271q0-3.6474 1.2625-5.7732 1.2733-2.1366 3.7553-2.1366zm0 14.255q1.5971 0 2.3632-1.5107 0.77695-1.5215 0.77695-4.8344 0-3.3236-0.77695-4.8236-0.76616-1.5107-2.3632-1.5107-1.5755 0-2.3524 1.5431t-0.77695 4.7912q0 3.2913 0.76616 4.8236 0.77695 1.5215 2.3632 1.5215zm-0.04316-7.9638q0.67983 0 1.1438 0.4748 0.4748 0.46401 0.4748 1.1438 0 0.70142-0.4748 1.2086-0.4748 0.49639-1.1438 0.49639-0.65825 0-1.1331-0.49639-0.46401-0.50718-0.46401-1.2086 0-0.69063 0.45322-1.1546 0.46401-0.46401 1.1438-0.46401zm16.575 9.2263h-8.0069v-1.5431h3.2265v-11.827l-3.0431 1.5215v-1.7697l3.2913-1.6942h1.5215v13.769h3.0107zm12.151 0h-8.0069v-1.5431h3.2265v-11.827l-3.0431 1.5215v-1.7697l3.2913-1.6942h1.5215v13.769h3.0107z"/><path transform="matrix(2.9889,0,0,2.9889,1563.7,362.93)" d="m6.6041-15.517q2.4172 0 3.7121 2.0827 1.3057 2.0719 1.3057 5.8271 0 3.6366-1.2625 5.7732-1.2625 2.1258-3.7553 2.1258-2.4064 0-3.7121-2.0719t-1.3057-5.8271q0-3.6474 1.2625-5.7732 1.2733-2.1366 3.7553-2.1366zm0 14.255q1.5971 0 2.3632-1.5107 0.77695-1.5215 0.77695-4.8344 0-3.3236-0.77695-4.8236-0.76616-1.5107-2.3632-1.5107-1.5755 0-2.3524 1.5431-0.77695 1.5431-0.77695 4.7912 0 3.2913 0.76616 4.8236 0.77695 1.5215 2.3632 1.5215zm-0.043164-7.9638q0.67983 0 1.1438 0.4748 0.4748 0.46401 0.4748 1.1438 0 0.70142-0.4748 1.2086-0.4748 0.49639-1.1438 0.49639-0.65825 0-1.1331-0.49639-0.46401-0.50718-0.46401-1.2086 0-0.69063 0.45322-1.1546 0.46401-0.46401 1.1438-0.46401zm16.575 9.2263h-8.0069v-1.5431h3.2265v-11.827l-3.0431 1.5215v-1.7697l3.2913-1.6942h1.5215v13.769h3.0107zm7.7695-15.517q2.4172 0 3.7121 2.0827 1.3057 2.0719 1.3057 5.8271 0 3.6366-1.2625 5.7732-1.2625 2.1258-3.7553 2.1258-2.4064 0-3.7121-2.0719t-1.3057-5.8271q0-3.6474 1.2625-5.7732 1.2733-2.1366 3.7553-2.1366zm0 14.255q1.5971 0 2.3632-1.5107 0.77695-1.5215 0.77695-4.8344 0-3.3236-0.77695-4.8236-0.76616-1.5107-2.3632-1.5107-1.5755 0-2.3524 1.5431t-0.77695 4.7912q0 3.2913 0.76616 4.8236 0.77695 1.5215 2.3632 1.5215zm-0.04316-7.9638q0.67983 0 1.1438 0.4748 0.4748 0.46401 0.4748 1.1438 0 0.70142-0.4748 1.2086-0.4748 0.49639-1.1438 0.49639-0.65825 0-1.1331-0.49639-0.46401-0.50718-0.46401-1.2086 0-0.69063 0.45322-1.1546 0.46401-0.46401 1.1438-0.46401zm12.194-6.2912q2.4172 0 3.7121 2.0827 1.3057 2.0719 1.3057 5.8271 0 3.6366-1.2625 5.7732-1.2625 2.1258-3.7553 2.1258-2.4064 0-3.7121-2.0719t-1.3057-5.8271q0-3.6474 1.2625-5.7732 1.2733-2.1366 3.7553-2.1366zm0 14.255q1.5971 0 2.3632-1.5107 0.77695-1.5215 0.77695-4.8344 0-3.3236-0.77695-4.8236-0.76616-1.5107-2.3632-1.5107-1.5755 0-2.3524 1.5431t-0.77695 4.7912q0 3.2913 0.76616 4.8236 0.77695 1.5215 2.3632 1.5215zm-0.04316-7.9638q0.67983 0 1.1438 0.4748 0.4748 0.46401 0.4748 1.1438 0 0.70142-0.4748 1.2086-0.4748 0.49639-1.1438 0.49639-0.65825 0-1.1331-0.49639-0.46401-0.50718-0.46401-1.2086 0-0.69063 0.45322-1.1546 0.46401-0.46401 1.1438-0.46401zm16.575 9.2263h-8.0069v-1.5431h3.2265v-11.827l-3.0431 1.5215v-1.7697l3.2913-1.6942h1.5215v13.769h3.0107zm12.151 0h-8.0069v-1.5431h3.2265v-11.827l-3.0431 1.5215v-1.7697l3.2913-1.6942h1.5215v13.769h3.0107zm12.151 0h-8.0069v-1.5431h3.2265v-11.827l-3.0431 1.5215v-1.7697l3.2913-1.6942h1.5215v13.769h3.0107zm12.151 0h-8.0069v-1.5431h3.2265v-11.827l-3.0431 1.5215v-1.7697l3.2913-1.6942h1.5215v13.769h3.0107z"/><path transform="matrix(2.9889,0,0,2.9889,1563.7,443.63)" d="m6.6041-15.517q2.4172 0 3.7121 2.0827 1.3057 2.0719 1.3057 5.8271 0 3.6366-1.2625 5.7732-1.2625 2.1258-3.7553 2.1258-2.4064 0-3.7121-2.0719t-1.3057-5.8271q0-3.6474 1.2625-5.7732 1.2733-2.1366 3.7553-2.1366zm0 14.255q1.5971 0 2.3632-1.5107 0.77695-1.5215 0.77695-4.8344 0-3.3236-0.77695-4.8236-0.76616-1.5107-2.3632-1.5107-1.5755 0-2.3524 1.5431-0.77695 1.5431-0.77695 4.7912 0 3.2913 0.76616 4.8236 0.77695 1.5215 2.3632 1.5215zm-0.043164-7.9638q0.67983 0 1.1438 0.4748 0.4748 0.46401 0.4748 1.1438 0 0.70142-0.4748 1.2086-0.4748 0.49639-1.1438 0.49639-0.65825 0-1.1331-0.49639-0.46401-0.50718-0.46401-1.2086 0-0.69063 0.45322-1.1546 0.46401-0.46401 1.1438-0.46401zm16.575 9.2263h-8.0069v-1.5431h3.2265v-11.827l-3.0431 1.5215v-1.7697l3.2913-1.6942h1.5215v13.769h3.0107zm7.7695-15.517q2.4172 0 3.7121 2.0827 1.3057 2.0719 1.3057 5.8271 0 3.6366-1.2625 5.7732-1.2625 2.1258-3.7553 2.1258-2.4064 0-3.7121-2.0719t-1.3057-5.8271q0-3.6474 1.2625-5.7732 1.2733-2.1366 3.7553-2.1366zm0 14.255q1.5971 0 2.3632-1.5107 0.77695-1.5215 0.77695-4.8344 0-3.3236-0.77695-4.8236-0.76616-1.5107-2.3632-1.5107-1.5755 0-2.3524 1.5431t-0.77695 4.7912q0 3.2913 0.76616 4.8236 0.77695 1.5215 2.3632 1.5215zm-0.04316-7.9638q0.67983 0 1.1438 0.4748 0.4748 0.46401 0.4748 1.1438 0 0.70142-0.4748 1.2086-0.4748 0.49639-1.1438 0.49639-0.65825 0-1.1331-0.49639-0.46401-0.50718-0.46401-1.2086 0-0.69063 0.45322-1.1546 0.46401-0.46401 1.1438-0.46401zm12.194-6.2912q2.4172 0 3.7121 2.0827 1.3057 2.0719 1.3057 5.8271 0 3.6366-1.2625 5.7732-1.2625 2.1258-3.7553 2.1258-2.4064 0-3.7121-2.0719t-1.3057-5.8271q0-3.6474 1.2625-5.7732 1.2733-2.1366 3.7553-2.1366zm0 14.255q1.5971 0 2.3632-1.5107 0.77695-1.5215 0.77695-4.8344 0-3.3236-0.77695-4.8236-0.76616-1.5107-2.3632-1.5107-1.5755 0-2.3524 1.5431t-0.77695 4.7912q0 3.2913 0.76616 4.8236 0.77695 1.5215 2.3632 1.5215zm-0.04316-7.9638q0.67983 0 1.1438 0.4748 0.4748 0.46401 0.4748 1.1438 0 0.70142-0.4748 1.2086-0.4748 0.49639-1.1438 0.49639-0.65825 0-1.1331-0.49639-0.46401-0.50718-0.46401-1.2086 0-0.69063 0.45322-1.1546 0.46401-0.46401 1.1438-0.46401zm16.575 9.2263h-8.0069v-1.5431h3.2265v-11.827l-3.0431 1.5215v-1.7697l3.2913-1.6942h1.5215v13.769h3.0107zm12.151 0h-8.0069v-1.5431h3.2265v-11.827l-3.0431 1.5215v-1.7697l3.2913-1.6942h1.5215v13.769h3.0107zm12.151 0h-8.0069v-1.5431h3.2265v-11.827l-3.0431 1.5215v-1.7697l3.2913-1.6942h1.5215v13.769h3.0107zm7.7695-15.517q2.4172 0 3.7121 2.0827 1.3057 2.0719 1.3057 5.8271 0 3.6366-1.2625 5.7732-1.2625 2.1258-3.7553 2.1258-2.4064 0-3.7121-2.0719t-1.3057-5.8271q0-3.6474 1.2625-5.7732 1.2733-2.1366 3.7553-2.1366zm0 14.255q1.5971 0 2.3632-1.5107 0.77695-1.5215 0.77695-4.8344 0-3.3236-0.77695-4.8236-0.76616-1.5107-2.3632-1.5107-1.5755 0-2.3524 1.5431t-0.77695 4.7912q0 3.2913 0.76616 4.8236 0.77695 1.5215 2.3632 1.5215zm-0.04316-7.9638q0.67983 0 1.1438 0.4748 0.4748 0.46401 0.4748 1.1438 0 0.70142-0.4748 1.2086-0.4748 0.49639-1.1438 0.49639-0.65825 0-1.1331-0.49639-0.46401-0.50718-0.46401-1.2086 0-0.69063 0.45322-1.1546 0.46401-0.46401 1.1438-0.46401z"/><path transform="matrix(2.9889,0,0,2.9889,1366.4,395.81)" d="m56.52 19.906h-7.6172q-9.0898 0-14.777-5.0781-5.6367-5.0273-5.6367-14.574v-7.5664q0-8.582-4.2148-13.406-4.2148-4.875-12.898-4.875h-2.5898v-7.9219h2.5898q8.6836 0 12.898-4.8242 4.2148-4.875 4.2148-13.457v-7.5664q0-9.5469 5.6367-14.574 5.6875-5.0781 14.777-5.0781h7.6172v7.0078h-5.7891q-6.9062 0-10.055 3.1992-3.0977 3.1992-3.0977 10.309v8.8867q0 7.0586-3.9102 11.883-3.9102 4.7734-10.867 7.5664v1.2188q6.957 2.793 10.867 7.6172 3.9102 4.7734 3.9102 11.832v8.8867q0 7.1094 3.0977 10.309 3.1484 3.1992 10.055 3.1992h5.7891z"/></g></svg>
