<svg xmlns="http://www.w3.org/2000/svg" viewBox="0 0 171.19 217.48"><defs><linearGradient id="a" x2="1" gradientTransform="scale(452.63 -452.63)rotate(20.794 8.05 3.791)" gradientUnits="userSpaceOnUse"><stop offset="0" stop-color="#af4f39"/><stop offset="1" stop-color="#f69635"/></linearGradient><linearGradient id="b" x2="1" gradientTransform="scale(698.123 -698.123)rotate(-88.652 .031 -1.164)" gradientUnits="userSpaceOnUse"><stop offset="0" stop-color="#af4f39"/><stop offset="1" stop-color="#f69635"/></linearGradient><linearGradient id="c" x2="1" gradientTransform="scale(-402.4 402.4)rotate(38.764 -4.105 -3.515)" gradientUnits="userSpaceOnUse"><stop offset="0" stop-color="#af4f39"/><stop offset="1" stop-color="#f69635"/></linearGradient></defs><path fill="none" d="M5.523 77.102v82.086l80.071 58.289 80.073-59.39V56.747L99.161 14.203c.757 60.126-49.316 89.964-93.637 62.899z"/><path fill="url(#a)" d="M1338.2 918.6c-177.36-41.934-375.88 9.331-397.84 197.82 49.982 28.485 64.585 93.979 102.45 120.53l-4.829 54.949c-2.181-8.408-4.513-14.894-4.513-14.894s-26.421-21.777-47.031-33.441c-28.55-26.229-39.432-66.453-61.807-94.49-15.105-18.928-35.448-32.302-69.999-32.068l29.545-55.79-29.545 19.829 24.88-57.154-24.88 27.994c2.694-116.97 63.5-255 185.12-336.74l63.791 36.824 257.99 148.95v23.772" transform="matrix(.23674 0 0 -.26231 -151.15 399.039)"/><path fill="url(#b)" d="M1019 1489.3a223.3 223.3 0 0 0 4.176-43.087c0-38.106-9.589-74.01-26.467-105.44 5.039 16.598 7.757 34.199 7.757 52.43 0 34.527-9.728 66.813-26.595 94.283a182 182 0 0 1-13.507 19.14l-20.47-11.827a158 158 0 0 0 13.775-18.977c14.883-24.029 23.469-52.338 23.469-82.619 0-19.163-3.441-37.535-9.74-54.541a132 132 0 0 1 .209 7.441c0 43.729-21.66 82.49-54.81 106.12a128.5 128.5 0 0 1-23.573 13.32l-26.851-15.502a105.8 105.8 0 0 0 27.679-10.953c32.357-18.383 54.227-53.177 54.227-92.987 0-58.939-47.94-106.88-106.88-106.88s-106.88 47.94-106.88 106.88c0 .291 0 .595.012.886.07 10.23 1.598 20.11 4.386 29.465l-26.875-15.515a127 127 0 0 1-.852-14.836c0-4.129.199-8.223.573-12.259 2.869-30.619 16.4-58.193 36.823-78.967-26.793 14.615-48.885 36.766-63.418 63.605a155 155 0 0 0-9.588 21.404l-20.483-11.827a178 178 0 0 1 9.869-21.241c18.965-34.725 49.001-62.566 85.323-78.781-32.789 7.396-62.882 22.011-88.496 42.097a223 223 0 0 0-23.329 21.065v-32.064a249 249 0 0 1 23.329-17.835c39.366-26.548 86.77-42.062 137.73-42.062 7.429 0 14.778.35 22.044.992-16.177-4.398-29.382-13.11-38.923-28.414-10.906-17.484-1.201-59.919-19.304-75.211 21.672 1.037 38.503 8.632 50.972 20.435-23.503-109.77-21.789-212.4 11.186-297.11l16.856-36.672 148.18-85.559 9.472-5.47 39.774 22.968c-121.62 81.731-182.43 219.77-185.12 336.74l24.88-27.994-24.88 57.154 29.545-19.829-29.545 55.79c36.16-10.275 63.717 7.014 92.148 36.742 22.112 23.123 38.127 60.728 39.658 89.816 20.61 11.664 47.031 33.441 47.031 33.441s2.332 6.486 4.513 14.894l-.163 1.89-71.385-29.452c49.164 45.176 80.041 109.96 80.041 181.83 0 9.507-.538 18.896-1.588 28.123a245 245 0 0 1-5.33 30.012l-29.394 16.972a220 220 0 0 0 8.807-32.02" transform="matrix(.23674 0 0 -.26231 -151.15 399.039)"/><path fill="url(#c)" d="m1103.6 751.98 134.33 77.556c-112.08-15.538-206.43 12.959-277.1 100.26 25.895-83.06 70.791-145.28 142.77-177.82" transform="matrix(.23674 0 0 -.26231 -151.15 399.039)"/></svg>