<svg xmlns="http://www.w3.org/2000/svg" viewBox="0 0 49.119 47.997"><g transform="translate(-653.78 -88.09)"><path fill="#c9c8c6" stroke="#000" stroke-linecap="round" stroke-linejoin="round" stroke-width="1.058" d="m678.43 135.556-19.3-9.233-4.82-20.862 13.287-16.78 21.389-.065 13.385 16.702-4.7 20.89z"/><path fill="#fff" d="M669.84 124.176c-.23.057-.68-.036-.668.313.079.406.136.86-.02 1.253-.688.433-1.641 1.725-2.448 1.828l11.627 5.44 11.3-5.29c.273-.191.656.147.41.178-.888-.172-1.484-.938-2.089-1.53-.35-.322-.49-.804-.427-1.27-.013-.287.302-.63.032-.851-.332-.018-.768-.18-.993.161a3.13 3.13 0 0 1-3.205.764c-.412-.226-.812.146-1.184.283-1.818.838-3.882 1.132-5.811.6-.867-.217-1.714-.523-2.48-.974-.356-.037-.686.204-1.048.221-.998.16-2.05-.241-2.741-.992-.066-.07-.156-.133-.255-.134m8.6 4.073c.378-.08.143.438.21.662l.019 3.399c-.359.077-.506-.056-.422-.421v-3.646z"/><path fill="#fff" d="M681.39 107.376c-.146.005-.297.027-.428.009-2.033.043-4.064.089-6.095.03-.289.115-.248.503-.36.752-.227.983-.022 2 .024 2.992l.211 2.52c-1.276 1.327-2.448 2.783-3.3 4.421a4.87 4.87 0 0 0-.497 2.864c.02.837.14 1.795-.445 2.484-.205.176-.153.477.066.613.62.548 1.488.8 2.298.603 1-.163 1.639-1.033 2.318-1.695.159-.227.637-.454.386-.77-.768-1.085-1.33-2.445-1.07-3.791.123-.61.642-1.02 1.169-1.287.285-.284-.207-.537-.238-.835.084-.56.19-1.142.446-1.652.258-.42.809-.324 1.21-.487.632-.22 1.336-.357 1.98-.103.45.167.942.193 1.381.375.408.364.448.96.592 1.458.085.264.08.561-.12.774-.16.18-.128.477.126.543.638.322 1.107.975 1.093 1.705.024 1.21-.455 2.377-1.168 3.338-.108.324.32.498.47.737.658.701 1.34 1.507 2.332 1.706.884.181 1.865-.134 2.462-.807.095-.274-.288-.409-.362-.654-.427-.712-.296-1.56-.28-2.348.152-1.125-.167-2.26-.742-3.224-.846-1.446-1.894-2.768-3.061-3.968.11-1.603.33-3.203.334-4.811a3.8 3.8 0 0 0-.335-1.39c-.11-.093-.25-.107-.396-.102zm-.813 15.381c-.046-.003-.097.035-.144.037-.543.45-1.198.81-1.922.8-.717.055-1.459-.099-2.034-.548-.196-.135-.488-.438-.687-.148-.473.533-.984 1.04-1.477 1.547-.155.32.32.383.52.5 1.122.458 2.326.778 3.544.778 1.304-.058 2.62-.35 3.782-.952.277-.23-.077-.52-.233-.701-.431-.432-.832-.915-1.304-1.293a.07.07 0 0 0-.045-.02"/><path fill="#fde385" d="m669.4 96.368 1.03-1.958 15.434-.46 1.59 2.993-2.619 6.332-5.426.806-3.928.346-4.21-2.763z"/><path fill="#fde385" stroke="#fcc917" stroke-linecap="square" stroke-width=".794" d="M668.73 96.705c1.294-1.62 2.294-2.397 3.345-2.88l.513.67m14.832 1.608c-1.294-1.62-2.152-2.246-3.062-2.58l-.525.707"/><path fill="#ccc" d="M677.99 116.5a3.7 3.7 0 0 0-1.036.14c-2.104.686-2.933 1.307-2.558 3.45.44 2.2 2.187 4.048 3.968 3.908 1.78.14 3.528-1.707 3.966-3.908.375-2.143-.453-2.764-2.557-3.45a3.7 3.7 0 0 0-1.036-.14q-.188.002-.373.025a4 4 0 0 0-.374-.026"/><path fill="gray" stroke="#000" stroke-linecap="square" stroke-width=".794" d="M682.08 113.79c.92.95 1.755 1.98 2.493 3.077.683 1.017 1.3 2.144 1.343 3.368.025.692-.135 1.382-.084 2.072.025.344.105.69.277.99s.442.552.77.66c.221.073.462.078.69.03a1.7 1.7 0 0 0 .63-.289c.377-.272.647-.668.862-1.082.523-1.01.752-2.152.83-3.287.08-1.136.014-2.276-.016-3.414-.02-.721-.023-1.455.177-2.149.232-.798.72-1.493 1.152-2.203.433-.71.828-1.485.838-2.317.007-.575-.17-1.133-.31-1.69-.14-.558-.242-1.15-.085-1.703.106-.37.321-.699.511-1.035.951-1.681 1.295-3.686 1.03-5.6-.266-1.913-1.13-3.73-2.394-5.191a1.3 1.3 0 0 0-.191-.192.5.5 0 0 0-.246-.104.43.43 0 0 0-.241.055.6.6 0 0 0-.187.166c-.102.132-.161.292-.23.444-.348.781-.963 1.409-1.59 1.99-.628.582-1.288 1.145-1.766 1.854-.512.758-.792 1.648-.998 2.539-.206.89-.345 1.799-.608 2.675a10 10 0 0 1-.324.915 16.4 16.4 0 0 0-5.29-.014 6 6 0 0 1 2.126 1.75 6.04 6.04 0 0 1 1.205 3.13z"/><g stroke-width=".794"><path fill="none" stroke="#000" d="M665.99 127.54c1.45.14 2.016-.916 2.565-1.368 1.1-.905.112-1.92.234-2.398"/><path fill="none" stroke="#fff" d="m656.79 107.37 6.83 1.809"/><g stroke-linecap="square"><path fill="gray" stroke="#000" d="M674.61 113.79c-.92.95-1.755 1.98-2.493 3.077-.684 1.017-1.3 2.144-1.343 3.368-.025.692.135 1.382.084 2.072a2.3 2.3 0 0 1-.277.99c-.172.3-.442.552-.77.66a1.3 1.3 0 0 1-.69.03 1.7 1.7 0 0 1-.63-.289c-.377-.272-.648-.668-.862-1.082-.524-1.01-.752-2.152-.83-3.287-.08-1.136-.014-2.276.016-3.414.02-.721.023-1.455-.177-2.149-.232-.798-.72-1.493-1.152-2.203-.433-.71-.828-1.485-.838-2.317-.007-.575.17-1.133.31-1.69.14-.558.242-1.15.085-1.703-.106-.37-.321-.699-.511-1.035-.951-1.681-1.296-3.686-1.03-5.6s1.13-3.73 2.393-5.191c.06-.069.12-.137.192-.192a.5.5 0 0 1 .246-.104.43.43 0 0 1 .241.055c.073.04.135.1.187.166.102.132.16.292.23.444.348.781.963 1.409 1.59 1.99.627.582 1.287 1.145 1.766 1.854.512.758.792 1.648.998 2.539.206.89.345 1.799.607 2.675q.14.466.325.915a16.4 16.4 0 0 1 5.29-.014 6 6 0 0 0-2.126 1.75 6.04 6.04 0 0 0-1.205 3.13z"/><ellipse cx="-685.8" cy="112.94" stroke="#fc0" rx="2.559" ry="2.632" transform="scale(-1 1)"/><path fill="none" stroke="#000" d="M688.1 109.53a2.92 2.92 0 0 0-2.163-1.127 2.92 2.92 0 0 0-2.154.836m4.571-3.634a2 2 0 0 1-.967-.32 2 2 0 0 1-.682-.758c-.226-.442-.28-.958-.213-1.45.066-.491.247-.96.467-1.405a8 8 0 0 1 2.22-2.728m-10.995 18.354.093 1.834c.019.373.03.75-.044 1.117a2.5 2.5 0 0 1-.456 1.014 3.8 3.8 0 0 1-.817.763c-.303.218-.623.414-.913.65-.398.323-.731.717-1.078 1.094-.347.376-.716.744-1.162.996a2.88 2.88 0 0 1-1.949.32 2.88 2.88 0 0 1-1.69-1.022"/></g></g><path fill="gray" stroke="#000" stroke-linecap="square" stroke-width=".794" d="M680.98 116.32c-.207-.546-.207-1.64-.83-1.64-.62 0-1.196-.41-1.807-.41-.612 0-1.186.41-1.808.41s-.622 1.094-.83 1.64c-.206.547 2.638 2.323 2.638 2.323s2.844-1.776 2.637-2.323z"/><ellipse cx="670.97" cy="112.94" stroke="#fc0" stroke-linecap="square" stroke-width=".794" rx="2.559" ry="2.632"/><ellipse cx="670.12" cy="112.2" fill="#fff" rx="1.258" ry="1.311"/><path fill="none" stroke="#000" stroke-linecap="square" stroke-width=".794" d="M668.68 109.53a2.92 2.92 0 0 1 2.163-1.127 2.92 2.92 0 0 1 2.154.836m-5.1-3.634a2 2 0 0 0 .967-.32 2 2 0 0 0 .682-.758c.226-.442.28-.958.213-1.45-.066-.491-.246-.96-.467-1.405a8 8 0 0 0-2.22-2.728m11.38 28.991v3.64"/><path fill="#fde385" stroke="#fcc917" stroke-linecap="square" stroke-width=".794" d="M671.55 100.47s-2.513 1.871-3.382 2.152c-.87.28-4.446.748-4.446.748l.097 2.806s1.546.281 3.286-.093 14.206-.468 14.206-.468"/><g fill="none" stroke-width=".794"><path stroke="#fff" d="m700.13 107.37-6.83 1.809"/><path stroke="#000" stroke-linecap="square" d="M682.86 124.87c-2.215 1.353-4.817 1.266-4.454 1.266s-2.238.087-4.453-1.266"/><path stroke="#000" d="M690.79 127.73c-1.451.14-2.017-.916-2.566-1.368-1.1-.905-.111-1.92-.234-2.398"/><path stroke="#fff" d="m660.78 124.87 4.678-3.212"/></g><ellipse cx="686.58" cy="112.2" fill="#fff" rx="1.258" ry="1.311"/><path fill="none" stroke="#000" stroke-linecap="square" stroke-width=".794" d="m677.59 116.06-.53 1.257m2.118-1.257.528 1.257"/><path fill="none" stroke="#fff" stroke-width=".794" d="m695.62 124.87-4.679-3.212"/><g stroke="#fcc917" stroke-width=".794"><path fill="#fde385" stroke-linecap="square" d="M685.12 100.47s2.513 1.871 3.383 2.152c.87.28 4.445.748 4.445.748l-.096 2.806s-1.547.281-3.286-.093-14.206-.468-14.206-.468"/><path fill="#fde385" stroke-linecap="square" d="m685.06 107.27 5.962-.795-9.18-1.591-8.89.05-6.912 1.242 3.69 1.094 7.665.199z"/><path fill="#fcda5d" fill-rule="evenodd" d="m676.82 99.653-2.183-.066-1.918-2.38.066-2.911 3.161-.843c1.695-.584 3.197-.407 4.772 0 2.73.796 3.247.843 3.247.843l.066 2.91-1.918 2.381-2.183.066"/><path fill="#fde385" fill-rule="evenodd" d="m681.52 97.86.466-5.424-3.463-.577-3.463.577.466 5.424 2.997 3.705z"/></g><path fill="none" stroke="#000" stroke-linecap="square" stroke-width=".794" d="m678.58 117.3-.094 1.834c-.019.373-.03.75.044 1.117s.231.716.457 1.014c.225.298.513.544.816.763s.623.414.913.65c.398.323.731.717 1.079 1.094.347.376.715.744 1.161.996a2.88 2.88 0 0 0 1.949.32 2.88 2.88 0 0 0 1.69-1.022"/></g></svg>