<svg xmlns="http://www.w3.org/2000/svg" fill="none" viewBox="0 0 476.26 544.12"><g fill="#000"><path d="M437.5 386.18 243.67 491.11V264.85L437.5 156.09zm29.042-268.8L246.182 2.06a18.14 18.14 0 0 0-17.47.363L9.062 129.233a18.13 18.13 0 0 0-9.063 15.702v254.03a18.13 18.13 0 0 0 9.063 15.702l220 127.02a18.16 18.16 0 0 0 18.133 0l220-127.02a18.13 18.13 0 0 0 9.063-15.702v-265.53a18.13 18.13 0 0 0-9.722-16.062z"/><path d="m329.51 287.65-35.316 20.395v92.682l35.316-20.391zM407.04 243.35l-35.316 20.394v92.68l35.316-20.388z"/></g></svg>