<svg xmlns="http://www.w3.org/2000/svg" viewBox="0 0 32.128 31.938"><path fill="#172136" d="M9.275 30.442a16.02 16.02 0 0 1-7.556-7.285A15.9 15.9 0 0 1 .322 12.786a15.95 15.95 0 0 1 5.363-9.004A16.12 16.12 0 0 1 15.503.01c3.607-.125 7.15.96 10.06 3.082a15.97 15.97 0 0 1 5.981 8.61 15.88 15.88 0 0 1-.665 10.443 16 16 0 0 1-7.026 7.791L16.065 15.97z"/><path fill="#fff" d="M23.838 29.944a16.14 16.14 0 0 1-14.545.505l6.772-14.48z"/><path fill="#fff" d="M7.027 9.39h18.25v7.666q0 2.989-1.414 4.496-1.389 1.534-3.599 1.533-1.413 0-2.467-.69-1.028-.663-1.568-1.839-.489 1.277-1.542 2.019-1.054.766-2.493.766-2.416 0-3.804-1.533-1.362-1.533-1.362-4.42zM21.91 13.02h-3.958v4.011q0 1.099.488 1.686.515.614 1.491.613.874 0 1.414-.587.565-.563.565-1.712zm-7.35 0h-4.164v4.266q0 1.15.54 1.712.54.588 1.541.588.951 0 1.517-.588.565-.561.565-1.712z"/></svg>