<svg xmlns="http://www.w3.org/2000/svg" viewBox="0 0 450 250"><g transform="translate(0 -.7)"><linearGradient id="a" x2="450" y1="127.9" y2="127.9" gradientTransform="matrix(1 0 0 -1 0 253.6)" gradientUnits="userSpaceOnUse"><stop offset="0" stop-color="#8654D6"/><stop offset=".131" stop-color="#6379DB"/><stop offset=".5" stop-color="#03DDE8"/><stop offset=".818" stop-color="#2BEFB3"/><stop offset="1" stop-color="#3EF79A"/></linearGradient><path fill="url(#a)" d="M425 100.7H325c-13.8 0-25-11.2-25-25s11.2-25 25-25h25c13.8 0 25-11.2 25-25s-11.2-25-25-25H25C11.2.7 0 11.9 0 25.7s11.2 25 25 25h100c13.8 0 25 11.2 25 25s-11.2 25-25 25H50c-13.8 0-25 11.2-25 25s11.2 25 25 25h100c13.8 0 25 11.2 25 25s-11.2 25-25 25h-50c-13.8 0-25 11.2-25 25s11.2 25 25 25h200c13.8 0 25-11.2 25-25s-11.2-25-25-25h-25c-13.8 0-25-11.2-25-25s11.2-25 25-25h150c13.8 0 25-11.2 25-25s-11.2-25-25-25"/><path fill="#03dde8" d="M375 250.7h50c13.8 0 25-11.2 25-25s-11.2-25-25-25h-50c-13.8 0-25 11.2-25 25s11.2 25 25 25"/><circle cx="25" cy="225.7" r="25" fill="#8654d6"/><circle cx="425" cy="25.7" r="25" fill="#3ef79a"/></g></svg>