<svg viewBox="0 0 55.841 55.841" xmlns="http://www.w3.org/2000/svg"><mask id="prefix__a" x="26" y="1" width="30" height="55" maskUnits="userSpaceOnUse"><path d="M54.815 2.166L42.582 15.387a.454.454 0 00-.112.4 2.745 2.745 0 01-4.67 2.459L27.124 28.92a1.593 1.593 0 00-.462 1.245l1.052 14.054 11.425 11.425a.956.956 0 001.593-.41l15.203-52.45c.126-.468-.249-.834-.644-.834a.64.64 0 00-.477.215z" clip-rule="evenodd" fill="#fff" fill-rule="evenodd"/></mask><g transform="translate(-.12 -.085)" mask="url(#prefix__a)"><path d="M56.797-.177L42.6 15.167a.454.454 0 00-.114.4 2.776 2.776 0 01-4.72 2.49L26.452 29.37l1.118 14.944L40.276 57.02z" clip-rule="evenodd" fill="#38f" fill-rule="evenodd"/></g><mask id="prefix__b" x="26" y="1" width="30" height="55" maskUnits="userSpaceOnUse"><path d="M54.815 2.166L42.582 15.387a.454.454 0 00-.112.4 2.745 2.745 0 01-4.67 2.459L27.124 28.92a1.593 1.593 0 00-.462 1.245l1.052 14.054 11.425 11.425a.956.956 0 001.593-.41l15.203-52.45c.126-.468-.249-.834-.644-.834a.64.64 0 00-.477.215z" clip-rule="evenodd" fill="#fff" fill-rule="evenodd"/></mask><g transform="translate(-.12 -.085)" mask="url(#prefix__b)"><path d="M56.626.21L42.582 15.387a.454.454 0 00-.112.4 2.745 2.745 0 01-4.67 2.458l-11.12 11.12a.223.223 0 00-.065.175l1.099 14.68 28.32-42.724z" clip-rule="evenodd" fill="#005de0" fill-rule="evenodd"/></g><mask id="prefix__c" x="0" y="0" width="55" height="30" maskUnits="userSpaceOnUse"><path d="M53.261.11L.81 15.313a.956.956 0 00-.41 1.594l11.425 11.425 14.054 1.051c.463.035.918-.134 1.246-.462L37.8 18.245a2.746 2.746 0 012.458-4.67.455.455 0 00.4-.112L53.878 1.23c.458-.423.125-1.145-.436-1.145a.698.698 0 00-.182.025z" clip-rule="evenodd" fill="#fff" fill-rule="evenodd"/></mask><g transform="translate(-.12 -.085)" mask="url(#prefix__c)"><path d="M56.222-.751L40.878 13.446a.454.454 0 01-.4.114 2.776 2.776 0 00-2.49 4.72L26.676 29.594 11.73 28.476-.974 15.77z" clip-rule="evenodd" fill="#46ebd5" fill-rule="evenodd"/></g><mask id="prefix__d" x="0" y="0" width="55" height="30" maskUnits="userSpaceOnUse"><path d="M53.261.11L.81 15.313a.956.956 0 00-.41 1.594l11.425 11.425 14.054 1.051c.463.035.918-.134 1.246-.462L37.8 18.245a2.746 2.746 0 012.458-4.67.455.455 0 00.4-.112L53.878 1.23c.458-.423.125-1.145-.436-1.145a.698.698 0 00-.182.025z" clip-rule="evenodd" fill="#fff" fill-rule="evenodd"/></mask><g transform="translate(-.12 -.085)" mask="url(#prefix__d)"><path d="M55.837-.58L40.659 13.464a.454.454 0 01-.4.111 2.746 2.746 0 00-2.458 4.67l-11.12 11.12a.223.223 0 01-.175.065l-14.68-1.098L54.55.012z" clip-rule="evenodd" fill="#00d0b6" fill-rule="evenodd"/></g></svg>
