<svg xmlns="http://www.w3.org/2000/svg" viewBox="0 0 306 344.35"><path fill="#00599c" d="M302.11 258.26c2.401-4.159 3.893-8.845 3.893-13.053V99.137c0-4.208-1.49-8.893-3.892-13.052l-149.11 86.087z"/><path fill="#004482" d="m166.25 341.19 126.5-73.034c3.644-2.104 6.956-5.737 9.357-9.897l-149.11-86.087L3.887 258.26c2.401 4.159 5.714 7.793 9.357 9.896l126.5 73.034c7.287 4.208 19.213 4.208 26.5 0z"/><path fill="#659ad2" d="M302.11 86.087c-2.402-4.16-5.715-7.793-9.358-9.897l-126.5-73.034c-7.287-4.208-19.213-4.208-26.5 0L13.252 76.19C5.964 80.397.002 90.725.002 99.14v146.07c0 4.208 1.491 8.894 3.893 13.053l149.11-86.087z"/><path fill="#fff" d="M153 274.18c-56.243 0-102-45.757-102-102s45.757-102 102-102c36.292 0 70.139 19.53 88.331 50.968l-44.143 25.544C188.083 130.956 171.15 121.18 153 121.18c-28.122 0-51 22.878-51 51 0 28.121 22.878 51 51 51 18.152 0 35.085-9.776 44.191-25.515l44.143 25.543c-18.192 31.441-52.04 50.972-88.334 50.972"/><path fill="#fff" d="M232.33 166.51H221v11.33h11.33v11.34h11.34v-11.34H255v-11.33h-11.33v-11.33h-11.34zm42.5 0H263.5v11.33h11.33v11.34h11.34v-11.34h11.33v-11.33h-11.33v-11.33h-11.34z"/></svg>