<svg xmlns="http://www.w3.org/2000/svg" id="a" version="1.1" viewBox="0 0 48.219 40.304"><defs/><path d="M41.959 13.073A8.49 8.49 0 0 0 29.176 7.36 10.75 10.75 0 0 0 18.529.111c-12.41 0-11.32 12.988-11.32 12.988a10.3 10.3 0 0 0 1.91 20.012v-3a7.48 7.48 0 0 1-5.639-5 7.247 7.247 0 0 1 4.666-9.164l2.279-.768-.286-1.5a7.5 7.5 0 0 1-.12-2.068 10.54 10.54 0 0 1 2.188-5.828 7.38 7.38 0 0 1 6.4-2.824c3.264 0 7.286 2.9 8.221 5.636l.934 2.732 2.424-1.318a7.6 7.6 0 0 1 3.39-.894 5.546 5.546 0 0 1 5.443 4.518l.288 1.528 1.125.514a7.81 7.81 0 0 1 4.578 5.636 7.81 7.81 0 0 1-5.891 8.8v3.02a10.79 10.79 0 0 0 9-10.52 10.48 10.48 0 0 0-6.16-9.538z" fill="#5a7a94" stroke="#5a7a94" stroke-width=".2"/><path d="m24.561 38.939-6-6a1.5 1.5 0 0 0-2.122 2.122L21.379 40l-4.94 4.939a1.5 1.5 0 0 0 2.122 2.122l6-6a1.5 1.5 0 0 0 0-2.122zM26.5 35.5h12a1.5 1.5 0 0 0 0-3h-12a1.5 1.5 0 0 0 0 3zM38.5 38.5h-9a1.5 1.5 0 0 0 0 3h9a1.5 1.5 0 0 0 0-3zM38.5 44.5h-12a1.5 1.5 0 0 0 0 3h12a1.5 1.5 0 0 0 0-3z" class="cls-2" transform="matrix(1.05 0 0 1.2 -5.981 -16.79)"/></svg>