<svg xmlns="http://www.w3.org/2000/svg" viewBox="0 291.12 252 209.36"><g transform="translate(0 .001)"><path d="M63.896 312.91v14.613H51.808V312.91c-3.72 2.125-6.244 6.111-6.244 10.627 0 6.775 5.447 12.221 12.222 12.221s12.221-5.446 12.221-12.221c.133-4.516-2.391-8.502-6.111-10.627m107.074 0v14.613h12.088V312.91c3.72 2.125 6.244 6.111 6.244 10.627 0 6.775-5.446 12.221-12.221 12.221s-12.222-5.446-12.222-12.221c-.133-4.516 2.391-8.502 6.111-10.627"/><path fill="#ed1c24" d="M93.919 437.78h17.668v57.919H93.919zm28.561 0h17.668v57.919H122.48zm59.38-53.54-2.66-53.4h-5.18l-3.45 53.4zm-37.73 10.1s18.598 2.524 26.436-10.096l12.221 3.454s-11.823 21.122-38.657 31.085z"/><circle cx="176.15" cy="387.7" r="6.642" fill="#fff"/><path fill="#ed1c24" d="M176.15 396.2c-4.782 0-8.635-3.853-8.635-8.635s3.853-8.635 8.635-8.635 8.635 3.853 8.635 8.635-3.852 8.635-8.635 8.635m0-13.151c-2.524 0-4.649 2.125-4.649 4.649s2.125 4.649 4.649 4.649 4.649-2.125 4.649-4.649-1.992-4.649-4.649-4.649"/><circle cx="102.16" cy="467.14" r="7.971" fill="#fff"/><path fill="#ed1c24" d="M102.16 477.1c-5.446 0-9.963-4.517-9.963-9.963s4.517-9.963 9.963-9.963c5.447 0 7.971 4.517 7.971 9.963s-2.524 9.963-7.971 9.963m0-16.075c-3.321 0-6.11 2.657-6.11 6.111s2.657 6.11 6.11 6.11 6.111-2.656 6.111-6.11-2.79-6.111-6.111-6.111"/><circle cx="132.04" cy="467.14" r="7.971" fill="#fff"/><path fill="#ed1c24" d="M132.04 477.1c-5.447 0-8.9-4.517-8.9-9.963s3.321-9.963 8.9-9.963c5.446 0 9.963 4.517 9.963 9.963s-4.516 9.963-9.963 9.963m0-16.075c-3.321 0-6.111 2.657-6.111 6.111s2.657 6.11 6.111 6.11 6.11-2.656 6.11-6.11-2.789-6.111-6.11-6.111M52.339 384.24l2.524-53.4h5.181l3.454 53.4zm37.595 10.1s-18.598 2.524-26.436-10.096l-12.221 3.454S63.1 408.82 89.934 418.783z"/><circle cx="57.919" cy="387.7" r="6.642" fill="#fff"/><path fill="#ed1c24" d="M57.919 396.2c-4.782 0-8.635-3.853-8.635-8.635s3.853-8.635 8.635-8.635 8.635 3.853 8.635 8.635-3.853 8.635-8.635 8.635m0-13.151c-2.524 0-4.649 2.125-4.649 4.649s2.125 4.649 4.649 4.649 4.649-2.125 4.649-4.649-2.125-4.649-4.649-4.649"/><path d="m91.129 391.02.266-28.163c.133-7.041 2.922-13.55 7.97-18.465s11.69-7.572 18.73-7.439 13.55 2.922 18.465 7.97 7.572 11.69 7.439 18.731l-.398 31.084-9.033-.133.398-31.084c0-4.649-1.727-9.033-4.915-12.354s-7.572-5.181-12.222-5.181-9.033 1.727-12.354 4.915-5.181 7.572-5.181 12.221l-.399 28.163z"/><circle cx="108.66" cy="369.63" r="3.852"/><circle cx="126.73" cy="369.63" r="3.852"/><circle cx="117.56" cy="413.6" r="35.07"/><path fill="#ed1c24" d="m114.38 407.89-1.329 25.106h9.831l-1.993-25.239c2.391-1.196 3.985-3.587 3.985-6.51 0-3.985-3.321-7.306-7.306-7.306s-7.306 3.321-7.306 7.306c.133 3.056 1.727 5.446 4.118 6.643"/><path d="M115.17 500.48c-1.195-7.837-7.97-13.948-16.207-13.948s-15.011 5.978-16.207 13.948h30.553zm36.53 0c-1.195-7.837-7.97-13.948-16.207-13.948-8.236 0-15.011 5.978-16.207 13.948h1.86z"/><path fill="#ed1c24" d="M33.21 304.8c-3.587-5.313-8.635-8.369-13.948-8.369-5.447 0-10.362 2.922-14.082 8.236-3.32 4.916-5.18 11.425-5.18 18.2s1.86 13.284 5.181 18.199c3.587 5.313 8.635 8.236 13.948 8.236s10.362-2.922 14.082-8.236c2.391-3.454 3.985-7.572 4.649-12.089.133-.797.93-1.461 1.727-1.461l210.55.133c.93 0 1.727-.797 1.86-1.727v-5.58c0-.93-.797-1.727-1.727-1.859h-6.376c-.93 0-1.727-.797-1.727-1.86v-23.646c0-.93-.797-1.727-1.727-1.86h-26.568c-.93 0-1.727.797-1.86 1.727v23.646c0 .93-.797 1.727-1.86 1.727h-1.594c-.93 0-1.727-.797-1.727-1.859v-18.066c0-.93-.797-1.727-1.727-1.86h-4.118c-.93 0-1.727.797-1.86 1.727v18.066c0 .93-.797 1.727-1.859 1.727H39.717c-.93 0-1.594-.664-1.727-1.461-.931-4.119-2.391-8.37-4.783-11.691zm-14.081 37.063c-6.376 0-11.823-8.768-11.823-18.996 0-10.229 5.447-18.997 11.956-18.997s11.823 8.768 11.823 18.997-5.58 18.996-11.956 18.996"/><path d="M66.687 330.84c-.93-1.329-1.86-1.993-2.79-3.321H51.808v-14.613c-3.72 2.125-6.244 6.111-6.244 10.627a12.19 12.19 0 0 0 12.222 12.221c3.719 0 7.041-1.727 9.299-4.251 0-.264-.266-.397-.398-.663m101.623 0c.93-1.329 1.195-1.993 2.125-3.321h12.752v-14.613c3.72 2.125 6.244 6.111 6.244 10.627a12.19 12.19 0 0 1-12.221 12.221c-3.72 0-7.041-1.727-9.299-4.251.001-.264.133-.397.399-.663"/></g></svg>