<svg viewBox="0 0 870.26 860.8" xmlns="http://www.w3.org/2000/svg"><path d="M845.86 531.95c-77.108-100.5-192.23-203.7-223.96-228.82-22.642-17.925-44.43-26.925-66.195-26.925a95.302 95.302 0 00-61.658 25.125c-3.63 3.593-9.068 8.078-15.412 13.462-45.338 37.695-186.8 166.03-190.42 169.61a58.942 58.942 0 01-39.9 16.155 69.218 69.218 0 01-43.5-20.64 1055 1055 0 01-115.18-109.48c-34.455-38.588-63.472-72.69-63.472-72.69s-6.345 12.562-9.975 22.432a17.025 17.025 0 00.907 14.362c19.042 26.925 105.16 128.33 223.06 229.74a100.27 100.27 0 0066.188 26.925 95.302 95.302 0 0061.658-25.125c3.63-3.592 9.068-8.078 15.412-13.462 45.338-37.695 131.48-115.77 171.38-152.56 9.068-8.078 15.412-13.462 18.135-16.155a58.942 58.942 0 0139.9-16.155 74.295 74.295 0 0143.5 20.64c25.388 21.54 66.195 59.25 115.16 109.5 35.362 37.695 63.472 71.798 63.472 72.69 0 0 6.345-13.462 9.975-22.432a16.125 16.125 0 00.938-16.185z" fill="#8fc320" data-spm-anchor-id="a313x.7781069.0.i6"/><g fill="#0085d0"><path d="M392.61 156.75c-39.802 28.95-202.64 180.02-234.3 216.21a550.5 550.5 0 0057 53.4 19.8 19.8 0 0028.95-3.615c62.422-63.322 190.88-176.41 208.06-189.98 47.948-40.71 104.94-44.325 155.6-6.33 124.84 94.05 236.11 241.51 255.1 268.65 0 0 2.715-13.568 4.5-25.328a28.598 28.598 0 00-3.615-20.805c-117.6-169.18-242.42-274.11-290.37-300.34-54.278-28.042-117.6-38.002-180.93 8.138z" data-spm-anchor-id="a313x.7781069.0.i0"/><path d="M260.5 68.999c-80.482 65.13-184.5 161.02-210.75 189.97a706.5 706.5 0 0050.662 54.278 11.122 11.122 0 0017.19-1.808c79.605-76.898 165.55-155.6 216.2-194.5 84.135-65.136 183.64-71.466 280.44 5.43a1192.7 1192.7 0 01114.89 104.94 1623 1623 0 01141.12 180 206.5 206.5 0 00-4.5-37.995 57.832 57.832 0 00-5.43-14.475 857.02 857.02 0 00-100.43-145.59c-108.56-126.68-176.41-164.68-220.73-188.2-58.808-29.85-171.88-38.902-278.66 47.948z" data-spm-anchor-id="a313x.7781069.0.i1"/><path d="M477.64 704.06c39.802-28.95 202.64-180 234.3-216.21a615.46 615.46 0 00-57-54.278 19.8 19.8 0 00-28.95 3.615c-62.392 63.322-190.85 176.41-208.04 189.98-47.948 40.71-104.94 44.325-156.5 6.33-124.84-94.08-235.21-241.54-254.2-269.58 0 0-2.715 13.568-4.5 25.328a28.598 28.598 0 003.6 20.812c117.6 169.16 242.44 274.11 290.38 300.36 54.278 29.828 117.61 39.75 180.92-6.353z" data-spm-anchor-id="a313x.7781069.0.i2"/><path d="M609.75 791.8c80.512-65.138 184.54-161.02 210.75-189.98a706.5 706.5 0 00-50.662-54.278 11.122 11.122 0 00-17.19 1.807c-79.598 76.898-165.54 155.6-216.2 194.5-84.135 65.138-183.64 71.468-280.44-5.43a1192.7 1192.7 0 01-114.89-104.96 1623 1623 0 01-141.12-180 214.43 214.43 0 004.5 37.995A57.832 57.832 0 009.95 505.96a857.02 857.02 0 00100.42 145.65c108.56 126.6 176.4 164.61 220.72 188.1 58.808 29.888 171.88 38.932 278.66-47.918z" data-spm-anchor-id="a313x.7781069.0.i3"/></g></svg>
