<svg xmlns="http://www.w3.org/2000/svg" viewBox="0 0 40.036 42"><path fill="#141a1f" d="M23.79 14.344h-7.604l-3.818 6.725 3.8 6.656h7.62l3.8-6.656zM22.775 25.9H17.18l-2.786-4.849 2.789-4.9h5.596l2.788 4.9-2.79 4.85"/><path fill="#e83030" d="M14.392 21.068 17.18 25.9h5.596l2.806-4.832-2.806-4.968H17.18z"/><path fill="#141a1f" d="M23.79 28.637h-7.604l-3.818 6.707 3.8 6.656h7.62l3.8-6.656zm-1.015 11.607H17.18l-2.786-4.849 2.789-4.9h5.596l2.788 4.9-2.79 4.85"/><path fill="#6b91c7" d="m14.392 35.344 2.788 4.9h5.596l2.806-4.9-2.806-4.9H17.18z"/><path fill="#141a1f" d="M23.79 0h-7.604l-3.818 6.725 3.818 6.656h7.62l3.8-6.656zm-1.015 11.556H17.18l-2.786-4.849 2.789-4.95h5.596l2.788 4.9-2.79 4.899"/><path fill="#f9c31f" d="m14.392 6.723 2.788 4.833h5.596l2.806-4.833-2.806-4.967H17.18z"/><path fill="#141a1f" d="M36.159 21.541h-7.543l-3.8 6.725 3.8 6.656h7.62l3.8-6.656zm-1.015 11.585H29.55l-2.789-4.85 2.789-4.9h5.595l2.789 4.9z"/><path fill="#795aa5" d="m26.747 28.29 2.829 4.85h5.58l2.856-4.85-2.856-4.967h-5.58l-2.829 4.968"/><path fill="#141a1f" d="M36.159 7.197h-7.543l-3.8 6.656 3.8 6.656h7.62l3.8-6.656zM35.144 18.77H29.55l-2.789-4.85 2.789-4.9h5.595l2.789 4.9z"/><path fill="#f17423" d="m26.747 13.924 2.784 4.914h5.625l2.856-4.849-2.856-4.968h-5.625z"/><path fill="#141a1f" d="M11.355 21.541H3.8L0 28.266l3.8 6.656h7.62l3.8-6.656zM10.34 33.115H4.812l-2.788-4.85 2.788-4.9h5.596l2.789 4.9-2.856 4.85"/><path fill="#97c639" d="m2.023 28.265 2.789 4.849h5.528l2.856-4.85-2.856-4.967H4.812z"/><path fill="#141a1f" d="M11.355 7.197H3.8L0 13.853l3.8 6.656h7.62l3.8-6.656zM10.34 18.771H4.812l-2.788-4.85 2.788-4.9h5.596l2.789 4.9-2.856 4.85"/><path fill="#c9db70" d="m2.023 13.92 2.789 4.85h5.528l2.856-4.85-2.856-4.967H4.812z"/></svg>