<svg xmlns="http://www.w3.org/2000/svg" viewBox="0 0 54.917 68.194"><defs><radialGradient id="a" cx="93.458" cy="230.92" r="20.844" gradientTransform="matrix(-2.031 0 0 -1.6935 253.84 637.53)" gradientUnits="userSpaceOnUse"><stop offset="0" stop-color="#f0f8a0"/><stop offset=".75" stop-color="#c1e0a4"/><stop offset="1" stop-color="#5aab7b"/></radialGradient><linearGradient id="b" x1="87.312" x2="109.8" y1="236.15" y2="199.1" gradientTransform="translate(-42.333 27.781)" gradientUnits="userSpaceOnUse"><stop offset="0" stop-color="#0f5499"/><stop offset="1" stop-color="#0ed6ff"/></linearGradient></defs><g stroke-width="2"><path fill="url(#a)" stroke="#055f25" stroke-linecap="round" stroke-linejoin="round" d="M63.5 225.56H50.271c-13.229 0-26.458 6.615-26.458 26.458 0 19.844 13.229 26.556 26.599 26.507l13.088-.048v-13.23H50.271s-12.705 0-12.965-13.096c-.265-13.362 12.965-13.362 12.965-13.362H63.5z" transform="translate(-22.813 -211.33)"/><path fill="url(#b)" stroke="#0d386b" d="M64.823 212.33h10.583c.624 0 1.323.7 1.323 1.323v50.27c0 .625-.7 1.324-1.323 1.324H50.271s-12.613 0-12.924-13.372c-.305-13.086 12.924-13.086 12.924-13.086H63.5v-25.135c0-.624.7-1.323 1.323-1.323z" transform="translate(-22.813 -211.33)"/></g></svg>