<svg xmlns="http://www.w3.org/2000/svg" fill="none" viewBox="0 0 67 73.999"><path fill="#4285f4" fill-rule="evenodd" d="M35.999 2.663a5.01 5.01 0 0 0-4.998 0l-26.5 15.253a5 5 0 0 0-1.198.962l11.108 6.366a4 4 0 0 1 .931-.744l16.156-9.342a4 4 0 0 1 4.004 0L51.657 24.5c.351.203.664.455.932.744l11.108-6.366a5 5 0 0 0-1.198-.962zm28.723 17.933-11.183 6.408q.115.467.116.959v17.794a4 4 0 0 1-1.958 3.44l-16.235 9.637a4 4 0 0 1-.962.412v12.63a5 5 0 0 0 1.428-.569l26.62-15.73A4.99 4.99 0 0 0 65 51.283V22.236c0-.567-.097-1.12-.278-1.64zM2 22.236c0-.567.097-1.12.278-1.64l11.183 6.407q-.115.466-.116.96v18.632a4 4 0 0 0 2.08 3.51l16.074 8.8q.482.26 1.001.383v12.639a5 5 0 0 1-1.517-.534L4.603 57.02A4.99 4.99 0 0 1 2 52.64zM30.002.936a7.01 7.01 0 0 1 6.996 0l26.5 15.253A6.98 6.98 0 0 1 67 22.238v29.047a6.98 6.98 0 0 1-3.433 6.009l-26.62 15.73a7.01 7.01 0 0 1-6.923.12L3.644 58.772A6.98 6.98 0 0 1 0 52.64V22.238a6.98 6.98 0 0 1 3.502-6.05zm-8.604 27.552 10.582-6.11c.94-.542 2.1-.542 3.04 0l10.582 6.11a3 3 0 0 1 1.503 2.593v11.653c0 1.056-.56 2.034-1.473 2.576l-10.643 6.308a3.04 3.04 0 0 1-3.009.052l-10.52-5.75a3 3 0 0 1-1.565-2.627V31.079c0-1.068.573-2.056 1.503-2.593" clip-rule="evenodd"/></svg>