<svg xmlns="http://www.w3.org/2000/svg" fill="none" viewBox="0 0 290 290"><rect width="273.89" height="273.89" x="8.056" y="8.056" fill="url(#a)" rx="136.94"/><g fill="#fff" opacity=".99"><path d="M118.71 211.78c-.89 0-1.534-.85-1.293-1.707l36.868-130.96a1.34 1.34 0 0 1 1.293-.979h16.02c.891 0 1.535.851 1.292 1.708l-37.015 130.96a1.34 1.34 0 0 1-1.292.978zM92.794 178.77a1.34 1.34 0 0 1-.956-.399l-32.234-32.668a1.34 1.34 0 0 1 .002-1.888l32.232-32.521c.253-.254.596-.398.954-.398h20.579c1.196 0 1.795 1.447.95 2.292l-30.623 30.623a1.343 1.343 0 0 0-.002 1.897l30.637 30.773c.843.846.243 2.289-.952 2.289zM176.82 178.77c-1.193 0-1.793-1.44-.953-2.287l30.505-30.778a1.343 1.343 0 0 0-.002-1.892l-30.491-30.627c-.843-.846-.243-2.29.951-2.29h20.441c.357 0 .7.143.952.396l32.377 32.521c.52.523.521 1.368.002 1.892l-32.379 32.668a1.34 1.34 0 0 1-.953.397z"/></g><rect width="273.89" height="273.89" x="8.056" y="8.056" stroke="url(#c)" stroke-width="16.111" rx="136.94"/><defs><linearGradient id="a" x1="46.051" x2="251.74" y1="40.546" y2="246.23" gradientUnits="userSpaceOnUse"><stop offset="0" stop-color="#171920"/><stop offset="1" stop-color="#0C0C11"/></linearGradient><linearGradient id="c" x1="39.472" x2="246.5" y1="45.245" y2="252.27" gradientUnits="userSpaceOnUse"><stop offset="0" stop-color="#00E0EE"/><stop offset="1" stop-color="#6809E1"/></linearGradient></defs></svg>