<svg xmlns="http://www.w3.org/2000/svg" viewBox="0 0 59.889 59.153"><g clip-path="url(#a)" transform="translate(0 -.427)"><path fill="#60d5c4" fill-rule="evenodd" d="M58.837 1.467 29.944 30.004 58.838 58.54a3.5 3.5 0 0 0 1.052-2.51V3.977a3.5 3.5 0 0 0-.273-1.359 3.5 3.5 0 0 0-.78-1.151" clip-rule="evenodd"/><path fill="#71e9d8" fill-rule="evenodd" d="M58.837 1.467 29.945 30.004 1.053 1.467a3.62 3.62 0 0 1 2.54-1.04h52.703a3.62 3.62 0 0 1 2.54 1.04" clip-rule="evenodd"/><path fill="#60d5c4" fill-rule="evenodd" d="m1.053 1.467 28.892 28.537L1.053 58.54A3.5 3.5 0 0 1 0 56.03V3.977a3.5 3.5 0 0 1 1.053-2.51" clip-rule="evenodd"/><path fill="#71e9d8" fill-rule="evenodd" d="M58.837 58.54 29.945 30.005 1.053 58.54c.333.33.729.592 1.165.77s.903.27 1.375.27h52.703a3.62 3.62 0 0 0 2.54-1.04" clip-rule="evenodd"/><path fill="#09b6a2" d="M52.103 7.822H7.786c-.166 0-.3.132-.3.295v43.774c0 .163.134.295.3.295h44.317c.166 0 .3-.132.3-.295V8.117a.3.3 0 0 0-.3-.295"/><path fill="#fff" d="M18.087 43.33q-4.394 0-4.393-4.338V32.79q0-1.624-1.617-1.624-.594 0-.998-.373-.377-.372-.377-.958 0-.612.377-.985.405-.372.998-.373 1.617 0 1.617-1.623v-6.202q0-4.34 4.392-4.34.595 0 .97.4.378.4.378.985 0 .586-.377.958-.378.373-.97.373-1.644 0-1.644 1.624v6.202q0 .93-.216 1.677-.216.745-.647 1.304.863 1.092.863 2.955v6.202q0 1.624 1.644 1.624.592 0 .97.372.377.373.377.985 0 .585-.377.959-.378.399-.97.399m5.38-5.802q-.756 0-1.321-.532a1.82 1.82 0 0 1-.54-1.305q0-.772.54-1.304.566-.56 1.32-.56.782 0 1.321.56.54.533.539 1.304 0 .746-.539 1.305-.54.531-1.32.532m6.421 0q-.755 0-1.32-.532a1.82 1.82 0 0 1-.54-1.305q0-.772.54-1.304.565-.56 1.32-.56.782 0 1.32.56.54.533.54 1.304 0 .746-.54 1.305-.538.531-1.32.532m6.422 0q-.755 0-1.32-.532a1.82 1.82 0 0 1-.54-1.305q0-.772.54-1.304.565-.56 1.32-.56.78 0 1.32.56.54.533.54 1.304 0 .746-.54 1.305-.54.531-1.32.532m5.397 5.803q-.592 0-.97-.4-.377-.372-.377-.958 0-.612.377-.985.378-.372.97-.372 1.644 0 1.644-1.624V32.79q0-1.863.863-2.955a3.9 3.9 0 0 1-.647-1.304 6 6 0 0 1-.216-1.677v-6.202q0-1.624-1.644-1.624-.592 0-.97-.373-.377-.373-.377-.958 0-.586.377-.985.378-.4.97-.4 4.393 0 4.393 4.34v6.202q0 1.624 1.617 1.624.593 0 .97.372.405.373.405.985 0 .586-.405.958-.377.373-.97.373-1.617 0-1.617 1.624v6.202q0 4.34-4.393 4.339"/></g><defs><clipPath id="a"><path fill="#fff" d="M0 0h295v60H0z"/></clipPath></defs></svg>