<svg xmlns="http://www.w3.org/2000/svg" viewBox="0 0 39.052 25"><path fill="#00e7e7" d="M21.994 13.189c1.34 0 1.994 1.614 1.072 2.57l-8.75 8.793a1.505 1.505 0 0 1-2.142 0L.446 12.71a1.523 1.523 0 0 1 0-2.153L10.298.66a2.095 2.095 0 0 1 2.946 0 2.12 2.12 0 0 1 0 2.96L6.34 10.588a1.523 1.523 0 0 0 0 2.153l5.862 5.89a1.505 1.505 0 0 0 2.143 0l.773-.776q.446-.449.446-1.078v-1.526c0-.21 0-.417.03-.627a1.507 1.507 0 0 1 1.518-1.407h4.88v-.03z"/><path fill="#00bfff" d="m38.63 14.446-9.88 9.928c-.804.807-2.143.807-2.947 0s-.803-2.153 0-2.96l6.935-6.968a1.523 1.523 0 0 0 0-2.153l-5.892-5.89a1.505 1.505 0 0 0-2.143 0l-.773.776a1.54 1.54 0 0 0-.446 1.078v1.526c0 .21 0 .417-.03.627a1.507 1.507 0 0 1-1.518 1.407h-4.88c-1.34 0-1.995-1.615-1.073-2.571l6.635-6.673.864-.898 1.22-1.227a1.505 1.505 0 0 1 2.144 0L38.602 12.26c.594.627.594 1.584.03 2.183z"/></svg>