<svg xmlns="http://www.w3.org/2000/svg" viewBox="0 0 896 907.09"><path fill="#34495e" d="M482.56 640H64c-19.2 0-32-12.8-32-32V192h704v194.56c10.928 1.552 21.648 3.76 32 6.832V64.002c0-35.2-28.8-64-64-64H64c-35.2 0-64 28.8-64 64v544c0 35.2 28.8 64 64 64h425.39a222 222 0 0 1-6.848-32zM32 64c0-19.2 12.8-32 32-32h640c19.2 0 32 12.8 32 32v96H32z"/><path fill="#00b42a" d="M320 96a32 32 0 1 0 64 0 32 32 0 1 0-64 0"/><path fill="#f7ba1e" d="M192 96a32 32 0 1 0 64 0 32 32 0 1 0-64 0"/><path fill="#f53f3f" d="M64 96a32 32 0 1 0 64 0 32 32 0 1 0-64 0"/><path fill="#006aff" d="m318.85 594.93 99.376-370.88 30.912 8.272-99.36 370.88zM254.37 255.2 96 413.6 254.4 572l22.64-22.624-135.79-135.78 135.78-135.78zM704 416a193 193 0 0 0-38.24 3.84l6.24-6.24-158.4-158.4-22.64 22.624 135.79 135.78-135.78 135.78 22.656 22.624 2.208-2.224a190.77 190.77 0 0 0 30.928 148.08l-116.67 116.66c-10.24 10.24-10.24 26.896 0 37.136l27.76 27.76c5.12 5.12 11.84 7.68 18.56 7.68s13.456-2.56 18.56-7.68l120.99-120.96a190.56 190.56 0 0 0 88.032 21.552c105.87 0 192-86.128 192-192s-86.128-192-192-192zM544.88 609.14c0-88.224 71.776-160 160-160 10.656 0 21.04 1.152 31.12 3.152v155.71c0 19.2-12.8 32-32 32H548a160 160 0 0 1-3.12-30.864zm-68.464 263.58-19.632-19.632 110.34-110.34a195 195 0 0 0 20.752 18.528zm228.46-103.58c-65.92 0-122.58-40.096-147.06-97.136h146.18c35.2 0 64-28.8 64-64v-145.78c56.896 24.544 96.88 81.12 96.88 146.91 0 88.224-71.776 160-160 160z"/><path fill="#34495e" d="M800.58 608c0 52.928-43.072 96-96 96v32a128 128 0 0 0 128-128z"/></svg>