<svg xmlns="http://www.w3.org/2000/svg" viewBox="0 0 1327.7 1327.7"><path fill="#20499e" d="M635.5.273c-2.887.214-12.831.856-21.92 1.497C482.7 10.966 353.64 61.862 249.5 145.48c-27.8 22.241-62.765 55.708-85.112 81.371-93.56 107.67-149.7 238.98-161.89 379.05-12.938 149.38 24.593 297.79 106.93 422.46 25.769 39.03 50.362 68.97 84.471 103.18 27.908 28.02 44.909 42.77 73.779 64.59l11.762 8.76.32-136.43.214-136.55-7.805-11.976c-16.253-24.806-33.254-57.312-43.84-84.15a467.26 467.26 0 0 1-8.768-319.17c22.989-69.18 58.809-127.78 110.03-180.06 77.841-79.232 174.61-126.17 286.35-138.79 19.995-2.246 73.03-2.566 91.742-.535 16.787 1.818 37.958 5.026 50.789 7.7 11.655 2.351 36.783 8.767 41.488 10.584l2.887 1.177v427.27l6.201 1.283c11.014 2.138 85.113 17.322 87.893 17.963 1.818.428-13.687 4.063-45.443 10.586l-48.117 9.73-.321 171.83c-.107 94.522.214 171.82.642 171.82 2.032 0 36.996-18.17 49.079-25.55 52.714-32.078 99.333-78.484 131.52-130.77 4.17-6.843 9.089-15.29 10.906-18.925l3.315-6.416V90.622l-6.629-3.956c-3.743-2.138-13.901-7.698-22.775-12.296-76.88-39.99-160.07-64.262-247.53-72.068C704.052.698 647.382-.585 635.513.271z"/><path fill="#dd2d26" d="M1048.8 260.21v136.76l9.09 13.793c8.45 13.045 21.6 35.714 21.28 36.89-.11.321.64 1.711 1.71 3.208.96 1.496 3.85 6.95 6.42 12.296 22.77 48.544 36.89 99.013 42.98 152.9 2.14 19.888 1.82 81.371-.53 101.04-12.19 97.837-51.22 184.98-115.27 257.16-67.896 76.562-157.71 128.41-256.94 148.62-34.751 7.06-50.041 8.45-92.063 8.56-39.242 0-47.475-.54-77.521-5.46-16.36-2.56-40.739-8.12-54.746-12.29l-7.271-2.14v-213.74c0-202.62-.107-213.74-1.817-214.28-1.07-.214-22.776-4.704-48.224-9.837-30.26-6.202-45.657-9.73-44.374-10.265 1.069-.427 22.134-4.918 46.833-9.944 24.7-5.025 45.551-9.302 46.299-9.623.963-.321 1.283-36.996 1.283-178.14v-177.6l-2.887.748c-6.736 1.604-33.895 13.045-48.437 20.209-54.318 26.839-99.654 63.3-137.29 110.56l-7.057 8.982v808.99l6.201 3.53c23.952 13.58 52.822 27.7 75.597 36.89 4.17 1.71 7.698 3.32 8.019 3.64s1.283.64 2.139.85c.855.22 6.201 2.04 11.761 4.17 9.517 3.53 37.104 12.83 40.632 13.69.855.21 7.806 2.14 15.397 4.17 106.82 29.51 227.22 30.9 334.78 3.64 7.057-1.72 13.366-3.32 13.9-3.43.642-.1 3.957-1.17 7.485-2.24s7.164-2.03 8.019-2.14 2.353-.53 3.208-.86c.856-.42 10.8-3.84 21.92-7.59 141.99-48.22 266.67-147.13 347.18-275.44 55.18-88.103 88-184.34 98.7-289.76 2.35-22.668 3.31-80.087 1.71-103.72-11.02-165.73-79.98-316.5-197.6-432.08-25.13-24.807-59.99-54.211-77.52-65.546l-3-1.924z"/><path fill="#ffc107" d="M663.41 525.81c-.321.855-5.667 26.731-11.869 57.633-6.309 30.901-11.441 56.242-11.548 56.349-.107 0-25.662 5.347-56.884 11.655-31.116 6.309-56.992 11.762-57.526 12.19-.428.32 24.807 5.881 56.136 12.189 31.329 6.416 57.312 11.976 57.739 12.297.428.427 5.881 25.662 12.083 56.242 11.548 56.457 12.19 59.665 12.938 57.74.214-.641 5.667-26.624 11.976-57.74l11.655-56.563 37.851-7.699c20.851-4.277 39.563-8.126 41.594-8.34 9.944-1.604 35.179-7.485 34.537-8.126-.535-.428-26.09-5.881-56.991-12.19-30.795-6.201-56.35-11.762-56.778-12.189-.32-.428-5.881-26.304-12.189-57.419-6.309-31.222-11.655-56.885-11.869-57.098s-.641.213-.855 1.069"/></svg>