<svg xmlns="http://www.w3.org/2000/svg" viewBox="0 0 224.66 249.6"><path fill="#67c52a" d="M216.2 181.5c-1.1-2.1-1.1-4.6 0-6.6 1.4-2.5 2.6-5 3.8-7.6.8-1.9-.5-4-2.6-4h-22.5c-2.3 0-4.5 1.2-5.7 3.1-2.9 4.4-6.3 8.7-10.1 12.5-14.5 14.5-33.7 22.4-54.1 22.4-20.5 0-39.7-8-54.1-22.4-14.6-14.4-22.5-33.6-22.5-54.1s8-39.7 22.4-54.1c14.5-14.5 33.7-22.4 54.1-22.4 20.5 0 39.7 8 54.1 22.4 3.9 3.9 7.2 8.1 10.1 12.5 1.3 1.9 3.4 3.1 5.7 3.1h22.6c2.1 0 3.4-2.1 2.6-4-1.2-2.6-2.4-5.1-3.8-7.6-1.1-2.1-1.1-4.6 0-6.6l7.6-13.8c1.5-2.7 1-6-1.2-8.2L203.5 27c-2.2-2.2-5.5-2.6-8.2-1.2l-13.9 7.7c-2.1 1.1-4.6 1.1-6.6 0-6.6-3.6-13.6-6.5-20.8-8.6-2.3-.7-4.1-2.4-4.7-4.7L144.9 5c-.9-2.9-3.5-5-6.6-5h-27c-3.1 0-5.8 2-6.6 5l-4.4 15.2c-.7 2.3-2.4 4-4.7 4.7-7.2 2.1-14.2 5-20.8 8.6-2.1 1.1-4.6 1.2-6.6 0l-13.9-7.7c-2.7-1.5-6-1-8.2 1.2L27 46.1c-2.2 2.2-2.6 5.5-1.2 8.2l7.7 13.9c1.1 2.1 1.1 4.6 0 6.6-3.6 6.6-6.5 13.6-8.6 20.8-.7 2.3-2.4 4.1-4.7 4.7L5 104.7c-2.9.9-5 3.5-5 6.6v27c0 3.1 2 5.8 5 6.6l15.2 4.4c2.3.7 4 2.4 4.7 4.7 2.1 7.2 5 14.2 8.6 20.8 1.1 2.1 1.2 4.6 0 6.6l-7.7 13.9c-1.5 2.7-1 6 1.2 8.2l19.1 19.1c2.2 2.2 5.5 2.6 8.2 1.2l13.9-7.7c2.1-1.1 4.6-1.1 6.6 0 6.6 3.6 13.6 6.5 20.8 8.6 2.3.7 4.1 2.4 4.7 4.7l4.4 15.2c.9 2.9 3.5 5 6.6 5h27c3.1 0 5.8-2 6.6-5l4.4-15.2c.7-2.3 2.4-4 4.7-4.7 7.2-2.1 14.2-5 20.8-8.6 2.1-1.1 4.6-1.2 6.6 0l13.9 7.7c2.7 1.5 6 1 8.2-1.2l19.1-19.1c2.2-2.2 2.6-5.5 1.2-8.2z" class="logo-pri"/><path fill="#3c3c3f" d="M79.1 85.9h92.7v17.2H79.1zm0 30.6h76.4v17.2H79.1zm0 30.6h92.7v17.2H79.1z" class="logo-sec"/></svg>