<svg xmlns="http://www.w3.org/2000/svg" viewBox="0 0 88.958 102.46"><g fill="none" fill-rule="evenodd"><path fill="#fff" stroke="#2db24a" stroke-width=".25" d="M24.465 54.637c-1.963-.462-6.005-1.732-10.278-4.388 4.619-2.656 8.776-3.118 10.278-3.233a34.4 34.4 0 0 1 1.039-4.966c-1.501-1.155-4.388-3.464-7.044-6.929 4.272-.346 7.968.231 9.815.578.924-1.617 2.08-3.118 3.465-4.62a29.6 29.6 0 0 1-3.234-7.967c3.465 1.5 6.005 3.35 7.276 4.388 1.732-1.27 3.58-2.31 5.427-3.233 0-1.617 0-4.504.693-7.968 2.425 2.54 3.926 4.965 4.504 6.235a30 30 0 0 1 7.275-.577c.462-1.27 1.386-3.464 3.002-6.12a36 36 0 0 1 1.848 6.697c2.54.578 4.966 1.386 7.275 2.541 3.696-3.118 7.16-4.504 11.2-5.543 0-5.08-.692-10.047-3.348-15.012-2.656-1.27-5.543-2.194-8.43-2.887a35 35 0 0 0-7.506 5.427 35.5 35.5 0 0 0-5.89-6.928c-1.154 0-3.348-.116-7.62.577a36.2 36.2 0 0 0-4.735 7.968c-2.54-1.617-5.66-3.002-9.24-3.926-2.077.924-4.04 1.963-6.003 3.118-.693 3.35-.924 6.467-.81 9.354a32.6 32.6 0 0 0-10.161-.347c-1.27 1.386-2.54 2.887-3.695 4.504.23 4.157 1.27 7.737 2.77 10.855a30.6 30.6 0 0 0-10.392 4.62c-.462 1.5-.808 3.117-1.154 4.618 2.078 3.58 4.734 6.467 7.39 8.66-2.656 2.195-5.312 5.197-7.737 9.24a34.4 34.4 0 0 0 1.04 4.965H1.6c2.77-5.774 6.12-9.585 9.354-12.125 6.582 4.504 13.049 5.774 13.973 5.89-.116-1.04-.347-2.08-.462-3.465zM68.347 5.56c2.31 3.465 3.118 7.737 3.349 10.162-2.08.81-5.312 2.31-8.43 4.85-.462-2.194-1.27-5.427-3.003-9.122a32.5 32.5 0 0 1 8.084-5.89zm-20.21-2.31c2.772 2.31 4.85 5.082 6.352 7.622-2.425 3.118-3.926 6.12-4.735 8.2-1.154-2.08-3.233-4.85-6.351-7.622 1.04-2.656 2.54-5.543 4.735-8.2zM28.392 8.91c4.04.808 7.16 2.31 9.815 4.156a36.5 36.5 0 0 0-1.385 9.932c-2.08-1.502-5.081-3.35-9.008-4.62-.346-2.77-.23-6.004.578-9.469zm-4.273 12.702a35.3 35.3 0 0 0 3.464 10.162c-2.656-.462-6.697-.808-11.2-.23a26.1 26.1 0 0 1-2.888-10.51c3.927-.462 7.506-.115 10.624.578zM3.908 40.09c3.35-2.425 7.045-3.695 10.394-4.388 2.425 3.81 5.427 6.582 7.506 8.315a29.1 29.1 0 0 0-10.74 4.157 29.1 29.1 0 0 1-7.16-8.084z"/><g fill="#43b02a" stroke="#43b02a" stroke-width=".25"><path d="M46.52 22.534c-.692-1.27-2.078-3.81-4.503-6.236-.808 3.465-.808 6.467-.693 7.968-.115 0 2.194-1.154 5.197-1.732zm-10.738 4.85a29.2 29.2 0 0 0-7.276-4.388 29.6 29.6 0 0 0 3.234 7.968c0 .231 1.617-1.732 4.042-3.58zm13.973-8.315c.808-2.078 2.31-5.08 4.734-8.199a27.6 27.6 0 0 0-6.351-7.62c-2.194 2.77-3.695 5.542-4.735 8.313 3.118 2.656 5.08 5.428 6.352 7.506zM28.39 35.7c-1.847-.347-5.542-.924-9.815-.578 2.54 3.58 5.427 5.89 7.044 6.93-.115.114.809-3.004 2.772-6.353zM11.185 48.17c4.157-2.656 8.083-3.81 10.74-4.157-2.08-1.732-5.081-4.504-7.506-8.314a27.9 27.9 0 0 0-10.393 4.388 25.9 25.9 0 0 0 7.16 8.083zm13.28-1.039c-1.617.116-5.66.462-10.278 3.234 4.272 2.656 8.314 3.926 10.278 4.388-.347-2.54-.347-5.197 0-7.622zm13.742-34.067c-2.54-1.732-5.774-3.233-9.816-4.157a30.6 30.6 0 0 0-.693 9.47c3.926 1.27 6.929 3.117 9.007 4.62 0-2.31.347-5.89 1.502-9.933zm35.567-8.429s3.233 9.931 3.349 15.012c-3.927.924-7.391 2.31-11.201 5.543C68 26.23 69.848 27.5 71.58 29c1.848 1.616 3.58 2.31 6.005 1.154 1.386-.923 9.123-8.89 9.93-9.93 1.849-1.964 1.387-5.197-.576-6.699-4.85-4.503-13.165-8.89-13.165-8.89zM2.062 36.853c3.464-2.31 6.928-3.81 10.393-4.619-1.501-3.118-2.54-6.698-2.772-10.855-3.35 4.735-6.005 10.047-7.621 15.474zm25.405-5.08c-1.155-2.194-2.657-5.774-3.465-10.163-3.118-.693-6.582-1.039-10.624-.462.23 4.042 1.386 7.507 2.887 10.51a35.2 35.2 0 0 1 11.2.115z"/><path d="M13.379 16.991a32.6 32.6 0 0 1 10.162.347c-.116-2.887.115-6.005.808-9.354 1.963-1.155 3.926-2.194 6.005-3.118 3.695.924 6.698 2.31 9.238 3.926A36.2 36.2 0 0 1 44.327.824C33.817 2.441 23.887 7.06 16.266 14.22c-2.425 2.194-4.62 4.735-6.582 7.391 1.154-1.732 2.425-3.233 3.695-4.62zM1.484 39.163c.23-.808.347-1.5.578-2.31-.231.81-.462 1.617-.578 2.31zM8.413 50.25c-2.656-2.194-5.312-5.08-7.39-8.66C-.132 47.477-.132 53.712.792 59.486c2.194-4.04 4.85-6.928 7.62-9.238zm77.602 29.793c-7.276-6.928-8.777-11.432-14.897-6.697-16.744 13.165-40.88 5.312-45.961-15.128-.924-.116-7.391-1.386-13.973-5.89C7.95 54.867 4.6 58.794 1.83 64.452h-.116c10.51 39.725 61.666 48.963 85.34 24.135 3.926-4.157.346-7.044-1.04-8.545zM68.347 5.56a27.6 27.6 0 0 0-8.084 5.89c1.732 3.694 2.54 7.043 3.003 9.122 3.233-2.54 6.466-4.042 8.43-4.85-.232-2.31-1.04-6.583-3.35-10.162zM56.799 15.836a31.5 31.5 0 0 0-3.003 6.12q2.426.174 4.85.694c-.115-1.386-.693-3.81-1.847-6.814zM69.617 3.02c-.578-.232-1.27-.463-1.848-.578.693.115 1.27.346 1.848.577zM57.837 7.06a35 35 0 0 1 7.507-5.428C61.07.593 56.683.132 51.948.132a35.5 35.5 0 0 1 5.89 6.928z"/></g><g transform="translate(8.182 61.566)"><mask id="a"><path fill="#fff" d="M12.125 1.963C15.82 11.78 28.754 24.828 44.69 24.828c8.776 0 16.744-3.118 22.98-8.43.462-.23 4.735 4.62 6.467 6.467.346.462.346.577.346.577C53.466 41.803 17.783 39.147.923 7.39 2.31 2.771 4.273 0 4.273 0c4.503 1.847 7.852 1.963 7.852 1.963"/></mask><g mask="url(#a)"><g fill="#fff" transform="translate(-9.238 -63.513)"><mask id="b"><path d="M.462.577h90.535v103.93H.462z"/></mask><path stroke="#2db24a" stroke-width=".25" d="M2.656 56.123h88.341v49.656H2.656z" mask="url(#b)"/></g><path stroke="#2db24a" stroke-width=".25" d="M-8.776-62.936h90.535v103.93H-8.776z"/></g></g><path stroke="#2db24a" stroke-width=".25" d="M20.307 63.53c3.695 9.815 16.63 22.864 32.565 22.864 8.777 0 16.744-3.117 22.98-8.43.462-.23 4.735 4.62 6.467 6.467.346.462.346.578.346.578-21.017 18.36-56.7 15.705-73.56-16.052 1.386-4.62 3.35-7.39 3.35-7.39 4.503 1.847 7.852 1.962 7.852 1.962z"/></g></svg>