<svg xmlns="http://www.w3.org/2000/svg" viewBox="0 0 581.21 282.85"><path fill-rule="evenodd" stroke="#fff" stroke-width="9.846" d="M6.734 29.534c5.973 18.756 138.7 97.711 207.44 96.849 37.451-.47 56.202 24.465 56.078 66.527l-62.575 48.476.171 36.538 280.94-.034-.075-33.463-62.36-51.465c1.725-97.28 65.404-139.64 149.86-145.54l.074-42.432-362.28-.065.096 9.155h-34.32l-.122 15.445z" clip-rule="evenodd"/><path fill-rule="evenodd" d="m208.59 241.05 83.496.633.149 36.224" clip-rule="evenodd"/><path stroke="#fff" stroke-width="9.846" d="m208.59 241.05 83.496.633.149 36.224"/><path fill-rule="evenodd" d="m488.68 244.39-84.072.073-.053 33.42" clip-rule="evenodd"/><path stroke="#fff" stroke-width="9.846" d="m488.68 244.39-84.072.073-.053 33.42"/><path fill-rule="evenodd" d="M290.59 244.24c36.431-38.922 80.037-31.829 113.86.395z" clip-rule="evenodd"/><path stroke="#fff" stroke-width="9.846" d="M290.59 244.24c36.431-38.922 80.037-31.829 113.86.395"/><path fill-rule="evenodd" d="M179.87 17.306v66.62z" clip-rule="evenodd"/><path stroke="#fff" stroke-width="9.846" d="M179.87 17.306v66.62"/><path fill-rule="evenodd" d="m213.97 17.306.192 108.88z" clip-rule="evenodd"/><path stroke="#fff" stroke-width="9.846" d="m213.97 17.306.192 108.88"/><path fill-rule="evenodd" d="m429.56 168.64-40.595.074z" clip-rule="evenodd"/><path stroke="#fff" stroke-width="9.846" d="m429.56 168.64-40.595.074"/><path fill-rule="evenodd" d="m426.37 193.13-25.175-.073z" clip-rule="evenodd"/><path stroke="#fff" stroke-width="9.846" d="m426.37 193.13-25.175-.073"/></svg>