<svg xmlns="http://www.w3.org/2000/svg" viewBox="0 0 221.81 150.01"><defs><clipPath id="a"><path d="M137.68 131.78c-5.667 0-10.279-4.109-10.279-9.159s4.612-9.159 10.279-9.159H253.9c5.667 0 10.278 4.108 10.278 9.159 0 5.05-4.611 9.159-10.278 9.159z"/></clipPath><clipPath id="c"><path d="M0 338h397V0H0z"/></clipPath><linearGradient id="b" x2="1" gradientTransform="matrix(136.78 0 0 -136.78 127.4 122.62)" gradientUnits="userSpaceOnUse"><stop offset="0" stop-color="#ffae02"/><stop offset=".528" stop-color="#ff972a"/><stop offset="1" stop-color="#fe7e57"/><stop offset="1" stop-color="#fe7e57"/></linearGradient></defs><g clip-path="url(#a)" transform="matrix(1.3333 0 0 -1.3333 -150.16 301.3)"><path fill="url(#b)" d="M137.68 131.78c-5.667 0-10.279-4.109-10.279-9.159s4.612-9.159 10.279-9.159H253.9c5.667 0 10.278 4.108 10.278 9.159 0 5.05-4.611 9.159-10.278 9.159z"/></g><g clip-path="url(#c)" transform="matrix(1.3333 0 0 -1.3333 -150.16 301.3)"><path fill="#2e2e2e" d="M278.97 184.35c0-18.063-7.036-30.65-20.904-36.183-5.829-2.32-12.809-3.508-20.755-3.508h-24.709c-5.142 0-9.319 4.177-9.319 9.32a9.27 9.27 0 0 0 2.728 6.59 9.28 9.28 0 0 0 6.591 2.729h15.891c24.394 0 29.926 4.511 29.926 19.622 0 18.806-7.277 23.132-22.723 23.132h-79.827c-15.687 0-22.686-4.437-22.686-23.132 0-15.129 5.848-19.622 29.908-19.622h15.946a9.314 9.314 0 0 0 9.32-9.319 9.27 9.27 0 0 0-2.729-6.591 9.24 9.24 0 0 0-6.591-2.729h-24.765c-7.964 0-14.944 1.188-20.755 3.508-13.868 5.533-20.903 18.12-20.903 36.183 0 27.234 15.389 41.621 44.536 41.621h77.265c29.146 0 44.555-14.387 44.555-41.621"/></g></svg>