<svg xmlns="http://www.w3.org/2000/svg" fill="none" viewBox="0 0 23.426 21.286"><g stroke-linecap="round" stroke-linejoin="round" clip-path="url(#a)" transform="translate(-.425 -1.368)"><path fill="url(#b)" stroke="url(#b)" stroke-width=".864" d="M23.021 22.222H1.257c-.311 0-.506-.35-.35-.632l5.441-9.801 5.442-9.8a.397.397 0 0 1 .7 0l3.5 6.304a4.827 4.827 0 0 0 1.164 9.511 4.8 4.8 0 0 0 3.361-1.364l2.859 5.15c.155.28-.04.632-.35.632z"/><path stroke="url(#d)" stroke-width="1.663" d="M21.999 14.562a4.825 4.825 0 0 1-9.222-1.995 4.825 4.825 0 0 1 6.916-4.351"/></g><defs><linearGradient id="b" x1="23.428" x2="3.085" y1="1.778" y2="24.244" gradientUnits="userSpaceOnUse"><stop offset=".001" stop-color="#FFB200"/><stop offset=".081" stop-color="#FFB100"/><stop offset=".156" stop-color="#FFAF02"/><stop offset=".225" stop-color="#FEAB04"/><stop offset=".291" stop-color="#FDA606"/><stop offset=".353" stop-color="#FCA00A"/><stop offset=".413" stop-color="#FB980E"/><stop offset=".471" stop-color="#FA9013"/><stop offset=".529" stop-color="#F98618"/><stop offset=".587" stop-color="#F77B1E"/><stop offset=".647" stop-color="#F56F24"/><stop offset=".709" stop-color="#F3632B"/><stop offset=".774" stop-color="#F25532"/><stop offset=".844" stop-color="#EF473A"/><stop offset=".918" stop-color="#ED3842"/><stop offset=".999" stop-color="#EB284B"/></linearGradient><linearGradient id="d" x1="21.999" x2="12.356" y1="7.741" y2="16.953" gradientUnits="userSpaceOnUse"><stop offset=".001" stop-color="#FFB200"/><stop offset=".081" stop-color="#FFB100"/><stop offset=".156" stop-color="#FFAF02"/><stop offset=".225" stop-color="#FEAB04"/><stop offset=".291" stop-color="#FDA606"/><stop offset=".353" stop-color="#FCA00A"/><stop offset=".413" stop-color="#FB980E"/><stop offset=".471" stop-color="#FA9013"/><stop offset=".529" stop-color="#F98618"/><stop offset=".587" stop-color="#F77B1E"/><stop offset=".647" stop-color="#F56F24"/><stop offset=".709" stop-color="#F3632B"/><stop offset=".774" stop-color="#F25532"/><stop offset=".844" stop-color="#EF473A"/><stop offset=".918" stop-color="#ED3842"/><stop offset=".999" stop-color="#EB284B"/></linearGradient><clipPath id="a"><path fill="#fff" d="M0 .074h23.851v23.851H0z"/></clipPath></defs></svg>