<svg xmlns="http://www.w3.org/2000/svg" viewBox="0 0 21.095 25.872"><g stroke="#000" stroke-width=".265" transform="translate(1.972 -97.068)"><circle cx="8.634" cy="98.429" r="1.228" fill="#fff"/><circle cx="-.611" cy="106.15" r="1.228" fill="#ff0"/><circle cx="8.576" cy="106.15" r="1.228" fill="#f0f"/><circle cx="17.763" cy="106.15" r="1.228" fill="#0ff"/><circle cx="8.634" cy="121.58" r="1.228"/><circle cx="8.576" cy="113.86" r="1.228" fill="#0f0"/><circle cx="17.763" cy="113.86" r="1.228" fill="#00f"/><circle cx="-.611" cy="113.86" r="1.228" fill="red"/></g><g stroke="#000200" stroke-width=".2"><path fill="none" d="M2.956 7.812 9.06 2.62"/><path fill="#0f0" d="m10.522 7.052.099-3.72"/><g fill="none"><path d="m12.159 2.607 6.019 5.143M1.394 14.782l.033-3.72M2.915 15.472l6.118-5.126M2.932 10.362l2.662 2.249M6.349 13.242l2.635 2.228M12.044 10.392l6.151 5.11M12.077 15.522l2.668-2.248M18.179 10.332l-2.712 2.348M19.682 11.072l.034 3.688M2.898 18.082l6.119 5.16M10.588 18.782v3.671M12.159 23.232l6.019-5.16"/></g></g></svg>