<svg xmlns="http://www.w3.org/2000/svg" viewBox="0 0 84.519 82.588"><path fill="#fff" stroke="#9dc6e7" stroke-linecap="round" stroke-linejoin="round" stroke-width="1.8205006" d="M42.487 81.666 9.28 65.78.986 29.882 23.85 1.007l36.804-.11 23.032 28.737-8.086 35.945z"/><path fill="none" stroke="#ccc" stroke-opacity=".953" stroke-width="1.3662358" d="m24.592 4.149 2.588 4.337M59.006 3.65l-2.462 4.41M81.69 31.074l-4.917 1.161"/><path fill="none" stroke="#ccc" stroke-opacity=".953" stroke-width="1.36624374" d="m3.438 30.996 4.916 1.16"/><path fill="#ba75cb" stroke="#892ca0" stroke-linecap="round" stroke-linejoin="round" stroke-miterlimit="0" stroke-width="1.31348244" d="m18.296 43.018-1.048-6.75 5.879 6.166z"/><path fill="#fff" d="M53.068 50.015c-.692.35-1.247.945-1.81 1.474-1.78 1.868-2.975 4.417-2.82 7.035-.04 1.366.296 2.728.82 3.972 1.723.057 3.475.005 5.207-.072.26-.277-.451-.514-.61-.752-1.594-1.294-2.827-3.232-2.81-5.332a9.7 9.7 0 0 1 2.066-6.011c.078-.093.16-.31-.043-.314"/><path fill="none" stroke="#3c6eb4" stroke-linecap="round" stroke-linejoin="round" stroke-width="1.31348244" d="M33.068 67.832s1.45-2.439 4.705-2.613c6.715 1.017 8.8 6.057 14.799.925"/><path fill="#fff" d="M58.097 48.378c-.874-.02-1.57.563-2.283.982-2.579 1.695-4.078 4.939-3.595 7.995.533 2.118 2.3 3.669 4.113 4.742.591.293 1.277.005 1.9-.005 1.41-.197 2.845-.32 4.226-.655.181-.283-.36-.352-.519-.448-2.167-.782-4.138-2.363-4.923-4.583-.577-1.513-.596-3.222-.29-4.799.34-1.228 1.145-2.245 2.067-3.098.128-.352-.54-.087-.696-.133z"/><g fill="none"><path stroke="#3c6eb4" stroke-linecap="round" stroke-linejoin="round" stroke-width="1.31348244" d="M59.537 45.615s-8.357 2.307-7.98 10.33c.201 4.288 4.744 6.68 4.744 6.68"/><path stroke="#3c6eb4" stroke-linecap="round" stroke-linejoin="round" stroke-width="1.31348244" d="M61.737 47.782s-4.56 1.324-4.688 5.27c-.25 7.65 8.446 8.15 8.446 8.15"/><g stroke-width="1.074"><path d="M38.305 55.783c-8.015.156-14.531 8.592-14.531 8.592l18.855-2.12v-.018c-4.38-.984-6.755-3.006-4.324-6.454z"/><path stroke="#3c6eb4" stroke-linecap="round" stroke-linejoin="round" stroke-width=".853" d="M-1015.9 440.32s4.262-5.152 9.463-5.253c-4.306 6.114 14.615 5.336 19.871 2.744" transform="matrix(1.5409 0 0 1.53907 1589.214 -613.806)"/></g><path stroke="#3c6eb4" stroke-linecap="round" stroke-linejoin="round" stroke-width="1.31348244" d="M14.11 55.127c3.792 5.265 16.614-11.261 25.135-15.401 16.048-7.797 31.848 1.317 24.363 13.648.827-5.564-6.972-13.75-14.428-5.236s-.065 14.993-.311 14.81"/></g><path fill="#9dc6e7" d="M55.897 45.036c-2.25-.012-4.251 1.334-5.758 2.9-1.902 2.003-3.522 4.51-3.712 7.332-.178 2.284.633 4.563 2.027 6.358.311.33.54.947 1.09.811 1.692-.021 3.409.055 5.084-.127.04-.306-.466-.46-.651-.705-1.497-1.35-2.714-3.202-2.905-5.244-.065-1.4-.042-2.838.466-4.17.923-2.804 3.191-4.985 5.806-6.26.18-.16.71-.207.625-.53-.613-.344-1.382-.345-2.072-.365z"/><path fill="#9dc6e7" d="M59.057 46.343c-2.777 1.08-5.37 3.098-6.42 5.968-.78 2.126-.817 4.661.469 6.605.802 1.23 1.934 2.233 3.163 3.025.477.427 1.121.117 1.678.108 1.552-.216 3.135-.374 4.653-.731.01-.314-.56-.296-.798-.459-1.708-.668-3.271-1.845-4.246-3.416-1.196-2.099-1.498-4.855-.281-7.018.864-1.324 2.181-2.292 3.614-2.93.14-.301-.404-.492-.566-.732-.325-.22-.653-.767-1.091-.483z"/><g stroke-linecap="round" stroke-linejoin="round" stroke-miterlimit="0" transform="matrix(1.65426 0 0 1.65426 1049.991 -137.346)"><path fill="#003e6f" stroke="#003e6f" stroke-width=".265" d="m-593.88 98.238-5.16.677v-.939l4.457-.606c.05-.847-.07-1.694-.643-2.541 0 0 .26-.282.575-.109.314.174.71 1.44.71 1.44s.316-.397.494-.95c.179-.55.208-.905.144-1.07s.278-.334.619.05c.369.61-.418 1.722-.771 2.413 0 .114.018.167.125.172.12.006 1.34-1.153 1.468-1.548 0 0 .35.123.445.413.189.75-1.53 1.658-1.528 2.056.066.16.645.683 1.034 1.082.666.684-.127.988-.21.788-.189-.46-1.759-1.328-1.759-1.328"/><rect width="32.308" height="2.816" x="-634.15" y="20.771" fill="#ba75cb" stroke="#892ca0" stroke-width=".651" ry="1.408" transform="rotate(-7.983)skewX(-.01)"/><path fill="#003e6f" stroke="#003e6f" stroke-width=".265" d="m-624.77 101.71 6.751-.93-.237-.907-6.053.82c-.262-.808-.361-1.657-.02-2.622 0 0-.323-.207-.583.04-.26.248-.324 1.572-.324 1.572s-.406-.304-.718-.793-.43-.823-.41-1c.02-.176-.353-.253-.586.205-.203.684.84 1.561 1.356 2.14.028.111.025.166-.078.198-.115.036-1.587-.777-1.812-1.127 0 0-.307.208-.326.512.007.774 1.9 1.218 1.998 1.604-.023.17-.452.824-.727 1.308-.471.83.373.924.402.71.067-.493 1.367-1.73 1.367-1.73"/></g><g fill="#2a72ac" stroke-linecap="round" stroke-linejoin="round" stroke-miterlimit="0" stroke-width=".794" transform="matrix(1.65426 0 0 1.65426 48.916 -919)"><rect width="19.767" height="13.437" x="-92.325" y="559.86" stroke="#003e6f" ry=".367" transform="rotate(-7.706)skewX(.202)"/><path stroke="#649cca" d="m-11.076 578.34-1.187-9.73"/><path stroke="#195d94" d="m-7.948 577.91-1.187-9.73"/><path stroke="#649cca" d="m-11.076 578.34 3.182-.46"/><path stroke="#003e6f" d="m-12.369 568.63 3.182-.46"/><path stroke="#649cca" d="m-5.036 577.47-1.188-9.73"/><path stroke="#195d94" d="m-1.908 577.03-1.187-9.73"/><path stroke="#649cca" d="m-5.036 577.47 3.182-.46"/><path stroke="#003e6f" d="m-6.328 567.76 3.182-.46"/><path stroke="#649cca" d="m1.314 576.71-1.187-9.73"/><path stroke="#195d94" d="m4.442 576.27-1.187-9.73"/><path stroke="#649cca" d="m1.314 576.71 3.182-.46"/><path stroke="#003e6f" d="m.022 566.99 3.182-.46"/></g><g stroke-width=".993" transform="matrix(-1.639 .26647 .2551 1.65323 2037.072 -102.574)"><g stroke-linecap="square"><path fill="none" stroke="#000" stroke-width=".525" d="M1203.9-122.38c-.33-.41-.849-.66-1.375-.664-.496-.004-.99.21-1.326.575"/><ellipse cx="-1206.3" cy="-75.636" stroke="#9dc6e7" stroke-width=".788" rx="1.869" ry="1.943" transform="matrix(-.99938 .03515 .03513 .99938 0 0)"/></g><ellipse cx="1206.9" cy="-76.183" fill="#fff" rx=".919" ry=".968" transform="matrix(.99938 -.03515 .03513 .99938 0 0)"/></g><g stroke-width=".993" transform="matrix(1.65773 -.09572 .10992 1.66915 -1933.797 333.423)"><g stroke-linecap="square"><path fill="none" stroke="#000" stroke-width=".525" d="M1203.9-122.38c-.33-.41-.849-.66-1.375-.664-.496-.004-.99.21-1.326.575"/><ellipse cx="-1206.3" cy="-75.636" stroke="#9dc6e7" stroke-width=".788" rx="1.869" ry="1.943" transform="matrix(-.99938 .03515 .03513 .99938 0 0)"/></g><ellipse cx="1206.9" cy="-76.183" fill="#fff" rx=".919" ry=".968" transform="matrix(.99938 -.03515 .03513 .99938 0 0)"/></g></svg>