<svg xmlns="http://www.w3.org/2000/svg" viewBox="0 0 94.986 101.87"><defs><linearGradient id="e" x1="17.799" x2="80.332" y1="92.108" y2="9.173" gradientTransform="matrix(.95511 0 0 1.047 1.899 .6)" gradientUnits="userSpaceOnUse" href="#a"/><linearGradient id="a"><stop offset="0" stop-opacity=".096"/><stop offset="1" stop-opacity="0"/></linearGradient><linearGradient id="f" x1="144.46" x2="25.021" y1="-33.309" y2="54.606" gradientTransform="matrix(.98901 0 0 1.0111 1.899 .6)" gradientUnits="userSpaceOnUse"><stop offset="0" stop-color="#fff"/><stop offset="1" stop-color="#fff" stop-opacity="0"/></linearGradient><linearGradient id="h" x1="85.254" x2="18.096" y1="25.795" y2="107.64" gradientTransform="matrix(.95543 0 0 1.0467 1.899 .6)" gradientUnits="userSpaceOnUse" href="#b"/><linearGradient id="b"><stop offset="0" stop-color="#dadada"/><stop offset=".349" stop-color="#f1f1f1"/><stop offset="1" stop-color="#f0f0f0"/></linearGradient><linearGradient id="i" x1="87.733" x2="66.495" y1="15.004" y2="36.062" gradientTransform="matrix(.95529 0 0 1.0468 1.899 .6)" gradientUnits="userSpaceOnUse" href="#b"/><linearGradient id="c" x1="17.836" x2="78.654" y1="90.908" y2="10.248" gradientTransform="matrix(.95358 0 0 1.0487 1.899 .6)" gradientUnits="userSpaceOnUse" href="#a"/><linearGradient id="d" x1="18.002" x2="79.677" y1="91.507" y2="9.711" gradientTransform="matrix(.95435 0 0 1.0478 1.899 .6)" gradientUnits="userSpaceOnUse" href="#a"/><radialGradient id="j" cx="33.967" cy="35.737" r="86.708" gradientTransform="scale(.9605 1.0411)" gradientUnits="userSpaceOnUse"><stop offset="0" stop-color="#fafafa"/><stop offset="1" stop-color="#bbb"/></radialGradient><radialGradient id="k" cx="8.824" cy="3.756" r="37.752" gradientTransform="matrix(.96827 0 0 1.0328 3.354 .646)" gradientUnits="userSpaceOnUse"><stop offset="0" stop-color="#a3a3a3"/><stop offset="1" stop-color="#4c4c4c"/></radialGradient><radialGradient id="l" cx="8.144" cy="7.268" r="38.159" gradientTransform="matrix(.96827 0 0 1.0328 3.354 .646)" gradientUnits="userSpaceOnUse"><stop offset="0" stop-color="#fff"/><stop offset="1" stop-color="#f8f8f8"/></radialGradient><radialGradient id="m" cx="20.892" cy="114.57" r="5.256" gradientTransform="translate(4.614 3.98)scale(.2297)" gradientUnits="userSpaceOnUse"><stop offset="0" stop-color="#f0f0f0"/><stop offset="1" stop-color="#9a9a9a"/></radialGradient><radialGradient id="n" cx="20.892" cy="64.568" r="5.257" gradientTransform="translate(4.614 3.98)scale(.2297)" gradientUnits="userSpaceOnUse"><stop offset="0" stop-color="#f0f0f0"/><stop offset="1" stop-color="#9a9a9a"/></radialGradient></defs><g fill-opacity=".75" fill-rule="evenodd"><path fill="url(#c)" d="M14.764 10.663v87.315h79.398V32.491L74.313 10.662z" transform="translate(-13.109 -9.538)scale(1.0667)"/><path fill="url(#d)" d="M14.875 10.373v88.184h80.581v-66.29c-6.725-7.396-13.447-14.794-20.178-22.184H14.875z" transform="translate(-13.109 -9.538)scale(1.0667)"/><path fill="url(#e)" d="M14.633 9.793v89.344H96.4V32.044c-6.835-7.515-13.667-15.032-20.509-22.541H14.633z" transform="translate(-13.109 -9.538)scale(1.0667)"/></g><g fill-rule="evenodd"><path fill="#fff" d="M2.804.022v94.055h85.833V23.536L67.18.02z"/><path fill="url(#f)" d="m22.027 11.615-.362 80.817h79.005l.045-19.978c-1.767.68-19.615-24.599-42.085-23.511-22.49 1.088-16.671-34.066-36.603-37.328" transform="translate(-13.109 -9.538)scale(1.0667)"/><path fill="url(#h)" stroke="#000" stroke-opacity=".365" stroke-width=".256" d="M12.417 9.072v88.174h80.466v-66.13L72.766 9.07z" transform="translate(-13.109 -9.538)scale(1.0667)"/><path fill="url(#i)" d="M93.103 31.116c-6.065-1.795-13.924-1.54-19.86-.518 1.025-6.577 1.153-14.82-.256-21.526z" transform="translate(-13.109 -9.538)scale(1.0667)"/></g><path d="M7.799 22.354v-4.802H6.97v-.73h.828v-.588q0-.557.099-.828.135-.365.474-.589.343-.229.958-.229.396 0 .875.094l-.14.818q-.292-.052-.553-.052-.427 0-.604.182t-.177.682v.51h1.08v.73H8.731v4.802zm2.74 0v-5.531h.843v.786q.61-.911 1.76-.911.5 0 .917.182.422.177.63.469t.292.692q.052.26.052.912v3.401h-.937v-3.365q0-.573-.11-.854-.109-.286-.39-.453-.276-.172-.651-.172-.6 0-1.037.38-.432.38-.432 1.443v3.021zm9.542-.682q-.521.442-1.006.625-.479.182-1.031.182-.911 0-1.401-.443-.49-.448-.49-1.14 0-.407.183-.74.187-.339.484-.542.302-.203.677-.307.276-.073.833-.14 1.136-.136 1.672-.324.006-.192.006-.244 0-.573-.266-.808-.36-.317-1.068-.317-.661 0-.979.234-.312.23-.464.818l-.916-.125q.125-.589.411-.948.287-.365.828-.558.542-.197 1.256-.197.708 0 1.15.166t.652.422q.208.25.291.636.047.24.047.864v1.25q0 1.307.058 1.656.062.344.24.662h-.98q-.146-.292-.188-.682m-.079-2.094q-.51.208-1.53.354-.58.083-.819.188-.24.104-.37.307-.13.198-.13.443 0 .375.282.625.286.25.833.25.542 0 .964-.235.421-.24.62-.65.15-.319.15-.938zm2.401 2.776v-5.531h.839v.776q.26-.407.693-.651.432-.25.984-.25.615 0 1.005.255.396.255.558.713.656-.968 1.708-.968.823 0 1.266.458.443.453.443 1.401v3.797h-.933V18.87q0-.563-.094-.808-.088-.25-.328-.4-.24-.152-.562-.152-.584 0-.969.39-.385.386-.385 1.24v3.214h-.938V18.76q0-.625-.23-.937-.228-.313-.75-.313-.395 0-.734.208-.333.209-.484.61-.151.4-.151 1.156v2.87zm12.672-1.781.97.12q-.23.848-.85 1.317t-1.583.469q-1.214 0-1.927-.745-.709-.75-.709-2.099 0-1.396.72-2.167.718-.77 1.864-.77 1.11 0 1.812.755.704.755.704 2.125 0 .083-.006.25h-4.125q.052.911.516 1.396.463.484 1.156.484.516 0 .88-.27.365-.271.579-.865m-3.078-1.516h3.089q-.063-.698-.354-1.047-.448-.542-1.162-.542-.646 0-1.088.433-.438.432-.485 1.156"/><g transform="translate(-200.6 -305.8)scale(.73988)"><rect width="34.875" height="40.92" x="6.604" y="3.646" fill="url(#j)" stroke="url(#k)" stroke-linecap="round" stroke-linejoin="round" color="#000" rx="1.657" ry="1.657" transform="translate(357.53 505.94)"/><rect width="32.776" height="38.946" x="7.666" y="4.584" fill="none" stroke="url(#l)" stroke-linecap="round" stroke-linejoin="round" color="#000" rx=".215" ry=".215" transform="translate(357.53 505.94)"/><path fill="#fff" d="M368.53 536.12a.82.82 0 1 1-1.641 0 .82.82 0 0 1 1.641 0m0-11.485a.821.821 0 1 1-1.642 0 .821.821 0 0 1 1.642 0"/><path fill="url(#m)" d="M9.995 29.952a.82.82 0 1 1-1.641 0 .82.82 0 0 1 1.641 0" transform="translate(358.18 505.91)"/><path fill="url(#n)" d="M9.995 18.467a.821.821 0 1 1-1.642 0 .821.821 0 0 1 1.642 0" transform="translate(358.18 505.91)"/><path fill="none" stroke="#000" stroke-opacity=".018" stroke-width=".989" d="M369.04 511.44v37.907"/><path fill="none" stroke="#fff" stroke-opacity=".205" d="M370.03 510.96v38.018"/><g fill="#9b9b9b" fill-opacity=".55" color="#000" transform="matrix(.9091 0 0 1 359.9 505.94)"><rect width="22" height="1" x="15" y="9" rx=".219" ry=".094"/><rect width="22" height="1" x="15" y="11" rx=".219" ry=".094"/><rect width="22" height="1" x="15" y="13" rx=".219" ry=".094"/><rect width="22" height="1" x="15" y="15" rx=".219" ry=".094"/><rect width="22" height="1" x="15" y="17" rx=".219" ry=".094"/><rect width="22" height="1" x="15" y="19" rx=".219" ry=".094"/><rect width="22" height="1" x="15" y="21" rx=".219" ry=".094"/><rect width="22" height="1" x="15" y="23" rx=".219" ry=".094"/><rect width="9.9" height="1" x="15" y="25" rx=".098" ry=".094"/><rect width="22" height="1" x="15" y="29" rx=".219" ry=".094"/><rect width="22" height="1" x="15" y="31" rx=".219" ry=".094"/><rect width="22" height="1" x="15" y="33" rx=".219" ry=".094"/><rect width="22" height="1" x="15" y="35" rx=".219" ry=".094"/><rect width="15.4" height="1" x="15" y="37" rx=".153" ry=".094"/></g></g><g stroke-width="1pt" font-family="arial"><path d="M7.575 34.23V28.7h.843v.787q.61-.912 1.76-.912.5 0 .918.182.421.177.63.47.208.29.292.692.052.26.052.911v3.401h-.938v-3.364q0-.573-.11-.854-.109-.287-.39-.454-.276-.171-.651-.171-.599 0-1.037.38-.432.38-.432 1.442v3.021zm9.542-.682q-.521.443-1.006.625-.479.182-1.03.182-.912 0-1.402-.442-.49-.448-.49-1.14 0-.407.183-.74.187-.34.484-.542.302-.203.677-.308.276-.072.834-.14 1.135-.136 1.671-.323.006-.193.006-.245 0-.573-.266-.807-.36-.318-1.068-.318-.661 0-.979.234-.312.23-.463.818l-.917-.125q.125-.588.411-.948.287-.364.828-.557.542-.198 1.256-.198.708 0 1.15.167t.652.422q.208.25.292.635.046.24.046.865v1.25q0 1.307.058 1.656.062.344.24.661h-.98q-.146-.291-.187-.682m-.079-2.094q-.51.209-1.53.354-.579.084-.819.188t-.37.307q-.13.198-.13.443 0 .375.282.625.286.25.833.25.542 0 .964-.234.422-.24.62-.651.15-.318.15-.938zm2.402 2.776V28.7h.843v.786q.61-.911 1.76-.911.5 0 .918.182.421.177.63.469.208.292.291.693.053.26.053.911v3.401h-.938v-3.364q0-.573-.11-.854-.109-.287-.39-.454-.276-.171-.651-.171-.599 0-1.037.38-.432.38-.432 1.442v3.021zm9.542-2.026.921.12q-.15.953-.776 1.495-.62.536-1.526.536-1.135 0-1.828-.74-.687-.744-.687-2.13 0-.895.296-1.567.297-.672.901-1.005.61-.339 1.323-.339.901 0 1.474.458.573.453.735 1.292l-.912.14q-.13-.557-.463-.838-.328-.281-.797-.281-.709 0-1.151.51-.443.505-.443 1.604 0 1.115.427 1.62t1.115.506q.552 0 .922-.339t.468-1.042zm1.682 4.157-.104-.88q.307.083.536.083.313 0 .5-.104t.307-.292q.089-.14.287-.698.026-.078.083-.23l-2.099-5.54h1.01l1.152 3.203q.224.61.4 1.281.162-.645.386-1.26l1.183-3.224h.937l-2.104 5.625q-.339.912-.526 1.255-.25.464-.573.678-.323.218-.771.218-.27 0-.604-.114m-19.303 6.097.97.12q-.23.849-.85 1.318t-1.583.468q-1.214 0-1.927-.745-.709-.75-.709-2.099 0-1.395.72-2.166t1.864-.771q1.11 0 1.812.755.703.755.703 2.125 0 .084-.005.25H8.231q.052.912.516 1.396.463.484 1.156.484.516 0 .88-.27.365-.271.578-.865m-3.078-1.516h3.089q-.063-.698-.354-1.047-.448-.541-1.162-.541-.646 0-1.088.432-.438.432-.485 1.156m5.214 3.297v-5.53h.844v.838q.323-.588.594-.776.276-.187.604-.187.474 0 .963.302l-.323.87q-.343-.203-.687-.203-.307 0-.552.187-.245.182-.35.51-.156.5-.156 1.094v2.896zm3.568-6.557v-1.078h.937v1.078zm0 6.557v-5.53h.937v5.531zm2.364 0v-5.53h.844v.786q.61-.911 1.76-.911.5 0 .917.182.422.177.63.469t.292.693q.052.26.052.911v3.401h-.937v-3.364q0-.573-.11-.855-.109-.286-.39-.453-.276-.172-.651-.172-.6 0-1.037.38-.432.38-.432 1.443v3.021zm-9.807 9.545.135.828q-.396.084-.708.084-.51 0-.792-.162t-.396-.422q-.114-.265-.114-1.11v-3.181h-.688v-.73h.688v-1.37l.932-.562v1.932h.943v.73h-.943v3.234q0 .401.047.516.052.114.161.182.115.068.323.068.156 0 .412-.037m.567-1.927q0-1.536.855-2.276.713-.615 1.74-.615 1.14 0 1.864.75.724.745.724 2.063 0 1.068-.323 1.682-.318.61-.932.948-.61.339-1.334.339-1.161 0-1.88-.745-.714-.745-.714-2.146m.964 0q0 1.063.463 1.594.464.526 1.167.526.698 0 1.162-.531.463-.532.463-1.62 0-1.026-.468-1.552-.464-.532-1.157-.532-.703 0-1.166.526t-.464 1.589m5.318 2.766v-5.532h.844v.787q.609-.912 1.76-.912.5 0 .917.183.422.177.63.468t.292.693q.052.26.052.912v3.4h-.938V51.26q0-.573-.11-.854-.108-.286-.39-.453-.276-.172-.65-.172-.6 0-1.037.38-.433.38-.433 1.443v3.02zm5.89 2.13-.103-.88q.307.083.536.083.313 0 .5-.104.188-.104.307-.292.089-.14.287-.698.026-.078.083-.229l-2.099-5.542h1.01l1.152 3.204q.224.609.4 1.28.162-.645.386-1.26l1.182-3.224h.938l-2.104 5.626q-.339.911-.526 1.255-.25.463-.573.677-.323.219-.771.219-.271 0-.604-.115" font-size="10" font-weight="400"/><path d="M38.23 71.645h-1.28v-1.281h1.28zm0-3.556h-1.28v-1.282h1.28zm0-3.557h-1.28v-1.281h1.28z"/><g font-size="10"><path d="M37.54 20.4h1.463v1.046q0 .636-.11 1-.109.37-.416.662-.302.292-.771.458l-.286-.604q.442-.146.63-.4.187-.256.198-.699h-.709zm0 10.667h1.463v1.046q0 .636-.11 1-.109.37-.416.662-.302.292-.771.458l-.286-.604q.442-.146.63-.4.187-.256.198-.699h-.709zm0 10.667h1.463v1.046q0 .636-.11 1-.109.37-.416.662-.302.292-.771.458l-.286-.604q.442-.146.63-.4.187-.256.198-.699h-.709zm0 10.666h1.463v1.047q0 .636-.11 1-.109.37-.416.662-.302.292-.771.458l-.286-.604q.442-.146.63-.4.187-.256.198-.699h-.709z"/><path d="M47.137 34.226v-.698q-.526.823-1.546.823-.662 0-1.22-.364-.551-.365-.859-1.016-.302-.656-.302-1.505 0-.828.276-1.5.276-.677.828-1.037.553-.36 1.235-.36.5 0 .89.214.391.209.636.547v-2.74h.932v7.636zm-2.963-2.76q0 1.062.448 1.588t1.057.526q.615 0 1.042-.5.432-.505.432-1.536 0-1.136-.437-1.667-.438-.531-1.079-.531-.625 0-1.046.51-.417.51-.417 1.61m8.917 2.078q-.521.442-1.005.625-.48.182-1.032.182-.911 0-1.4-.443-.49-.448-.49-1.14 0-.407.182-.74.187-.338.484-.542.302-.203.677-.307.276-.073.834-.14 1.135-.136 1.672-.323.005-.193.005-.245 0-.573-.266-.808-.36-.317-1.067-.317-.662 0-.98.234-.312.23-.463.818l-.917-.125q.125-.589.412-.948.286-.365.828-.557.541-.198 1.255-.198.708 0 1.151.166t.651.422q.208.25.292.636.047.24.047.864v1.25q0 1.308.057 1.657.062.343.24.661h-.98q-.145-.292-.187-.682m-.078-2.094q-.51.208-1.532.354-.578.083-.817.188-.24.104-.37.307-.13.198-.13.443 0 .375.281.625.286.25.833.25.542 0 .964-.235.422-.24.62-.65.15-.318.15-.938zm3.937 2.776-2.104-5.531h.99l1.187 3.312q.193.537.354 1.115.125-.438.35-1.052l1.229-3.375h.963l-2.094 5.531zm3.448-2.766q0-1.536.855-2.276.713-.614 1.74-.614 1.14 0 1.864.75.724.744.724 2.062 0 1.068-.323 1.682-.318.61-.932.948-.61.339-1.334.339-1.161 0-1.88-.745-.714-.745-.714-2.146m.964 0q0 1.063.463 1.594.464.526 1.167.526.698 0 1.162-.531t.463-1.62q0-1.026-.468-1.552-.464-.531-1.157-.531-.703 0-1.167.526t-.463 1.588M44.77 44.24h-.87v-7.635h.938v2.724q.594-.745 1.516-.745.51 0 .963.208.459.203.75.578.297.37.464.896t.167 1.125q0 1.422-.703 2.198-.704.776-1.688.776-.98 0-1.536-.817zm-.01-2.807q0 .995.27 1.438.444.724 1.199.724.614 0 1.062-.532.448-.536.448-1.593 0-1.084-.432-1.6-.427-.515-1.037-.515-.614 0-1.062.536-.448.532-.448 1.542m4.73.042q0-1.537.854-2.276.713-.615 1.74-.615 1.14 0 1.864.75.724.745.724 2.063 0 1.067-.323 1.682-.318.61-.932.948-.61.338-1.334.338-1.161 0-1.88-.745-.714-.744-.714-2.145m.963 0q0 1.062.463 1.593.464.526 1.167.526.698 0 1.162-.53.463-.532.463-1.62 0-1.027-.468-1.553-.464-.531-1.157-.531-.703 0-1.167.526-.463.526-.463 1.589m5.307 2.765v-5.53h.844v.839q.323-.589.594-.776.276-.188.604-.188.474 0 .964.302l-.323.87q-.344-.203-.688-.203-.307 0-.552.187-.245.183-.349.51-.156.5-.156 1.095v2.895zm7.172-.682q-.52.443-1.005.625-.479.182-1.031.182-.912 0-1.401-.442-.49-.448-.49-1.141 0-.406.183-.74.187-.338.484-.541.302-.203.677-.308.276-.072.833-.14 1.136-.136 1.672-.323.006-.193.006-.245 0-.573-.266-.807-.36-.318-1.068-.318-.661 0-.98.234-.312.23-.463.818l-.916-.125q.125-.588.411-.948.287-.364.828-.557.542-.198 1.256-.198.708 0 1.15.167t.652.422q.208.25.291.635.047.24.047.865v1.25q0 1.307.058 1.656.062.344.24.661h-.98q-.146-.291-.188-.682m-.078-2.094q-.51.209-1.53.354-.58.084-.819.188-.24.104-.37.307-.13.198-.13.443 0 .375.282.625.286.25.833.25.542 0 .964-.234.421-.24.62-.651.15-.318.15-.938zM43.895 54.772V49.24h.843v.839q.323-.589.594-.776.276-.188.604-.188.474 0 .964.303l-.323.87q-.344-.204-.687-.204-.308 0-.553.188-.244.182-.349.51-.156.5-.156 1.094v2.896zm7.172-.682q-.521.442-1.005.625-.48.182-1.032.182-.911 0-1.4-.443-.49-.448-.49-1.14 0-.407.182-.74.187-.339.484-.542.302-.203.677-.307.276-.073.834-.14 1.135-.136 1.672-.324.005-.192.005-.244 0-.573-.266-.808-.36-.317-1.068-.317-.661 0-.979.234-.312.23-.463.818l-.917-.125q.125-.589.411-.948.287-.365.829-.558.541-.198 1.255-.198.708 0 1.151.167t.651.422q.208.25.292.635.047.24.047.865v1.25q0 1.307.057 1.656.062.344.24.662h-.98q-.146-.292-.187-.682m-.078-2.094q-.51.208-1.532.354-.578.083-.817.187-.24.105-.37.308-.13.198-.13.442 0 .375.28.625.287.25.834.25.542 0 .964-.234.422-.24.62-.651.15-.318.15-.938zm2.4 4.896V49.24h.855v.72q.302-.423.682-.631.38-.214.922-.214.709 0 1.25.365.542.365.818 1.031.276.662.276 1.453 0 .85-.307 1.532-.302.677-.886 1.041-.578.36-1.219.36-.468 0-.843-.198-.37-.198-.61-.5v2.693zm.85-4.855q0 1.068.432 1.578t1.047.51q.625 0 1.068-.525.448-.531.448-1.64 0-1.058-.438-1.584-.432-.526-1.036-.526-.6 0-1.063.562-.458.558-.458 1.625m5.083 2.735v-7.636h.938v2.74q.656-.76 1.656-.76.615 0 1.068.244.453.24.646.667.198.427.198 1.24v3.505h-.938v-3.505q0-.704-.307-1.021-.302-.323-.86-.323-.416 0-.786.218-.365.214-.521.584t-.156 1.02v3.027zm9.542-.683q-.52.443-1.005.626-.48.182-1.031.182-.912 0-1.401-.443-.49-.448-.49-1.14 0-.407.182-.74.188-.339.485-.542.302-.203.677-.307.276-.073.833-.14 1.136-.136 1.672-.324.005-.192.005-.244 0-.573-.265-.808-.36-.318-1.068-.318-.662 0-.98.235-.312.229-.463.818l-.917-.125q.125-.589.412-.948.286-.365.828-.558.542-.198 1.255-.198.709 0 1.151.167t.651.422q.209.25.292.635.047.24.047.865v1.25q0 1.307.057 1.656.063.344.24.662h-.98q-.145-.292-.187-.682m-.078-2.093q-.51.208-1.531.354-.578.083-.818.187-.24.105-.37.308-.13.198-.13.442 0 .375.281.625.287.25.834.25.541 0 .963-.234.422-.24.62-.651.151-.318.151-.938zM43.637 22.54v-7.636h.937v7.635zm2.39 0v-5.532h.844v.786q.61-.911 1.76-.911.5 0 .917.182.422.177.63.47.209.29.292.692.052.26.052.911v3.401h-.937v-3.364q0-.573-.11-.854-.11-.287-.39-.454-.276-.171-.651-.171-.6 0-1.037.38-.432.38-.432 1.442v3.021zm9.542-.683q-.52.443-1.005.625-.48.182-1.031.182-.912 0-1.401-.442-.49-.448-.49-1.141 0-.406.182-.74.188-.338.485-.541.302-.203.677-.308.276-.072.833-.14 1.136-.136 1.672-.323.005-.193.005-.245 0-.573-.265-.807-.36-.318-1.068-.318-.662 0-.98.234-.312.23-.463.818l-.917-.125q.125-.588.412-.948.286-.364.828-.557.542-.198 1.255-.198.709 0 1.151.167t.652.422q.208.25.291.635.047.24.047.865v1.25q0 1.307.057 1.656.063.344.24.661h-.98q-.145-.291-.187-.682m-.078-2.094q-.51.209-1.531.354-.578.084-.818.188t-.37.307q-.13.198-.13.443 0 .375.281.625.287.25.834.25.541 0 .963-.234.422-.24.62-.651.151-.318.151-.938zm2.401 2.776v-5.531h.839v.776q.26-.406.693-.651.432-.25.984-.25.615 0 1.005.255.396.255.557.714.657-.97 1.709-.97.823 0 1.266.46.442.452.442 1.4v3.797h-.932v-3.484q0-.563-.094-.807-.088-.25-.328-.401t-.562-.151q-.584 0-.97.39-.385.386-.385 1.24v3.213h-.937v-3.593q0-.625-.23-.938-.229-.312-.75-.312-.395 0-.734.208-.333.208-.484.61-.151.4-.151 1.156v2.87z" font-weight="400"/></g></g></svg>