<svg data-name="Layer 1" version="1.1" viewBox="0 0 291.79 84.562" xmlns="http://www.w3.org/2000/svg"><defs><style>.cls-1{fill-rule:evenodd;fill:url(#a);}.cls-2{font-size:18px;fill:#ff940e;font-family:ArialMT, Arial;}</style><linearGradient id="a" x1="152.2" x2="152.2" y1="90.17" y2="5.62" gradientTransform="translate(-6.3095 -5.6197)" gradientUnits="userSpaceOnUse"><stop stop-color="#f68826" offset="0"/><stop stop-color="#faa227" offset=".45"/><stop stop-color="#fdb714" offset="1"/></linearGradient></defs><path class="cls-1" d="m93.521 83.11 13.75-17.79h-56.72a38.82 38.82 0 0 1-5.67-0.4 34.11 34.11 0 0 1-5.31-1.23 30.85 30.85 0 0 1-4.8-2 24.78 24.78 0 0 1-4.17-2.7 22.28 22.28 0 0 1-3.46-3.4 21.7 21.7 0 0 1-2.59-4.06 20.67 20.67 0 0 1-1.62-4.63 23.3 23.3 0 0 1-0.54-5 23 23 0 0 1 0.56-5.06 20.43 20.43 0 0 1 1.68-4.68 23.07 23.07 0 0 1 6-7.55 24.74 24.74 0 0 1 4.14-2.78 30.15 30.15 0 0 1 4.78-2.05 31.58 31.58 0 0 1 5.33-1.28 36.22 36.22 0 0 1 5.68-0.43h41.4v-9h18v-9h9v9h-9v9h9.52l26.61 39.24 1.95 2.88 2-2.84 40.58-57.34h100.92l-13.9 18h-73.61l-0.73 1-30.36 42.99-9.7 13.72a23.11 23.11 0 0 1-2.89 3.28 36.14 36.14 0 0 1-3.65 3 12.89 12.89 0 0 1-4 1.89 18.14 18.14 0 0 1-5.12 0.67 19 19 0 0 1-5-0.62 12.63 12.63 0 0 1-3.92-1.79 23.76 23.76 0 0 1-3.48-2.88 25.93 25.93 0 0 1-2.93-3.52l-39.25-56.65-0.73-1h8.71v-18.1h-50.43a73.24 73.24 0 0 0-10.67 0.75 59.88 59.88 0 0 0-9.76 2.23 52.92 52.92 0 0 0-8.66 3.58 44.37 44.37 0 0 0-7.31 4.82 39.78 39.78 0 0 0-5.91 5.91 38.75 38.75 0 0 0-4.49 7 33.93 33.93 0 0 0-2.81 7.82 38.33 38.33 0 0 0-0.94 8.64 39.24 39.24 0 0 0 0.94 8.63 35.86 35.86 0 0 0 2.83 8 40.55 40.55 0 0 0 4.5 7.23 41.25 41.25 0 0 0 5.92 6.19 45.86 45.86 0 0 0 7.33 5.08 55.52 55.52 0 0 0 8.66 3.89 56.45 56.45 0 0 0 9.74 2.45 65.94 65.94 0 0 0 10.63 0.82h43zm34.53-83.11v9h9v-9zm118.64 33.38h-39v49.72h70.36l13.74-17.78h-61.6v-16.78h44.58l11.86-15.16z" fill="url(#a)"/></svg>
