<svg viewBox="0 0 97.354 110.4" xmlns="http://www.w3.org/2000/svg"><path d="M61.719 0c-.99.006-1.924.364-3.102.785C56.11 1.678 54.755 8.8 48.22 8.66c-1.108-.128-3.96-.198-5.369-.185.735-1.025 1.364-1.82 1.364-1.82a33.209 33.209 0 00-4.06 2l-.143-.217a11.76 11.76 0 011.308-2.168 36.847 36.847 0 00-3.351 2.31 5.071 5.071 0 011.39-2.59s-2.214.4-5.035 3.5a34.4 34.4 0 00-6.527 2.584c-4.151-.9-6.114-2.368-7.977-5.058-1.423-2.054-3.95-2.366-6.537-1.3C9.514 7.274 4.745 9.4 4.745 9.4s1.549-.06 3.17.012a41.066 41.066 0 00-4.348 2s1.04-.034 2.32-.013a21.564 21.564 0 01-2.214 1.642A31.579 31.579 0 000 16.211a22.158 22.158 0 012.61-.977C1.75 17.215.036 18.672.352 21.098c.3 2.215 3.02 6.772 6.529 9.57.3.245 5.1 4.677 8.709 2.857s5.035-3.436 5.63-5.923c.7-2.854.299-5.01-1.191-11.201-.49-2.044-1.77-6.252-2.389-8.264l.137-.102a102.03 102.03 0 015.426 13.48c1.9 6.884 1.306 10.377.437 11.656-2.624 3.863-9.35 4.373-12.41 2.233-.468 7.413 1.188 10.675 1.748 12.32-.28 1.889.948 5.398.948 5.398a6.476 6.476 0 01.699-2.435 15.938 15.938 0 001.096 4.1 7.726 7.726 0 01.373-2.563 16.994 16.994 0 001.623 2.04 11.193 11.193 0 001.722 3.468 9.46 9.46 0 01-.084-2.194c2.805 2.7 3.289 6.628 3.569 9.647.786 8.308-13.101 14.909-15.79 20.105-2.04 3.076-3.26 7.946.192 10.816 8.35 6.932 5.145 8.841 9.324 11.889 5.731 4.179 12.905 2.306 15.348-1.092 3.4-4.737 2.526-9.2 1.262-13.383-.985-3.27-3.667-8.699-6.986-10.8a14.487 14.487 0 00-9.48-2.26l.259-.302c4.018-.8 8.216-.357 11.256 1.602 3.449 2.217 6.6 6.02 8.256 11.85 1.87-.266 2.136-.389 3.848-.63l-3.858-30.024 8.152-.894a53.3 53.3 0 01-9.51-7.93c-.29-.219-.243-1.19-.243-1.19a53.423 53.423 0 0014.9 7.96 12.15 12.15 0 009.347-.8 23.93 23.93 0 007.188-6.33l.322.561a14.538 14.538 0 01-1.236 2.916 7.969 7.969 0 002.136.775l5.676-.884a17.293 17.293 0 001.936-13.641c-.89-2.9-5.52-8.668-5.854-8.985-1.165-1.118.2-5.442-2.111-10.154-2.44-4.986-8.793-10.184-11.551-12.447.814.595 5.82 2.612 8.152 5.43.22-.293.31-1.807.512-2.188-2-2.623-2.16-7.3-2.16-8.543a14.2 14.2 0 00-1.166-4.884 7.817 7.817 0 012.525 4.32 17.637 17.637 0 003.643 7.941c3.266 4.07 6.214 6.158 7.707 4.653 1.783-1.806-1.809-9.887-6.4-14.4-3.348-3.286-5.15-4.253-6.8-4.243zm.709 24.092c.56.017 1.14.136 1.643.37h.002c3.552 1.653 3.087 4.8 3.185 6.646a5.22 5.22 0 01-.03 1.135 4.794 4.794 0 00-2.5-.409 9.27 9.27 0 00-1.048.114 7.427 7.427 0 01-2.81-3.54 5.51 5.51 0 01-.165-.373c-.019-.053-.043-.11-.062-.158l-.025-.074c-.393-1.248-.13-1.5.037-1.883.166-.383.812-.717-.135-1.045a1.778 1.778 0 00-.299-.068c.391-.486 1.273-.743 2.207-.715zm-19.846 3.25c1.603.028 2.627.476 2.215.865-1.57 1.494.52 1.053.746 3.81a4.756 4.756 0 01-1.067 3.788 24.308 24.308 0 00-4.38 1.018 22.1 22.1 0 00-2.717 1.078 6.658 6.658 0 01-.7-.532 5.263 5.263 0 01.21-8.363v.002c1.908-1.3 4.09-1.694 5.693-1.666zm25.963 15.666a12.892 12.892 0 012.07.158c.924.511.925 2.087.293 3.545-.92 2.12-2.225 4.459-3.7 4.65-2.406.318-4.681-.982-7.28-2.923a2.129 2.129 0 01-.242-3.356h.002a20.081 20.081 0 016.753-1.892 12.892 12.892 0 012.104-.182zm25.648 12.516l-31 5.62a15.38 15.38 0 01-3.578 3.18 11.13 11.13 0 01-8.846.807 19 19 0 01-3.54-1.13l-7.57 1.039 4.593 38.318 53.102-9.573zm-2.848 6.043l2.742 29.457-47.154 8.68-.445-4.164 8.674-13.23 9.848 2.879 8.468-14.146 10.154 6.7z" fill="#622DA5"/></svg>
