<svg xmlns="http://www.w3.org/2000/svg" viewBox="0 0 360.36 329.61"><g fill="#b0b0b0"><path d="M82.912 22.056 13.55 91.418l69.362 69.363 69.363-69.363z"/><path d="M82.912 160.78 13.55 230.143l69.362 69.363 69.363-69.363z"/><g fill-opacity=".5"><path d="M199.58 0h-94.615L82.909 22.056l69.363 69.362 69.363-69.362zm-86.56 329.61h78.511l30.107-30.107-69.363-69.363-69.363 69.363z"/><path d="M0 0v77.869l13.55 13.549 69.362-69.362L60.857 0zm0 243.69v85.92h52.805l30.107-30.107L13.55 230.14z"/><path d="M0 104.97V216.6l13.55 13.549 69.362-69.363L13.55 91.423z"/></g></g><path fill="#7002b9" d="m152.28 91.418-69.363 69.363 69.363 69.363 69.363-69.363z"/><path fill="#a04dd8" d="m221.64 22.056-69.363 69.362 69.363 69.363 69.363-69.363z"/><path fill="#a04dd8" d="m221.64 160.78-69.363 69.363 69.363 69.363 69.363-69.363z"/><path fill="#8202d7" d="m291 91.418-69.363 69.363L291 230.144l69.363-69.363z"/><path fill="#ffd13e" d="M152.29 110.18 0 262.47v-18.781l152.28-152.28.016.016.016-.016 69.543 69.544 69.544-69.544 9.391 9.391-78.723 78.722-.212-.212-.212.212z"/></svg>