<svg xmlns="http://www.w3.org/2000/svg" fill="none" viewBox="0 0 56.202 41.359"><path fill="#4d6bfe" d="M55.613 3.471c-.595-.292-.852.264-1.2.547-.119.09-.22.21-.32.319-.87.929-1.887 1.54-3.215 1.466-1.942-.109-3.6.502-5.065 1.987-.312-1.832-1.346-2.925-2.922-3.626-.824-.365-1.658-.73-2.235-1.522-.403-.565-.513-1.194-.714-1.813-.128-.374-.256-.756-.687-.82-.467-.073-.65.319-.833.647-.733 1.34-1.017 2.815-.99 4.31.064 3.361 1.484 6.04 4.305 7.944.32.219.403.437.302.757-.192.656-.421 1.293-.622 1.95-.129.418-.321.51-.77.327-1.548-.647-2.885-1.603-4.066-2.76-2.006-1.941-3.82-4.082-6.082-5.759a27 27 0 0 0-1.612-1.102c-2.308-2.241.302-4.082.907-4.3.632-.228.22-1.012-1.823-1.003-2.042.01-3.91.693-6.292 1.604a7 7 0 0 1-1.09.319 22.5 22.5 0 0 0-6.75-.237c-4.415.492-7.941 2.578-10.533 6.14C.192 13.13-.541 17.995.356 23.07c.944 5.348 3.673 9.776 7.868 13.238 4.35 3.59 9.36 5.348 15.076 5.01 3.471-.2 7.336-.664 11.696-4.354 1.099.547 2.253.765 4.167.929 1.475.137 2.895-.073 3.994-.3 1.722-.365 1.603-1.96.98-2.251-5.047-2.35-3.939-1.394-4.946-2.168 2.564-3.034 6.43-6.187 7.94-16.4.12-.811.02-1.322 0-1.978-.008-.4.083-.555.541-.6 1.264-.147 2.491-.493 3.618-1.112 3.27-1.786 4.589-4.72 4.9-8.237.046-.537-.01-1.093-.577-1.375zM27.119 35.123c-4.89-3.844-7.263-5.111-8.243-5.056-.916.054-.751 1.102-.55 1.786.211.674.486 1.138.87 1.73.266.392.45.975-.265 1.413-1.575.975-4.314-.328-4.442-.392-3.188-1.877-5.853-4.355-7.73-7.744-1.814-3.262-2.867-6.76-3.041-10.496-.046-.902.22-1.221 1.117-1.385 1.182-.219 2.4-.265 3.581-.091 4.992.729 9.242 2.96 12.804 6.496 2.034 2.013 3.572 4.419 5.157 6.77 1.685 2.496 3.499 4.874 5.807 6.824.815.683 1.465 1.202 2.088 1.585-1.878.21-5.01.255-7.153-1.44zm2.345-15.079a.717.717 0 0 1 .97-.674c.101.037.193.091.266.173.128.128.202.31.202.501 0 .401-.32.72-.724.72a.71.71 0 0 1-.714-.72m7.281 3.736c-.467.191-.934.355-1.383.373-.696.037-1.456-.246-1.868-.592-.641-.538-1.1-.838-1.292-1.777-.082-.4-.036-1.02.037-1.375.165-.766-.018-1.258-.559-1.704-.44-.365-.998-.465-1.612-.465-.229 0-.44-.1-.595-.182-.257-.128-.467-.446-.266-.838.064-.128.376-.437.45-.492.833-.474 1.794-.32 2.683.036.824.337 1.447.957 2.344 1.831.916 1.057 1.081 1.35 1.603 2.142.412.62.788 1.257 1.044 1.986.156.455-.045.829-.586 1.057"/></svg>