<svg viewBox="0 0 94 92.202" xmlns="http://www.w3.org/2000/svg"><defs><linearGradient id="prefix__a" x1="99.788" x2="156.08" y1="175.19" y2="32.768" gradientUnits="userSpaceOnUse"><stop stop-color="#034db3" offset="0"/><stop stop-color="#1be0fc" offset="1"/></linearGradient></defs><g fill="none" fill-rule="evenodd"><path d="M47.791 2.409C18.5 5.03 2.787 17.822 2.735 45.996c2.14 28.657 14.234 43.436 42.553 43.246 29.287-2.62 47.65-16.294 45.508-44.949C88.654 15.631 76.348 2.465 47.79 2.41z" fill="#fff"/><path d="M153.99 32.406c-10.922-3.985-22.111-5.06-32.968-4.05-12.589.994-18.734 4.891-18.371 4.186C82.066 39.892 64.661 55.7 56.6 77.87c-14.353 39.482 5.977 83.144 45.4 97.519 39.439 14.375 83.037-5.983 97.39-45.464 14.359-39.482-5.971-83.14-45.4-97.52zm-49.395 135.84c-4.202-1.536-8.127-3.49-11.824-5.722 18.371 1.412 42.343-2.823 58.51-17.952 0 0 30.818-24.624 8.523-65.034 0 0 3.594 16.286-.988 29.683 0 0-4.37 18.218-23.794 23.511-28.609 7.796-61.208-12.23-74.834-21.93-1.026-9.973-.114-20.277 3.54-30.33 5.417-14.896 15.601-26.519 28.043-34.325-3.11 21.763-.651 41.8 2.883 50.193 4.745 11.253 12.991 24.38 29.076 26.063 16.085 1.689 24.956-13.365 24.956-13.365 8.252-12.54 9.544-30.547 9.419-30.98-.125-.44-2.199-1.63-2.199-1.63-5.553 22.475-14.712 29.983-14.712 29.983-14.44 13.94-24.668 4.272-24.668 4.272-10.993-11.807-3.295-30.997-3.295-30.997 4.305-13.072 16.851-32.202 31.068-41.93 2.367.586 4.75.95 7.09 1.802 8.604 3.138 16.139 7.866 22.513 13.675-10.396 3.795-27.181 11.818-27.181 11.818-26.606 11.205-28.403 28.153-28.403 28.153-2.753 17.47 11.107 10.075 11.107 10.075C143.69 96.331 150.7 74.676 150.7 74.676c-4.452-.847-7.959.505-7.959.505-5.694 14.055-17.312 19.836-17.312 19.836-4.57 2.421-5.635-1.856-5.635-1.856-.77-3.203 3.306-3.752 3.306-3.752 6.33-2.459 10.38-9.109 11.297-11.829.912-2.725 2.612-2.936 2.612-2.936 8.675-2.769 16.585-3.388 16.585-3.388 10.77-1.324 27.257 3.811 27.257 3.811 3.697 1.487 7.241 2.6 10.39 3.49 6.042 15.098 6.997 32.29 1.01 48.77-12.91 35.53-52.159 53.858-87.657 40.922z" fill="url(#prefix__a)" transform="matrix(.57937 -.2224 .2164 .56373 -49.659 15.957)"/></g></svg>
