<svg clip-rule="evenodd" fill-rule="evenodd" stroke-linejoin="round" stroke-miterlimit="2" version="1.1" viewBox="0 0 440.01 440.01" xmlns="http://www.w3.org/2000/svg"><g transform="matrix(1.0263 0 0 1.0263 -.52586 -.52546)"><path d="m37.965 296.64c-11.524-24.869-17.956-52.57-17.956-81.762 0-7.555 0.43-15.01 1.269-22.342 0.851-7.408 2.112-14.679 3.758-21.789 9.25-39.89 30.765-75.102 60.348-101.44 24.849-22.094 55.29-37.857 88.659-45.002 13.169-2.813 26.829-4.293 40.832-4.293 4.908 5e-3 9.852 0.194 14.826 0.573 23.584 1.801 45.87 7.738 66.203 17.046 16.401 7.518 31.582 17.245 45.16 28.801 34.106 29.054 57.893 69.527 65.803 114.94 1.89 10.886 2.875 22.081 2.875 33.504-4e-3 4.916-0.194 9.867-0.574 14.848-1.437 18.824-5.509 36.821-11.828 53.658-8.819 23.451-22.032 44.757-38.634 62.915-21.593 22.048-49.033 31.858-71.951 31.45-16.665-0.297-32.971-6.928-44.239-16.63-16.096-13.861-22.598-29.705-24.826-47.385-0.554-4.395-0.229-16.371 2.058-24.663 1.705-6.181 6.029-18.118 12.352-23.339-7.397-3.186-16.917-10.123-19.918-13.453-0.737-0.819-0.642-2.1 0.018-2.982 0.661-0.882 1.82-1.23 2.857-0.857 6.359 2.183 14.104 4.336 22.27 5.702 10.74 1.795 24.097 4.057 37.628 4.722 32.991 1.62 67.452-13.189 78.148-42.652 10.695-29.463 6.546-58.605-31.824-76.086s-56.094-38.265-87.096-50.801c-20.249-8.189-42.787-3.328-65.926 9.46-62.326 34.443-118.16 143.27-92.424 244.09 0.368 1.379-0.253 2.832-1.505 3.519-1.172 0.644-2.615 0.46-3.587-0.43-7.491-8.231-14.287-17.105-20.296-26.529-4.649-7.294-8.822-14.909-12.48-22.798z"/></g><g transform="matrix(.092029 .004281 -.004281 .092029 -28.127 -500.3)"><path d="m3053.7 5296.9c1318 0 2388 1070 2388 2388s-1070 2387.9-2388 2387.9-2388-1070-2388-2387.9 1070-2388 2388-2388zm691.33 2846.3c-150.91-0.4-300.72-18.65-421.16-33.07-91.58-10.97-178.88-30.92-250.77-51.92-11.74-3.61-24.45 0.86-31.35 11.01-6.89 10.16-7.29 24.47 1.34 33.2 35.12 35.5 144.65 107.77 228.61 139.39-67.66 61.37-109.6 196.45-125.37 266.11-21.16 93.46-18.58 226.89-10.14 275.51 33.95 195.59 114.5 368.54 300.8 514.45 130.41 102.13 315.29 167.48 500.89 162.16 256.13-7.35 557.6-131.55 786.77-389.89 298.6-359.59 483.87-817.72 498.82-1320.7 35.61-1197.6-907.77-2198.8-2105.4-2234.4-1197.6-35.61-2198.8 907.78-2234.4 2105.4-18.443 620.21 225.68 1187.8 631.74 1595.8 11.3 11.19 28.78 13.23 42.35 4.94s19.73-24.78 14.92-39.94c-338.63-1108.6 226.41-2348.6 902.14-2764.1 250.87-154.28 499.15-220.04 728.72-139.4 351.48 123.45 559.47 345.56 995.5 520.23 436.03 174.66 497.29 496.81 393.52 830.21s-479.58 516.03-847.55 515.08zm-827.86-1700.7c-139.42 17.46-223.24 194.93-230.09 306.91-6.9 111.97 56.95 293.28 239.11 281.21 213.33-14.14 269.7-199.93 238.05-375.69-23.76-132-130.51-227.04-247.07-212.43z" fill="#fff"/></g><g transform="matrix(7.1229 .5439 -.5439 7.1229 -4867.5 -1040.6)"><path d="m721.32 105.75c1.497-0.233 2.909 0.952 3.266 2.644 0.476 2.254-0.18 4.67-2.924 4.934-2.344 0.226-3.236-2.087-3.19-3.533 0.045-1.446 1.057-3.766 2.848-4.045z"/></g></svg>
