<svg xmlns="http://www.w3.org/2000/svg" viewBox="0 0 50 40"><rect width="50" height="40" rx="3"/><path fill="#fff" d="M19.099 23.508q0 1.965-1.27 3.234Q16.572 28 14.517 28h-4.403V12.277h4.492q1.965 0 3.224 1.27 1.269 1.257 1.269 3.223zm-2.808 0V16.77q0-.843-.562-1.258-.561-.427-1.122-.427h-1.685v10.107h1.684q.563 0 1.123-.415.562-.427.562-1.27zM28.185 28h-5.896q-.843 0-1.404-.561-.562-.562-.562-1.404V14.243q0-.843.562-1.404.561-.562 1.404-.562h5.896v2.808H23.13v3.65h3.088v2.808H23.13v3.65h5.054V28zm7.12 0q-1.404 0-2.246-1.965l-3.65-13.758h3.089l2.807 10.804 2.808-10.804H41.2l-3.65 13.758Q36.71 28 35.305 28"/></svg>