<svg xmlns="http://www.w3.org/2000/svg" viewBox="0 0 84.944 74.921"><g fill="none" fill-rule="evenodd"><path fill="#fdbd41" d="M83.827 56.247c0 2.47-1.995 4.473-4.456 4.473-2.46 0-4.455-2.002-4.455-4.473s4.455-7.344 4.455-7.344 4.456 4.873 4.456 7.344"/><path stroke="#000" stroke-width="2.235" d="M83.827 56.247c0 2.47-1.995 4.473-4.456 4.473-2.46 0-4.455-2.002-4.455-4.473s4.455-7.344 4.455-7.344 4.456 4.873 4.456 7.344z"/><path fill="#fff" d="m79.393 45.429.945-.953a1.005 1.005 0 0 0-.002-1.416l-5.955-5.961a.98.98 0 0 0-.706-.273h-9.38v3.015H72.3c.266 0 .52.249.708.438l4.969 5.079c.39.393 1.024.464 1.415.07"/><path stroke="#000" stroke-width="2" d="m79.393 45.429.945-.953a1.005 1.005 0 0 0-.002-1.416l-5.955-5.961a.98.98 0 0 0-.706-.273h-9.38v3.015H72.3c.266 0 .52.249.708.438l4.969 5.079c.39.393 1.024.464 1.415.07z"/><path fill="#9b9b9b" d="m63.07 44.376.144-12.104 3.028 1.5c.27.148.437.432.434.74l-.064 7.577a.84.84 0 0 1-.448.733z"/><path stroke="#000" stroke-width="2.235" d="m63.07 44.376.144-12.104 3.028 1.5c.27.148.437.432.434.74l-.064 7.577a.84.84 0 0 1-.448.733l-3.092 1.554z"/><path fill="#ff2727" d="M57.46 26.106c-.974.98-2.828.97-3.82-.027L38.406 10.784c-.992-.997-.905-2.761.069-3.74l.169-.17c.975-.978 2.566-.899 3.559.097l15.234 15.296c.992.996 1.168 2.69.193 3.67zm5.63 19.827.207-22.756c-.002-.743-.274-1.496-.796-2.022L43.866 2.445C41.883.456 38.585.502 36.6 2.492L2.474 36.757c-1.984 1.991-1.766 5.039.217 7.03l28.243 28.357c1.983 1.99 5.036 2.227 7.018.236L62.29 47.945c.526-.529.803-1.264.8-2.012"/><path fill="#9b0000" d="m62.93 45.18.054-6.467-26.635 26.786a3.04 3.04 0 0 1-4.32 0L2.47 35.773l-.236.236c-2.01 2.022-2.01 5.331 0 7.353l28.18 28.34a5.163 5.163 0 0 0 7.312 0L62.11 47.179c.527-.53.822-1.249.82-2"/><path stroke="#000" stroke-width="2.235" d="M57.58 26.225c-.976.98-2.948.85-3.94-.146L38.404 10.783c-.992-.996-.786-2.641.189-3.62l.169-.17c.975-.978 2.447-1.019 3.44-.022l15.234 15.295c.992.997 1.287 2.81.31 3.79zm5.657-2.989c-.002-.742-.332-1.437-.855-1.962L43.746 2.564C41.764.574 38.703.62 36.72 2.61L2.59 36.877c-1.983 1.99-2.003 5.037-.02 7.028l28.243 28.358c1.983 1.99 5.155 2.108 7.138.117l24.337-24.435c.526-.529.802-1.265.8-2.012z"/><path fill="#9b0000" d="M31.496 49.618q.35.35.69.419a1.4 1.4 0 0 0 .66-.02 1.7 1.7 0 0 0 .602-.312 6 6 0 0 0 .495-.439l3.109-3.12q.62-.625 1.244-.8.62-.176 1.165-.118.544.06.98.284.438.224.67.42l.06-.06a4 4 0 0 1-.428-.663 2.6 2.6 0 0 1-.292-.975q-.06-.546.156-1.21.213-.662.932-1.384l2.953-2.965q.233-.234.457-.517c.224-.283.253-.39.31-.605a1.4 1.4 0 0 0 .02-.663q-.069-.34-.417-.692l-1.05-1.054 2.176-2.184 2.467 2.477q.33.332.583.917c.253.585.265.813.292 1.268a3.9 3.9 0 0 1-.205 1.433q-.242.751-.903 1.414l-3.652 3.668q-.487.487-.63 1.023a2.48 2.48 0 0 0 .212 1.893q.222.4.457.634l-1.69 1.696a3 3 0 0 0-.631-.458 2.8 2.8 0 0 0-.855-.312 2.3 2.3 0 0 0-.962.03q-.505.115-.952.565l-3.77 3.784q-.66.663-1.407.907-.75.243-1.428.205a3.7 3.7 0 0 1-1.263-.293q-.583-.254-.913-.585l-2.467-2.477 2.176-2.185zm4.7-22.121q-.35-.351-.69-.419a1.4 1.4 0 0 0-.66.02 1.65 1.65 0 0 0-.602.312 6 6 0 0 0-.515.458l-2.953 2.965q-.72.722-1.38.935-.66.216-1.204.157a2.6 2.6 0 0 1-.97-.292 4 4 0 0 1-.661-.43l-.06.059q.194.234.419.673.223.439.28.984.059.548-.115 1.17-.175.626-.797 1.25l-3.108 3.12a6 6 0 0 0-.437.497q-.224.283-.311.606a1.4 1.4 0 0 0-.02.663q.069.34.419.692l1.048 1.053-2.176 2.185-2.467-2.477q-.33-.333-.583-.917a3.7 3.7 0 0 1-.291-1.268 3.9 3.9 0 0 1 .204-1.433q.241-.753.903-1.415l3.77-3.784q.445-.449.563-.955.116-.507.029-.967a2.9 2.9 0 0 0-.311-.857 2.8 2.8 0 0 0-.437-.615l1.69-1.697q.213.215.61.44a2.45 2.45 0 0 0 1.886.214q.533-.147 1.02-.634l3.652-3.667q.66-.664 1.409-.907a3.9 3.9 0 0 1 1.428-.205 3.7 3.7 0 0 1 1.262.293q.582.254.914.585l2.466 2.477-2.175 2.184z"/></g></svg>