<svg version="1.0" viewBox="0 0 113.31 145.99" xmlns="http://www.w3.org/2000/svg"><g fill="#092e20"><path d="M51.464 0h23.872v110.5c-12.246 2.325-21.237 3.255-31.002 3.255C15.191 113.754 0 100.58 0 75.312c0-24.337 16.122-40.147 41.078-40.147 3.875 0 6.82.309 10.386 1.239zm0 55.62c-2.79-.929-5.115-1.239-8.06-1.239-12.091 0-19.067 7.441-19.067 20.461 0 12.712 6.666 19.687 18.912 19.687 2.634 0 4.805-.155 8.215-.619z"/><path d="M113.31 36.865v55.338c0 19.067-1.395 28.212-5.58 36.118-3.876 7.597-8.992 12.401-19.532 17.672l-22.167-10.541c10.541-4.96 15.656-9.299 18.911-15.967 3.411-6.82 4.497-14.726 4.497-35.497V36.865zM89.439.127h23.871v24.492H89.439z"/></g></svg>
