<svg xmlns="http://www.w3.org/2000/svg" version="1.1" viewBox="0 0 29.981 21.636"><path d="m29.362 8.256c-0.675-0.468-2.222-0.644-3.432-0.41-0.14-1.17-0.788-2.195-1.913-3.103l-0.647-0.468-0.45 0.673c-0.562 0.878-0.844 2.108-0.76 3.279 0.029 0.41 0.17 1.142 0.591 1.786-0.393 0.234-1.21 0.527-2.278 0.527h-20.338l-0.056 0.234c-0.197 1.171-0.197 4.831 2.11 7.642 1.743 2.137 4.331 3.22 7.735 3.22 7.37 0 12.827-3.543 15.387-9.954 1.013 0.029 3.179 0 4.276-2.196 0.028-0.059 0.084-0.176 0.281-0.615l0.113-0.234zm-12.968-8.256h-3.094v2.928h3.094zm0 3.513h-3.094v2.928h3.094zm-3.657 0h-3.094v2.928h3.094zm-3.657 0h-3.094v2.928h3.093zm-3.657 3.514h-3.094v2.927h3.094zm3.657 0h-3.094v2.927h3.093zm3.657 0h-3.094v2.927h3.094zm3.657 0h-3.094v2.927h3.094zm3.657 0h-3.094v2.927h3.094z" fill="#086dd7"/></svg>