<svg xmlns="http://www.w3.org/2000/svg" viewBox="0 0 290.75 345.87"><g transform="translate(-105.27 -77.337)"><path fill="#fff" d="M116.85 421.97c-5.704 0-10.344-4.313-10.344-9.613V88.177c0-5.3 4.64-9.612 10.344-9.612h204.01c3.035 0 9.396.55 11.751 2.63l.355.345 58.904 63.29c2.31 2.492 2.92 8.494 2.92 11.319v256.2c0 5.3-4.64 9.613-10.343 9.613h-267.59z"/><path fill="#767676" d="M384.44 423.21H116.85c-6.384 0-11.579-4.866-11.579-10.847V88.183c0-5.98 5.195-10.846 11.579-10.846h204.01c.377 0 9.279.033 12.568 2.939l.395.383 58.95 63.337c3.214 3.465 3.252 11.792 3.252 12.16v256.2c0 5.98-5.195 10.847-11.579 10.847zM116.5 411.922c.085.028.2.053.344.053h267.59c.144 0 .258-.025.344-.053v-255.76c-.008-.903-.36-3.735-.703-5.004l-57.653-61.942c-1.465-.317-4.454-.639-5.574-.639h-204.01c-.143 0-.26.024-.345.053zM327.021 89.373z"/><path fill="#5b7fc0" d="m189.09 210.18.001-.001c7.775.001 15.03 4.186 18.932 10.923a21.87 21.87 0 0 1 2.93 10.938 21.72 21.72 0 0 1-6.404 15.46c-4.129 4.129-9.618 6.403-15.458 6.403s-11.328-2.273-15.458-6.403-6.403-9.619-6.405-15.463c0-6.025 2.454-11.49 6.411-15.447 3.959-3.959 9.424-6.411 15.451-6.41m7.993 21.858a8 8 0 0 0-1.063-3.989 8.04 8.04 0 0 0-6.93-4.002c-4.408.002-7.993 3.588-7.993 7.993a7.94 7.94 0 0 0 2.343 5.654 7.95 7.95 0 0 0 5.65 2.342c2.136 0 4.144-.831 5.654-2.34s2.34-3.519 2.339-5.658"/><path fill="#fff" d="M189.09 210.18c7.776 0 15.028 4.183 18.926 10.915a21.83 21.83 0 0 1 2.935 10.946c.002 12.064-9.806 21.864-21.86 21.861-12.056.002-21.865-9.807-21.862-21.861 0-6.028 2.452-11.492 6.412-15.452 3.957-3.958 9.42-6.41 15.45-6.41zm7.994 21.861c0-1.408-.371-2.79-1.07-3.996a8.03 8.03 0 0 0-6.924-3.998c-4.4-.005-7.992 3.581-7.994 7.994.002 4.408 3.586 7.992 7.994 7.994a7.97 7.97 0 0 0 5.648-2.344 7.97 7.97 0 0 0 2.346-5.65" opacity=".3"/><defs><path id="a" d="M194.74 237.69a7.97 7.97 0 0 1-5.648 2.344c-4.408-.002-7.992-3.587-7.994-7.994.002-4.413 3.594-8 7.994-7.995a8.03 8.03 0 0 1 6.924 3.999 7.98 7.98 0 0 1-1.276 9.646"/></defs><clipPath id="b"><use href="#a"/></clipPath><path fill="#fff" d="M190.07 225.02c-4.4-.005-7.992 3.582-7.994 7.994a7.96 7.96 0 0 0 1.878 5.136 7.98 7.98 0 0 1-2.859-6.116c.002-4.413 3.594-8 7.994-7.995 2.38 0 4.616 1.084 6.122 2.88a8 8 0 0 0-5.141-1.899" clip-path="url(#b)"/><path fill="#020202" d="M190.07 225.02c-4.4-.005-7.992 3.582-7.994 7.994a7.96 7.96 0 0 0 1.878 5.136 7.98 7.98 0 0 1-2.859-6.116c.002-4.413 3.594-8 7.994-7.995 2.38 0 4.616 1.084 6.122 2.88a8 8 0 0 0-5.141-1.899" clip-path="url(#b)" opacity=".13"/><defs><path id="c" d="M189.09 210.18c7.776 0 15.028 4.183 18.926 10.915a21.83 21.83 0 0 1 2.935 10.946c.002 12.064-9.806 21.864-21.86 21.861-12.056.002-21.865-9.807-21.862-21.861 0-6.028 2.452-11.492 6.412-15.452 3.957-3.958 9.42-6.41 15.45-6.41zm7.994 21.861c0-1.408-.371-2.79-1.07-3.996a8.03 8.03 0 0 0-6.924-3.998c-4.4-.005-7.992 3.581-7.994 7.994.002 4.408 3.586 7.992 7.994 7.994a7.97 7.97 0 0 0 5.648-2.344 7.97 7.97 0 0 0 2.346-5.65"/></defs><clipPath id="d"><use href="#c"/></clipPath><path fill="#5b7fc0" d="M172.66 215.6c-3.96 3.96-6.412 9.424-6.412 15.452-.002 12.055 9.807 21.864 21.861 21.861 12.055.002 21.864-9.797 21.861-21.861a21.83 21.83 0 0 0-2.935-10.946c-3.898-6.732-11.15-10.915-18.926-10.915-6.029 0-11.492 2.452-15.45 6.41z" clip-path="url(#d)"/><path fill="#5b7fc0" d="M198.9 225.1h122.63v13.867H198.9z"/><path fill="#d95140" d="m189.09 155.76.001-.001c7.775.001 15.03 4.186 18.932 10.923a21.87 21.87 0 0 1 2.93 10.938 21.72 21.72 0 0 1-6.404 15.46c-4.129 4.129-9.618 6.403-15.458 6.403s-11.328-2.273-15.458-6.403-6.403-9.619-6.405-15.463c0-6.025 2.454-11.49 6.411-15.447 3.959-3.959 9.424-6.411 15.451-6.41m7.993 21.858a8 8 0 0 0-1.063-3.989 8.04 8.04 0 0 0-6.93-4.002c-4.408.002-7.993 3.588-7.993 7.993 0 2.136.832 4.143 2.343 5.654a7.95 7.95 0 0 0 5.65 2.342 7.95 7.95 0 0 0 5.654-2.34 7.94 7.94 0 0 0 2.339-5.658"/><path fill="#fff" d="M189.09 155.76c7.776 0 15.028 4.183 18.926 10.915a21.83 21.83 0 0 1 2.935 10.946c.002 12.064-9.806 21.864-21.86 21.861-12.056.002-21.865-9.807-21.862-21.861 0-6.029 2.452-11.492 6.412-15.452 3.957-3.958 9.42-6.41 15.45-6.41zm7.994 21.861c0-1.408-.371-2.79-1.07-3.996a8.03 8.03 0 0 0-6.924-3.998c-4.4-.005-7.992 3.581-7.994 7.994.002 4.408 3.586 7.992 7.994 7.994a7.97 7.97 0 0 0 5.648-2.344 7.97 7.97 0 0 0 2.346-5.65" opacity=".3"/><defs><path id="e" d="M194.74 183.27a7.97 7.97 0 0 1-5.648 2.344c-4.408-.002-7.992-3.587-7.994-7.994.002-4.413 3.594-8 7.994-7.995a8.03 8.03 0 0 1 6.924 3.999 7.98 7.98 0 0 1-1.276 9.646"/></defs><clipPath id="f"><use href="#e"/></clipPath><path fill="#fff" d="M190.07 170.61c-4.4-.005-7.992 3.582-7.994 7.994a7.96 7.96 0 0 0 1.878 5.136 7.98 7.98 0 0 1-2.859-6.116c.002-4.413 3.594-8 7.994-7.995 2.38 0 4.616 1.084 6.122 2.88a8 8 0 0 0-5.141-1.899" clip-path="url(#f)"/><path fill="#020202" d="M190.07 170.61c-4.4-.005-7.992 3.582-7.994 7.994a7.96 7.96 0 0 0 1.878 5.136 7.98 7.98 0 0 1-2.859-6.116c.002-4.413 3.594-8 7.994-7.995 2.38 0 4.616 1.084 6.122 2.88a8 8 0 0 0-5.141-1.899" clip-path="url(#f)" opacity=".13"/><defs><path id="g" d="M189.09 155.76c7.776 0 15.028 4.183 18.926 10.915a21.83 21.83 0 0 1 2.935 10.946c.002 12.064-9.806 21.864-21.86 21.861-12.056.002-21.865-9.807-21.862-21.861 0-6.029 2.452-11.492 6.412-15.452 3.957-3.958 9.42-6.41 15.45-6.41zm7.994 21.861c0-1.408-.371-2.79-1.07-3.996a8.03 8.03 0 0 0-6.924-3.998c-4.4-.005-7.992 3.581-7.994 7.994.002 4.408 3.586 7.992 7.994 7.994a7.97 7.97 0 0 0 5.648-2.344 7.97 7.97 0 0 0 2.346-5.65"/></defs><clipPath id="h"><use href="#g"/></clipPath><path fill="#d95140" d="M172.66 161.19c-3.96 3.96-6.412 9.424-6.412 15.452-.002 12.055 9.807 21.864 21.861 21.861 12.055.002 21.864-9.797 21.861-21.861a21.83 21.83 0 0 0-2.935-10.946c-3.898-6.732-11.15-10.915-18.926-10.915-6.029 0-11.492 2.452-15.45 6.41z" clip-path="url(#h)"/><path fill="#d95140" d="M198.9 170.69h122.63v13.867H198.9z"/><path fill="#56a55c" d="m189.54 264.61.001-.001c7.775.001 15.029 4.186 18.932 10.924a21.87 21.87 0 0 1 2.93 10.938 21.72 21.72 0 0 1-6.404 15.46c-4.129 4.129-9.618 6.403-15.458 6.403s-11.328-2.273-15.458-6.403-6.403-9.619-6.405-15.463c0-6.025 2.454-11.49 6.411-15.447 3.959-3.959 9.423-6.412 15.451-6.41zm7.993 21.858a8 8 0 0 0-1.063-3.989 8.04 8.04 0 0 0-6.93-4.002c-4.408.002-7.993 3.588-7.993 7.993a7.94 7.94 0 0 0 2.343 5.654 7.95 7.95 0 0 0 5.65 2.342 7.95 7.95 0 0 0 5.654-2.34 7.94 7.94 0 0 0 2.339-5.658"/><path fill="#fff" d="M189.54 264.62c7.776 0 15.028 4.183 18.926 10.915a21.83 21.83 0 0 1 2.935 10.946c.002 12.064-9.806 21.864-21.86 21.861-12.056.002-21.865-9.806-21.862-21.861 0-6.028 2.452-11.492 6.412-15.452 3.957-3.958 9.42-6.41 15.45-6.41zm7.994 21.861c0-1.408-.371-2.79-1.07-3.996a8.03 8.03 0 0 0-6.924-3.998c-4.4-.005-7.992 3.581-7.994 7.994.002 4.408 3.586 7.992 7.994 7.994a7.97 7.97 0 0 0 5.648-2.344 7.97 7.97 0 0 0 2.346-5.65" opacity=".3"/><defs><path id="i" d="M195.19 292.13a7.97 7.97 0 0 1-5.648 2.344c-4.408-.002-7.992-3.587-7.994-7.994.002-4.413 3.594-8 7.994-7.994a8.03 8.03 0 0 1 6.924 3.998 7.98 7.98 0 0 1-1.276 9.646"/></defs><clipPath id="j"><use href="#i"/></clipPath><path fill="#fff" d="M190.52 279.46c-4.4-.005-7.992 3.582-7.994 7.994a7.96 7.96 0 0 0 1.878 5.135 7.98 7.98 0 0 1-2.859-6.116c.002-4.412 3.594-7.999 7.994-7.994 2.38 0 4.616 1.084 6.122 2.88a8 8 0 0 0-5.141-1.899" clip-path="url(#j)"/><path fill="#020202" d="M190.52 279.46c-4.4-.005-7.992 3.582-7.994 7.994a7.96 7.96 0 0 0 1.878 5.135 7.98 7.98 0 0 1-2.859-6.116c.002-4.412 3.594-7.999 7.994-7.994 2.38 0 4.616 1.084 6.122 2.88a8 8 0 0 0-5.141-1.899" clip-path="url(#j)" opacity=".13"/><defs><path id="k" d="M189.54 264.62c7.776 0 15.028 4.183 18.926 10.915a21.83 21.83 0 0 1 2.935 10.946c.002 12.064-9.806 21.864-21.86 21.861-12.056.002-21.865-9.806-21.862-21.861 0-6.028 2.452-11.492 6.412-15.452 3.957-3.958 9.42-6.41 15.45-6.41zm7.994 21.861c0-1.408-.371-2.79-1.07-3.996a8.03 8.03 0 0 0-6.924-3.998c-4.4-.005-7.992 3.581-7.994 7.994.002 4.408 3.586 7.992 7.994 7.994a7.97 7.97 0 0 0 5.648-2.344 7.97 7.97 0 0 0 2.346-5.65"/></defs><clipPath id="p"><use href="#k"/></clipPath><path fill="#56a55c" d="M173.11 270.04c-3.96 3.96-6.412 9.424-6.412 15.452-.002 12.055 9.807 21.864 21.861 21.861 12.055.002 21.864-9.797 21.861-21.861a21.83 21.83 0 0 0-2.935-10.946c-3.898-6.732-11.15-10.915-18.926-10.915-6.028 0-11.492 2.452-15.45 6.41z" clip-path="url(#p)"/><path fill="#56a55c" d="M199.35 279.54h122.63v13.867H199.35z"/><path fill="#f1bc42" d="m189.09 318.72.001-.001c7.775.001 15.03 4.186 18.932 10.923a21.87 21.87 0 0 1 2.93 10.938 21.72 21.72 0 0 1-6.404 15.46c-4.129 4.129-9.618 6.403-15.458 6.403s-11.328-2.273-15.458-6.403-6.403-9.619-6.405-15.463c0-6.025 2.454-11.49 6.411-15.447 3.959-3.959 9.424-6.412 15.451-6.41m7.993 21.858a8 8 0 0 0-1.063-3.989 8.04 8.04 0 0 0-6.93-4.002c-4.408.002-7.993 3.588-7.993 7.993a7.94 7.94 0 0 0 2.343 5.654 7.95 7.95 0 0 0 5.65 2.342c2.136 0 4.144-.831 5.654-2.34s2.34-3.519 2.339-5.658"/><path fill="#fff" d="M189.09 318.72c7.776 0 15.028 4.183 18.926 10.915a21.83 21.83 0 0 1 2.935 10.946c.002 12.064-9.806 21.864-21.86 21.861-12.056.002-21.865-9.806-21.862-21.861 0-6.028 2.452-11.492 6.412-15.452 3.957-3.958 9.42-6.41 15.45-6.41zm7.994 21.861c0-1.408-.371-2.79-1.07-3.996a8.03 8.03 0 0 0-6.924-3.998c-4.4-.005-7.992 3.582-7.994 7.994.002 4.408 3.586 7.992 7.994 7.994a7.97 7.97 0 0 0 5.648-2.344 7.97 7.97 0 0 0 2.346-5.65" opacity=".3"/><defs><path id="r" d="M194.74 346.23a7.97 7.97 0 0 1-5.648 2.344c-4.408-.002-7.992-3.587-7.994-7.994.002-4.413 3.594-8 7.994-7.994a8.03 8.03 0 0 1 6.924 3.998 7.98 7.98 0 0 1-1.276 9.646"/></defs><clipPath id="s"><use href="#r"/></clipPath><path fill="#fff" d="M190.07 333.57c-4.4-.005-7.992 3.582-7.994 7.994a7.96 7.96 0 0 0 1.878 5.136 7.98 7.98 0 0 1-2.859-6.117c.002-4.412 3.594-7.999 7.994-7.994 2.38 0 4.616 1.084 6.122 2.88a8 8 0 0 0-5.141-1.899" clip-path="url(#s)"/><path fill="#020202" d="M190.07 333.57c-4.4-.005-7.992 3.582-7.994 7.994a7.96 7.96 0 0 0 1.878 5.136 7.98 7.98 0 0 1-2.859-6.117c.002-4.412 3.594-7.999 7.994-7.994 2.38 0 4.616 1.084 6.122 2.88a8 8 0 0 0-5.141-1.899" clip-path="url(#s)" opacity=".13"/><defs><path id="t" d="M189.09 318.72c7.776 0 15.028 4.183 18.926 10.915a21.83 21.83 0 0 1 2.935 10.946c.002 12.064-9.806 21.864-21.86 21.861-12.056.002-21.865-9.806-21.862-21.861 0-6.028 2.452-11.492 6.412-15.452 3.957-3.958 9.42-6.41 15.45-6.41zm7.994 21.861c0-1.408-.371-2.79-1.07-3.996a8.03 8.03 0 0 0-6.924-3.998c-4.4-.005-7.992 3.582-7.994 7.994.002 4.408 3.586 7.992 7.994 7.994a7.97 7.97 0 0 0 5.648-2.344 7.97 7.97 0 0 0 2.346-5.65"/></defs><clipPath id="u"><use href="#t"/></clipPath><path fill="#f1bc42" d="M172.66 324.15c-3.96 3.96-6.412 9.424-6.412 15.452-.002 12.055 9.807 21.864 21.861 21.861 12.055.002 21.864-9.797 21.861-21.861a21.83 21.83 0 0 0-2.935-10.946c-3.898-6.732-11.15-10.915-18.926-10.915-6.029 0-11.492 2.452-15.45 6.41z" clip-path="url(#u)"/><path fill="#f1bc42" d="M198.9 333.65h122.63v13.867H198.9z"/></g></svg>