<svg viewBox="0 0 37.135 42" xmlns="http://www.w3.org/2000/svg"><g fill="#00faf0"><path d="M14.46 16.532v-1.628a14.312 14.312 0 00-1.72-.113C5.725 14.79 0 20.49 0 27.525c0 4.297 2.15 8.119 5.431 10.426a12.643 12.643 0 01-3.417-8.663c.023-6.943 5.567-12.598 12.446-12.756z"/><path d="M14.755 35.057c3.123 0 5.68-2.488 5.793-5.587V1.766h5.07A8.974 8.974 0 0125.457 0h-6.924v27.706c-.113 3.099-2.67 5.587-5.793 5.587a5.66 5.66 0 01-2.693-.679 5.768 5.768 0 004.707 2.443zM35.097 11.173V9.635a9.544 9.544 0 01-5.25-1.56 9.834 9.834 0 005.25 3.098z"/></g><g fill="#ff0050"><path d="M29.87 8.076c-1.47-1.697-2.376-3.89-2.376-6.31h-1.856a9.733 9.733 0 004.232 6.31zM12.741 21.69a5.812 5.812 0 00-5.816 5.813c0 2.239 1.267 4.161 3.123 5.134a5.847 5.847 0 01-1.109-3.393 5.812 5.812 0 015.816-5.812c.588 0 1.177.09 1.72.27v-7.056a14.313 14.313 0 00-1.72-.113h-.294v5.428a5.373 5.373 0 00-1.72-.271z"/><path d="M35.099 11.173v5.383a16.43 16.43 0 01-9.617-3.099v14.045c0 7.012-5.703 12.734-12.74 12.734-2.716 0-5.228-.86-7.287-2.307C7.785 40.417 11.089 42 14.778 42c7.015 0 12.74-5.7 12.74-12.733V15.222a16.483 16.483 0 009.618 3.098V11.4c-.702-.023-1.38-.091-2.037-.227z"/></g><path d="M25.479 27.503V13.458a16.483 16.483 0 009.617 3.099v-5.383a9.75 9.75 0 01-5.25-3.099 9.517 9.517 0 01-4.209-6.31h-5.069V29.47c-.113 3.098-2.67 5.586-5.793 5.586a5.746 5.746 0 01-4.707-2.42c-1.855-.972-3.122-2.917-3.122-5.134a5.812 5.812 0 015.815-5.812c.589 0 1.177.09 1.72.271v-5.428c-6.88.158-12.423 5.812-12.423 12.71 0 3.348 1.29 6.401 3.417 8.663a12.685 12.685 0 007.287 2.307c6.992.023 12.718-5.7 12.718-12.71z"/></svg>
