<svg fill="none" version="1.1" viewBox="0 0 213.33 146.67" xmlns="http://www.w3.org/2000/svg"><g fill="url(#a)"><path d="m100.04 120.52 1.63 22.813s0.833 3.334 5 3.334c4.166 0 5-3.334 5-3.334l1.629-22.813c-0.06 0.025-0.121 0.05-0.183 0.075-1.478 0.591-3.57 1.072-6.446 1.072s-4.968-0.481-6.446-1.072c-0.063-0.025-0.124-0.05-0.184-0.075z"/><path d="m96.737 79.141 3.263 37.526s1.667 1.666 6.667 1.666 6.667-1.666 6.667-1.666l3.263-37.526c-2.047 1.191-5.369 2.5258-9.93 2.5258-4.563 0-7.884-1.3352-9.93-2.5256z"/><path d="m95.391 42.274c-0.536 0.3774-0.961 0.9129-1.202 1.5555l-3.36 8.9605c-0.537 1.4298-0.566 3.0003-0.083 4.449l5.423 16.268c0.327 0.9818 0.875 1.8843 1.744 2.4464 1.523 0.9851 4.441 2.3799 8.754 2.3799 4.312 0 7.23-1.3948 8.753-2.3799 0.869-0.5621 1.417-1.4646 1.744-2.4464l5.423-16.268c0.483-1.4487 0.454-3.0192-0.083-4.449l-3.36-8.9605c-0.241-0.6426-0.666-1.1781-1.202-1.5555-2.968 2.7274-6.927 4.3926-11.275 4.3926-4.349 0-8.308-1.6652-11.276-4.3926z"/><path d="m93.333 30c0-1.9945-1.183-3.9597-2.943-4.8999-4.199-2.2447-7.057-6.6721-7.057-11.767 0-7.3638 5.97-13.333 13.334-13.333 1.286 0 2.53 0.1821 3.706 0.52193 3.853 1.1127 8.734 1.1127 12.587-2e-6 1.177-0.33983 2.421-0.52193 3.707-0.52193 7.364 0 13.333 5.9695 13.333 13.333 0 5.0947-2.857 9.5221-7.057 11.767-1.759 0.9402-2.943 2.9054-2.943 4.8999 0 7.3638-5.969 13.333-13.333 13.333-7.364 0-13.334-5.9695-13.334-13.333z"/><path d="m21.667 50h66.333c-3 5-0.825 8.193 0.333 11.667l-62.276 17.835c-3.977 1.1202-8.233-0.3203-10.712-3.6254l-3.919-5.2256c-2.272-3.0302-2.638-7.0843-0.944-10.472l2.325-4.6507c1.681-3.3604 5.103-5.4955 8.86-5.5275z"/><path d="m89.167 46.667-75.834-1.7791c-4.233-0.1765-7.937-2.6174-9.183-6.6667l-3.707-11.975c-0.296-0.9609-0.44-1.9417-0.443-2.9126-8e-3 -3.0588 1.39-6.0197 3.9-7.9519l7.65-5.8894c2.867-2.2078 6.704-2.6939 10.032-1.2711 8.565 3.5288 59.959 25.736 68.793 29.554 0.758 0.3276 1.135 1.1489 0.932 1.9494-0.143 0.5696-0.313 1.2557-0.474 1.9425-0.469 2.0041-1.666 5-1.666 5z"/><path d="m191.67 50h-66.334c3 5 0.825 8.193-0.333 11.667l62.276 17.835c3.977 1.1202 8.233-0.3203 10.712-3.6254l3.919-5.2256c2.273-3.0302 2.638-7.0843 0.944-10.472l-2.325-4.6508c-1.68-3.3604-5.102-5.4955-8.859-5.5275z"/><path d="m124.17 46.667 75.833-1.7791c4.233-0.1764 7.937-2.6174 9.183-6.6667l3.708-11.975c0.295-0.9609 0.44-1.9416 0.442-2.9126 9e-3 -3.0588-1.39-6.0197-3.9-7.9519l-7.649-5.8894c-2.868-2.2078-6.705-2.6939-10.032-1.2711-8.566 3.5288-59.96 25.736-68.793 29.554-0.758 0.3276-1.135 1.1489-0.933 1.9494 0.144 0.5696 0.313 1.2557 0.474 1.9425 0.469 2.0041 1.667 5 1.667 5z"/></g><defs><linearGradient id="a" x1="300" x2="300" y2="146.67" gradientTransform="translate(-193.33)" gradientUnits="userSpaceOnUse"><stop stop-color="#5A3EE0" offset="0"/><stop stop-color="#3E74E0" offset="1"/></linearGradient></defs></svg>
