<svg xmlns="http://www.w3.org/2000/svg" viewBox="0 0 20 20"><g fill="#334155"><path d="M6.422 18.618C8.178 19.54 9.056 20 10 20V10L.638 5.073l-.04.067C0 6.154 0 7.417 0 9.942v.117c0 2.524 0 3.787.597 4.801.598 1.015 1.674 1.58 3.825 2.709z"/><path d="m15.577 2.432-2-1.05C11.822.461 10.944 0 10 0c-.945 0-1.822.46-3.578 1.382l-2 1.05C2.318 3.536 1.242 4.1.638 5.072L10 10l9.362-4.927c-.606-.973-1.68-1.537-3.785-2.641" opacity=".7"/><path d="m19.403 5.14-.041-.067L10 10v10c.944 0 1.822-.46 3.578-1.382l2-1.05c2.151-1.129 3.227-1.693 3.825-2.708.597-1.014.597-2.277.597-4.8v-.117c0-2.525 0-3.788-.597-4.802" opacity=".5"/><path d="m4.323 2.484.1-.052 1.493-.784 9.1 5.005 4.025-2.011q.205.232.362.498c.15.254.262.524.346.825L15.75 7.964V11a.75.75 0 0 1-1.5 0V8.714l-3.5 1.75v9.44A3 3 0 0 1 10 20c-.248 0-.493-.032-.75-.096v-9.44l-8.998-4.5c.084-.3.196-.57.346-.824a3 3 0 0 1 .362-.498L10 9.162l3.387-1.693z"/></g></svg>