<svg xmlns="http://www.w3.org/2000/svg" fill="none" viewBox="0 0 175 234.51"><g stroke="rgb(106 229 181)" stroke-linejoin="round" stroke-width="5"><path d="M87.5 81.009c46.944 0 85-6.614 85-14.774l-48.639-12.226H48.778L2.5 66.235c0 8.16 38.056 14.774 85 14.774zm-14-76.138-24 49.138H127l-13.5-28.5s11.087-.897 18-2.5c7.218-1.674 18-6 18-6s-16.039-4.73-26.5-7c-7.373-1.6-11.631-1.883-19-3.5-6.291-1.38-9.562-3.808-16-4-5.735-.171-14.5 2.362-14.5 2.362zm14 102.64c-21.5 0-34 20.5-34 20.5s27.5 2.5 34-12c8 14.5 34 12 34 12s-12.5-20.5-34-20.5z"/><path d="M45.522 80.009c-.332 10.63 2.954 28.321 15.395 39m68.561-39c.332 10.63-2.954 28.321-15.395 39"/><path d="M129.5 81.509s8.103 23.273 9.875 38.812c2.073 18.183-3.125 46.813-3.125 46.813l-8.125-12.187s1.938 15.293-.781 24.453c-3.297 11.103-16.782 24.453-16.782 24.453L109 188.759s-4.423 13.437-8.25 21.625c-4.11 8.793-12.25 21.625-12.25 21.625s-8.434-12.823-12.75-21.625c-4.01-8.18-8.75-21.625-8.75-21.625l-1.687 15.094S51.792 190.509 48.469 179.4c-2.738-9.155-.844-24.453-.844-24.453l-8.375 12.187s-5.347-28.614-3.375-46.813c1.682-15.525 9.625-38.812 9.625-38.812"/><path stroke-linecap="round" d="M79.5 145.01s2.5-2 8-2 8 2 8 2m7 19 1.812 6.761M72.5 164.214l-1.812 6.762"/><path d="M83.5 29.555c0-7.392 8.042-7.047 9-5.95 0 0-5.345 1.286-5.345 5.95s5.345 5.95 5.345 5.95c-.958 1.096-9 1.441-9-5.95z"/></g></svg>