<svg viewBox="34.99 61.4 119.13 111.14" xmlns="http://www.w3.org/2000/svg"><defs><linearGradient id="prefix__a" x1="10.824" x2="10.824" y1="235.71" y2="-33.7" gradientTransform="scale(3.3648 .2972)" gradientUnits="userSpaceOnUse"><stop stop-color="#473788" offset=".303"/><stop stop-color="#2C2255" offset=".872"/></linearGradient><linearGradient id="prefix__b" x1="10.823" x2="10.823" y1="235.7" y2="-33.684" gradientTransform="scale(3.365 .29718)" gradientUnits="userSpaceOnUse"><stop stop-color="#473788" offset=".303"/><stop stop-color="#2C2255" offset=".872"/></linearGradient><linearGradient id="prefix__c" x1="20.523" x2="20.523" y1="124.32" y2="-17.77" gradientTransform="scale(1.7746 .5635)" gradientUnits="userSpaceOnUse"><stop stop-color="#473788" offset=".303"/><stop stop-color="#2C2255" offset=".863"/></linearGradient></defs><path d="M67.777 132.311H49.51c2.419 8.27 6.907 15.681 13.477 22.232 10.475 10.442 23.071 15.656 37.8 15.656a57.54 57.54 0 008.568-.635c11.095-1.67 20.808-6.669 29.131-15.021 6.613-6.548 11.133-13.962 13.57-22.232H67.777zm-10.073-24.729h-9.542a55.44 55.44 0 00-.695 6.411h106.64a54.962 54.962 0 00-.7-6.411m-105.94 12.365a55.15 55.15 0 00.695 6.41h105.25c.351-2.088.591-4.222.7-6.41m-2.056-18.319c-2.435-8.293-6.956-15.739-13.572-22.335-8.3-8.274-17.987-13.238-29.045-14.908a57.763 57.763 0 00-8.654-.645c-14.729 0-27.326 5.186-37.8 15.553-6.572 6.596-11.062 14.042-13.48 22.335" fill="#2c2255"/><path d="M44.296 116.971c0-28.08 21.158-51.413 48.683-55.516-.683-.025-1.37-.053-2.059-.053-30.888.001-55.93 24.881-55.93 55.569 0 30.69 25.041 55.568 55.93 55.568.692 0 1.378-.026 2.063-.051-27.529-4.104-48.687-27.436-48.687-55.517z" fill="#f7941e"/><path transform="translate(64.369 107.371)" d="M72.712 6.621A36.113 36.113 0 0071.608.21H1.234A36.08 36.08 0 00.129 6.62h72.583z" fill="url(#prefix__a)"/><path transform="translate(64.369 107.371)" d="M72.712 12.576H.13c.179 2.197.549 4.34 1.104 6.41h70.375c.555-2.07.924-4.213 1.103-6.41z" fill="url(#prefix__b)"/><path transform="translate(64.369 107.371)" d="M36.421 45.906c14.615 0 27.213-8.583 33.014-20.966H3.407c5.801 12.383 18.4 20.966 33.014 20.966z" fill="url(#prefix__c)"/><path d="M59.119 119.941h94.92c.05-.947.079-1.9.079-2.861 0-1.039-.039-2.068-.097-3.094H47.471a53.838 53.838 0 00-.097 3.094c0 .96.028 1.914.079 2.86h11.67zm8.444-18.32H49.506c-.593 1.94-.976 3.928-1.344 5.955h104.91a52.69 52.69 0 00-1.436-5.954m-5.424 24.729H48.158c.358 2.026.765 4.013 1.348 5.954h102.48a52.565 52.565 0 001.412-5.954h-7.186z" fill="#fff"/></svg>
