<svg xmlns="http://www.w3.org/2000/svg" viewBox="0 0 71.745 75.189"><path fill="#ee8421" d="M21.777 72.867c-2.931-2.045-6.612-4.828-9.34-7.472a40.1 40.1 0 0 1-9.344-12.648c1.737 4.99 4.519 9.815 8.627 13.732 3.172 2.594 6.57 4.693 10.057 6.388m37.8-61.91c-3.07-4.654-8.951-7.401-14.603-9.194C28.19-4.855 4.265 7.763.718 29.52.49 30.533.115 32.852.207 34.586 1.725 21.28 9.79 9.603 20.749 4.632 31.549-.558 44.306.36 53.046 6.505c.45.354.9.734 1.328 1.108a31.5 31.5 0 0 0-4.808-1.989c-5.911-2.85-12.944-3.978-19.937-2.478C15.867 5.303 3.391 17.834 1.237 33.464a31 31 0 0 0-.364 3.077c-.414-.3-.667-1.035-.667-1.955-.231 1.067-.231 2.132-.18 3.21-.149 5 .978 10.153 3.066 14.953a37.2 37.2 0 0 1-1.596-7.483c.995 4.87 3.044 9.553 6.164 13.32 2.051 2.11 4.347 6.742 7.124 8.228 10.561 8.377 26.586 11.221 37.402 5.059 1.481-.4 2.957-.827 4.29-1.599-1.728.573-3.668.956-5.22 1.5l-.516.005c-.447.255-.67.376-.898.5-7.985 1.008-24.338 2.779-34.416-5.716-2.861-2.053-5.076-4.754-7.152-7.525 1.06.726 2.77 1.707 3.8 2.792 5.077 5.07 12.051 9.656 18.842 10.204-3.132-1.278-5.822-2.8-8.784-4.593-1.533-.707-3.99-1.113-5.104-2.412-6.346-5.416-11.769-10.965-12.744-19.297-.148-.817.38-1.463.116-2.208 1.6 9.225 7.38 16.05 14.64 21.49.986 1.156 2.098 1.633 3.092 2.427 1.27.456 2.395.894 3.329 1.386 10.78 4.03 12.705-.39 22.372-.53-4.36 1.105-11.814 3.144-15.586 3.389 6.782 1.397 19.582-2.055 25.429-6.407 7.267-4.96 5.809-5.182 9.562-11.526.328-.518.648-1.7.918-3.13a31.7 31.7 0 0 0 3.586-14.665c0-10.15-4.766-19.174-12.168-25M6.39 42.774c-.637-4.115-.827-8.32.06-12.497-.084.824-.153 1.486-.113 1.802-.401 5.039-.014 9.155.448 11.83a37 37 0 0 0-.394-1.135 28 28 0 0 0 .633 2.348c.402 1.886.773 2.638.667 1.941 3.223 8.447 10.023 14.968 17.564 18.046-7.368-.916-17.128-10.97-18.865-22.335M27.874 6.491c-6.161 1.285-12.189 4.69-16.615 10.721 2.966-3.759 6.505-5.778 9.958-6.992-.312.228-.615.455-.915.69-2.694 1.597-5.223 3.517-7.487 5.922-.61.783-.89 1.736-1.46 2.428l-1.207 1.821c-1.602 1.514-2.559 3.325-3.6 5.245C2.028 36.3 2.571 48.717 8.775 59.16c-11.217-15.533-6.792-37.727 6.483-47.555 5.525-4.358 11.927-6.486 18.214-6.833a31.8 31.8 0 0 0-5.598 1.72m20.38 61.456c-1.045.186.569-.266 5.267-3.041.407-.235.85-.519 1.311-.821a31.5 31.5 0 0 0 5.165-3.432c-4.624 4.476-10.307 7.317-11.744 7.294"/></svg>