<svg xmlns="http://www.w3.org/2000/svg" fill="none" viewBox="0 0 199.07 124.63"><path fill="url(#a)" fill-opacity=".6" d="m42.343 49.054 1.514-3.08 1.707-3.452 1.636-3.284 1.053-2.1 1.024-2.026.996-1.957.968-1.887.942-1.819.46-.884.904-1.718.878-1.653.855-1.589q.21-.39.419-.77l.82-1.494.799-1.432.391-.693.768-1.342.376-.648.738-1.254C67.245 3.11 71.786-.286 77.641.019s8.21 1.833 10.881 5.165l.21.265c1.853 2.38 3.655 5.625 5.597 9.934l.49 1.1.379.87.279.649.459 1.082.56 1.35.81 2.016.674 1.73.71 1.876.863 2.335.949 2.625 1.565 4.416 3.159 9.082 3.049 8.857.668 2.002 1.356 4.168 1.529 4.776 4.687 14.78.203.62.492 1.45.485 1.389.319.892.475 1.29.314.829.312.803.31.778.309.753.308.728.306.705.305.68q.076.168.153.332l.305.645.304.622.152.303.305.588.304.565q.23.416.458.807l.307.51.307.49.154.236.31.458.31.437c2.496 3.413 5.165 4.867 8.52 5.026l.424.013.214.002c3.497 0 5.498-.988 7.694-4.082l.323-.468.163-.246.329-.514.335-.547.342-.58.35-.612.36-.648 1.26-2.34.437-.793.417-.744q.204-.36.4-.697l.39-.654c1.219-2.01 2.307-3.433 3.739-4.84 3.08-3.026 6.906-4.665 11.498-4.665 4.324 0 8.18 1.072 11.843 3.092l.506.285.488.284.476.289.235.147.466.3.465.314.234.162.474.337q.12.086.24.176l.494.368.512.394.535.422.858.692.939.775 1.71 1.432.643.53.614.497.588.466q.143.113.284.22l.55.42.53.392.258.184.5.347.485.32c2.462 1.586 4.334 2.108 6.849 2.108a6.075 6.075 0 0 1 0 12.15c-4.323 0-8.181-1.072-11.842-3.092l-.506-.284-.488-.285-.476-.29q-.119-.072-.235-.146l-.466-.301-.465-.313-.234-.161-.474-.338-.241-.175-.493-.37-.512-.392-.535-.422-.86-.693-.938-.775-1.71-1.431-.642-.531-.614-.497-.588-.466-.285-.221-.551-.42-.53-.39-.257-.185-.501-.347-.484-.32c-2.462-1.585-4.333-2.108-6.85-2.108-1.484 0-2.5.443-3.734 2.036l-.242.323-.25.353-.255.384q-.129.198-.264.415l-.275.45q-.07.115-.141.237l-.292.5-.304.538-.318.575-1.2 2.222-.497.91-.484.858c-1.907 3.337-3.535 5.538-5.843 7.59-3.71 3.297-8.324 5.039-13.937 5.039-7.633 0-13.707-3.202-18.408-9.281-2.017-2.608-3.764-5.656-5.464-9.484l-.408-.933a90 90 0 0 1-.61-1.46l-.406-1.013-.406-1.047-.408-1.081-.411-1.117-.413-1.154-.416-1.192-.21-.61-.556-1.655-6.025-18.958-1.372-4.235-.69-2.084-.383-1.134-3.533-10.248-2.08-5.975-1.61-4.562-.969-2.693-.78-2.128-.72-1.92-.755-1.958-.796-1.994-.624-1.508-.504-1.188-.532-1.226-.195-.442-.383-.853-.376-.813-.368-.774-.36-.734q-.087-.179-.176-.352l-.347-.675-.17-.323-.336-.615q-.994-1.788-1.834-2.867l-.212-.263-.097-.115-.177-.2-.073-.077-.073-.062a1.03 1.03 0 0 0-1.288-.028l-.16.135-.207.192-.231.23-.124.131-.265.291-.288.333-.153.182-.322.397-.345.442q-.09.115-.18.238l-.379.51-.326.451-.425.607-.293.426-.451.673-.467.713-.648 1.014-.676 1.088-.706 1.163-.548.922-.758 1.296-.589 1.023-.812 1.434-.63 1.128-1.09 1.98-1.141 2.11-1.193 2.24-1.503 2.866-1.581 3.06-1.662 3.26-1.448 2.873-.896 1.793-1.541 3.103-1.601 3.251q-.363.741-.725 1.467l-.722 1.44-.36.711-.718 1.4-.715 1.375-.357.677-.711 1.335-.355.658-.708 1.296-.704 1.27-.703 1.245-.7 1.22-.349.6-.696 1.181-.694 1.156-.691 1.132q-.345.558-.689 1.106l-.687 1.082-.684 1.057-.682 1.033-.34.507-.679.997-.677.972-.674.95q-.505.7-1.008 1.377l-.669.89c-3.675 4.827-7.257 8.593-10.77 11.406-6.456 5.17-11.38 6.627-17.624 6.684l-.969.005-.065.001-.057.014a6.076 6.076 0 0 1-7-3.753l-.076-.209a6.075 6.075 0 0 1 3.782-7.714c.827-.283 1.603-.407 2.464-.46l.387-.019.262-.007.472-.005h.408c3.88 0 6.228-.663 10.423-4.02a36 36 0 0 0 1.046-.875l.53-.468.532-.489.537-.51.27-.264.542-.542.546-.564.274-.29.552-.598q.277-.304.555-.619l.56-.64q.56-.653 1.13-1.35l.57-.708q.43-.54.864-1.105l.58-.766.585-.788.293-.403.59-.824.593-.846.598-.87.6-.895.606-.918.609-.942.612-.966.308-.492.618-1.002.31-.51.624-1.04.628-1.064.632-1.089.317-.554.637-1.126.64-1.152.323-.585.646-1.19.325-.605.652-1.228.656-1.254.66-1.28.664-1.306.667-1.332z"/><path fill="url(#b)" d="m141.33 54.503-.136-.491c-2.669-9.504-6.911-16.68-11.118-19.052-2.326-1.311-4.988-1.097-8.192 1.348l-.412.325-.417.348q-.106.09-.212.184l-.427.387-.216.202-.436.425q-.66.656-1.348 1.43l-.462.53q-.35.408-.707.846l-.479.6q-.241.305-.487.626l-.493.655-.501.683-.508.713-.578.827-.578.843-.579.859-.581.875-.292.444-.585.902-.588.921-.592.941-.897 1.45-.909 1.5-.614 1.03-.62 1.053-.628 1.078-.637 1.104-.97 1.708-.659 1.173-1.007 1.814-1.382 2.527-1.069 1.978-1.47 2.756-.757 1.43-8.394 16.119-1.588 3.018-1.182 2.224-.843 1.569-.81 1.492-1.29 2.34-.747 1.33-.73 1.282-.48.833q-.316.543-.627 1.072l-.618 1.042-.305.51-.605.996q-.3.49-.597.965l-.59.935-.583.905-.576.875-.57.846q-.282.415-.563.817l-.56.787c-3.337 4.637-6.41 7.714-9.633 9.449-7.319 3.942-13.978 4.769-20.614 2.503-3.857-1.317-7.41-3.476-11.78-7.043l-.78-.644-.797-.675-.407-.348-.828-.721-.85-.752-.872-.784-.898-.817-.257-.24-.545-.518-.579-.57-.606-.61-.626-.642-.638-.664-.952-1.007-1.454-1.567-1.465-1.612-1.354-1.517-.648-.748-.005-.008-.091-.093-.216-.205-.109-.1-.219-.19-.222-.178-.113-.085-.23-.163a6 6 0 0 0-.238-.152l-.245-.142-.256-.132c-.609-.294-1.309-.505-2.18-.635l-.383-.051a15 15 0 0 0-.617-.058l-.442-.027-.468-.017a20 20 0 0 0-.495-.008h-.523l-.272.005-.865.026-.617.029-.65.038-.687.047-1.098.087-.781.069-1.247.12a6.075 6.075 0 0 1-1.209-12.09l1.044-.1 1.012-.086.98-.074.479-.032.935-.054q.46-.024.906-.041l.878-.027c7.923-.182 12.42 1.4 16.637 5.534l.253.254 2.585 2.886 1.206 1.324 1.323 1.43.944 1.002.795.828.505.515.478.478.446.433.406.38.717.655 1.04.934.671.593.655.57.638.546.623.523.906.74.587.466.288.224.566.432q.28.21.555.409l.542.387.53.365.262.174.516.332c4.337 2.73 7.625 3.122 11.579 1.66l.468-.18.475-.196.482-.214.245-.113.494-.24q.126-.06.251-.124l.509-.263.257-.138q.858-.461 1.94-1.525l.338-.342q.171-.178.349-.37l.358-.398.369-.426.379-.455.193-.238.393-.497.403-.525.206-.273.417-.567.428-.595.217-.308.441-.638.451-.665.46-.693.47-.721.477-.748.487-.777.496-.804.505-.832.773-1.3.526-.9.69-1.198.703-1.242.48-.857.99-1.791.773-1.421 1.083-2.012 1.15-2.162 9.57-18.356 1.566-2.961 1.137-2.128 1.109-2.052 1.081-1.98 1.057-1.91.692-1.236.682-1.208.674-1.181.666-1.154.984-1.684.649-1.092.642-1.068.638-1.047.633-1.025.629-1.005.626-.986.624-.967.621-.95.621-.933.62-.918.62-.904.621-.89c9.843-13.986 20.932-18.68 31.198-12.893 7.625 4.297 13.401 14.05 16.854 26.362l4.179 15.922 1.426 5.322 1.124 4.117.296 1.065.518 1.82.398 1.357.594 1.986.591 1.925.392 1.249.39 1.222.39 1.194.388 1.166.386 1.139.386 1.11.384 1.082.383 1.054.382 1.026.38.997.19.487.379.954q.189.47.378.925l.377.896q.188.441.375.867l.375.838.187.407.373.794a51 51 0 0 0 1.483 2.877l.369.644q.184.314.368.614c.832 1.357 1.619 2.407 2.324 3.127l.237.233.21.19.166.139.137-.125.199-.198a9 9 0 0 0 .226-.244l1.143-1.324.988-1.128.954-1.073.924-1.021.892-.968.578-.617.565-.595.552-.572.54-.55.527-.527.515-.507.504-.485.247-.234.486-.454.475-.432.465-.413.453-.392.443-.372.433-.353.424-.333.208-.16.408-.304.4-.286.391-.268.382-.25.373-.23.365-.214q.272-.153.533-.288l.346-.17.339-.154.166-.071.329-.13q.324-.12.636-.208l.309-.082a6.3 6.3 0 0 1 1.46-.181 6.075 6.075 0 0 1 1.881 11.853l-.09.027-.167.112-.304.215-.394.298-.357.284-.375.31-.393.337-.412.363-.43.39-.222.207-.458.432-.477.46-.496.49-.514.517-.533.546-.553.576-.571.606-.591.635-.61.666-.952 1.056-.659.742-.678.774-.698.806-.357.415c-3.816 4.443-8.651 6.245-13.597 4.487-3.751-1.333-6.785-4.435-9.601-9.027l-.233-.383-.462-.788c-1.461-2.542-2.881-5.525-4.285-8.957l-.443-1.098q-.332-.835-.663-1.704l-.441-1.174-.22-.598-.44-1.22-.44-1.247-.441-1.28-.44-1.308-.22-.666-.441-1.355-.441-1.385-.443-1.415-.443-1.446-.444-1.477-.445-1.507-.506-1.75-.572-2.04-1.252-4.59-1.058-3.946-3.055-11.588z"/><defs><linearGradient id="a" x1="44.859" x2="150.56" y1="98.15" y2="225.54" gradientTransform="translate(-.465 -37.384)" gradientUnits="userSpaceOnUse"><stop offset="0" stop-color="#7B4EFF"/><stop offset="1" stop-color="#FFA13C"/></linearGradient><linearGradient id="b" x1="80.841" x2="155.4" y1="123.85" y2="230.42" gradientTransform="translate(-.465 -37.384)" gradientUnits="userSpaceOnUse"><stop offset="0" stop-color="#7B4EFF"/><stop offset="1" stop-color="#FFA13C"/></linearGradient></defs></svg>