<svg xmlns="http://www.w3.org/2000/svg" fill="none" viewBox="0 0 128 128"><circle cx="64" cy="64" r="64" fill="#2f3242"/><path fill="#a2ecfb" d="M51.395 39.503a1.8 1.8 0 0 0 .646-3.542zm-22.78 4.072 1.56.9zm.324 17.361a1.8 1.8 0 0 0 3.124-1.788zm8.754 5.81a1.8 1.8 0 0 0-2.664 2.421zm16.055 14.956-.9 1.559zm43.172 7.814a1.8 1.8 0 1 0-2.03-2.973zM52.041 35.962c-5.57-1.016-10.757-1.065-15.068-.024-4.319 1.043-7.89 3.22-9.918 6.739l3.12 1.798c1.394-2.42 3.97-4.15 7.643-5.037 3.682-.89 8.336-.89 13.577.065zm-24.986 6.715c-3.013 5.227-1.778 11.864 1.884 18.26l3.124-1.789c-3.406-5.95-3.955-11.089-1.889-14.673zm7.973 26.49c4.61 5.073 10.687 9.969 17.82 14.093l1.801-3.117c-6.841-3.956-12.62-8.624-16.956-13.398zm17.82 14.093c8.495 4.913 17.198 7.985 24.886 9.1 7.624 1.108 14.54.328 19.186-2.845l-2.03-2.973c-3.565 2.435-9.4 3.307-16.638 2.256-7.173-1.041-15.443-3.937-23.602-8.655zm52.51 1.648a6.29 6.29 0 0 0-6.288-6.295v3.6a2.69 2.69 0 0 1 2.688 2.695zm-6.288-6.295a6.29 6.29 0 0 0-6.288 6.295h3.6a2.69 2.69 0 0 1 2.688-2.695zm-6.288 6.295a6.29 6.29 0 0 0 6.288 6.295v-3.6a2.69 2.69 0 0 1-2.688-2.695zm6.288 6.295a6.29 6.29 0 0 0 6.288-6.295h-3.6a2.69 2.69 0 0 1-2.688 2.695z"/><path fill="#a2ecfb" d="M91.487 65.382a1.8 1.8 0 1 0 2.75 2.324zm7.83-21.747-1.56.899zm-14.81-8.394a1.8 1.8 0 1 0-.047 3.6zM74.94 39.88a1.8 1.8 0 0 0-.755-3.52zm-21.157 6.492.901 1.559zM25.55 80.904a1.8 1.8 0 0 0 3.562-.521zm68.688-13.199c3.647-4.315 6.269-8.778 7.516-13.028 1.248-4.256 1.147-8.43-.877-11.942l-3.118 1.798c1.392 2.415 1.603 5.508.54 9.13-1.065 3.63-3.38 7.658-6.81 11.718zm6.64-24.969c-2.965-5.142-9.168-7.401-16.37-7.495l-.046 3.6c6.672.087 11.266 2.17 13.297 5.693zM74.186 36.36c-6.75 1.449-14.099 4.288-21.304 8.455l1.803 3.116c6.912-3.997 13.91-6.69 20.256-8.051zm-21.304 8.455c-8.745 5.057-15.915 11.28-20.733 17.578-4.772 6.237-7.435 12.819-6.6 18.512l3.562-.522c-.628-4.28 1.363-9.877 5.897-15.803 4.487-5.866 11.276-11.791 19.676-16.65z"/><path fill="#a2ecfb" d="M49.082 87.23a1.8 1.8 0 1 0-3.39 1.212zm29.481 9.196a1.8 1.8 0 0 0-3.087-1.853zM79.57 85.18a1.8 1.8 0 1 0 3.436 1.074zm4.813-21.112h-1.8zM69.156 22.531a1.8 1.8 0 1 0-1.463 3.29zM45.693 88.443c1.906 5.333 4.457 9.849 7.51 13.063 3.06 3.22 6.725 5.226 10.78 5.226v-3.6c-2.785 0-5.567-1.366-8.17-4.106-2.61-2.746-4.937-6.777-6.73-11.795zm18.29 18.29c5.887 0 10.91-4.19 14.58-10.306l-3.086-1.853c-3.399 5.663-7.465 8.559-11.493 8.559zm19.024-20.479c2.02-6.467 3.176-14.07 3.176-22.186h-3.6c0 7.786-1.11 15.025-3.012 21.112zm3.176-22.186c0-9.953-1.739-19.145-4.687-26.417-2.92-7.206-7.152-12.813-12.34-15.12l-1.463 3.29c3.944 1.753 7.692 6.336 10.467 13.182 2.75 6.781 4.424 15.504 4.424 25.065z"/><path stroke="#a2ecfb" stroke-linecap="round" stroke-width="3.6" d="M103.56 84.908a4.49 4.49 0 0 0-4.488-4.495c-2.479 0-4.488 2.013-4.488 4.495s2.01 4.495 4.488 4.495a4.49 4.49 0 0 0 4.488-4.495zm-74.746 4.495c2.479 0 4.488-2.013 4.488-4.495s-2.01-4.495-4.488-4.495-4.488 2.013-4.488 4.495 2.01 4.495 4.488 4.495z" clip-rule="evenodd"/><ellipse cx="63.984" cy="23.204" stroke="#a2ecfb" stroke-linecap="round" stroke-width="3.6" rx="4.488" ry="4.495"/><path fill="#a2ecfb" fill-rule="evenodd" d="M64.85 68.086a4.112 4.112 0 0 1-1.733-8.037 4.105 4.105 0 0 1 4.878 3.15 4.11 4.11 0 0 1-3.145 4.887" clip-rule="evenodd"/></svg>