<svg fill="none" viewBox="0 0 18.011 28" xmlns="http://www.w3.org/2000/svg"><path d="M10.809 6.591c2.079 4.584 7.64 6.5 7.141 12.474-.582 7.017-5.551 8.784-8.316 8.909a8.815 8.815 0 01-9.4-7.485C-1.373 13.046 5.664 1.632 9.718 0a15.09 15.09 0 001.091 6.591zm-.166 18.857a.423.423 0 00-.057-.327c-.593-1.1-5.81-1.645-6.907-1.752.488.5 1.037.938 1.635 1.3.861.527 1.817.88 2.814 1.041.803.121 2.348.223 2.516-.263z" fill="#7c648f"/><path d="M11.257 8.618c4.47 4.823 6.445 4.979 6.237 10.478-.249 6.476-4.543 8.191-7.058 8.42-4.2.551-7.495-1.528-8.358-5.686C.321 15.063 5.987 4.023 9.646 2.36a15.324 15.324 0 001.621 6.24z" fill="#26003d" opacity=".25"/><path d="M10.394 7.921c2.984 4.079 6.934 3.779 7.615 9.72.094 6.923-3.6 9.283-6.237 9.948-4.5 1.279-8.514-.645-10.094-5-3.035-7 2.651-18.514 6.31-20.915a15.083 15.083 0 002.37 6.237z" fill="url(#prefix__prefix__paint0_linear)" opacity=".75"/><defs><linearGradient id="prefix__prefix__paint0_linear" x1="17.249" x2="14.973" y1="29.597" y2="3.994" gradientTransform="translate(-6.99 -2)" gradientUnits="userSpaceOnUse"><stop stop-color="#fff" stop-opacity="0" offset="0"/><stop stop-color="#F7F6F8" stop-opacity=".04" offset=".01"/><stop stop-color="#AA9CB3" stop-opacity=".39" offset=".09"/><stop stop-color="#6F567E" stop-opacity=".66" offset=".2"/><stop stop-color="#452459" stop-opacity=".86" offset=".32"/><stop stop-color="#2D0843" stop-opacity=".97" offset=".5"/><stop stop-color="#26003D" offset="1"/></linearGradient></defs></svg>
