<svg xmlns="http://www.w3.org/2000/svg" viewBox="0 0 64.1 70.113"><path fill="#fbbf09" d="M33.6 62.313v7.7c1.2-.2 2.4-.6 3.4-1.2l22.1-12.6c3.1-1.8 5-5 5-8.6v-25.1q0-1.65-.6-3.3l-6.7 3.9-18.5 10.6c-3.8 2.7-4.6 5.2-4.7 8.2z"/><path fill="#00a275" d="m55.3 20.413 6.7-3.9c-.8-1.1-1.8-2-2.9-2.6L37 1.313c-3.1-1.8-6.9-1.7-9.9 0l-22 12.6q-1.8 1.05-3 2.7l6.7 3.9 18.5 10.6c2.2 1.4 3.7 2.8 4.7 4.4 1-1.6 2.5-3 4.7-4.4z"/><path fill="#eb8a04" d="m7.4 23.213-6.8-3.9c-.4 1-.6 2.1-.6 3.2v25.2c0 3.5 1.9 6.8 5 8.6l22 12.6c1 .6 2.2 1 3.4 1.2v-28.2c-.1-3-.9-5.5-4.7-8.2z"/><path fill="#f5ea64" d="m63.5 19.213-6.7 3.9c.2.7.4 1.5.4 2.3v19.4c0 2.8-1.5 5.5-4 6.9l-17 9.7c-.8.4-1.6.7-2.5.9v7.7c1.2-.2 2.4-.6 3.4-1.2l22-12.6c3.1-1.8 5-5 5-8.6v-25.1q0-1.65-.6-3.3"/><path fill="#48c0ed" d="m11.1 18.513 16.9-9.7c2.5-1.4 5.6-1.4 8 0l17 9.7c.9.5 1.6 1.2 2.2 1.9l6.7-3.9c-.8-1.1-1.8-2-2.9-2.6l-22-12.6c-3.1-1.8-6.9-1.7-9.9 0l-22 12.6q-1.8 1.05-3 2.7l6.7 3.9c.7-.8 1.4-1.5 2.3-2"/><path fill="#fdd657" d="m28 61.413-16.9-9.7c-2.5-1.4-4-4.1-4-6.9v-19.4c0-.8.1-1.5.3-2.2l-6.8-3.9c-.4 1-.6 2.1-.6 3.2v25.2c0 3.5 1.9 6.8 5 8.6l22 12.6c1 .6 2.2 1 3.4 1.2v-7.7c-.8-.3-1.6-.6-2.4-1"/></svg>