<svg xmlns="http://www.w3.org/2000/svg" fill="none" viewBox="0 0 27.799 23.953"><g fill="#000" clip-path="url(#a)" transform="translate(-1.125)"><path d="M16.771 15.36c0 1.016-.88 1.652-1.66 1.652s-1.714-.316-1.714-1.652v-.65h-1.026v.65c0 1.48 1.23 2.682 2.74 2.682s2.742-1.203 2.742-2.682v-.65H16.77zM8.148 12.223c0-.97.842-1.76 1.876-1.76s1.875.79 1.875 1.76h1.182c0-1.583-1.37-2.87-3.057-2.87s-3.058 1.287-3.058 2.87zM17.886 12.223c0-.97.842-1.76 1.875-1.76 1.035 0 1.876.79 1.876 1.76h1.182c0-1.583-1.371-2.87-3.058-2.87s-3.057 1.287-3.057 2.87z"/><path fill-rule="evenodd" d="M24.726 8.458V4.644q0-1.929-.469-2.676T22.305.815q-.448-.124-.448-.405 0-.377 1.008-.377h1.021q1.666 0 2.526 1.034t.86 3.018v4.024q0 1.396.302 2.151.3.755 1.112 1.412.238.195.238.321 0 .125-.238.321-.825.67-1.12 1.418-.293.749-.293 2.145v4.01q0 1.998-.868 3.032c-.868 1.034-1.418 1.034-2.519 1.034h-1.021q-.658 0-.833-.063c-.175-.063-.175-.147-.175-.314q0-.35.462-.461l.56-.126q1.847-.42 1.847-3.647v-3.814q0-2.166 1.05-3.06l.266-.224q.195-.167.195-.251 0-.098-.195-.252l-.266-.223q-1.05-.894-1.05-3.06M5.323 8.425V4.611q0-1.928.469-2.676.469-.747 1.952-1.152.448-.127.448-.406Q8.192 0 7.184 0H6.163Q4.498 0 3.637 1.034t-.86 3.018v4.024q0 1.396-.302 2.151-.3.755-1.112 1.412-.238.195-.238.321c0 .126.08.191.238.321q.826.67 1.12 1.418c.293.748.293 1.214.293 2.145v4.01q0 1.998.868 3.032c.868 1.034 1.418 1.034 2.519 1.034h1.021q.658 0 .833-.063c.175-.063.175-.147.175-.314q0-.35-.462-.461l-.56-.126q-1.847-.42-1.847-3.647v-3.814q0-2.166-1.05-3.06l-.265-.224q-.195-.167-.196-.251 0-.097.196-.252l.266-.223q1.05-.894 1.05-3.06" clip-rule="evenodd"/></g><defs><clipPath id="a"><path fill="#fff" d="M1.125 0h27.813v24H1.125z"/></clipPath></defs></svg>