<svg xmlns="http://www.w3.org/2000/svg" viewBox="0 0 141.15 78.699"><path fill="#e50914" d="M70.62 40.665v9.5A19.78 19.78 0 0 1 91 70.605h9.47a29.24 29.24 0 0 0-29.85-29.94m35.85-5.91a49.53 49.53 0 0 0-35.23-14.65h-.59v10.16a39.66 39.66 0 0 1 40.21 40.33h10.16v-.59a49.53 49.53 0 0 0-14.55-35.25" class="cls-1"/><path fill="#e50914" d="M0 70.575a70.575 70.575 0 0 1 141.15 0v7.38h-19v-7.3h9.39v-.08a61 61 0 0 0-121.91 0v.08h9.39v7.3h-19v-7.38z" class="cls-1"/><path d="m75.69 64.455-5-54.66-5 54.66c-5.903 4.726-2.56 14.244 5 14.244s10.903-9.518 5-14.244"/></svg>