<svg xmlns="http://www.w3.org/2000/svg" viewBox="0 0 61.351 58.399"><radialGradient id="a" cx="-122.39" cy="442.72" r="29.58" gradientTransform="matrix(1 0 0 -1 134.45 453.73)" gradientUnits="userSpaceOnUse"><stop offset="0" stop-color="#fff"/><stop offset="1" stop-color="#007808"/></radialGradient><path fill="#0b4819" d="M.511 12.362V5.076l4.891 1.685v6.778zm3.944 29.953V15.224l4.675.989v25.178z"/><path fill="#105c80" d="m27.321 5.064-12.015 13.78v5.864l17.82-20.093L61.351 2.43 19.834 45.704l5.527.291 30.155-30.843v29.151l-3.35 3.149 8.496.459v8.068l-26.65-2.064 13.585-13.179v-6.495L28.175 53.463 4.919 51.665l37.303-40.117-6.139.332L9.13 41.391V16.213l2.553-3.014-6.281.34V6.761z"/><path fill="#0b4819" d="m4.455 15.224 2.704-3.255 4.524 1.23-2.553 3.014z"/><path fill="#084010" d="m11.004 18.037 4.302.807v5.864l-4.302-.352z"/><path fill="#0c541e" d="m15.82 47.004 4.014-1.3 5.527.291-3.647 1.349z"/><path fill="#1a5c34" d="m23.808 3.104 3.513 1.96-12.015 13.78-4.302-.807z"/><path fill="#0b4819" d="M11.004 24.356 30.022 2.578l3.104 2.037-17.82 20.093z"/><path fill="#1a5c34" d="m33.195 10.43 2.888 1.45L9.13 41.391l-4.675.924z"/><path fill="#0b4819" d="M0 53.342 39.798 10.04l2.424 1.508L4.919 51.665z"/><path fill="#1a5c34" d="m45.597 34.675 2-.434-19.422 19.222-3.454 1.972z"/><path fill="#0b4819" d="M45.597 41.735v-7.06l2-.434v6.495z"/><path fill="#0b4819" d="m30.973 55.963 14.624-14.228 2-.999-13.585 13.179z"/><path fill="#13802d" d="m54.168 45.646-3.63 3.411 1.628-1.605 3.35-3.149z"/><path fill="#0b4819" d="m21.714 47.344 32.454-33.446 1.348 1.254-30.155 30.843z"/><path fill="#084010" d="m54.168 13.898 1.348 1.254v29.151l-1.348 1.343zm5.591 35.704.903-1.691v8.068l-.903 2.422z"/><path fill="#1a5c34" d="m60.507-.002.844 2.432-41.517 43.274-4.014 1.3z"/><path fill="url(#a)" d="M23.808 3.104 11.004 18.037v6.319L30.022 2.578l30.485-2.58L15.82 47.004l5.894.34 32.454-33.446v31.748l-3.63 3.411 9.221.545v8.799l-28.786-2.438 14.624-14.228v-7.06l-20.876 20.76L0 53.342 39.798 10.04l-6.603.39-28.74 31.885V15.224l2.704-3.255-6.648.393V5.076z"/></svg>