<svg xmlns="http://www.w3.org/2000/svg" fill="none" viewBox="0 0 133.78 140.08"><path fill="#f04405" fill-rule="evenodd" d="M22.16 10.776C34.779 4.39 50.317 0 67.026 0c15.856 0 31.937 4.189 44.596 10.596a4.536 4.536 0 0 1 1.999 6.097 4.536 4.536 0 0 1-6.096 1.999C96.083 12.902 81.4 9.074 67.026 9.074c-15.144 0-29.287 3.988-40.769 9.799a4.537 4.537 0 1 1-4.097-8.097zm7.89 13.834c10.952-5.112 25.02-7.825 36.924-7.825 11.925 0 25.641 2.72 36.578 7.825 12.177 5.684 22.378 13.941 29.375 23.659a4.536 4.536 0 1 1-7.364 5.302c-5.997-8.33-14.926-15.64-25.85-20.738-9.607-4.485-21.993-6.974-32.74-6.974-10.766 0-23.494 2.496-33.086 6.974-10.453 4.88-19.82 12.73-25.66 20.905a4.537 4.537 0 0 1-7.383-5.275c6.793-9.509 17.408-18.346 29.205-23.853zm36.346 8.598c23.37-.225 43.76 11.81 54.11 29.098 5.431 9.074 7.321 18.197 7.321 25.973 0 13.242-12.09 21.502-22.946 21.502-5.437 0-11.212-1.455-15.79-4.945-4.717-3.597-7.834-9.123-8.055-16.42-.133-4.37-2.131-7.263-4.874-9.2-2.894-2.045-6.638-3.004-9.722-3.004-8.39 0-14.233 6.173-14.233 12.067 0 4.914 1.543 11.814 3.578 16.382 2.062 4.629 5.762 10.018 9.367 13.28l.044.04.042.04c5.902 5.623 13.283 10.632 24.107 13.097a4.537 4.537 0 0 1-2.015 8.848c-12.732-2.9-21.51-8.868-28.31-15.336-4.671-4.243-9.041-10.706-11.523-16.277-2.518-5.65-4.364-13.803-4.364-20.074 0-11.793 10.841-21.141 23.306-21.141 4.677 0 10.317 1.387 14.958 4.667 4.792 3.386 8.479 8.794 8.708 16.337.14 4.615 1.985 7.57 4.487 9.478 2.641 2.014 6.34 3.087 10.288 3.087 7.205 0 13.872-5.457 13.872-12.428 0-6.301-1.527-13.783-6.034-21.312C104.07 52.52 86.72 42.088 66.482 42.283c-17.56.169-36.233 8.462-45.776 24.494-4.067 6.834-6.108 14.643-5.86 22.81.34 11.237 1.978 15.953 4.943 23.8a4.538 4.538 0 0 1-8.489 3.207c-3.172-8.396-5.143-14.147-5.524-26.733-.3-9.882 2.177-19.398 7.133-27.725 11.512-19.34 33.507-28.735 53.486-28.927zM24.544 87.514c.027-20.918 20.157-37.34 41.896-37.34 21.618 0 42.617 14.885 42.617 38.646a4.537 4.537 0 1 1-9.074 0c0-17.388-15.457-29.573-33.544-29.573-17.952 0-32.822 13.513-32.822 28.31v.083c-.152 8.258 1.163 16.136 5.461 24.567 4.385 8.602 9.657 14.445 14.477 18.688a4.537 4.537 0 1 1-5.996 6.811c-5.509-4.85-11.566-11.57-16.565-21.378-5.08-9.964-6.619-19.35-6.45-28.814zm41.896-3.772a4.537 4.537 0 0 1 4.537 4.536c0 4.9 1.344 9.543 3.904 13.974 2.463 4.265 5.668 7.34 10.065 10.006 6.4 3.49 10.792 4.683 17.474 4.513l.062-.002c2.639-.031 5.735-.25 8.177-.675a4.537 4.537 0 0 1 1.559 8.939c-3.056.533-6.65.773-9.597.809-8.527.214-14.493-1.5-22.115-5.67l-.084-.046-.081-.05c-5.55-3.346-9.962-7.476-13.317-13.285-3.274-5.669-5.12-11.862-5.12-18.513a4.537 4.537 0 0 1 4.536-4.537z" clip-rule="evenodd"/></svg>