<svg xmlns="http://www.w3.org/2000/svg" viewBox="0 0 155.56 195.39"><path fill="#ff9100" d="M48.724 189.77a77.7 77.7 0 0 0 26.358 5.568 77.5 77.5 0 0 0 35.304-7.116 110 110 0 0 1-34.417-21.609c-6.438 10.308-15.959 18.449-27.245 23.157"/><path fill="#ffc400" d="M75.967 166.62c-22.67-20.967-36.423-51.314-35.261-84.599.038-1.08.095-2.161.161-3.241a58.7 58.7 0 0 0-30.66.32 77.4 77.4 0 0 0-10.16 35.793c-1.174 33.624 19.173 63.003 48.674 74.884a58.88 58.88 0 0 0 27.245-23.157z"/><path fill="#ff9100" d="M75.968 166.62c5.27-8.435 8.467-18.324 8.839-28.978.978-28.026-17.862-52.135-43.938-58.862-.067 1.08-.124 2.16-.162 3.241-1.162 33.285 12.59 63.632 35.261 84.599z"/><path fill="#dd2c00" d="M81.891 0C67.04 11.898 55.312 27.586 48.217 45.658a109.7 109.7 0 0 0-7.36 33.127c26.076 6.728 44.917 30.836 43.938 58.862a58.5 58.5 0 0 1-8.839 28.978 109.8 109.8 0 0 0 34.417 21.609c25.79-11.921 44.088-37.574 45.148-67.916.686-19.659-6.867-37.18-17.54-51.969-11.27-15.641-56.09-68.35-56.09-68.35z"/></svg>