<svg viewBox="0 0 64 64" xmlns="http://www.w3.org/2000/svg"><path d="M32 0c17.7 0 32 14.3 32 32S49.7 64 32 64 0 49.7 0 32 14.3 0 32 0z" fill="#80a"/><path d="M34.302 27.764c18.554-3.581 19.267-11.673 19.267-11.673s-1.461 25.078-15.021 26.405c-17.183 1.681-19.75 9.787-19.75 9.787s4.595-22.412 15.504-24.518z" fill="#f06"/><path d="M23.106 26.657c15.721-6.658 14.282-17.52 14.282-17.52s8.68 22.158-4.332 27.324c-14.536 5.77-13.89 15.628-13.89 15.628s-5.293-21.522 3.94-25.432z" fill="#f60"/><path d="M13.845 32.548c8.833-11.647 6.846-19.816 6.846-19.816s11.317 14.19 3.616 22.979c-8.602 9.818-4.856 16.649-4.856 16.649S8.779 39.229 13.845 32.548z" fill="#fc0"/></svg>
