<svg xmlns="http://www.w3.org/2000/svg" viewBox="0 0 5.402 12.65"><defs><linearGradient id="a"><stop offset="0" stop-color="#ff0c0c"/><stop offset="1" stop-color="#ffc402"/></linearGradient><linearGradient id="b" x1="78.573" x2="78.606" y1="121.57" y2="123.67" gradientUnits="userSpaceOnUse" href="#a"/><linearGradient id="d" x1="78.573" x2="78.58" y1="121.57" y2="124.25" gradientUnits="userSpaceOnUse" href="#a"/></defs><g transform="translate(-3.648 -.025)"><path fill="#ee2349" d="M6.35.031c.192.102.68.366.924.555.291.224.542.47.787.772.148.181.278.474.332.737.089.436.031.892-.031 1.333-.107.76-.586 2.225-.586 2.225s.588.4.84.648c.133.13.214.262.285.434.1.239.144.513.149.772.003.13-.022.421-.022.421s-.58-.589-.967-.716c-.215-.07-.47-.096-.678-.006-.085.036-.094.199-.186.204-.214.013-.664.005-.846 0-.183.005-.633.013-.847 0-.092-.006-.1-.168-.185-.204-.208-.09-.467-.065-.682.006-.387.127-.964.716-.964.716s-.027-.291-.025-.421a2.2 2.2 0 0 1 .149-.772c.071-.172.155-.304.288-.434.252-.247.84-.648.84-.648s-.482-1.466-.589-2.225c-.062-.44-.117-.897-.028-1.333.054-.263.184-.556.332-.737.245-.301.496-.548.787-.772.245-.189.732-.453.924-.555" class="UnoptimicedTransforms"/><circle cx="6.346" cy="2.394" r="1.245" fill="#fff"/><circle cx="6.536" cy="12.559" r=".116" fill="#ffc402" style="-inkscape-stroke:none;font-variation-settings:normal"/><g fill="url(#b)" transform="translate(-120.36 -185.13)scale(1.5868)"><circle cx="79.22" cy="121.78" r=".184"/><circle cx="79.929" cy="121.81" r=".309" style="-inkscape-stroke:none;font-variation-settings:normal"/><circle cx="79.266" cy="122.34" r=".424" fill="url(#d)" style="-inkscape-stroke:none;font-variation-settings:normal"/><circle cx="78.911" cy="122.56" r=".16" style="-inkscape-stroke:none;font-variation-settings:normal"/><circle cx="79.634" cy="122.88" r=".26" style="-inkscape-stroke:none;font-variation-settings:normal"/><circle cx="80.266" cy="123.66" r=".31" style="-inkscape-stroke:none;font-variation-settings:normal"/><circle cx="79.915" cy="124.28" r=".145" style="-inkscape-stroke:none;font-variation-settings:normal"/><circle cx="80.206" cy="124.01" r=".081" style="-inkscape-stroke:none;font-variation-settings:normal"/><circle cx="79.695" cy="123.76" r=".181" style="-inkscape-stroke:none;font-variation-settings:normal"/><ellipse cx="79.605" cy="123.37" rx=".224" ry=".221" style="-inkscape-stroke:none;font-variation-settings:normal"/><ellipse cx="79.846" cy="123.11" rx=".224" ry=".221" style="-inkscape-stroke:none;font-variation-settings:normal"/><ellipse cx="79.248" cy="123.4" rx=".2" ry=".201" style="-inkscape-stroke:none;font-variation-settings:normal"/><circle cx="80.334" cy="122.73" r=".199" style="-inkscape-stroke:none;font-variation-settings:normal"/><circle cx="80.748" cy="122.35" r=".231" style="-inkscape-stroke:none;font-variation-settings:normal"/><circle cx="80.588" cy="122.98" r=".257" style="-inkscape-stroke:none;font-variation-settings:normal"/><circle cx="80.423" cy="122.06" r=".349"/></g></g></svg>