<svg xmlns="http://www.w3.org/2000/svg" fill="none" viewBox="0 0 62 62"><defs><radialGradient id="a" cx="0" cy="0" r="1" gradientTransform="matrix(22.354 -20.581 27.171 29.512 34.648 38.538)" gradientUnits="userSpaceOnUse"><stop offset=".771" stop-color="#001AFF"/><stop offset="1" stop-color="#8ACEFF"/></radialGradient><radialGradient id="b" cx="0" cy="0" r="1" gradientTransform="matrix(14.449 -8.5258 11.256 19.076 42.685 26.85)" gradientUnits="userSpaceOnUse"><stop offset=".719" stop-color="#FA00FF" stop-opacity="0"/><stop offset="1" stop-color="#FF00D6" stop-opacity=".44"/></radialGradient><radialGradient id="c" cx="0" cy="0" r="1" gradientTransform="scale(47.885)rotate(49.385 -.365 .742)" gradientUnits="userSpaceOnUse"><stop offset=".026" stop-color="#8DFDFD"/><stop offset=".271" stop-color="#87FBFB"/><stop offset=".484" stop-color="#74D6F4"/><stop offset=".932" stop-color="#0038FF"/></radialGradient><radialGradient id="d" cx="0" cy="0" r="1" gradientTransform="rotate(137.236 8.217 20.412)scale(32.832)" gradientUnits="userSpaceOnUse"><stop offset=".267" stop-color="#0500FF" stop-opacity="0"/><stop offset="1" stop-color="#0500FF" stop-opacity=".15"/></radialGradient><radialGradient id="e" cx="0" cy="0" r="1" gradientTransform="scale(51.148)rotate(75.198 -.079 .548)" gradientUnits="userSpaceOnUse"><stop offset=".42" stop-color="#FF00E5" stop-opacity="0"/><stop offset=".774" stop-color="#FF00F5" stop-opacity=".64"/><stop offset=".899" stop-color="#BE46FF" stop-opacity=".87"/></radialGradient><radialGradient id="g" cx="0" cy="0" r="1" gradientTransform="matrix(2.7348 22.758 -34.399 4.1336 25.458 31.276)" gradientUnits="userSpaceOnUse"><stop offset="0" stop-color="#00B2FF"/><stop offset=".571" stop-color="#74C5FF"/><stop offset=".979" stop-color="#9FD7FF"/></radialGradient><linearGradient id="f" x1="11.644" x2="82.363" y1="42.432" y2="43.401" gradientTransform="translate(-4 -4)" gradientUnits="userSpaceOnUse"><stop offset=".432" stop-color="#FE62EE" stop-opacity="0"/><stop offset=".818" stop-color="#FD3AF5" stop-opacity=".47"/></linearGradient><linearGradient id="h" x1="33.054" x2="37.35" y1="23.191" y2="49.344" gradientTransform="translate(-4 -4)" gradientUnits="userSpaceOnUse"><stop offset=".042" stop-color="#0038FF"/><stop offset=".724" stop-color="#48BFF1" stop-opacity=".59"/><stop offset="1" stop-color="#74C5FF" stop-opacity="0"/></linearGradient></defs><path fill="url(#a)" d="M61.153 26.85c0 9.496-10.163 17.194-22.7 17.194S15.754 36.346 15.754 26.85s10.163-17.194 22.7-17.194 22.699 7.698 22.699 17.194"/><path fill="url(#b)" d="M61.153 26.85c0 9.496-10.163 17.194-22.7 17.194S15.754 36.346 15.754 26.85s10.163-17.194 22.7-17.194 22.699 7.698 22.699 17.194"/><path fill="url(#c)" d="M62 31c0 17.12-13.88 31-31 31S0 48.12 0 31 13.88 0 31 0c8.046 3.642 16.464 17.194 19.99 21.429 3.524 4.235 12.648 9.571 8.176-1.623C61.073 22.832 62 27.852 62 31"/><path fill="url(#d)" d="M62 31c0 17.12-13.88 31-31 31S0 48.12 0 31 13.88 0 31 0c8.046 3.642 16.464 17.194 19.99 21.429 3.524 4.235 12.648 9.571 8.176-1.623C61.073 22.832 62 27.852 62 31"/><path fill="url(#e)" d="M62 31c0 17.12-13.88 31-31 31S0 48.12 0 31 13.88 0 31 0c8.046 3.642 16.464 17.194 19.99 21.429 3.524 4.235 12.648 9.571 8.176-1.623C61.073 22.832 62 27.852 62 31"/><path fill="url(#f)" d="M62 31c0 17.12-13.88 31-31 31S0 48.12 0 31 13.88 0 31 0c8.046 3.642 16.464 17.194 19.99 21.429 3.524 4.235 12.648 9.571 8.176-1.623C61.073 22.832 62 27.852 62 31"/><path fill="url(#g)" d="M52.651 35.682c1.658 7.764-6.511 16.089-18.246 18.594s-22.59-1.757-24.248-9.52c-1.658-7.764 6.511-16.089 18.246-18.594s22.59 1.757 24.248 9.52"/><path fill="url(#h)" d="M52.651 35.682c1.658 7.764-6.511 16.089-18.246 18.594s-22.59-1.757-24.248-9.52c-1.658-7.764 6.511-16.089 18.246-18.594s22.59 1.757 24.248 9.52"/><path fill="#d6f8f8" fill-opacity=".19" fill-rule="evenodd" d="M47.462 45.883c3.074-3.133 4.386-6.66 3.698-9.882-.688-3.223-3.326-5.907-7.411-7.51-4.073-1.6-9.412-2.037-15.028-.838s-10.31 3.779-13.375 6.901c-3.074 3.133-4.386 6.66-3.698 9.883s3.326 5.906 7.412 7.51c4.072 1.6 9.41 2.037 15.027.838 5.616-1.2 10.31-3.779 13.375-6.902m-13.057 8.393c11.735-2.505 19.904-10.83 18.246-18.594-1.658-7.763-12.514-12.026-24.248-9.52-11.735 2.505-19.904 10.83-18.246 18.593 1.658 7.764 12.514 12.026 24.248 9.521" clip-rule="evenodd"/></svg>