<svg xmlns="http://www.w3.org/2000/svg" xmlns:xlink="http://www.w3.org/1999/xlink" version="1.1" viewBox="0 0 838.8 1038.7"><g transform="translate(-1.6,-1.98)"><defs><path d="m840.4 481.28-279.6 279.7 279.6 279.7h-319.5l-279.7-279.7 279.7-279.7zm-319.5-479.3-519.3 519.3 159.8 159.8 679-679.1z" id="a"/></defs><clipPath id="b"><use overflow="visible" xlink:href="#a"/></clipPath><g clip-path="url(#b)"><path d="m520.9 481.28-279.6 279.7 159.7 159.8 439.4-439.5z" fill="#39cefd"/></g><defs><path d="m840.4 481.28-279.6 279.7 279.6 279.7h-319.5l-279.7-279.7 279.7-279.7zm-319.5-479.3-519.3 519.3 159.8 159.8 679-679.1z" id="c"/></defs><clipPath id="d"><use overflow="visible" xlink:href="#c"/></clipPath><path clip-path="url(#d)" d="m1.6 521.28 519.3-519.3h319.5l-679 679.1z" fill="#39cefd"/><defs><path d="m840.4 481.28-279.6 279.7 279.6 279.7h-319.5l-279.7-279.7 279.7-279.7zm-319.5-479.3-519.3 519.3 159.8 159.8 679-679.1z" id="e"/></defs><clipPath id="f"><use overflow="visible" xlink:href="#e"/></clipPath><path clip-path="url(#f)" d="m401 920.78 119.9 119.8h319.5l-279.6-279.6z" fill="#03569b"/><defs><path d="m840.4 481.28-279.6 279.7 279.6 279.7h-319.5l-279.7-279.7 279.7-279.7zm-319.5-479.3-519.3 519.3 159.8 159.8 679-679.1z" id="g"/></defs><clipPath id="h"><use overflow="visible" xlink:href="#g"/></clipPath><linearGradient gradientTransform="matrix(.25 0 0 .25 -3370.5 -1480.8)" gradientUnits="userSpaceOnUse" id="i" x1="15272" x2="15749" y1="9729.6" y2="9253.5"><stop offset="0" stop-color="#1A237E" stop-opacity=".4"/><stop offset="1" stop-color="#1A237E" stop-opacity="0"/></linearGradient><path clip-path="url(#h)" d="m560.8 760.98-159.8 159.8 237-82.1z" fill="url(#i)"/><defs><path d="m840.4 481.28-279.6 279.7 279.6 279.7h-319.5l-279.7-279.7 279.7-279.7zm-319.5-479.3-519.3 519.3 159.8 159.8 679-679.1z" id="j"/></defs><clipPath id="k"><use overflow="visible" xlink:href="#j"/></clipPath><g clip-path="url(#k)"><path d="m241.28 760.92 159.8-159.8 159.81 159.8-159.81 159.8z" fill="#16b9fd"/></g><radialGradient cx="13583" cy="6214.3" gradientTransform="matrix(.25 0 0 .25 -3370.5 -1480.8)" gradientUnits="userSpaceOnUse" id="l" r="5082.9"><stop offset="0" stop-color="#fff" stop-opacity=".1"/><stop offset="1" stop-color="#fff" stop-opacity="0"/></radialGradient><path d="m840.4 481.28-279.6 279.7 279.6 279.7h-319.5l-279.7-279.7 279.7-279.7zm-319.5-479.3-519.3 519.3 159.8 159.8 679-679.1z" fill="url(#l)"/></g></svg>