<svg xmlns="http://www.w3.org/2000/svg" viewBox="0 0 381.73 346.96"><g stroke-width=".1"><path fill="#2653a1" d="M204.11 0v62.32h-26.489v201.04c-14.546 13.36-33.703 21.4-54.753 21.4H79.467v-54.52h43.401c14.783 0 26.844-11.94 26.844-26.72V187.2H.002V0z"/><path fill="#fff" d="M101.05 101.27C87.641 87.1 77.616 72.26 71.568 62.29h58.936c-6.036 9.96-16.045 24.81-29.454 38.98m65.763-38.98V45.57H107.95V28.04H91.903v17.53H33.041v16.72h20.128c5.066 9.31 17.482 30.22 36.379 50.11-13.439 11.86-29.412 22.02-47.535 26.6l3.902 15.41c21.394-5.42 39.857-17.27 55.112-30.88 15.257 13.61 33.72 25.46 55.114 30.88l3.902-15.41c-18.099-4.58-34.07-14.75-47.516-26.62 18.886-19.88 31.295-40.79 36.359-50.09z"/><path fill="#5fb8ea" d="M204.11 62.32v141.2c0 23.65-10.288 45.05-26.489 59.84V62.32z"/><path fill="#2653a1" d="M232.02 249.52v16.2c0 14.78 12.062 26.84 26.844 26.84h43.4v54.4h-43.4c-44.82 0-81.243-36.42-81.243-81.24v-2.36c16.201-14.79 26.489-36.19 26.489-59.84V62.32h177.62v187.2z"/><path fill="#fff" d="m305.77 166.03-13.46-39.56c-3.06-8.98-5.099-17.13-7.139-25.09h-.407c-2.04 8.16-4.283 16.52-6.935 24.88l-13.461 39.77zm-45.073 13.87-14.275 43.24h-18.356L274.77 85.68h21.415l46.907 137.46h-18.967L309.44 179.9z"/></g></svg>