<svg xmlns="http://www.w3.org/2000/svg" viewBox="0 0 110.06 112.34"><path fill="#4e39f9" fill-rule="evenodd" d="M100.83 0c3.396 0 6.539 1.829 8.131 4.802a9.13 9.13 0 0 1-.169 8.99l-.055.093-14.288 23.791c-1.616 2.69-4.533 4.37-7.65 4.405H70.38l6.781 15.454.027.045.042.073a9.13 9.13 0 0 1-.098 9.12l-.056.094-14.288 23.79c-1.616 2.69-4.533 4.37-7.65 4.406H35.01l-14.396 15.114-.027.028a7.16 7.16 0 0 1-6.52 1.992 7.2 7.2 0 0 1-5.193-4.256l-.027-.063-7.576-17.31-.04-.067-.041-.071-.021-.038a9.13 9.13 0 0 1 .097-9.12l.056-.094 13.858-23.075-10.21-23.269.186-.095-.002-.014a9.12 9.12 0 0 1 1.025-6.327l.061-.107.057-.095L20.586 4.405c1.616-2.69 4.533-4.37 7.65-4.406h.102zM25.806 94.882H10.625l4.459 10.267.01.027a.48.48 0 0 0 .372.321.43.43 0 0 0 .409-.111l.021-.02zm43.398-35.296H23.315q-.075 0-.152.005l-.014.001L35.731 88.24h19.303c.794 0 1.558-.423 1.993-1.102l.034-.055 14.31-23.805c.426-.71.473-1.534.135-2.276-.39-.855-1.295-1.416-2.302-1.416zm-50.659 5.883L7.189 84.52a2.46 2.46 0 0 0-.073 2.428l.043.08.022.038.046.075.091.134.101.131.097.11.017.019.066.066.057.054c.357.322.799.52 1.286.57l.11.01.063.003h19.348zm-2.986-23.341 4.987 11.386.098-.033a8.9 8.9 0 0 1 2.672-.457h.136l44.481-.001-4.772-10.895zm85.144-35.486H54.65l12.586 28.654h19.296c.795 0 1.56-.423 1.995-1.103l.034-.056 14.31-23.805c.427-.71.474-1.533.136-2.274-.382-.837-1.258-1.393-2.24-1.416zm-53.103 0H28.41c-.788 0-1.55.422-1.982 1.1l-.035.056-14.272 23.805a2.41 2.41 0 0 0-.135 2.278c.38.836 1.252 1.39 2.228 1.414h45.939z"/></svg>