<svg xmlns="http://www.w3.org/2000/svg" viewBox="0 0 152.87 150.213"><path fill="#ad2829" d="M151.124 2.513c8.1 8.1-14.4 43.7-18.2 47.5s-13.4.3-21.5-7.8-11.6-17.7-7.8-21.5c3.8-3.9 39.4-26.3 47.5-18.2m-113.6 8.6c-12.4-7-30-14.8-35.6-9.2-5.7 5.7 2.4 23.7 9.5 36.1 6.3-11.1 15.3-20.3 26.1-26.9m101.2 36.1c1.1 3.9.9 7.1-.9 8.9-4.3 4.3-16-.3-26.5-10.3-.7-.7-1.5-1.3-2.2-2.1-3.8-3.8-6.8-7.8-8.6-11.6-3.7-6.6-4.6-12.4-1.8-15.2 1.5-1.5 3.9-1.9 6.9-1.4a149 149 0 0 1 6.7-4 73.24 73.24 0 0 0-33.9-8.3c-40.6 0-73.5 32.9-73.5 73.5s32.9 73.5 73.5 73.5 73.5-32.9 73.5-73.5c0-13.1-3.4-25.4-9.5-36.1-1.2 2.5-2.5 4.7-3.7 6.6"/></svg>