<svg xmlns="http://www.w3.org/2000/svg" viewBox="0 0 183.67 123.9"><defs><path id="a" d="M203.57.17c-.12.12-.24.29-.24.45 0 .29.34.69.97 1.33 2.63 2.53 3.95 5.62 3.94 9.35-.01 4.13-1.4 7.45-4.1 10.01-.57.51-.8.91-.8 1.25 0 .17.12.34.23.51.11.12.34.23.51.23.62 0 1.5-.73 2.64-2.17 2.22-2.72 3.22-5.73 3.28-9.82.05-4.1-1.23-6.88-3.75-9.75-.9-1.03-1.66-1.56-2.17-1.56-.17 0-.35.06-.51.17"/><path id="b" d="M195.66 12.04c-.99-.25 3.06-5.03-4.13-10.75 0 0 .94 3-3.81 9.69-4.76 6.68 2.11 10.66 2.11 10.66s-3.22-1.72.53-7.84c.67-1.11 1.55-2.11 2.64-4.38 0 0 .96 1.37.46 4.32-.75 4.47 3.27 3.19 3.33 3.25 1.41 1.65-1.16 4.56-1.32 4.65s7.34-4.5 2.01-11.42c-.36.36-.83 2.08-1.82 1.82"/><path id="d" d="M181.88.18c.12.11.23.28.23.45 0 .29-.34.68-.97 1.32-2.62 2.53-3.94 5.62-3.93 9.36.01 4.12 1.4 7.44 4.1 10.01.56.5.8.9.8 1.24 0 .17-.12.35-.23.51-.11.12-.34.24-.51.24-.63 0-1.5-.74-2.64-2.18-2.22-2.72-3.22-5.72-3.28-9.82-.05-4.1 1.23-6.88 3.75-9.75.9-1.02 1.66-1.56 2.17-1.56q.255 0 .51.18"/></defs><g transform="translate(-932.61 -.003)scale(5.3156)"><use width="100%" height="100%" href="#a"/><use width="100%" height="100%" href="#b"/><use width="100%" height="100%" href="#d"/></g></svg>