<svg xmlns="http://www.w3.org/2000/svg" viewBox="0 0 47.302 50.588"><path fill="#2f2f31" d="M32.443 29.03c6.16.48 12.27-2.21 13-9a.6.6 0 0 0-.31-.6.58.58 0 0 0-.8.33c-3.15 6.91-11.26 4.47-14.52 3.77a62.6 62.6 0 0 0-13.27-1.71c-6.16.15-10.19 1.84-13.86 6.41s-4.25 14.1 2.59 19.28a15.64 15.64 0 0 0 20-1.14 19.93 19.93 0 0 0 5.38-16.63c-2.54-.37-5-.87-7.43-1.32-8.79-1.67-14.07 0-16.58 5.18a8.72 8.72 0 0 0 0 7.82 9.34 9.34 0 0 0 6.89 4.9 11.86 11.86 0 0 0 10.07-2.5c3.24-2.78 4.93-7.41 4.78-13l.95.16c.14 5.81-1.7 10.62-5.11 13.57a12.75 12.75 0 0 1-10.87 2.71 10.28 10.28 0 0 1-7.51-5.34 9.69 9.69 0 0 1 0-8.67 10.35 10.35 0 0 1 6.43-5.6c2.9-.92 6.56-1 11.19-.09 3.3.6 7.26 1.36 8.98 1.47m-13.89 8.29c-1.79 3.41-6.36 4-8.52 1.68s-.95-5.62 1-7.28a10.64 10.64 0 0 1 8.8-2.06c-.09 3.26-.33 5.86-1.28 7.66m.53-16.32a67 67 0 0 1 10.87 1.63c-1.51-6.46 0-11.86 4.75-13.65 4.737-1.932 10.029 1.105 10.75 6.17.09.49.33.64.65.68a.71.71 0 0 0 .78-.53 12.07 12.07 0 0 0-3.87-12.38A13.42 13.42 0 0 0 31.833.3c-9.41 1.96-13.24 10.77-12.75 20.7m27.37-6.6c.84-3.78-3.36-13.4-12.62-12.42a13.32 13.32 0 0 0-9.47 5.44c-2.18 3.16-3 7.34-3 12.47l-.94-.08c0-3.27.17-8.56 3-12.68a14.1 14.1 0 0 1 9.78-6c10.72-1.42 14.55 9.47 13.25 13.27"/></svg>