<svg width="1185.2" height="382.18" clip-rule="evenodd" fill-rule="evenodd" stroke-miterlimit="27" version="1.1" viewBox="0 0 987.7 318.48" xmlns="http://www.w3.org/2000/svg"><g transform="translate(-29.491 -35.087)" fill="#1f79c2" stroke="#a2d8ec" stroke-width="2px"><path d="m871.66 36.087c-11.479 0.041-23.071 2.173-32.803 8.296-10.889 6.907-16.776 19.115-15.744 31.59 1.095 13.84 8.871 24.828 18.768 31.881 3.706 2.648 7.728 4.72 11.837 6.551-9.388 1.159-18.755 2.321-28.102 3.486 1.202 3.66 2.401 7.325 3.599 10.997 2e-3 6e-3 4e-3 0.01 6e-3 0.015 3.493 10.634 9.258 21.097 18.168 29.24 14.561 13.418 34.35 16.713 52.542 15.453 16.231-1.125 35.174-6.425 44.104-21.608 7.006-11.697 7.298-24.363 2.913-35.142-4.392-10.787-13.12-19.687-23.51-25.179-1.301-0.688-2.623-1.203-3.935-1.794 6.501-0.431 13.013-0.857 19.539-1.281-0.78-3.575-1.56-7.151-2.341-10.728-2e-3 -5e-3 -4e-3 -0.013-6e-3 -0.018-5.097-22.62-26.571-37.621-49.534-40.683-5.063-0.678-10.276-1.09-15.501-1.076zm-834.26 7.912c0.976 3.378 1.93 6.699 2.86 9.966 13.755 52.904 23.471 100.62 32.7 155.88 18.784-1.201 37.361-2.369 55.734-3.503-4.152-21.893-8.019-41.713-11.802-60.109 20.105-0.469 40.003-0.944 59.701-1.422-3.373-13.773-6.909-27.393-10.711-41.169-19.485 0.074-39.146 0.113-58.988 0.117-0.712-2.71-1.437-5.439-2.178-8.191 22.92 0.104 45.604 0.152 68.06 0.146-4.451-14.568-9.432-30.078-15.048-46.84-39.481-1.271-79.577-2.887-120.33-4.87zm130.38 5.145c1.044 3.039 2.066 6.033 3.066 8.982 8.449 25.867 15.502 49.341 21.634 71.808 1e-3 2e-3 2e-3 5e-3 2e-3 7e-3 1.855 7.18 3.887 14.552 6.582 22.025 6.345 18.232 19.881 34.3 38.304 42.511 19.458 8.953 45.43 10.371 66.504 0.331 16.242-7.378 23.075-20.579 24.056-33.677 1.05-12.459-2.741-24.914-5.705-35.375l-5e-3 -0.022c-6.413-21.149-13.676-43.103-22.102-66.961-0.937-2.57-1.892-5.172-2.864-7.807-16.221-0.063-32.526-0.172-48.919-0.329 10.225 29.038 20.924 63.762 26.08 79.71 1.713 5.297 3.457 10.927 4.859 15.979 3.353 12.075-22.914 14.417-31.028-2.692-7.645-16.119-16.778-54.156-27.283-85.247-0.948-2.686-1.915-5.408-2.9-8.168-16.659-0.303-33.418-0.661-50.279-1.076zm137.92 1.838c0.13 0.352 2.168 5.886 3.035 8.261 4.399 12.266 8.447 23.925 12.198 35.114 12.876-0.22 25.694-0.453 38.455-0.701 9.819 31.302 18.875 63.148 28.425 98.779 15.783-0.73 32.37-1.036 47.928-1.734-9.47-35.055-18.484-66.618-28.206-97.676 12.489-0.306 24.014-1.029 36.413-1.356-4.389-13.247-9.152-27.086-14.366-41.715-40.851 0.579-123.88 1.028-123.88 1.028zm132.41-1.175c0.949 2.64 1.883 5.25 2.801 7.832 7.96 23.103 14.948 44.703 21.306 65.682 0 2e-3 1e-3 5e-3 1e-3 7e-3 1.966 6.707 4.104 13.565 6.832 20.482 1e-3 2e-3 1e-3 2e-3 1e-3 4e-3 6.416 16.684 18.994 31.164 35.507 38.589 0 2e-3 0 4e-3 1e-3 4e-3 17.387 8.058 40.408 9.59 59.148 0.925 14.6-6.508 20.798-18.586 21.698-30.876 0.963-11.917-2.51-23.994-5.214-34.213l-5e-3 -0.022c-5.756-20.679-12.046-41.834-19.026-64.142-0.758-2.354-1.526-4.728-2.304-7.121-15.292 0.425-30.614 0.835-45.969 1.23 8.783 26.499 16.422 51.135 23.346 75.039-2e-3 -4e-3 -4e-3 -8e-3 -6e-3 -0.011 1.563 5.637 3.145 10.738 4.394 16.024 3.145 13.317-23.511 9.105-28.332-3.533-9.342-24.495-15.665-51.164-25.115-79.586-0.827-2.397-1.666-4.816-2.518-7.259-15.468 0.339-30.982 0.654-46.546 0.944zm258.2-7.014c0.47 1.741 20.031 80.503 28.267 117.27-6.012-6.918-12.031-13.75-18.062-20.504-4e-3 -5e-3 -9e-3 -9e-3 -0.013-0.014-5.595-6.22-11.595-12.74-18.655-18.417 0.574-0.384 1.192-0.67 1.746-1.093 9.386-7.152 12.705-18.24 11.462-29.123-1.321-10.989-6.977-22.097-15.674-30.524-15.239-14.889-35.558-16.005-52.874-15.587h-0.019c-9.663 0.258-19.326 0.548-28.987 0.85h-3e-3c-3.45 0.108-6.901 0.216-10.353 0.323-6.213 0.192-12.43 0.388-18.647 0.569-2.356 0.069-4.712 0.136-7.069 0.204 14.166 46.283 26.056 89.824 37.828 136.5 14.641-0.575 29.244-1.145 43.813-1.712-4.032-16.895-7.935-33.041-11.787-48.658 3.247 0.491 6.057 1.259 7.583 2.477 13.803 11.166 26.009 26.572 39.784 41.822 0.849 0.958 1.698 1.919 2.547 2.883 17.539-0.678 35.068-1.357 52.596-2.037-0.01-0.01-0.018-0.022-0.028-0.033 32.674-1.275 65.442-2.567 98.369-3.886-2.575-13.389-5.125-26.565-7.662-39.577-22.324 0.712-44.577 1.427-66.777 2.143-0.805-3.772-1.609-7.531-2.416-11.279 20.011-0.647 40.061-1.29 60.163-1.928-2.578-12.838-5.19-25.656-7.855-38.509-20.322 0.663-40.6 1.342-60.842 2.033-0.424-1.849-0.851-3.7-1.28-5.555 21.796-0.744 43.632-1.472 65.521-2.18-2.75-13.02-5.591-26.206-8.54-39.613-37.47 0.972-74.832 2.032-112.14 3.151zm178.28 32.137c3.817-0.315 8.248 0.305 11.266 1.445 1.928 0.729 3.407 2.786 4.812 5.463-8.128-1.443-15.745-2.706-21.92-5.331 1.485-0.719 3.369-1.372 5.842-1.577zm-240.82 10.571s10.225-0.31 15.183-0.154c0.37 0.012 5.526 0.488 6.618 4.013 0.417 1.346 1.006 4.35-3.018 4.754-8.049 0.807-15.637 0.921-25.066 1.059-0.84-3.084-1.69-6.179-2.551-9.288 2.952-0.136 8.834-0.384 8.834-0.384zm237.73 34.677c1.061 0.251 2.134 0.694 3.186 0.917 6e-3 1e-3 0.01 2e-3 0.015 3e-3 4e-3 1e-3 8e-3 2e-3 0.012 4e-3 10.469 2.178 20.415 3.081 27.088 6.242 1.181 0.559 1.1 0.73 1.131 0.798 0.032 0.068 0.154 0.419-0.049 1.179-0.405 1.52-2.536 3.733-4.151 4.172-7.768 2.115-13.262 1.025-17.488-1.334-4.225-2.358-7.483-6.348-9.436-11.19-1e-3 -2e-3 -4e-3 -3e-3 -4e-3 -7e-3 -0.099-0.252-0.204-0.526-0.304-0.784z" fill-rule="nonzero"/><path d="m871.66 36.087c-11.479 0.041-23.071 2.173-32.803 8.296-10.889 6.907-16.776 19.115-15.744 31.59 1.095 13.84 8.871 24.828 18.768 31.881 3.706 2.648 7.728 4.72 11.837 6.551-9.388 1.159-18.755 2.321-28.102 3.486 1.202 3.66 2.401 7.325 3.599 10.997 2e-3 6e-3 4e-3 0.01 6e-3 0.015 3.493 10.634 9.258 21.097 18.168 29.24 14.561 13.418 34.35 16.713 52.542 15.453 16.231-1.125 35.174-6.425 44.104-21.608 7.006-11.697 7.298-24.363 2.913-35.142-4.392-10.787-13.12-19.687-23.51-25.179-1.301-0.688-2.623-1.203-3.935-1.794 6.501-0.431 13.013-0.857 19.539-1.281-0.78-3.575-1.56-7.151-2.341-10.728-2e-3 -5e-3 -4e-3 -0.013-6e-3 -0.018-5.097-22.62-26.571-37.621-49.534-40.683-5.063-0.678-10.276-1.09-15.501-1.076zm-834.26 7.912c0.976 3.378 1.93 6.699 2.86 9.966 13.755 52.904 23.471 100.62 32.7 155.88 18.784-1.201 37.361-2.369 55.734-3.503-4.152-21.893-8.019-41.713-11.802-60.109 20.105-0.469 40.003-0.944 59.701-1.422-3.373-13.773-6.909-27.393-10.711-41.169-19.485 0.074-39.146 0.113-58.988 0.117-0.712-2.71-1.437-5.439-2.178-8.191 22.92 0.104 45.604 0.152 68.06 0.146-4.451-14.568-9.432-30.078-15.048-46.84-39.481-1.271-79.577-2.887-120.33-4.87zm130.38 5.145c1.044 3.039 2.066 6.033 3.066 8.982 8.449 25.867 15.502 49.341 21.634 71.808 1e-3 2e-3 2e-3 5e-3 2e-3 7e-3 1.855 7.18 3.887 14.552 6.582 22.025 6.345 18.232 19.881 34.3 38.304 42.511 19.458 8.953 45.43 10.371 66.504 0.331 16.242-7.378 23.075-20.579 24.056-33.677 1.05-12.459-2.741-24.914-5.705-35.375l-5e-3 -0.022c-6.413-21.149-13.676-43.103-22.102-66.961-0.937-2.57-1.892-5.172-2.864-7.807-16.221-0.063-32.526-0.172-48.919-0.329 10.225 29.038 20.924 63.762 26.08 79.71 1.713 5.297 3.457 10.927 4.859 15.979 3.353 12.075-22.914 14.417-31.028-2.692-7.645-16.119-16.778-54.156-27.283-85.247-0.948-2.686-1.915-5.408-2.9-8.168-16.659-0.303-33.418-0.661-50.279-1.076zm137.92 1.838c0.13 0.352 2.168 5.886 3.035 8.261 4.399 12.266 8.447 23.925 12.198 35.114 12.876-0.22 25.694-0.453 38.455-0.701 9.819 31.302 18.875 63.148 28.425 98.779 15.783-0.73 32.37-1.036 47.928-1.734-9.47-35.055-18.484-66.618-28.206-97.676 12.489-0.306 24.014-1.029 36.413-1.356-4.389-13.247-9.152-27.086-14.366-41.715-40.851 0.579-123.88 1.028-123.88 1.028zm132.41-1.175c0.949 2.64 1.883 5.25 2.801 7.832 7.96 23.103 14.948 44.703 21.306 65.682 0 2e-3 1e-3 5e-3 1e-3 7e-3 1.966 6.707 4.104 13.565 6.832 20.482 1e-3 2e-3 1e-3 2e-3 1e-3 4e-3 6.416 16.684 18.994 31.164 35.507 38.589 0 2e-3 0 4e-3 1e-3 4e-3 17.387 8.058 40.408 9.59 59.148 0.925 14.6-6.508 20.798-18.586 21.698-30.876 0.963-11.917-2.51-23.994-5.214-34.213l-5e-3 -0.022c-5.756-20.679-12.046-41.834-19.026-64.142-0.758-2.354-1.526-4.728-2.304-7.121-15.292 0.425-30.614 0.835-45.969 1.23 8.783 26.499 16.422 51.135 23.346 75.039-2e-3 -4e-3 -4e-3 -8e-3 -6e-3 -0.011 1.563 5.637 3.145 10.738 4.394 16.024 3.145 13.317-23.511 9.105-28.332-3.533-9.342-24.495-15.665-51.164-25.115-79.586-0.827-2.397-1.666-4.816-2.518-7.259-15.468 0.339-30.982 0.654-46.546 0.944zm258.2-7.014c0.47 1.741 20.031 80.503 28.267 117.27-6.012-6.918-12.031-13.75-18.062-20.504-4e-3 -5e-3 -9e-3 -9e-3 -0.013-0.014-5.595-6.22-11.595-12.74-18.655-18.417 0.574-0.384 1.192-0.67 1.746-1.093 9.386-7.152 12.705-18.24 11.462-29.123-1.321-10.989-6.977-22.097-15.674-30.524-15.239-14.889-35.558-16.005-52.874-15.587h-0.019c-9.663 0.258-19.326 0.548-28.987 0.85h-3e-3c-3.45 0.108-6.901 0.216-10.353 0.323-6.213 0.192-12.43 0.388-18.647 0.569-2.356 0.069-4.712 0.136-7.069 0.204 14.166 46.283 26.056 89.824 37.828 136.5 14.641-0.575 29.244-1.145 43.813-1.712-4.032-16.895-7.935-33.041-11.787-48.658 3.247 0.491 6.057 1.259 7.583 2.477 13.803 11.166 26.009 26.572 39.784 41.822 0.849 0.958 1.698 1.919 2.547 2.883 17.539-0.678 35.068-1.357 52.596-2.037-0.01-0.01-0.018-0.022-0.028-0.033 32.674-1.275 65.442-2.567 98.369-3.886-2.575-13.389-5.125-26.565-7.662-39.577-22.324 0.712-44.577 1.427-66.777 2.143-0.805-3.772-1.609-7.531-2.416-11.279 20.011-0.647 40.061-1.29 60.163-1.928-2.578-12.838-5.19-25.656-7.855-38.509-20.322 0.663-40.6 1.342-60.842 2.033-0.424-1.849-0.851-3.7-1.28-5.555 21.796-0.744 43.632-1.472 65.521-2.18-2.75-13.02-5.591-26.206-8.54-39.613-37.47 0.972-74.832 2.032-112.14 3.151zm178.28 32.137c3.817-0.315 8.248 0.305 11.266 1.445 1.928 0.729 3.407 2.786 4.812 5.463-8.128-1.443-15.745-2.706-21.92-5.331 1.485-0.719 3.369-1.372 5.842-1.577zm-240.82 10.571s10.225-0.31 15.183-0.154c0.37 0.012 5.526 0.488 6.618 4.013 0.417 1.346 1.006 4.35-3.018 4.754-8.049 0.807-15.637 0.921-25.066 1.059-0.84-3.084-1.69-6.179-2.551-9.288 2.952-0.136 8.834-0.384 8.834-0.384zm237.73 34.677c1.061 0.251 2.134 0.694 3.186 0.917 6e-3 1e-3 0.01 2e-3 0.015 3e-3 4e-3 1e-3 8e-3 2e-3 0.012 4e-3 10.469 2.178 20.415 3.081 27.088 6.242 1.181 0.559 1.1 0.73 1.131 0.798 0.032 0.068 0.154 0.419-0.049 1.179-0.405 1.52-2.536 3.733-4.151 4.172-7.768 2.115-13.262 1.025-17.488-1.334-4.225-2.358-7.483-6.348-9.436-11.19-1e-3 -2e-3 -4e-3 -3e-3 -4e-3 -7e-3 -0.099-0.252-0.204-0.526-0.304-0.784z" fill-rule="nonzero"/><g stroke-linejoin="round" stroke-miterlimit="1.4142"><path d="m243.22 230.74c15.214-0.595 32.648 2.833 37.03 16.782 1.918 6.104 0.813 12.755-1.548 18.812l-2.679 6.674-19.25 1.667c1.622 0.951 1.88 1.173 2.711 1.805 1.005 0.764 1.928 1.615 2.76 2.527 9.674 10.599 3.788 28.009-4.8 38.347-16.062 19.335-44.271 30.045-71.434 26.784-10.51-1.262-21.438-6.227-24.903-15.831-2.533-7.022-1.437-14.893 0.785-22.238l2.131-6.856 27.547-3.609c-1.617-0.958-1.957-1.228-2.846-1.898-4.887-3.689-8.068-8.984-8.389-14.844-1.027-18.709 18.218-35.477 37.296-42.815 8.094-3.113 16.816-4.895 25.589-5.307zm-168.46 119.68-44.351 2.152 50.264-113.69c12.976-0.634 25.951-1.285 38.928-1.914 20.282-0.975 43.933-3.876 52.998 9.972 6.332 9.673 2.477 22.239-4.039 32.28-6.058 9.333-15.185 17.083-26.056 22.125 0 0-1.023-0.066-0.48 0.995 2.241 4.503 3.535 9.341 4.777 14.157l7.854 30.048-48.627 2.36c-3.922-12.599-5.713-26.102-12.076-37.085-0.145-0.247-1.951-0.394-1.951-0.394zm127.45-47.689c-0.727 3.016-1.413 6.473 0.76 8.407 5.847 5.205 18.226-1.314 21.298-5.975 0 0-3.589-1.442-6.117-1.935-5.092-0.992-10.277-1.62-15.233-2.985 0 0-0.469 1.502-0.708 2.488zm-83.507-31.134c-3.102 0.159-6.203 0.346-9.304 0.527 0 0-2.079 4.654-2.079 4.654 5.672-0.176 11.335-0.582 16.869-1.635 2.083-0.427 4.266-3.834 4.266-3.834-2.43 2e-3 -4.86 0.076-7.288 0.175-0.822 0.035-1.643 0.073-2.464 0.113zm114.05-9.072c-3.382 0.195-6.75 1.027-9.618 2.633 0 0-0.96-0.188 0.524 0.402 4.215 1.628 8.822 2.339 13.369 3.163l1.198 0.219c0.577-2.312 0.653-5.723 0.653-5.723-1.873-0.724-4.032-0.801-6.126-0.694z"/><path d="m243.22 230.74c15.214-0.595 32.648 2.833 37.03 16.782 1.918 6.104 0.813 12.755-1.548 18.812l-2.679 6.674-19.25 1.667c1.622 0.951 1.88 1.173 2.711 1.805 1.005 0.764 1.928 1.615 2.76 2.527 9.674 10.599 3.788 28.009-4.8 38.347-16.062 19.335-44.271 30.045-71.434 26.784-10.51-1.262-21.438-6.227-24.903-15.831-2.533-7.022-1.437-14.893 0.785-22.238l2.131-6.856 27.547-3.609c-1.617-0.958-1.957-1.228-2.846-1.898-4.887-3.689-8.068-8.984-8.389-14.844-1.027-18.709 18.218-35.477 37.296-42.815 8.094-3.113 16.816-4.895 25.589-5.307zm-168.46 119.68-44.351 2.152 50.264-113.69c12.976-0.634 25.951-1.285 38.928-1.914 20.282-0.975 43.933-3.876 52.998 9.972 6.332 9.673 2.477 22.239-4.039 32.28-6.058 9.333-15.185 17.083-26.056 22.125 0 0-1.023-0.066-0.48 0.995 2.241 4.503 3.535 9.341 4.777 14.157l7.854 30.048-48.627 2.36c-3.922-12.599-5.713-26.102-12.076-37.085-0.145-0.247-1.951-0.394-1.951-0.394zm127.45-47.689c-0.727 3.016-1.413 6.473 0.76 8.407 5.847 5.205 18.226-1.314 21.298-5.975 0 0-3.589-1.442-6.117-1.935-5.092-0.992-10.277-1.62-15.233-2.985 0 0-0.469 1.502-0.708 2.488zm-83.507-31.134c-3.102 0.159-6.203 0.346-9.304 0.527 0 0-2.079 4.654-2.079 4.654 5.672-0.176 11.335-0.582 16.869-1.635 2.083-0.427 4.266-3.834 4.266-3.834-2.43 2e-3 -4.86 0.076-7.288 0.175-0.822 0.035-1.643 0.073-2.464 0.113zm114.05-9.072c-3.382 0.195-6.75 1.027-9.618 2.633 0 0-0.96-0.188 0.524 0.402 4.215 1.628 8.822 2.339 13.369 3.163l1.198 0.219c0.577-2.312 0.653-5.723 0.653-5.723-1.873-0.724-4.032-0.801-6.126-0.694z"/><path d="m1016.3 251.97-116.92 99.192 16.152-44.537-299.09 14.515 38.269-112.76 299.09-14.516 14.484-39.94c16.141 29.769 31.87 68.273 48.01 98.042zm-582.55 78.929-68.675 3.332 38.655-109.63 68.675-3.333zm149.27-7.245-117.6 5.708 38.655-109.63 117.6-5.707zm-244.97 11.889-50.739 2.462 38.655-109.63 50.739-2.462z" fill-rule="nonzero"/><path d="m1016.3 251.97-116.92 99.192 16.152-44.537-299.09 14.515 38.269-112.76 299.09-14.516 14.484-39.94c16.141 29.769 31.87 68.273 48.01 98.042zm-582.55 78.929-68.675 3.332 38.655-109.63 68.675-3.333zm149.27-7.245-117.6 5.708 38.655-109.63 117.6-5.707zm-244.97 11.889-50.739 2.462 38.655-109.63 50.739-2.462z" fill-rule="nonzero"/></g></g><path d="m929.64 165.98 10.525-29.022 37.211 78.125-91.025 77.496 10.525-29.022-299.09 14.515 32.764-97.577zm-381.33 115.39-101.38 4.92 32.913-94.436 101.38-4.92zm-244.97 11.888-34.519 1.676 32.913-94.436 34.518-1.676zm95.7-4.644-52.454 2.546 32.912-94.436 52.455-2.546z" fill="url(#f)"/><path d="m303.33 293.25-34.519 1.676 32.913-94.436 34.518-1.676zm-0.154-90.818-31.486 90.341 30.188-1.465 31.486-90.341zm674.19 12.647-91.025 77.496 10.525-29.022-299.09 14.515 32.764-97.577 299.09-14.515 10.525-29.022zm-578.34 73.527-52.454 2.546 32.912-94.436 52.455-2.546zm-18.09-89.948-31.486 90.341 48.124-2.335 31.486-90.342zm167.36 82.704-101.38 4.92 32.913-94.436 101.38-4.92zm382.76-113.44-299.06 14.514-31.39 93.486 299.17-14.519-8.966 24.723 84.068-71.572-34.481-72.394zm-449.78 25.87-31.486 90.342 97.053-4.71 31.486-90.342z" fill="url(#e)"/><path d="m166.39 267.77c-2.312 10.29 3.191 18.214 21.162 13.781 7.884-1.945 18.072-11.633 12.1-15.458-5.094-3.265-13.514-3.697-20.694-5.239-15.456-3.401-29.026-11.557-17.788-31.281 4.648-8.16 14.493-16.929 25.038-21.761 14.426-6.612 28.251-7.549 39.841-6.285 15.471 1.686 23.768 11.736 17.332 28l-1.335 3.327-27.302 2.363c1.253-4.938 1.895-9.909-2.078-11.768-5.514-2.582-16.261-1.871-23.329 2.672-3.765 2.42-3.429 6.448-0.766 7.935 10.111 5.646 27.974 4.312 37.348 11.492 9.817 7.518 8.859 25.084-11.95 42.49-12.484 10.443-29.277 14.868-42.472 15.82-15.056 1.086-28.495-1.426-33.128-10.436-2.863-5.569-2.414-13.06 0.035-21.064l1.042-3.352 27.514-3.605c-0.19 0.789-0.386 1.581-0.57 2.369zm-126.59 40.874-27.076 1.314 43.969-99.454c16.367-0.794 32.772-1.646 49.098-2.379 14.199-0.606 28.229 0.304 31.56 9.448 4.006 10.994-5.532 31.195-25.794 41.509-3.759 1.914-7.564 3.334-11.251 4.405 5.482 4.811 7.426 12.223 9.312 19.564l5.731 21.927-32.822 1.593c-3.564-11.352-5.449-23.847-11.269-33.525-2.046-3.406-7.846-4.029-14.072-3.727zm34.602-78.265-8.245 18.651c9.93-0.482 19.356-0.071 30.202-2.171 8.808-1.706 16.626-15.975 6.243-17.478-0.403-0.058-0.836-0.084-1.281-0.09-8.583-0.146-17.877 0.649-26.919 1.088z" fill="url(#d)"/><path d="m112.39 207.98 0.325 1e-3 0.325 2e-3 0.323 3e-3 0.323 4e-3 0.323 5e-3 0.642 0.014 0.319 8e-3 0.319 0.01 0.318 0.01 0.317 0.012 0.316 0.013 0.315 0.014 0.314 0.015 0.312 0.016 0.312 0.018 0.31 0.019 0.31 0.02 0.308 0.021 0.306 0.023 0.306 0.024 0.304 0.025 0.303 0.027 0.302 0.028 0.3 0.03 0.299 0.031 0.297 0.032 0.296 0.034 0.294 0.035 0.293 0.037 0.291 0.039 0.29 0.039 0.288 0.042 0.287 0.043 0.284 0.044 0.283 0.047 0.281 0.047 0.28 0.05 0.277 0.051 0.276 0.053 0.274 0.055 0.272 0.056 0.27 0.058 0.268 0.06 0.266 0.061 0.265 0.064 0.262 0.065 0.26 0.067 0.257 0.069 0.256 0.071 0.254 0.072 0.251 0.075 0.249 0.077 0.247 0.078 0.245 0.081 0.242 0.082 0.24 0.085 0.237 0.086 0.235 0.089 0.233 0.09 0.23 0.093 0.228 0.095 0.225 0.097 0.112 0.049 0.111 0.05 0.22 0.102 0.109 0.051 0.108 0.052 0.108 0.053 0.107 0.053 0.106 0.053 0.106 0.055 0.105 0.055 0.104 0.055 0.104 0.056 0.103 0.056 0.102 0.058 0.102 0.057 0.1 0.058 0.101 0.059 0.198 0.12 0.098 0.06 0.097 0.061 0.097 0.062 0.095 0.062 0.096 0.063 0.188 0.128 0.093 0.065 0.092 0.065 0.091 0.066 0.091 0.067 0.09 0.067 0.089 0.068 0.088 0.068 0.088 0.069 0.087 0.07 0.086 0.07 0.085 0.071 0.084 0.071 0.084 0.072 0.083 0.073 0.082 0.074 0.162 0.148 0.08 0.076 0.079 0.076 0.078 0.076 0.077 0.078 0.152 0.156 0.075 0.08 0.074 0.079 0.073 0.081 0.072 0.081 0.072 0.082 0.14 0.166 0.069 0.084 0.068 0.085 0.067 0.085 0.132 0.172 0.128 0.176 0.063 0.089 0.062 0.089 0.061 0.09 0.06 0.091 0.059 0.091 0.116 0.186 0.056 0.093 0.056 0.095 0.108 0.19 0.053 0.097 0.052 0.097 0.051 0.098 0.05 0.099 0.049 0.099 0.048 0.1 0.048 0.101 0.046 0.102 0.045 0.102 0.044 0.103 0.044 0.104 0.042 0.104 0.042 0.106 0.08 0.212 0.046 0.13 0.045 0.13 0.044 0.131 0.043 0.131 0.041 0.133 0.04 0.133 0.039 0.134 0.038 0.135 0.036 0.136 0.035 0.137 0.034 0.137 0.033 0.138 0.032 0.139 0.03 0.14 0.029 0.14 0.028 0.141 0.027 0.142 0.025 0.142 0.024 0.144 0.023 0.144 0.022 0.144 0.04 0.292 0.018 0.146 0.017 0.148 0.015 0.148 0.015 0.149 0.013 0.149 0.012 0.15 0.011 0.151 9e-3 0.151 9e-3 0.152 7e-3 0.153 6e-3 0.153 5e-3 0.154 6e-3 0.31 1e-3 0.155v0.156l-2e-3 0.157-2e-3 0.158-4e-3 0.158-5e-3 0.158-6e-3 0.159-7e-3 0.16-8e-3 0.16-0.01 0.16-0.011 0.162-0.012 0.161-0.013 0.162-0.014 0.163-0.016 0.163-0.017 0.164-0.018 0.164-0.019 0.165-0.02 0.165-0.022 0.165-0.022 0.166-0.024 0.167-0.025 0.167-0.026 0.167-0.056 0.336-0.03 0.169-0.031 0.169-0.032 0.169-0.033 0.17-0.035 0.17-0.072 0.342-0.038 0.171-0.039 0.171-0.041 0.172-0.041 0.173-0.043 0.173-0.044 0.173-0.045 0.173-0.046 0.174-0.047 0.173-0.048 0.175-0.05 0.174-0.051 0.175-0.052 0.175-0.053 0.176-0.054 0.175-0.055 0.176-0.057 0.177-0.058 0.176-0.059 0.177-0.06 0.177-0.061 0.177-0.062 0.177-0.063 0.178-0.065 0.178-0.066 0.178-0.067 0.178-0.068 0.178-0.069 0.179-0.07 0.178-0.144 0.358-0.074 0.18-0.075 0.179-0.076 0.179-0.077 0.18-0.078 0.18-0.079 0.18-0.081 0.18-0.164 0.36-0.084 0.18-0.085 0.181-0.087 0.18-0.087 0.181-0.088 0.18-0.09 0.181-0.091 0.181-0.091 0.18-0.093 0.181-0.094 0.181-0.095 0.181-0.097 0.181-0.097 0.18-0.198 0.362-0.101 0.181-0.102 0.181-0.103 0.181-0.104 0.18-0.105 0.181-0.106 0.181-0.108 0.18-0.108 0.181-0.11 0.181-0.11 0.18-0.112 0.18-0.113 0.181-0.114 0.18-0.115 0.18-0.234 0.36-0.118 0.179-0.24 0.36-0.122 0.179-0.123 0.179-0.124 0.179-0.125 0.179-0.126 0.179-0.127 0.178-0.128 0.179-0.26 0.356-0.132 0.178-0.132 0.177-0.134 0.177-0.135 0.178-0.135 0.177-0.137 0.176-0.138 0.177-0.139 0.176-0.141 0.176-0.141 0.175-0.142 0.176-0.288 0.35-0.292 0.348-0.148 0.174-0.149 0.174-0.149 0.173-0.151 0.173-0.152 0.173-0.153 0.172-0.154 0.172-0.155 0.172-0.314 0.342-0.158 0.17-0.16 0.171-0.16 0.169-0.162 0.17-0.162 0.169-0.328 0.336-0.166 0.168-0.167 0.167-0.168 0.167-0.338 0.332-0.171 0.166-0.172 0.165-0.174 0.165-0.174 0.164-0.175 0.163-0.176 0.163-0.177 0.163-0.358 0.324-0.18 0.161-0.182 0.161-0.182 0.16-0.368 0.318-0.186 0.159-0.186 0.157-0.188 0.158-0.188 0.156-0.19 0.157-0.382 0.31-0.193 0.155-0.194 0.153-0.195 0.154-0.392 0.304-0.198 0.151-0.199 0.151-0.2 0.15-0.201 0.149-0.202 0.149-0.203 0.148-0.204 0.147-0.205 0.147-0.206 0.146-0.207 0.145-0.208 0.145-0.209 0.144-0.21 0.143-0.211 0.143-0.212 0.141-0.213 0.141-0.215 0.141-0.215 0.139-0.216 0.139-0.217 0.138-0.218 0.137-0.219 0.136-0.22 0.136-0.221 0.135-0.222 0.134-0.223 0.133-0.225 0.133-0.225 0.131-0.226 0.131-0.227 0.13-0.228 0.129-0.229 0.129-0.23 0.127-0.231 0.127-0.232 0.126-0.233 0.124-0.234 0.124-0.235 0.124-0.236 0.122-0.237 0.121-0.352 0.178-0.353 0.175-0.353 0.172-0.353 0.17-0.354 0.167-0.353 0.163-0.353 0.162-0.354 0.158-0.354 0.156-0.353 0.153-0.354 0.151-0.353 0.147-0.354 0.146-0.353 0.143-0.353 0.14-0.353 0.138-0.353 0.135-0.353 0.133-0.352 0.13-0.352 0.128-0.351 0.126-0.352 0.123-0.351 0.121-0.35 0.119-0.35 0.117-0.35 0.114-0.349 0.112-0.348 0.11-0.348 0.108-0.347 0.105-0.347 0.104-0.346 0.101 0.128 0.113 0.126 0.115 0.125 0.115 0.124 0.116 0.123 0.117 0.122 0.118 0.12 0.118 0.119 0.12 0.118 0.121 0.117 0.121 0.115 0.122 0.114 0.124 0.113 0.124 0.112 0.125 0.111 0.125 0.11 0.127 0.108 0.127 0.214 0.258 0.105 0.13 0.104 0.13 0.103 0.132 0.102 0.132 0.1 0.133 0.1 0.134 0.099 0.134 0.098 0.136 0.096 0.136 0.096 0.137 0.094 0.137 0.094 0.138 0.093 0.139 0.182 0.28 0.09 0.141 0.088 0.142 0.088 0.143 0.087 0.143 0.086 0.143 0.085 0.145 0.084 0.145 0.084 0.146 0.082 0.146 0.082 0.147 0.16 0.296 0.079 0.148 0.156 0.3 0.076 0.15 0.076 0.151 0.075 0.152 0.074 0.152 0.074 0.153 0.072 0.154 0.072 0.153 0.142 0.31 0.069 0.155 0.138 0.312 0.067 0.157 0.067 0.158 0.067 0.157 0.065 0.159 0.065 0.158 0.065 0.16 0.063 0.159 0.126 0.321 0.123 0.322 0.121 0.324 0.119 0.325 0.116 0.327 0.114 0.329 0.113 0.329 0.11 0.331 0.109 0.332 0.107 0.334 0.105 0.334 0.104 0.336 0.102 0.336 0.2 0.676 0.098 0.34 0.096 0.339 0.096 0.341 0.095 0.341 0.093 0.342 0.093 0.343 0.092 0.342 0.182 0.687 0.18 0.688 0.178 0.688 0.177 0.688 5.731 21.927-32.822 1.593-0.166-0.533-0.164-0.535-0.161-0.536-0.159-0.537-0.157-0.539-0.156-0.54-0.154-0.541-0.152-0.542-0.151-0.543-0.149-0.544-0.149-0.545-0.147-0.545-0.292-1.092-0.289-1.094-0.288-1.095-0.574-2.19-0.289-1.093-0.292-1.092-0.147-0.544-0.148-0.544-0.149-0.543-0.151-0.542-0.151-0.541-0.154-0.54-0.155-0.539-0.157-0.537-0.158-0.536-0.161-0.535-0.163-0.532-0.165-0.532-0.168-0.529-0.084-0.264-0.086-0.264-0.086-0.263-0.174-0.524-0.088-0.262-0.089-0.261-0.18-0.52-0.184-0.518-0.092-0.258-0.094-0.258-0.095-0.257-0.095-0.256-0.096-0.256-0.097-0.255-0.098-0.254-0.099-0.254-0.1-0.253-0.101-0.252-0.102-0.252-0.103-0.251-0.104-0.25-0.105-0.249-0.106-0.249-0.107-0.248-0.108-0.247-0.109-0.247-0.11-0.245-0.111-0.245-0.113-0.244-0.113-0.243-0.115-0.242-0.116-0.242-0.117-0.241-0.119-0.239-0.12-0.239-0.12-0.238-0.123-0.237-0.123-0.236-0.125-0.235-0.126-0.235-0.127-0.233-0.129-0.232-0.13-0.232-0.132-0.23-0.132-0.229-0.135-0.229-0.135-0.227-0.049-0.079-0.05-0.079-0.051-0.077-0.053-0.076-0.054-0.076-0.055-0.074-0.057-0.073-0.058-0.072-0.059-0.072-0.061-0.07-0.062-0.07-0.063-0.068-0.064-0.068-0.066-0.066-0.067-0.066-0.068-0.064-0.069-0.064-0.071-0.063-0.072-0.062-0.072-0.061-0.075-0.06-0.075-0.059-0.076-0.058-0.078-0.058-0.079-0.056-0.08-0.056-0.081-0.054-0.082-0.054-0.083-0.053-0.084-0.052-0.172-0.102-0.088-0.049-0.089-0.049-0.089-0.048-0.091-0.047-0.092-0.046-0.093-0.045-0.094-0.045-0.094-0.043-0.096-0.043-0.097-0.042-0.098-0.042-0.198-0.08-0.101-0.039-0.101-0.038-0.103-0.038-0.103-0.036-0.105-0.036-0.105-0.035-0.106-0.035-0.107-0.033-0.108-0.033-0.218-0.064-0.111-0.031-0.111-0.03-0.112-0.029-0.113-0.028-0.228-0.056-0.115-0.026-0.116-0.026-0.117-0.025-0.118-0.025-0.118-0.023-0.119-0.023-0.12-0.023-0.12-0.022-0.244-0.042-0.245-0.039-0.249-0.036-0.251-0.035-0.254-0.031-0.256-0.03-0.259-0.027-0.26-0.025-0.263-0.022-0.266-0.021-0.267-0.018-0.269-0.016-0.271-0.014-0.273-0.012-0.275-0.01-0.277-8e-3 -0.278-6e-3 -0.279-4e-3 -0.281-3e-3h-0.283l-0.284 1e-3 -0.285 3e-3 -0.286 4e-3 -0.287 6e-3 -0.288 8e-3 -0.289 9e-3 -0.291 0.011-0.29 0.012-0.292 0.013-17.386 39.325-27.076 1.314 43.969-99.454 3.069-0.149 3.07-0.151 18.425-0.912 6.14-0.302 6.136-0.296 3.067-0.145 3.065-0.144 3.064-0.141 3.062-0.139 0.665-0.027 0.665-0.025 0.664-0.023 0.664-0.019 0.662-0.017 0.33-8e-3 0.66-0.012 0.329-5e-3 0.329-4e-3 0.656-6e-3 0.653-2e-3zm-0.643 2.694-0.32 1e-3 -0.642 6e-3 -0.322 4e-3 -0.322 5e-3 -0.324 6e-3 -0.323 6e-3 -0.323 7e-3 -0.652 0.017-0.652 0.019-0.654 0.022-0.655 0.024-0.655 0.027-3.055 0.139-3.062 0.141-3.063 0.144-3.065 0.145-3.067 0.147-3.067 0.149-3.069 0.15-3.069 0.151-6.141 0.304-6.142 0.305-6.142 0.304-3.071 0.15-1.409 0.069-41.532 93.942 21.056-1.022 17.387-39.329 1.964-0.091 0.303-0.012 0.304-0.012 0.302-9e-3 0.303-8e-3 0.302-7e-3 0.301-4e-3 0.301-3e-3 0.3-1e-3h0.299l0.299 3e-3 0.297 4e-3 0.297 7e-3 0.296 8e-3 0.294 0.011 0.294 0.013 0.293 0.015 0.291 0.018 0.29 0.019 0.289 0.022 0.287 0.025 0.286 0.027 0.285 0.03 0.283 0.033 0.282 0.035 0.281 0.038 0.278 0.041 0.273 0.044 0.142 0.024 0.138 0.024 0.137 0.025 0.136 0.025 0.137 0.027 0.136 0.027 0.135 0.028 0.135 0.029 0.134 0.03 0.134 0.031 0.134 0.032 0.266 0.066 0.132 0.035 0.131 0.035 0.262 0.074 0.26 0.078 0.129 0.041 0.129 0.042 0.128 0.042 0.128 0.044 0.127 0.045 0.252 0.094 0.126 0.049 0.125 0.049 0.124 0.051 0.124 0.053 0.123 0.053 0.122 0.055 0.122 0.056 0.121 0.058 0.121 0.059 0.12 0.06 0.119 0.062 0.118 0.063 0.118 0.064 0.117 0.066 0.116 0.068 0.115 0.069 0.115 0.071 0.114 0.072 0.113 0.074 0.112 0.076 0.111 0.077 0.11 0.079 0.109 0.081 0.108 0.082 0.107 0.084 0.106 0.086 0.105 0.087 0.104 0.09 0.102 0.091 0.101 0.093 0.1 0.095 0.098 0.096 0.098 0.099 0.095 0.1 0.094 0.102 0.093 0.104 0.091 0.106 0.089 0.107 0.088 0.109 0.086 0.111 0.084 0.113 0.082 0.114 0.08 0.117 0.079 0.118 0.076 0.12 0.07 0.113 0.148 0.249 0.143 0.244 0.142 0.244 0.14 0.246 0.138 0.246 0.137 0.247 0.136 0.248 0.133 0.248 0.133 0.25 0.13 0.25 0.13 0.251 0.128 0.251 0.126 0.253 0.125 0.253 0.124 0.254 0.122 0.254 0.121 0.256 0.12 0.256 0.118 0.256 0.117 0.257 0.116 0.258 0.114 0.259 0.226 0.518 0.22 0.522 0.109 0.261 0.107 0.262 0.106 0.262 0.105 0.263 0.104 0.264 0.103 0.264 0.102 0.264 0.101 0.265 0.1 0.266 0.099 0.266 0.098 0.266 0.097 0.267 0.096 0.267 0.095 0.267 0.095 0.268 0.093 0.269 0.093 0.268 0.091 0.269 0.091 0.27 0.09 0.27 0.178 0.54 0.088 0.271 0.087 0.273 0.171 0.541 0.17 0.544 0.166 0.545 0.164 0.546 0.162 0.546 0.16 0.547 0.157 0.548 0.156 0.549 0.154 0.549 0.153 0.549 0.151 0.549 0.298 1.1 0.147 0.55 0.146 0.55 0.291 1.098 0.288 1.097 0.287 1.095 0.287 1.092 0.288 1.09 0.144 0.542 0.146 0.541 0.145 0.54 0.147 0.539 0.148 0.538 0.149 0.536 0.15 0.534 0.151 0.532 0.153 0.531 0.154 0.529 0.033 0.108 27.409-1.33-4.893-18.72-0.178-0.692-0.177-0.684-0.177-0.68-0.18-0.678-0.09-0.335-0.091-0.335-0.092-0.335-0.092-0.333-0.093-0.331-0.094-0.331-0.095-0.329-0.096-0.327-0.097-0.326-0.099-0.324-0.099-0.322-0.101-0.321-0.102-0.319-0.104-0.317-0.105-0.315-0.107-0.313-0.108-0.31-0.11-0.309-0.112-0.307-0.113-0.304-0.116-0.302-0.118-0.302-0.058-0.146-0.06-0.149-0.183-0.441-0.062-0.145-0.126-0.29-0.063-0.143-0.064-0.143-0.065-0.143-0.065-0.141-0.066-0.141-0.067-0.141-0.067-0.139-0.068-0.139-0.068-0.138-0.138-0.274-0.07-0.136-0.142-0.27-0.072-0.133-0.073-0.133-0.073-0.132-0.074-0.132-0.15-0.26-0.077-0.129-0.076-0.129-0.156-0.254-0.079-0.126-0.079-0.125-0.162-0.248-0.081-0.122-0.083-0.122-0.083-0.121-0.084-0.121-0.085-0.119-0.086-0.119-0.086-0.117-0.087-0.117-0.088-0.117-0.089-0.115-0.18-0.228-0.091-0.113-0.093-0.112-0.093-0.111-0.093-0.11-0.095-0.11-0.096-0.109-0.096-0.107-0.098-0.107-0.098-0.106-0.1-0.106-0.1-0.104-0.101-0.103-0.102-0.103-0.104-0.102-0.104-0.101-0.105-0.1-0.106-0.1-0.107-0.098-0.109-0.098-3.767-3.336 5.017-1.471 0.333-0.099 0.335-0.102 0.334-0.104 0.335-0.105 0.336-0.108 0.336-0.11 0.336-0.112 0.337-0.114 0.337-0.116 0.337-0.118 0.337-0.121 0.338-0.123 0.338-0.125 0.338-0.127 0.338-0.13 0.338-0.132 0.338-0.134 0.338-0.137 0.338-0.139 0.339-0.141 0.338-0.144 0.338-0.147 0.338-0.149 0.338-0.151 0.337-0.154 0.338-0.157 0.337-0.159 0.337-0.162 0.337-0.164 0.337-0.167 0.337-0.17 0.225-0.115 0.448-0.234 0.223-0.118 0.222-0.119 0.221-0.12 0.22-0.12 0.219-0.122 0.218-0.122 0.217-0.123 0.432-0.248 0.214-0.126 0.426-0.252 0.211-0.128 0.211-0.129 0.209-0.129 0.209-0.13 0.207-0.13 0.207-0.132 0.206-0.132 0.204-0.132 0.204-0.134 0.203-0.134 0.202-0.135 0.201-0.135 0.398-0.274 0.198-0.137 0.197-0.139 0.196-0.138 0.195-0.14 0.194-0.14 0.194-0.141 0.192-0.141 0.191-0.143 0.19-0.142 0.189-0.144 0.188-0.143 0.188-0.145 0.186-0.145 0.185-0.146 0.184-0.146 0.184-0.147 0.182-0.147 0.181-0.148 0.181-0.149 0.179-0.149 0.178-0.149 0.178-0.15 0.176-0.151 0.35-0.302 0.173-0.153 0.173-0.152 0.171-0.153 0.34-0.308 0.168-0.154 0.168-0.155 0.166-0.156 0.33-0.312 0.163-0.157 0.162-0.157 0.162-0.158 0.16-0.158 0.159-0.158 0.159-0.159 0.157-0.159 0.312-0.32 0.154-0.16 0.153-0.161 0.304-0.322 0.15-0.162 0.149-0.162 0.148-0.162 0.147-0.163 0.146-0.163 0.145-0.164 0.144-0.163 0.143-0.164 0.142-0.164 0.141-0.165 0.14-0.165 0.139-0.165 0.138-0.165 0.137-0.166 0.136-0.165 0.134-0.166 0.134-0.167 0.133-0.166 0.262-0.334 0.13-0.167 0.128-0.167 0.254-0.336 0.125-0.167 0.125-0.168 0.123-0.169 0.122-0.168 0.121-0.169 0.12-0.168 0.119-0.169 0.118-0.169 0.117-0.169 0.116-0.169 0.115-0.169 0.114-0.169 0.112-0.17 0.112-0.169 0.111-0.17 0.109-0.169 0.109-0.17 0.107-0.17 0.106-0.17 0.106-0.169 0.104-0.17 0.103-0.17 0.102-0.17 0.101-0.17 0.1-0.169 0.099-0.17 0.194-0.34 0.096-0.17 0.094-0.169 0.094-0.17 0.092-0.169 0.091-0.17 0.09-0.17 0.09-0.169 0.088-0.169 0.087-0.169 0.086-0.17 0.084-0.169 0.084-0.168 0.083-0.169 0.081-0.169 0.081-0.168 0.079-0.169 0.156-0.336 0.076-0.168 0.075-0.167 0.074-0.168 0.144-0.334 0.071-0.167 0.069-0.167 0.069-0.166 0.067-0.166 0.132-0.332 0.064-0.165 0.063-0.165 0.062-0.165 0.06-0.165 0.06-0.164 0.059-0.164 0.057-0.164 0.112-0.326 0.054-0.163 0.053-0.163 0.052-0.162 0.051-0.161 0.05-0.162 0.049-0.161 0.094-0.32 0.045-0.16 0.044-0.16 0.044-0.159 0.042-0.158 0.041-0.158 0.04-0.158 0.076-0.314 0.037-0.156 0.035-0.156 0.035-0.155 0.033-0.155 0.032-0.155 0.031-0.154 0.031-0.153 0.028-0.153 0.028-0.152 0.027-0.152 0.026-0.151 0.024-0.151 0.024-0.15 0.044-0.298 0.02-0.149 0.019-0.147 0.018-0.147 0.017-0.147 0.016-0.146 0.015-0.145 0.014-0.144 0.013-0.144 0.011-0.144 0.011-0.142 0.01-0.142 8e-3 -0.142 0.014-0.28 5e-3 -0.139 4e-3 -0.139 6e-3 -0.274 1e-3 -0.137v-0.135l-1e-3 -0.135-2e-3 -0.134-3e-3 -0.133-0.01-0.264-6e-3 -0.131-7e-3 -0.13-8e-3 -0.13-9e-3 -0.128-0.011-0.128-0.011-0.126-0.012-0.126-0.013-0.125-0.014-0.125-0.032-0.246-0.017-0.121-0.018-0.121-0.019-0.12-0.02-0.119-0.021-0.118-0.023-0.118-0.022-0.116-0.024-0.115-0.025-0.115-0.026-0.114-0.027-0.113-0.027-0.111-0.029-0.111-0.03-0.11-0.03-0.109-0.031-0.108-0.066-0.214-0.034-0.105-0.035-0.104-0.036-0.104-0.036-0.102-0.03-0.081-0.031-0.08-0.031-0.079-0.032-0.079-0.032-0.078-0.034-0.077-0.068-0.152-0.035-0.075-0.036-0.075-0.037-0.074-0.037-0.073-0.038-0.073-0.039-0.073-0.039-0.071-0.08-0.142-0.042-0.07-0.084-0.138-0.043-0.069-0.044-0.067-0.045-0.068-0.045-0.067-0.047-0.067-0.046-0.066-0.096-0.13-0.049-0.065-0.049-0.064-0.05-0.064-0.051-0.064-0.052-0.062-0.052-0.063-0.162-0.186-0.056-0.06-0.056-0.061-0.114-0.12-0.058-0.06-0.12-0.118-0.06-0.058-0.124-0.116-0.063-0.057-0.128-0.114-0.065-0.056-0.134-0.112-0.067-0.055-0.138-0.11-0.07-0.054-0.071-0.054-0.072-0.054-0.072-0.053-0.074-0.053-0.074-0.052-0.15-0.104-0.077-0.052-0.077-0.051-0.078-0.051-0.079-0.05-0.08-0.05-0.162-0.1-0.082-0.049-0.083-0.049-0.084-0.048-0.17-0.096-0.086-0.047-0.087-0.047-0.088-0.047-0.178-0.092-0.09-0.045-0.091-0.045-0.184-0.09-0.094-0.044-0.094-0.043-0.095-0.044-0.096-0.043-0.092-0.041-0.199-0.085-0.198-0.083-0.202-0.081-0.204-0.08-0.207-0.078-0.21-0.076-0.213-0.075-0.216-0.074-0.218-0.072-0.222-0.07-0.224-0.069-0.227-0.067-0.23-0.066-0.232-0.065-0.235-0.062-0.237-0.062-0.24-0.059-0.243-0.059-0.245-0.056-0.247-0.055-0.25-0.054-0.252-0.052-0.254-0.051-0.257-0.049-0.259-0.048-0.261-0.046-0.264-0.045-0.265-0.043-0.268-0.042-0.27-0.041-0.271-0.039-0.274-0.038-0.276-0.036-0.277-0.035-0.28-0.033-0.281-0.032-0.283-0.031-0.285-0.03-0.286-0.028-0.288-0.027-0.29-0.025-0.292-0.025-0.293-0.023-0.294-0.022-0.296-0.02-0.298-0.02-0.299-0.018-0.3-0.017-0.302-0.016-0.303-0.014-0.305-0.014-0.305-0.012-0.307-0.011-0.308-0.011-0.31-9e-3 -0.31-8e-3 -0.311-7e-3 -0.313-6e-3 -0.313-5e-3 -0.315-4e-3 -0.316-3e-3 -0.316-2e-3 -0.635-2e-3zm105.8-9.626 0.586 4e-3 0.293 4e-3 0.582 0.01 0.291 7e-3 0.289 8e-3 0.289 9e-3 0.288 0.01 0.288 0.011 0.286 0.012 0.286 0.013 0.286 0.014 0.284 0.015 0.284 0.016 0.283 0.017 0.282 0.018 0.282 0.019 0.28 0.019 0.56 0.042 0.556 0.046 0.276 0.024 0.276 0.025 0.276 0.026 0.274 0.027 0.274 0.028 0.273 0.028 0.272 0.029 0.181 0.02 0.18 0.021 0.18 0.022 0.179 0.022 0.178 0.023 0.178 0.024 0.177 0.025 0.352 0.052 0.174 0.027 0.175 0.028 0.173 0.028 0.173 0.029 0.172 0.03 0.172 0.031 0.171 0.032 0.17 0.032 0.169 0.033 0.169 0.034 0.168 0.034 0.334 0.072 0.165 0.036 0.166 0.038 0.164 0.038 0.164 0.039 0.163 0.04 0.162 0.041 0.161 0.041 0.161 0.042 0.16 0.043 0.159 0.043 0.159 0.044 0.158 0.045 0.157 0.046 0.312 0.094 0.308 0.096 0.154 0.05 0.152 0.05 0.152 0.051 0.151 0.051 0.15 0.053 0.149 0.053 0.149 0.054 0.148 0.054 0.147 0.055 0.146 0.056 0.146 0.057 0.288 0.116 0.286 0.118 0.282 0.122 0.14 0.061 0.139 0.063 0.138 0.063 0.137 0.064 0.137 0.065 0.136 0.065 0.135 0.066 0.134 0.067 0.266 0.136 0.131 0.069 0.131 0.07 0.13 0.07 0.129 0.071 0.129 0.072 0.254 0.146 0.25 0.148 0.124 0.076 0.123 0.076 0.123 0.077 0.121 0.077 0.121 0.078 0.119 0.079 0.119 0.08 0.118 0.08 0.117 0.081 0.116 0.082 0.115 0.082 0.115 0.084 0.113 0.083 0.113 0.085 0.112 0.085 0.11 0.086 0.11 0.087 0.109 0.087 0.108 0.088 0.214 0.178 0.105 0.09 0.208 0.182 0.102 0.092 0.102 0.093 0.101 0.094 0.1 0.094 0.196 0.19 0.097 0.097 0.096 0.097 0.095 0.097 0.095 0.099 0.093 0.099 0.092 0.099 0.182 0.202 0.089 0.101 0.176 0.206 0.172 0.208 0.084 0.105 0.084 0.106 0.082 0.106 0.082 0.107 0.08 0.108 0.08 0.109 0.078 0.109 0.078 0.11 0.077 0.11 0.075 0.111 0.075 0.112 0.146 0.226 0.142 0.228 0.07 0.115 0.136 0.232 0.066 0.118 0.065 0.117 0.065 0.119 0.063 0.119 0.063 0.12 0.061 0.12 0.06 0.121 0.118 0.244 0.057 0.123 0.056 0.124 0.055 0.124 0.054 0.125 0.053 0.126 0.051 0.126 0.051 0.127 0.05 0.128 0.049 0.128 0.094 0.258 0.045 0.131 0.044 0.13 0.044 0.132 0.042 0.132 0.041 0.133 0.04 0.133 0.039 0.134 0.074 0.27 0.036 0.136 0.068 0.274 0.032 0.138 0.031 0.138 0.03 0.14 0.029 0.139 0.028 0.141 0.052 0.282 0.048 0.286 0.022 0.143 0.021 0.144 0.019 0.145 0.019 0.146 0.018 0.146 0.016 0.147 0.015 0.147 0.015 0.148 0.013 0.148 0.011 0.15 0.011 0.149 0.018 0.302 7e-3 0.152 6e-3 0.152 5e-3 0.153 3e-3 0.153 3e-3 0.155 1e-3 0.154v0.156l-1e-3 0.156-3e-3 0.156-3e-3 0.158-5e-3 0.157-6e-3 0.159-7e-3 0.159-8e-3 0.16-0.01 0.16-0.011 0.161-0.012 0.161-0.013 0.162-0.014 0.163-0.016 0.163-0.017 0.164-0.018 0.165-0.019 0.165-0.02 0.166-0.022 0.166-0.023 0.167-0.025 0.167-0.025 0.169-0.027 0.168-0.028 0.17-0.029 0.169-0.03 0.171-0.032 0.171-0.033 0.172-0.035 0.172-0.035 0.173-0.037 0.173-0.038 0.175-0.039 0.174-0.041 0.175-0.042 0.176-0.043 0.177-0.09 0.354-0.047 0.179-0.049 0.178-0.049 0.18-0.051 0.18-0.052 0.18-0.054 0.181-0.055 0.182-0.056 0.182-0.057 0.183-0.059 0.183-0.06 0.184-0.124 0.37-0.13 0.372-0.067 0.187-0.068 0.188-0.069 0.188-0.071 0.188-0.072 0.189-0.073 0.19-0.075 0.19-1.335 3.327-27.302 2.363 0.058-0.231 0.058-0.232 0.056-0.231 0.055-0.231 0.054-0.231 0.052-0.231 0.051-0.23 0.049-0.23 0.048-0.229 0.046-0.229 0.045-0.228 0.042-0.227 0.04-0.227 0.039-0.225 0.036-0.225 0.034-0.223 0.031-0.223 0.029-0.221 0.027-0.22 0.023-0.219 0.022-0.217 0.018-0.216 0.015-0.214 0.013-0.213 5e-3 -0.106 4e-3 -0.105 3e-3 -0.105 3e-3 -0.104 2e-3 -0.104 1e-3 -0.104v-0.103l-2e-3 -0.204-3e-3 -0.102-3e-3 -0.101-4e-3 -0.101-5e-3 -0.1-6e-3 -0.099-7e-3 -0.099-8e-3 -0.098-9e-3 -0.098-0.01-0.097-0.011-0.097-0.012-0.096-0.013-0.096-0.013-0.094-0.015-0.095-0.016-0.093-0.017-0.093-0.018-0.093-0.019-0.091-0.02-0.091-0.022-0.091-0.022-0.089-0.024-0.089-0.024-0.088-0.026-0.088-0.027-0.087-0.028-0.086-0.029-0.085-0.031-0.085-0.031-0.084-0.033-0.083-0.034-0.082-0.035-0.082-0.037-0.081-0.038-0.08-0.039-0.079-0.04-0.078-0.042-0.078-0.043-0.076-0.044-0.076-0.046-0.075-0.046-0.074-0.049-0.074-0.049-0.072-0.051-0.072-0.106-0.14-0.055-0.069-0.057-0.068-0.058-0.067-0.059-0.066-0.061-0.065-0.063-0.064-0.063-0.063-0.066-0.062-0.067-0.061-0.068-0.06-0.07-0.059-0.071-0.059-0.073-0.057-0.074-0.056-0.076-0.055-0.078-0.054-0.079-0.053-0.081-0.052-0.082-0.051-0.084-0.049-0.086-0.049-0.087-0.047-0.089-0.047-0.09-0.045-0.093-0.044-0.13-0.06-0.132-0.059-0.134-0.057-0.136-0.057-0.137-0.055-0.14-0.053-0.141-0.053-0.143-0.051-0.144-0.051-0.147-0.049-0.148-0.047-0.149-0.047-0.152-0.045-0.152-0.044-0.155-0.043-0.156-0.042-0.157-0.04-0.159-0.039-0.16-0.038-0.162-0.037-0.163-0.036-0.165-0.034-0.166-0.033-0.167-0.031-0.168-0.031-0.17-0.029-0.171-0.028-0.173-0.027-0.173-0.026-0.175-0.024-0.176-0.023-0.177-0.022-0.178-0.02-0.179-0.019-0.18-0.018-0.181-0.017-0.182-0.016-0.184-0.014-0.184-0.013-0.185-0.011-0.186-0.011-0.186-9e-3 -0.188-8e-3 -0.378-0.012-0.19-4e-3 -0.191-3e-3 -0.191-1e-3h-0.192l-0.193 1e-3 -0.194 2e-3 -0.194 4e-3 -0.195 5e-3 -0.195 6e-3 -0.196 7e-3 -0.196 9e-3 -0.197 0.01-0.197 0.012-0.198 0.012-0.198 0.014-0.198 0.016-0.199 0.016-0.2 0.018-0.199 0.019-0.4 0.042-0.2 0.023-0.201 0.025-0.2 0.026-0.201 0.027-0.201 0.028-0.201 0.03-0.201 0.031-0.202 0.032-0.201 0.033-0.201 0.035-0.201 0.037-0.202 0.037-0.201 0.039-0.201 0.04-0.201 0.042-0.2 0.043-0.201 0.044-0.2 0.045-0.2 0.047-0.4 0.098-0.199 0.051-0.199 0.052-0.199 0.054-0.198 0.055-0.198 0.056-0.197 0.058-0.197 0.059-0.197 0.06-0.196 0.062-0.195 0.063-0.195 0.064-0.194 0.066-0.194 0.067-0.193 0.068-0.193 0.07-0.191 0.071-0.191 0.073-0.191 0.074-0.189 0.075-0.189 0.077-0.188 0.078-0.187 0.079-0.186 0.081-0.185 0.082-0.185 0.084-0.183 0.085-0.183 0.086-0.181 0.087-0.181 0.09-0.179 0.09-0.179 0.092-0.177 0.093-0.176 0.095-0.175 0.096-0.174 0.097-0.173 0.099-0.171 0.1-0.17 0.101-0.169 0.103-0.168 0.105-0.166 0.106-0.088 0.057-0.086 0.057-0.084 0.058-0.083 0.059-0.082 0.059-0.08 0.06-0.078 0.06-0.077 0.061-0.076 0.061-0.074 0.062-0.073 0.062-0.071 0.063-0.07 0.063-0.069 0.064-0.067 0.064-0.065 0.064-0.064 0.065-0.063 0.065-0.061 0.066-0.06 0.066-0.059 0.066-0.057 0.067-0.056 0.067-0.054 0.067-0.053 0.068-0.102 0.136-0.049 0.068-0.047 0.069-0.046 0.069-0.045 0.069-0.043 0.069-0.043 0.07-0.08 0.14-0.038 0.07-0.037 0.07-0.035 0.071-0.034 0.07-0.033 0.071-0.032 0.071-0.03 0.071-0.029 0.071-0.028 0.071-0.026 0.071-0.025 0.071-0.024 0.071-0.023 0.072-0.042 0.142-0.018 0.072-0.018 0.071-0.032 0.142-0.014 0.072-0.024 0.142-0.01 0.071-9e-3 0.071-8e-3 0.07-7e-3 0.071-5e-3 0.07-4e-3 0.071-4e-3 0.07-2e-3 0.14v0.069l2e-3 0.07 2e-3 0.069 4e-3 0.069 5e-3 0.069 7e-3 0.068 7e-3 0.069 8e-3 0.067 0.01 0.068 0.01 0.067 0.012 0.067 0.013 0.067 0.014 0.067 0.015 0.066 0.016 0.065 0.018 0.066 0.018 0.064 0.02 0.065 0.02 0.064 0.022 0.064 0.022 0.063 0.024 0.063 0.025 0.062 0.026 0.062 0.027 0.061 0.028 0.061 0.029 0.061 0.03 0.06 0.031 0.059 0.032 0.059 0.033 0.058 0.034 0.058 0.035 0.057 0.036 0.057 0.037 0.056 0.038 0.055 0.039 0.055 0.04 0.054 0.041 0.053 0.042 0.053 0.043 0.052 0.088 0.102 0.046 0.05 0.047 0.05 0.096 0.096 0.05 0.047 0.05 0.046 0.052 0.046 0.052 0.045 0.053 0.044 0.054 0.043 0.055 0.042 0.056 0.042 0.114 0.08 0.059 0.039 0.059 0.038 0.122 0.074 0.062 0.035 0.119 0.066 0.119 0.065 0.12 0.065 0.121 0.064 0.244 0.126 0.123 0.062 0.248 0.122 0.125 0.061 0.252 0.118 0.127 0.059 0.127 0.058 0.129 0.058 0.128 0.056 0.26 0.113 0.262 0.11 0.264 0.108 0.267 0.106 0.268 0.103 0.271 0.102 0.274 0.1 0.275 0.098 0.278 0.096 0.279 0.095 0.282 0.092 0.283 0.091 0.286 0.09 0.287 0.087 0.289 0.086 0.291 0.085 0.292 0.083 0.295 0.081 0.295 0.08 0.298 0.079 0.299 0.078 0.3 0.076 0.302 0.075 0.304 0.074 0.304 0.072 0.306 0.072 0.616 0.14 0.31 0.069 0.622 0.134 0.313 0.066 0.314 0.065 0.315 0.064 0.316 0.064 0.316 0.063 0.635 0.125 0.639 0.122 0.64 0.121 0.643 0.119 0.644 0.118 0.646 0.118 1.294 0.234 0.647 0.118 1.294 0.238 0.646 0.121 0.644 0.123 0.643 0.126 0.321 0.063 0.32 0.064 0.319 0.065 0.319 0.066 0.318 0.066 0.318 0.068 0.316 0.068 0.316 0.069 0.315 0.07 0.314 0.072 0.313 0.072 0.312 0.073 0.311 0.075 0.31 0.076 0.309 0.077 0.307 0.078 0.307 0.08 0.304 0.081 0.304 0.083 0.302 0.084 0.301 0.085 0.299 0.087 0.298 0.089 0.296 0.09 0.295 0.092 0.293 0.094 0.291 0.096 0.289 0.097 0.288 0.099 0.286 0.102 0.284 0.103 0.282 0.105 0.28 0.107 0.277 0.11 0.276 0.111 0.274 0.114 0.271 0.116 0.27 0.118 0.133 0.06 0.134 0.061 0.264 0.122 0.132 0.063 0.131 0.063 0.13 0.063 0.129 0.064 0.129 0.065 0.129 0.066 0.128 0.066 0.127 0.066 0.252 0.136 0.125 0.068 0.125 0.07 0.124 0.07 0.123 0.07 0.123 0.072 0.122 0.072 0.121 0.072 0.24 0.148 0.238 0.15 0.234 0.154 0.116 0.077 0.116 0.079 0.115 0.079 0.114 0.08 0.226 0.162 0.111 0.082 0.111 0.083 0.111 0.084 0.228 0.178 0.112 0.09 0.112 0.092 0.11 0.092 0.11 0.093 0.109 0.094 0.107 0.095 0.107 0.096 0.105 0.096 0.105 0.098 0.103 0.098 0.103 0.1 0.101 0.1 0.101 0.101 0.099 0.102 0.196 0.206 0.096 0.105 0.095 0.105 0.094 0.106 0.093 0.107 0.092 0.108 0.091 0.109 0.09 0.11 0.089 0.11 0.088 0.111 0.086 0.112 0.086 0.113 0.085 0.114 0.083 0.114 0.082 0.115 0.082 0.116 0.08 0.117 0.079 0.118 0.078 0.118 0.077 0.12 0.076 0.12 0.148 0.242 0.144 0.246 0.07 0.124 0.069 0.124 0.068 0.126 0.067 0.126 0.13 0.254 0.063 0.129 0.062 0.129 0.061 0.13 0.06 0.131 0.059 0.131 0.058 0.132 0.112 0.266 0.054 0.135 0.053 0.135 0.051 0.135 0.051 0.137 0.098 0.274 0.047 0.139 0.046 0.139 0.088 0.28 0.042 0.142 0.041 0.142 0.04 0.142 0.039 0.143 0.037 0.144 0.036 0.145 0.035 0.145 0.034 0.146 0.033 0.146 0.031 0.147 0.03 0.148 0.029 0.149 0.054 0.298 0.025 0.151 0.024 0.151 0.022 0.151 0.022 0.153 0.02 0.152 0.019 0.154 0.034 0.308 0.015 0.156 0.013 0.155 0.013 0.157 0.011 0.157 0.01 0.157 9e-3 0.159 7e-3 0.158 6e-3 0.16 5e-3 0.159 3e-3 0.161 2e-3 0.161 1e-3 0.161v0.163l-2e-3 0.162-3e-3 0.163-5e-3 0.164-6e-3 0.165-7e-3 0.164-8e-3 0.166-0.01 0.166-0.011 0.166-0.012 0.167-0.014 0.167-0.015 0.168-0.017 0.169-0.018 0.169-0.019 0.169-0.02 0.17-0.022 0.171-0.048 0.342-0.026 0.172-0.056 0.346-0.031 0.173-0.031 0.174-0.033 0.174-0.034 0.175-0.036 0.175-0.037 0.176-0.039 0.176-0.04 0.177-0.041 0.177-0.043 0.177-0.044 0.178-0.045 0.179-0.047 0.179-0.049 0.179-0.05 0.18-0.051 0.18-0.053 0.18-0.054 0.181-0.055 0.181-0.057 0.182-0.059 0.182-0.06 0.183-0.061 0.183-0.063 0.183-0.064 0.184-0.066 0.184-0.067 0.184-0.069 0.185-0.07 0.185-0.072 0.186-0.073 0.186-0.075 0.186-0.076 0.187-0.077 0.187-0.079 0.187-0.081 0.188-0.082 0.188-0.084 0.188-0.085 0.189-0.086 0.189-0.089 0.189-0.089 0.19-0.091 0.19-0.093 0.19-0.094 0.191-0.096 0.191-0.097 0.191-0.099 0.192-0.1 0.192-0.102 0.192-0.104 0.192-0.105 0.193-0.106 0.193-0.108 0.194-0.11 0.193-0.111 0.194-0.113 0.194-0.114 0.195-0.116 0.194-0.117 0.195-0.119 0.195-0.121 0.196-0.122 0.196-0.124 0.195-0.125 0.197-0.127 0.196-0.129 0.197-0.13 0.197-0.132 0.197-0.133 0.197-0.135 0.198-0.137 0.197-0.138 0.198-0.14 0.198-0.141 0.199-0.144 0.198-0.144 0.199-0.147 0.199-0.148 0.199-0.149 0.2-0.152 0.199-0.152 0.2-0.155 0.2-0.156 0.2-0.158 0.2-0.16 0.2-0.161 0.201-0.163 0.201-0.164 0.201-0.166 0.201-0.168 0.201-0.17 0.201-0.171 0.201-0.173 0.202-0.175 0.202-0.176 0.202-0.178 0.201-0.18 0.203-0.181 0.202-0.183 0.202-0.185 0.202-0.186 0.203-0.189 0.203-0.189 0.202-0.192 0.203-0.194 0.203-0.195 0.203-0.196 0.203-0.199 0.203-0.2 0.203-0.202 0.204-0.204 0.203-0.206 0.204-0.207 0.203-0.209 0.204-0.211 0.203-0.212 0.204-0.215 0.204-0.216 0.203-0.218 0.204-0.219 0.204-0.222 0.204-0.223 0.204-0.225 0.204-0.227 0.204-0.228 0.204-0.23 0.204-0.232 0.204-0.234 0.204-0.236 0.204-0.238 0.204-0.239 0.204-0.241 0.204-0.243 0.204-0.293 0.243-0.295 0.242-0.297 0.239-0.298 0.237-0.299 0.235-0.301 0.233-0.303 0.23-0.303 0.229-0.305 0.226-0.307 0.224-0.308 0.222-0.309 0.22-0.311 0.218-0.312 0.216-0.313 0.213-0.314 0.212-0.316 0.209-0.316 0.207-0.318 0.206-0.319 0.203-0.32 0.201-0.322 0.199-0.322 0.197-0.324 0.195-0.324 0.193-0.325 0.191-0.327 0.189-0.327 0.187-0.329 0.184-0.329 0.183-0.33 0.181-0.331 0.179-0.332 0.177-0.333 0.175-0.334 0.173-0.334 0.171-0.335 0.17-0.336 0.167-0.337 0.165-0.337 0.164-0.338 0.161-0.338 0.16-0.34 0.157-0.339 0.156-0.341 0.154-0.341 0.152-0.341 0.15-0.342 0.148-0.343 0.147-0.343 0.144-0.343 0.143-0.344 0.141-0.344 0.139-0.345 0.138-0.345 0.135-0.345 0.134-0.692 0.262-0.346 0.128-0.347 0.126-0.346 0.125-0.347 0.123-0.347 0.121-0.347 0.12-0.348 0.118-0.347 0.116-0.348 0.114-0.347 0.113-0.348 0.11-0.347 0.11-0.348 0.107-0.348 0.106-0.347 0.104-0.348 0.102-0.347 0.101-0.347 0.099-0.347 0.098-0.347 0.096-0.347 0.094-0.347 0.092-0.346 0.091-0.346 0.09-0.346 0.087-0.345 0.087-0.346 0.084-0.344 0.083-0.345 0.081-0.344 0.08-0.344 0.078-0.343 0.077-0.343 0.075-0.342 0.074-0.342 0.072-0.341 0.07-0.341 0.069-0.34 0.068-0.339 0.066-0.339 0.064-0.338 0.063-0.338 0.062-0.337 0.06-0.336 0.059-0.336 0.057-0.668 0.11-0.334 0.052-0.332 0.052-0.331 0.05-0.331 0.048-0.33 0.047-0.329 0.046-0.328 0.044-0.326 0.043-0.326 0.042-0.325 0.04-0.324 0.039-0.323 0.037-0.322 0.036-0.321 0.035-0.32 0.033-0.318 0.032-0.317 0.031-0.316 0.03-0.315 0.028-0.314 0.027-0.313 0.025-0.311 0.024-0.31 0.023-0.352 0.025-0.704 0.046-0.7 0.04-0.35 0.018-0.348 0.017-0.348 0.015-0.347 0.014-0.692 0.024-0.345 9e-3 -0.344 9e-3 -0.343 6e-3 -0.342 6e-3 -0.341 4e-3 -0.34 3e-3 -0.34 1e-3 -0.338-1e-3 -0.337-2e-3 -0.337-3e-3 -0.335-5e-3 -0.335-6e-3 -0.333-8e-3 -0.332-9e-3 -0.331-0.011-0.33-0.012-0.329-0.014-0.328-0.016-0.326-0.017-0.325-0.018-0.324-0.02-0.323-0.022-0.322-0.024-0.32-0.025-0.319-0.026-0.317-0.028-0.316-0.03-0.315-0.032-0.314-0.033-0.312-0.034-0.31-0.037-0.31-0.038-0.307-0.039-0.306-0.042-0.305-0.043-0.303-0.045-0.302-0.046-0.3-0.048-0.298-0.05-0.297-0.052-0.295-0.053-0.293-0.056-0.292-0.056-0.29-0.059-0.288-0.061-0.287-0.062-0.285-0.064-0.283-0.066-0.281-0.067-0.279-0.07-0.278-0.071-0.276-0.073-0.274-0.075-0.271-0.077-0.27-0.079-0.268-0.08-0.266-0.082-0.265-0.085-0.262-0.086-0.26-0.088-0.258-0.09-0.255-0.092-0.254-0.094-0.252-0.095-0.249-0.098-0.248-0.1-0.245-0.101-0.243-0.104-0.241-0.105-0.238-0.108-0.237-0.109-0.234-0.112-0.231-0.113-0.23-0.116-0.227-0.117-0.225-0.12-0.222-0.121-0.22-0.124-0.109-0.063-0.216-0.126-0.107-0.065-0.107-0.064-0.106-0.065-0.21-0.132-0.208-0.134-0.103-0.068-0.102-0.068-0.101-0.069-0.202-0.14-0.099-0.07-0.198-0.142-0.097-0.072-0.194-0.146-0.096-0.074-0.095-0.074-0.188-0.15-0.093-0.076-0.092-0.076-0.092-0.077-0.091-0.077-0.09-0.078-0.09-0.079-0.089-0.079-0.088-0.079-0.088-0.08-0.087-0.081-0.086-0.081-0.086-0.082-0.085-0.082-0.084-0.083-0.166-0.168-0.082-0.084-0.081-0.085-0.081-0.086-0.08-0.086-0.079-0.087-0.078-0.088-0.078-0.087-0.077-0.089-0.076-0.089-0.076-0.09-0.074-0.09-0.148-0.182-0.144-0.184-0.071-0.093-0.14-0.188-0.136-0.19-0.068-0.096-0.132-0.194-0.065-0.097-0.064-0.098-0.063-0.099-0.063-0.1-0.062-0.1-0.061-0.1-0.06-0.101-0.06-0.102-0.058-0.102-0.058-0.103-0.114-0.208-0.11-0.21-0.132-0.262-0.064-0.133-0.063-0.133-0.061-0.133-0.061-0.135-0.059-0.135-0.058-0.135-0.057-0.137-0.056-0.137-0.054-0.137-0.054-0.139-0.052-0.139-0.051-0.14-0.05-0.14-0.049-0.141-0.047-0.141-0.047-0.143-0.045-0.142-0.044-0.144-0.043-0.144-0.042-0.145-0.041-0.145-0.04-0.146-0.076-0.294-0.036-0.148-0.035-0.148-0.034-0.149-0.033-0.149-0.032-0.151-0.031-0.15-0.029-0.152-0.029-0.151-0.054-0.306-0.025-0.153-0.024-0.154-0.024-0.155-0.022-0.155-0.021-0.156-0.02-0.156-0.019-0.157-0.018-0.157-0.017-0.158-0.015-0.159-0.015-0.158-0.014-0.16-0.013-0.16-0.011-0.16-0.011-0.161-9e-3 -0.162-9e-3 -0.161-8e-3 -0.163-0.012-0.326-8e-3 -0.328-4e-3 -0.33-1e-3 -0.166 1e-3 -0.166 1e-3 -0.167 2e-3 -0.167 8e-3 -0.336 5e-3 -0.168 0.014-0.338 8e-3 -0.17 9e-3 -0.17 0.01-0.171 0.011-0.171 0.012-0.171 0.026-0.344 0.015-0.172 0.016-0.173 0.016-0.174 0.018-0.173 0.018-0.175 0.019-0.174 0.042-0.35 0.022-0.176 0.046-0.352 0.025-0.177 0.052-0.354 0.027-0.178 0.028-0.178 0.029-0.178 0.03-0.179 0.031-0.179 0.032-0.179 0.032-0.18 0.068-0.36 0.035-0.181 0.072-0.362 0.038-0.182 0.038-0.181 0.079-0.365 0.083-0.365 0.085-0.367 0.089-0.368 0.092-0.368 0.095-0.37 0.098-0.37 0.102-0.372 0.104-0.372 0.108-0.374 0.11-0.374 0.113-0.374 1.042-3.352 27.514-3.605-0.143 0.592-0.144 0.593-0.143 0.592-0.14 0.592-0.053 0.241-0.05 0.24-0.047 0.238-0.044 0.238-0.041 0.237-0.038 0.236-0.035 0.235-0.033 0.234-0.029 0.233-0.027 0.232-0.023 0.23-0.02 0.229-0.018 0.229-0.014 0.226-0.011 0.226-5e-3 0.112-4e-3 0.112-3e-3 0.112-2e-3 0.111-2e-3 0.222v0.11l1e-3 0.11 2e-3 0.11 2e-3 0.109 8e-3 0.218 5e-3 0.108 5e-3 0.107 7e-3 0.108 7e-3 0.107 8e-3 0.107 8e-3 0.106 0.01 0.106 0.01 0.105 0.012 0.105 0.011 0.105 0.013 0.104 0.028 0.208 0.015 0.103 0.016 0.102 0.017 0.103 0.018 0.101 0.018 0.102 0.019 0.101 0.02 0.1 0.021 0.1 0.022 0.1 0.046 0.198 0.024 0.098 0.025 0.098 0.026 0.097 0.054 0.194 0.028 0.096 0.029 0.095 0.03 0.095 0.031 0.095 0.032 0.094 0.032 0.093 0.068 0.186 0.035 0.092 0.036 0.092 0.037 0.091 0.037 0.09 0.078 0.18 0.04 0.089 0.041 0.088 0.042 0.088 0.043 0.088 0.043 0.086 0.045 0.087 0.045 0.086 0.046 0.085 0.048 0.085 0.047 0.084 0.049 0.083 0.05 0.083 0.051 0.083 0.051 0.082 0.052 0.081 0.054 0.081 0.054 0.08 0.055 0.08 0.056 0.079 0.056 0.078 0.058 0.078 0.058 0.077 0.06 0.077 0.06 0.076 0.061 0.076 0.063 0.074 0.063 0.075 0.128 0.146 0.066 0.073 0.134 0.142 0.069 0.071 0.069 0.07 0.07 0.069 0.144 0.136 0.073 0.068 0.074 0.066 0.075 0.066 0.075 0.065 0.077 0.065 0.078 0.064 0.078 0.063 0.08 0.063 0.08 0.062 0.082 0.061 0.082 0.06 0.083 0.06 0.084 0.059 0.086 0.059 0.086 0.057 0.087 0.057 0.088 0.057 0.178 0.11 0.091 0.054 0.092 0.054 0.093 0.053 0.093 0.052 0.095 0.051 0.192 0.1 0.098 0.049 0.098 0.048 0.1 0.048 0.1 0.047 0.101 0.046 0.103 0.045 0.103 0.044 0.104 0.044 0.105 0.043 0.214 0.084 0.108 0.04 0.109 0.04 0.11 0.039 0.224 0.076 0.113 0.036 0.114 0.036 0.115 0.035 0.116 0.034 0.117 0.033 0.118 0.033 0.119 0.032 0.12 0.031 0.122 0.03 0.122 0.029 0.123 0.028 0.124 0.028 0.125 0.027 0.126 0.025 0.127 0.025 0.128 0.025 0.129 0.023 0.262 0.044 0.132 0.02 0.133 0.02 0.135 0.019 0.135 0.018 0.136 0.017 0.137 0.017 0.278 0.03 0.282 0.026 0.143 0.012 0.143 0.01 0.145 0.01 0.145 9e-3 0.147 9e-3 0.148 7e-3 0.149 6e-3 0.149 5e-3 0.151 5e-3 0.152 3e-3 0.153 3e-3 0.309 2e-3h0.156l0.157-2e-3 0.159-2e-3 0.159-3e-3 0.16-4e-3 0.162-5e-3 0.162-7e-3 0.164-7e-3 0.165-8e-3 0.165-9e-3 0.167-0.01 0.168-0.011 0.169-0.012 0.17-0.013 0.171-0.014 0.172-0.015 0.174-0.016 0.174-0.017 0.176-0.018 0.176-0.019 0.178-0.02 0.178-0.022 0.18-0.022 0.181-0.023 0.182-0.024 0.183-0.026 0.185-0.026 0.185-0.027 0.186-0.029 0.188-0.029 0.189-0.031 0.189-0.032 0.191-0.032 0.192-0.034 0.193-0.035 0.195-0.036 0.195-0.037 0.196-0.038 0.198-0.039 0.199-0.04 0.199-0.042 0.201-0.042 0.406-0.088 0.204-0.046 0.206-0.047 0.206-0.048 0.208-0.049 0.209-0.05 0.21-0.052 0.185-0.047 0.186-0.05 0.187-0.052 0.187-0.055 0.188-0.058 0.189-0.061 0.189-0.063 0.19-0.066 0.19-0.068 0.19-0.071 0.191-0.073 0.191-0.076 0.191-0.078 0.191-0.08 0.192-0.083 0.191-0.085 0.192-0.087 0.191-0.089 0.192-0.091 0.191-0.094 0.191-0.095 0.191-0.098 0.19-0.1 0.19-0.101 0.19-0.103 0.189-0.106 0.188-0.107 0.188-0.109 0.188-0.11 0.186-0.112 0.186-0.114 0.185-0.116 0.185-0.117 0.183-0.119 0.183-0.12 0.181-0.122 0.18-0.123 0.18-0.125 0.178-0.125 0.177-0.128 0.175-0.128 0.175-0.13 0.173-0.131 0.171-0.132 0.17-0.133 0.169-0.135 0.167-0.135 0.165-0.136 0.163-0.138 0.162-0.138 0.16-0.139 0.158-0.14 0.157-0.141 0.154-0.141 0.152-0.143 0.151-0.143 0.148-0.143 0.146-0.145 0.143-0.145 0.142-0.145 0.139-0.146 0.137-0.146 0.134-0.147 0.132-0.147 0.129-0.148 0.127-0.147 0.124-0.149 0.121-0.148 0.119-0.148 0.116-0.149 0.113-0.149 0.11-0.149 0.107-0.148 0.104-0.149 0.101-0.149 0.098-0.149 0.095-0.148 0.092-0.149 0.088-0.148 0.085-0.148 0.081-0.148 0.078-0.147 0.075-0.147 0.036-0.074 0.035-0.073 0.068-0.146 0.032-0.073 0.062-0.146 0.029-0.072 0.029-0.073 0.028-0.072 0.027-0.072 0.05-0.144 0.024-0.071 0.023-0.072 0.022-0.071 0.021-0.071 0.02-0.071 0.019-0.071 0.018-0.071 0.017-0.07 0.03-0.14 0.014-0.07 0.013-0.069 0.012-0.07 0.02-0.138 8e-3 -0.068 8e-3 -0.069 6e-3 -0.068 5e-3 -0.068 5e-3 -0.067 3e-3 -0.068 2e-3 -0.067v-0.133l-1e-3 -0.067-3e-3 -0.066-3e-3 -0.065-5e-3 -0.066-6e-3 -0.065-7e-3 -0.065-9e-3 -0.064-9e-3 -0.065-0.011-0.063-0.012-0.064-0.013-0.063-0.014-0.063-0.016-0.063-0.016-0.062-0.018-0.062-0.019-0.061-0.021-0.062-0.021-0.06-0.023-0.061-0.024-0.06-0.026-0.06-0.026-0.059-0.028-0.059-0.03-0.058-0.03-0.059-0.032-0.057-0.033-0.058-0.034-0.057-0.036-0.056-0.037-0.056-0.038-0.056-0.04-0.055-0.041-0.055-0.086-0.108-0.045-0.054-0.047-0.053-0.048-0.052-0.049-0.052-0.051-0.052-0.052-0.051-0.053-0.051-0.055-0.05-0.056-0.05-0.058-0.049-0.059-0.049-0.06-0.048-0.062-0.047-0.063-0.048-0.065-0.046-0.067-0.047-0.067-0.045-0.07-0.045-0.12-0.076-0.121-0.075-0.122-0.074-0.124-0.073-0.125-0.072-0.125-0.071-0.128-0.07-0.128-0.069-0.129-0.068-0.13-0.067-0.132-0.067-0.132-0.065-0.134-0.064-0.135-0.064-0.135-0.063-0.137-0.061-0.276-0.122-0.14-0.059-0.282-0.116-0.143-0.057-0.144-0.056-0.144-0.055-0.145-0.054-0.146-0.054-0.148-0.053-0.296-0.104-0.15-0.051-0.15-0.05-0.304-0.098-0.306-0.096-0.155-0.046-0.155-0.047-0.312-0.09-0.158-0.044-0.316-0.087-0.32-0.085-0.322-0.083-0.324-0.08-0.327-0.078-0.329-0.077-0.331-0.075-0.334-0.073-0.335-0.071-0.337-0.07-0.339-0.069-0.34-0.067-0.342-0.066-0.343-0.064-0.345-0.064-0.346-0.062-0.347-0.062-0.348-0.061-0.698-0.12-0.702-0.117-0.703-0.116-1.409-0.231-0.704-0.116-0.703-0.118-0.35-0.059-0.35-0.06-0.349-0.061-0.349-0.062-0.347-0.063-0.346-0.063-0.345-0.065-0.344-0.066-0.342-0.067-0.341-0.068-0.339-0.07-0.337-0.072-0.362-0.08-0.361-0.083-0.361-0.084-0.359-0.086-0.359-0.088-0.357-0.089-0.356-0.092-0.356-0.093-0.354-0.095-0.352-0.097-0.352-0.099-0.35-0.101-0.348-0.103-0.347-0.105-0.345-0.107-0.344-0.109-0.342-0.111-0.34-0.114-0.338-0.115-0.337-0.117-0.334-0.12-0.332-0.121-0.33-0.124-0.328-0.126-0.326-0.128-0.323-0.131-0.161-0.066-0.16-0.067-0.159-0.067-0.318-0.136-0.314-0.138-0.157-0.07-0.31-0.142-0.155-0.072-0.306-0.146-0.152-0.073-0.152-0.074-0.151-0.075-0.15-0.075-0.149-0.076-0.149-0.077-0.148-0.077-0.147-0.078-0.146-0.079-0.29-0.158-0.144-0.081-0.143-0.08-0.284-0.164-0.141-0.083-0.139-0.083-0.139-0.084-0.139-0.085-0.137-0.085-0.136-0.086-0.136-0.087-0.134-0.087-0.134-0.088-0.133-0.089-0.132-0.089-0.131-0.09-0.13-0.091-0.129-0.091-0.256-0.184-0.126-0.093-0.125-0.094-0.248-0.19-0.122-0.096-0.122-0.097-0.12-0.097-0.238-0.196-0.117-0.1-0.116-0.1-0.115-0.101-0.114-0.101-0.114-0.102-0.112-0.103-0.11-0.103-0.11-0.105-0.109-0.105-0.108-0.105-0.106-0.107-0.105-0.107-0.105-0.108-0.103-0.108-0.102-0.109-0.101-0.11-0.099-0.111-0.099-0.112-0.097-0.112-0.096-0.113-0.095-0.113-0.094-0.115-0.092-0.115-0.091-0.116-0.09-0.117-0.089-0.117-0.088-0.118-0.086-0.119-0.085-0.12-0.084-0.12-0.082-0.121-0.081-0.122-0.08-0.123-0.079-0.124-0.077-0.124-0.076-0.125-0.075-0.126-0.073-0.127-0.072-0.127-0.071-0.128-0.069-0.129-0.068-0.13-0.066-0.131-0.065-0.131-0.064-0.132-0.062-0.133-0.061-0.134-0.06-0.134-0.058-0.136-0.056-0.136-0.055-0.137-0.054-0.138-0.052-0.138-0.051-0.14-0.05-0.14-0.047-0.141-0.047-0.142-0.045-0.143-0.043-0.144-0.042-0.144-0.04-0.145-0.039-0.146-0.037-0.147-0.036-0.148-0.034-0.149-0.032-0.149-0.031-0.151-0.03-0.151-0.027-0.152-0.027-0.153-0.024-0.154-0.023-0.154-0.021-0.156-0.02-0.156-0.018-0.157-0.017-0.158-0.014-0.159-0.013-0.16-0.012-0.161-0.01-0.162-8e-3 -0.162-6e-3 -0.164-5e-3 -0.164-3e-3 -0.165-1e-3 -0.166 1e-3 -0.167 2e-3 -0.168 4e-3 -0.169 6e-3 -0.17 7e-3 -0.17 9e-3 -0.172 0.012-0.172 0.012-0.174 0.015-0.174 0.016-0.175 0.019-0.176 0.02-0.177 0.022-0.178 0.023-0.179 0.026-0.18 0.027-0.181 0.03-0.181 0.031-0.183 0.033-0.184 0.035-0.184 0.037-0.186 0.039-0.186 0.04-0.187 0.043-0.189 0.044-0.189 0.047-0.19 0.048-0.192 0.05-0.192 0.053-0.193 0.054-0.194 0.056-0.195 0.058-0.196 0.061-0.197 0.062-0.198 0.064-0.199 0.066-0.2 0.068-0.201 0.071-0.202 0.072-0.203 0.074-0.204 0.077-0.205 0.078-0.206 0.081-0.207 0.083-0.208 0.084-0.209 0.087-0.209 0.089-0.211 0.091-0.212 0.093-0.213 0.096-0.214 0.097-0.215 0.1-0.216 0.102-0.217 0.104-0.219 0.106-0.219 0.108-0.22 0.11-0.221 0.113-0.222 0.115-0.224 0.117-0.224 0.119-0.225 0.122-0.227 0.124-0.227 0.126-0.229 0.128-0.229 0.131-0.231 0.11-0.191 0.111-0.192 0.114-0.191 0.116-0.192 0.117-0.192 0.119-0.193 0.121-0.192 0.123-0.193 0.125-0.192 0.126-0.193 0.128-0.193 0.13-0.193 0.132-0.193 0.133-0.193 0.136-0.193 0.137-0.193 0.138-0.193 0.14-0.194 0.142-0.193 0.144-0.193 0.145-0.193 0.147-0.193 0.149-0.193 0.15-0.193 0.151-0.193 0.154-0.192 0.155-0.193 0.156-0.192 0.158-0.193 0.159-0.192 0.161-0.192 0.163-0.192 0.164-0.191 0.165-0.192 0.167-0.191 0.169-0.191 0.17-0.191 0.171-0.19 0.173-0.19 0.174-0.19 0.175-0.19 0.177-0.189 0.178-0.189 0.18-0.189 0.181-0.188 0.182-0.188 0.183-0.188 0.185-0.187 0.186-0.187 0.376-0.372 0.19-0.185 0.191-0.185 0.193-0.185 0.193-0.184 0.195-0.184 0.196-0.183 0.197-0.182 0.198-0.182 0.2-0.182 0.2-0.181 0.202-0.18 0.203-0.18 0.203-0.179 0.205-0.179 0.206-0.178 0.207-0.177 0.208-0.177 0.21-0.176 0.21-0.175 0.211-0.175 0.212-0.174 0.213-0.173 0.214-0.172 0.215-0.172 0.216-0.171 0.217-0.171 0.218-0.169 0.219-0.169 0.219-0.168 0.221-0.167 0.221-0.166 0.222-0.165 0.223-0.165 0.224-0.163 0.225-0.163 0.225-0.162 0.226-0.161 0.227-0.16 0.228-0.159 0.228-0.158 0.23-0.158 0.23-0.156 0.23-0.155 0.464-0.308 0.232-0.152 0.234-0.151 0.234-0.15 0.234-0.149 0.235-0.148 0.236-0.147 0.237-0.146 0.237-0.145 0.237-0.143 0.238-0.143 0.239-0.141 0.239-0.14 0.24-0.139 0.24-0.137 0.241-0.137 0.241-0.135 0.242-0.134 0.242-0.133 0.242-0.132 0.243-0.13 0.244-0.129 0.243-0.128 0.245-0.126 0.244-0.125 0.245-0.124 0.245-0.122 0.246-0.121 0.246-0.12 0.246-0.118 0.246-0.117 0.247-0.115 0.247-0.114 0.338-0.154 0.338-0.152 0.337-0.15 0.338-0.147 0.337-0.146 0.337-0.144 0.336-0.141 0.336-0.14 0.337-0.138 0.335-0.135 0.336-0.134 0.335-0.132 0.335-0.13 0.335-0.127 0.334-0.126 0.334-0.124 0.334-0.122 0.334-0.12 0.333-0.118 0.333-0.117 0.333-0.114 0.332-0.113 0.332-0.111 0.332-0.108 0.331-0.107 0.331-0.106 0.33-0.103 0.331-0.102 0.33-0.099 0.329-0.098 0.329-0.097 0.329-0.094 0.329-0.093 0.328-0.091 0.328-0.089 0.327-0.087 0.327-0.086 0.327-0.084 0.326-0.082 0.326-0.081 0.325-0.079 0.325-0.077 0.324-0.076 0.324-0.074 0.324-0.072 0.323-0.071 0.323-0.069 0.323-0.067 0.322-0.066 0.321-0.064 0.321-0.063 0.321-0.061 0.32-0.06 0.319-0.058 0.32-0.056 0.318-0.055 0.319-0.054 0.634-0.102 0.317-0.049 0.316-0.047 0.316-0.046 0.315-0.045 0.315-0.043 0.314-0.041 0.314-0.04 0.313-0.039 0.313-0.037 0.312-0.036 0.311-0.035 0.311-0.033 0.311-0.032 0.31-0.03 0.309-0.029 0.309-0.028 0.308-0.026 0.307-0.026 0.614-0.046 0.306-0.021 0.305-0.02 0.305-0.018 0.304-0.018 0.303-0.016 0.303-0.015 0.604-0.026 0.301-0.011 0.3-0.01 0.3-9e-3 0.299-7e-3 0.298-7e-3 0.298-5e-3 0.297-4e-3 0.296-3e-3 0.296-2e-3h0.295zm-0.578 2.694-0.286 2e-3 -0.286 3e-3 -0.287 4e-3 -0.287 5e-3 -0.288 6e-3 -0.289 7e-3 -0.289 9e-3 -0.58 0.02-0.291 0.012-0.292 0.013-0.584 0.03-0.294 0.017-0.294 0.018-0.294 0.019-0.295 0.02-0.295 0.022-0.296 0.023-0.297 0.024-0.297 0.026-0.298 0.026-0.298 0.028-0.298 0.03-0.3 0.03-0.3 0.032-0.6 0.068-0.302 0.036-0.604 0.076-0.303 0.04-0.303 0.042-0.304 0.043-0.304 0.044-0.304 0.046-0.306 0.047-0.305 0.048-0.306 0.05-0.307 0.052-0.307 0.053-0.307 0.054-0.308 0.056-0.309 0.057-0.309 0.059-0.618 0.122-0.31 0.064-0.311 0.065-0.311 0.066-0.311 0.068-0.312 0.07-0.312 0.071-0.313 0.073-0.313 0.075-0.313 0.076-0.314 0.077-0.314 0.08-0.315 0.081-0.315 0.082-0.315 0.084-0.316 0.086-0.316 0.088-0.316 0.089-0.317 0.091-0.317 0.093-0.318 0.094-0.317 0.096-0.319 0.098-0.318 0.1-0.319 0.101-0.319 0.103-0.32 0.105-0.32 0.107-0.32 0.108-0.32 0.111-0.321 0.112-0.322 0.114-0.321 0.115-0.322 0.118-0.322 0.119-0.322 0.122-0.323 0.123-0.323 0.125-0.323 0.127-0.324 0.129-0.323 0.131-0.324 0.133-0.325 0.134-0.324 0.137-0.325 0.138-0.325 0.141-0.326 0.142-0.326 0.145-0.325 0.147-0.326 0.148-0.235 0.108-0.234 0.11-0.234 0.111-0.234 0.112-0.234 0.114-0.233 0.115-0.233 0.116-0.233 0.118-0.233 0.119-0.232 0.12-0.233 0.122-0.231 0.122-0.232 0.125-0.231 0.125-0.231 0.127-0.231 0.128-0.23 0.129-0.229 0.13-0.23 0.131-0.229 0.133-0.228 0.134-0.228 0.135-0.228 0.136-0.227 0.137-0.226 0.138-0.227 0.14-0.225 0.14-0.225 0.142-0.225 0.143-0.224 0.143-0.223 0.145-0.223 0.146-0.222 0.146-0.221 0.148-0.221 0.149-0.22 0.149-0.22 0.151-0.219 0.152-0.218 0.152-0.218 0.153-0.216 0.154-0.432 0.312-0.214 0.156-0.214 0.158-0.213 0.159-0.212 0.159-0.211 0.16-0.211 0.161-0.418 0.324-0.208 0.163-0.207 0.164-0.206 0.165-0.205 0.165-0.204 0.166-0.406 0.334-0.201 0.168-0.4 0.338-0.198 0.17-0.197 0.17-0.196 0.171-0.195 0.172-0.194 0.172-0.193 0.172-0.192 0.173-0.191 0.174-0.19 0.174-0.188 0.175-0.374 0.35-0.368 0.352-0.183 0.177-0.181 0.177-0.18 0.178-0.179 0.177-0.177 0.178-0.176 0.179-0.175 0.179-0.174 0.179-0.172 0.179-0.171 0.179-0.17 0.18-0.168 0.18-0.167 0.181-0.165 0.18-0.164 0.181-0.163 0.181-0.161 0.181-0.16 0.181-0.158 0.181-0.157 0.181-0.155 0.182-0.154 0.181-0.152 0.182-0.151 0.181-0.149 0.182-0.147 0.182-0.146 0.181-0.145 0.182-0.143 0.181-0.141 0.182-0.139 0.181-0.138 0.181-0.137 0.182-0.134 0.181-0.133 0.181-0.132 0.18-0.129 0.181-0.128 0.18-0.126 0.18-0.124 0.18-0.123 0.18-0.121 0.179-0.119 0.179-0.117 0.179-0.115 0.178-0.114 0.179-0.112 0.177-0.11 0.178-0.108 0.177-0.106 0.176-0.104 0.176-0.103 0.176-0.101 0.176-0.123 0.217-0.121 0.216-0.119 0.215-0.116 0.214-0.114 0.213-0.112 0.212-0.11 0.21-0.108 0.209-0.105 0.208-0.103 0.207-0.101 0.205-0.099 0.204-0.097 0.203-0.094 0.201-0.093 0.201-0.09 0.199-0.088 0.198-0.086 0.196-0.084 0.196-0.082 0.194-0.08 0.193-0.077 0.191-0.076 0.191-0.074 0.189-0.071 0.188-0.07 0.186-0.068 0.186-0.065 0.184-0.064 0.183-0.062 0.182-0.059 0.18-0.058 0.179-0.056 0.178-0.054 0.177-0.052 0.175-0.05 0.175-0.049 0.173-0.046 0.171-0.045 0.171-0.043 0.169-0.041 0.168-0.039 0.167-0.038 0.166-0.035 0.165-0.034 0.163-0.032 0.162-0.031 0.161-0.056 0.318-0.025 0.157-0.024 0.156-0.022 0.155-0.02 0.154-0.019 0.152-0.017 0.151-0.016 0.151-0.014 0.149-0.012 0.148-0.011 0.147-9e-3 0.145-8e-3 0.145-6e-3 0.143-5e-3 0.142-4e-3 0.142-1e-3 0.14-1e-3 0.139 1e-3 0.138 3e-3 0.137 3e-3 0.136 6e-3 0.135 6e-3 0.133 8e-3 0.133 0.01 0.132 0.01 0.131 0.013 0.13 0.013 0.129 0.015 0.128 0.016 0.127 0.017 0.126 0.019 0.125 0.019 0.124 0.022 0.124 0.022 0.122 0.024 0.122 0.024 0.121 0.026 0.119 0.028 0.12 0.028 0.118 0.03 0.118 0.031 0.116 0.032 0.117 0.034 0.115 0.034 0.114 0.036 0.114 0.037 0.113 0.038 0.113 0.039 0.111 0.041 0.112 0.041 0.11 0.043 0.11 0.044 0.109 0.045 0.108 0.094 0.216 0.048 0.106 0.05 0.107 0.051 0.105 0.052 0.105 0.053 0.105 0.055 0.104 0.055 0.103 0.057 0.103 0.058 0.102 0.059 0.102 0.06 0.102 0.061 0.101 0.126 0.2 0.065 0.099 0.066 0.099 0.067 0.099 0.068 0.098 0.069 0.098 0.071 0.097 0.072 0.097 0.072 0.096 0.074 0.096 0.152 0.19 0.077 0.095 0.079 0.094 0.08 0.094 0.081 0.093 0.082 0.093 0.083 0.092 0.084 0.093 0.172 0.182 0.088 0.091 0.089 0.091 0.09 0.089 0.091 0.09 0.186 0.178 0.19 0.176 0.097 0.088 0.098 0.087 0.099 0.086 0.1 0.086 0.204 0.172 0.103 0.084 0.105 0.085 0.212 0.168 0.108 0.083 0.109 0.082 0.11 0.083 0.111 0.082 0.112 0.081 0.113 0.081 0.114 0.081 0.115 0.08 0.116 0.079 0.117 0.08 0.118 0.078 0.119 0.079 0.121 0.078 0.121 0.077 0.122 0.077 0.123 0.077 0.124 0.076 0.125 0.075 0.126 0.075 0.127 0.075 0.127 0.074 0.129 0.074 0.13 0.073 0.262 0.146 0.133 0.072 0.133 0.071 0.134 0.071 0.135 0.071 0.136 0.07 0.274 0.138 0.139 0.069 0.139 0.068 0.14 0.068 0.141 0.067 0.142 0.067 0.143 0.067 0.143 0.065 0.144 0.066 0.145 0.065 0.145 0.064 0.294 0.128 0.148 0.063 0.148 0.062 0.15 0.062 0.147 0.061 0.305 0.123 0.305 0.12 0.307 0.118 0.31 0.116 0.313 0.115 0.315 0.113 0.317 0.11 0.32 0.109 0.322 0.107 0.324 0.106 0.326 0.103 0.328 0.102 0.33 0.1 0.332 0.098 0.333 0.096 0.336 0.095 0.337 0.092 0.339 0.091 0.34 0.09 0.341 0.087 0.343 0.086 0.344 0.085 0.346 0.082 0.346 0.081 0.348 0.079 0.341 0.076 0.317 0.068 0.326 0.067 0.328 0.066 0.33 0.064 0.333 0.064 0.335 0.063 0.337 0.062 0.338 0.061 0.341 0.06 0.343 0.06 0.343 0.059 0.345 0.059 0.696 0.116 0.7 0.116 1.409 0.23 0.708 0.117 0.708 0.119 0.356 0.061 0.355 0.061 0.355 0.062 0.355 0.063 0.354 0.064 0.354 0.065 0.354 0.067 0.353 0.068 0.353 0.069 0.352 0.072 0.35 0.072 0.351 0.075 0.349 0.076 0.348 0.079 0.347 0.081 0.345 0.083 0.345 0.085 0.343 0.088 0.341 0.091 0.337 0.092 0.173 0.049 0.169 0.048 0.168 0.049 0.168 0.05 0.168 0.051 0.334 0.104 0.332 0.108 0.165 0.055 0.165 0.056 0.328 0.114 0.163 0.059 0.162 0.06 0.324 0.122 0.161 0.063 0.16 0.064 0.16 0.065 0.159 0.066 0.158 0.067 0.158 0.069 0.157 0.069 0.156 0.071 0.156 0.072 0.155 0.073 0.154 0.074 0.154 0.076 0.153 0.077 0.152 0.078 0.151 0.08 0.151 0.081 0.149 0.083 0.149 0.084 0.148 0.085 0.147 0.087 0.146 0.088 0.146 0.09 0.146 0.093 0.101 0.066 0.102 0.068 0.101 0.071 0.1 0.071 0.098 0.074 0.097 0.075 0.096 0.076 0.094 0.078 0.093 0.078 0.091 0.081 0.09 0.083 0.088 0.083 0.087 0.086 0.085 0.086 0.084 0.089 0.082 0.09 0.08 0.091 0.078 0.093 0.076 0.094 0.075 0.096 0.072 0.096 0.071 0.098 0.068 0.1 0.067 0.101 0.065 0.102 0.062 0.103 0.06 0.105 0.058 0.105 0.056 0.106 0.053 0.108 0.052 0.108 0.049 0.109 0.046 0.11 0.045 0.11 0.042 0.112 0.04 0.112 0.037 0.112 0.035 0.112 0.033 0.113 0.03 0.114 0.028 0.113 0.026 0.114 0.024 0.114 0.021 0.114 0.019 0.114 0.017 0.114 0.015 0.114 0.012 0.114 0.011 0.114 8e-3 0.113 6e-3 0.113 5e-3 0.113 2e-3 0.112 1e-3 0.113-2e-3 0.111-3e-3 0.112-5e-3 0.111-7e-3 0.111-9e-3 0.109-0.01 0.11-0.012 0.109-0.013 0.109-0.015 0.108-0.017 0.108-0.018 0.107-0.02 0.107-0.02 0.106-0.023 0.105-0.024 0.106-0.025 0.104-0.026 0.104-0.028 0.104-0.029 0.103-0.03 0.103-0.031 0.102-0.033 0.102-0.034 0.101-0.07 0.2-0.076 0.2-0.039 0.099-0.04 0.098-0.041 0.098-0.043 0.098-0.043 0.097-0.044 0.097-0.045 0.096-0.046 0.096-0.049 0.101-0.094 0.185-0.1 0.189-0.104 0.187-0.106 0.186-0.11 0.185-0.114 0.184-0.116 0.182-0.119 0.181-0.122 0.18-0.126 0.179-0.128 0.178-0.13 0.177-0.134 0.176-0.136 0.174-0.139 0.174-0.141 0.173-0.144 0.171-0.146 0.171-0.149 0.17-0.151 0.168-0.153 0.168-0.156 0.167-0.158 0.165-0.16 0.165-0.162 0.163-0.165 0.163-0.166 0.161-0.168 0.16-0.171 0.159-0.172 0.158-0.174 0.157-0.176 0.156-0.178 0.155-0.18 0.153-0.181 0.152-0.183 0.151-0.184 0.15-0.186 0.148-0.188 0.147-0.189 0.146-0.191 0.144-0.192 0.143-0.193 0.142-0.195 0.14-0.196 0.139-0.197 0.137-0.199 0.135-0.2 0.134-0.2 0.132-0.202 0.131-0.204 0.129-0.203 0.128-0.205 0.125-0.206 0.124-0.207 0.122-0.208 0.121-0.208 0.118-0.21 0.116-0.21 0.115-0.21 0.112-0.212 0.111-0.212 0.109-0.213 0.106-0.213 0.104-0.214 0.102-0.214 0.1-0.215 0.098-0.216 0.096-0.216 0.093-0.216 0.09-0.217 0.089-0.217 0.086-0.217 0.083-0.218 0.081-0.218 0.078-0.218 0.076-0.218 0.073-0.219 0.07-0.219 0.068-0.219 0.065-0.22 0.061-0.219 0.059-0.214 0.054-0.226 0.056-0.219 0.052-0.218 0.052-0.217 0.05-0.216 0.05-0.215 0.048-0.213 0.047-0.213 0.046-0.212 0.044-0.211 0.044-0.418 0.084-0.208 0.04-0.207 0.039-0.205 0.038-0.205 0.037-0.204 0.036-0.203 0.035-0.402 0.066-0.2 0.031-0.199 0.031-0.198 0.029-0.196 0.028-0.196 0.027-0.195 0.026-0.194 0.025-0.193 0.024-0.192 0.023-0.191 0.021-0.19 0.021-0.19 0.019-0.188 0.019-0.187 0.017-0.372 0.032-0.184 0.014-0.184 0.013-0.182 0.012-0.182 0.011-0.181 0.01-0.18 9e-3 -0.179 7e-3 -0.178 7e-3 -0.177 6e-3 -0.176 4e-3 -0.175 4e-3 -0.348 4e-3h-0.173l-0.342-2e-3 -0.17-3e-3 -0.169-4e-3 -0.168-5e-3 -0.167-6e-3 -0.166-7e-3 -0.166-8e-3 -0.164-9e-3 -0.164-0.01-0.163-0.011-0.162-0.013-0.161-0.013-0.16-0.014-0.16-0.016-0.158-0.016-0.158-0.018-0.157-0.018-0.156-0.02-0.155-0.021-0.154-0.022-0.153-0.022-0.153-0.024-0.151-0.025-0.151-0.026-0.15-0.027-0.149-0.028-0.148-0.029-0.148-0.03-0.292-0.064-0.145-0.033-0.144-0.035-0.143-0.035-0.142-0.037-0.282-0.076-0.14-0.04-0.138-0.041-0.138-0.042-0.137-0.043-0.136-0.044-0.136-0.045-0.268-0.094-0.132-0.048-0.132-0.05-0.131-0.05-0.13-0.052-0.129-0.052-0.128-0.054-0.128-0.055-0.126-0.056-0.126-0.057-0.124-0.058-0.124-0.059-0.123-0.06-0.121-0.061-0.121-0.062-0.12-0.064-0.119-0.064-0.118-0.066-0.117-0.066-0.116-0.068-0.115-0.068-0.114-0.07-0.113-0.071-0.112-0.071-0.111-0.073-0.11-0.074-0.109-0.075-0.108-0.076-0.107-0.076-0.106-0.078-0.105-0.079-0.104-0.08-0.102-0.081-0.102-0.082-0.101-0.083-0.099-0.084-0.098-0.084-0.098-0.086-0.096-0.087-0.095-0.087-0.094-0.088-0.093-0.09-0.091-0.09-0.091-0.091-0.09-0.092-0.088-0.093-0.087-0.094-0.086-0.095-0.085-0.095-0.083-0.096-0.083-0.097-0.081-0.098-0.08-0.099-0.079-0.099-0.078-0.101-0.152-0.202-0.074-0.103-0.073-0.103-0.071-0.104-0.071-0.105-0.069-0.105-0.069-0.106-0.066-0.106-0.066-0.108-0.065-0.108-0.063-0.108-0.062-0.109-0.061-0.11-0.06-0.11-0.059-0.111-0.057-0.112-0.056-0.112-0.055-0.112-0.054-0.113-0.053-0.114-0.102-0.228-0.049-0.115-0.094-0.232-0.046-0.116-0.088-0.234-0.042-0.118-0.041-0.118-0.04-0.119-0.039-0.119-0.037-0.119-0.037-0.12-0.035-0.12-0.035-0.121-0.033-0.12-0.032-0.121-0.031-0.122-0.03-0.122-0.029-0.122-0.028-0.122-0.027-0.123-0.025-0.123-0.025-0.124-0.023-0.123-0.023-0.124-0.021-0.124-0.021-0.125-0.038-0.25-0.017-0.125-0.032-0.252-0.014-0.125-0.014-0.127-0.012-0.127-0.012-0.126-0.02-0.254-0.016-0.256-6e-3 -0.128-6e-3 -0.127-5e-3 -0.129-4e-3 -0.128-3e-3 -0.129-2e-3 -0.129-1e-3 -0.129v-0.129l1e-3 -0.129 4e-3 -0.26 8e-3 -0.26 5e-3 -0.135 0.013-0.257 0.017-0.262 0.02-0.262 0.023-0.263 0.027-0.264 0.03-0.264 0.033-0.265 0.037-0.265 0.04-0.266 0.035-0.212-21.983 2.88-0.527 1.694-0.108 0.357-0.105 0.356-0.102 0.356-0.1 0.354-0.096 0.353-0.093 0.352-0.091 0.351-0.087 0.349-0.084 0.348-0.081 0.346-0.077 0.345-0.076 0.346-0.035 0.169-0.035 0.171-0.035 0.17-0.034 0.17-0.032 0.17-0.064 0.338-0.06 0.336-0.029 0.167-0.027 0.167-0.028 0.167-0.026 0.166-0.025 0.166-0.025 0.165-0.024 0.165-0.023 0.164-0.022 0.164-0.021 0.163-0.04 0.326-0.019 0.161-0.017 0.162-0.017 0.161-0.017 0.16-0.015 0.16-0.028 0.318-0.024 0.316-0.011 0.157-0.01 0.157-9e-3 0.156-9e-3 0.155-0.014 0.31-5e-3 0.154-5e-3 0.153-4e-3 0.152-3e-3 0.152-2e-3 0.152-1e-3 0.151-1e-3 0.15 1e-3 0.15 1e-3 0.149 6e-3 0.296 4e-3 0.147 5e-3 0.147 6e-3 0.146 0.014 0.29 9e-3 0.144 9e-3 0.143 0.011 0.143 0.011 0.142 0.012 0.141 0.013 0.141 0.014 0.14 0.015 0.139 0.016 0.139 0.017 0.138 0.017 0.137 0.019 0.137 0.019 0.136 0.02 0.135 0.021 0.135 0.023 0.134 0.023 0.133 0.023 0.132 0.025 0.132 0.026 0.131 0.054 0.26 0.028 0.129 0.03 0.128 0.03 0.127 0.031 0.127 0.032 0.126 0.033 0.125 0.034 0.125 0.035 0.124 0.035 0.123 0.074 0.244 0.039 0.121 0.039 0.12 0.04 0.12 0.041 0.118 0.042 0.118 0.043 0.118 0.044 0.116 0.045 0.116 0.045 0.115 0.047 0.115 0.047 0.113 0.098 0.226 0.05 0.111 0.051 0.111 0.052 0.11 0.053 0.11 0.054 0.108 0.055 0.109 0.044 0.085 0.045 0.084 0.046 0.085 0.046 0.084 0.047 0.083 0.048 0.083 0.048 0.082 0.098 0.164 0.05 0.081 0.102 0.16 0.052 0.08 0.053 0.079 0.054 0.079 0.053 0.078 0.11 0.156 0.056 0.077 0.114 0.152 0.116 0.152 0.06 0.075 0.059 0.074 0.122 0.148 0.124 0.146 0.063 0.073 0.064 0.072 0.064 0.071 0.065 0.072 0.066 0.071 0.066 0.07 0.067 0.071 0.068 0.069 0.068 0.07 0.069 0.069 0.07 0.068 0.07 0.069 0.071 0.068 0.144 0.134 0.073 0.067 0.074 0.067 0.074 0.066 0.076 0.065 0.075 0.066 0.077 0.064 0.077 0.065 0.077 0.064 0.158 0.128 0.16 0.126 0.081 0.062 0.082 0.062 0.082 0.061 0.084 0.062 0.083 0.061 0.255 0.18 0.087 0.059 0.087 0.06 0.176 0.116 0.09 0.059 0.18 0.114 0.091 0.057 0.092 0.056 0.093 0.057 0.093 0.056 0.093 0.055 0.095 0.055 0.092 0.053 0.196 0.11 0.195 0.106 0.197 0.105 0.2 0.104 0.203 0.102 0.205 0.1 0.208 0.099 0.21 0.098 0.213 0.096 0.215 0.094 0.218 0.093 0.221 0.091 0.223 0.09 0.225 0.088 0.228 0.087 0.23 0.085 0.232 0.083 0.235 0.082 0.237 0.081 0.24 0.078 0.242 0.078 0.244 0.075 0.246 0.074 0.248 0.073 0.251 0.07 0.253 0.07 0.255 0.067 0.257 0.066 0.26 0.065 0.261 0.063 0.264 0.061 0.265 0.06 0.268 0.058 0.27 0.056 0.271 0.055 0.273 0.053 0.276 0.052 0.277 0.05 0.279 0.049 0.282 0.047 0.283 0.046 0.284 0.043 0.287 0.043 0.288 0.041 0.29 0.039 0.292 0.037 0.293 0.037 0.295 0.034 0.297 0.033 0.298 0.032 0.3 0.03 0.301 0.028 0.303 0.027 0.305 0.025 0.306 0.024 0.307 0.022 0.309 0.021 0.31 0.019 0.312 0.018 0.313 0.017 0.314 0.014 0.316 0.014 0.317 0.012 0.319 0.01 0.32 9e-3 0.32 8e-3 0.322 6e-3 0.648 8e-3 0.652 2e-3 0.328-1e-3 0.329-3e-3 0.33-4e-3 0.331-5e-3 0.332-7e-3 0.333-8e-3 0.334-9e-3 0.334-0.011 0.336-0.012 0.337-0.014 0.337-0.015 0.338-0.016 0.34-0.017 0.339-0.019 0.341-0.02 0.342-0.022 0.342-0.023 0.342-0.024 0.3-0.022 0.301-0.023 0.302-0.025 0.304-0.026 0.305-0.027 0.306-0.029 0.307-0.03 0.309-0.031 0.309-0.032 0.311-0.034 0.312-0.035 0.312-0.036 0.314-0.037 0.315-0.039 0.316-0.041 0.317-0.041 0.318-0.043 0.318-0.044 0.32-0.046 0.32-0.047 0.322-0.048 0.322-0.05 0.323-0.051 0.324-0.053 0.324-0.054 0.326-0.055 0.325-0.057 0.327-0.058 0.328-0.06 0.328-0.061 0.328-0.063 0.329-0.064 0.33-0.065 0.33-0.067 0.331-0.068 0.331-0.07 0.332-0.071 0.332-0.073 0.666-0.15 0.333-0.078 0.334-0.079 0.334-0.08 0.334-0.082 0.335-0.083 0.335-0.085 0.335-0.087 0.336-0.088 0.335-0.089 0.672-0.184 0.336-0.095 0.336-0.096 0.336-0.097 0.336-0.099 0.337-0.101 0.336-0.102 0.336-0.104 0.336-0.106 0.336-0.107 0.336-0.109 0.336-0.111 0.336-0.112 0.336-0.114 0.335-0.115 0.335-0.117 0.335-0.119 0.335-0.12 0.335-0.123 0.334-0.123 0.334-0.126 0.333-0.127 0.333-0.129 0.333-0.131 0.333-0.132 0.331-0.134 0.332-0.136 0.331-0.138 0.33-0.139 0.33-0.141 0.33-0.143 0.328-0.144 0.329-0.147 0.327-0.148 0.327-0.15 0.327-0.151 0.325-0.154 0.325-0.155 0.324-0.157 0.324-0.159 0.322-0.161 0.322-0.162 0.321-0.164 0.321-0.167 0.319-0.167 0.318-0.17 0.318-0.172 0.317-0.173 0.315-0.176 0.315-0.177 0.314-0.179 0.312-0.181 0.312-0.183 0.31-0.184 0.31-0.187 0.308-0.189 0.308-0.19 0.306-0.192 0.305-0.194 0.303-0.196 0.303-0.198 0.301-0.2 0.3-0.202 0.299-0.204 0.298-0.206 0.296-0.208 0.295-0.209 0.293-0.212 0.292-0.213 0.291-0.216 0.289-0.217 0.288-0.22 0.286-0.221 0.285-0.224 0.283-0.225 0.282-0.228 0.281-0.229 0.28-0.233 0.234-0.197 0.233-0.197 0.232-0.197 0.23-0.198 0.228-0.197 0.226-0.197 0.224-0.198 0.223-0.197 0.221-0.197 0.219-0.197 0.217-0.197 0.215-0.197 0.214-0.196 0.212-0.197 0.21-0.196 0.208-0.197 0.207-0.196 0.204-0.196 0.203-0.196 0.202-0.196 0.199-0.196 0.198-0.196 0.196-0.195 0.194-0.196 0.192-0.195 0.191-0.195 0.189-0.195 0.187-0.195 0.186-0.194 0.184-0.195 0.182-0.194 0.18-0.194 0.179-0.194 0.352-0.388 0.173-0.193 0.172-0.193 0.17-0.193 0.169-0.193 0.166-0.193 0.165-0.192 0.164-0.192 0.161-0.192 0.16-0.192 0.159-0.191 0.156-0.192 0.155-0.191 0.154-0.19 0.151-0.191 0.15-0.19 0.149-0.19 0.292-0.38 0.143-0.189 0.142-0.189 0.14-0.188 0.139-0.189 0.137-0.188 0.135-0.188 0.134-0.187 0.132-0.188 0.13-0.187 0.129-0.186 0.128-0.186 0.125-0.186 0.124-0.186 0.123-0.185 0.121-0.185 0.119-0.185 0.118-0.185 0.116-0.183 0.115-0.184 0.113-0.184 0.112-0.182 0.11-0.183 0.108-0.182 0.107-0.182 0.106-0.182 0.104-0.181 0.102-0.18 0.101-0.181 0.099-0.18 0.098-0.179 0.096-0.179 0.095-0.179 0.093-0.179 0.092-0.178 0.09-0.177 0.089-0.177 0.087-0.177 0.086-0.176 0.084-0.176 0.083-0.175 0.082-0.175 0.08-0.175 0.078-0.174 0.077-0.173 0.076-0.174 0.074-0.172 0.072-0.173 0.072-0.171 0.07-0.172 0.068-0.17 0.067-0.17 0.13-0.34 0.063-0.169 0.061-0.168 0.06-0.168 0.116-0.334 0.11-0.332 0.053-0.165 0.052-0.165 0.05-0.164 0.049-0.164 0.048-0.163 0.046-0.162 0.045-0.163 0.086-0.322 0.041-0.16 0.078-0.32 0.037-0.158 0.036-0.158 0.034-0.158 0.033-0.157 0.032-0.156 0.031-0.156 0.029-0.155 0.028-0.155 0.027-0.154 0.025-0.154 0.025-0.152 0.023-0.153 0.021-0.152 0.021-0.15 0.019-0.151 0.018-0.15 0.017-0.149 0.016-0.148 0.014-0.149 0.014-0.147 0.012-0.146 0.011-0.147 0.018-0.29 7e-3 -0.144 6e-3 -0.144 5e-3 -0.143 4e-3 -0.142 3e-3 -0.141 2e-3 -0.142v-0.14l-1e-3 -0.139-2e-3 -0.139-3e-3 -0.139-4e-3 -0.137-5e-3 -0.138-6e-3 -0.136-8e-3 -0.136-8e-3 -0.135-0.02-0.268-0.012-0.133-0.013-0.133-0.014-0.131-0.015-0.131-0.016-0.131-0.017-0.13-0.018-0.129-0.019-0.128-0.02-0.128-0.022-0.127-0.022-0.126-0.023-0.126-0.024-0.125-0.052-0.248-0.027-0.123-0.058-0.244-0.03-0.121-0.032-0.121-0.032-0.119-0.033-0.119-0.034-0.119-0.072-0.234-0.037-0.116-0.038-0.116-0.039-0.115-0.04-0.114-0.041-0.114-0.042-0.113-0.043-0.112-0.044-0.111-0.044-0.112-0.046-0.11-0.047-0.11-0.047-0.108-0.048-0.108-0.05-0.108-0.05-0.107-0.051-0.106-0.053-0.106-0.052-0.105-0.054-0.104-0.055-0.104-0.056-0.103-0.057-0.102-0.057-0.101-0.059-0.101-0.059-0.1-0.06-0.1-0.061-0.099-0.062-0.098-0.063-0.098-0.064-0.097-0.065-0.096-0.066-0.096-0.066-0.095-0.067-0.094-0.069-0.094-0.069-0.093-0.07-0.092-0.071-0.092-0.072-0.091-0.072-0.09-0.074-0.09-0.075-0.089-0.075-0.088-0.076-0.088-0.077-0.087-0.078-0.086-0.079-0.086-0.08-0.085-0.081-0.085-0.164-0.166-0.083-0.083-0.17-0.162-0.086-0.081-0.087-0.079-0.176-0.158-0.18-0.154-0.184-0.152-0.093-0.075-0.094-0.074-0.096-0.074-0.093-0.07-0.094-0.071-0.095-0.07-0.096-0.069-0.097-0.069-0.097-0.068-0.099-0.068-0.099-0.067-0.1-0.067-0.101-0.067-0.101-0.066-0.206-0.13-0.104-0.064-0.105-0.064-0.106-0.064-0.106-0.062-0.108-0.063-0.108-0.062-0.218-0.122-0.111-0.061-0.111-0.06-0.112-0.06-0.226-0.118-0.23-0.116-0.115-0.057-0.117-0.057-0.117-0.056-0.118-0.056-0.119-0.056-0.24-0.11-0.242-0.108-0.12-0.052-0.25-0.106-0.249-0.104-0.253-0.102-0.255-0.1-0.257-0.099-0.26-0.097-0.263-0.096-0.265-0.094-0.268-0.092-0.27-0.091-0.272-0.089-0.275-0.088-0.277-0.087-0.279-0.085-0.281-0.083-0.283-0.083-0.285-0.081-0.287-0.08-0.289-0.078-0.291-0.078-0.293-0.076-0.294-0.075-0.296-0.074-0.298-0.073-0.3-0.072-0.3-0.07-0.303-0.07-0.304-0.069-0.305-0.068-0.307-0.067-0.308-0.067-0.309-0.065-0.31-0.065-0.624-0.128-0.314-0.063-0.313-0.062-0.634-0.123-0.635-0.121-0.639-0.12-0.641-0.119-0.643-0.118-0.645-0.117-1.294-0.235-0.648-0.118-0.649-0.119-0.649-0.12-0.648-0.122-0.648-0.125-0.645-0.126-0.324-0.064-0.323-0.065-0.322-0.066-0.321-0.067-0.642-0.136-0.32-0.07-0.319-0.071-0.319-0.072-0.318-0.073-0.317-0.074-0.316-0.075-0.316-0.077-0.314-0.078-0.314-0.08-0.313-0.081-0.312-0.082-0.62-0.17-0.309-0.088-0.307-0.089-0.306-0.091-0.305-0.093-0.304-0.095-0.303-0.097-0.301-0.099-0.299-0.102-0.299-0.103-0.297-0.106-0.295-0.108-0.294-0.11-0.292-0.113-0.291-0.115-0.288-0.118-0.288-0.121-0.282-0.122-0.145-0.064-0.141-0.064-0.142-0.064-0.14-0.065-0.28-0.132-0.139-0.067-0.139-0.068-0.138-0.069-0.138-0.07-0.137-0.07-0.137-0.071-0.136-0.072-0.27-0.146-0.141-0.078-0.096-0.055-0.101-0.06-0.1-0.062-0.099-0.063-0.097-0.064-0.096-0.067-0.095-0.068-0.093-0.069-0.092-0.071-0.09-0.072-0.09-0.074-0.088-0.075-0.086-0.077-0.085-0.078-0.083-0.079-0.082-0.081-0.081-0.082-0.078-0.083-0.078-0.085-0.076-0.085-0.074-0.087-0.073-0.089-0.071-0.089-0.069-0.091-0.068-0.091-0.066-0.093-0.065-0.094-0.062-0.095-0.061-0.095-0.06-0.097-0.057-0.098-0.056-0.098-0.054-0.1-0.053-0.101-0.051-0.101-0.049-0.102-0.047-0.103-0.045-0.104-0.044-0.104-0.042-0.105-0.04-0.106-0.038-0.107-0.036-0.107-0.035-0.108-0.033-0.108-0.031-0.109-0.029-0.11-0.027-0.11-0.025-0.111-0.024-0.111-0.021-0.111-0.02-0.112-0.018-0.113-0.015-0.112-0.014-0.113-0.013-0.114-0.01-0.114-8e-3 -0.114-7e-3 -0.113-4e-3 -0.115-3e-3 -0.115v-0.114l1e-3 -0.115 3e-3 -0.115 5e-3 -0.115 7e-3 -0.115 9e-3 -0.115 0.011-0.115 0.013-0.115 0.015-0.115 0.016-0.116 0.019-0.115 0.02-0.114 0.023-0.115 0.024-0.114 0.026-0.115 0.029-0.113 0.03-0.114 0.032-0.114 0.034-0.112 0.035-0.113 0.038-0.113 0.04-0.112 0.041-0.111 0.044-0.112 0.045-0.111 0.047-0.11 0.049-0.109 0.051-0.11 0.052-0.109 0.055-0.108 0.056-0.107 0.058-0.107 0.06-0.107 0.062-0.105 0.063-0.105 0.066-0.104 0.067-0.104 0.069-0.103 0.07-0.102 0.072-0.101 0.075-0.101 0.076-0.1 0.077-0.098 0.079-0.098 0.081-0.097 0.082-0.097 0.085-0.095 0.086-0.095 0.087-0.094 0.18-0.184 0.093-0.091 0.094-0.09 0.096-0.089 0.097-0.088 0.099-0.086 0.1-0.087 0.102-0.084 0.104-0.084 0.104-0.083 0.107-0.082 0.108-0.081 0.11-0.079 0.111-0.079 0.113-0.078 0.114-0.076 0.115-0.075 0.189-0.12 0.19-0.118 0.191-0.117 0.191-0.114 0.193-0.113 0.194-0.111 0.195-0.109 0.196-0.107 0.197-0.106 0.198-0.104 0.199-0.103 0.2-0.1 0.201-0.1 0.202-0.097 0.202-0.096 0.204-0.094 0.204-0.092 0.205-0.091 0.206-0.09 0.207-0.087 0.207-0.086 0.208-0.085 0.208-0.083 0.21-0.081 0.21-0.08 0.21-0.078 0.211-0.076 0.212-0.075 0.212-0.074 0.213-0.072 0.213-0.07 0.213-0.069 0.214-0.068 0.43-0.13 0.215-0.063 0.216-0.061 0.216-0.06 0.216-0.058 0.216-0.057 0.217-0.055 0.217-0.054 0.217-0.053 0.218-0.051 0.217-0.049 0.218-0.048 0.218-0.047 0.218-0.045 0.436-0.086 0.219-0.04 0.218-0.04 0.436-0.074 0.218-0.035 0.436-0.066 0.436-0.06 0.217-0.027 0.218-0.027 0.217-0.025 0.217-0.024 0.217-0.022 0.216-0.021 0.217-0.019 0.215-0.018 0.216-0.016 0.215-0.016 0.43-0.026 0.214-0.011 0.214-9e-3 0.213-8e-3 0.213-7e-3 0.212-6e-3 0.212-4e-3 0.211-2e-3 0.211-1e-3h0.21l0.209 2e-3 0.209 3e-3 0.209 4e-3 0.207 6e-3 0.207 7e-3 0.207 9e-3 0.205 0.01 0.205 0.011 0.204 0.013 0.204 0.015 0.203 0.015 0.202 0.017 0.201 0.019 0.2 0.02 0.199 0.021 0.199 0.023 0.198 0.025 0.196 0.025 0.196 0.028 0.195 0.028 0.194 0.03 0.193 0.032 0.192 0.033 0.191 0.035 0.19 0.036 0.189 0.037 0.188 0.039 0.187 0.041 0.186 0.042 0.185 0.044 0.184 0.045 0.182 0.047 0.181 0.048 0.181 0.05 0.179 0.052 0.177 0.053 0.177 0.055 0.176 0.057 0.174 0.058 0.173 0.06 0.172 0.062 0.17 0.064 0.17 0.065 0.167 0.067 0.167 0.069 0.165 0.071 0.164 0.073 0.165 0.076 0.131 0.063 0.133 0.066 0.13 0.068 0.13 0.071 0.128 0.072 0.126 0.075 0.124 0.076 0.122 0.079 0.121 0.081 0.119 0.083 0.117 0.084 0.115 0.087 0.113 0.089 0.112 0.091 0.109 0.092 0.107 0.095 0.105 0.096 0.103 0.098 0.1 0.099 0.099 0.102 0.096 0.103 0.094 0.104 0.092 0.106 0.09 0.107 0.087 0.109 0.085 0.11 0.082 0.111 0.08 0.113 0.078 0.113 0.075 0.115 0.073 0.115 0.071 0.117 0.069 0.117 0.066 0.118 0.063 0.119 0.062 0.12 0.059 0.12 0.057 0.121 0.055 0.121 0.053 0.122 0.051 0.122 0.048 0.123 0.046 0.123 0.045 0.123 0.042 0.124 0.041 0.124 0.038 0.124 0.037 0.125 0.034 0.124 0.033 0.125 0.031 0.125 0.03 0.124 0.028 0.126 0.026 0.125 0.024 0.125 0.023 0.125 0.021 0.126 0.02 0.125 0.018 0.125 0.017 0.126 0.016 0.125 0.014 0.125 0.012 0.126 0.012 0.125 0.01 0.126 9e-3 0.125 7e-3 0.125 7e-3 0.126 5e-3 0.125 4e-3 0.125 3e-3 0.126 2e-3 0.125 1e-3 0.125v0.125l-1e-3 0.126-3e-3 0.124-3e-3 0.126-4e-3 0.125-5e-3 0.124-6e-3 0.13-0.014 0.246-0.018 0.249-0.021 0.25-0.025 0.25-0.027 0.249-0.03 0.249-0.033 0.249-0.035 0.249-0.037 0.249-4e-3 0.024 22.032-1.907 0.714-1.78 0.069-0.174 0.068-0.177 0.067-0.176 0.066-0.176 0.128-0.348 0.061-0.174 0.061-0.172 0.059-0.172 0.058-0.172 0.057-0.17 0.056-0.17 0.054-0.169 0.053-0.168 0.051-0.168 0.051-0.167 0.049-0.166 0.048-0.166 0.046-0.165 0.046-0.164 0.044-0.163 0.043-0.163 0.042-0.162 0.04-0.161 0.039-0.16 0.038-0.16 0.037-0.159 0.036-0.159 0.068-0.314 0.032-0.156 0.031-0.155 0.03-0.155 0.028-0.154 0.054-0.306 0.025-0.152 0.024-0.15 0.023-0.151 0.042-0.298 0.019-0.148 0.018-0.147 0.017-0.147 0.017-0.146 0.014-0.145 0.014-0.144 0.013-0.143 0.012-0.144 0.01-0.142 0.01-0.141 8e-3 -0.141 7e-3 -0.14 6e-3 -0.139 6e-3 -0.138 4e-3 -0.138 3e-3 -0.137 2e-3 -0.136 1e-3 -0.136v-0.135l-1e-3 -0.133-2e-3 -0.134-3e-3 -0.133-5e-3 -0.131-5e-3 -0.132-6e-3 -0.13-7e-3 -0.129-8e-3 -0.13-9e-3 -0.128-0.01-0.128-0.011-0.126-0.012-0.126-0.013-0.126-0.014-0.125-0.015-0.123-0.016-0.124-0.017-0.123-0.018-0.122-0.018-0.121-0.02-0.12-0.021-0.12-0.021-0.119-0.022-0.119-0.048-0.234-0.025-0.117-0.026-0.116-0.027-0.115-0.028-0.115-0.028-0.113-0.03-0.113-0.031-0.113-0.031-0.112-0.032-0.111-0.033-0.11-0.034-0.11-0.035-0.11-0.036-0.109-0.037-0.108-0.037-0.107-0.038-0.107-0.08-0.212-0.041-0.105-0.041-0.104-0.043-0.104-0.043-0.103-0.045-0.102-0.045-0.103-0.046-0.101-0.047-0.101-0.048-0.101-0.048-0.099-0.049-0.1-0.051-0.099-0.051-0.097-0.052-0.098-0.052-0.097-0.054-0.097-0.055-0.095-0.055-0.096-0.056-0.094-0.057-0.095-0.058-0.094-0.058-0.093-0.06-0.093-0.06-0.092-0.061-0.092-0.062-0.091-0.063-0.091-0.064-0.09-0.065-0.09-0.065-0.089-0.066-0.088-0.067-0.088-0.068-0.088-0.069-0.087-0.07-0.087-0.07-0.086-0.071-0.086-0.146-0.17-0.074-0.084-0.15-0.166-0.077-0.084-0.078-0.082-0.077-0.081-0.08-0.082-0.08-0.081-0.162-0.16-0.166-0.158-0.17-0.156-0.086-0.077-0.087-0.077-0.088-0.077-0.089-0.075-0.09-0.076-0.09-0.075-0.091-0.074-0.186-0.148-0.094-0.072-0.095-0.073-0.096-0.072-0.096-0.071-0.098-0.071-0.099-0.071-0.099-0.069-0.1-0.07-0.101-0.069-0.102-0.068-0.103-0.068-0.208-0.134-0.106-0.066-0.107-0.066-0.107-0.065-0.108-0.065-0.109-0.064-0.11-0.064-0.111-0.063-0.112-0.063-0.112-0.062-0.228-0.122-0.232-0.12-0.117-0.06-0.117-0.058-0.119-0.058-0.12-0.058-0.12-0.057-0.122-0.057-0.122-0.055-0.123-0.056-0.124-0.055-0.125-0.054-0.252-0.106-0.127-0.053-0.129-0.052-0.129-0.051-0.13-0.051-0.13-0.05-0.132-0.049-0.133-0.049-0.133-0.048-0.134-0.048-0.136-0.047-0.135-0.047-0.137-0.045-0.137-0.046-0.278-0.088-0.14-0.044-0.282-0.084-0.143-0.042-0.143-0.041-0.29-0.08-0.145-0.038-0.147-0.039-0.147-0.037-0.148-0.037-0.149-0.037-0.15-0.035-0.151-0.036-0.151-0.034-0.152-0.034-0.153-0.033-0.308-0.064-0.155-0.031-0.156-0.031-0.157-0.029-0.316-0.058-0.159-0.027-0.16-0.028-0.322-0.052-0.162-0.025-0.326-0.048-0.165-0.023-0.165-0.022-0.332-0.042-0.167-0.02-0.168-0.02-0.17-0.019-0.263-0.028-0.264-0.027-0.265-0.027-0.265-0.026-0.266-0.025-0.267-0.024-0.268-0.024-0.538-0.044-0.27-0.021-0.271-0.02-0.271-0.019-0.272-0.018-0.273-0.017-0.548-0.032-0.275-0.014-0.276-0.014-0.276-0.012-0.277-0.012-0.278-0.011-0.278-9e-3 -0.279-9e-3 -0.28-8e-3 -0.562-0.012-0.281-4e-3 -0.283-4e-3 -0.283-3e-3 -0.283-1e-3h-0.285zm-117.26 22.84 0.414 2e-3 0.414 4e-3 0.413 5e-3 0.414 6e-3 0.189 4e-3 0.2 6e-3 0.201 0.01 0.202 0.012 0.204 0.015 0.198 0.019 0.109 0.011 0.103 0.013 0.104 0.013 0.106 0.014 0.154 0.023 0.15 0.025 0.149 0.026 0.148 0.027 0.146 0.03 0.146 0.031 0.144 0.032 0.143 0.034 0.142 0.036 0.141 0.038 0.139 0.039 0.139 0.041 0.137 0.042 0.136 0.045 0.135 0.046 0.134 0.048 0.132 0.05 0.131 0.051 0.13 0.053 0.129 0.055 0.127 0.057 0.126 0.059 0.125 0.061 0.124 0.062 0.121 0.064 0.121 0.066 0.119 0.068 0.118 0.07 0.116 0.072 0.115 0.073 0.114 0.076 0.111 0.077 0.11 0.079 0.109 0.081 0.107 0.083 0.105 0.084 0.103 0.086 0.101 0.088 0.1 0.09 0.098 0.091 0.096 0.093 0.093 0.095 0.092 0.096 0.09 0.098 0.088 0.099 0.085 0.101 0.084 0.102 0.082 0.104 0.079 0.105 0.077 0.106 0.075 0.107 0.073 0.109 0.07 0.11 0.068 0.11 0.066 0.112 0.063 0.112 0.062 0.114 0.059 0.115 0.057 0.115 0.054 0.116 0.052 0.116 0.05 0.117 0.048 0.118 0.046 0.119 0.043 0.119 0.041 0.119 0.039 0.119 0.036 0.12 0.035 0.121 0.032 0.12 0.031 0.121 0.028 0.121 0.026 0.121 0.025 0.121 0.022 0.122 0.02 0.121 0.019 0.122 0.016 0.121 0.015 0.122 0.013 0.122 0.011 0.121 9e-3 0.121 8e-3 0.122 0.01 0.242 2e-3 0.121 1e-3 0.121-1e-3 0.121-2e-3 0.121-4e-3 0.12-6e-3 0.121-7e-3 0.119-8e-3 0.121-0.01 0.119-0.011 0.12-0.013 0.12-0.014 0.119-0.016 0.119-0.017 0.119-0.018 0.118-0.019 0.119-0.021 0.118-0.022 0.118-0.048 0.236-0.026 0.117-0.027 0.117-0.028 0.117-0.029 0.117-0.031 0.116-0.032 0.117-0.032 0.116-0.034 0.116-0.035 0.115-0.036 0.116-0.038 0.115-0.038 0.116-0.039 0.114-0.04 0.115-0.084 0.228-0.088 0.228-0.046 0.113-0.046 0.114-0.047 0.112-0.098 0.226-0.05 0.112-0.051 0.112-0.052 0.112-0.053 0.111-0.054 0.111-0.055 0.111-0.056 0.111-0.057 0.111-0.057 0.11-0.118 0.22-0.062 0.113-0.121 0.213-0.126 0.217-0.13 0.216-0.133 0.214-0.136 0.213-0.139 0.212-0.142 0.21-0.146 0.209-0.149 0.207-0.151 0.206-0.155 0.205-0.157 0.203-0.161 0.201-0.163 0.2-0.166 0.197-0.169 0.196-0.172 0.194-0.174 0.193-0.177 0.19-0.18 0.188-0.182 0.186-0.185 0.185-0.188 0.181-0.19 0.18-0.192 0.177-0.192 0.172-0.102 0.09-0.099 0.086-0.2 0.17-0.101 0.084-0.101 0.083-0.102 0.083-0.103 0.082-0.103 0.081-0.104 0.081-0.104 0.08-0.106 0.079-0.105 0.078-0.106 0.078-0.107 0.077-0.108 0.077-0.107 0.075-0.109 0.075-0.109 0.074-0.109 0.073-0.11 0.073-0.222 0.142-0.112 0.07-0.112 0.069-0.113 0.068-0.114 0.068-0.228 0.132-0.115 0.065-0.116 0.064-0.116 0.063-0.117 0.062-0.117 0.061-0.118 0.06-0.118 0.059-0.119 0.058-0.119 0.057-0.12 0.057-0.12 0.055-0.121 0.054-0.122 0.053-0.122 0.052-0.122 0.051-0.123 0.05-0.123 0.049-0.124 0.047-0.125 0.047-0.124 0.045-0.126 0.045-0.126 0.043-0.126 0.041-0.127 0.041-0.127 0.04-0.128 0.038-0.129 0.037-0.128 0.035-0.13 0.035-0.129 0.033-0.131 0.032-0.13 0.03-0.131 0.029-0.131 0.028-0.127 0.025-0.267 0.051-0.262 0.05-0.522 0.096-0.259 0.046-0.26 0.046-0.259 0.045-0.26 0.044-0.513 0.085-0.513 0.082-0.511 0.079-0.509 0.075-0.507 0.072-0.505 0.069-0.504 0.066-0.50099 0.063-0.499 0.06-0.498 0.058-0.496 0.054-0.494 0.052-0.493 0.05-0.491 0.047-0.489 0.045-0.488 0.042-0.486 0.041-0.484 0.038-0.484 0.036-0.481 0.034-0.481 0.033-0.479 0.03-0.477 0.029-0.477 0.027-0.475 0.026-0.474 0.024-0.472 0.023-0.472 0.022-0.471 0.02-0.469 0.019-0.468 0.018-0.468 0.017-0.466 0.017-0.467 0.015-0.928 0.029-0.926 0.026-0.923 0.025-1.839 0.047-0.917 0.023-0.916 0.024-0.915 0.026-0.915 0.028-0.914 0.03-0.914 0.034-0.457 0.018-0.457 0.02-0.458 0.02-4.815 0.227 10.678-24.155 2.505-0.125 0.844-0.043 0.846-0.046 0.848-0.047 0.85-0.047 0.85-0.049 1.706-0.1 1.708-0.101 1.708-0.099 0.856-0.049 0.855-0.048 0.854-0.047 0.855-0.045 0.853-0.043 0.853-0.042 0.852-0.039 0.85099-0.037 0.849-0.035 0.847-0.031 0.425-0.015 0.423-0.014 0.423-0.012 0.422-0.012 0.421-0.012 0.421-0.01 0.421-9e-3 0.42-8e-3 0.42-7e-3 0.419-6e-3 0.418-5e-3 0.418-4e-3 0.417-3e-3 0.416-2e-3h0.416zm-0.825 2.693-0.408 2e-3 -0.82 6e-3 -0.412 5e-3 -0.412 6e-3 -0.413 7e-3 -0.413 8e-3 -0.83 0.02-0.832 0.022-0.417 0.013-0.418 0.014-0.419 0.014-0.838 0.031-0.841 0.034-0.84299 0.037-0.845 0.039-0.846 0.041-0.849 0.044-0.849 0.045-0.851 0.046-0.851 0.048-0.852 0.048-1.707 0.1-3.415 0.2-0.853 0.049-0.853 0.048-0.851 0.047-0.851 0.046-0.85 0.044-0.848 0.042-8.245 18.651 0.465-0.022 0.465-0.021 0.463-0.019 0.464-0.019 0.924-0.034 0.462-0.016 0.461-0.015 0.921-0.028 0.92-0.026 0.92-0.024 0.918-0.023 1.838-0.047 0.919-0.025 0.92-0.026 0.922-0.029 0.461-0.015 0.462-0.016 0.462-0.017 0.463-0.018 0.463-0.019 0.465-0.02 0.464-0.021 0.466-0.022 0.466-0.024 0.467-0.025 0.468-0.027 0.468-0.029 0.47-0.029 0.471-0.032 0.471-0.034 0.473-0.035 0.474-0.037 0.475-0.04 0.476-0.041 0.478-0.044 0.478-0.046 0.48-0.048 0.482-0.051 0.483-0.054 0.484-0.055 0.486-0.059 0.487-0.061 0.48899-0.064 0.491-0.067 0.492-0.07 0.494-0.073 0.496-0.077 0.498-0.079 0.499-0.083 0.251-0.042 0.25-0.044 0.252-0.044 0.252-0.045 0.252-0.046 0.253-0.047 0.254-0.048 0.254-0.049 0.103-0.02 0.103-0.022 0.103-0.023 0.103-0.024 0.102-0.025 0.103-0.026 0.103-0.027 0.204-0.058 0.204-0.062 0.102-0.033 0.102-0.034 0.101-0.034 0.101-0.036 0.101-0.037 0.202-0.076 0.1-0.04 0.101-0.041 0.1-0.041 0.1-0.043 0.099-0.044 0.1-0.044 0.198-0.092 0.098-0.047 0.099-0.048 0.098-0.049 0.098-0.05 0.097-0.051 0.098-0.052 0.097-0.053 0.096-0.053 0.097-0.054 0.096-0.055 0.096-0.056 0.095-0.057 0.19-0.116 0.095-0.059 0.094-0.06 0.094-0.061 0.093-0.061 0.186-0.126 0.092-0.063 0.184-0.13 0.182-0.132 0.09-0.067 0.09-0.068 0.09-0.069 0.089-0.069 0.089-0.07 0.088-0.07 0.088-0.072 0.087-0.071 0.174-0.146 0.086-0.073 0.085-0.074 0.085-0.075 0.169-0.152 0.166-0.153 0.165-0.156 0.163-0.157 0.16-0.16 0.158-0.161 0.156-0.164 0.154-0.165 0.151-0.167 0.149-0.168 0.147-0.17 0.144-0.172 0.142-0.173 0.138-0.174 0.137-0.176 0.133-0.177 0.131-0.178 0.129-0.178 0.125-0.18 0.122-0.181 0.12-0.182 0.116-0.182 0.114-0.183 0.111-0.184 0.107-0.184 0.104-0.185 0.051-0.093 0.05-0.092 0.098-0.186 0.047-0.092 0.047-0.093 0.046-0.093 0.045-0.093 0.088-0.186 0.084-0.186 0.041-0.093 0.117-0.279 0.037-0.093 0.036-0.093 0.035-0.093 0.035-0.092 0.033-0.093 0.033-0.092 0.031-0.093 0.031-0.092 0.03-0.092 0.029-0.092 0.054-0.184 0.026-0.092 0.025-0.091 0.024-0.091 0.023-0.092 0.022-0.09 0.021-0.091 0.019-0.091 0.019-0.09 0.018-0.09 0.017-0.09 0.016-0.089 0.014-0.09 0.014-0.089 0.013-0.089 0.022-0.176 9e-3 -0.088 8e-3 -0.088 8e-3 -0.087 6e-3 -0.087 5e-3 -0.087 4e-3 -0.086 4e-3 -0.172 1e-3 -0.085-1e-3 -0.085-4e-3 -0.168-4e-3 -0.084-0.012-0.166-7e-3 -0.082-9e-3 -0.082-0.01-0.081-0.011-0.081-0.012-0.081-0.013-0.08-0.015-0.08-0.016-0.079-0.017-0.078-0.018-0.078-0.02-0.078-0.02-0.077-0.022-0.076-0.024-0.076-0.024-0.075-0.026-0.075-0.027-0.074-0.028-0.074-0.03-0.073-0.03-0.072-0.033-0.072-0.033-0.071-0.035-0.07-0.036-0.07-0.037-0.069-0.039-0.069-0.04-0.068-0.041-0.067-0.043-0.066-0.044-0.066-0.045-0.065-0.047-0.065-0.048-0.063-0.05-0.063-0.05-0.062-0.053-0.062-0.053-0.06-0.055-0.06-0.114-0.118-0.12-0.114-0.062-0.056-0.064-0.055-0.065-0.054-0.066-0.054-0.068-0.052-0.069-0.052-0.071-0.051-0.072-0.05-0.074-0.049-0.075-0.048-0.077-0.047-0.078-0.046-0.08-0.046-0.081-0.044-0.083-0.044-0.084-0.042-0.086-0.042-0.087-0.041-0.089-0.039-0.09-0.039-0.092-0.038-0.094-0.036-0.095-0.036-0.096-0.035-0.098-0.033-0.1-0.033-0.101-0.031-0.103-0.031-0.105-0.029-0.106-0.028-0.108-0.028-0.109-0.026-0.111-0.025-0.113-0.024-0.114-0.022-0.116-0.022-0.117-0.02-0.119-0.02-0.121-0.018-0.076-0.01-0.077-0.01-0.077-9e-3 -0.078-9e-3 -0.157-0.014-0.16-0.012-0.161-0.01-0.164-8e-3 -0.165-5e-3 -0.166-3e-3 -0.403-6e-3 -0.404-5e-3 -0.404-4e-3 -0.40597-2e-3 -0.407-1e-3z" fill="url(#c)"/><path d="m612.67 140.92c-10.187 0.402-20.391 0.806-30.614 1.212-11.214-42.843-22.538-82.838-35.992-125.2 19.291-0.595 38.541-1.278 57.78-1.814 16.748-0.424 34.685 1.179 47.053 13.278 14.474 14.05 20.175 38.774 4.728 50.953-2.858 2.256-6.178 3.913-9.646 5.146 10.439 5.997 18.8 15.186 26.998 24.418 8.182 9.357 16.356 18.909 24.536 28.684-12.263 0.481-24.528 0.962-36.8 1.443-13.599-15.233-26.17-31.282-41.083-43.444-5.27-4.219-12.657-5.1-19.778-4.859 4.197 16.068 8.433 32.7 12.818 50.188m-26.141-97.476c2.291 7.71 4.502 15.314 6.645 22.844 11.441-0.406 23.029 0.265 34.151-2.098 9.035-1.922 6.05-19.381-7.745-21.457-0.537-0.082-1.081-0.122-1.622-0.14-10.453-0.346-20.93 0.475-31.429 0.851zm-181.32 5.71c-12.425 0.315-24.894 0.618-37.408 0.907 10.814 32.122 20.477 64.121 30.535 99.753-10.912 0.495-21.88 0.997-32.904 1.507-10.106-36.04-19.796-68.234-30.7-100.56-12.726 0.24-25.506 0.465-38.343 0.674-3.409-9.418-7.074-19.246-11.029-29.569 36.837-0.211 73.29-0.611 109.4-1.178 3.716 9.875 7.189 19.341 10.448 28.47m-271.69 3.34c-22.491-0.097-45.209-0.258-68.162-0.485 2.335 8.253 4.513 16.26 6.555 24.084 19.971-0.106 39.751-0.241 59.345-0.404 2.557 9.255 4.984 18.458 7.317 27.721-19.764 0.45-39.732 0.893-59.909 1.328 3.895 18.682 7.823 38.841 12.047 61.296-12.941 0.796-25.982 1.608-39.128 2.436-9.175-53.217-19.088-99.425-33.675-152.04 35.407 1.483 70.308 2.708 104.73 3.688 3.953 11.403 7.566 22.157 10.88 32.372m645.2-15.879c-21.888 0.724-43.729 1.47-65.535 2.232 1.597 6.464 3.159 12.878 4.691 19.254 20.139-0.706 40.311-1.402 60.525-2.086 1.857 8.606 3.688 17.198 5.499 25.797-20.056 0.661-40.065 1.327-60.038 1.998 1.878 8.308 3.747 16.677 5.618 25.134 22.065-0.747 44.179-1.494 66.361-2.243 1.779 8.806 3.569 17.71 5.374 26.729-32.185 1.299-64.229 2.574-96.193 3.835-9.622-42.198-19.395-82.534-30.53-124.47 32.652-1.023 65.352-2.004 98.133-2.922 2.089 9.024 4.119 17.93 6.095 26.739zm57.159 50.94c5.12 12.697 17.717 22.682 35.807 17.543 7.982-2.241 12.884-13.974 2.78-18.831-8.62-4.147-19.068-4.881-28.86-6.953-21.111-4.554-43.662-14.905-45.737-39.041-0.918-10.091 3.944-20.904 12.883-26.735 12.312-7.961 28.565-8.627 43.853-6.563 20.422 2.739 38.463 15.558 43.054 35.428 0.303 1.353 0.607 2.705 0.911 4.057-10.526 0.707-21.021 1.423-31.487 2.147-2.288-6.066-5.357-12.203-11.645-14.624-8.737-3.37-21.259-2.786-26.259 2.686-2.655 2.913 0.909 7.919 5.29 9.827 16.605 7.229 37.227 6.047 54.122 15.139 17.688 9.505 29.866 31.043 17.796 51.985-7.15 12.69-23.92 18.003-38.916 19.055-17.024 1.196-34.813-2.192-47.183-13.726-7.657-7.087-12.892-16.463-16.163-26.361-0.451-1.377-0.903-2.752-1.354-4.127 9.965-1.275 19.955-2.549 29.971-3.82 0.377 0.971 0.753 1.944 1.137 2.914m-549.42 3.619c6.276 21.861 14.7 50.161-14.087 63.363-19.073 9.331-43.8 7.721-60.762-0.226-15.951-7.25-27.466-20.92-33.383-37.685-2.656-7.262-4.737-14.557-6.671-21.778-6.539-22.923-14.21-47.071-23.627-74.148 11.782 0.229 23.513 0.432 35.194 0.609 11.474 32.29 18.634 61.536 28.907 88.788 2.397 6.708 7.614 12.528 14.623 15.329 14.049 5.692 32.558 1.636 30.802-11.809-0.834-6.264-3.984-12.928-5.7-18.891-7.039-22.949-15.144-46.923-24.962-73.581 11.451 0.061 24.272 0.725 35.637 0.743 9.349 25.008 17.209 47.644 24.029 69.286m258.13-7.746c5.803 21.168 13.509 47.778-12.36 59.498-16.89 8.044-38.768 6.37-53.924-0.756-14.299-6.533-25.015-18.822-31.016-34.124-2.699-6.713-4.893-13.497-6.947-20.239-6.773-21.404-14.317-43.562-23.075-67.554 10.862-0.228 21.701-0.468 32.515-0.718 10.342 29.151 17.355 56.626 27.461 82.378 2.369 6.277 7.224 11.691 13.582 14.297 12.724 5.297 29.281 1.603 27.476-11.038-0.86-5.966-2.531-11.749-4.18-17.484-6.645-22.106-13.966-44.838-22.373-69.223 10.717-0.296 21.417-0.598 32.101-0.908 7.728 23.117 14.562 44.791 20.74 65.871" fill="url(#b)" stroke="url(#a)" stroke-width="2px"/><defs><linearGradient id="f" x2="1" gradientTransform="matrix(3.2011 65.96 -110.59 5.3672 1078.8 162.28)" gradientUnits="userSpaceOnUse"><stop stop-color="#fddd5b" offset="0"/><stop stop-color="#ff5405" offset="1"/></linearGradient><linearGradient id="e" x2="1" gradientTransform="matrix(1.2489 71.936 -71.936 1.2489 535.99 201.05)" gradientUnits="userSpaceOnUse"><stop stop-color="#f1d589" offset="0"/><stop stop-color="#af3915" offset="1"/></linearGradient><linearGradient id="d" x2="1" gradientTransform="matrix(3.1822 65.57 -138.42 6.7179 -29.491 224.02)" gradientUnits="userSpaceOnUse"><stop stop-color="#fddd5b" offset="0"/><stop stop-color="#ff5405" offset="1"/></linearGradient><linearGradient id="c" x2="1" gradientTransform="matrix(-1.7562 94.814 -94.814 -1.7562 144.99 210.63)" gradientUnits="userSpaceOnUse"><stop stop-color="#f1d589" offset="0"/><stop stop-color="#af3915" offset="1"/></linearGradient><linearGradient id="b" x2="1" gradientTransform="matrix(3.8742 79.83 -79.83 3.8742 643.64 31.913)" gradientUnits="userSpaceOnUse"><stop stop-color="#ff5405" offset="0"/><stop stop-color="#fddd5b" offset="1"/></linearGradient><linearGradient id="a" x2="1" gradientTransform="matrix(17.965 111.29 -111.29 17.965 545.02 25.666)" gradientUnits="userSpaceOnUse"><stop stop-color="#f5b8a6" offset="0"/><stop stop-color="#deb319" offset="1"/></linearGradient></defs></svg>
