<svg xmlns="http://www.w3.org/2000/svg" version="1.0" viewBox="0 0 452.28 540.15"><g fill-rule="evenodd" stroke="#000"><path fill="#ffcfab" stroke-width="4.327" d="m302.998 44.525-20.281 31.012 96.148 111.6c4.512-18.463 7.814 1.677 11.502 9.483 9.878 22.334 11.416 47.222 14.496 71.119 5.83 45.229 3.909 71.702-.24 96.382-13.444 79.975-61.135 126.65-106.68 153.53-15.58 9.193-30.577 15.62-52.573 18.622-22.665 3.092-44.872 1.868-67.625-2.565-18.785-3.66-37.678-9.83-55.027-17.78-27.663-12.677-50.497-34.62-68.37-58.691-17.29-23.288-28.196-51.076-36.48-78.922-15.066-50.65-21.436-104.59-9.418-156.69 7.49-32.48 18.292-64.643 33.064-94.3 15.676-31.471 37.71-59.974 64.381-83.61 16.017-14.192 33.428-27.27 53.03-35.165 14.378-5.79 29.598-7.096 45.31-6.06 15.537 1.025 30.366 2.765 45.167 8.029 20.14 7.162 39.12 18.366 53.6 34.01z"/><g stroke-width="1.041"><path fill="#f39105" d="m153.818 179.407-11.16-28.33 12.019-6.01 24.038-3.434 44.64-54.941 24.895 3.434 16.311-8.585 12.019-2.576-18.886 41.207-36.914 4.292z"/><path fill="#ffcfab" d="m314.348 64.373 19.746 24.896 5.15 8.585-37.773-12.877 4.293-12.02z"/><path fill="#f39a05" d="m299.758 83.26 18.887 10.3 19.744 6.01-26.612 14.595-19.744-1.718-1.718-13.735z"/><path fill="#ab9a7e" d="m154.678 181.127 13.736 22.32-13.736 35.198 32.622 6.01 6.867 6.867 20.604 31.763 65.244-34.34 19.422 5.367 20.926-6.224-14.594-15.452 2.575-4.293 6.868-4.292 3.434 11.16 6.01 13.735 16.31 19.746 4.292-2.576.859-12.877 15.16-2.67 5.35-4.157 13.393-1.623 3.44-16.875-9.872-40.777v-17.17l15.453-2.575 13.735 10.3 19.744 5.152 7.727-1.717-23.178-29.188-14.248-14.587-8.073-5.157-15.453-10.302-31.763 1.716-24.895 6.01-21.463 10.302-12.876-1.717-16.311-7.726-5.151-7.727-33.48-.858z"/></g></g><g fill="#fff" fill-rule="evenodd" stroke-width="1.041"><path stroke="#000" d="m315.208 223.187 4.292 11.16-2.575 6.868-12.877-7.726 3.434-6.01zM334.958 176.837l13.735-12.02 7.726-.857 2.576 4.292-12.018 12.877-6.868 2.575zm24.844-59.538-42.013 10.605-27.472 11.16-24.037-6.867-8.584-10.302 22.32-50.65 20.913-25.9 13.7-5.425 15.178 2.996 15.724 23.078L362.01 77.03l-1.898 3.338-24.296-8.264-21.462-9.444-20.603 31.763-4.292 11.16 3.434 10.303 55.8-9.444 5.958 4.952zm16.363 6.312L386 136.2l6.206.175 22.94 25.516 5.706 6.92 10.255-6.57 12.018-26.612 6.668-21.158.91-17.724-5.505-6.616h-19.242l-14.594 3.433s-12.018 6.01-8.585 6.01c3.434 0 19.744 5.15 19.744 5.15l6.869 5.15 1.717 7.727-9.444 18.886-4.291 4.293-19.746-12.877-6.009-4.293-6.01-.858z"/><path stroke="#9e0000" d="M368.148 223.977c-.266-1.972-13.507 0-13.507 0s-2.314 7.892 1.063 7.892 12.71-5.92 12.444-7.892z"/></g><path d="M385.63 176.555c1.925-3.084 6.64-2.696 14.341 2.07 6.27 3.706 14.536 4.469 23.39 5.076 14.502.994 13.344-1.163 6.537-8.022l-8.202-7.357s3.018 1.747 8.024-2.88c6.702-6.195 19.56-34.7 21.84-55.22 2.565-20.807-.855-23.942-23.087-21.377-9.12 1.14-20.103 3.82-24.663 6.67 0 0-6.513 3.26-5.516 5.112s9.658 2.754 9.658 2.754c16.246 2.565 20.695 7.94 20.695 13.925 0 6.27-8.44 21.702-12.43 21.702-1.425 0-6.555-3.99-11.4-8.55-9.691-9.406-14.907-10.638-24.283-7.851-5.265-1.443-12.909-2.202-19.081-5.75-1.513-.87-.552-2.092-3.546-5.854-5.412-6.8-9.525-6.197-15.225-4.772-7.126 1.71-7.41 1.71-1.995-2.28s5.13-4.56-6.84-20.237l-11.972-16.246 14.251 7.126c14.537 7.41 27.077 9.406 29.928 4.845 1.14-1.425-2.85-5.13-8.836-7.98-5.7-2.85-12.54-9.406-15.106-14.251-2.85-5.13-6.556-11.116-8.266-13.396-4.275-4.846-19.19-7.454-27.209-4.422-8.176 3.093-13.246 11.404-19.804 19.997-5.537 7.253-8.622 12.728-11.21 17.135-5.33-1.259-14.457 2.632-18.162 6.052-6.27 5.7-7.696 5.986-19.951 2.85-12.256-3.42-13.681-3.135-20.237 2.85-3.705 3.706-13.966 16.532-22.801 28.503-8.551 12.256-16.532 22.231-17.387 22.516-.855 0-6.84.57-13.11 1.14s-14.822 2.28-19.097 3.99c-6.84 2.566-7.41 3.706-5.415 11.117 1.425 4.275 7.695 17.386 14.25 28.787l11.687 20.521-7.126 17.101c-3.99 9.406-6.555 18.241-5.7 19.382.855 1.425 9.12 3.42 18.526 4.56l17.101 1.995 13.111 19.666c12.256 18.527 14.444 19.564 18.811 17.387 1.47-.733 8.55-5.7 17.957-10.261 9.405-4.845 22.231-11.97 28.502-16.246 8.872-5.856 17.855-7.845 22.615-6.036 2.886 1.096 4.22 3.588 3.036 7.46-2.488 7.998-2.374 12.975-1.258 18.163 1.944 2.078 4.45 3.027 8.099 5.495 12.578 7.729 17.386 8.265 17.671 0v-6.27l3.135 6.555c4.56 9.405 11.971 6.84 13.111-4.846.855-6.84-.855-11.4-5.415-16.246-3.42-3.705-5.2-8.557-3.776-8.557 2.85 0 12.612 13.117 12.612 16.538 0 1.14 1.71 2.28 3.99 2.28 4.275 0 7.41-5.986 7.41-14.251 0-3.15 8.505-4.925 16.44-7.738 2.118-.75 2.103-1.813 4.13-3.2 3.83.802 2.57.855 5.426.652 4.25-.302 6.145-1.5 7.352-3.395 5.985-9.69 6.84-21.947 2.28-32.777-2.28-5.7-4.275-17.53-3.99-22.66 0 0 .272-3.39 1.525-6.74m-33.162 37.665c0-5.7-1.14-5.7-11.4-.285-4.846 2.565-8.551 6.555-8.551 9.12 0 6.556 8.265 15.106 14.536 15.106 2.85 0 16.565 2.566 20.303 2.606-.08 1.091-1.657 2.041-2.697 2.374-4.318 1.379-11.375.61-13.901.15-4.56-.57-5.13.856-4.845 9.121.57 5.416 0 7.98-1.14 5.7-.855-2.28-4.846-7.41-9.121-11.4-4.56-4.275-7.696-11.116-8.266-17.101-1.425-13.396-7.125-23.657-18.526-33.348-11.97-9.975-16.531-17.956-14.25-25.937 1.14-4.56 3.704-6.27 9.12-6.27 9.69-.285 27.932-8.55 39.618-18.241 15.39-13.396 10.26-13.966-7.981-1.14-15.106 10.545-19.381 12.256-36.483 13.11l-19.096 1.426 9.406-9.691c4.845-5.13 9.12-10.26 9.12-11.4 0-5.986 26.222-17.102 45.889-19.382 27.932-3.135 29.357-2.85 31.067 6.555 1.995 10.831 8.265 13.396 6.555 2.565-1.14-7.695-1.14-7.695 3.135-2.565 2.566 3.136 4.56 8.836 4.56 12.826s.856 10.26 1.71 13.681c1.426 4.845 0 6.27-7.41 7.98l-9.405 1.996 1.995 16.816c.855 9.12 3.705 21.377 5.985 27.362 4.276 9.976 3.42 27.647-1.425 30.782-1.14.855-8.265.57-15.39-.285-11.687-1.71-13.112-2.565-13.112-9.406M326.437 43.811c2.565 1.14 7.125 6.84 9.975 12.826 3.136 5.985 8.551 12.826 11.971 15.106 3.495 2.483 12.566 6.023 12.045 6.513-1.095 1.029-17.58-4.142-28.006-9.933-7.98-4.56-16.246-7.696-18.241-6.84-2.28.57-8.836 8.835-15.106 18.526-12.541 19.381-14.821 34.487-5.7 37.622 5.415 1.71 45.597-7.799 52.158-8.835 4.746-.75 10.83 3.99 10.83 7.41 0 1.14-8.55 2.85-18.81 3.705-12.256 1.14-23.372 4.276-31.638 9.121-14.82 8.266-23.371 8.836-35.057 2.85s-11.116-12.256 5.7-45.888c18.526-37.908 31.637-49.023 49.879-42.183M325.012 78.3c12.255 18.526 12.255 17.67 3.705 15.39-12.541-3.705-22.37-9.512-24.73-11.075 2.04-4.486 7.059-14.861 10.479-14.861 1.995 0 6.555 4.845 10.546 10.546m-54.154 4.845c0 .57-3.135 7.98-7.126 16.816-6.555 13.966-8.265 15.676-17.956 17.386-5.7.855-14.251 1.71-19.096 1.71-6.84 0-13.396 4.56-31.353 22.232-12.54 12.256-26.791 25.082-31.637 28.502l-8.835 5.985-5.13-11.4c-6.271-13.966-4.561-16.247 15.105-17.957 16.246-1.425 17.957-2.565 31.068-21.661 4.845-7.126 13.68-18.526 19.95-25.367 9.692-11.116 11.687-12.256 17.102-9.12 9.12 4.845 19.381 3.705 26.792-2.566 6.27-5.13 11.116-7.125 11.116-4.56m51.018 13.966 12.541 3.99-9.69 4.845c-5.13 2.566-13.966 5.416-19.667 6.27-12.826 1.996-15.39-1.994-9.69-15.39 2.352-5.972 3.93-7.34 5.25-9.51 1.484.568 14.416 7.515 21.256 9.795m126.962 6.085c.57 9.976-3.55 22.987-9.25 36.953-8.835 22.232-17.63 30.874-22.76 21.754-2.965-5.187-9.847-15.566-21.337-24.998-.864-.71-1.98-1.855-4.439-2.42-3.589-.827-4.584.583-5.517-.136-4.812-6.44-4.66-9.306 1.61-9.59 3.42 0 8.55 2.564 11.4 5.985 2.566 3.135 8.266 7.695 12.256 9.69 6.84 3.705 7.981 3.42 13.966-2.85 4.56-4.845 7.146-11.748 7.6-20.48.446-8.592-2.754-13.437-17.29-16.573-4.276-.855-12.722-.744-11.582-1.599 2.565-2.565 27.258-7.806 35.525-7.521 6.555.57 9.553-.111 9.82 11.786m-179.121 34.102c5.415 2.565 11.686 4.56 13.966 4.56 7.41 0-1.425 10.546-13.396 15.962-5.986 2.565-10.83 5.7-10.83 6.84s5.7 3.135 12.825 4.275c11.4 1.426 12.826 2.566 11.4 7.411-2.85 9.12 3.421 20.521 17.387 32.492 11.116 9.12 12.54 11.401 9.12 14.536-2.85 2.85-7.125 3.42-16.53 1.71l-12.826-2.28.855-14.82c.855-16.247-3.42-20.237-6.27-5.986-4.276 21.661-1.71 25.652 18.526 29.357 5.7.855 13.11 4.845 16.53 8.55l6.271 6.84-8.265 2.851c-4.846 1.71-9.691 1.995-10.831.57-5.986-5.13-20.237-5.13-28.217 0l-8.266 5.416-11.4-9.121c-15.962-12.256-17.957-15.391-23.372-32.492-3.99-13.681-8.266-20.237-11.116-17.387-.57.57 1.425 8.836 4.845 18.812 5.416 16.816 13.111 27.077 29.357 38.762 3.136 2.28 5.13 4.56 4.276 5.416-1.995 1.71-36.483 19.096-38.193 19.096-.855 0-6.84-8.265-13.396-18.526-10.26-15.961-13.11-18.526-20.806-18.811-4.846-.285-12.256-1.14-16.532-2.28l-7.41-1.71 6.84-16.532 7.126-16.531-6.27-9.976c-3.706-6.27-5.13-11.686-3.99-14.82 1.994-4.276 2.564-3.991 3.99 1.71 2.28 8.835 6.84 8.265 7.41-.856 0-3.99 3.99-10.83 8.266-15.106 4.56-4.275 7.41-6.27 6.27-4.275-1.995 3.99.855 12.256 4.275 12.256 1.425 0 2.566-4.276 2.566-9.406 0-6.555 3.135-12.54 11.4-21.946 9.691-11.116 11.116-11.971 11.401-6.556 0 3.705 1.71 6.556 3.705 6.556 2.566 0 3.42-2.566 2.566-8.266l-1.14-8.55 16.53-.856c13.112-.57 17.387.285 19.097 3.706 1.425 2.565 6.84 6.84 12.256 9.405m80.732 89.257c-.223 1.481.335 3.408.965 4.552 2.919 5.303 11.358 3.51 18.06-4.028 3.99-4.276 3.99-5.416.57-6.84-4.012-1.755-15.928-.138-17.815 1.793-1.134 1.16-1.558 3.046-1.78 4.523m55.792-73.58c3.136 3.99 8.551 11.685 12.256 16.816 0 0 2.398 2.973 5.164 5.681s5.899 5.153 5.899 5.153-4.59.22-14.483-2.569c-22.732-6.408-24.227-9.69-22.517-16.531 1.426-5.415 1.996-5.415 9.406 1.71 3.99 3.99 8.55 6.27 9.406 5.13 3.135-2.85-12.256-17.67-16.816-15.96-3.99 1.424-7.575-9.238-6.573-14.116.27-1.317 1.602-1.356 3.366-.595 3.531 1.523 8.456 7.235 14.892 15.28m-25.081 19.382c-1.14.855-2.85.855-3.99 0-.856-1.14 0-1.995 1.995-1.995s2.85.855 1.995 1.995m-39.048 59.284c0 7.41-3.99 9.406-7.126 4.275-2.565-3.99.285-11.4 4.276-11.4 1.425 0 2.85 3.135 2.85 7.125m23.712-6.593c0 1.568-9.047 6.954-10.242 3.605-1.23-3.444 1.287-4.303 4.408-4.593 3.269-.303 5.834-.58 5.834.988m-49.365 6.593c0 2.28-1.14 4.275-2.566 4.275-3.705 0-6.27-4.56-3.99-6.84 3.135-3.136 6.556-1.71 6.556 2.565"/><path d="M356.928 158.107c4.275 4.275 8.836 6.84 9.69 5.7 2.85-2.85-7.41-13.396-12.825-13.396-3.135 0-2.28 1.996 3.135 7.696m-18.526 10.83c-6.27 5.986-7.126 8.55-4.846 12.827 1.71 3.135 5.13 5.7 7.41 5.7 5.986 0 21.947-16.246 20.522-20.806-2.28-6.556-14.82-5.416-23.086 2.28m17.956-1.425c0 1.425-1.995 2.85-4.275 2.85s-5.416 2.565-7.126 5.7-4.56 4.846-6.27 3.99c-1.995-1.425-.57-4.56 4.56-8.835 8.266-6.84 13.111-8.266 13.111-3.705"/><path fill="#ffcfab" fill-rule="evenodd" stroke="#000" stroke-width="1.291336" d="M315.814 223.84s-1.9 2.033-4.077 3.564-4.936 2.56-4.936 2.56 10.265 13.269 11.768 11.552c1.502-1.717.413-4.67-.231-8.533-.65-3.903-2.524-9.143-2.524-9.143z"/><path d="M112.598 432.487q-20.488 0-31.996-10.111c-11.508-10.111-11.508-16.32-11.508-28.737q0-13.702 4.224-25.344 4.224-11.64 12.273-20.29 7.983-8.58 19.59-13.436t26.109-4.856q8.715 0 17.395 2.095t17.728 6.819l-2.993 15.034h-1.198q-7.383-6.92-16.065-10.011-8.68-3.093-18.659-3.094-10.976 0-19.224 4.324-8.248 4.325-13.903 11.508-5.52 7.052-8.348 16.43-2.827 9.38-2.827 18.892 0 14.302 7.816 22.085t23.116 7.783q6.718 0 12.606-1.23 5.887-1.23 11.076-3.16l5.588-25.344H116.99l2.527-11.11h39.646l-9.845 42.507a2927 2927 0 0 1-7.915 3.226q-3.526 1.43-8.848 2.96a91 91 0 0 1-9.479 2.195q-4.89.865-10.477.865zm102.37-.13q-18.825 0-29.535-9.745t-10.71-27.64q0-13.703 4.124-25.543 4.125-11.841 11.841-20.754 7.65-8.78 18.825-13.87 11.175-5.088 24.945-5.088 8.58 0 16.231 2.095 7.65 2.096 15.7 6.62l-2.994 14.9h-.998a75 75 0 0 0-4.424-4.092q-2.228-1.896-6.685-4.157-3.659-1.93-8.714-3.227t-11.175-1.297q-9.313 0-17.096 3.892t-13.504 10.876q-5.588 6.784-8.78 16.497-3.195 9.71-3.194 20.688 0 13.703 7.118 21.32 7.118 7.616 20.555 7.616 6.32 0 12.007-1.43 5.688-1.43 10.344-3.625 4.324-2.062 7.783-4.324t5.92-4.19h.931l-3.126 15.3q-6.985 3.525-16.065 6.352t-19.324 2.827zm95.26 0q-18.825 0-29.535-9.745t-10.71-27.64q0-13.703 4.124-25.543t11.841-20.754q7.65-8.78 18.825-13.87 11.175-5.088 24.945-5.088 8.58 0 16.231 2.095 7.65 2.096 15.7 6.62l-2.994 14.9h-.998a75 75 0 0 0-4.424-4.092q-2.228-1.896-6.685-4.157-3.659-1.93-8.714-3.227t-11.175-1.297q-9.313 0-17.096 3.892t-13.504 10.876q-5.588 6.784-8.78 16.497-3.195 9.71-3.194 20.688 0 13.703 7.118 21.32 7.118 7.616 20.555 7.616 6.32 0 12.007-1.43 5.688-1.43 10.344-3.625 4.324-2.062 7.783-4.324t5.92-4.19h.931l-3.126 15.3q-6.983 3.525-16.065 6.352-9.08 2.827-19.324 2.827z" font-family="Sans" font-size="32.055"/><path fill="#fff" fill-rule="evenodd" stroke="#000" stroke-width="1.041" d="M343.488 222.917c-.91-4.06-11.913 3.49-12.065 7.892-.151 4.4 10.696 12.953 11.534 9.105.835-3.832 1.435-12.967.531-16.997z"/></svg>