<svg xmlns="http://www.w3.org/2000/svg" viewBox="0 0 167.4 103.34"><path fill="#fff" d="M100.818 21.476c-1.941.047-3.489.539-4.313 1.531-.71.857-2.793 2.173-4.625 2.938-1.83.765-3.312 1.815-3.312 2.312s-7.23 1.206-16.062 1.594c-14.146.622-17.352 1.095-26.812 4-3.897 1.197-7.615 2.106-10.281 2.563-.533.091-1.026.165-1.469.218-.442.053-.818.114-1.156.125-.338.012-.625.001-.844-.03-2.483-.365-3.58.164-6.125 3.062-1.7 1.937-4.795 4.439-6.906 5.562-4.71 2.506-8.344 5.56-8.344 7 0 .593 1.913 2.27 4.25 3.75l4.25 2.688-3.125.843c-3.108.813-6.705 3.813-4.562 3.813.59 0 2.409 1.912 4.03 4.25 7.76 11.179 23.522 24.75 28.75 24.75.766 0 1.407.384 1.407.844s1.626 2.934 3.625 5.5c3.8 4.877 5.375 5.75 5.375 3.03 0-1.164.6-1.438 2.156-1.03a5.9 5.9 0 0 0 1.656.187c.175-.005.333-.009.5-.031 2.008-.27 3.5-1.812 4-4.313l.563-2.875 11.312-.625c3.11-.175 6.282-.448 8.875-.718a90 90 0 0 0 3.375-.407c.933-.134 1.65-.257 2.062-.375 2.258-.641 3.92-.383 6.72 1.063.32.165.63.3.937.437 2.146.956 3.964 1.212 5.78.813.173-.038.372-.089.563-.156s.386-.154.594-.25c6.251-2.879 19.906-18.051 19.906-22.562 0-.293-1.586-.532-3.531-.532h-3.563l2.563-3.718c1.395-2.053 2.531-4.258 2.531-4.875 0-1.956 3.23-4.971 6.031-6.032.216-.081.448-.13.657-.187.417-.114.818-.188 1.187-.188 1.63 0 2.788.543 3.094.875.547.595 4.53 4.17 9.437 8.5 8.22 7.254 9.04 7.719 10.25 6.063.723-.988 1.243-2.204 1.594-3.594.07-.278.133-.552.188-.844.55-2.914.367-6.497-.625-10.312-1.347-5.176-1.359-6.28 0-10.406 1.245-3.784 1.338-5.77.437-11.03-.605-3.534-1.338-6.682-1.625-6.97-.287-.286-3.831 2.16-7.875 5.438-7.165 5.809-11.21 8.69-14.375 9.438a8 8 0 0 1-1.031.187c-1.997.19-3.713-.53-5.813-1.906l-2.843-1.875 3.156-.813c1.732-.448 3.156-1.333 3.156-1.968 0-.636-2.177-3.243-4.844-5.813-5.527-5.328-15.083-9.08-20.906-8.937z"/><g color="#000"><path fill="#cdcdcd" d="M168.83 17.542c3.212 6.7 1.089 14.747-.715 20.704 1.772 5.625 3.37 12.721 1.198 18.38-3.158 3.807-8.026-3.425-11.49-6.116-4.36-3.002-8.266-9.89-13.95-7.555-5.797 2.465-6.254 8.33-9.577 13.066-3.134 4.574-3.976 9.975-8.94 13.605-9.26 6.737-20.57 10.018-31.994 10.538-10.66.274-21.997.47-32.486-.8-8.285-1.41-13.876-9.257-19.52-14.706-3.992-3.952-8.732-9.089-10.76-14.248 8.759-5.254 9.601-.616 14.09 4.525-2.254-2.954-4.651-5.585-7.144-8.21-4.743-3.576-11.505-6.59-4.594-10.151 2.791-1.378 8.594-8.016 7.868.539.66 6.275 1.997 12.538 8.776 12.96 6.68-.296 8.204-8.153 8.298-12.03-.118-4.262-3.865-8.632-5.388-11.67 4.925-2.03 11.77-4.18 16.896-5.688 9.974-2.206 20.285-1.69 30.436-2.046 5.545-.131 11.728-.24 17.195.225 6.843.408 9.584 1.351 13.76 4.544 5.624 3.215 8.574 7.924 15.74 9.038 6.893-3.401 11.707-7.98 17.744-11.962 1.066-.88 3.46-2.592 4.558-2.942z" style="text-indent:0;text-transform:none" transform="translate(-17.233 11.945)"/><path fill="#fff" d="M167.41 21.123c-7.145 4.56-9.805 13.623-21.331 13.802-8.122.127-16.235-13.48-27.779-12.48-15.136-.03-31.28-.582-47.062 1.781-7.763 1.325-11.484 4.079-16.874 4.371 5.604 6.37 8.914 20.481.24 22.923-2.343-.92-11.658 2.245-13.878-9.69-.766-2.055-.75-4.534-1.361-5.858-1.752 1.792-6.069 3.057-7.092 5.074 1.948 2.393 4.112 2.436 6.308 4.547 1.2 1.684 2.599 3.267 3.905 4.812 3.866 4.626 4.58 5.76 4.498 7-1.296.45-3.385-1.593-5.638-4.738-1.492-2.61-5.727-3.712-8.702-2.247 5.941 8.508 14.353 17.14 22.24 22.938 6.976 4.88 19.213 3.134 29.73 2.962 18.778-.82 29.493.132 40.814-10.92 5.565-5.72 8.809-13.56 13.71-20.165 4.076-5.495 11.239-5.271 16.416-.415 4.931 4.624 6.064 7.103 11.475 10.339 3.6-7.168-1.404-8.676-2.787-14.451.921-5.819 6.211-13.578 3.17-19.584z" style="text-indent:0;text-transform:none" transform="translate(-17.233 11.945)"/></g><path d="M25.62 73.259c-3.309-3.402-5.797-6.405-5.53-6.673s3.445 2.517 7.062 6.187 6.104 6.672 5.53 6.672c-.576 0-3.753-2.783-7.062-6.186M71.131 56.213c-1.901-2.3-.726-3.334-1.76-5.565-.207-.446-2.783 1.065-4.863 2.255-2.354 1.346-3.757 2.118-3.218 3.078.527.94 1.261.679 3.343-.357 1.195-.595 3.533-1.752 3.739-1.383.243.437-1.861 1.498-3.235 2.244-2.023 1.099-3.298 1.227-3.018 2.173.366 1.234 1.119.643 3.443.657 2.168.012 3.612-.122 3.61.247-.003.478-1.158.551-3.77.763-1.686.137-2.884.225-3.176 1.14-.36 1.136.124 1.434 2.587 1.967 3.44.744 3.2 1.649-.379.809-4.335-1.018-4.23.333.38 3.038 3.702 2.172 3.82 2.488 5.363.258.872-1.26 1.974-4.27 1.856-6.894-.084-1.863.124-3.188-.902-4.43zm-12.577 8.569c3.115-2.366 3.615-6.256.227-9.46 2.18-1.831 5.686-4.972 11.447-6.662 1.14-.334.422 4.503 2.584 7.142 1.886 2.301.69 8.65-.309 10.821-.673 1.464-1.25 2.818-3.497 4.803-3.114-1.332-9.632-4.807-10.452-6.644zM44.861 67.044c4.381-4.06 8.191-14.834 6.55-19.476-.592-1.673-.198-2.622.402-1.877 4.663 5.785-3.164 23.662-8.072 23.755-.984.02-.614-.794 1.12-2.401zM77.991 62.025c.613-1.931.207-5.653-.855-7.268-1.357-2.064-1.155-3.744.342-2.3 2.315 2.233 2.658 10.092.88 12.505-1.329 1.804-.96-1.068-.367-2.937zM139.961 57.619c-3.756-3.253-4.425-4.99-1.648-3.258 3.495 2.179 7.748 6.013 6.25 6.008-.825-.003-2.814-1.22-4.602-2.75M143.381 55.263c-3.512-1.855-5.753-3.817-4.212-3.817.976 0 9.397 4.966 9.397 5.542 0 .835-1.459.243-5.185-1.725M18.204 51.751c-.953-.953-.773-3.306.254-3.306 1.226 0 2.211 2.817 1.202 3.44-.449.278-1.104.218-1.456-.134M131.061 48.445c.34-.55 4.085-.691 6.285-.691 2.412 0 4.014.199 3.826.691-.23.604-2.714.987-4.914.987-2.412 0-5.57-.384-5.197-.987M139.561 44.772c0-.911 9.097-4.452 9.753-3.796.521.521-7.202 4.506-8.713 4.506-.572 0-1.04-.279-1.04-.71M138.541 42.103c2.317-2.28 9.009-7.008 9.613-6.404.302.303-1.57 2.17-4.162 4.149-4.748 3.625-7.768 4.535-5.451 2.255z"/><path d="M100.808 21.471c-1.941.047-3.457.538-4.281 1.531-.711.857-2.794 2.172-4.625 2.938-1.832.765-3.344 1.815-3.344 2.312s-7.23 1.206-16.062 1.594c-14.146.622-17.32 1.095-26.781 4-6.235 1.914-12.029 3.132-13.781 2.875-2.484-.365-3.55.165-6.094 3.062-1.7 1.938-5.19 3.884-7.196 5.184-2.436 1.579-4.925 3.728-6.786 4.327-1.49.479-1.316 1.295-1.35 3.14-.01.593 1.963 2.213 4.301 3.693l4.25 2.688-3.125.812c-3.108.813-6.674 3.813-4.531 3.813.59 0 2.377 1.912 4 4.25 7.758 11.179 21.602 24.262 28.78 24.75.764.052 1.376.384 1.376.844s1.626 2.934 3.625 5.5c3.8 4.877 5.375 5.75 5.375 3.03 0-1.164.599-1.438 2.156-1.03 3.087.807 5.49-.822 6.156-4.157l.594-2.875 11.28-.625c6.22-.351 12.663-1.03 14.313-1.5 2.257-.641 3.919-.383 6.719 1.063 2.56 1.323 4.673 1.706 6.75 1.25 5.516-1.212 21.03-18.156 21.03-22.97 0-.292-1.586-.53-3.53-.53h-3.532l2.532-3.72c1.394-2.052 2.53-4.257 2.53-4.874 0-2.408 4.922-6.406 7.876-6.406 1.63 0 2.82.542 3.125.875.547.594 4.53 4.169 9.437 8.5 8.22 7.253 9.008 7.75 10.22 6.093 2.312-3.162 2.743-8.645 1.155-14.75-1.346-5.176-1.327-6.311.032-10.438 1.245-3.784 1.307-5.77.406-11.03-.605-3.534-1.338-6.651-1.625-6.938s-3.831 2.159-7.875 5.437c-12.737 10.327-15.62 11.356-21.22 7.688l-2.812-1.844 3.125-.844c1.732-.448 3.157-1.333 3.157-1.968 0-.636-2.178-3.243-4.844-5.813-5.528-5.328-15.083-9.08-20.906-8.937zm2.907 2.029c-2.216.994-4.075 1.48-8.54 5.04-1.353-.11-2.327-.072-3.93-.04.028-.779 5.58-2.802 8.031-5.361 1.801-.158 2.943-.138 4.44.36m2.176.631c1.026.199 1.642.39 2.37.722-1.512.82-3.898 2.482-4.99 4.652-1.587-.325-3.227-.532-5.61-.762 2.785-2.003 4.66-3.233 8.23-4.612zm3.995 1.495c1.303.405 3.773 1.402 4.946 2.351-2.103.432-4.17 1.732-5.546 2.844-.998-.302-2.171-.787-3.96-1.12.545-1.613 2.766-3.063 4.56-4.075m6.345 3.25c2.319 1.238 3.175 2.07 4.078 3.073-1.728.727-3.81 1.414-5.264 2.143-1.788-1.006-2.861-1.682-4.092-2.557 1.048-1.081 4.125-2.36 5.278-2.659zm34.827 1.814c.047-.008.077-.017.093 0 1.505 1.504 1.544 11.067.063 15.594-1.446 4.42-1.478 5.278-.156 7.812 1.82 3.491 1.944 11.36.218 13.72-1.154 1.578-2.114.99-10.53-6.313-5.102-4.427-10.12-8.063-11.157-8.063-3.952 0-6.807 1.986-8.906 6.188-1.19 2.382-3.75 7.012-5.687 10.312s-3.756 6.767-4.063 7.687c-.926 2.773-10.604 8.5-18.469 10.938-6.544 2.028-9.818 2.316-28.406 2.563-24.937.33-24.545.468-36.875-12.438-9.606-10.055-14.149-16.148-12.406-16.688 5.837-1.806 6.578-1.618 10.188 2.687 1.96 2.337 3.782 4.27 3.793 3.642.048-1.764-9.258-11.482-12.368-13.484-3.834-2.467-3.791-3.89.937-6.406 1.784-.95 3.807-2.206 4.5-2.78.987-.819 1.273.115 1.313 4.25.12 12.66 11.245 17.707 16.469 7.468 2.638-5.172 2.473-9.205-.594-14.438l-2.561-4.375 3.812-1.063c5.451-1.514 5.931-1.375 8.312 1.969 2.497 3.506 3.497 3.234 4.375-1.157 1.417-7.08 4.406-7.603 7.625-1.343 3.006 5.843 4.528 7.106 6.5 5.468.825-.684 1.5-2.018 1.5-2.968s.49-3.143 1.094-4.875c.877-2.514 1.655-3.157 3.875-3.157 2.173 0 3.08.677 4.094 3.125 1.421 3.432 5.652 8.875 6.906 8.875.725 0 1.276-1.213 4.25-9.25.858-2.317 1.62-2.75 4.719-2.75 3.252 0 3.79.397 4.844 3.313.655 1.813 1.823 4.134 2.594 5.187 1.87 2.559 4.167.739 5.062-4.03.358-1.906.844-3.47 1.063-3.47 1.01 0 8.35 4.681 11.28 7.188 4.879 4.172 9.093 6.081 11.907 5.375 1.358-.341 6.502-3.826 11.438-7.719 4.626-3.65 8.671-6.471 9.375-6.594zm-29.668 2.625c.977.754 2.286 2.144 2.813 2.582-1.036.631-3.152 1.135-4.762 1.602-.766-.623-1.51-1.078-2.717-2.263 1.035-.75 3.094-1.472 4.666-1.92m-90.515 5.187c1.706.005 3.447 1.07 5.062 3.188 4.277 5.606 4.963 8.575 3.094 13.469-.903 2.365-2.484 4.768-3.5 5.312-3.12 1.67-5.728 1.09-7.937-1.719L25.5 56.064l3.25-1.063c6.495-2.12 5.764-12.562-.875-12.562-2.57 0-2.58-.048-.813-2 1.18-1.303 2.486-1.94 3.813-1.937zm-5.344 8.094c.221-.04.66-.028.967.031.963.186 1.621.716 1.679 1.928.038.809-.903 1.512-1.865 1.697-1.228.237-1.75-.306-1.75-1.812 0-1.13.304-1.721.969-1.844m96.198 25.61c.171.108-.05.636-.698 1.671-2.01.153-3.788.178-5.687-.03.597-1.041.76-1.771.936-1.823a79 79 0 0 1 5.449.182m-7.27 3.372c1.848.305 3.41.303 5.228.237-.695.971-1.438 2.006-2.28 3.031-1.576-.047-3.165-.133-4.626-.594.547-.876 1.15-1.742 1.678-2.674m-2.96 4.518c1.315.564 2.714.674 4.188.75a113 113 0 0 1-3.219 3.437c-1.757.045-2.938-.492-3.781-1.5.99-.75 1.96-1.631 2.812-2.687m-5.093 4.187c1.314 1.224 2.621 1.704 3.968 2.063-1.079 1.377-2.426 2.306-3.78 3.062-1.71-.567-4.08-.89-4.72-2.5.694-.319 1.31-.61 1.688-.875.666-.465 1.683-1.043 2.844-1.75zm-7.657 4c.985 1.32 3.856 1.97 5.813 2.531-1.486.974-2.86 1.76-3.406 1.72-2.047-.156-6.273-1.552-5.813-2.282.173-.513 1.697-1.227 3.406-1.969M54.324 94.7c.994.978 1.711 1.03 2.27-.26.589-1.363.955-1.282.968.093.008.867-1.072 2.558-2.375 3.781l-2.344 2.22-2.687-3.272c-1.548-1.884-2.767-3.613-2.073-3.625 1.204-.02 1.354-.137 2.873 1.506 2.832 3.062 4.66 2.618 2.05.337-2.307-2.017-1.55-2.04-.632-2.04 1.323 0 1.314.633 1.95 1.26m6.644-1.26c1.054 0 1.236.7.688 2.75-.405 1.512-1.532 2.906-2.5 3.093-1.562.301-1.618.074-.469-2 .712-1.286 1.21-2.681 1.094-3.094-.117-.412.41-.75 1.187-.75M165.221 71.695c.413-2.062.75-4.65.75-5.75s-.337-3.687-.75-5.75c-.446-2.232-.365-3.75.201-3.75.524 0 1.254 2.199 1.624 4.887.761 5.534-.238 14.113-1.643 14.113-.544 0-.62-1.563-.182-3.75zM157.571 73.754c.006-.445.6-2.834 1.322-5.309 1.281-4.397 1.336-7.426.242-13.5-.508-2.822-.452-2.885.943-1.059 2.522 3.303 1.363 18.28-1.555 20.082-.53.327-.958.231-.952-.214zM159.751 40.066c.307-4.238-.455-7.38-1.709-10.022-.958-2.018-1.53-4.032-1.122-4.289.483-.304 2.671 3.078 3.263 5.915 1.207 5.78 1.647 12.975-.186 13.469-.715.193-.527-1.182-.246-5.073zM165.731 36.032c.13-2.098-.978-6.657-2.3-9.548-2.949-6.445-1.699-6.754 1.041-.78 2.912 6.348 3.668 14.28 2.209 13.742-.71-.262-1.08-1.313-.95-3.414zM29.409 28.126c-.418.017-.808.051-1.094.125-.143.037-.28.068-.375.156-.047.044-.082.114-.094.188s-.002.158.032.218c.202.366.637.499 1.156.563s1.15.044 1.875 0c1.075-.065 1.635.305 2.156.781.243.222.591.677.969 1.063.189.193.402.378.625.5s.46.175.719.125c.057-.011.12-.049.156-.094s.054-.078.062-.125a.9.9 0 0 0-.03-.313 3.3 3.3 0 0 0-.282-.718c-.275-.55-.696-1.182-1.094-1.531-.971-.854-1.572-.857-2.625-.907-.386-.018-1.319-.064-2.156-.031z"/><g fill="#fff" stroke="#000"><path d="M21.264 3.638c0 1.733-1.479 3.138-3.303 3.138s-3.304-1.405-3.304-3.138S16.137.5 17.961.5s3.303 1.405 3.303 3.138z"/><path stroke-width="1.125" d="M10.693 17.457a5.065 5.065 0 1 1-10.13 0 5.065 5.065 0 0 1 10.13 0zM19.062 23.899a1.927 1.927 0 1 1-3.854 0 1.927 1.927 0 0 1 3.854 0z"/></g><path d="M95.881 46.5c.633-.897.391-2.751-.671-3.512-1.357-.973-1.155-1.765.342-1.084 2.315 1.052 2.82 4.636.88 5.894-1.323.86-1.144-.458-.551-1.298"/><path d="M97.911 45.709c-1.505-.812-1.313-1.64.301-1.326 2.921.568 2.432 5.163.478 5.894-1.685.63-.877-.43-.165-1.47.847-1.24.603-2.442-.614-3.098zM95.241 53.336c.499-.977.507-2.503-.434-3.426-1.192-1.17-.944-1.935.463-1.084 2.274 1.376 1.972 4.434.598 5.894-1.081 1.15-1.18-.301-.627-1.384M102.341 57.153c-1.133-1.29-.636-2.3.747-1.412 2.14 1.375 1.774 6.119.024 5.96-1.432-.13 1.096-2.424-.771-4.548z"/><path d="M104.801 59.08c-1.732-.267-1.445-1.525.19-1.347 2.958.322 2.959 4.74 1.254 6.087-.948.75-.953-.545-.67-1.197.358-.822 1.62-2.186-.774-3.543M101.761 66.349c.917-.603 1.766-1.52 1.075-2.642-.774-1.255-.197-2.587.956-1.046 1.592 2.128-.305 4.583-2.22 5.173-1.51.464-.827-.818.189-1.485M83.551 72.356c1.071-.844.777-2.679-.566-3.583-1.244-.837-.892-1.694.535-1.084 2.338 1 3.013 4.935.688 5.895-1.459.602-1.465-.592-.657-1.228"/><path d="M85.951 70.723c-1.463-.885-1.23-1.925.301-1.326 2.71 1.059 2.432 5.163.478 5.894-1.685.63-1.262-.77-.393-1.242.876-.477 1.077-2.441-.386-3.326z"/><path d="M83.751 77.05c.782-.235.808-1.72-.224-2.127-1.209-.477-.992-1.879.463-1.084 2.33 1.272 1.59 4.034.125 4.298-1.513.273-1.341-.792-.364-1.086zM54.831 77.443c.633-.897.391-2.751-.671-3.513-1.357-.973-1.155-1.764.342-1.084 2.315 1.053 2.82 4.637.88 5.895-1.323.859-1.144-.458-.551-1.298"/><path d="M56.551 76.647c-1.538-.747-1.381-1.583.244-1.338 2.943.443 2.65 5.055.729 5.869-1.657.701-.894-.392-.228-1.462.794-1.275.499-2.465-.745-3.069M53.821 83.628c.696-.849 1.029-2.338.306-3.44-.915-1.396-.51-2.092.683-.96 1.93 1.829.982 4.752-.671 5.886-1.302.893-1.089-.546-.318-1.486"/></svg>