<svg xmlns="http://www.w3.org/2000/svg" version="1.0" viewBox="0 0 48.001 46"><defs><linearGradient id="f"><stop offset="0" stop-color="#fff"/><stop offset="1" stop-color="#eeeeec"/></linearGradient><linearGradient id="a"><stop offset="0" stop-color="#fff"/><stop offset="1" stop-color="#fff" stop-opacity="0"/></linearGradient><linearGradient id="e"><stop offset="0" stop-color="#ff6c6c"/><stop offset="1" stop-color="#c00"/></linearGradient><linearGradient id="c"><stop offset="0"/><stop offset="1" stop-opacity="0"/></linearGradient><linearGradient id="b"><stop offset="0" stop-color="#fff"/><stop offset="1" stop-color="#fce94f"/></linearGradient><linearGradient id="h" x1="21" x2="42.231" y1="37.678" y2="54.18" gradientTransform="matrix(2.25 0 0 1.2726 -56.912 -24.125)" gradientUnits="userSpaceOnUse"><stop offset="0" stop-color="#fef8c4"/><stop offset="1" stop-color="#edd400"/></linearGradient><linearGradient id="w" x1="21" x2="25" y1="26" y2="31" gradientTransform="matrix(.33333 0 0 .83333 6.333 4.075)" gradientUnits="userSpaceOnUse" href="#a"/><linearGradient id="y" x1="21" x2="25" y1="26" y2="31" gradientTransform="matrix(.33333 0 0 .83333 24.333 4.167)" gradientUnits="userSpaceOnUse" href="#a"/><linearGradient id="m" x1="12" x2="44.565" y1="14" y2="47.688" gradientTransform="matrix(.92 0 0 .88889 0 1.611)" gradientUnits="userSpaceOnUse" href="#b"/><linearGradient id="u" x1="21" x2="25" y1="26" y2="31" gradientTransform="matrix(.55556 0 0 1.1111 10.222 -.611)" gradientUnits="userSpaceOnUse" href="#a"/><linearGradient id="r" x1="40.036" x2="41.661" y1="12.359" y2="35.395" gradientTransform="translate(.179 .179)" gradientUnits="userSpaceOnUse"><stop offset="0" stop-color="#fff"/><stop offset=".749" stop-color="#edd400"/><stop offset="1" stop-color="#fff"/></linearGradient><linearGradient id="j" x1="3" x2="39" y1="27" y2="28" gradientUnits="userSpaceOnUse"><stop offset="0" stop-color="#c4a000"/><stop offset=".206" stop-color="#edd400"/><stop offset=".5" stop-color="#fce94f"/><stop offset=".75" stop-color="#edd400"/><stop offset="1" stop-color="#c4a000"/></linearGradient><linearGradient id="g" x1="8" x2="38" y1="39" y2="39" gradientTransform="translate(-25.912 -15.175)" gradientUnits="userSpaceOnUse"><stop offset="0" stop-color="#fce94f"/><stop offset=".5" stop-color="#fce94f"/><stop offset=".75" stop-color="#edd400"/><stop offset="1" stop-color="#c4a000"/></linearGradient><radialGradient id="q" cx="23.078" cy="12.744" r="3.5" gradientTransform="matrix(1.0997 -2.6392 -1.875 -2 19.432 98.396)" gradientUnits="userSpaceOnUse" href="#b"/><radialGradient id="o" cx="23.5" cy="19.5" r="14.5" gradientTransform="matrix(.31034 0 0 .13793 16.207 15.31)" gradientUnits="userSpaceOnUse" href="#c"/><radialGradient id="p" cx="21.625" cy="16.75" r="5.5" gradientTransform="matrix(.7 0 0 -.72727 6.55 25.182)" gradientUnits="userSpaceOnUse"><stop offset="0" stop-color="#fff5ac"/><stop offset="1" stop-color="#edd400"/></radialGradient><radialGradient id="l" cx="10.451" cy="27.331" r="7" gradientTransform="matrix(2.625 2.7444 -.43291 2.197 -4.976 -64.938)" gradientUnits="userSpaceOnUse"><stop offset="0" stop-color="#fff"/><stop offset="1" stop-color="#fff" stop-opacity="0"/></radialGradient><radialGradient id="i" cx="23.5" cy="19.5" r="14.5" gradientTransform="matrix(.55172 0 0 .24138 11.034 35.793)" gradientUnits="userSpaceOnUse" href="#c"/><radialGradient id="v" cx="23" cy="28.5" r="3" gradientTransform="matrix(.6 0 0 1.1667 .2 -5.842)" gradientUnits="userSpaceOnUse" href="#e"/><radialGradient id="x" cx="23" cy="28.5" r="3" gradientTransform="matrix(.6 0 0 1.1667 18.2 -5.75)" gradientUnits="userSpaceOnUse" href="#e"/><radialGradient id="t" cx="23" cy="28.5" r="3" gradientTransform="matrix(1 0 0 1.5556 0 -13.833)" gradientUnits="userSpaceOnUse" href="#e"/><radialGradient id="n" cx="13.071" cy="21.094" r="15.5" gradientTransform="matrix(1.4286 2.2587 -1.853 1.6167 33.347 -44.631)" gradientUnits="userSpaceOnUse" href="#b"/><radialGradient id="s" cx="3.5" cy="16.969" r="3.048" gradientTransform="matrix(.52907 1.2698 -1.3125 .78747 23.919 -1.007)" gradientUnits="userSpaceOnUse" href="#f"/><radialGradient id="k" cx="13.819" cy="8.88" r="14.5" gradientTransform="matrix(.35672 .45977 -.56559 .72898 16.265 4.506)" gradientUnits="userSpaceOnUse" href="#b"/></defs><g color="#000"><path fill="url(#g)" fill-rule="evenodd" stroke="#c4a000" d="M11.588 25.325c0 2.76-6.496 5-14.5 5s-14.5-2.24-14.5-5 6.496-5 14.5-5 14.5 2.24 14.5 5z" transform="translate(25.912 15.175)"/><path fill="none" stroke="url(#h)" d="M10.588 24.871c0 2.459-6.048 4.454-13.5 4.454s-13.5-1.995-13.5-4.454 6.048-4.454 13.5-4.454 13.5 1.995 13.5 4.454z" transform="translate(25.912 15.175)"/></g><g fill-rule="evenodd" color="#000"><path fill="url(#i)" d="M32 40.5c0 1.932-3.584 3.5-8 3.5s-8-1.568-8-3.5 3.584-3.5 8-3.5 8 1.568 8 3.5" opacity=".2"/><path fill="#c4a000" d="M30 39c0 1.656-3.136 3-7 3s-7-1.344-7-3 3.136-3 7-3 7 1.344 7 3"/><path fill="url(#j)" stroke="#c4a000" d="M22.676 13.5c-7.601 0-13.769 3.13-13.769 6.994 0 1.016-.153 3.176.111 5.708-2.488-.959-2.485-3.114-2.703-5.677H2.903c1.02 13.221 10.83 18.796 19.773 18.975 3.8 0 8.522-1.03 11.456-6.053s2.313-11.02 2.313-12.953c0-3.864-6.168-6.994-13.769-6.994z"/><path fill="url(#k)" d="M19 19c0 2.76 11.4 5 4.5 5S11 21.76 11 19s5.6-5 12.5-5-4.5 2.24-4.5 5" opacity=".6"/><path fill="url(#l)" d="M10.625 19c0 .916-.767 5.76-.625 8 .071 1.12-4.996-1.572-4.063-5 .39-1.433-2.119-1.428-2.098-.429.179 8.42 7.11 13.965 11.071 15.252C16.441 37.321 18.711 38 20 38l4-15c-4.448 0-12.238-1.618-13.375-4" opacity=".6"/></g><g fill="none" color="#000"><path stroke="url(#m)" d="M34.5 18.5c0 2.208-5.152 4-11.5 4s-11.5-1.792-11.5-4 5.152-4 11.5-4 11.5 1.792 11.5 4z"/><path stroke="#c4a000" d="M35.5 18.978c0 2.496-5.6 4.522-12.5 4.522s-12.5-2.026-12.5-4.522 5.6-4.522 12.5-4.522 12.5 2.026 12.5 4.522z"/><path stroke="url(#n)" d="M22.726 14.5c-7.024 0-12.799 2.812-12.799 6.38l.002 6.727c-2.686-.692-4.3-1.888-4.437-5.357-.628.036-.976-.156-1.35.013 1.538 10.45 9.634 16 18.584 16.237 3.511 0 7.889-.957 10.6-5.593s2.12-10.154 2.12-11.938c0-3.568-5.696-6.47-12.72-6.47z"/></g><ellipse cx="4.5" cy="20.5" fill="#816a24" fill-rule="evenodd" stroke="#c4a000" stroke-width="1.225" color="#000" rx="2" ry="1"/><g color="#000"><g fill-rule="evenodd"><ellipse cx="22.5" cy="17.5" fill="#c4a000" stroke="#edd400" stroke-width=".683" rx="3.5" ry=".5" transform="matrix(.71429 0 0 3 6.929 -34.5)"/><path fill="url(#o)" d="M28 18c0 1.104-2.016 2-4.5 2s-4.5-.896-4.5-2 2.016-2 4.5-2 4.5.896 4.5 2" opacity=".1"/><path fill="url(#p)" stroke="#c4a000" d="M26.5 14c0-1.38-1.568-2.5-3.5-2.5s-3.5 1.12-3.5 2.5 1.568 4.5 3.5 4.5 3.5-3.12 3.5-4.5z"/></g><path fill="none" stroke="url(#q)" d="M25.5 14.286c0-.986-1.12-1.786-2.5-1.786s-2.5.8-2.5 1.786S21.62 17.5 23 17.5s2.5-2.228 2.5-3.214z"/></g><g stroke-linecap="round" stroke-linejoin="round"><path fill="#edd400" stroke="#c4a000" d="M41 10.5c-3.601 0-5.643 3.345-5.643 6.946l1 2.357c0-2.965 1.846-6.392 4.893-6.392s4.16 2.467 4.25 5.433v9.062c-.378 4.71-7.385 5.64-11.062 6.344-.448.655-1.463 1.228-1.973 1.75 4.873-1.32 14.519-1.387 15.036-8V17c-.268-3.78-2.9-6.5-6.5-6.5z"/><path fill="none" stroke="url(#r)" d="M35.911 17.339c1.84-7.464 10.339-5.946 10.607.66v10.805c-.357 2.857-4.714 5.018-11.714 6.018" opacity=".8"/></g><g color="#000"><g fill="url(#s)" fill-rule="evenodd"><ellipse cx="4.5" cy="18" rx="2.5" ry="3" transform="matrix(.8 0 0 .66667 .4 6)"/><ellipse cx="4.5" cy="18" rx="2.5" ry="3" transform="matrix(1.8 0 0 1.5 -1.6 -21.5)"/><ellipse cx="4.5" cy="18" rx="2.5" ry="3" transform="matrix(1.4 0 0 1.1667 -1.8 -10.5)"/><ellipse cx="4.5" cy="18" rx="2.5" ry="3" transform="matrix(1 0 0 .83333 1 -.5)"/></g><path fill="none" stroke="#babdb6" d="M6.5.5c-2.76 0-5 2.24-5 5 0 .705.174 1.36.438 1.969C1.067 8.203.5 9.274.5 10.5c0 1.503.836 2.785 2.063 3.469a3 3 0 0 0-.063.531c0 .473.117.914.313 1.313A2.49 2.49 0 0 0 1.5 18a2.5 2.5 0 0 0 5 0c0-.229-.036-.445-.094-.656C7.613 16.955 8.5 15.835 8.5 14.5c0-.693-.23-1.336-.625-1.844.394-.62.625-1.368.625-2.156 0-.139-.049-.271-.062-.406C10.232 9.334 11.5 7.57 11.5 5.5c0-2.76-2.24-5-5-5z"/><path fill="none" stroke="#fff" stroke-width=".833" d="M6.5 1.438A4.073 4.073 0 0 0 2.437 5.5c0 .838.282 1.604.72 2.25a3.06 3.06 0 0 0-1.72 2.75c0 1.42.97 2.59 2.282 2.938a2.07 2.07 0 0 0-.313 1.062c0 1.15.944 2.094 2.094 2.094s2.094-.944 2.094-2.094c0-.76-.423-1.417-1.031-1.781.602-.56 1-1.333 1-2.219 0-.373-.065-.732-.188-1.062 1.81-.404 3.188-2.006 3.188-3.938A4.073 4.073 0 0 0 6.5 1.438zM4 16.405A1.59 1.59 0 0 0 2.406 18c0 .884.71 1.594 1.594 1.594A1.59 1.59 0 0 0 5.594 18 1.59 1.59 0 0 0 4 16.407z"/></g><path fill="url(#t)" stroke="#a40000" stroke-linecap="round" d="m23 26.5-2.5 4 2.5 4 2.5-4z"/><path fill="url(#u)" d="M23 27.167 21.333 30.5 23 33.834z"/><path fill="url(#v)" stroke="#a40000" stroke-linecap="round" d="m14 24.408-1.5 3 1.5 3 1.5-3z"/><path fill="url(#w)" d="m14 24.908-1 2.5 1 2.5z"/><path fill="url(#x)" stroke="#a40000" stroke-linecap="round" d="m32 24.5-1.5 3 1.5 3 1.5-3z"/><path fill="url(#y)" d="m32 25-1 2.5 1 2.5z"/></svg>