<svg xmlns="http://www.w3.org/2000/svg" viewBox="0 0 31.502 31.586"><path fill="#347eff" d="M31.413 14.273h-9.896a5.944 5.944 0 0 0-6.504-4.422c-2.97.378-5.195 2.91-5.195 5.912s2.225 5.533 5.195 5.912a5.944 5.944 0 0 0 6.504-4.422h6.865a12.74 12.74 0 0 1-10.31 11.07c-5.486 1.024-10.997-1.658-13.59-6.613S2.823 10.684 6.78 6.74a12.695 12.695 0 0 1 14.945-2.21 4.83 4.83 0 0 0 2.196 5.85 4.806 4.806 0 0 0 6.113-1.229c1.463-1.855 1.369-4.5-.222-6.247s-4.209-2.08-6.185-.788a15.72 15.72 0 0 0-19.013 2.51 15.82 15.82 0 0 0-2.503 19.062c3.565 6.19 10.831 9.208 17.717 7.358s11.674-8.106 11.674-15.254q0-.894-.09-1.52zm-15.662 4.47c-1.641 0-2.972-1.334-2.972-2.98s1.33-2.98 2.972-2.98 2.972 1.334 2.972 2.98-1.33 2.98-2.972 2.98M26.242 4.38c.721 0 1.371.435 1.647 1.103a1.79 1.79 0 0 1-.386 1.948 1.78 1.78 0 0 1-1.943.388 1.79 1.79 0 0 1-1.101-1.652c0-.987.798-1.788 1.783-1.788"/></svg>