<svg xmlns="http://www.w3.org/2000/svg" viewBox="0 0 453.64 452.8"><defs><path id="a" d="M485 440.24c0 24.72-20.04 44.76-44.76 44.76H71.76C47.04 485 27 464.96 27 440.24V71.76C27 47.04 47.04 27 71.76 27h368.48C464.96 27 485 47.04 485 71.76z"/></defs><clipPath id="b"><use width="512" height="512" overflow="visible" href="#a"/></clipPath><g clip-path="url(#b)" transform="translate(-29.167 -29.529)"><path fill="none" stroke="#666" stroke-miterlimit="10" stroke-width="30" d="M44 480.09C85.78 202.17 150.76-36.77 255.79 256.07 361.69 551.32 423.32 309.97 468 31.91"/><circle cx="163.95" cy="121.95" r="63.047" fill="#99f"/><path fill="#333" d="M163.95 58.906c-34.817 0-63.047 28.233-63.047 63.047 0 34.823 28.23 63.047 63.047 63.047s63.047-28.223 63.047-63.047c0-34.814-28.23-63.047-63.047-63.047m0 107.18c-24.374 0-44.133-19.76-44.133-44.133s19.76-44.133 44.133-44.133 44.133 19.76 44.133 44.133-19.76 44.133-44.133 44.133"/><circle cx="346.05" cy="391.05" r="63.047" fill="#99f"/><path fill="#333" d="M346.05 328c-34.817 0-63.047 28.233-63.047 63.047 0 34.823 28.23 63.047 63.047 63.047s63.047-28.223 63.047-63.047c0-34.814-28.23-63.047-63.047-63.047m0 107.18c-24.374 0-44.133-19.76-44.133-44.134s19.76-44.133 44.133-44.133 44.133 19.76 44.133 44.133-19.76 44.133-44.133 44.133z"/></g></svg>