<svg xmlns="http://www.w3.org/2000/svg" fill="none" viewBox="0 0 58.401 53.001"><path fill="#262930" d="M24.597 27.997c2.856 1.648 4.283 2.472 5.851 2.474 1.568 0 2.997-.82 5.856-2.464l18.22-10.473c1.774-1.019 1.774-3.577 0-4.596L36.296 2.461C33.442.82 32.014 0 30.447 0c-1.565 0-2.992.822-5.846 2.466L8.932 11.489l-.228.132A17.59 17.59 0 0 0 0 26.676v.527A17.59 17.59 0 0 0 8.915 42.38l9.814 5.667c5.72 3.302 8.579 4.953 11.72 4.954s6-1.648 11.721-4.946l10.361-5.973c2.865-1.651 4.297-2.477 5.084-3.838s.786-3.015.786-6.321v-6.388c-.002-1.943-2.102-3.158-3.788-2.192L33.368 35.555c-1.426.82-2.139 1.229-2.92 1.23-.783 0-1.496-.41-2.922-1.228l-14.379-8.254c-.72-.414-1.08-.62-1.37-.658a1.466 1.466 0 0 0-1.544.9c-.11.27-.108.686-.104 1.516.004.611.005.917.062 1.198.128.63.46 1.2.943 1.623.216.19.481.342 1.01.648l15.374 8.873c1.43.825 2.145 1.237 2.93 1.238s1.5-.412 2.93-1.237L52.22 30.542c.489-.281.733-.422.916-.316s.183.387.183.951v2.898c0 .826 0 1.24-.197 1.58-.196.34-.554.547-1.27.96L36.31 45.573c-2.861 1.649-4.292 2.474-5.862 2.473-1.57 0-3-.827-5.86-2.479l-14.541-8.4-.091-.052a9.99 9.99 0 0 1-4.948-8.572v-2.765a5.47 5.47 0 0 1 2.725-4.729 4.81 4.81 0 0 1 4.82-.004z"/></svg>