<svg fill="none" version="1.1" viewBox="0 0 16 16" xmlns="http://www.w3.org/2000/svg"><path d="m0 6.1036c0-2.506 0-3.7591 0.62356-4.6463 0.22769-0.32397 0.50978-0.60606 0.83374-0.83374 0.88724-0.62356 2.1403-0.62356 4.6463-0.62356h3.7927c2.506 0 3.759 0 4.6463 0.62356 0.324 0.22769 0.606 0.50978 0.8337 0.83374 0.6236 0.88724 0.6236 2.1403 0.6236 4.6463v3.7927c0 2.506 0 3.759-0.6236 4.6463-0.2277 0.324-0.5097 0.606-0.8337 0.8337-0.8873 0.6236-2.1403 0.6236-4.6463 0.6236h-3.7927c-2.506 0-3.7591 0-4.6463-0.6236-0.32397-0.2277-0.60606-0.5097-0.83374-0.8337-0.62356-0.8873-0.62356-2.1403-0.62356-4.6463z" fill="#93ede9"/><path d="m6.8484 8.5218 5.7628 2.9358c0.3807 0.194 0.8287-0.0881 0.8287-0.5218v-5.8716c0-0.43372-0.448-0.7158-0.8287-0.52184l-5.7628 2.9358c-0.42205 0.21501-0.42205 0.82867 0 1.0437z" fill="url(#a)"/><path d="m9.1516 8.5218-5.7628 2.9358c-0.38074 0.194-0.82871-0.0881-0.82871-0.5218v-5.8716c0-0.43372 0.44797-0.7158 0.82871-0.52184l5.7628 2.9358c0.42205 0.21501 0.42205 0.82867 0 1.0437z" fill="#000"/><defs><radialGradient id="a" cx="0" cy="0" r="1" gradientTransform="matrix(-5.3649 -9.3636e-5 9.8484e-5 -5.6427 8.0851 8)" gradientUnits="userSpaceOnUse"><stop stop-opacity="0" offset="0"/><stop offset="1"/></radialGradient></defs></svg>
