<svg xmlns="http://www.w3.org/2000/svg" version="1.1" viewBox="0 0 55.818 55.818"><path d="m27.909 0c15.414 0 27.909 12.495 27.909 27.909s-12.495 27.909-27.909 27.909-27.909-12.495-27.909-27.909 12.495-27.909 27.909-27.909zm14.128 12.404h-19.297c-5.709 0-10.337 4.629-10.337 10.338v19.295c0 0.761 0.617 1.378 1.378 1.378h20.33a9.303 9.303 0 0 0 9.302-9.303v-7.925c0-0.76-0.617-1.378-1.378-1.378h-15.85a1.38 1.38 0 0 0-1.379 1.378v3.446c-1e-3 0.716 0.545 1.305 1.244 1.372l0.133 7e-3h9.65c0.716 0 1.305 0.546 1.372 1.245l6e-3 0.132v0.69a4.135 4.135 0 0 1-4.135 4.134h-13.093a1.378 1.378 0 0 1-1.378-1.378v-13.093a4.135 4.135 0 0 1 3.928-4.13l0.206-5e-3h19.293a1.38 1.38 0 0 0 1.38-1.378l2e-3 -3.445a1.377 1.377 0 0 0-1.377-1.38z" fill="#c71d23" fill-rule="evenodd"/></svg>