<svg xmlns="http://www.w3.org/2000/svg" viewBox="0 0 192.05 184.99"><path d="M188.86 73.213l-.27-.69-26.14-68.22a6.81 6.81 0 00-2.69-3.24 7 7 0 00-8 .43 7 7 0 00-2.32 3.52l-17.65 54H60.32l-17.65-54a6.86 6.86 0 00-2.32-3.53 7 7 0 00-8-.43 6.87 6.87 0 00-2.69 3.24L3.47 72.483l-.26.69a48.54 48.54 0 0016.1 56.1l.09.07.24.17 39.82 29.82 19.7 14.91 12 9.06a8.07 8.07 0 009.76 0l12-9.06 19.7-14.91 40.06-30 .1-.08a48.56 48.56 0 0016.08-56.04z" fill="#e24329"/><path fill="#fc6d26" d="M188.86 73.213l-.27-.69a88.3 88.3 0 00-35.15 15.8l-57.41 43.41c19.55 14.79 36.57 27.64 36.57 27.64l40.06-30 .1-.08a48.56 48.56 0 0016.1-56.08z"/><path d="M59.457 159.37l19.7 14.91 12 9.06a8.07 8.07 0 009.76 0l12-9.06 19.7-14.91s-17.04-12.89-36.59-27.64c-19.55 14.75-36.57 27.64-36.57 27.64z" fill="#fca326"/><path fill="#fc6d26" d="M38.607 88.323a88.19 88.19 0 00-35.14-15.84l-.26.69a48.54 48.54 0 0016.1 56.1l.09.07.24.17 39.82 29.82 36.57-27.64z"/></svg>