<svg xmlns="http://www.w3.org/2000/svg" viewBox="0 0 331 331"><circle cx="165.5" cy="165.5" r="165.5" fill="#04090d"/><circle cx="165.5" cy="165.5" r="165.5" fill="url(#a)"/><circle cx="165.5" cy="165.5" r="165.5" fill="url(#b)"/><circle cx="165.5" cy="165.5" r="165.5" fill="url(#c)"/><path fill="#fff" fill-rule="evenodd" d="M165.5 324c87.537 0 158.5-70.963 158.5-158.5S253.037 7 165.5 7 7 77.963 7 165.5 77.963 324 165.5 324m0 7c91.403 0 165.5-74.097 165.5-165.5S256.903 0 165.5 0 0 74.097 0 165.5 74.097 331 165.5 331" clip-rule="evenodd" style="mix-blend-mode:soft-light"/><mask id="e" fill="#fff"><path fill-rule="evenodd" d="M170.57 82.555c1.749 5.206 1.572 10.622-.155 15.534 4.492 4.011 9.428 8.66 14.779 14.03 13.323 13.369 22.344 24.306 28.204 32.225a26.7 26.7 0 0 1 9.265-1.651c14.792 0 26.783 12.032 26.783 26.875s-11.991 26.875-26.783 26.875-26.783-12.033-26.783-26.875a26.83 26.83 0 0 1 6.881-17.986c-5.805-7.463-14.202-17.427-25.95-29.687a322 322 0 0 0-13.435-13.244 27.2 27.2 0 0 1-9.615 5.643 27.6 27.6 0 0 1-4.779 1.156c-.935 10.781-1.717 25.55-1.717 44.784 0 27.677 1.62 46.109 2.982 56.715 3.744.432 7.518 1.637 11.064 3.674 12.817 7.358 17.815 22.777 11.166 34.438s-22.43 15.15-35.246 7.791c-12.817-7.358-17.816-22.777-11.166-34.438 2.615-4.586 6.641-7.908 11.345-9.803-1.644-9.323-3.513-26.813-3.513-58.15 0-21.118.849-36.013 1.905-46.373-6.709-2.508-12.183-7.742-14.569-14.844-4.341-12.92 3.185-27.13 16.809-31.739s28.188 2.13 32.528 15.05" clip-rule="evenodd"/></mask><path fill="url(#d)" fill-rule="evenodd" d="M170.57 82.555c1.749 5.206 1.572 10.622-.155 15.534 4.492 4.011 9.428 8.66 14.779 14.03 13.323 13.369 22.344 24.306 28.204 32.225a26.7 26.7 0 0 1 9.265-1.651c14.792 0 26.783 12.032 26.783 26.875s-11.991 26.875-26.783 26.875-26.783-12.033-26.783-26.875a26.83 26.83 0 0 1 6.881-17.986c-5.805-7.463-14.202-17.427-25.95-29.687a322 322 0 0 0-13.435-13.244 27.2 27.2 0 0 1-9.615 5.643 27.6 27.6 0 0 1-4.779 1.156c-.935 10.781-1.717 25.55-1.717 44.784 0 27.677 1.62 46.109 2.982 56.715 3.744.432 7.518 1.637 11.064 3.674 12.817 7.358 17.815 22.777 11.166 34.438s-22.43 15.15-35.246 7.791c-12.817-7.358-17.816-22.777-11.166-34.438 2.615-4.586 6.641-7.908 11.345-9.803-1.644-9.323-3.513-26.813-3.513-58.15 0-21.118.849-36.013 1.905-46.373-6.709-2.508-12.183-7.742-14.569-14.844-4.341-12.92 3.185-27.13 16.809-31.739s28.188 2.13 32.528 15.05" clip-rule="evenodd"/><path fill="#fff" d="m170.41 98.089-.944-.332-.222.632.5.446zm.155-15.534.948-.319zm14.624 29.564-.708.706zm28.204 32.225-.804.595.447.603.704-.26zm-10.637 7.238.744.668.559-.622-.513-.66zm-25.95-29.687-.722.692zm-13.435-13.244.68-.733-.674-.625-.679.619zm-9.615 5.643.32.947zm-4.779 1.156-.148-.989-.78.116-.069.787zm1.265 101.5-.992.127.099.777.778.089zm11.064 3.674.498-.868zm11.166 34.438-.869-.495zm-35.246 7.792-.498.867zm-11.166-34.439.869.495zm11.345-9.803.373.928.752-.303-.141-.798zm-1.608-104.52.995.102.078-.768-.722-.27zm-14.569-14.844.948-.318zm16.809-31.739.32.947zm33.316 30.916c1.797-5.11 1.984-10.755.16-16.184l-1.896.637c1.674 4.983 1.507 10.17-.151 14.884zm14.545 12.992c-5.365-5.383-10.315-10.045-14.822-14.07l-1.332 1.492c4.477 3.998 9.399 8.634 14.737 13.99zm28.299 32.336c-5.89-7.959-14.943-18.934-28.299-32.336l-1.417 1.412c13.29 13.335 22.278 24.236 28.108 32.114zm8.461-2.056a27.7 27.7 0 0 0-9.612 1.713l.694 1.876a25.6 25.6 0 0 1 8.918-1.589zm27.783 27.875c0-15.392-12.436-27.875-27.783-27.875v2c14.236 0 25.783 11.581 25.783 25.875zm-27.783 27.875c15.347 0 27.783-12.484 27.783-27.875h-2c0 14.293-11.547 25.875-25.783 25.875zm-27.783-27.875c0 15.391 12.435 27.875 27.783 27.875v-2c-14.237 0-25.783-11.582-25.783-25.875zm7.137-18.654a27.83 27.83 0 0 0-7.137 18.654h2a25.83 25.83 0 0 1 6.625-17.318zm-25.928-28.327c11.725 12.237 20.1 22.174 25.883 29.609l1.579-1.228c-5.828-7.491-14.247-17.481-26.018-29.765zm-13.393-13.203a322 322 0 0 1 13.393 13.203l1.444-1.384a323 323 0 0 0-13.477-13.285zm-8.615 5.857a28.2 28.2 0 0 0 9.968-5.85l-1.346-1.479a26.2 26.2 0 0 1-9.262 5.435zm-4.952 1.198a28.4 28.4 0 0 0 4.952-1.198l-.64-1.894c-1.53.517-3.071.886-4.607 1.114zm-.864 43.795c0-19.207.781-33.947 1.713-44.697l-1.993-.173c-.937 10.811-1.72 25.609-1.72 44.87zm2.974 56.588c-1.356-10.56-2.974-28.95-2.974-56.588h-2c0 27.716 1.622 46.191 2.99 56.842zm-1.107 1.12c3.61.417 7.253 1.579 10.681 3.548l.996-1.735c-3.665-2.104-7.569-3.352-11.448-3.799zm10.681 3.548c12.419 7.13 17.128 21.97 10.795 33.076l1.737.991c6.967-12.217 1.678-28.215-11.536-35.802zm10.795 33.076c-6.332 11.104-21.462 14.549-33.879 7.419l-.996 1.735c13.215 7.587 29.645 4.056 36.612-8.163zm-33.879 7.419c-12.419-7.13-17.128-21.969-10.795-33.076l-1.738-.99c-6.966 12.216-1.677 28.214 11.537 35.801zm-10.795-33.076c2.495-4.376 6.34-7.553 10.849-9.37l-.747-1.855c-4.897 1.973-9.106 5.44-11.84 10.235zm5.963-68.448c0 31.372 1.871 48.924 3.528 58.324l1.969-.347c-1.63-9.246-3.497-26.674-3.497-57.977zm1.91-46.474c-1.06 10.401-1.91 25.33-1.91 46.474h2c0-21.092.848-35.952 1.9-46.271zM120.28 99.567c2.489 7.41 8.198 12.856 15.167 15.462l.701-1.873c-6.45-2.412-11.69-7.432-13.972-14.226zm17.437-33.005c-14.099 4.769-21.969 19.514-17.437 33.005l1.896-.637c-4.15-12.35 3.031-26.025 16.181-30.473zm33.796 15.678c-4.533-13.492-19.697-20.448-33.796-15.678l.64 1.895c13.149-4.448 27.112 2.072 31.26 14.42z" mask="url(#e)" style="mix-blend-mode:soft-light"/><defs><radialGradient id="b" cx="0" cy="0" r="1" gradientTransform="matrix(-169.03 148.26 -148.29 -169.05 368.12 110.09)" gradientUnits="userSpaceOnUse"><stop offset="0" stop-color="#00A3FF"/><stop offset="1" stop-color="#00A3FF" stop-opacity="0"/></radialGradient><radialGradient id="c" cx="0" cy="0" r="1" gradientTransform="matrix(150.98 140.79 -140.98 151.19 -20.947 214.12)" gradientUnits="userSpaceOnUse"><stop offset="0" stop-color="#00A3FF"/><stop offset="1" stop-color="#0D1017" stop-opacity="0"/></radialGradient><linearGradient id="a" x1="-37" x2="253.26" y1="109" y2="384.73" gradientUnits="userSpaceOnUse"><stop offset="0" stop-color="#F1C6FF"/><stop offset=".104" stop-color="#DD74FF"/><stop offset=".352" stop-color="#DD74FF" stop-opacity="0"/><stop offset=".62" stop-color="#4E032E" stop-opacity="0"/><stop offset=".825" stop-color="#3C17A7"/><stop offset="1" stop-color="#3687FF"/></linearGradient><linearGradient id="d" x1="168.5" x2="296.88" y1="104.5" y2="359.56" gradientUnits="userSpaceOnUse"><stop offset="0" stop-color="#fff"/><stop offset="1" stop-color="#B7E1FF" stop-opacity=".58"/></linearGradient></defs></svg>