<svg xmlns="http://www.w3.org/2000/svg" viewBox="0 0 36 39.999"><path fill="url(#a)" fill-rule="evenodd" d="M21.388 1.991c1.07 1.895.42 4.31-1.452 5.392L8.302 14.117c-.308.178-.498.51-.498.868v10.57c0 .36.19.69.498.87l9.209 5.33a.98.98 0 0 0 .978 0l9.21-5.33c.307-.179.497-.51.497-.87v-6.573l-8.279 4.73a3.876 3.876 0 0 1-5.316-1.5c-1.059-1.9-.395-4.31 1.481-5.384l11.846-6.769C31.536 7.997 36 10.64 36 14.834v11.524a7.54 7.54 0 0 1-3.742 6.53l-10.573 6.12a7.35 7.35 0 0 1-7.37 0l-10.573-6.12A7.54 7.54 0 0 1 0 26.36V14.182a7.54 7.54 0 0 1 3.742-6.53L16.064.52a3.876 3.876 0 0 1 5.324 1.471" clip-rule="evenodd"/><defs><linearGradient id="a" x1="27.096" x2="8.281" y1="6.049" y2="35.254" gradientUnits="userSpaceOnUse"><stop offset="0" stop-color="#FFB45B"/><stop offset="1" stop-color="#FF8A00"/></linearGradient></defs></svg>