<svg xmlns="http://www.w3.org/2000/svg" viewBox="0 0 789.04 450"><g fill="#86c540"><path d="M346.517 378.73c14.757-16.554 22.561-40.735 22.561-73.316v-182.04h-31.174v28.48h-.385q-8.856-16.543-24.631-24.823-15.785-8.274-34.637-8.275-25.79 0-43.49 9.814c-11.804 6.543-21.299 14.95-28.479 25.209-7.187 10.264-12.315 21.552-15.395 33.868-3.079 12.315-4.618 24.378-4.618 36.177q-.002 20.405 5.581 38.679 5.574 18.283 16.741 32.137 11.158 13.854 27.71 21.936c16.552 8.082 23.994 8.082 38.877 8.082 6.158 0 12.376-.769 18.665-2.309 6.291-1.539 12.19-3.782 17.71-6.735a60 60 0 0 0 14.817-11.16q6.538-6.732 10.776-15.972h.757v13.084c0 11.293-1.094 21.553-3.272 30.79q-3.275 13.856-10.583 23.668-7.316 9.813-18.474 15.395c-7.445 3.717-16.549 5.581-27.325 5.581q-8.084-.001-16.935-1.732-3.195-.625-6.211-1.53a425 425 0 0 1-6.51-2.356q-.3-.128-.598-.259v.036c-84.527-31.572-140.16-85.246-140.16-146.15 0-97.147 141.52-175.9 316.1-175.9 97.253 0 184.45 22.15 242.44 60.593C603.087 45.288 489.605.022 359.855.002 161.135-.033.015 100.672.005 224.942c-.012 84.821 75.042 158.7 185.89 197.06 88.919 3.044 134.05-13.459 160.62-43.269zm-13.423-132.2q-3.272 13.855-10.199 24.823c-4.617 7.314-10.715 13.219-18.28 17.703-7.571 4.493-16.742 6.735-27.517 6.735-10.777 0-19.761-2.242-26.941-6.735-7.186-4.484-12.959-10.39-17.319-17.703-4.366-7.311-7.444-15.454-9.237-24.439q-2.695-13.466-2.694-26.94-.002-14.235 3.271-27.326 3.266-13.079 10.392-23.092 7.116-10.002 18.281-15.972 11.157-5.964 26.941-5.965c10.259 0 18.984 2.057 26.17 6.158q10.772 6.162 17.511 16.356 6.73 10.2 9.814 22.899a109.2 109.2 0 0 1 3.079 25.786c0 9.238-1.095 18.475-3.272 27.712M361.697 397.48c-18.854 17.113-52.532 36.647-98.397 44.316 30.707 5.339 63.065 8.194 96.49 8.198 129.24.025 242.42-45.091 305.88-109.06-57.984 38.206-144.83 59.951-241.73 59.951-23.018.002-40.626-.809-62.246-3.41z"/><path d="M560.687 322.91h-46.965v-158.2H454.8v-40.234h164.81v40.234h-58.923zM691.017 322.91H644.05V124.47h144.99v40.234h-98.021v37.128h85.803v40.233h-85.803zM396.397 75.03h32.714v247.31h-32.714z"/></g></svg>