<svg xmlns="http://www.w3.org/2000/svg" viewBox="0 0 98.214 86.315">
    <defs>
        <linearGradient id="a" x1="71.903" x2="10.598" y1="68.565" y2="70.834" gradientTransform="scale(1.1769 .84965)"
            gradientUnits="userSpaceOnUse">
            <stop offset="0" stop-color="#FFAB91" stop-opacity=".02" />
            <stop offset="1" stop-color="#FFAB91" stop-opacity=".8" />
        </linearGradient>
        <linearGradient id="c" x1="70.302" x2="12.527" y1="31.693" y2="34.51" gradientTransform="scale(1.1763 .85011)"
            gradientUnits="userSpaceOnUse">
            <stop offset="0" stop-color="#FFAB91" stop-opacity=".8" />
            <stop offset="1" stop-color="#FFAB91" stop-opacity=".02" />
        </linearGradient>
    </defs>
    <g fill-rule="evenodd">
        <path fill="url(#a)"
            d="m17.525 28.567-7.494 12.997a3.97 3.97 0 0 0 0 3.955l18.027 31.304a3.94 3.94 0 0 0 3.416 1.977h36.052a3.94 3.94 0 0 0 3.415-1.975l10.85-18.809a3.94 3.94 0 0 1 5.387-1.447 3.96 3.96 0 0 1 1.444 5.402l-13.124 22.76a3.95 3.95 0 0 1-3.418 1.977H26.921a3.95 3.95 0 0 1-3.418-1.977L.923 45.518a3.98 3.98 0 0 1 0-3.955l9.771-16.95a3.94 3.94 0 0 1 5.388-1.448 3.96 3.96 0 0 1 1.444 5.402"
            transform="translate(-.393 -.394)" />
        <path fill="url(#c)"
            d="m81.483 58.54 7.48-13.001a3.97 3.97 0 0 0 0-3.954L70.936 10.28a3.95 3.95 0 0 0-3.416-1.978H31.468c-1.409 0-2.71.756-3.414 1.977l-10.76 18.71a3.94 3.94 0 0 1-5.388 1.449 3.96 3.96 0 0 1-1.444-5.402L23.497 2.372A3.95 3.95 0 0 1 26.915.395h45.16c1.41 0 2.71.755 3.415 1.977l22.583 39.213a3.97 3.97 0 0 1 0 3.954l-9.758 16.957a3.937 3.937 0 0 1-5.388 1.446 3.96 3.96 0 0 1-1.444-5.402z"
            transform="translate(-.393 -.394)" />
        <path fill="#ff5722"
            d="m88.575 45.117-7.49 13.008a3.963 3.963 0 0 0 1.443 5.404 3.94 3.94 0 0 0 5.388-1.45l9.768-16.963a3.96 3.96 0 0 0 0-3.954l-9.768-16.963a3.94 3.94 0 0 0-5.388-1.448 3.96 3.96 0 0 0-1.443 5.404l7.49 13.006a3.97 3.97 0 0 1 0 3.955m-78.937 0 7.492 13.008a3.965 3.965 0 0 1-1.446 5.404 3.94 3.94 0 0 1-5.387-1.45L.529 45.115a3.96 3.96 0 0 1 0-3.954l9.768-16.963a3.94 3.94 0 0 1 5.387-1.447 3.96 3.96 0 0 1 1.444 5.403L9.638 41.16a3.97 3.97 0 0 0 0 3.955" />
        <path fill="#ff5722" fill-rule="nonzero"
            d="M50.617 62.026q-5.666 0-10.065-2.503c-4.399-2.503-5.207-3.996-6.82-6.985s-2.42-6.389-2.42-10.202q0-5.83 2.53-10.34c2.53-4.51 3.987-5.335 6.902-6.985s6.151-2.475 9.708-2.475q4.29 0 7.507 1.045c3.217 1.045 4.208 1.669 6.188 2.915q.44.22.77.77t.33 1.21q0 .936-.633 1.595c-.633.66-.98.66-1.677.66a2.55 2.55 0 0 1-1.155-.275q-2.585-1.539-5.17-2.31c-2.585-.77-3.593-.77-5.61-.77q-4.18 0-7.535 1.76c-3.355 1.76-3.988 2.888-5.253 5.143s-1.897 4.94-1.897 8.057q0 4.29 1.787 7.673c1.787 3.383 2.915 4.033 5.17 5.335s4.923 1.952 8.003 1.952q5.17 0 9.625-2.42v-9.955h-9.075q-.935 0-1.595-.66c-.66-.66-.66-.971-.66-1.595s.22-1.155.66-1.595.972-.66 1.595-.66h10.835q1.1 0 1.87.77c.77.77.77 1.137.77 1.87v12.485q0 1.155-.578 2.063c-.578.908-.889 1.054-1.512 1.347q-6.16 3.08-12.595 3.08z" />
    </g>
</svg>