<svg xmlns="http://www.w3.org/2000/svg" viewBox="0 0 156.48 192.33"><path fill="#241f31" d="M139.936.006c-40.01 0-47.515 56.987-25.007 56.987 22.504 0 65.02-56.987 25.007-56.987M73.5 49.931c11.984.732 25.133-45.734 2.609-42.812C53.593 10.042 61.51 49.2 73.5 49.931M18.577 78.805c8.523-3.752 1.098-40.45-13.396-30.441-14.487 10.01 4.872 34.191 13.396 30.44m24.015-19.207c10.147-2.07 10.703-43.69-7.391-36.223-18.098 7.468-2.747 38.294 7.391 36.223m52.984 93.139c1.8 13.75-10.087 20.539-21.728 11.676-37.058-28.215 61.359-42.29 54.872-80.837-5.385-31.996-103.557-22.146-114.736 27.918-7.567 33.862 31.149 80.839 71.546 80.839 19.873 0 42.796-17.945 47.085-40.677 3.275-17.335-38.542-10.389-37.04 1.081"/></svg>