<svg xmlns="http://www.w3.org/2000/svg" viewBox="0 0 315.19 297.22"><path fill="#fff" d="M295.91 202.52s-.46-2.82-.728-2.794l-51.155 4.936a8.314 8.314 0 0 0-7.517 7.718l-1.406 20.142-39.575 2.823-2.692-18.255c-.6-4.06-4.145-7.121-8.25-7.121h-53.99c-4.103 0-7.649 3.06-8.248 7.121l-2.694 18.255-39.575-2.823-1.405-20.142a8.315 8.315 0 0 0-7.517-7.72l-51.18-4.934c-.265-.025-.458 2.797-.723 2.797l-.07 11.07 43.346 6.99 1.42 20.321c.286 4.115 3.606 7.441 7.723 7.737l54.504 3.888q.308.022.614.022c4.095 0 7.636-3.062 8.235-7.122l2.77-18.784h39.594l2.77 18.784c.597 4.059 4.142 7.121 8.243 7.121q.303 0 .598-.021l54.511-3.888c4.116-.296 7.437-3.622 7.724-7.737l1.418-20.322 43.326-7.02z"/><g stroke-width=".938"><path fill="#478cbf" d="M125.538-.003c-14.398 3.2-28.642 7.656-41.995 14.378.305 11.791 1.068 23.089 2.613 34.565-5.186 3.323-10.636 6.174-15.48 10.063-4.922 3.786-9.949 7.41-14.405 11.838-8.903-5.888-18.324-11.422-28.031-16.308C17.777 65.794 7.992 77.949 0 91.549c6.013 9.727 12.291 18.845 19.069 27.497h.189v83.474q.23 0 .457.022l51.174 4.933a5.51 5.51 0 0 1 4.968 5.103l1.578 22.59 44.64 3.186 3.074-20.85a5.51 5.51 0 0 1 5.453-4.706h53.99a5.51 5.51 0 0 1 5.452 4.706l3.074 20.85 44.64-3.186 1.577-22.59a5.51 5.51 0 0 1 4.968-5.103l51.154-4.933q.226-.02.456-.022v-6.661l.022-.007v-76.806h.188c6.78-8.653 13.053-17.77 19.07-27.497-7.99-13.601-17.78-25.756-28.243-37.016-9.704 4.884-19.13 10.418-28.033 16.308-4.455-4.428-9.472-8.052-14.4-11.838-4.843-3.89-10.3-6.741-15.477-10.063 1.541-11.476 2.305-22.774 2.611-34.565-13.355-6.722-27.597-11.177-42.003-14.378-5.75 9.666-11.01 20.133-15.592 30.367-5.431-.908-10.889-1.245-16.353-1.31v-.007c-.038 0-.073.007-.106.007-.034 0-.07-.007-.104-.007v.007c-5.474.065-10.928.402-16.36 1.31-4.578-10.233-9.834-20.7-15.593-30.367zm-106.37 213.56c.021 4.946.084 10.363.084 11.442 0 48.598 61.65 71.957 138.24 72.226h.189c76.595-.269 138.22-23.628 138.22-72.226 0-1.099.067-6.494.09-11.442l-45.998 4.437-1.586 22.71a5.51 5.51 0 0 1-5.105 5.113l-54.511 3.889q-.2.015-.397.015a5.51 5.51 0 0 1-5.446-4.71l-3.126-21.198h-44.478l-3.125 21.198a5.507 5.507 0 0 1-5.843 4.695l-54.511-3.89a5.51 5.51 0 0 1-5.105-5.111l-1.584-22.711-46.016-4.437z"/><path fill="#fff" d="M85.051 122.11c-17.025 0-30.835 13.796-30.835 30.824 0 17.039 13.81 30.842 30.835 30.842 17.033 0 30.84-13.803 30.84-30.842 0-17.028-13.807-30.824-30.84-30.824m145.09 0c-17.036 0-30.842 13.796-30.842 30.824 0 17.039 13.806 30.842 30.842 30.842 17.024 0 30.832-13.803 30.832-30.842 0-17.028-13.808-30.824-30.832-30.824m-72.55 18.038c-5.483 0-9.926 4.044-9.926 9.021v28.39c0 4.98 4.443 9.022 9.926 9.022s9.938-4.041 9.938-9.022v-28.39c0-4.976-4.455-9.021-9.938-9.021"/><path fill="#414042" d="M88.001 134.29c-11.305 0-20.469 9.169-20.469 20.47 0 11.303 9.164 20.463 20.47 20.463 11.31 0 20.47-9.16 20.47-20.463 0-11.301-9.16-20.47-20.47-20.47m139.18 0c-11.303 0-20.46 9.169-20.46 20.47 0 11.303 9.158 20.463 20.46 20.463 11.314 0 20.47-9.16 20.47-20.463 0-11.301-9.157-20.47-20.47-20.47"/></g></svg>