<svg xmlns="http://www.w3.org/2000/svg" fill-rule="evenodd" stroke-linecap="round" stroke-linejoin="round" stroke-miterlimit="1.5" clip-rule="evenodd" viewBox="0 0 32 31.574"><defs><clipPath id="a"><path d="M2 19v-8.719h28V19l-1.514 4.541-2.359.842a30.1 30.1 0 0 1-20.254 0l-2.359-.842z"/></clipPath></defs><path fill="none" stroke="#a53a0c" stroke-width="4" d="M2 6.856a.998.998 0 0 1 1.243-.97l1.699.424a1.5 1.5 0 0 0 1.636-.66L7.97 3.421a1 1 0 0 1 1.378-.318l2.14 1.338a1.5 1.5 0 0 0 1.856-.212l1.949-1.949a1 1 0 0 1 1.414 0l1.949 1.95a1.5 1.5 0 0 0 1.856.212l2.14-1.338a.999.999 0 0 1 1.378.318l1.392 2.226a1.5 1.5 0 0 0 1.636.661l1.699-.425a.998.998 0 0 1 1.243.97v15.72a7 7 0 0 1-7 7h-3v-1.158c0-1.153.357-2.23.972-3.119a30.1 30.1 0 0 1-9.944 0c.615.89.972 1.967.972 3.119v1.157H9a7 7 0 0 1-7-7z"/><path fill="#ec7235" d="M2 18.574V6.855a.998.998 0 0 1 1.243-.97l1.699.425a1.5 1.5 0 0 0 1.636-.661L7.97 3.422a1 1 0 0 1 1.378-.318l2.14 1.338a1.5 1.5 0 0 0 1.856-.212l1.949-1.949a1 1 0 0 1 1.414 0l1.949 1.949a1.5 1.5 0 0 0 1.856.212l2.14-1.338a.999.999 0 0 1 1.378.318l1.392 2.227a1.5 1.5 0 0 0 1.636.661l1.699-.425a.998.998 0 0 1 1.243.97v11.719l-1.514 4.541-2.359-.158c-1.68.6-7.577 2.646-7.579 2.646a30 30 0 0 1-5.096 0c-.004 0-5.896-2.045-7.579-2.646l-2.359.158z"/><g fill="none" stroke="#a53a0c" stroke-linecap="square" stroke-width="4" clip-path="url(#a)" transform="translate(0 -.426)"><path d="M20 30v-1.158a5.486 5.486 0 0 1 4.804-5.443L28 23l4-8v8a7.003 7.003 0 0 1-7 7zM12 30v-1.158a5.486 5.486 0 0 0-4.804-5.443L4 23l-4-8v8a7.003 7.003 0 0 0 7 7Z"/></g><path fill="none" d="M2 18.574V9.855h28v8.719l-1.514 4.541-2.359.842a30.1 30.1 0 0 1-20.254 0l-2.359-.842z"/><path fill="#ec7235" d="M20.064 27.574a5.49 5.49 0 0 1 4.74-4.6l3.196-.4 2-4v4a7 7 0 0 1-7 7h-3v-1l.481-.585z"/><path fill="#b54b12" d="M20.064 27.574h.208c.466 0 .913-.185 1.243-.515l1.411-1.41a3.67 3.67 0 0 1 2.592-1.075H26l-.541 1.081a5.28 5.28 0 0 1-4.722 2.92H20v-.159q0-.43.064-.842"/><path fill="#ec7235" d="M11.936 27.574a5.49 5.49 0 0 0-4.74-4.6L4 22.573l-2-4v4a7 7 0 0 0 7 7h3v-1l-.481-.585z"/><path fill="#b54b12" d="M11.936 27.574h-.208c-.466 0-.913-.185-1.243-.515l-1.411-1.41a3.67 3.67 0 0 0-2.592-1.075H6l.541 1.081a5.28 5.28 0 0 0 4.722 2.92H12v-.159q0-.43-.064-.842"/><path fill="#fff" fill-rule="nonzero" d="M16 18.667c-.642 0-1.163-.473-1.163-1.057v-3.326c0-.583.52-1.057 1.163-1.057s1.164.474 1.164 1.057v3.326c0 .584-.522 1.057-1.164 1.057"/><path fill="#fff" fill-rule="nonzero" d="M15.999 18.667c-.642 0-1.163-.473-1.163-1.057v-3.326c0-.583.52-1.057 1.163-1.057s1.164.474 1.164 1.057v3.326c0 .584-.522 1.057-1.164 1.057"/><g stroke-width=".32"><path fill="#fff" fill-rule="nonzero" d="M12.663 15.456a4.253 4.253 0 1 1-8.507.002 4.253 4.253 0 0 1 8.507-.002"/><path fill="#414042" fill-rule="nonzero" d="M11.641 15.708a2.823 2.823 0 1 1-5.648-.001 2.823 2.823 0 0 1 5.648.001"/><path fill="#fff" fill-rule="nonzero" d="M19.338 15.456a4.253 4.253 0 1 0 8.507.001 4.253 4.253 0 0 0-8.507-.001"/><path fill="#414042" fill-rule="nonzero" d="M20.362 15.708a2.822 2.822 0 1 0 5.645 0 2.823 2.823 0 1 0-5.645 0"/></g></svg>