<svg viewBox="0 0 43.12 44" xmlns="http://www.w3.org/2000/svg"><path d="M43.12 22.5c0-1.56-.14-3.06-.4-4.5H22v8.51h11.84c-.51 2.75-2.06 5.08-4.39 6.64v5.52h7.11c4.16-3.83 6.56-9.47 6.56-16.17z" fill="#4285f4"/><path d="M22 44c5.94 0 10.92-1.97 14.56-5.33l-7.11-5.52c-1.97 1.32-4.49 2.1-7.45 2.1-5.73 0-10.58-3.87-12.31-9.07H2.34v5.7C5.96 39.07 13.4 44 22 44z" fill="#34a853"/><path d="M9.69 26.18C9.25 24.86 9 23.45 9 22s.25-2.86.69-4.18v-5.7H2.34C.85 15.09 0 18.45 0 22s.85 6.91 2.34 9.88z" fill="#fbbc05"/><path d="M22 8.75c3.23 0 6.13 1.11 8.41 3.29l6.31-6.31C32.91 2.18 27.93 0 22 0 13.4 0 5.96 4.93 2.34 12.12l7.35 5.7c1.73-5.2 6.58-9.07 12.31-9.07z" fill="#ea4335"/></svg>
