<svg xmlns="http://www.w3.org/2000/svg" fill="none" viewBox="0 0 348.46 262.11"><g fill="#8ec9e6"><path d="M69.212 249.44s17.171.039 17.197.017c13.43 0 14.932-7.052 20.73-14.308 5.789-7.255 8.849-10.692 12.403-7.999 12.489 9.988 22.884 17.579 31.98 10.744 16.477-12.596 23.752-43.468 39.173-61.216 3.601-4.593 11.638-11.407 15.46-15.808 1.792-1.886.762-3.675-1.085-2.566-7.777 5.213-25.306 16.615-38.284 40.702-11.991 21.827-20.653 29.278-30.328 23.492-4.959-2.765-8.007-6.746-14.749-11.457-6.747-4.711-13.323 4.949-16.788 8.411-3.469 3.463-10.527 13.493-16.596 14.644-6.07 1.155-12.863-.574-17.052 7.791-2.456 4.758-2.06 7.553-2.06 7.553zM228.03 81.463c7.07 9.499 6.546 17.604.83 25.293-4.069 6.143-6.551 11.275-7.339 19.593-1.038 13.734 9.386 26.385 21.875 27.63 6.261.259 11.68-1.814 16.132-6.207 14.771-14.575 14.703-50.073 14.6-55.43l6.441-.081c.664 1.704 2.864 6.878 7.351 13.51 16.524 24.418 30.251 30.404 41.246 28.182 7.53-1.721-14.289-17.706-16.06-19.406-1.775-1.703-.626-3.118 2.541-1.338 1.013.569 43.017 22.362 30.469 31.522-10.527 7.166-28.387 5.242-41.885-6.233-13.638-11.996-25.178-35.234-25.288-35.468l-.75-1.512s-.102-.208-.11.021c.021.769.076 2.974.089 3.497.656 36.173-10.743 55.574-32.465 57.664-16.485 1.283-35.487-10.803-37.926-30.952-2.745-29.091 16.282-46.912 20.249-50.285M72.847 15.081s2.703-5.17 9.726-1.937c5.525 2.668 16.84 14.185 28.868 38.65 21.27 44.173 16.18 21.984 6.355-1.24-4.078-9.644-8.807-19.156-14.03-26.777C98.48 16.067 89.894 6.78 82.517 2.613c-11.174-6.215-13.63-.127-12.85 5.659.433 3.61 3.179 6.81 3.179 6.81zM2.746 253.85c3.97-4.822 7.593-6.606 16.728-6.606 9.24 0 12.225-2.566 19.95-17.146 8.54-16.117 16.72-21.444 23.957-26.156 6.61-3.7 15.931-8.407 20.49-19.613.98-2.159 2.252-5.689 3.72-9.776l.107-.293c1.63-4.537 3.541-9.843 5.546-14.643l.021.098s6.194-15.697 3.346 5.56c-1.28 9.567-.702 15.608.32 19.406a18.46 18.46 0 0 0 5.5 7.906c4.013 3.411-1.074 1.704-7.914 4.414-1.588.624-3.184 1.746-4.819 3.114-3.992 4.133-9.168 8.522-15.328 11.674-16.052 8.203-24.577 24.414-29.992 31.343l-1.438 2.073c-7.556 10.901-11.714 16.899-19.993 16.899 0 0-22.93.021-22.947 0 .05-1.334.396-5.391 2.745-8.254z"/><path d="M158.8 75.974c9.866-15.909 30.447-33.556 57.157-33.556 1.69 0 3.414.072 5.155.22.025 0 .046.01.063.01 3.874-6.126 9.607-14.126 14.392-16.42 5.563-2.663 12.982-.569 15.43 7.06 1.669 5.2.362 15.014-1.111 13.96-1.877-1.342-1.669-18.606-10.956-12.777-3.589 2.26-6.304 8.326-7.181 10.484 9.913 3.067 17.409 8.369 22.368 15.829 3.18 5.025 8.364 16.398 4.955 30.175-1.507 6.092-2.397-1.457-4.036-9.384-1.523-6.674-3.486-14.1-11.22-20.476s-19.167-10.37-32.716-8.879c-13.123 1.474-24.888 7.936-33.589 18.204-2.153 2.536-7.329 10.2-8.296 11.687-5.793 8.926-9.109 14.015-20.546 13.9 1.826-4.843 4.921-11.636 10.131-20.034zM51.909 6.062c6.18 3.78 13.774 9.936 21.9 19.43 8.875 10.383 19.036 24.92 30.197 43.218 6.499 10.65 8.389 16.827 8.04 17.558h-.008c-.179 0-2.542-.302-13.047-14.941-23.164-33.582-43.493-55.821-48.427-53.004l-.017.008c-.587.366-.898 1.122-.915 2.252.379 13.165 28.455 62.682 68.582 86.238-5.861 14.852-3.695 27.235 3.082 39.461 4.644 8.378 21.695 25.566 37.445 21.075 15.753-4.494 10.79-48.046-15.111-56.798-7.407-2.264-12.084 2.367-13.74 8.616-1.567 5.9-.84 13.148-.337 16.597.183 1.258-.4.901-.74.349-9.45-15.481-2.256-29.236 6.568-32.019 10.3-3.246 24.343 4.121 32.83 18.072 13.647 24.376 7.22 45.018-3.711 51.543-19.636 11.98-51.747-8.925-58.468-33.488-2.52-10.213-.967-20.782 2.83-29.381-56.94-39.516-69.718-76.582-72.246-95.231-1.37-12.23 7.053-14.592 15.294-9.554z"/></g></svg>