<svg data-name="Layer 1" viewBox="0 0 89.969 66.111" xmlns="http://www.w3.org/2000/svg"><path d="M85.078 4.18a14.27 14.27 0 00-19.83-.34 1.38 1.38 0 000 2l1.72 1.76a1.36 1.36 0 001.78.12 8.18 8.18 0 0110.72 12.34C68.138 31.38 53.018-.36 18.698 16a4.65 4.65 0 00-2 6.54l5.89 10.17a4.64 4.64 0 006.3 1.73l.14-.08-.11.08 2.58-1.44a60.29 60.29 0 008.22-6.13 1.44 1.44 0 011.87-.06 1.34 1.34 0 01.06 2 61.61 61.61 0 01-8.68 6.53h-.09l-2.61 1.46a7.34 7.34 0 01-3.61.94 7.45 7.45 0 01-6.47-3.71l-5.57-9.61C3.968 32-2.572 46.56.968 65a1.36 1.36 0 001.33 1.11h6.28a1.36 1.36 0 001.39-1.24 9.29 9.29 0 0118.42 0 1.35 1.35 0 001.34 1.19h6.14a1.36 1.36 0 001.34-1.19 9.29 9.29 0 0118.42 0 1.36 1.36 0 001.34 1.19h6.1a1.36 1.36 0 001.36-1.34c.14-8.6 2.46-18.48 9.07-23.43 22.9-17.13 16.88-31.81 11.58-37.11zm-23.35 25.87l-4.37-2.19a2.74 2.74 0 114.37 2.2z" fill="#02303a"/></svg>
