<svg viewBox="0 0 348.52 391.6" xmlns="http://www.w3.org/2000/svg"><g fill="#e10098"><path d="M31.728 298.46l-14.376-8.3 160.15-277.38 14.376 8.3z"/><path d="M14.06 268h320.3v16.6H14.06z"/><path d="M180.61 369.83L20.4 277.33l8.3-14.376 160.21 92.5zm139.17-241.08l-160.21-92.5 8.3-14.376 160.21 92.5z"/><path d="M28.742 128.68l-8.3-14.375 160.21-92.5 8.3 14.376z"/><path d="M316.83 298.46L156.68 21.08l14.376-8.3 160.15 277.38zM26.76 103.3h16.6v185h-16.6zm278.4 0h16.6v185h-16.6z"/><path d="M177.78 362.8l-7.25-12.558 139.34-80.45 7.25 12.557z"/><path d="M343.76 293.7c-9.6 16.7-31 22.4-47.7 12.8s-22.4-31-12.8-47.7 31-22.4 47.7-12.8c16.8 9.7 22.5 31 12.8 47.7M65.16 132.8c-9.6 16.7-31 22.4-47.7 12.8s-22.4-31-12.8-47.7 31-22.4 47.7-12.8c16.7 9.7 22.4 31 12.8 47.7M4.76 293.7c-9.6-16.7-3.9-38 12.8-47.7 16.7-9.6 38-3.9 47.7 12.8 9.6 16.7 3.9 38-12.8 47.7-16.8 9.6-38.1 3.9-47.7-12.8m278.6-160.9c-9.6-16.7-3.9-38 12.8-47.7 16.7-9.6 38-3.9 47.7 12.8 9.6 16.7 3.9 38-12.8 47.7-16.7 9.6-38.1 3.9-47.7-12.8m-109.1 258.8c-19.3 0-34.9-15.6-34.9-34.9s15.6-34.9 34.9-34.9 34.9 15.6 34.9 34.9c0 19.2-15.6 34.9-34.9 34.9m0-321.8c-19.3 0-34.9-15.6-34.9-34.9S154.96 0 174.26 0s34.9 15.6 34.9 34.9-15.6 34.9-34.9 34.9"/></g></svg>
