<svg xmlns="http://www.w3.org/2000/svg" viewBox="0 0 72.41 72.4"><path fill="#8322ff" fill-rule="evenodd" stroke="#8322ff" stroke-width=".4" d="M51.364 46.1h-5.88a13.53 13.53 0 0 1-9.214 3.6c-7.485 0-13.553-6.044-13.553-13.5 0-7.455 6.067-13.5 13.553-13.5 6.715 0 12.29 4.865 13.366 11.25H54.2c-1.111-8.88-8.715-15.75-17.93-15.75-9.98 0-18.07 8.059-18.07 18 0 9.94 8.09 18 18.07 18a18.07 18.07 0 0 0 15.094-8.1zm10.053 0c-3.956 10.014-13.734 17.1-25.171 17.1C21.309 63.2 9.2 51.112 9.2 36.2s12.109-27 27.046-27c14.179 0 25.809 10.891 26.954 24.75h-4.526c-1.13-11.37-10.74-20.25-22.428-20.25-12.447 0-22.538 10.074-22.538 22.501 0 12.426 10.09 22.5 22.538 22.5 8.89 0 16.577-5.137 20.245-12.6zM36.221 72.2c19.29 0 35.04-15.155 35.978-34.2h-31.85a4.5 4.5 0 0 1-4.128 2.7 4.501 4.501 0 1 1 0-9 4.5 4.5 0 0 1 3.9 2.25h4.822a9.01 9.01 0 0 0-8.722-6.75c-4.973 0-9.006 4.03-9.006 9s4.033 9 9.006 9a8.99 8.99 0 0 0 6.844-3.15h24.133C64.454 56.652 51.629 67.7 36.221 67.7c-17.407 0-31.519-14.103-31.519-31.5S18.814 4.699 36.221 4.699c16.651 0 30.286 12.903 31.441 29.25h4.512C71.013 15.115 55.36.199 36.221.199 16.326.2.2 16.318.2 36.2s16.127 36 36.022 36z"/></svg>