<svg xmlns="http://www.w3.org/2000/svg" viewBox="0 0 33.333 32"><path d="m12.873 20.541 11.082-8.19c.543-.402 1.32-.245 1.579.379 1.362 3.289.753 7.242-1.957 9.955s-6.483 3.31-9.93 1.954l-3.766 1.746c5.402 3.696 11.96 2.782 16.06-1.325 3.25-3.255 4.257-7.691 3.316-11.693l.008.009c-1.365-5.878.336-8.227 3.82-13.031L33.333 0l-4.585 4.59v-.013L12.87 20.544m-2.283 1.987c-3.877-3.708-3.208-9.446.1-12.755 2.446-2.45 6.453-3.449 9.952-1.98l3.757-1.736c-.677-.49-1.544-1.017-2.54-1.387A12.47 12.47 0 0 0 8.311 7.4c-3.518 3.523-4.625 8.939-2.725 13.561 1.42 3.454-.907 5.898-3.25 8.364C1.504 30.2.67 31.074 0 32l10.584-9.466"/></svg>