<svg xmlns="http://www.w3.org/2000/svg" viewBox="-5.22 -4.97 115.51 156.59"><defs><clipPath id="a"><path fill="none" d="M29.375 56.4 2.534 29.755 29.179 2.913 56.02 29.56z"/></clipPath><clipPath id="b"><path fill="none" d="M102.418 45.027 86.674 29.398l15.63-15.744 15.743 15.63z"/></clipPath></defs><path fill="#244b5a" d="M37.499 130.6a30.3 30.3 0 0 0 10.868 8.998 32.6 32.6 0 0 0 14.9 3.382c4.176.11 8.333-.6 12.236-2.087a21.24 21.24 0 0 0 8.133-5.686 21.9 21.9 0 0 0 4.463-8.422 37.6 37.6 0 0 0 1.367-10.292v-12.092h-.287a25.96 25.96 0 0 1-11.23 9.789 34.6 34.6 0 0 1-13.963 2.879 36.3 36.3 0 0 1-13.747-2.591 35 35 0 0 1-11.157-7.126 32.8 32.8 0 0 1-7.486-10.87 34.1 34.1 0 0 1-2.735-13.675c-.04-4.684.84-9.331 2.592-13.676a35.2 35.2 0 0 1 7.125-11.084 32.1 32.1 0 0 1 10.797-7.414 34.8 34.8 0 0 1 13.748-2.663 38.4 38.4 0 0 1 6.405.575 30.3 30.3 0 0 1 6.766 2.016 31.17 31.17 0 0 1 12.885 10.366h.287v-11.23h9.502v66.796a54.2 54.2 0 0 1-1.368 11.66 28.8 28.8 0 0 1-5.326 11.372 30.3 30.3 0 0 1-11.013 8.639q-7.055 3.453-18.427 3.453a46.3 46.3 0 0 1-17.994-3.31 41.8 41.8 0 0 1-14.394-10.22zm1.727-48.08a25.8 25.8 0 0 0 1.944 10.004 26.3 26.3 0 0 0 5.325 8.205 25.8 25.8 0 0 0 7.918 5.615 23.3 23.3 0 0 0 9.861 2.087 26.4 26.4 0 0 0 18.138-7.125 22.9 22.9 0 0 0 5.543-8.135 26.2 26.2 0 0 0 1.8-10.651 28.7 28.7 0 0 0-1.728-10.006 24 24 0 0 0-5.039-8.205 24.35 24.35 0 0 0-8.061-5.614 26.2 26.2 0 0 0-10.653-2.088 23.3 23.3 0 0 0-9.861 2.088 25.8 25.8 0 0 0-7.918 5.614 26.3 26.3 0 0 0-5.326 8.205 25.8 25.8 0 0 0-1.943 10.006"/><g clip-path="url(#a)" transform="translate(-7.754 -7.883)"><path fill="#75caca" d="m3.006 2.913-.473 4.188V2.913z"/><path fill="#74cbca" d="m3.632 2.913-1.099 9.722V7.101l.473-4.188z"/><path fill="#74cbca" d="M4.257 2.913 2.533 18.168v-5.533l1.099-9.722z"/><path fill="#73cbca" d="M4.882 2.913 2.533 23.702v-5.534L4.257 2.913z"/><path fill="#73cbca" d="M5.507 2.913 2.533 29.236v-5.534L4.882 2.913z"/><path fill="#72c9c9" d="m6.133 2.913-3.6 31.857v-5.534L5.507 2.913zm.625 0-4.225 37.39V34.77l3.6-31.857z"/><path fill="#70caca" d="m7.383 2.913-4.85 42.924v-5.534l4.225-37.39z"/><path fill="#70caca" d="M8.008 2.913 2.533 51.371v-5.534l4.85-42.924z"/><path fill="#6fcac8" d="m8.634 2.913-6.04 53.454-.061-.007v-4.989L8.008 2.913z"/><path fill="#6ec8c8" d="M9.259 2.913 3.215 56.4h-.331l-.29-.033 6.04-53.454z"/><path fill="#6ec8c8" d="M9.884 2.913 3.841 56.4h-.626L9.259 2.913z"/><path fill="#6cc9c9" d="M10.51 2.913 4.466 56.4h-.625L9.884 2.913z"/><path fill="#6dc9c8" d="M11.135 2.913 5.091 56.4h-.625L10.51 2.913z"/><path fill="#69c7c8" d="M11.76 2.913 5.717 56.4h-.626l6.044-53.487z"/><path fill="#69c7c8" d="M12.385 2.913 6.342 56.4h-.625L11.76 2.913z"/><path fill="#69c8c7" d="M13.011 2.913 6.967 56.4h-.625l6.043-53.487z"/><path fill="#68c8c7" d="M13.636 2.913 7.592 56.4h-.625l6.044-53.487z"/><path fill="#67c7c7" d="M14.261 2.913 8.218 56.4h-.626l6.044-53.487z"/><path fill="#65c7c7" d="M14.886 2.913 8.843 56.4h-.625l6.043-53.487z"/><path fill="#64c7c7" d="M15.512 2.913 9.468 56.4h-.625l6.043-53.487z"/><path fill="#63c6c6" d="M16.137 2.913 10.093 56.4h-.625l6.044-53.487z"/><path fill="#60c6c6" d="M16.762 2.913 10.719 56.4h-.626l6.044-53.487z"/><path fill="#60c6c5" d="M17.387 2.913 11.344 56.4h-.625l6.043-53.487z"/><path fill="#5fc6c5" d="M18.013 2.913 11.969 56.4h-.625l6.043-53.487z"/><path fill="#5cc5c4" d="M18.638 2.913 12.594 56.4h-.625l6.044-53.487z"/><path fill="#5ac5c4" d="M19.263 2.913 13.22 56.4h-.626l6.044-53.487z"/><path fill="#5ac5c4" d="M19.888 2.913 13.845 56.4h-.625l6.043-53.487z"/><path fill="#57c4c4" d="M20.514 2.913 14.47 56.4h-.625l6.043-53.487z"/><path fill="#58c4c3" d="M21.139 2.913 15.095 56.4h-.625l6.044-53.487z"/><path fill="#55c4c3" d="M21.764 2.913 15.721 56.4h-.626l6.044-53.487z"/><path fill="#53c3c2" d="M22.389 2.913 16.346 56.4h-.625l6.043-53.487z"/><path fill="#52c3c2" d="M23.015 2.913 16.971 56.4h-.625l6.043-53.487z"/><path fill="#50c3c2" d="M23.64 2.913 17.596 56.4h-.625l6.044-53.487z"/><path fill="#50c1c0" d="M24.265 2.913 18.222 56.4h-.626L23.64 2.913z"/><path fill="#4bc2c0" d="M24.891 2.913 18.847 56.4h-.625l6.043-53.487z"/><path fill="#4cc1c0" d="M25.516 2.913 19.472 56.4h-.625l6.044-53.487z"/><path fill="#47c1be" d="M26.141 2.913 20.097 56.4h-.625l6.044-53.487z"/><path fill="#46c0be" d="M26.766 2.913 20.723 56.4h-.626l6.044-53.487z"/><path fill="#43c0be" d="M27.392 2.913 21.348 56.4h-.625l6.043-53.487z"/><path fill="#40bfbd" d="M28.017 2.913 21.973 56.4h-.625l6.044-53.487z"/><path fill="#3bbfbd" d="M28.642 2.913 22.599 56.4h-.626l6.044-53.487z"/><path fill="#39bfbc" d="M29.267 2.913 23.224 56.4h-.625l6.043-53.487z"/><path fill="#34bebd" d="M29.893 2.913 23.849 56.4h-.625l6.043-53.487z"/><path fill="#32bebb" d="M30.518 2.913 24.474 56.4h-.625l6.044-53.487z"/><path fill="#2dbdbb" d="M31.143 2.913 25.1 56.4h-.626l6.044-53.487z"/><path fill="#24bcbb" d="M31.768 2.913 25.725 56.4H25.1l6.043-53.487z"/><path fill="#21bcb9" d="M32.394 2.913 26.35 56.4h-.625l6.043-53.487z"/><path fill="#18bbb9" d="M33.019 2.913 26.975 56.4h-.625l6.044-53.487z"/><path fill="#0fbab9" d="M33.644 2.913 27.601 56.4h-.626l6.044-53.487z"/><path fill="#03bbb8" d="M34.269 2.913 28.226 56.4h-.625l6.043-53.487z"/><path fill="#06b8b6" d="M34.895 2.913 28.851 56.4h-.625l6.043-53.487z"/><path fill="#06b8b6" d="M35.52 2.913 29.476 56.4h-.625l6.044-53.487z"/><path fill="#03b7b5" d="M36.145 2.913 30.102 56.4h-.626L35.52 2.913z"/><path fill="#04b7b4" d="M36.77 2.913 30.727 56.4h-.625l6.043-53.487z"/><path fill="#00b6b5" d="M37.396 2.913 31.352 56.4h-.625L36.77 2.913z"/><path fill="#03b6b4" d="M38.021 2.913 31.977 56.4h-.625l6.044-53.487z"/><path fill="#05b6b2" d="M38.646 2.913 32.603 56.4h-.626l6.044-53.487z"/><path fill="#01b5b1" d="M39.271 2.913 33.228 56.4h-.625l6.043-53.487z"/><path fill="#01b5b1" d="M39.897 2.913 33.853 56.4h-.625l6.043-53.487z"/><path fill="#00b4b1" d="M40.522 2.913 34.478 56.4h-.625l6.044-53.487z"/><path fill="#00b3b0" d="M41.147 2.913 35.104 56.4h-.626l6.044-53.487z"/><path fill="#00b3b0" d="M41.773 2.913 35.729 56.4h-.625l6.043-53.487z"/><path fill="#00b2af" d="M42.398 2.913 36.354 56.4h-.625l6.044-53.487z"/><path fill="#00b2ae" d="M43.023 2.913 36.979 56.4h-.625l6.044-53.487z"/><path fill="#00b1ae" d="M43.648 2.913 37.605 56.4h-.626l6.044-53.487z"/><path fill="#00b1ad" d="M44.274 2.913 38.23 56.4h-.625l6.043-53.487z"/><path fill="#00b0ac" d="M44.899 2.913 38.855 56.4h-.625l6.044-53.487z"/><path fill="#00afac" d="M45.524 2.913 39.481 56.4h-.626l6.044-53.487z"/><path fill="#00afac" d="m55.67 2.913.35.039V56.4H39.481l6.043-53.487z"/></g><g clip-path="url(#b)" transform="translate(-7.754 -7.883)"><path fill="#75caca" d="m118.05 22.817-.427-9.164h.427z"/><path fill="#74cbca" d="m118.05 32.446-.875-18.793h.448l.427 9.164z"/><path fill="#74cbca" d="m118.05 42.075-1.324-28.422h.449l.875 18.793z"/><path fill="#73cbca" d="m117.74 45.027-1.461-31.374h.448l1.324 28.422v2.952z"/><path fill="#72c9c9" d="m117.29 45.027-1.461-31.374h.449l1.461 31.374zm-.448 0-1.461-31.374h.448l1.461 31.374z"/><path fill="#70caca" d="m116.39 45.027-1.461-31.374h.449l1.461 31.374z"/><path fill="#6fcac8" d="m115.94 45.027-1.461-31.374h.448l1.461 31.374z"/><path fill="#6ec8c8" d="m115.49 45.027-1.462-31.374h.449l1.461 31.374zm-.45 0-1.461-31.374h.448l1.462 31.374z"/><path fill="#6cc9c9" d="m114.6 45.027-1.462-31.374h.449l1.461 31.374z"/><path fill="#6dc9c8" d="m114.15 45.027-1.461-31.374h.448l1.462 31.374z"/><path fill="#69c7c8" d="m113.7 45.027-1.462-31.374h.449l1.461 31.374zm-.45 0-1.461-31.374h.448l1.462 31.374z"/><path fill="#69c8c7" d="m112.8 45.027-1.462-31.374h.449l1.461 31.374z"/><path fill="#68c8c7" d="m112.35 45.027-1.461-31.374h.448l1.462 31.374z"/><path fill="#67c7c7" d="m111.9 45.027-1.462-31.374h.449l1.461 31.374z"/><path fill="#65c7c7" d="m111.46 45.027-1.461-31.374h.448l1.462 31.374z"/><path fill="#64c7c7" d="m111.01 45.027-1.461-31.374h.448l1.461 31.374z"/><path fill="#63c6c6" d="m110.56 45.027-1.461-31.374h.449l1.461 31.374z"/><path fill="#60c6c6" d="m110.11 45.027-1.461-31.374h.448l1.461 31.374z"/><path fill="#60c6c5" d="m109.66 45.027-1.461-31.374h.449l1.461 31.374z"/><path fill="#5fc6c5" d="m109.21 45.027-1.461-31.374h.448l1.461 31.374zm-.45 0-1.461-31.374h.449l1.461 31.374z"/><path fill="#5cc5c4" d="m108.32 45.027-1.461-31.374h.448l1.461 31.374z"/><path fill="#5ac5c4" d="m107.87 45.027-1.461-31.374h.449l1.461 31.374zm-.45 0-1.461-31.374h.448l1.461 31.374z"/><path fill="#57c4c4" d="m106.97 45.027-1.462-31.374h.449l1.461 31.374z"/><path fill="#58c4c3" d="m106.52 45.027-1.461-31.374h.448l1.462 31.374z"/><path fill="#55c4c3" d="m106.08 45.027-1.462-31.374h.449l1.461 31.374z"/><path fill="#53c3c2" d="m105.63 45.027-1.461-31.374h.448l1.462 31.374zm-.448 0-1.462-31.374h.449l1.461 31.374z"/><path fill="#52c3c2" d="m104.73 45.027-1.461-31.374h.448l1.462 31.374z"/><path fill="#50c3c2" d="m104.28 45.027-1.462-31.374h.449l1.461 31.374z"/><path fill="#50c1c0" d="m103.83 45.027-1.461-31.374h.448l1.462 31.374z"/><path fill="#4dc2c1" d="m103.38 45.027-1.462-31.374h.449l1.461 31.374z"/><path fill="#4cc2c0" d="m102.94 45.027-1.461-31.374h.448l1.462 31.374z"/><path fill="#4bc0bf" d="m102.49 45.027-1.461-31.374h.448l1.461 31.374z"/><path fill="#47c1be" d="m102.04 45.027-1.461-31.374h.449l1.461 31.374z"/><path fill="#46c0be" d="m101.59 45.027-1.461-31.374h.448l1.461 31.374z"/><path fill="#43c0be" d="m101.14 45.027-1.461-31.374h.449l1.461 31.374z"/><path fill="#41c0be" d="m100.69 45.027-1.461-31.374h.448l1.461 31.374z"/><path fill="#40bfbd" d="m100.24 45.027-1.461-31.374h.449l1.461 31.374z"/><path fill="#3bbfbd" d="m99.796 45.027-1.461-31.374h.448l1.461 31.374z"/><path fill="#3cbfbc" d="m99.347 45.027-1.461-31.374h.449l1.461 31.374z"/><path fill="#39bfbc" d="m98.899 45.027-1.461-31.374h.448l1.461 31.374z"/><path fill="#34bebd" d="m98.45 45.027-1.461-31.374h.449l1.461 31.374z"/><path fill="#32bebb" d="m98.002 45.027-1.461-31.374h.448l1.461 31.374z"/><path fill="#2fbebc" d="m97.554 45.027-1.462-31.374h.449l1.461 31.374z"/><path fill="#2dbdbb" d="m97.105 45.027-1.461-31.374h.448l1.462 31.374z"/><path fill="#2bbdba" d="m96.657 45.027-1.462-31.374h.449l1.461 31.374z"/><path fill="#24bcbb" d="m96.208 45.027-1.461-31.374h.448l1.462 31.374z"/><path fill="#21bcb9" d="m95.76 45.027-1.462-31.374h.449l1.461 31.374z"/><path fill="#18bbb9" d="M95.311 45.027 93.85 13.653h.448l1.462 31.374z"/><path fill="#16bab9" d="m94.863 45.027-1.462-31.374h.449l1.461 31.374z"/><path fill="#11bab7" d="m94.414 45.027-1.461-31.374h.448l1.462 31.374z"/><path fill="#03bbb8" d="m93.966 45.027-1.462-31.374h.449l1.461 31.374z"/><path fill="#06b8b6" d="m93.517 45.027-1.461-31.374h.448l1.462 31.374z"/><path fill="#06b8b6" d="m93.069 45.027-1.461-31.374h.448l1.461 31.374z"/><path fill="#06b8b6" d="m92.62 45.027-1.461-31.374h.449l1.461 31.374z"/><path fill="#00b7b6" d="m92.172 45.027-1.461-31.374h.448l1.461 31.374z"/><path fill="#03b7b5" d="m91.723 45.027-1.461-31.374h.449l1.461 31.374z"/><path fill="#04b7b4" d="m91.275 45.027-1.461-31.374h.448l1.461 31.374z"/><path fill="#00b6b5" d="m90.826 45.027-1.461-31.374h.449l1.461 31.374z"/><path fill="#00b6b5" d="m90.378 45.027-1.461-31.374h.448l1.461 31.374z"/><path fill="#00b6b5" d="m89.929 45.027-1.461-31.374h.449l1.461 31.374z"/><path fill="#03b6b4" d="M89.481 45.027 88.02 13.653h.448l1.461 31.374zm-.448 0-1.462-31.374h.449l1.461 31.374z"/><path fill="#05b6b2" d="m88.584 45.027-1.461-31.374h.448l1.462 31.374z"/><path fill="#01b5b1" d="m88.136 45.027-1.462-31.374h.449l1.461 31.374z"/><path fill="#01b5b1" d="m87.687 45.027-1.014-21.783v-9.591h.001l1.462 31.374zm-.448 0-.566-12.154v-9.629l1.014 21.783z"/><path fill="#00b4b1" d="m86.79 45.027-.117-2.525v-9.629l.566 12.154z"/><path fill="#00b4b1" d="m86.673 42.502.117 2.525h-.117z"/></g><path fill="#244b5a" d="M22.599 5.603 6.464 21.859l16.255 16.135 13.752-.051L22.05 23.638l71.209-.264-6.241 6.283 6.876-.025 8.068-8.128-8.128-8.067-6.876.025 6.288 6.238-71.209.264L36.35 5.552z"/></svg>