<svg xmlns="http://www.w3.org/2000/svg" viewBox="0 0 615.4 980.6"><g transform="translate(-204.3 -21.7)"><path fill="#fff" d="m811.9 464.7-84.2-37.6c17.1-22.9 26.6-51.1 26.6-80.1 0-5.6-.4-11.4-1.1-17.3v-308L512 199.9 270.8 21.7V347c0 1.3 0 2.7.1 4l.1 8.5h.4c2.3 24.4 11.3 47.6 25.8 67.2l-85.1 38-7.8 3.5v356.5l298.9 172.5 8.8 5.1 8.8-5.1 298.9-172.5V468.2z"/><path fill="#e24462" d="M221.9 490.7v323.8l281.3 162.4V653.1zm571.2-15.1L512 350 230.9 475.6 512 637.8zM520.8 976.9l281.3-162.4V490.7L520.8 653.1zm214.8-635H288.4V56.5L512 221.7 735.6 56.5z"/><path fill="#fff" d="M620.4 240.8c-49.1 0-90.6 33.6-102.6 78.9-2.3 8.7-3.6 17.8-3.6 27.2s1.2 18.5 3.6 27.2c12 45.4 53.5 78.9 102.6 78.9 58.5 0 106.2-47.6 106.2-106.2s-47.6-106-106.2-106m0 202.3c-53 0-96.1-43.1-96.1-96.1s43.1-96.1 96.1-96.1 96.1 43.1 96.1 96.1-43.1 96.1-96.1 96.1"/><path fill="#e24462" d="M620.4 230.7c-48.9 0-90.7 30.1-107.9 72.8-2.1 5.3-3.9 10.7-5.2 16.3-2.1 8.7-3.2 17.8-3.2 27.2s1.1 18.5 3.2 27.2c1.3 5.6 3.1 11.1 5.2 16.3 17.2 42.7 59 72.8 107.9 72.8 64.2 0 116.3-52.1 116.3-116.3s-52-116.3-116.3-116.3m0 212.4c-53 0-96.1-43.1-96.1-96.1s43.1-96.1 96.1-96.1 96.1 43.1 96.1 96.1-43.1 96.1-96.1 96.1"/><circle cx="620.4" cy="347" r="96.1" fill="#fff"/><path fill="#fff" d="M507.3 319.8c-12-45.4-53.5-79-102.6-79-58.6 0-106.2 47.6-106.2 106.2s47.6 106.2 106.2 106.2c49.1 0 90.6-33.6 102.6-79 2.3-8.7 3.6-17.8 3.6-27.2s-1.2-18.5-3.6-27.2M404.7 443.1c-53 0-96.1-43.1-96.1-96.1s43.1-96.1 96.1-96.1 96.1 43.1 96.1 96.1-43.1 96.1-96.1 96.1"/><path fill="#e24462" d="M517.8 319.8c-1.3-5.6-3.1-11.1-5.2-16.3-17.2-42.7-59-72.8-107.9-72.8-64.2 0-116.3 52.1-116.3 116.3s52 116.3 116.3 116.3c48.8 0 90.6-30.1 107.9-72.8 2.1-5.3 3.9-10.7 5.2-16.3 2.1-8.7 3.2-17.8 3.2-27.2s-1.1-18.5-3.2-27.2M404.7 443.1c-53 0-96.1-43.1-96.1-96.1s43.1-96.1 96.1-96.1 96.1 43.1 96.1 96.1-43.1 96.1-96.1 96.1"/><circle cx="404.7" cy="347" r="96.1" fill="#fff"/><circle cx="404.7" cy="346.3" r="79.7" fill="#e24462"/><circle cx="416.5" cy="327.5" r="30.5" fill="#fff"/><circle cx="620.4" cy="347" r="79.7" fill="#e24462"/><path fill="#e44857" d="M501.4 373.4h20.7v103.4h-20.7z"/><path fill="#fff" d="M545.1 441.3c3.9 27-8.8 57.2-32.2 72.4-24.3-14.6-37.7-45.2-33.9-72.4 2.7-19.5 15.3-37.4 33-37.3 17.9-.1 30.3 17.9 33.1 37.3"/><circle cx="633.4" cy="327.5" r="30.5" fill="#fff"/></g></svg>