<svg xmlns="http://www.w3.org/2000/svg" viewBox="0 0 190.74 207.92"><defs><clipPath id="a"><path d="M0 821.614h1366V0H0Z"/></clipPath></defs><g clip-path="url(#a)" transform="matrix(1.3333 0 0 -1.3333 -612.11 647.01)"><path fill="#262262" d="M594.43 453.14s-.204.139-.45.277c-.906.547-1.856 1-2.744 1.321-1.685.679-3.62 1.262-5.761 1.738l-2.063 2.533c-1.793 2.283-6.09 7.358-13.132 13.334-8.142 6.209-24.212 15.045-47.595 12.442a71 71 0 0 1-13.368-2.597l-.232-.068c-12.978-3.918-24.155-11.512-33.24-22.601-.6-.754-1.179-1.504-1.783-2.307l-.134-.191-.062-.074a100 100 0 0 1-3.485-4.969l-.125-.198c-3.559-5.915-6.126-12.72-6.85-14.73-11.284-34.556 2.735-61.502 5.669-66.567 8.482-14.4 23.945-32.461 50.005-38.975a81 81 0 0 1 4.356-.96l.053-.013c6.537-1.118 16.647-1.928 29.969-.317 3.21.621 8.236 2.535 8.646 8.445 2.209.842 10.261 3.812 10.261 3.812 8.572 3.874 18.586 11.106 24.334 24.546 1.21 2.83.277 6.128-2.171 7.994l-.202.152c.639 1.557 1.125 3.209 1.488 4.93l.019.009.164.854.041.215c.402 2.114 1.294 6.91 1.719 10.035.02.149.029.268.033.371 2.136 14.686 2.099 26.608-.156 37.847a3.55 3.55 0 0 1 3.106 2.477l.655 2.086c2.223 7.083-.722 15.146-6.965 19.149"/><path fill="#fbb03b" d="M551.93 364.27c16.398 20.796 22.346 43.748 18.045 69.9 3.02 0 5.654-.022 8.288.007 2.187.025 4.374.101 6.56.172 4.716.152 4.743.163 5.79-4.512 3.096-13.833 2.147-27.656-.176-41.467-.247-1.469-.69-2.911-.851-4.385-1.177-10.774-8.031-16.127-17.803-18.635-6.279-1.611-12.644-1.896-19.853-1.08M548.43 396.69c0 2.553-3.404 4.255-3.404 4.255 2.553.85 3.404 4.255 3.404 4.255s.851-3.405 3.404-4.255c0 0-3.404-1.702-3.404-4.255m-16.835 6.354c0 6.638-8.851 11.063-8.851 11.063 6.638 2.213 8.851 11.063 8.851 11.063s2.212-8.85 8.85-11.063c0 0-8.85-4.425-8.85-11.063"/><path fill="#fff" d="M489.74 429.79s-2.18 3.308-9.585 2.026c0 0 5.894 28.296 35.737 38.209 0 0-28.929-16.334-26.152-40.235m.574-32.696-.003-.003c-1.277-1.994-2.778-3.523-4.46-4.544-1.492-.919-3.13-1.403-4.67-1.403a6.8 6.8 0 0 0-1.516.167l-2.174.5 2.15.593c1.605.443 3.016 1.325 4.194 2.623.997 1.09 1.826 2.447 2.536 4.149 1.158 2.775 1.757 6.066 1.783 9.781-.048 3.661-.673 6.945-1.857 9.75-.693 1.629-1.56 3.009-2.58 4.099-1.208 1.29-2.63 2.143-4.228 2.536l-2.154.529 2.145.564a6.5 6.5 0 0 0 1.516.205l.031.002 1.662-.152a9.6 9.6 0 0 0 3.014-1.167c1.727-1.015 3.25-2.527 4.526-4.493 2.122-3.323 3.264-7.421 3.305-11.857-.027-4.479-1.141-8.583-3.22-11.879m100.38 50.386s-.074.05-.223.136a9 9 0 0 1-1.688.801c-2.997 1.223-9.729 3.139-21.568 2.583l-.084-.001c-25.288-.411-47.829-10.455-47.829-10.455a46 46 0 0 0 3.401 3.637 45 45 0 0 0 3.975 3.267c8.573 6.286 24.949 13.945 50.829 9.394-.615.698-1.254 1.341-1.887 1.998l.057-.009s-5.858 6.886-16.555 12.616q-.921.496-1.91.985l-.112.057c-.067.033-.128.057-.195.089-8.007 3.888-19.263 7.05-33.564 5.458a64 64 0 0 1-12.272-2.399l-.02-.005-.002-.002c-10-3.018-20.632-9.029-29.888-20.328a98 98 0 0 1-1.632-2.109 4 4 0 0 0-.222-.301 93 93 0 0 1-3.229-4.602c-3.216-5.343-5.544-11.486-6.214-13.337-10.417-31.901 2.546-56.661 5.065-61.011 8.793-14.923 24.186-31.856 49.988-36.751.195-.046.377-.101.573-.145 1.697-.361 4.79-.914 8.771-1.178a74 74 0 0 1 4.626-.065c1.525-.01 2.953.016 4.268.063.39.027.729.04 1.029.044 5.023.233 8.144.762 8.144.762-26.133 1.279-39.232 13.203-44.987 20.816a27.3 27.3 0 0 0-3.324 5.234c-.356.699-.515 1.097-.515 1.097 8.328-7.069 19.98-13.155 19.98-13.155 10.449-4.917 21.402-7.337 33.008-5.747 0 0 24.264 2.227 33.932 24.702l-.777.592a66 66 0 0 0-1.898-1.474 68 68 0 0 1-2.89-2.038c-5.184-3.431-9.414-5.048-11.934-5.788-19.06-4.811-36.698-1.232-52.114 12.263-7.14 6.251-11.572 14.131-11.759 23.917-.122 6.365-.188 12.734-.135 19.101.084 10.023 7.135 17.645 17.126 18.986 20.245 2.716 40.598 3.652 60.993 4.129 3.125.072 5.888.036 7.342-3.306.025-.057.358.021.543.035 1.379 4.393-.607 9.127-4.223 11.444"/></g></svg>