<svg xmlns="http://www.w3.org/2000/svg" viewBox="0 0 22.958 30.608"><path fill="#feb804" d="M13.061 12.715S20.304 1.112 20.469.822s.2-.823-.256-.823-11.736 11.52-11.736 11.52l-8.013 4.75s-.537.33-.455.742.443.43.608.43 8.712-.045 9.21-.06c.617-.017.465.86.465.86l-5.41 8.505s-2.363 3.27-2.363 3.492c0 .328.395.49.763.27.285-.17 18.71-15.782 19.523-16.855.22-.292.332-1.062-.575-1.062s-8.135 2.105-8.135 2.105z"/><path fill="#ffc927" d="M11.794 11.793c-.222.305-.282.815.198.845.477.028 10.237-.045 10.237-.045s-6.972 6.408-9.082 8.32-9.097 8.108-9.567 8.545c-.46.43-.878.825-1.048.77-.027-.008-.062-.155.595-1.238.6-.987 6.36-10.64 6.585-11.005s.423-.675.535-.845.478-1.097-.282-1.097-9.5.225-9.5.225 6.037-5.123 7.782-6.5C9.992 8.39 19.882 0 20.215 0s-8.195 11.485-8.42 11.793z"/><path fill="#ffe567" d="M11.504 16.893c.45-.647.893-.695 1.16-.535.345.208.38.685-.055 1.263-.685.915-5.72 7.652-5.912 7.89-.365.45-.903.252-.553-.4.293-.54 4.895-7.548 5.36-8.218m-7.155-1.315c-.863.578-1.665-.285-1.088-.917s4.368-3.788 5.135-4.44 5.248-4.55 5.595-4.83c.46-.37.745.005.455.39-.287.385-3.455 3.55-4.852 4.835-1.08.995-4.425 4.412-5.245 4.962"/></svg>