<svg xmlns="http://www.w3.org/2000/svg" viewBox="0 0 230 230"><path fill="#fbc707" d="m115 28.755-65.5-7.254L0 .005h57.498l57.5 28.753M115 28.755l67.001-5.754 48-22.996h-57.5l-57.498 28.753"/><path fill="#f68712" d="m115 201.248 62.5 2.25 52.5 26.5h-57.502l-57.497-28.755"/><path fill="#f25c19" d="M115 201.248H52.003l-52 28.75h57.497l57.502-28.756"/><path fill="#fff200" d="M28.75 114.999v60.497L0 229.996v-57.498l28.75-57.501"/><path fill="#fff200" d="M28.75 114.999 24 54.996 0 0v57.497l28.75 57.5"/><path fill="#f1471d" d="m201.254 114.999 6.254-63.003L230.008 0v57.497l-28.754 57.5"/><path fill="#f1471d" d="m201.254 114.999 5.253 67.497 23.5 47.5v-57.498l-28.753-57.501"/><path fill="#fab20b" d="m0 .007 115 28.75-18.5 73.246-67.75 13.003L0 .013"/><path fill="#f47216" d="m230.001.007-28.753 115L124.002 101l-9-72.247 115-28.74"/><path fill="#f25c19" d="m230.001 229.998-115-28.75 13-76.244 73.246-9.998 28.754 114.985"/><path fill="#f89c0e" d="M0 229.998 28.75 115 98 130.498l17 70.75L0 229.99"/><path fill="#f68712" d="m115 28.755-86.25 86.25L115 201.251l86.246-86.248-86.245-86.245"/></svg>