<svg xmlns="http://www.w3.org/2000/svg" viewBox="0 0 64 64"><g fill="#0074bf"><path d="M48 56h-8v8h8z" opacity=".5"/><path d="M40 56h-8v8h8zM32 56h-8v8h8z" opacity=".7"/><path d="M24 56h-8v8h8z" opacity=".5"/></g><g fill="#0082bf"><path d="M56 48h-8v8h8z" opacity=".7"/><path d="M48 48h-8v8h8z" opacity=".8"/><path d="M40 48h-8v8h8zM32 48h-8v8h8z"/><path d="M24 48h-8v8h8z" opacity=".8"/><path d="M16 48H8v8h8z" opacity=".7"/></g><g fill="#008fbf"><path d="M64 40h-8v8h8z" opacity=".5"/><path d="M56 40h-8v8h8z" opacity=".8"/><path d="M48 40h-8v8h8zM40 40h-8v8h8zM32 40h-8v8h8zM24 40h-8v8h8z"/><path d="M16 40H8v8h8z" opacity=".8"/><path d="M8 40H0v8h8z" opacity=".5"/></g><g fill="#009dbf"><path d="M64 32h-8v8h8z" opacity=".7"/><path d="M56 32h-8v8h8zM48 32h-8v8h8zM40 32h-8v8h8zM32 32h-8v8h8zM24 32h-8v8h8zM16 32H8v8h8z"/><path d="M8 32H0v8h8z" opacity=".7"/></g><g fill="#00abbf"><path d="M64 24h-8v8h8z" opacity=".7"/><path d="M56 24h-8v8h8zM48 24h-8v8h8zM40 24h-8v8h8zM32 24h-8v8h8zM24 24h-8v8h8zM16 24H8v8h8z"/><path d="M8 24H0v8h8z" opacity=".7"/></g><g fill="#00b9bf"><path d="M64 16h-8v8h8z" opacity=".5"/><path d="M56 16h-8v8h8z" opacity=".8"/><path d="M48 16h-8v8h8zM40 16h-8v8h8zM32 16h-8v8h8zM24 16h-8v8h8z"/><path d="M16 16H8v8h8z" opacity=".8"/><path d="M8 16H0v8h8z" opacity=".5"/></g><g fill="#00c6bf"><path d="M56 8h-8v8h8z" opacity=".7"/><path d="M48 8h-8v8h8z" opacity=".8"/><path d="M40 8h-8v8h8zM32 8h-8v8h8z"/><path d="M24 8h-8v8h8z" opacity=".8"/><path d="M16 8H8v8h8z" opacity=".7"/></g><g fill="#00d4bf"><path d="M48 0h-8v8h8z" opacity=".5"/><path d="M40 0h-8v8h8zM32 0h-8v8h8z" opacity=".7"/><path d="M24 0h-8v8h8z" opacity=".5"/></g><path fill="#fff" d="m21.028 29.939 2.248-5.025c.816-1.289.716-2.863-.186-3.765a2.2 2.2 0 0 0-.401-.315 2.46 2.46 0 0 0-2.076-.244 3.44 3.44 0 0 0-1.876 1.446S15.66 29.21 14.528 32.43s-.687 9.134 3.723 13.544c4.681 4.682 11.439 5.741 15.762 2.506.186-.086.343-.2.5-.33l13.3-11.11c.645-.53 1.604-1.632.745-2.892-.83-1.23-2.42-.386-3.078.029l-7.66 5.57a.357.357 0 0 1-.486-.044s0-.014-.014-.014c-.2-.244-.23-.873.071-1.117l11.74-9.964c1.017-.916 1.16-2.248.33-3.15-.802-.887-2.076-.859-3.093.057l-10.537 8.247a.473.473 0 0 1-.658-.072l-.015-.014c-.214-.23-.286-.63-.057-.873L47.07 21.192a2.335 2.335 0 0 0 .115-3.307 2.28 2.28 0 0 0-1.632-.702c-.63 0-1.232.23-1.676.673L31.651 29.338c-.286.286-.859 0-.93-.344a.37.37 0 0 1 .1-.343l9.363-10.652a2.309 2.309 0 1 0-3.15-3.379c-.042.029-.071.072-.114.115L22.732 30.44c-.515.515-1.26.53-1.618.243a.54.54 0 0 1-.086-.744z"/></svg>