<svg xmlns="http://www.w3.org/2000/svg" viewBox="0 0 122.48 59.29"><g data-name="layer 1"><path fill="#21c8b8" d="M5.02 34.2C3.35 42.56 1.68 50.92 0 59.28h5.02c1.67-8.36 3.34-16.72 5.02-25.08zm20.2 15.05c.33-1.67.67-3.34 1-5.02H9.07c-.33 1.67-.67 3.34-1 5.02h17.16zm4.94 5.02c.33-1.67.67-3.34 1-5.02h7.05c.33-1.67.67-3.34 1-5.02h-7.05c.33-1.67.67-3.34 1-5.02h7.05c.33-1.67.67-3.34 1-5.02H29.15c-1.67 8.36-3.34 16.72-5.02 25.08h12.09c.33-1.67.67-3.34 1-5.02h-7.07zM93.39 34.2H76.83c-.01.04-.92.05-3.5 0-1.67 8.36-3.34 16.72-5.02 25.08h20.07c1.67-8.36 3.34-16.72 5.02-25.08zM74.33 54.27c1-5.02 2.01-10.03 3.01-15.05h10.03c-1 5.02-2.01 10.03-3.01 15.05zm-30.1 0c1.34-6.69 2.68-13.38 4.01-20.07h-5.02c-1.67 8.36-3.34 16.72-5.02 25.08h13.07c.33-1.67.67-3.34 1-5.02h-8.05zm15.06 0c1.34-6.69 2.68-13.38 4.01-20.07h-5.02c-1.67 8.36-3.34 16.72-5.02 25.08h13.07c.33-1.67.67-3.34 1-5.02h-8.05z"/><path fill="#2aa996" d="M16.89.07h-5.02c-1 5.02-2.01 10.03-3.01 15.05h5.01c1-5.02 2.01-10.03 3.01-15.05zm17.43 33.14c1.14-5.69 2.27-11.38 3.41-17.07H8.65c-1.13 5.69-2.27 11.38-3.4 17.07zM12.68 21.15h19.03c-.07.34-.13.67-.2 1.01H12.48c.07-.34.13-.67.2-1.01m-1.21 6.03H30.5c-.07.34-.13.67-.2 1.01H11.27c.07-.34.13-.67.2-1.01m17.46-12.06c1-5.02 2.01-10.03 3.01-15.05h-5.02c-1 5.02-2.01 10.03-3.01 15.05h5.01zM24.92 5.09c.33-1.67.67-3.34 1-5.02h-8.03c-.33 1.67-.67 3.34-1 5.02zm96.56 9.95s.5-2.49.5-2.51c.17-.84.33-1.67.5-2.51h-11.33c.66-3.34 1.33-6.68 1.99-10.02h-5.02c-.67 3.34-1.34 6.68-2 10.02H99.1c-.33 1.67-.67 3.34-1 5.02h7.03v.01h.01c-.07.33-.13.67-.2 1h-7.07c-.33 1.67-.67 3.34-1 5.02h4.25c-2.57 12.74-5.14 25.48-7.7 38.22h19.21l5.07-25.08h-5.03c-1.35 6.69-2.71 13.38-4.06 20.07h-9.13l6.66-33.2h14.1c.33-1.67.67-3.34 1-5.02h-11.28c.07-.34.13-.67.2-1.01h11.33zM16.87 6.12l1.8 9h4.23l-1.8-9h-4.24zM97 16.06h-5.02c-1.13 5.69-2.27 11.38-3.4 17.06h5.01c1.13-5.69 2.27-11.38 3.4-17.06zM100.2 0h-5.02c-1 5.02-2.01 10.03-3.01 15.05h5.03zM39.97 5.09c.33-1.67.67-3.34 1-5.02h-8.03c-.33 1.67-.67 3.34-1 5.02zm-8.05 1.03 1.8 9h4.23l-1.8-9h-4.24z"/></g></svg>