<svg xmlns="http://www.w3.org/2000/svg" fill="none" viewBox="0 0 26 26"><defs><linearGradient id="a" x1=".002" x2="26.002" y1="13.002" y2="13.002" gradientUnits="userSpaceOnUse"><stop offset="0" stop-color="#3E5CF4"/><stop offset=".05" stop-color="#425BF5"/><stop offset=".36" stop-color="#595BFA"/><stop offset=".65" stop-color="#685BFD"/><stop offset=".9" stop-color="#6D5BFF"/></linearGradient></defs><path fill="url(#a)" d="M0 7a7 7 0 0 1 7-7h12a7 7 0 0 1 7 7v12a7 7 0 0 1-7 7H7a7 7 0 0 1-7-7z"/><path fill="#fff" fill-rule="evenodd" d="M5.701 6.5v3.88a4.75 4.75 0 0 0 .416 1.938 4.85 4.85 0 0 0 1.925 2.144 4.85 4.85 0 0 0 2.48.681h1.785q.313 0 .604-.06a2.46 2.46 0 0 0-2.389-1.898h-.013a2.9 2.9 0 0 1-1.4-.371 2.82 2.82 0 0 1-1.415-2.168 2 2 0 0 1-.014-.266V6.5zM7.667 14.661V19.5h-1.98V12.13c.064.236.168.502.222.605a5.14 5.14 0 0 0 1.757 1.925"/><path fill="#fff" fill-rule="evenodd" d="M8.724 10.859q-.312 0-.604.06a2.46 2.46 0 0 0 2.389 1.895h.013a2.824 2.824 0 0 1 2.828 2.808V19.5h1.98v-3.878a4.7 4.7 0 0 0-.42-1.938 4.8 4.8 0 0 0-1.92-2.144 4.85 4.85 0 0 0-2.481-.681zM18.508 7.366a1.16 1.16 0 0 0-.373.86q0 .52.373.884.373.362.902.362t.894-.362q.373-.363.373-.876 0-.514-.373-.868a1.25 1.25 0 0 0-.902-.362q-.521 0-.894.362m1.94 12.134h-2.084V11.3h2.084zM13.351 11.339V6.5h1.979v7.369a3.7 3.7 0 0 0-.222-.605 5.14 5.14 0 0 0-1.757-1.925"/></svg>