<svg xmlns="http://www.w3.org/2000/svg" viewBox="0 0 129.17 129.38"><g transform="translate(-522.62 -128.44)"><rect width="129.17" height="129.38" x="522.62" y="128.44" ry="27.97" style="paint-order:markers fill stroke"/><g fill="#fff" stroke-width="3.437"><path d="M554.27 158.04h5.662v11.602h12.624V158.04h5.662v29.045h-5.662v-12.251h-12.624v12.251h-5.662zM593.49 158.04h5.578l9.185 15.375h.336l9.185-15.375h5.62v29.045h-5.62v-14.32l.335-4.868h-.335l-7.633 13.022h-3.398l-7.675-13.022h-.335l.335 4.868v14.32h-5.578z"/></g><path fill="#fff" d="M608.86 228.82q-1.972 0-3.773-.527-1.801-.528-3.302-1.582-1.5-1.055-2.616-2.556-1.114-1.542-1.758-3.57l5.446-2.028q.6 2.19 2.101 3.65 1.5 1.42 3.945 1.42.9 0 1.715-.202.858-.244 1.501-.65.686-.446 1.072-1.095t.386-1.5q0-.812-.3-1.461t-1.03-1.217q-.685-.568-1.843-1.095-1.115-.528-2.787-1.096l-1.887-.649q-1.244-.405-2.53-1.095-1.243-.69-2.273-1.663-1.029-.974-1.715-2.272-.643-1.339-.643-3.002 0-1.704.686-3.164.73-1.501 2.015-2.596 1.33-1.136 3.13-1.745 1.844-.649 4.074-.649 2.316 0 3.988.609 1.715.568 2.873 1.5 1.2.893 1.93 1.989t1.071 2.069l-5.102 2.028q-.429-1.217-1.587-2.19-1.115-.974-3.087-.974-1.887 0-3.13.852-1.244.81-1.244 2.15 0 1.298 1.2 2.23 1.202.893 3.817 1.745l1.93.609q1.844.608 3.344 1.42 1.544.77 2.616 1.865 1.115 1.096 1.672 2.515.6 1.38.6 3.205 0 2.272-.986 3.935-.943 1.623-2.444 2.677t-3.387 1.583-3.688.527zM566.26 228.82q-3.165 0-5.894-1.176-2.69-1.177-4.668-3.205-1.978-2.069-3.125-4.828-1.107-2.799-1.107-5.963t1.107-5.922q1.147-2.8 3.125-4.828 1.978-2.069 4.668-3.245 2.73-1.177 5.894-1.177t5.855 1.177q2.729 1.176 4.707 3.245 1.978 2.028 3.085 4.828 1.148 2.758 1.148 5.922t-1.148 5.963q-1.107 2.759-3.085 4.828-1.978 2.028-4.707 3.205-2.69 1.176-5.855 1.176m0-5.192q1.978 0 3.679-.73 1.74-.73 3.006-2.029 1.305-1.298 2.017-3.124.752-1.866.752-4.097t-.752-4.056q-.712-1.866-2.017-3.165-1.266-1.298-3.006-2.028-1.701-.73-3.679-.73t-3.718.73q-1.701.73-3.007 2.028-1.266 1.299-2.017 3.165-.712 1.825-.712 4.056t.712 4.097q.751 1.826 2.017 3.124 1.306 1.298 3.007 2.028 1.74.73 3.718.73"/><path fill="#5b8aee" d="M555.48 231.57h21.248v4.944H555.48z" style="paint-order:markers fill stroke"/></g></svg>