<svg viewBox="0 0 172.5 223.03" xmlns="http://www.w3.org/2000/svg"><path d="M152.034 184.565a18 18 0 0018.064-17.998c.002-18.273.002-46.51.002-64.833a18 18 0 00-18-18h-14.838a4 4 0 01-4-4v-9.43H16.232l.295 138.21a4.001 4.001 0 001.85 3.365c5.212 3.018 21.921 8.75 57.004 8.75 35.825 0 51.839-7.674 56.424-11.139a3.979 3.979 0 001.438-3.062c.019-3.825.019-12.688.019-17.924a3.999 3.999 0 014.083-3.999c4.401.062 9.674.071 14.689.057zm-18.772-79.806c0-1.326.527-2.598 1.464-3.536a5.004 5.004 0 013.536-1.464H151c1.326 0 2.598.527 3.536 1.464a5.004 5.004 0 011.464 3.536v58.185a5.004 5.004 0 01-1.464 3.536 5.004 5.004 0 01-3.536 1.464h-12.738a5.004 5.004 0 01-3.536-1.464 5.004 5.004 0 01-1.464-3.536z" fill="#fff" stroke="#000" stroke-width="4.79"/><path d="M27.771 69.144v123.99c0 1.431.764 2.753 2.003 3.467 5.061 2.412 19.743 8.169 45.484 8.169 25.912 0 40.158-6.995 44.928-9.878a3.987 3.987 0 001.827-3.351c.011-16.441.011-122.39.011-122.39z" fill="#fbb040"/><path transform="matrix(1 0 0 .84931 6.104 89.933)" d="M35.521.249v112.82" fill="none" stroke="#ffdb96" stroke-linecap="round" stroke-width="11.96"/><path d="M40.061 26.986c2.473-4.998 7.628-8.088 13.574-8.44 7.167-.424 11.167 4.197 11.167 3.787 0-11.012 8.928-19.938 19.941-19.938 11.014 0 19.936 8.926 19.936 19.938 0 .113 4.241-4.967 10.965-4.783 7.924.217 14.355 6.427 14.355 14.355 0 4.103-4.236 10.728-4.236 10.728a15.073 15.073 0 017.432-1.957 15.09 15.09 0 019.59 3.421 15.119 15.119 0 015.708 11.851c0 7.666-5.691 14.001-13.079 15.012a22.339 22.339 0 00-4.891 1.27c-4.391 1.655-8.881 3.027-13.417 4.159a16.66 16.66 0 01-1.909 6.231 20.723 20.723 0 00-2.38 11.257c-.002.236.007 1.472.007 1.71 0 4.956-4.016 7.972-8.976 7.972a8.971 8.971 0 01-8.971-8.972c0-2-1.177-4.388-3.11-5.587a16.564 16.564 0 01-1.3-.873 16.842 16.842 0 01-5.746-7.424c-25.55.846-48.861-3.64-60.612-6.809a98.218 98.218 0 00-9.171-2.13 15.439 15.439 0 01-7.83-4.151 15.112 15.112 0 01-4.713-10.985c0-8.245 6.581-14.952 14.781-15.149-6.472-5.418.795-18.648 11.537-19.148 5.566-.259 11.348 4.655 11.348 4.655z" fill="#fff" stroke="#000" stroke-linecap="round" stroke-width="4.79"/></svg>
