<svg xmlns="http://www.w3.org/2000/svg" viewBox="0 0 771.32 995.96"><path fill="url(#a)" d="M406.67 0S645.46 277.84 744.6 517.49c97.001 234.48-81.52 470.71-351.16 478.33C186 1001.685-13.16 823.62.68 597.8 9.4 455.49 77.777 295.73 112.82 253.08c0 0 70.866 93.278 73.735 86.592 32.306-75.329 128.31-225.1 220.11-339.67"/><path fill="#ff9758" d="M396.63 212.1Q506.58 339.63 595.4 483.78a564.7 564.7 0 0 1 45.946 99.882q37.707 148.35-80.904 244.71-114.72 80.723-251.7 47.943-147.72-45.84-170.8-198.77-5.6-48.217 9.988-93.889a679 679 0 0 1 53.936-107.87l59.93-87.896a16610 16610 0 0 0 134.84-175.79"/><defs><linearGradient id="a" x2="1" gradientTransform="matrix(-23.108 995.35 -1283.6 -29.801 408.63 1.506)" gradientUnits="userSpaceOnUse"><stop offset="0" stop-color="#ff884a" stop-opacity=".99"/><stop offset="1" stop-color="#ff3000" stop-opacity=".99"/></linearGradient></defs></svg>