<svg xmlns="http://www.w3.org/2000/svg" viewBox="0 0 37 41.4"><path fill="#577bc6" d="M32 14.5c0-.4-.2-.9-.4-1.4l-.1-.1c-.3-.4-.7-.8-1.1-1L19.8 6c-.4-.2-.9-.3-1.4-.3h-.3c-.5 0-1 .1-1.4.4L6.3 12.2c-.2.1-.4.3-.6.5-.1.1-.2.3-.3.4l-.1.2v.1c0 .1-.1.1-.1.2v.1c-.1.3-.2.7-.2 1v12.2c0 .4.2.9.4 1.4l.1.2c.3.4.6.8 1 1l10.6 6c.4.2.9.3 1.4.3h.3c.5 0 1-.1 1.4-.4l1.1-.6c.3-.2.5-.6.5-1v-2.4c0-.5.3-1 .7-1.2l2.4-1.4c.4-.2 1-.2 1.4 0l1.7.8c.2.1.4.2.5.3h.1c.2.1.3.1.5.1s.3 0 .5-.1l1.1-.7c.4-.2.7-.6 1-1l.1-.2c.2-.4.4-.9.4-1.4zm-5.1 10.9-.1.2q-.3.45-.6.6l-6.7 4c-.2.1-.5.2-.8.2h-.3c-.3 0-.6-.1-.8-.2l-6.8-3.9c-.2-.1-.4-.4-.6-.6l-.1-.2c-.1-.3-.2-.6-.2-.8v-7.8c0-.3.1-.6.2-.8l.1-.2q.3-.45.6-.6l6.7-4c.2-.1.5-.2.8-.2h.3c.3 0 .6.1.8.2l6.8 3.9c.2.1.4.4.6.6l.1.2c.1.3.2.6.2.8v7.8c.1.2 0 .5-.2.8"/><path fill="#003e6e" d="M37 12.2c0-1.3-1.1-2.9-2.2-3.5L20.3.5c-.6-.3-1.3-.5-2-.5s-1.5.2-2 .5L2 9c-1.1.7-2 2.3-2 3.6v16.6c0 1.3.9 2.9 2.1 3.5l14.4 8.2c.6.3 1.3.5 2 .5s1.5-.2 2-.5l14.4-8.4c1.1-.7 2-2.3 2-3.6zM31.6 28l-.1.3c-.3.4-.6.8-1 1l-.8.4-.3.2c-.2.1-.3.1-.5.1s-.4 0-.5-.1h-.1c-.1 0-.3-.2-.5-.3l-1.7-.9c-.4-.2-1-.2-1.4 0l-2.4 1.4c-.4.2-.7.7-.7 1.2v2.4c0 .4-.2.8-.5 1l-.3.2-.7.4c-.4.2-.9.3-1.4.4h-.3c-.5 0-1-.1-1.4-.3l-10.6-6c-.4-.2-.7-.6-1-1l-.1-.2c-.2-.4-.4-.9-.4-1.4V14.6c0-.3.1-.7.2-1l.3-.6c.1-.2.2-.3.3-.4.2-.2.4-.4.6-.5L16.7 6c.4-.2.9-.3 1.4-.4h.2c.5 0 1 .1 1.4.3l10.6 6c.4.2.8.6 1.1 1l.1.2c.2.4.4.9.4 1.4v12.1c.1.5-.1 1-.3 1.4"/><path fill="#3cc" d="m28 31.4-.3-.3-1.6-.9c-.3-.2-.7-.2-1.1 0l-1.5 1c-.3.2-.5.6-.5.9v1.8c0 .1 0 .2.1.4v.1c.1.2.2.4.4.5l1.6.9c.3.2.7.2 1.1 0l1.5-.9c.3-.2.5-.6.5-.9v-1.8c0-.4-.1-.6-.2-.8"/><path fill="#fc0" d="M26.3 8.5c.1-.1.3-.4.2-.8-.1-.2-.2-.3-.5-.3h-.1c-.2 0-.4.1-.5.2l-11.5 8.8c-.4.3-.4 1.1-.2 1.5 0 .1 1.3 1.8 1.4 2 2.1 3 2.6 3.7 2.6 3.8v.1l-7.1 9.1c-.2.2-.3.5-.2.8.1.2.3.3.5.3s.4-.1.5-.2L22.9 25c.5-.4.6-1 .2-1.5l-4-5.7v-.2z"/></svg>