<svg xmlns="http://www.w3.org/2000/svg" fill="none" viewBox="0 0 26.077 26"><g fill="#e1421f" clip-path="url(#a)"><path d="M7.859 14.345h-.432c-.625 0-1.133.505-1.133 1.13v.43c0 .624.508 1.13 1.133 1.13h.432c.626 0 1.133-.506 1.133-1.13v-.43c0-.624-.507-1.13-1.133-1.13m0-6.276h-.432c-.625 0-1.133.506-1.133 1.13v.43c0 .624.508 1.13 1.133 1.13h.432c.626 0 1.133-.506 1.133-1.13v-.43c0-.624-.507-1.13-1.133-1.13M20.95 0c2.832 0 5.127 2.288 5.127 5.111V20.89c0 2.823-2.295 5.111-5.126 5.111h-8.398a.282.282 0 0 1-.271-.36l.587-2.024a.425.425 0 0 1 .408-.306h7.712a2.39 2.39 0 0 0 2.392-2.384V5.073a2.39 2.39 0 0 0-1.715-2.287l-5.39 18.425a.425.425 0 0 1-.408.305h-2a.282.282 0 0 1-.273-.361L19.664.406A.57.57 0 0 1 20.208 0z"/><path d="M13.899 4.788 8.48 23.31H5.09a2.39 2.39 0 0 1-2.392-2.384V5.073A2.39 2.39 0 0 1 5.09 2.69h11.795a.424.424 0 0 0 .408-.306L17.879.36a.283.283 0 0 0-.271-.36H5.126C2.295 0 0 2.288 0 5.111V20.89C0 23.712 2.295 26 5.126 26h4.84a.565.565 0 0 0 .544-.406l6.07-20.75a.283.283 0 0 0-.272-.361h-2.002a.425.425 0 0 0-.407.305"/></g><defs><clipPath id="a"><path fill="#fff" d="M0 0h26.077v26H0z"/></clipPath></defs></svg>