<svg xmlns="http://www.w3.org/2000/svg" viewBox="0 0 394.43 470"><g data-name="Layer 2"><path d="M394.41 102.12C394 45.31 346.61 0 289.8 0H104.69C48.31 0 1.09 44.6 0 101a103.07 103.07 0 0 0 103 104.92h82.7a6 6 0 0 1 2.39 11.42L61.31 272.91A103.09 103.09 0 0 0 0 367.83C.43 424.65 47.79 470 104.62 470H148c57.23 0 104.88-45.9 104.79-103.13a103.1 103.1 0 0 0-64.49-95.31 5.94 5.94 0 0 1-.1-10.94l145-63.58a103.08 103.08 0 0 0 61.21-94.92" data-name="Layer 1" style="fill:#4b78e6" transform="translate(.017)"/></g></svg>