<svg xmlns="http://www.w3.org/2000/svg" fill="none" viewBox="0 0 142 90.378"><g clip-path="url(#a)" transform="translate(-.001)"><g fill="#fff"><path d="m60.66 30.99 10.514-11.902c6.993-4.703 21.399 7.588 18.299 14.11L79.085 46.634c2.322-3.827-9.57-18.116-18.424-15.644z"/><path d="m50.265 42.936 9.127-10.474c6.993-4.702 23.297 8.257 18.93 15.134L69.347 59.23c.941-2.678-12.096-18.082-19.081-16.294z"/><path d="M33.07 54.407 46.74 43.62c6.993-4.702 26.387 12.427 22.02 19.303L61.074 79.46C62.2 68.48 40.661 52.27 33.069 54.406z"/></g><path fill="#8162aa" d="m90.073 75.823 21.004-26.543 15.384 8.884L103.67 86.96z"/><path fill="#6389c6" d="m77.237 65.578 19.18-24.618 14.338 8.73-20.747 26.257-12.77-10.369z"/><path fill="#98ca3f" d="m30.49 27.132 14.092-17.4 13.635 7.84-15.519 19.582z"/><path fill="#cbdd72" d="m20.512 18.924 12.575-15.8 11.273 6.48-13.87 17.528z"/><path fill="#f8c519" d="M60.508 79.892c2.41-2.742-1.946-10.513-9.73-17.356s-16.049-10.168-18.46-7.427c-2.41 2.742 1.946 10.513 9.73 17.356s16.05 10.169 18.46 7.427"/><path fill="#f07525" d="M138.58 22.574c2.362-2.703.395-8.286-4.394-12.47-4.789-4.186-10.585-5.387-12.947-2.685-2.362 2.703-.394 8.286 4.395 12.47 4.788 4.186 10.585 5.387 12.946 2.685"/><path fill="#e8282b" d="M15.592 68.171c1.697-1.942.283-5.955-3.159-8.963s-7.608-3.871-9.305-1.929-.283 5.955 3.159 8.963 7.608 3.871 9.305 1.93z"/><path fill="#333" d="M141.34 16.102c-.965-2.74-2.942-5.514-5.565-7.806-2.623-2.293-5.636-3.88-8.48-4.47-3.334-.692-6.129.024-7.869 2.014s-2.075 4.856-.944 8.067c.345.98.821 1.962 1.408 2.927L91.648 27.818q-.115-.295-.249-.592c-1.142-2.534-3.249-5.137-5.932-7.33-2.671-2.184-5.783-3.687-8.761-4.234-3.388-.622-6.224.115-7.782 2.022l.01.008-10.736 12.463-4.406-3.114 8.054-10.162L32.488 0 17.144 19.28l25.919 21.297 7.727-9.752 4.244 3-5.751 6.675c-1.711.055-3.224.551-4.45 1.511l-.016-.02-10.925 8.68-19.017 7.534a18 18 0 0 0-.859-.807c-1.972-1.724-4.246-2.92-6.404-3.367-2.608-.541-4.906.066-6.303 1.666-1.399 1.6-1.693 3.958-.807 6.47.732 2.078 2.22 4.172 4.193 5.895 1.972 1.724 4.247 2.92 6.404 3.367 1.247.258 2.422.255 3.462.006 1.137-.272 2.112-.837 2.842-1.672 1.398-1.6 1.692-3.958.807-6.47q-.186-.525-.435-1.05l11.484-4.548c.114 1.507.68 3.39 1.997 5.737 1.968 3.51 5.234 7.363 9.198 10.849s8.204 6.232 11.937 7.734c3.258 1.311 5.573 1.46 7.212 1.069 1.267-.304 2.13-.93 2.714-1.594.343-.39.66-.875.892-1.471l7.782-16.149c.514-.979.92-2.287.843-3.916l7.365-9.526 4.265 3.014-9.66 12.206 30.237 24.73 26.052-32.916-34.278-19.628-9.353 11.82-4.31-3.045 9.23-11.936-.02-.015a5.6 5.6 0 0 0 .831-1.877l30.854-12q.485.477 1.004.932c2.623 2.293 5.635 3.88 8.48 4.47 1.619.336 3.11.34 4.415.028 1.384-.331 2.559-1.018 3.454-2.042 1.74-1.99 2.075-4.856.943-8.067zM13.77 66.59c-.14.16-.705.322-1.693.117-1.338-.278-2.872-1.107-4.209-2.276s-2.364-2.578-2.818-3.866c-.335-.952-.25-1.535-.11-1.694.051-.06.164-.12.336-.161.286-.069.739-.085 1.357.044 1.338.278 2.872 1.107 4.209 2.276s2.364 2.578 2.818 3.866c.335.952.25 1.535.11 1.694m109.06-7.726-19.532 24.679-9.871-8.074 18.212-23.014 11.192 6.409zM97.018 44.082l10.388 5.95-17.713 22.384-9.164-7.495 16.49-20.838h-.001zM23.873 18.568l9.806-12.32 7.05 4.054-10.605 13.402zM42.33 33.734l-8.48-6.968 11.107-14.034 9.629 5.536zm16.362 44.57c-.184.152-1.576.463-4.763-.87-3.18-1.329-6.836-3.735-10.293-6.775s-6.31-6.357-8.038-9.341c-1.737-3.004-1.598-4.424-1.475-4.61a.6.6 0 0 1 .218-.088c.52-.124 1.927-.14 4.547.956a27 27 0 0 1 2.53 1.228c-.462 1.922 1.494 5.385 4.87 8.353 3.455 3.038 7.234 4.535 9.035 3.708a28 28 0 0 1 1.896 2.829c1.73 2.99 1.6 4.41 1.472 4.611zm-7.144-18.28c-3.725-3.15-7.64-5.63-11.119-7.029a23 23 0 0 0-1.165-.434l8.443-6.71.017.02c.776-.672 2.317-.732 4.229-.163 2.347.7 5.076 2.29 7.72 4.496zm8.616-15.51c-1.86-1.29-3.689-2.278-5.433-2.953l6.383-7.409c.444-.364 1.6-.59 3.296-.279 1.132.208 2.326.62 3.5 1.196zm5.253-15.354 7.254-8.42-.011-.009c.267-.317 1.327-.664 3.172-.325 1.197.22 2.468.68 3.707 1.327l-8.263 9.665c-1.905-1.092-3.908-1.863-5.86-2.238zm71.346-8.164c-1.096 1.256-5.36.744-9.544-2.913s-5.261-7.814-4.164-9.068c.21-.241.538-.417.96-.518 1.772-.424 5.204.478 8.584 3.431 4.183 3.657 5.26 7.814 4.164 9.068"/></g><defs><clipPath id="a"><path fill="#fff" d="M0 0h142v125.3H0z"/></clipPath></defs></svg>