<svg xmlns="http://www.w3.org/2000/svg" fill="none" viewBox="0 0 35.1 31.4"><g fill="#f5a623"><path fill-rule="evenodd" d="m31.3 3.3.8-.4 1-.6L31.9.2l-1 .6-1.6.9C27.5.6 25.5 0 23.3 0c-6.5 0-11.8 5.3-11.8 11.8v.2l-6.3 3.6-1 .6 1.2 2.1 1-.6 5.4-3.1c.2.7.4 1.3.7 2l-7.2 4.2-1 .6 1.2 2.1 1-.6 7.2-4.2c.4.6.9 1.1 1.4 1.7l-.6.4-2 1.2-7.2 4.2-1 .6 1.2 2.1 1-.6 7.2-4.2 2-1.2 1.5-.8c1.8 1.1 3.9 1.7 6.1 1.7 6.5 0 11.8-5.3 11.8-11.8-.1-3.6-1.5-6.6-3.8-8.7m-8 17.8c-1.3 0-2.5-.3-3.6-.7l3.2-1.9 1-.6-1.2-2.1-1 .6-4.4 2.5c-.6-.5-1.1-1-1.5-1.6l5.8-3.3c-.6-.5-1.1-1.2-1.1-2.1l-5.8 3.4c-.5-1.1-.7-2.3-.7-3.5 0-5.1 4.1-9.3 9.3-9.3 1.2 0 2.4.2 3.5.7l-4 2.4L24 7.7l1-.6 4.2-2.4q.75.6 1.5 1.5l-5.8 3.4c.7.4 1.2 1.1 1.3 2L32 8.3c.5 1.1.8 2.4.8 3.7-.3 4.9-4.4 9.1-9.5 9.1" clip-rule="evenodd"/><path d="M1.8 21.1a1.8 1.8 0 1 0 0-3.6 1.8 1.8 0 0 0 0 3.6"/><path fill-rule="evenodd" d="M1.8 27.8c-1 0-1.8.8-1.8 1.8s.8 1.8 1.8 1.8 1.8-.8 1.8-1.8c-.1-1-.9-1.8-1.8-1.8" clip-rule="evenodd"/><path d="M23.3 13.6a1.8 1.8 0 1 0 0-3.6 1.8 1.8 0 0 0 0 3.6"/></g></svg>