<svg xmlns="http://www.w3.org/2000/svg" class="h-8 w-6 object-contain" viewBox="0 330 241.33 312.91"><defs><linearGradient id="a" x1="561.93" x2="561.93" y1="593.85" y2="491.29" gradientUnits="userSpaceOnUse"><stop offset="0" stop-color="#00a8f4" style="--darkreader-inline-stopcolor:var(--darkreader-background-00a8f4, #0086c3)"/><stop offset="1" stop-color="#00e5d0" style="--darkreader-inline-stopcolor:var(--darkreader-background-00e5d0, #00b7a6)"/></linearGradient><linearGradient id="b" x1="202.09" x2="202.09" y1="659.7" y2="346.78" gradientTransform="translate(-81.464 -16.79)" href="#a"/></defs><path d="M229.57 474.76c-9.09-20.56-22.42-39.71-35.29-58.22a1658 1658 0 0 1-6.84-9.87c-3.15-4.6-7.42-10.49-12.36-17.31-11.29-15.59-28.92-39.62-40.84-59.36v49.42c12.28 17.62 24.2 33.49 30.57 42.78 13.94 20.33 30.09 42 39.67 63.66 28.78 65.13-11.7 128.85-82.05 129.61h-3.58C48.5 614.71 8.01 550.99 36.8 485.86c9.58-21.67 25.72-43.33 39.67-63.66 6.36-9.28 18.28-25.16 30.57-42.78V330c-11.92 19.75-29.55 43.78-40.84 59.36-4.94 6.81-9.21 12.7-12.36 17.31-2.22 3.23-4.46 6.45-6.84 9.87-12.88 18.52-26.21 37.67-35.29 58.22C2.88 494.73-.99 515.14.22 535.41c1.16 19.65 7.28 38.57 17.68 54.73 10.28 15.97 24.74 29.21 41.81 38.29 17.64 9.37 37.44 14.25 58.87 14.48h4.18c21.43-.23 41.23-5.1 58.87-14.48 17.07-9.08 31.52-22.32 41.81-38.29 10.4-16.16 16.52-35.08 17.68-54.73 1.2-20.27-2.67-40.68-11.49-60.65z" fill="url(#b)"/></svg>