<svg xmlns="http://www.w3.org/2000/svg" viewBox="0 0 37.318 40.28"><g transform="translate(-11.536 -3)"><linearGradient id="a" x1="22.881" x2="32.131" y1="33.435" y2="20.416" gradientUnits="userSpaceOnUse"><stop offset="0" stop-color="#0673BA"/><stop offset="1" stop-color="#11A14E"/></linearGradient><path fill="url(#a)" d="m45.488 11.621-10.384 6.473c1.936 6.463 5.017 12.606 8.801 18.646a19.2 19.2 0 0 1-3.31 3.079c-3.908-5.849-7.061-12.436-8.983-19.548l-7.758 4.836c1.782 6.128 4.476 12.089 7.715 18.04-.447.035-.893.074-1.348.074a17.4 17.4 0 0 1-3.542-.373c-2.643-4.809-4.811-10.046-6.281-15.586l-7.042 4.391a21 21 0 0 1-1.349-4.237l7.397-4.522a62 62 0 0 1-.937-6.839l-6.713 4.299c.186-1.476.52-2.898.985-4.254l5.559-3.325a60 60 0 0 1 .108-5.239c-4.191 3.693-6.87 9.31-6.87 15.605 0 11.122 8.353 20.139 18.659 20.139s18.659-9.017 18.659-20.139c0-4.289-1.25-8.255-3.366-11.52"/><linearGradient id="b" x1="28.9" x2="26.076" y1="20.286" y2="42.079" gradientUnits="userSpaceOnUse"><stop offset="0" stop-color="#fff"/><stop offset="1" stop-color="#1173BA"/></linearGradient><path fill="url(#b)" d="m18.297 12.773-5.559 3.325a21.3 21.3 0 0 0-.985 4.254l6.713-4.299c.183 2.317.506 4.597.937 6.839l-7.397 4.522a21 21 0 0 0 1.349 4.237l7.042-4.391c1.471 5.54 3.638 10.777 6.281 15.586 1.148.238 2.33.373 3.542.373.455 0 .901-.039 1.348-.074-3.239-5.95-5.933-11.911-7.715-18.04l7.758-4.836c1.923 7.112 5.076 13.699 8.983 19.548a19.3 19.3 0 0 0 3.31-3.079c-3.784-6.04-6.865-12.183-8.801-18.646l10.384-6.473a20 20 0 0 0-2.518-3.134l-8.935 5.462a52 52 0 0 1-1.042-7.2l3.796-2.431a17.4 17.4 0 0 0-2.836-.91l-1.08.646c-.005-.273-.003-.549-.003-.825A18 18 0 0 0 30.195 3c-.206 0-.405.026-.609.033a61 61 0 0 0-.021 3l-8.026 4.801a53 53 0 0 1 .13-5.595 18.6 18.6 0 0 0-3.264 2.295 60 60 0 0 0-.108 5.239m11.392-3.907c.167 2.434.475 4.829.93 7.171l-7.845 4.795a56 56 0 0 1-1.053-6.863z"/><linearGradient id="c" x1="11.981" x2="21.211" y1="24.827" y2="11.838" gradientUnits="userSpaceOnUse"><stop offset="0" stop-color="#115DA6"/><stop offset="1" stop-color="#00A14F"/></linearGradient><path fill="url(#c)" d="m21.54 10.834 8.026-4.801a61 61 0 0 1 .021-3c-2.847.099-5.53.879-7.917 2.206a53 53 0 0 0-.13 5.595"/><linearGradient id="d" x1="16.146" x2="25.297" y1="27.619" y2="14.74" gradientUnits="userSpaceOnUse"><stop offset="0" stop-color="#115DA6"/><stop offset="1" stop-color="#00A14F"/></linearGradient><path fill="url(#d)" d="M33.953 3.409c-.355-.079-.722-.123-1.083-.178 0 .275-.002.551.003.825z"/><linearGradient id="e" x1="20.867" x2="30.121" y1="31.706" y2="18.683" gradientUnits="userSpaceOnUse"><stop offset="0" stop-color="#115DA6"/><stop offset="1" stop-color="#00A14F"/></linearGradient><path fill="url(#e)" d="m34.035 13.949 8.935-5.462a18.5 18.5 0 0 0-6.181-4.168L32.993 6.75a51.5 51.5 0 0 0 1.042 7.199"/><linearGradient id="f" x1="16.54" x2="25.865" y1="28.555" y2="15.431" gradientUnits="userSpaceOnUse"><stop offset="0" stop-color="#115DA6"/><stop offset="1" stop-color="#00A14F"/></linearGradient><path fill="url(#f)" d="M30.619 16.037a58 58 0 0 1-.93-7.171l-7.968 5.104a56 56 0 0 0 1.053 6.863z"/></g></svg>