<svg xmlns="http://www.w3.org/2000/svg" viewBox="35 20 169.9 169.9"><rect width="169.9" height="169.9" x="35" y="20" fill="url(#a)" rx="49.815"/><path fill="url(#b)" fill-rule="evenodd" d="m175.62 54.746-28.136 28.606-6.13-6.03 28.136-28.605zm-26.344.218-42.204 42.909-6.13-6.029 42.204-42.909zM87.628 78.877c5.325-5.383 10.65-10.765 21.569-21.867l6.13 6.03C104.4 74.149 99.069 79.537 93.74 84.923c-4.4 4.449-8.8 8.897-16.359 16.573l31.977 8.358 25.968-26.402 6.13 6.03-25.968 26.401 8.907 31.908 42.138-42.087 6.076 6.083-49.109 49.05-45.837-12.628-13.394-45.646 1.771-1.8a8855 8855 0 0 1 21.588-21.886m28.419 70.99-8.846-31.689-31.831-8.32 9.195 31.335zm47.734-56.517 7.122-7.122-6.08-6.08-7.147 7.148-30.171 30.674 6.13 6.029z" clip-rule="evenodd"/><defs><linearGradient id="a" x1="212" x2="57.5" y1="31.001" y2="189" gradientTransform="translate(-7 -11.001)" gradientUnits="userSpaceOnUse"><stop offset="0" stop-color="#00A3FF"/><stop offset="1" stop-color="#30f"/></linearGradient><linearGradient id="b" x1="86.098" x2="206.01" y1="158.28" y2="35.327" gradientTransform="translate(-7 -11.001)" gradientUnits="userSpaceOnUse"><stop offset="0" stop-color="#fff"/><stop offset="1" stop-color="#fff"/></linearGradient></defs></svg>