<svg xmlns="http://www.w3.org/2000/svg" viewBox="0 0 397.29 396.98"><g fill-rule="evenodd"><path fill="#fcfcfc" d="m114.3 73.332-.105 13.9-27.7.103-27.7.102v96.79l27.7.102 27.7.103.104 20.9.103 20.9h27.593v-42h55.6v-96.8h-55.6v-28h-27.59zm110.9 13.672v14.028h22.976c14.887 0 23.064.141 23.224.4.136.22.587.4 1.003.4 7.07 0 17.893 9.156 20.475 17.321.5 1.584 1.093 3.007 1.316 3.164.26.183.45 6.383.53 17.3l.123 17.015h28.03l-.194-17.5c-.201-18.065-.542-22.204-2.07-25.135-.335-.64-.609-1.462-.611-1.825-.004-1.227-2.808-7.936-4.41-10.554-.876-1.43-1.592-2.75-1.592-2.935s-.405-.774-.9-1.312-1.393-1.727-1.996-2.643c-1.624-2.469-8.062-8.753-10.648-10.393-1.241-.787-2.4-1.673-2.576-1.967s-.476-.536-.667-.536-1.734-.82-3.429-1.822c-3.235-1.913-7.692-3.7-11.388-4.568-1.208-.283-2.376-.652-2.596-.82-1.383-1.057-6.915-1.328-30.3-1.484l-24.3-.16zm-111 48.828v20.6l-27.8.21v-41.62l27.8.21zm55.4 0v20.8H142v-41.6h27.6zm83.091 35.3c-.318 1.414-2.38 6.878-2.679 7.1-.149.11-.951 2.09-1.784 4.4s-1.737 4.56-2.009 5c-.453.73-1.684 3.948-3.291 8.6-.342.99-.749 1.89-.904 2s-.963 2.09-1.796 4.4-1.737 4.56-2.009 5c-.453.73-1.684 3.948-3.291 8.6-.342.99-.749 1.89-.904 2s-.963 2.09-1.796 4.4-1.737 4.56-2.009 5c-.453.73-1.684 3.948-3.291 8.6-.342.99-.749 1.89-.904 2s-.963 2.09-1.796 4.4-1.745 4.57-2.028 5.021-.792 1.621-1.132 2.6c-1.687 4.861-2.813 7.798-3.056 7.98-.149.11-.951 2.09-1.784 4.4s-1.745 4.568-2.028 5.02-.792 1.621-1.132 2.6c-1.687 4.861-2.813 7.798-3.056 7.98-.149.11-.951 2.09-1.784 4.4s-1.737 4.56-2.009 5c-.453.73-1.684 3.947-3.291 8.6-.342.99-.749 1.89-.904 2s-.963 2.09-1.796 4.4-1.737 4.56-2.009 5c-.453.73-1.684 3.947-3.291 8.6-.342.99-.745 1.89-.895 2-.242.177-2.033 4.616-2.033 5.04 0 .092 6.786.121 15.08.064l15.08-.105.905-2.529c.498-1.392 1.194-3.102 1.546-3.8.626-1.243 3.046-7.586 3.576-9.37.147-.496.414-.9.593-.9.18 0 .417-.406.528-.9.285-1.277 2.564-7.363 3.314-8.852.617-1.226 3.04-7.578 3.565-9.349.147-.495.435-.9.64-.9s.373-.255.373-.567.354-1.392.786-2.4l.786-1.833h56.719l.655 1.713c.36.943.654 1.862.654 2.042 0 .181.429 1.182.952 2.225.524 1.043 1.636 3.77 2.471 6.058s1.646 4.252 1.801 4.362.563 1.01.907 2c1.658 4.773 2.434 6.786 3.469 9 1.209 2.586 2.754 6.64 3.088 8.1.113.495.35.9.528.9.177 0 .529.675.782 1.5.254.825.649 1.995.88 2.6l.419 1.1h14.952c16.854 0 15.725.257 13.999-3.18-.524-1.043-1.636-3.769-2.471-6.058s-1.64-4.252-1.789-4.362c-.243-.18-1.369-3.118-3.056-7.979-.34-.979-.849-2.149-1.132-2.6s-1.195-2.71-2.028-5.02-1.635-4.29-1.784-4.4c-.243-.182-1.369-3.119-3.056-7.98-.34-.979-.849-2.149-1.132-2.6s-1.195-2.71-2.028-5.02-1.635-4.29-1.784-4.4c-.243-.182-1.369-3.119-3.056-7.98-.34-.979-.849-2.149-1.132-2.6s-1.195-2.71-2.028-5.02-1.635-4.29-1.784-4.4c-.243-.182-1.369-3.119-3.056-7.98-.34-.979-.849-2.149-1.132-2.6s-1.195-2.71-2.028-5.02-1.635-4.29-1.784-4.4c-.243-.182-1.369-3.119-3.056-7.98-.34-.979-.849-2.149-1.132-2.6s-1.195-2.71-2.028-5.02-1.641-4.29-1.796-4.4-.562-1.01-.904-2c-1.607-4.653-2.838-7.87-3.291-8.6-.272-.44-1.176-2.69-2.009-5s-1.641-4.29-1.796-4.4-.562-1.01-.904-2c-1.605-4.648-2.838-7.87-3.29-8.6-.272-.44-1.077-2.42-1.79-4.4-.712-1.98-1.474-3.826-1.692-4.1-.305-.384-3.658-.5-14.302-.5h-13.905zm15.251 41.6c.636 2.18 1.842 5.287 2.138 5.51.154.117.994 2.187 1.866 4.6.872 2.414 1.873 4.951 2.224 5.638.622 1.218 2.885 7.157 3.334 8.751.124.44.368.895.541 1.011.173.117 1.034 2.217 1.912 4.668s1.787 4.786 2.02 5.19c.723 1.25 2.023 4.568 2.023 5.164 0 .48-2.598.567-17 .567-9.35 0-17-.094-17-.208s.45-1.315 1-2.669c.55-1.353 1-2.687 1-2.963s.237-.74.528-1.03c.29-.292.632-.89.76-1.33.479-1.646 2.728-7.548 3.334-8.75.617-1.227 3.04-7.579 3.565-9.35.147-.495.414-.9.593-.9.18 0 .417-.405.528-.9.319-1.429 2.48-7.102 3.636-9.545.581-1.228 1.056-2.338 1.056-2.468 0-2.042 1.423-2.765 1.942-.987m-195.43 44.4c.17 16.276.538 22.065 1.482 23.3.168.22.535 1.39.815 2.6.8 3.446 2.774 8.327 4.665 11.533.951 1.613 1.73 3.09 1.73 3.28s.241.491.536.667c.294.176 1.18 1.335 1.967 2.576 1.791 2.823 8.126 9.2 10.735 10.805 1.079.664 1.962 1.342 1.962 1.506s.495.551 1.1.86 2.222 1.235 3.593 2.06c2.565 1.54 9.274 4.311 10.447 4.315.363.002 1.184.276 1.825.611 3.209 1.673 6.567 1.89 32.135 2.072l24.5.174v-28.029l-23.815-.115c-15.551-.075-23.914-.256-24.1-.522-.157-.223-1.181-.638-2.275-.922-8.776-2.275-17.101-11.4-18.419-20.192-.156-1.039-.443-1.987-.637-2.108-.196-.12-.354-7.28-.354-15.995v-15.776H72.332z"/><path fill="#ec4c8c" d="M45.011.896c-1.754.317-3.284.708-3.4.87s-1.201.533-2.411.828c-2.69.655-8.517 2.833-8.823 3.298-.123.187-1.473.956-3 1.711-1.528.754-3.497 2.014-4.377 2.8-.88.785-1.774 1.43-1.988 1.43-.406 0-1.921 1.368-5.135 4.641-3.407 3.47-4.133 4.323-5.316 6.257-.638 1.045-1.287 1.9-1.442 1.9-.154.001-1.053 1.576-1.998 3.501s-1.94 3.734-2.212 4.021c-.56.591-2.8 7.503-3.168 9.78-.134.824-.378 1.5-.543 1.5-1.13 0-1.198 8.75-1.198 155.2 0 147.72.06 155.2 1.249 155.2.193 0 .351.34.351.754 0 2.036 2.974 10.845 3.661 10.845.186 0 .34.225.341.5.003.86 2.813 6.024 3.83 7.041.532.532.968 1.177.968 1.433 0 .954 9.58 11.026 10.488 11.026.205 0 .873.495 1.483 1.1s2.081 1.618 3.269 2.251 2.25 1.285 2.36 1.45c.232.345 2.927 1.595 6.032 2.796 1.193.462 2.743 1.105 3.445 1.43.703.323 2.953.987 5 1.474l3.723.884 150.6.125c108.57.09 151.49.001 153.8-.319 4.18-.578 9.564-1.907 9.733-2.4.074-.216.394-.39.712-.39 1.055 0 7.506-2.825 8.155-3.57.11-.127.83-.569 1.6-.982 3.287-1.763 4.234-2.356 4.8-3.004.33-.377 1.32-1.208 2.2-1.847 2.689-1.95 8.694-8.48 9.691-10.54.33-.682.984-1.667 1.454-2.19.857-.955 2.512-4.105 3.469-6.602.281-.734.721-1.544.976-1.8.631-.632 2.457-7.258 3.203-11.618.926-5.419.921-300.72-.005-306.1-.759-4.403-2.578-10.952-3.043-10.952-.19 0-.345-.169-.345-.376 0-.786-3.294-7.439-3.834-7.744-.311-.176-.566-.494-.566-.706 0-1.325-5.022-7.526-9.233-11.4-2.55-2.346-8.302-6.39-10.167-7.149-.88-.358-1.78-.87-2-1.139-.699-.852-8.988-3.868-10.667-3.88-.366-.004-.726-.179-.8-.39C355.335.122 54.363-.8 45.013.892m97.294 72.236.105 13.9h55.19v97.6h-55.2v41.6h-28.4v-41.6h-55.6v-97.6h55.6v-28.01l28.2.21zm132.7.167c.44.257 2.42.758 4.4 1.114 4.12.74 9.8 2.508 9.8 3.052 0 .202.273.367.606.367.706 0 6.873 3.08 7.065 3.527.071.167.939.773 1.929 1.348 3.872 2.248 12.153 10.446 14.025 13.884.343.631.933 1.456 1.311 1.834 2.163 2.163 7.459 15.557 7.463 18.874.001.476.165.926.365 1 .762.28 1.236 9.414 1.236 23.802v14.931h-28.8v-15.745c0-18.86.108-18.089-3.631-26.033-1.879-3.994-7.569-9.138-12.369-11.184a139 139 0 0 1-4-1.773c-1.248-.593-4.001-.678-25.3-.783l-23.9-.117V72.57l24.5.13c17.757.093 24.72.258 25.3.596m-188.2 62.533v20.4h27.2v-40.8h-27.2zm55.6 0v20.4h27.2v-40.8h-27.2zm139.94 36.9a65 65 0 0 1 2.05 5.1c.492 1.43 1.125 2.97 1.408 3.421s.794 1.621 1.135 2.6c1.692 4.846 2.432 6.772 3.452 8.976a64 64 0 0 1 2.005 5.003c.492 1.43 1.125 2.97 1.408 3.421s.794 1.621 1.135 2.6c1.692 4.846 2.432 6.772 3.452 8.976a64 64 0 0 1 2.005 5.003c.492 1.43 1.125 2.97 1.408 3.421s.794 1.621 1.135 2.6c1.692 4.846 2.432 6.772 3.452 8.976a64 64 0 0 1 2.005 5.003c.492 1.43 1.125 2.97 1.408 3.421s.794 1.621 1.135 2.6c1.692 4.846 2.432 6.772 3.452 8.976a64 64 0 0 1 2.005 5.003c.492 1.43 1.125 2.97 1.408 3.421s.794 1.621 1.135 2.6c1.692 4.846 2.432 6.772 3.452 8.976a64 64 0 0 1 2.005 5.003c.492 1.43 1.125 2.97 1.408 3.421s.794 1.621 1.135 2.6c1.692 4.846 2.432 6.772 3.452 8.976a64 64 0 0 1 2.005 5.003c.492 1.43 1.125 2.97 1.408 3.421s.794 1.621 1.135 2.6c1.692 4.846 2.432 6.772 3.452 8.976a66 66 0 0 1 2.012 5.003c.496 1.43 1.176 3.075 1.511 3.655 1.375 2.38 1.598 2.345-15.028 2.345h-15.144l-1.122-3.3c-.617-1.815-1.34-3.66-1.606-4.1s-1.245-2.777-2.176-5.194c-.93-2.416-1.839-4.576-2.019-4.8-.181-.223-.606-1.216-.946-2.206-1.596-4.645-2.806-7.839-3.12-8.239-.19-.24-1.067-2.384-1.949-4.76s-1.765-4.52-1.964-4.762c-.198-.24-.668-1.384-1.044-2.539l-.684-2.1H239.23l-.992 2.1c-.546 1.155-1.65 3.9-2.455 6.1s-1.595 4.09-1.756 4.2-.394.56-.518 1c-.442 1.571-2.704 7.513-3.479 9.142-.433.912-1.446 3.458-2.249 5.658s-1.593 4.09-1.754 4.2-.394.56-.518 1c-.555 1.97-2.744 7.566-3.151 8.057-.609.733-30.753.813-30.753.082 0-.254.433-1.379.963-2.5.886-1.877 1.655-3.886 3.306-8.639.344-.99.752-1.89.907-2s.963-2.09 1.796-4.4 1.745-4.569 2.028-5.02c.283-.452.792-1.622 1.132-2.6 1.687-4.862 2.813-7.799 3.056-7.98.149-.11.951-2.09 1.784-4.4s1.737-4.56 2.009-5c.453-.73 1.684-3.948 3.291-8.6.342-.99.749-1.89.904-2s.963-2.09 1.796-4.4 1.745-4.569 2.028-5.02c.283-.452.792-1.622 1.132-2.6 1.687-4.862 2.813-7.799 3.056-7.98.149-.11.951-2.09 1.784-4.4s1.745-4.569 2.028-5.02c.283-.452.792-1.622 1.132-2.6 1.687-4.862 2.813-7.799 3.056-7.98.149-.11.951-2.09 1.784-4.4s1.737-4.56 2.009-5c.453-.73 1.684-3.948 3.291-8.6.342-.99.749-1.89.904-2s.963-2.09 1.796-4.4 1.745-4.569 2.028-5.02c.283-.452.792-1.622 1.132-2.6 1.687-4.862 2.813-7.799 3.056-7.98.149-.11.951-2.09 1.784-4.4s1.737-4.56 2.009-5c.482-.777 2.026-4.838 3.309-8.7l.632-1.9h28.662zm-15.542 40.048c0 .327-.237.833-.528 1.123-.29.291-.632.89-.76 1.33-.485 1.663-2.73 7.55-3.487 9.141-.433.912-1.446 3.458-2.249 5.658s-1.593 4.09-1.754 4.2-.394.56-.518 1c-.442 1.57-2.704 7.513-3.478 9.142-.434.912-1.414 3.368-2.178 5.458l-1.388 3.8 16.432.104c9.038.058 16.512.025 16.61-.072.097-.098-.308-1.495-.901-3.105-.592-1.61-1.179-3.287-1.304-3.727s-.369-.895-.542-1.01c-.173-.118-1.029-2.188-1.901-4.6-.872-2.415-1.873-4.952-2.224-5.639-.622-1.218-2.885-7.157-3.334-8.75-.124-.44-.368-.896-.541-1.012-.173-.117-1.03-2.187-1.904-4.6-.875-2.414-1.963-5.145-2.42-6.07-.457-.924-.831-1.858-.831-2.076s-.18-.507-.4-.643-.4.021-.4.348m-166 42.197c0 14.518.234 18.65 1.17 20.655.206.44.869 1.97 1.475 3.4 1.942 4.585 7.157 10.478 10.773 12.172.87.408 2.482 1.173 3.582 1.701 3.86 1.853 4.145 1.874 28.8 2.105l23.6.222v28.4l-21.2.122c-20.606.12-31.017-.262-31.333-1.148-.074-.206-.524-.374-1-.375-3.317-.004-16.711-5.3-18.874-7.463-.378-.378-1.203-.968-1.834-1.31-3.462-1.886-11.698-10.218-13.863-14.026-.562-.99-1.235-1.98-1.495-2.2-.597-.506-3.401-6.174-3.401-6.876 0-.288-.165-.524-.367-.524-.544 0-2.313-5.68-3.052-9.8-.356-1.98-.854-3.96-1.108-4.4-.324-.56-.505-6.086-.606-18.5l-.143-17.7h28.876z"/><path fill="#f478c8" d="M233.2 72.922c21.186.278 37.507.282 37.338.01-.102-.165-10.39-.259-22.862-.209s-18.986.14-14.476.2m51.2 2.723c0 .28 2.906 1.417 3.291 1.29.191-.065-.471-.42-1.472-.79-1-.372-1.819-.597-1.819-.5m15.6 7.876c0 .087 1.035 1.038 2.3 2.113 1.265 1.076 1.94 1.541 1.5 1.033-.836-.965-3.8-3.419-3.8-3.146m6.383 5.61c1.658 1.766 2.017 2.084 2.017 1.783 0-.064-.855-.919-1.9-1.9l-1.9-1.783zm3.814 4.4c1.075 1.265 2.026 2.3 2.113 2.3.273 0-2.181-2.964-3.146-3.8-.508-.44-.043.235 1.033 1.5m8.603 14.584c0 .567 1.163 3.316 1.402 3.316.105 0-.106-.765-.47-1.7-.737-1.893-.932-2.23-.932-1.616M86.59 135.632l.006 20.8 27.4.016-27.193-.226-.218-41.39zm235.65-14.6c.198.33.468 8.52.602 18.2l.242 17.6-.042-17.68c-.036-14.579-.141-17.772-.602-18.2-.464-.432-.498-.419-.2.08m-173.57 35.5c3.781.065 10.081.065 14 0 3.919-.066.826-.12-6.874-.12s-10.907.054-7.126.12m102.63 17.4c-.43 1.175-.42 1.226.112.524.509-.672.809-1.824.476-1.824-.062 0-.327.585-.588 1.3m-3.504 8.572c-.338.81-.563 1.628-.499 1.82s.419-.472.79-1.473c.806-2.174.583-2.44-.291-.347m-175.47 2.028c7.771.061 20.371.061 28 0s1.271-.11-14.129-.11-21.642.05-13.871.11m83.771 0c7.645.061 20.155.061 27.8 0s1.39-.11-13.9-.11-21.545.05-13.9.11m130.7-.016c0 .567 1.163 3.316 1.402 3.316.105 0-.106-.765-.47-1.7-.737-1.893-.932-2.23-.932-1.616m-43.5 9.416c-.43 1.175-.42 1.226.112.524.509-.672.809-1.824.476-1.824-.062 0-.327.585-.588 1.3m-3.504 8.572c-.338.81-.563 1.628-.499 1.82s.419-.472.79-1.473c.806-2.174.583-2.44-.291-.347m55.004 2.012c0 .567 1.163 3.316 1.402 3.316.105 0-.106-.765-.47-1.7-.737-1.893-.932-2.23-.932-1.616m-59.5 9.416c-.43 1.175-.42 1.226.112.524.509-.672.809-1.824.476-1.824-.062 0-.327.585-.588 1.3m32.332-.876c-.018.342.248.972.59 1.4.612.764.616.763.254-.024-.202-.44-.468-1.07-.59-1.4-.193-.518-.227-.515-.254.024m-4.765 8.356c-.234.671-.34 1.22-.236 1.22.27 0 1.025-2.078.826-2.276-.09-.09-.356.384-.59 1.056m-31.071 1.092c-.338.81-.563 1.628-.499 1.82s.419-.472.79-1.473c.806-2.174.583-2.44-.291-.347m39.717.347c.371 1.001.726 1.663.79 1.472.128-.385-1.01-3.29-1.289-3.29-.097 0 .128.818.499 1.818m31.287 1.665c0 .567 1.163 3.316 1.402 3.316.105 0-.106-.765-.47-1.7-.737-1.893-.932-2.23-.932-1.616m-43.444 5.56c-.332.793-.53 1.515-.442 1.604.089.088.445-.56.791-1.444.784-1.995.477-2.136-.349-.16m-32.056 3.856c-.43 1.175-.42 1.226.112.524.509-.672.809-1.824.476-1.824-.062 0-.327.585-.588 1.3m48.332-.876c-.018.342.248.972.59 1.4.612.764.616.763.254-.024-.202-.44-.468-1.07-.59-1.4-.193-.518-.227-.515-.254.024m31.081 1.395c.371 1.001.726 1.663.79 1.472.128-.385-1.01-3.29-1.289-3.29-.097 0 .128.818.499 1.818M72.09 255.308c-.048 8.622.047 15.76.212 15.863.273.17.267-11.704-.013-25.939-.061-3.08-.15 1.454-.199 10.076m182.78-13.896c-.234.671-.34 1.22-.236 1.22.27 0 1.025-2.078.826-2.276-.09-.09-.356.384-.59 1.056m-31.071 1.092c-.338.81-.563 1.628-.499 1.82s.419-.472.79-1.473c.806-2.174.583-2.44-.291-.347m55.717.347c.371 1.001.726 1.663.79 1.472.128-.385-1.01-3.29-1.289-3.29-.097 0 .128.818.499 1.818m31.287 1.665c0 .567 1.163 3.316 1.402 3.316.105 0-.106-.765-.47-1.7-.737-1.893-.932-2.23-.932-1.616m-59.444 5.56c-.332.793-.53 1.515-.442 1.604.089.088.445-.56.791-1.444.784-1.995.477-2.136-.349-.16m-32.056 3.856c-.43 1.175-.42 1.226.112.524.509-.672.809-1.824.476-1.824-.062 0-.327.585-.588 1.3m95.413.52c.371 1 .726 1.662.79 1.471.128-.385-1.01-3.29-1.289-3.29-.097 0 .128.818.499 1.818m-98.917 8.053c-.338.81-.563 1.628-.499 1.82s.419-.472.79-1.473c.806-2.174.583-2.44-.291-.347m103 2.012c0 .567 1.163 3.316 1.402 3.316.105 0-.106-.765-.47-1.7-.737-1.893-.932-2.23-.932-1.616m-107.5 9.416c-.43 1.175-.42 1.226.112.524.509-.672.809-1.824.476-1.824-.062 0-.327.585-.588 1.3m111.41.52c.371 1 .726 1.662.79 1.471.128-.385-1.01-3.29-1.289-3.29-.097 0 .128.818.499 1.818m-220.11 3.66c.6 1.435.993 2.083.993 1.637 0-.432-1.215-3.116-1.411-3.116-.11 0 .078.666.418 1.48m105.19 4.392c-.338.81-.563 1.628-.499 1.82s.419-.472.79-1.473c.806-2.174.583-2.44-.291-.347m119 2.012c0 .567 1.163 3.316 1.402 3.316.105 0-.106-.765-.47-1.7-.737-1.893-.932-2.23-.932-1.616m-251.29 2.335c.371 1.001.726 1.663.79 1.472.128-.385-1.01-3.29-1.289-3.29-.097 0 .128.818.499 1.818m159.84 3.224c-.332.794-.53 1.516-.442 1.605s.445-.56.791-1.444c.784-1.995.477-2.136-.349-.16m63.844 2.04c0 .567 1.163 3.316 1.402 3.316.105 0-.106-.765-.47-1.7-.737-1.893-.932-2.23-.932-1.616m-95.9 1.816c-.43 1.175-.42 1.226.112.524.509-.672.809-1.824.476-1.824-.062 0-.327.585-.588 1.3m127.41.52c.371 1 .726 1.662.79 1.471.128-.385-1.01-3.29-1.289-3.29-.097 0 .128.818.499 1.818m-100.02 7.377c-.347.882-.546 1.604-.442 1.604.27 0 1.425-2.855 1.233-3.048-.089-.088-.445.561-.791 1.444m-146.77.304c.655.825 1.606 1.86 2.114 2.3s.043-.235-1.033-1.5c-2.19-2.576-2.913-3.11-1.081-.8m115.87.372c-.338.81-.563 1.628-.499 1.82s.419-.472.79-1.473c.806-2.174.583-2.44-.291-.347m103.33-.472c.202.44.468 1.07.59 1.4.193.518.227.515.254-.024.018-.342-.248-.972-.59-1.4-.612-.764-.616-.763-.254.024m31.676 2.484c0 .567 1.163 3.316 1.402 3.316.105 0-.106-.765-.47-1.7-.737-1.893-.932-2.23-.932-1.616m-246.42 2.616c.981 1.045 1.836 1.9 1.9 1.9.301 0-.017-.359-1.783-2.017l-1.9-1.783zm138.97 2.943c-.332.794-.53 1.516-.442 1.605s.445-.56.791-1.444c.784-1.995.477-2.136-.349-.16m-135.96-.28c.836.965 3.8 3.42 3.8 3.146 0-.087-1.035-1.038-2.3-2.113-1.265-1.076-1.94-1.54-1.5-1.033m103.9 4.136c-.43 1.175-.42 1.226.112.524.509-.672.809-1.824.476-1.824-.062 0-.327.585-.588 1.3m112.33-.876c-.018.342.248.972.59 1.4.612.764.616.763.254-.024-.202-.44-.468-1.07-.59-1.4-.193-.518-.227-.515-.254.024m31.081 1.395c.371 1.001.726 1.663.79 1.472.128-.385-1.01-3.29-1.289-3.29-.097 0 .128.818.499 1.818m-231.48 5.116c.386.312 3.567 1.442 3.567 1.267 0-.239-2.749-1.402-3.316-1.402-.229 0-.342.061-.251.135m115.46 2.261-.631 1.604h-15.032c-8.268 0-15.032-.078-15.032-.174s.191-.68.425-1.3q.426-1.127.012-.717c-.228.224-.464.854-.526 1.4l-.111.991h30.4l.744-1.523c.409-.837.662-1.604.562-1.704s-.465.54-.811 1.423m88.696.704.63 1.3 30.179-.19-15.1-.11c-8.305-.06-15.1-.253-15.1-.428 0-.176-.279-.668-.619-1.096-.547-.685-.546-.624.01.524m-186.65 1.003c.167.167 10.463.257 22.88.2l22.577-.103-22.88-.2c-12.584-.11-22.744-.063-22.577.103"/><path fill="#f47c8c" d="M142.18 73.232c0 7.7.054 10.793.119 6.874.066-3.919.066-10.219 0-14-.065-3.78-.119-.574-.119 7.126m129.52.087a9 9 0 0 0 2.2 0c.605-.092.11-.167-1.1-.167s-1.705.075-1.1.167M93.5 115.331c3.795.066 10.005.066 13.8 0 3.795-.065.69-.119-6.9-.119s-10.695.054-6.9.12m48.683.2c-.105.275-.143 9.59-.083 20.7l.108 20.2.096-20.495.096-20.494 27.4-.222-13.713-.094c-10.671-.074-13.755.016-13.904.405m179.91 3.9c0 .77.082 1.085.183.7s.1-1.015 0-1.4c-.101-.385-.183-.07-.183.7m-36.064 63.11c.247.71.613 1.393.813 1.516.2.124.149-.282-.115-.9-.706-1.66-1.221-2.114-.698-.616m-143.84 22.89c0 11.55.051 16.275.114 10.5.062-5.775.062-15.225 0-21-.063-5.775-.114-1.05-.114 10.5m151.84-2.89c.247.71.613 1.393.813 1.516.2.124.149-.282-.115-.9-.706-1.66-1.221-2.114-.698-.616m-27.65 10.345c-.221.581-.315 1.142-.21 1.248.106.105.31-.279.454-.853.147-.585.447-.93.681-.785.245.151.301.066.134-.203-.422-.683-.615-.575-1.059.593m35.65 9.655c.247.71.613 1.393.813 1.516.2.124.149-.282-.115-.9-.706-1.66-1.221-2.114-.698-.616m-43.65 10.345c-.221.581-.327 1.13-.236 1.221.09.091.356-.384.59-1.056.52-1.492.206-1.638-.354-.165m-185.86 40.545c0 1.21.075 1.705.167 1.1a9 9 0 0 0 0-2.2c-.092-.605-.167-.11-.167 1.1m97.66 36c0 7.81.054 11.005.119 7.1.066-3.905.066-10.295 0-14.2-.065-3.905-.119-.71-.119 7.1m-65.38 8.98c0 .11.54.48 1.2.82s1.2.531 1.2.421-.54-.48-1.2-.82-1.2-.532-1.2-.422m13.3 4.497c.385.1 1.015.1 1.4 0s.07-.183-.7-.183-1.085.082-.7.183m3.2.411a9 9 0 0 0 2.2 0c.605-.092.11-.167-1.1-.167s-1.705.075-1.1.167"/></g></svg>