<svg xmlns="http://www.w3.org/2000/svg" class="css-1j8o68f" viewBox="0 0 25.951 27.417"><defs><linearGradient id="a"><stop offset="0" stop-color="#02569b"/><stop offset="1" stop-color="#37baf7"/></linearGradient><linearGradient id="c" x1="5.859" x2="96.824" y1="3.113" y2="3.113" gradientTransform="scale(.97289 1.0279)" gradientUnits="userSpaceOnUse" href="#a"/></defs><path fill="url(#c)" d="M83.5 3.2H16.3c-6 0-10.6 4.5-10.6 10.4v55.7c0 1.1.2 2.2.5 3.2 1.3 4.4 5.2 7.3 9.8 7.3h7.8c1.4 3.1 3.4 6 5.9 8.5 5.4 5.4 12.6 8.4 20.3 8.4s14.9-3 20.3-8.4c2.5-2.5 4.5-5.4 5.9-8.5h7.2c1.7 0 3.4-.2 4.9-1 3.9-2 5.9-5.2 5.9-9.6V13.9c0-6.2-4.4-10.7-10.7-10.7m-1 5.4c1.9 0 3.4 1.5 3.4 3.4s-1.5 3.4-3.4 3.4-3.4-1.5-3.4-3.4 1.5-3.4 3.4-3.4m-11.8 0c1.9 0 3.4 1.5 3.4 3.4s-1.5 3.4-3.4 3.4-3.4-1.5-3.4-3.4 1.6-3.4 3.4-3.4M59 8.6c1.9 0 3.4 1.5 3.4 3.4s-1.5 3.4-3.4 3.4-3.4-1.5-3.4-3.4 1.5-3.4 3.4-3.4M27 68.1c0-2 .3-4.1.8-6h8.4c-.3 2.1-.4 4.2-.4 6.3q0 2.85.3 5.7h-8.3c-.5-2-.8-4-.8-6m14.5.3c0-2.1.2-4.2.5-6.3h16c.3 1.9.4 3.8.4 5.7 0 2.1-.2 4.2-.5 6.3H41.8c-.2-1.9-.3-3.9-.3-5.7m1.7-12.1c1.2-4 2.9-7.7 5.2-11.2q1.65-.15 3.3 0c2.2 3.5 3.9 7.2 5 11.2zm16.2-9.2c4.3 1.9 8 5.2 10.4 9.3h-7.1q-1.2-4.95-3.3-9.3M63.7 62h8.5c.5 2 .8 4 .8 6s-.3 4-.8 6h-8.5c.3-2.1.4-4.2.4-6.3 0-1.9-.1-3.8-.4-5.7m-26.4-5.7h-7.1c2.5-4.1 6.2-7.4 10.6-9.3-1.5 3-2.7 6.1-3.5 9.3m-7 23.5h6.9c.8 3.2 1.9 6.2 3.3 9.1-4.3-1.9-7.9-5.1-10.2-9.1M48.1 91c-2.2-3.5-3.9-7.2-5-11.1h13.6c-1.2 4-2.9 7.7-5.2 11.2-1.3 0-2.3 0-3.4-.1M59 89.2c1.5-3 2.7-6.1 3.5-9.4h7.2c-2.5 4.2-6.2 7.5-10.7 9.4m29.4-67.3v47.4c0 2.9-1.9 4.8-4.8 4.8h-5.5q.6-2.85.6-6c0-7.7-3-14.9-8.4-20.3S57.7 39.4 50 39.4s-14.9 3-20.3 8.4-8.4 12.6-8.4 20.3q0 3 .6 6h-5.5c-3 0-4.8-1.8-4.8-4.8V20.9h76.7c.1.3.1.7.1 1" transform="matrix(-.29323 0 0 .29323 27.622 -.938)"/></svg>