<svg version="1.0" viewBox="0 0 111.35 109.62" xmlns="http://www.w3.org/2000/svg" xmlns:xlink="http://www.w3.org/1999/xlink"><defs><linearGradient id="o" x1="82.119" x2="60" y1="20" y2="40" gradientUnits="userSpaceOnUse"><stop stop-color="#c0cdf9" offset="0"/><stop stop-color="#07092d" stop-opacity=".288" offset="1"/></linearGradient><linearGradient id="g" x1="33" x2="58" y1="35" y2="60" gradientTransform="translate(154.09 -26.856) scale(1.0092)" gradientUnits="userSpaceOnUse" xlink:href="#d"/><linearGradient id="d" gradientUnits="userSpaceOnUse"><stop stop-color="#fff" offset="0"/><stop stop-color="#fff" stop-opacity="0" offset="1"/></linearGradient><linearGradient id="ae" x1="60" x2="90" y1="20" y2="50" gradientTransform="translate(154.47 -26.472)" gradientUnits="userSpaceOnUse" xlink:href="#d"/><linearGradient id="a"><stop stop-color="#fff" offset="0"/><stop stop-color="#fff" stop-opacity="0" offset="1"/></linearGradient><linearGradient id="r" x1="231.62" x2="231.75" y1="195.19" y2="201.5" gradientTransform="translate(142.09 -41.263) scale(.52965)" gradientUnits="userSpaceOnUse" xlink:href="#a"/><linearGradient id="b" x1="231.38" x2="231.38" y1="195.62" y2="200.07" gradientUnits="userSpaceOnUse" xlink:href="#a"/><linearGradient id="q" x1="231.62" x2="231.75" y1="195.19" y2="201.5" gradientTransform="matrix(.20425 -.10356 .23952 .4724 160.23 3.814)" gradientUnits="userSpaceOnUse" xlink:href="#a"/><linearGradient id="p" x1="231.62" x2="231.75" y1="195.19" y2="201.5" gradientUnits="userSpaceOnUse" xlink:href="#a"/><linearGradient id="s" x1="95.5" x2="153.5" y1="208.16" y2="223.5" gradientUnits="userSpaceOnUse"><stop stop-color="#fff" offset="0"/><stop stop-color="#fff" stop-opacity="0" offset="1"/></linearGradient><linearGradient id="u" x1="57.225" x2="53.632" y1="76.246" y2="84.48" gradientTransform="translate(159.65 -17.243) scale(.88526)" gradientUnits="userSpaceOnUse"><stop stop-color="#eeeeec" offset="0"/><stop stop-color="#eeeeec" stop-opacity="0" offset="1"/></linearGradient><linearGradient id="t" x1="73.712" x2="82.754" y1="180.48" y2="187.66" gradientTransform="translate(148.47 -36.195) scale(.49279)" gradientUnits="userSpaceOnUse" xlink:href="#d"/><linearGradient id="v" x1="180.81" x2="153.7" y1="217.5" y2="144.5" gradientTransform="translate(-130.17 -83.353)" gradientUnits="userSpaceOnUse"><stop stop-color="#729fcf" offset="0"/><stop stop-color="#729fcf" stop-opacity="0" offset="1"/></linearGradient><filter id="z" color-interpolation-filters="sRGB"><feGaussianBlur stdDeviation="2.416"/></filter><filter id="y" x="-.078" y="-.114" width="1.156" height="1.228" color-interpolation-filters="sRGB"><feGaussianBlur stdDeviation="1.958"/></filter><filter id="x" x="-.074" y="-.175" width="1.149" height="1.351" color-interpolation-filters="sRGB"><feGaussianBlur stdDeviation="2.12"/></filter><filter id="c" x="-.085" y="-.278" width="1.171" height="1.556" color-interpolation-filters="sRGB"><feGaussianBlur stdDeviation=".565"/></filter><filter id="f" x="-.07" y="-.473" width="1.14" height="1.946" color-interpolation-filters="sRGB"><feGaussianBlur stdDeviation=".821"/></filter><filter id="w" x="-.076" y="-.166" width="1.152" height="1.331" color-interpolation-filters="sRGB"><feGaussianBlur stdDeviation=".665"/></filter><filter id="aa" x="-.083" y="-.122" width="1.165" height="1.245" color-interpolation-filters="sRGB"><feGaussianBlur stdDeviation="3.687"/></filter><filter id="ab" color-interpolation-filters="sRGB"><feGaussianBlur stdDeviation="1.241"/></filter><filter id="ac" color-interpolation-filters="sRGB"><feGaussianBlur stdDeviation="2.77"/></filter><radialGradient id="h" cx="116.31" cy="250.9" r="30.6" gradientTransform="matrix(.83158 0 0 .55662 102.76 -52.04)" gradientUnits="userSpaceOnUse" xlink:href="#a"/><radialGradient id="m" cx="132.44" cy="251.99" r="30.6" gradientTransform="matrix(2.0033 0 0 1.3409 -132.88 -95.166)" gradientUnits="userSpaceOnUse" xlink:href="#a"/><radialGradient id="l" cx="210.25" cy="168.5" r="34.25" gradientTransform="matrix(.52965 0 0 .22423 142.75 11.126)" gradientUnits="userSpaceOnUse" xlink:href="#a"/><radialGradient id="k" cx="217.5" cy="182.08" r="34.25" gradientTransform="matrix(1 0 0 .42336 0 97.164)" gradientUnits="userSpaceOnUse" xlink:href="#a"/><radialGradient id="e" cx="228.22" cy="204.83" r="14.094" gradientTransform="matrix(1 0 0 .14775 0 174.57)" gradientUnits="userSpaceOnUse" xlink:href="#a"/><radialGradient id="j" cx="89.875" cy="187.87" r="22.75" gradientTransform="matrix(.52965 0 0 .21561 142.75 20.976)" gradientUnits="userSpaceOnUse"><stop stop-color="#fff" stop-opacity=".33" offset="0"/><stop stop-color="#fff" stop-opacity="0" offset="1"/></radialGradient><radialGradient id="i" cx="90.281" cy="230.84" r="10.469" gradientTransform="matrix(1.1851 -.32836 .12286 .4434 -45.068 152.92)" gradientUnits="userSpaceOnUse"><stop stop-color="#fff" offset="0"/><stop stop-color="#fff" stop-opacity="0" offset="1"/></radialGradient><radialGradient id="n" cx="181.23" cy="214.55" r="22.466" gradientTransform="matrix(1.3515 0 0 1.7176 -63.706 -153.96)" gradientUnits="userSpaceOnUse"><stop stop-color="#fff" offset="0"/><stop stop-color="#fff" stop-opacity="0" offset="1"/></radialGradient><clipPath id="ad"><use width="400" height="300" fill="#fff" opacity=".25" xlink:href="#outline1"/></clipPath></defs><style/><g transform="translate(-161.47 17.615) scale(.99394)"><path d="M208.57-13.972l-41.2 42.2c-15.6 15.6 10.1 14.3 19.4 20.2 4.3 2.8-13.8 6.4-10.1 10.1 3.6 3.7 21.7 7.1 25.3 10.7 3.6 3.7-7.3 7.6-3.7 11.3 3.5 3.7 11.9.2 13.4 8.6 1.1 6.2 15.4 3.1 21.8-2.2 4-3.4-6.9-3.4-3.3-7.1 9-9.1 17-4.1 20.3-12.5 1.8-4.5-13.6-7.7-9.5-10.6 9.8-6.9 45.8-10.4 29.2-27l-42.7-43.7c-5.3-5-14-5-18.9 0zm47.3 81.3c0 2.1 16.3 3.3 15.4-.5-1.3-6.4-13.6-5.9-15.4.5zm-69.5 11.1c3.7 3.2 9.3-.7 11.1-5.2-3.6-4.7-16.9.3-11.1 5.2zm67.5-6.7c-4.6 4.2.8 8.6 5.3 5.7 1.2-.8-.1-4.7-5.3-5.7z"/><path d="M208.57-13.972l-41.2 42.2c-15.6 15.6 10.1 14.3 19.4 20.2 4.3 2.8-13.8 6.4-10.1 10.1 3.6 3.7 21.7 7.1 25.3 10.7 3.6 3.7-7.3 7.6-3.7 11.3 3.5 3.7 11.9.2 13.4 8.6 1.1 6.2 15.4 3.1 21.8-2.2 4-3.4-6.9-3.4-3.3-7.1 9-9.1 17-4.1 20.3-12.5 1.8-4.5-13.6-7.7-9.5-10.6 9.8-6.9 45.8-10.4 29.2-27l-42.7-43.7c-5.3-5-14-5-18.9 0zm47.3 81.3c0 2.1 16.3 3.3 15.4-.5-1.3-6.4-13.6-5.9-15.4.5zm-69.5 11.1c3.7 3.2 9.3-.7 11.1-5.2-3.6-4.7-16.9.3-11.1 5.2zm67.5-6.7c-4.6 4.2.8 8.6 5.3 5.7 1.2-.8-.1-4.7-5.3-5.7z" fill="none"/><use transform="translate(155.08 -25.868) scale(.99054)" width="400" height="300" clip-path="url(#ad)" fill="url(#o)" filter="url(#z)" opacity=".67" xlink:href="#outline1"/><path d="M171.04 30.567c-11.202 11.101 8.477 7.973 23.615 13.927l31.285-55.001c-4.743-4.844-10.798-4.44-15.138 0z" fill="url(#g)" opacity=".505"/><path id="af" d="M224.97-10.972l16.3 16.6c1.5 1.5 1.5 4.6.6 5.5l-8.1-6.6-1.6 9.7-6.7-3.6-10.9 6.9-3.6-14.5-5.8 12.6-14.5-.1c-2.8 0-2.4-2.9.5-5.8 5.7-6.3 16.8-17 20.3-20.7 3.6-3.7 9.9-3.6 13.5 0z" fill="url(#ae)"/><g fill-rule="evenodd"><path d="M202.6 67.447s1.77 2.702 1.589 3.972c-.354 2.494-5.725 3.739-4.535 5.959 1.176 2.193 5.413.95 8.97 3.244 3.543 2.284 2.59 6.94 5.165 8.11 5.02 2.284 18.207-3.94 17.545-3.807s-13.014 2.7-15.794.448c-3.17-2.566-4.08-4.359-6.418-5.877-2.192-1.422-5.27-2.002-5.986-3.166-.717-1.164 1.434-2.667 1.583-4.91.09-1.348-2.118-3.973-2.118-3.973z" fill="url(#h)" opacity=".217"/><path transform="translate(142.75 -40.337) scale(.52965)" d="M113 203.5s3.34 5.1 3 7.5c-.668 4.709-10.809 7.058-8.563 11.25 2.22 4.141 10.222 1.794 16.939 6.125 6.687 4.313 4.889 13.101 9.75 15.312 9.479 4.312 34.374-7.438 33.124-7.188-41.34.158-33.625-10.494-49.562-17.5-2.303-1.012-.968-3.763-.687-8 .169-2.544-4-7.5-4-7.5z" fill="url(#m)" filter="url(#y)" opacity=".276"/><path d="M239.81 55.927c19.652-7.232 25.965-8.226 32.441-14.698-7.5 6.331-23.357 9.727-36.281 15.36z" fill="url(#l)" opacity=".453"/><path transform="translate(142.75 -41.263) scale(.52965)" d="M183.25 181.75c61.104-21.655 50.774-21.531 61.25-27.75-19.428 7.437-55.734 8.23-68.5 29z" fill="url(#k)" filter="url(#x)" opacity=".512"/></g><path d="M268.08 64.17a4.204 1.291 0 11-8.408 0 4.204 1.291 0 118.408 0z" fill="url(#r)" opacity=".286"/><path transform="matrix(.71315 0 0 1.1408 99.896 -161.43)" d="M237.88 199.06a7.938 2.438 0 11-15.875 0 7.938 2.438 0 1115.875 0z" fill="url(#b)" filter="url(#c)" opacity=".621"/><path transform="translate(142.75 -40.711) scale(.52965)" d="M214.12 203.75c3.77 3.484 24.756 5.272 28.188-1-6.737 4.784-21.717 3.103-28.188 1z" fill="url(#e)" fill-rule="evenodd" filter="url(#f)"/><path d="M256.2 73.364a1.635 1.49 63.114 11-2.659 1.348 1.635 1.49 63.114 112.659-1.348z" fill="url(#q)" opacity=".286"/><path transform="matrix(.27502 -.13944 .51588 1.0175 89.121 -95.773)" d="M236.99 199.06a7.056 2.14 0 11-14.111 0 7.056 2.14 0 1114.111 0z" fill="url(#b)" filter="url(#c)" opacity=".621"/><path transform="matrix(.20425 -.10356 .23952 .4724 160.73 4.177)" d="M217.06 201.94c3.77 3.484 26.971 8.911 25.255.81-3.317 5.323-18.784 1.293-25.255-.81z" fill="url(#e)" fill-rule="evenodd" filter="url(#f)"/><path d="M178.9 58.178c0-.329 20.575 6.27 24.099 9.799-2.898-2.828-17.563-9.33-19.796-9.402-2.233-.07-4.039-.265-4.303-.397z" fill="url(#j)" fill-rule="evenodd"/><path transform="matrix(.46557 -.10222 .12385 .3686 58.952 23.255)" d="M237.88 199.06a7.938 2.438 0 11-15.875 0 7.938 2.438 0 1115.875 0z" fill="url(#p)" opacity=".286"/><path transform="matrix(.62687 -.13764 .26675 .79392 -6.234 -52.226)" d="M237.88 199.06a7.938 2.438 0 11-15.875 0 7.938 2.438 0 1115.875 0z" fill="url(#b)" filter="url(#c)" opacity=".621"/><g fill-rule="evenodd"><path transform="translate(142.85 -40.899) scale(.52965)" d="M80.5 220.06s2.103 5.65 7.875 5.938c5.839.29 12.503-7.007 13.062-9.625-1 2.25-6.59 9.033-13.812 8.937-4.1-.054-7.125-5.25-7.125-5.25z" fill="url(#i)" filter="url(#w)" opacity=".616"/><path transform="translate(148.66 -34.177) scale(.48831)" d="M95.5 172c-5.09 1.502-21.592 7.737-19.25 12.5 2.244 4.563 40.611 6.401 46.5 20 2.568 5.93-5.892 10.403-3.75 16.5 1.65 4.695 14.412 16.491 22.486 22.068 6.333 4.374 14.651-3.522 11.264-10.068-5.396-10.428 18.443-23.199 29.25-29 6.305-3.384-13-20-13-20z" fill="url(#s)" filter="url(#aa)" opacity=".325"/><path d="M196.22 52.061c2.232 1.64 6.637.65 9.282 1.842 6.35 2.859 14.155 6.045 12.72.404l-1.617 1.342-.031-2.557-3.752.916s-2.906-2.333-4.239-3.102c-.278-.16-1.707 1.293-1.707 1.293l-.257-1.544a47.624 47.624 0 00-5.316-.272c-3.88.031-6.499.638-5.083 1.678z" fill="url(#u)"/><path transform="translate(148.66 -34.177) scale(.48831)" d="M182.75 187.25c-1.76 6.478 21.628 15.28 19.875 19.75-3.859 9.842-24.976 3.138-41.125 23.75-2.313 2.953 3.25 13.5 2.5 12.25s-6.465-9.963-5-14.25c4.594-13.445 49.013-18.457 40.875-24.875-4.68-3.69-21.505-13.887-17.125-16.625z" fill="url(#n)" filter="url(#ab)" opacity=".478"/></g><path d="M263.6 63.759a1.252.52 0 11-2.503 0 1.252.52 0 112.503 0zm-8.36 9.583a.793.52 0 11-1.587 0 .793.52 0 111.587 0zm-63.3-.457a1.404.519 0 11-2.808 0 1.404.519 0 112.808 0z" fill="#fff" opacity=".586"/><path d="M191.15 50.056c-7.153 4.424-18.274 6.034-6.104 8.973-1.45-3.229 3.139-2.872 6.104-8.973z" fill="url(#t)" opacity=".251"/><path transform="translate(212.22 6.525) scale(.48831)" d="M8.834 171.65s22.592-2.128 27.818-8.646c3.058-3.814-12.15-8.264-8.868-12 12.35-14.054 22.731-13.467 37.05-19.354s9.035-8.77 4.404-11.354c-7.933-4.427-25.587-9.143-19.747-19.646 5.877-10.57 57.343-25.25 57.343-25.25 15.596-5.329 13.639-14.964 6-23l-46-45.75s2.283 43.389-7 62c-11.472 22.999-72.544 48.662-47 51.5 9 1 13.32 4.07 17 11 7.576 14.269-21 40.5-21 40.5z" color="#000" fill="url(#v)" filter="url(#ac)" opacity=".363"/></g></svg>
