<svg xmlns="http://www.w3.org/2000/svg" fill="currentColor" viewBox="0 0 40 40"><defs><linearGradient id="a" x1="8.561" x2="36.23" y1="2.671" y2="35.456" gradientUnits="userSpaceOnUse"><stop offset="0" stop-color="#FAAD1A"/><stop offset="1" stop-color="#f44"/></linearGradient></defs><path fill="url(#a)" fill-rule="evenodd" d="M39.985 19.297q.015.384.015.77C40 31.075 31.076 40 20.068 40q-.387 0-.77-.014zm-1.684-7.17a19.7 19.7 0 0 1 1.273 4.086L16.212 39.575a19.7 19.7 0 0 1-4.084-1.273zM20.067 0c7.296 0 13.682 3.894 17.195 9.716L34.476 12.5c-2.724-5.176-8.154-8.705-14.41-8.705-8.985 0-16.27 7.285-16.27 16.27 0 6.256 3.529 11.686 8.705 14.41l-2.786 2.786c-5.823-3.513-9.716-9.9-9.716-17.195C0 8.984 8.984 0 20.067 0zm.706 7.234v4.18c1.565-.042 3.288.495 4.415 1.628 2.348 2.36 2.116 6.419-.518 9.066L13.702 32.765l-2.638-2.656 10.922-10.612c.975-.98 1.06-2.484.189-3.359-.87-.875-2.366-.79-3.341.19L15.3 19.92a1.55 1.55 0 0 1-2.187.022 1.56 1.56 0 0 1-.036-2.194l1.2-1.251a2 2 0 0 0 .555-1.479l-.002-.045a2 2 0 0 1 .606-1.532 198 198 0 0 1 2.113-2.027c.74-.687 1.537-1.352 1.79-4.18zm-3.919 6.17-.695 1.205a.74.74 0 0 0-.057.612l.042.098.71-.718a.85.85 0 0 0 0-1.197"/></svg>