<svg xmlns="http://www.w3.org/2000/svg" fill="none" viewBox="0 0 236.01 199.18"><g clip-path="url(#a)" transform="translate(-46.474 -25.514)"><path fill="#0d53de" d="M225.25 142.2a5 5 0 0 1 2.131-2.344l9.66-5.414 14.837 9.271c2.544 1.59 2.454 5.325-.163 6.791l-40.019 22.424zM206.98 186.12a5 5 0 0 0-2.131 2.344l-13.068 29.629 88.681-49.625c2.619-1.465 2.709-5.202.164-6.792l-14.194-8.869z"/><g fill="#4788ff"><path d="m217.94 79.716 14.574 9.107a7.894 7.894 0 0 1 3.04 9.88l-49.863 113.05-8.547-33.545a10 10 0 0 1 .529-6.478zM206.78 80.694a7.894 7.894 0 0 0-3.048-9.86l-15.173-9.48-24.397 55.749a11.84 11.84 0 0 0-.627 7.67l8.814 34.597zM155.09 113.31l22.308-50.976a7.89 7.89 0 0 0-3.048-9.86l-15.173-9.48-25.042 57.223zM125.7 94.946l22.309-50.976a7.895 7.895 0 0 0-3.049-9.86l-13.756-8.596-25.198 57.126z"/></g><g fill="#7ea7ff"><path d="M67.844 71.377a11.84 11.84 0 0 0-5.2-7.118l-16.17-10.104 24.913 97.78a15 15 0 0 0 6.587 9.018l15.096 9.433zM74.501 71.667l24.913 97.78a15 15 0 0 0 6.587 9.018l16.455 10.282L97.23 89.739a11.84 11.84 0 0 0-5.2-7.118zM103.89 90.03l24.913 97.78a15 15 0 0 0 6.586 9.017l16.456 10.282-25.226-99.007a11.84 11.84 0 0 0-5.2-7.119zM133.27 108.39l24.913 97.78a15 15 0 0 0 6.587 9.017l15.215 9.508-25.225-99.008a11.84 11.84 0 0 0-5.2-7.118z"/></g></g><defs><clipPath id="a"><path fill="#fff" d="M45 25h240v200H45z"/></clipPath></defs></svg>