<svg version="1.1" viewBox="0 0 300.22 300.22" xmlns="http://www.w3.org/2000/svg" fill="#7c7cff">
    <path class="fill-irohPurple-500 stroke-none"
        d="m239.01 300.21h-177.81c-33.75 0-61.2-27.45-61.2-61.2v-177.81c0-33.75 27.45-61.2 61.2-61.2h177.81c33.75 0 61.2 27.45 61.2 61.2v177.81c0 33.75-27.45 61.2-61.2 61.2zm-177.81-281.15c-23.24 0-42.14 18.9-42.14 42.14v177.81c0 23.24 18.9 42.14 42.14 42.14h177.81c23.24 0 42.14-18.9 42.14-42.14v-177.81c0-23.24-18.9-42.14-42.14-42.14z" />
    <path class="fill-irohPurple-500 stroke-none"
        d="m123.81 300.21h-59.84c-35.27 0-63.97-28.7-63.97-63.97v-172.27c0-35.28 28.7-63.97 63.97-63.97h172.28c35.27 0 63.97 28.7 63.97 63.97v53.84c0 18.52-7.21 35.93-20.31 49.02l-117.32 117.32c-10.36 10.36-24.13 16.06-38.78 16.06zm-59.84-281.15c-24.76 0-44.91 20.14-44.91 44.91v172.28c0 24.76 20.14 44.91 44.91 44.91h59.84c9.56 0 18.54-3.72 25.3-10.48l117.32-117.32c9.49-9.5 14.72-22.12 14.72-35.55v-53.84c0-24.76-20.15-44.91-44.91-44.91z" />
    <path class="fill-irohPurple-500 stroke-none"
        d="m63.97 300.21c-35.27 0-63.97-28.7-63.97-63.97v-172.27c0-35.28 28.7-63.97 63.97-63.97h172.28c35.27 0 63.97 28.7 63.97 63.97 0 9.53-3.71 18.49-10.45 25.23l-198.02 200.53c-7.26 7.26-19.18 10.49-27.78 10.49zm0-281.15c-24.76 0-44.91 20.14-44.91 44.91v172.28c0 24.76 20.14 44.91 44.91 44.91 5.09 0 11.62-2.23 14.26-4.87l198.02-200.52c3.18-3.18 4.91-7.35 4.91-11.79 0-24.76-20.15-44.91-44.91-44.91h-172.28z" />
</svg>