<svg xmlns="http://www.w3.org/2000/svg" fill-rule="evenodd" stroke-linejoin="round" stroke-miterlimit="2" clip-rule="evenodd" viewBox="0 0 509.5 493.05"><path fill="url(#a)" fill-rule="nonzero" d="M.251-.225a.501.501 0 0 1 .731.568.359.359 0 0 0-.517-.197.214.214 0 1 1-.214-.371" transform="scale(-509.2398 509.2398)rotate(60.006 -.239 -.52)"/><path fill="url(#c)" fill-rule="nonzero" d="M.049-.277a.354.354 0 0 0 .487.13.215.215 0 0 1 .314.241.2.2 0 0 1-.099.13v.001a.501.501 0 0 1-.732-.567.4.4 0 0 0 .03.065" transform="scale(-509.2398 509.2398)rotate(60.006 -.6 -.73)"/><defs><linearGradient id="a" x2="1" gradientTransform="matrix(1 0 0 -1 0 .025)" gradientUnits="userSpaceOnUse"><stop offset="0" stop-color="#0ef"/><stop offset="1" stop-color="#7d58ff"/></linearGradient><linearGradient id="c" x2="1" gradientTransform="matrix(1 0 0 -1 0 -.025)" gradientUnits="userSpaceOnUse"><stop offset="0" stop-color="#0ef"/><stop offset="1" stop-color="#7d58ff"/></linearGradient></defs></svg>