<svg xmlns="http://www.w3.org/2000/svg" version="1.1" viewBox="0 0 61.817 85.244"><path d="m42.87 59.2c-2.19 0.55-6.85 1.51-13.7 1.51-6.71 0-12.19-1.1-12.19-2.47 0-0.96 1.1-1.37 1.1-1.37h-0.14c-3.29 0.55-6.17 1.51-6.17 2.74 0 2.33 9.18 4.11 17.4 4.11 7.12 0 13.84-1.1 16.85-2.74zm-22.6 7.26c-1.51 0.27-4.66 1.1-4.66 2.6 0 2.19 6.85 3.84 13.56 3.84 9.18 0 13.02-2.33 13.15-2.47l-3.84-2.19c-1.64 0.41-4.38 0.96-9.32 0.96-5.48 0-9.04-0.96-9.04-2.06 0-0.27 0.14-0.41 0.41-0.69zm37.54-14.66c-0.27 4.93-4.8 7.95-9.32 10.55l0.41 0.27c4.8-1.37 13.56-5.34 12.88-11.51-0.41-3.01-3.15-5.21-6.71-5.21-1.1 0-2.19 0.27-3.01 0.41l-0.14 0.41c3.01-0.54 6.03 1.93 5.89 5.08zm-28.77 28.91c12.74-0.14 27.13-2.6 26.99-6.85 0-0.82-0.41-1.37-0.96-1.64l-0.14 0.27c-1.1 3.29-11.1 5.62-26.03 5.75-9.59 0.14-22.74-2.19-22.74-4.8 0-2.6 6.17-4.11 6.17-4.11l-0.41-0.27c-4.25 0.55-11.92 2.6-11.92 5.48 0.12 4.25 17.94 6.31 29.04 6.17zm-1.37 3.15c-5.07 0.14-11.24-0.41-16.58-1.23l-0.41 0.27c5.21 1.51 12.47 2.47 20.42 2.33 15.62-0.14 28.23-3.97 28.5-8.63l-0.14-0.14c-1.1 1.23-7.82 7.13-31.79 7.4zm-19.6-33.16c0-2.33 8.91-3.7 13.02-3.97l0.41 0.27c-1.64 0.27-7.95 1.51-7.95 2.88 0 1.64 9.87 2.74 15.48 2.74 9.73 0 16.3-1.51 18.09-1.92l2.47 1.51c-1.65 0.82-9.05 3.01-20.55 3.01-12.75-0.27-20.97-2.74-20.97-4.52z" fill="#007396"/><path d="m46.85 17.68h-0.14c-3.97 1.37-15.89 6.03-15.89 14.94 0 4.93 4.93 7.81 4.93 12.47 0 1.64-0.96 3.29-1.64 4.11l0.41 0.27c2.06-1.37 5.62-4.25 5.62-7.95 0-3.15-4.25-6.85-4.25-10.96-0.28-6.3 8.08-11.23 10.96-12.88zm-5.89-11.51c0 13.02-17.95 18.09-17.95 27.4 0 6.58 4.25 10.55 6.71 13.15l-0.14 0.14c-3.01-1.92-10.96-6.71-10.96-14.52 0-11.1 20.55-16.3 20.55-28.77 0-1.51-0.27-2.74-0.41-3.43l0.27-0.14c0.69 0.97 1.93 3.02 1.93 6.17z" fill="#ed8b00"/></svg>