<svg xmlns="http://www.w3.org/2000/svg" viewBox="0 0 5539 3298.5"><path fill="#fff" d="M-1.227 2901h4718.4L3478.773 0h-19.775z"/><path fill="#a81c7d" fill-rule="evenodd" d="M-1.227 2901h4718.4L3478.773 0h-19.775zm2162.7-1719.7c-16.228 0-29.367 2.305-29.367 2.305s-71.112 40.213-160.76 92.763c-89.687 52.55-250.49 163.88-275.25 200.98-24.675 37.1-126.71 145.31-126.71 145.31l-7.137 9.088c-79.137-10.662-163.29-13.588-212.44 3.325-98.95 33.987-312.26 160.73-346.29 238.08-27.979 63.562-58.007 118.81-60.863 188.02-38.819 82.838-59.913 225 33.031 424.23 0 0 55.664 33.911 142.24 24.687 19.043-1.987 46.655-2.865 77.237-6.013-75.773 98.74-168.6 221.13-204.02 256.42-52.549 52.589-389.58 349.44-445.24 364.89-55.664 15.526-74.195 9.303-27.832 33.99 46.362 24.747 128.83 6.223 158.72-37.14 29.883-43.213 70.094-114.32 104.15-148.31 33.983-34.062 213.28-145.39 228.73-166.99 15.274-21.314 273.49-279.72 301.76-331.65 18.712-9.076 35.625-20.879 49.287-36.328 15.013-1.172 29.076-4.095 41.676-9.297 83.5-33.988 216.44-139.09 281.32-231.82 37.425-53.46 70.75-111.04 88.7-158.56 34.637-27.25 62.25-46.661 72.138-48.636 30.912-6.225 80.387-21.677 80.387 30.836 0 52.587 52.55 166.99 98.912 235.03 46.437 68.046 108.25 123.71 108.25 123.71s-3.112 27.821 27.838 30.912c30.9 3.071 58.701-6.163 64.888 9.297 14.938 37.275 80.425 9.229 111.29-18.535 30.951-27.9 43.362 18.535 86.612-9.303 43.362-27.764 61.851-64.959 61.851-114.47 0-21.103-10.213-39.264-25.888-51.642 2.712-2.485 4.25-3.949 4.25-3.949s36.874 2.642 73.6-9.233c-2.738 16.333-2.738 37.061.587 64.824 9.25 77.334 61.913 126.85 92.75 126.85 30.975 0 52.588 33.984 52.588 33.984s-3.075 58.74 40.275 71.127c43.225 12.374 160.7-43.291 188.54-67.978 27.825-24.745 83.488 37.067 108.18 89.654 24.75 52.51 154.61 272.1 201.05 324.69 46.363 52.51 108.18 139.09 166.91 213.27 58.813 74.205 25.127 81.738 43.727 81.738 18.537 0 6.161 12.377 21.611 27.836 15.45 15.528 98.95 64.889 120.62 80.338 21.613 15.464 111.34 46.441 123.64 37.139 12.375-9.224 18.523-40.137 18.523-40.137s-15.449 6.152-77.26-15.521c-61.9-21.617-142.24-74.127-151.54-89.655-9.313-15.448-37.063-27.822-37.063-27.822s-82.837-97.202-132.35-193c0 0-41.238-98.951-84.525-194.83-43.213-95.874-185.45-377.2-247.34-392.65-61.887-15.523-139.16 3.003-182.45 40.142-43.213 37.134-61.814 24.744-83.414 9.295-21.688-15.449 3.137-52.586-9.313-105.1-4.387-18.676-13.398-47.827-26.586-75.289 14.438-1.913 26.813-10.337 32.813-26.738 12.387-34.063 9.236-49.513 52.523-43.363 6.438.949 15.963 1.763 27.901 1.9-6.225 11.063-10.038 20.438-10.25 26.375-1.175 34.565 26.363 97.491 67.3 112.72 40.95 15.235 214.39 90.825 250.79 54.496 36.4-36.396 197.98-124.66 226.69-140.62 28.775-15.825 81.662-26.585 99.824-22.562 18.163 3.892 55.376 138.58 118.95 253.64 63.638 114.99 53.1 163.33 94.625 147.08 41.526-16.26 40.725 31.049 78.95 29.799 38.237-1.235 45.125 25.641 67.463 68.414 22.337 42.852 45.7 95.439 100.71 104.23 55.076 8.784 273.7 65.697 298.67 52.221 25.2-13.55 26.364-48.125-37.136-61.885-63.425-13.774-211.96-14.439-244.99-37.442-33.037-22.925-41.312-145.01-76.25-158.92-34.862-13.925-87.962-31.787-94.412-45.849-5.487-12.018-129.92-232.55-177.9-350.25 63.212 26.952 160.62 65.112 220.09 84.228 86.575 27.838 235.04 74.2 296.85 74.2 39.188 0 54.713-13.702 60.875-23.741 4.175 10.777 7.764 19.277 10.326 23.741 12.3 21.596 30.838 37.138 30.838 37.138s-6.162 12.3 12.375 21.596c18.525 9.301 145.39 27.839 191.75 71.129 46.363 43.272 111.32 126.77 117.48 204.05 6.225 77.26 55.587 160.76 80.35 163.91 24.75 3.076 52.586 0 27.824-105.1-24.675-105.18-61.812-188.6-120.55-235.04-58.738-46.435-210.28-120.55-228.81-129.92-18.6-9.238-43.212-33.99-52.587-33.99-9.3 0-6.15-9.223-21.6-61.81-2.712-9.312-5.425-19.639-8.213-30.625 4.038-10.328 18.312-49.512 23.662-102.39 6.15-61.75-21.674-197.78-46.36-231.86 0 0-2.489-21.749-3-39.549 7.686 3.837 15.447 4.424 21.522-.588 18.538-15.5 67.975-80.462 145.31-114.41 77.35-34.088 151.48-64.963 238.04-71.188 86.575-6.15 98.95-12.301 98.95-12.301s40.212-6.187 86.65 18.526c46.362 24.725 321.54 163.88 361.74 179.38 40.211 15.462 102.04 43.288 145.39 77.275 43.212 34.025 77.2 30.887 77.2 30.887s30.911 34.05 77.348 64.963c46.363 30.9 61.814 46.363 89.64 52.588 27.836 6.15 83.5 35.012 12.462-67.088 0 0-71.2-72.076-133.01-99.889-61.887-27.875-58.812-55.711-95.875-58.736-37.137-3.125-105.1-15.501-160.76-40.213-55.662-24.8-213.29-89.65-281.33-126.75-68.05-37.125-111.4-64.962-129.94-80.449-18.525-15.463-49.512-13.414-108.17-4.102 0 0-166.99 38.152-225.74 65.914-58.738 27.9-191.74 102.1-213.42 120.59 0 0-24.463.001-33.613 11.701-1.175-.787-2.275-1.662-3.45-2.349-15.45-9.35-114.4-105.15-114.4-105.15-49.512-43.275-133.01-132.92-185.52-176.29-52.588-43.25-264.4-110.41-352.44-101.95-82.475 7.8-121.29 61.737-142.6 114.29-17.287-30.612-36.625-61.524-55.3-83.349-52.513-61.888-68.037-80.45-68.037-80.45s-55.676 0-111.34 37.1c-33.688 22.475-81 73.35-113.09 109.96-26.8.512-48.337 6.962-60.049 16.812-40.138 33.988-268.95 194.83-278.18 234.96-5.862 25.075-15.238 41.675-27.463 50.688-18.312-18.388-55.16-34.638-96.26-16.625-2.564 1.1-5.464 2.274-8.35 3.537-5.714-111.31-21.238-403.41-28.788-433.33-9.3-37.1-27.825-64.937-58.813-49.475-30.912 15.413-58.664 58.776-58.664 105.14 0 46.325 18.563 71.036 24.713 89.648 5.163 15.525 10.363 244.85 21.063 334.38-40.8 22.488-78.188 50.439-89.063 83.039-21.65 64.938-18.599 89.625-37.137 108.22-2.412 2.412-6.075 5.049-10.25 7.762-13.262-12.675-28.75-25.263-40.875-37.651-6.512-28.125-8.275-59.973 17.1-75.211 30.95-18.587 30.95-139.19 0-151.56l-30.937-12.338s55.7-207.2 43.363-324.61c-12.425-117.62-24.764-241.26-49.514-259.82-12.362-9.25-31.68-11.565-47.908-11.568zm-23.627 47.295c15.944-.084 26.326 12.812 22.098 44.66-6.163 46.438-37.1 235.04-40.213 306.15-3.075 71.088 3.113 216.39 3.113 216.39s-38.638 26.852-34.238 57.039c-11.363-2.275-20.287-3.426-24.537-4.476-12.388-3.05 24.75-126.71-21.688-157.66-46.362-30.938-132.92 3.151-163.84 18.576-25.012 12.525-72.36 20.974-89.424 23.799-6.3-22.163-18.826-45.487-43.513-57.862-22.7-11.275-76.386-25.776-138.61-36.551l98.401-105.65s74.2-6.15 126.79-43.25c52.55-37.062 253.56-238.11 281.32-253.56 8.696-4.84 17.093-7.56 24.34-7.598zm1048.3 205.76c11.631.046 20.74 8.525 25.1 24.486 5.637 20.363 22.336 95.624 34.786 152.39-29.512 5.75-51.125 10.55-64.525 17.25-25.487-34.65-54.937-59.624-84.887-76.836 11.2-24.788 23.438-55.475 43.5-83.563 16.423-22.996 32.844-33.777 46.026-33.724zm29.336 404.04c9.6 2.588 19.637 4.4 29.375 4.938 2.487 58.125 29.45 104.02 49.875 141.09 14.137 25.85 48.201 55.889 84.89 83.351-21.75 3.225-41.815 7.912-57.49 12.225 0 0-251.51 50.837-298.02 75.513-46.513 24.762-85.25 57.423-114.85 47.901-29.512-9.663 49.225-36.914 117.41-88.477 26.738-20.287 46.951-51.338 50.614-78.513 4.612-5.788 9.15-11.65 13.324-17.95 45.637-68.475 98.15-122.29 124.88-180.07zm488.03 57.422c1.966.01 3.893.128 5.768.365 30.912 3.888 30.913 11.5 61.9 57.912 30.9 46.363 38.587 108.18 15.45 131.4-23.226 23.212-50.312 30.9-116.01-57.938-62.55-84.792-7.069-131.88 32.893-131.74zm-1926.2 3.227c15.312 9.45 46.325 28.589 74.275 43.039-21.825 10.762-42.637 27.536-65.562 44.673 1.1-11.862.15-22.037-3.364-30.099-5.712-13.4-6.662-34.613-5.349-57.613m283.81 152.24c24.463 4.913 47.1 5.2 64.75 22.787 20.725 20.725 38.088 72.438 55.813 97.411-12.888 40.865-16.662 59.912 21.525 72.724 46.363 15.454 86.575-6.219 86.575-6.219s5.6 6.732 14.875 14.721c-38.525 22.413-74.787 47.603-85.987 62.627-18.6 24.674-40.213 12.299-40.213 12.299s-74.199-123.64-105.14-238.11c-3.813-14.063-7.914-26.739-12.202-38.239z"/></svg>