<svg xmlns="http://www.w3.org/2000/svg" viewBox="0 0 451 260.81"><g fill="#5e97f6" stroke="#dce0df" stroke-linejoin="round"><path d="m75.5 173.71 25-43.31h-50l-25 43.31z"/><path d="m75.5 173.71-25 43.3H.5l25-43.3z"/><path d="M50.5 217.01h50l25-43.3h-50z"/><path d="M100.5 217.01h50l25-43.3h-50z"/><path d="m175.5 173.71 25-43.31h-50l-25 43.31zm25-43.31 25-43.3h-50l-25 43.3zm25-43.3 25-43.3h-50l-25 43.3zm25-43.3 25-43.3h-50l-25 43.3z"/></g><g fill="#2a56c6" stroke="#dce0df" stroke-linejoin="round"><path d="m75.5 260.31-25-43.3H.5l25 43.3z"/><path d="M50.5 217.01h50l25 43.3h-50z"/><path d="M100.5 217.01h50l25 43.3h-50z"/></g><g stroke="#dce0df" stroke-linejoin="round"><path fill="#00796b" d="m150.5 217.01 25 43.3 25-43.3-25-43.3zm100-86.61-25-43.3-25 43.3z"/><path fill="#00796b" d="m250.5 130.4 25-43.3-25-43.3-25 43.3z"/><path fill="#3367d6" d="m125.5 173.71-25-43.31-25 43.31z"/><path fill="#26a69a" d="M175.5 173.71h50l25-43.31h-50z"/><path fill="#26a69a" d="M225.5 173.71h50l25-43.31h-50z"/></g><g fill="#9c27b0" stroke="#dce0df" stroke-linejoin="round"><path d="m300.5 43.8 25 43.3 25-43.3-25-43.3z"/><path d="m325.5 87.1 25 43.3 25-43.3-25-43.3zm25 43.3 25 43.31 25-43.31-25-43.3zM375.5 173.71l25 43.3 25-43.3-25-43.31zm25 43.3 25 43.3 25-43.3-25-43.3zm25-129.91 25-43.3-25-43.3-25 43.3z"/><path d="m425.5 87.1-25 43.3-25-43.3 25-43.3zm-75 129.91 25-43.3-25-43.31-25 43.31zm-25-43.3 25 43.3-25 43.3-25-43.3z"/></g><g stroke="#dce0df" stroke-linejoin="round"><path fill="#6a1b9a" d="m300.5 217.01 25 43.3h-50l-25-43.3z"/><path fill="#00695c" d="M200.5 217.01h50l-25-43.3h-50z"/><path fill="#00695c" d="M275.5 173.71h-50l25 43.3zm75-43.31-25-43.3h-50l25 43.3zm-75-43.3h50l-25-43.3h-50zm75 129.91 25 43.3h50l-25-43.3zm25-43.3-25 43.3h50z"/><path fill="#ea80fc" d="M250.5 43.8h50l25-43.3h-50zm0 173.21h50l25-43.3h-50z"/><path fill="#ea80fc" d="M275.5 173.71h50l25-43.31h-50zm75-129.91h50l25-43.3h-50zm25 43.3-25-43.3h50z"/></g></svg>