<svg xmlns="http://www.w3.org/2000/svg" viewBox="0 0 335.83 240.08"><path fill="#ed1c24" d="M168.28 25.062q22.92-3.94 30.33 4.5c-.56 4.42-16.16 111.24-17.38 116.37-2.33 10.44-3.06 20.18-12.69 26-13.28 7-33.27 11.59-44.51 13.53-3.43.59-6 .93-7.4 1l-24.56 5c-.94.23-3 .68-5.77 1.16-9 1.54-25.58 3.37-38.08-1.17-13.13-4.21-7.34-25.2-6.91-28.9l3.55-20c.45-4.5 14.41-13.59 31.14-17.23.73-.15 1.44-.29 2.14-.41 19-3.28 24.58 7.61 23.25 15.33-.4 2.63-.77 5.24-1.12 7.79q12.73-3.31 24.52-6.21l4.14-22c-.84.14 7.74-44.94 8.09-45q6-33.11 7.06-37.44 1.62-8.4 24.2-12.29"/><path fill="#21409a" d="M87.19 197.733c-9.32 1.61-27 3.56-40.67-1.37-4.88-1.6-10.87-5.82-11.93-16.87-.58-6.16.58-12.48 1.22-15.89q-33.81 8.79-34.36 9.22a4.83 4.83 0 0 0-.83 2.49l-.19 2v.18q1.23 7.17 13.88 17.79 10.15 8.7 12.25 8.34a.57.57 0 0 0 .47-.44v-.18a42 42 0 0 0 6.71-.8q-5.12 25.75-7.64 33c-.05.38-.11.75-.17 1.12l-.08.55q1 6 31 .79 25.55-4.41 26.7-12.36 2.65-7.57 7.21-28.29c-1.01.26-2.19.48-3.57.72M26.52 139.493c.24 0 .32-.24.26-.59q3.55-.3 15.36-2.3a34.8 34.8 0 0 1 9.54-7.54 81.3 81.3 0 0 1 23.21-8.88c.79-.18 1.59-.33 2.36-.46 13.29-2.3 20.54 1.68 24.28 5.42a17.3 17.3 0 0 1 1.8 2.13c.16-.92.3-1.82.46-2.74l19.66-3.95.19-1c0-1.85.67-6.65 3.89-24 1-5.37 2.05-10.86 2.88-15.06.4-2 .73-3.61 1-4.79q-10 2.34-20.72 5 4.56-30 5.53-37.9-7.55-8.25-30.48-4.3-22.57 3.9-24.19 12.29-1.35 4.74-8.28 44Q1.94 107.693 1 108.563a4.9 4.9 0 0 0-.83 2.49l-.17 1.11v1.25q1.23 7.18 13.85 17.62 10.57 8.79 12.67 8.46M211.45 126.423q-1-1.95-22 1.4c-1.58 10.35-2.75 17.73-3.1 19.27-.3 1.31-.57 2.65-.83 3.94-1.61 7.84-3.27 15.91-9.76 22q42.44-10.37 49.56-14.83 4.89-3 5.3-6.86v-1.08l-.16-.87q-.81-4.73-9.21-12.65-8.6-8.09-9.8-10.32M171.24 176.393l-.13.08-.13.07c-12.77 6.71-32.17 11.66-46.06 14.06-3.15.54-5.87.92-7.58 1.05l-2 .4q-4.58 22.58-6.58 29.49a2.7 2.7 0 0 0-.52 1.17l-.12.38q1.06 6.14 31.17.93 25.54-4.41 26.88-12.39 3.19-9.5 9-38.11a26.3 26.3 0 0 1-3.93 2.87M221 72.513q-8.61-8.16-9.68-10.14-.87-1.64-12.13-.25c-1.89 13-4.12 28.11-6.18 42q26.26-6.83 31.87-10.23c3.37-2 5.14-4.31 5.3-6.87l.25-1.66q-.83-4.69-9.43-12.85M249.17 165.823q15.56 3.63 17.76 16.45l.08.42.05 1.14a15 15 0 0 1-.1 2.74 30.2 30.2 0 0 1-1.84 7.64l-3.12 6.28a90.7 90.7 0 0 1-10.87 13.5q-8.1 7.14-15.46 8.55a19.4 19.4 0 0 1-9.56-.51q-10.41-4.65-12.29-15.53l-.05-.27a24 24 0 0 1-.31-2.68 21.5 21.5 0 0 1-.05-3.58 24.5 24.5 0 0 1 4.54-12l8.74-11.7.92-1.3q6.93-7.23 13.88-8.57a41.7 41.7 0 0 1 7.68-.58m2.83-87.57q1.49-5.57 13.86-64.38 3.06-7.28 22.42-10.61c2.73-.47 27.87-5 38.85-2.53 6.94 1.56 23.38 9.47-21.8 82.54-20.86 33.74-18.45 48.44-34.26 58.12-5 3.05-13.49 4.94-23.09 3.41-11.86-1.89-7.87-8.78-5.33-21.75q7.52-37.17 9.35-44.8"/></svg>