<svg xmlns="http://www.w3.org/2000/svg" fill="none" viewBox="0 0 169 179.26"><mask id="a" width="169" height="180" x="36" y="30" maskUnits="userSpaceOnUse" style="mask-type:alpha"><path fill="#1d1d1b" d="M196.38 66.699a15.66 15.66 0 0 1 8.619 13.989v78.639a15.66 15.66 0 0 1-8.621 13.99l-68.839 34.64a15.66 15.66 0 0 1-14.08 0l-68.839-34.64a15.66 15.66 0 0 1-8.621-13.99v-78.64a15.66 15.66 0 0 1 8.62-13.987l68.838-34.654a15.66 15.66 0 0 1 14.084 0L196.38 66.7z"/></mask><g mask="url(#a)" transform="translate(-36 -30.373)"><path fill="#1967d2" d="m204.79 70.47-84.076 42.746-.25 98.025 76.557-38.354a14.07 14.07 0 0 0 7.769-12.58z"/><g filter="url(#b)"><path fill="#4285f4" d="m199.6 72.856-80.946 40.733v94.198l73.2-36.835a14.07 14.07 0 0 0 7.746-12.569z"/></g><path fill="#34a853" d="M114.16 31.447a14.07 14.07 0 0 1 12.601 0l78.025 39.076-84.326 42.63-84.325-42.63z"/><g filter="url(#c)" opacity=".5"><path fill="#5dd17c" d="M114.22 35.693a14.07 14.07 0 0 1 12.56 0l67.373 33.601-73.653 37.079-73.654-37.079z"/></g><path fill="#000" d="m36 70.47 84.5 42.652v98.335l-76.755-38.624A14.07 14.07 0 0 1 36 160.264V70.471z"/><path fill="#4285f4" d="m36.135 70.47 84.576 42.746v98.275l-76.823-38.6a14.07 14.07 0 0 1-7.753-12.573V70.471z" opacity=".2"/></g><path fill="#1d1d1b" d="M121.09 51.355a22.51 22.51 0 0 1 12.391 20.109v29.025a22.51 22.51 0 0 1-12.394 20.111l-26.466 13.318a22.51 22.51 0 0 1-20.24 0L47.914 120.6a22.51 22.51 0 0 1-12.394-20.111V71.464a22.51 22.51 0 0 1 12.39-20.109l26.468-13.323a22.51 22.51 0 0 1 20.246 0z" opacity=".2" style="mix-blend-mode:multiply"/><path fill="#202124" d="M84.501 136.31V82.742l-45.7-22.997a22.4 22.4 0 0 0-3.28 11.678v29.102c0 8.485 4.79 16.246 12.384 20.068l26.446 13.308a22.6 22.6 0 0 0 10.15 2.409"/><mask id="d" width="67" height="69" x="87" y="82" maskUnits="userSpaceOnUse"><path fill="#e6f4ea" d="M146.9 94.347a11.26 11.26 0 0 1 6.195 10.054v23.907c0 4.254-2.398 8.144-6.197 10.056l-21.339 10.738a11.26 11.26 0 0 1-10.12 0l-21.338-10.738a11.26 11.26 0 0 1-6.197-10.056v-23.907c0-4.252 2.397-8.142 6.195-10.054l21.339-10.742a11.26 11.26 0 0 1 10.123 0z"/></mask><g mask="url(#d)" transform="translate(-36 -30.373)"><path fill="#e6f4ea" d="M146.9 94.347a11.26 11.26 0 0 1 6.195 10.054v23.907c0 4.254-2.398 8.144-6.197 10.056l-21.339 10.738a11.26 11.26 0 0 1-10.12 0l-21.338-10.738a11.26 11.26 0 0 1-6.197-10.056v-23.907c0-4.252 2.397-8.142 6.195-10.054l21.339-10.742a11.26 11.26 0 0 1 10.123 0z"/><g filter="url(#e)" opacity=".4"><path fill="#000" d="m35.846 70.008 84.501 42.522v98.335l-76.755-38.624a14.07 14.07 0 0 1-7.746-12.569z"/></g><g filter="url(#f)" opacity=".15"><path fill="#000" d="m205 69.639-84.501 42.521v98.336l76.755-38.624A14.07 14.07 0 0 0 205 159.303z"/></g></g><defs><filter id="b" width="96.607" height="150.59" x="110.82" y="65.025" color-interpolation-filters="sRGB" filterUnits="userSpaceOnUse"><feFlood flood-opacity="0" result="BackgroundImageFix"/><feBlend in="SourceGraphic" in2="BackgroundImageFix" result="shape"/><feGaussianBlur result="effect1_foregroundBlur_18030_7832" stdDeviation="3.915"/></filter><filter id="c" width="155.14" height="79.991" x="42.931" y="30.298" color-interpolation-filters="sRGB" filterUnits="userSpaceOnUse"><feFlood flood-opacity="0" result="BackgroundImageFix"/><feBlend in="SourceGraphic" in2="BackgroundImageFix" result="shape"/><feGaussianBlur result="effect1_foregroundBlur_18030_7832" stdDeviation="1.958"/></filter><filter id="e" width="100.16" height="156.52" x="28.015" y="62.177" color-interpolation-filters="sRGB" filterUnits="userSpaceOnUse"><feFlood flood-opacity="0" result="BackgroundImageFix"/><feBlend in="SourceGraphic" in2="BackgroundImageFix" result="shape"/><feGaussianBlur result="effect1_foregroundBlur_18030_7832" stdDeviation="3.915"/></filter><filter id="f" width="100.16" height="156.52" x="112.67" y="61.808" color-interpolation-filters="sRGB" filterUnits="userSpaceOnUse"><feFlood flood-opacity="0" result="BackgroundImageFix"/><feBlend in="SourceGraphic" in2="BackgroundImageFix" result="shape"/><feGaussianBlur result="effect1_foregroundBlur_18030_7832" stdDeviation="3.915"/></filter></defs></svg>