<svg xmlns="http://www.w3.org/2000/svg" viewBox="0 0 206.53 231.08"><g data-name="Layer 1" style="isolation:isolate"><g fill="#143040"><path d="M62.21 139.65a6.3 6.3 0 0 1-.83-2.35 6.3 6.3 0 0 0 .83 2.35M62.14 93.05a10.3 10.3 0 0 0-.77 3 10.3 10.3 0 0 1 .77-3M63.233 140.95a6.8 6.8 0 0 0 1.35 1l34.06 19.23-34.06-19.23a6.8 6.8 0 0 1-1.35-1"/><path d="M103.883 185.52h-.28a14.45 14.45 0 0 1-7.26-1.87l-50.8-28.7a9.53 9.53 0 0 1-4.87-8.24V88.36a15.84 15.84 0 0 1 1.47-7L2.453 59.1a26.26 26.26 0 0 0-2.45 11.55v96.33a15.82 15.82 0 0 0 8 13.61l83.87 47.37a23.8 23.8 0 0 0 11.93 3.08v-.06c.14-5.98.11-30.21.08-45.46"/></g><g fill="#70d68c"><path d="M143.823 91.98c-.1-.16-.19-.31-.3-.47a12 12 0 0 0-.75-1 12 12 0 0 1 .75 1c.11.14.2.31.3.47M62.6 92.06a9 9 0 0 1 .7-1.06 9 9 0 0 0-.7 1.06M101.923 68.65h.69z"/></g><path fill="#66dd84" d="M42.18 81.35a12.8 12.8 0 0 1 5.08-5.58l47.83-28.22a14.45 14.45 0 0 1 14.46-.14l48.36 27.31a16.3 16.3 0 0 1 5.42 5l39.08-23.34a26.8 26.8 0 0 0-9-8.21L113.59 3.09a23.84 23.84 0 0 0-23.87.22l-79 46.58a21.1 21.1 0 0 0-8.38 9.21l39.83 22.25z"/><path fill="#70d68c" d="m99.943 69.03.3-.09zM62.34 92.65c-.09.19-.11.29-.17.43.03-.17.07-.32.17-.43"/><g fill="#5185eb"><path d="m202.433 56.38-39.09 23.34a13.5 13.5 0 0 1 2.43 7.46v55.53a14.47 14.47 0 0 1-7.11 12.6l-47.82 28.22a14.4 14.4 0 0 1-7 2c0 15.25.06 39.48 0 45.49v.06a23.74 23.74 0 0 0 11.94-3.3l79-46.59a23.89 23.89 0 0 0 11.74-20.79V68.73a22.36 22.36 0 0 0-4.09-12.35"/><path d="M144.713 136.75c0 .1-.06.2-.1.3.04-.1.07-.2.1-.3M144.203 92.65c-.12-.23-.25-.46-.38-.69.13.25.26.48.38.69M108.343 161.11l32.07-18.91.54-.35-.54.35zM144.283 137.88c-.12.25-.24.5-.37.73.13-.23.25-.48.37-.73M141.953 141.06a9 9 0 0 0 1.27-1.4 9 9 0 0 1-1.27 1.4M143.913 138.65a9.5 9.5 0 0 1-.69 1.05 9.5 9.5 0 0 0 .69-1.05"/></g><path fill="#daeefc" d="M62.14 93.05a10.3 10.3 0 0 0-.77 3 10 10 0 0 0 0 1.24v39.12a6 6 0 0 0 .06.85 6.3 6.3 0 0 0 .83 2.35 6.2 6.2 0 0 0 1 1.31 6.8 6.8 0 0 0 1.35 1l34.06 19.23a9.6 9.6 0 0 0 4.84 1.25h.37a9.6 9.6 0 0 0 4.48-1.33l32.07-18.91.54-.35a10 10 0 0 0 1-.79 9 9 0 0 0 1.27-1.4 9.5 9.5 0 0 0 .69-1.05c.13-.23.25-.48.37-.73a8 8 0 0 0 .33-.83c0-.1.07-.2.1-.3a9.7 9.7 0 0 0 .45-3V96.53a7.8 7.8 0 0 0-.26-2 9 9 0 0 0-.42-1.26c-.09-.21-.18-.41-.28-.61s-.25-.46-.38-.69-.19-.31-.3-.47a12 12 0 0 0-.75-1 11 11 0 0 0-2.88-2.35l-32.42-18.31a9 9 0 0 0-1.76-.77 9.6 9.6 0 0 0-2.47-.47h-1.32a10 10 0 0 0-1.68.29l-.3.09a9.6 9.6 0 0 0-2.16.93L65.73 88.83a8.7 8.7 0 0 0-2.41 2.12 9 9 0 0 0-.7 1.06c-.1.18-.2.37-.29.56s-.13.34-.19.48"/><path fill="#143040" d="M103.853 162.44h-.37a9.6 9.6 0 0 1-4.84-1.25l-34.06-19.23a6.8 6.8 0 0 1-1.35-1 6.2 6.2 0 0 1-1-1.31 6.3 6.3 0 0 1-.83-2.35 6 6 0 0 1-.06-.85V97.32a10 10 0 0 1 0-1.24 10.3 10.3 0 0 1 .77-3l-9.2-5.66-10.77-6a15.84 15.84 0 0 0-1.47 7v58.36a9.53 9.53 0 0 0 4.87 8.24l50.8 28.63a14.45 14.45 0 0 0 7.23 1.87h.28v-12.74z"/><path fill="#081619" d="M103.853 162.44h-.37a9.6 9.6 0 0 1-4.84-1.25l-34.06-19.23a6.8 6.8 0 0 1-1.35-1 6.2 6.2 0 0 1-1-1.31 6.3 6.3 0 0 1-.83-2.35 6 6 0 0 1-.06-.85V97.32a10 10 0 0 1 0-1.24 10.3 10.3 0 0 1 .77-3l-9.2-5.66-10.77-6a15.84 15.84 0 0 0-1.47 7v58.36a9.53 9.53 0 0 0 4.87 8.24l50.8 28.63a14.45 14.45 0 0 0 7.23 1.87h.28v-12.74z"/><path fill="#70d68c" d="m157.913 74.72-48.36-27.31a14.45 14.45 0 0 0-14.46.14l-47.83 28.22a12.8 12.8 0 0 0-5.08 5.58l10.77 6 9.2 5.66c.06-.14.1-.29.17-.43s.19-.38.29-.56a9 9 0 0 1 .7-1.06 8.7 8.7 0 0 1 2.41-2.12l32.07-18.92a9.6 9.6 0 0 1 2.16-.93l.3-.09a10 10 0 0 1 1.68-.29h1.32a9.6 9.6 0 0 1 2.47.47 9 9 0 0 1 1.76.77l32.42 18.31a11 11 0 0 1 2.88 2.35 12 12 0 0 1 .75 1c.11.16.2.31.3.47l8.27-5.53 11.24-6.73a16.3 16.3 0 0 0-5.43-5"/><path fill="#63ba76" d="m157.913 74.72-48.36-27.31a14.45 14.45 0 0 0-14.46.14l-47.83 28.22a12.8 12.8 0 0 0-5.08 5.58l10.77 6 9.2 5.66c.06-.14.1-.29.17-.43s.19-.38.29-.56a9 9 0 0 1 .7-1.06 8.7 8.7 0 0 1 2.41-2.12l32.07-18.92a9.6 9.6 0 0 1 2.16-.93l.3-.09a10 10 0 0 1 1.68-.29h1.32a9.6 9.6 0 0 1 2.47.47 9 9 0 0 1 1.76.77l32.42 18.31a11 11 0 0 1 2.88 2.35 12 12 0 0 1 .75 1c.11.16.2.31.3.47l8.27-5.53 11.24-6.73a16.3 16.3 0 0 0-5.43-5"/><path fill="#5185eb" d="M143.823 91.98c.13.23.26.46.38.69s.19.4.28.61a9 9 0 0 1 .42 1.26 7.8 7.8 0 0 1 .26 2v37.21a9.7 9.7 0 0 1-.45 3c0 .1-.06.2-.1.3a8 8 0 0 1-.33.83c-.12.25-.24.5-.37.73a9.5 9.5 0 0 1-.69 1.05 9 9 0 0 1-1.27 1.4 10 10 0 0 1-1 .79l-.54.35-32.07 18.91a9.6 9.6 0 0 1-4.48 1.33v23.08a14.4 14.4 0 0 0 7-2l47.83-28.22a14.47 14.47 0 0 0 7.11-12.6V87.18a13.5 13.5 0 0 0-2.43-7.46l-11.26 6.73z"/><path fill="#4570ac" d="M143.823 91.98c.13.23.26.46.38.69s.19.4.28.61a9 9 0 0 1 .42 1.26 7.8 7.8 0 0 1 .26 2v37.21a9.7 9.7 0 0 1-.45 3c0 .1-.06.2-.1.3a8 8 0 0 1-.33.83c-.12.25-.24.5-.37.73a9.5 9.5 0 0 1-.69 1.05 9 9 0 0 1-1.27 1.4 10 10 0 0 1-1 .79l-.54.35-32.07 18.91a9.6 9.6 0 0 1-4.48 1.33v23.08a14.4 14.4 0 0 0 7-2l47.83-28.22a14.47 14.47 0 0 0 7.11-12.6V87.18a13.5 13.5 0 0 0-2.43-7.46l-11.26 6.73z"/><path fill="#daeefc" d="M99.943 69.03a9.6 9.6 0 0 0-2.16.93l-32.07 18.92 32.07-18.92a9.6 9.6 0 0 1 2.16-.93"/><path d="M99.943 69.03a9.6 9.6 0 0 0-2.16.93l-32.07 18.92 32.07-18.92a9.6 9.6 0 0 1 2.16-.93" class="cls-17"/><path fill="#daeefc" d="M142.773 90.53a11 11 0 0 0-2.88-2.35l-32.42-18.31 32.42 18.31a11 11 0 0 1 2.88 2.35"/><path d="M142.773 90.53a11 11 0 0 0-2.88-2.35l-32.42-18.31 32.42 18.31a11 11 0 0 1 2.88 2.35" class="cls-17"/><path fill="#daeefc" d="M100.243 68.94a10 10 0 0 1 1.68-.29 10 10 0 0 0-1.68.29"/><path d="M100.243 68.94a10 10 0 0 1 1.68-.29 10 10 0 0 0-1.68.29" class="cls-17"/><path fill="#daeefc" d="M103.243 68.65a9.6 9.6 0 0 1 2.47.47 9.6 9.6 0 0 0-2.47-.47"/><path d="M103.243 68.65a9.6 9.6 0 0 1 2.47.47 9.6 9.6 0 0 0-2.47-.47" class="cls-17"/><path fill="#daeefc" d="M144.613 137.05a8 8 0 0 1-.33.83 8 8 0 0 0 .33-.83"/><path d="M144.613 137.05a8 8 0 0 1-.33.83 8 8 0 0 0 .33-.83" class="cls-17"/><path fill="#daeefc" d="M144.483 93.28a9 9 0 0 1 .42 1.26 9 9 0 0 0-.42-1.26"/><path d="M144.483 93.28a9 9 0 0 1 .42 1.26 9 9 0 0 0-.42-1.26" class="cls-17"/><path fill="#daeefc" d="M144.713 136.75a9.7 9.7 0 0 0 .45-3 9.7 9.7 0 0 1-.45 3"/><path d="M144.713 136.75a9.7 9.7 0 0 0 .45-3 9.7 9.7 0 0 1-.45 3" class="cls-17"/></g></svg>