<svg xmlns="http://www.w3.org/2000/svg" version="1.0" viewBox="0 0 356.37 274.66"><g fill-rule="evenodd"><g fill="#fc390e"><path stroke="#000" stroke-linejoin="round" stroke-width="25" d="m61.91 64.995-35.908 155.53c-2.133 6.26-5.384 5.926-12.639 6.21l-.854 35.421 59.748-.212c11.593-.641 18.82-7.214 23.584-23.431l40.061-173.52zm12.119-52.492-9.163 39.688h73.992l9.163-39.688z"/><path d="m61.91 64.995-35.908 155.53c-2.133 6.26-5.384 5.926-12.639 6.21l-.854 35.421 59.748-.212c11.593-.641 18.82-7.214 23.584-23.431l40.061-173.52zm12.119-52.492-9.163 39.688h73.992l9.163-39.688z"/><path stroke="#000" stroke-linejoin="round" stroke-width="25" d="M223.69 12.5 121.4 231.86h37.393L261.083 12.5zm82.793 0-102.29 219.36h37.394L343.877 12.5z"/></g><path fill="#fc592e" d="M223.69 12.5 121.4 231.86h37.393L261.083 12.5z"/><g fill="#fc390e"><path d="M306.48 12.5 204.19 231.86h37.394L343.874 12.5z"/><path stroke="#000" stroke-linejoin="round" stroke-width="25" d="m113.7 64.995-12.711 55.053h74.258l12.71-55.053zm-20.396 88.341-12.71 55.053h74.258l12.71-55.053z"/><path d="m113.7 64.995-12.711 55.053h74.258l12.71-55.053zm-20.396 88.341-12.71 55.053h74.258l12.71-55.053z"/></g></g></svg>