<svg xmlns="http://www.w3.org/2000/svg" fill="none" viewBox="0 0 2437.6 1969.6"><path fill="url(#a)" fill-opacity=".35" d="M464.92 1680.9c310.34 369.85 939.19 353.11 1404.6-37.39s591.07-1006.9 280.72-1376.7C1839.9-103.04 1211.05-86.3 745.64 304.2 280.26 694.7 154.57 1311.1 464.92 1680.9"/><path fill="#e94c1d" d="M1709.7 445.63c-82.57-6.938-167.57 20.82-230.12 75.123-14.67 12.762-28.4 27.294-35.95 45.223-14.81 35.211-2.98 75.221 6.52 112.2 35.02 136.18 30.97 295.5-63.76 399.37-29.29 32.04-73.73 58.44-114.62 43.77-8.71-3.12-16.35-7.07-22.96-11.73-27.11-18.96-37.73-49.51-40.33-83.56-3.08-39.68 4.7-84.16 9.92-120.58 1.35-9.68 2.56-18.81 3.3-27.1.92-10.02 1.77-20.05 2.57-30.09h.18c12.76-.23 24.78-6.24 35.03-13.83 32.5-23.99 49.88-63.85 52.35-104.51.69-11.09.27-22.17-1.26-33.07q-.27-1.86-.57-3.72c-.42-2.61-.9-5.2-1.43-7.78-.65-3.16-1.38-6.3-2.18-9.4-.13-.49-.25-.97-.38-1.45-11.14-42.01-35.68-80.112-64.51-113.04-7.63-8.69-15.01-14.486-21.98-17.847a914 914 0 0 0-8.06-47.17c-15.23-76.521-34.61-120.62-77.13-164.73-3.37-3.511-6.89-7.02-10.56-10.544l-.36-.342a411 411 0 0 0-6.26-5.863l-.15-.133q-.72-.669-1.47-1.339c0-.005-.01-.01-.01-.014-.49-.446-.99-.892-1.48-1.339-.1-.088-.2-.176-.29-.264-.38-.336-.75-.672-1.13-1.009l-.51-.455-.87-.773-.63-.555-1.26-1.115c-.25-.223-.51-.445-.76-.668-.24-.203-.47-.406-.7-.61-.26-.221-.51-.443-.76-.665-.21-.177-.41-.354-.62-.531-1.06-.921-2.14-1.844-3.22-2.77-.09-.079-.19-.158-.28-.237-.35-.295-.69-.591-1.04-.886-.14-.121-.29-.242-.43-.363q-1.695-1.431-3.42-2.874c-.11-.095-.23-.19-.34-.285l-1.14-.944a6 6 0 0 0-.25-.206c-.38-.317-.76-.636-1.15-.954-.13-.113-.27-.225-.41-.338a179 179 0 0 0-1.89-1.551l-.6-.492c-.32-.263-.64-.528-.97-.792-.18-.151-.37-.301-.55-.452-.34-.271-.67-.543-1.01-.814-.28-.232-.57-.465-.86-.697l-1.32-1.062c-.29-.231-.57-.461-.86-.692a565 565 0 0 1-1.67-1.334c-.29-.229-.57-.457-.86-.686-.53-.423-1.07-.848-1.6-1.274-67.58-53.56-139.63-103.02-220.76-133.57-117.04-44.059-240.18-13.226-353.87 38.748l-.437.2-.083.039c-14.44 6.603-28.516 14.066-42.138 22.257-57.103 34.512-105.91 82.81-136.42 141.91-37.914 73.353-45.319 163.61-12.298 239.3 16.956 38.933 43.408 72.423 71.166 104.88 10.433 12.2 21.049 24.22 31.437 36.37 53.651 62.6 103.21 131.48 125.38 210.94 16.069 57.75 15.323 122.2-7.077 176.98-2.379 4.33-5.03 8.38-8.06 12.15-5.68 7.13-12.576 13.04-21.099 17.23-18.675 9.18-41.311 7.27-60.682-.42-19.375-7.63-36.19-20.49-52.723-33.16-19.935-15.27-39.915-30.6-59.846-45.92-24.547-18.81-63.247-46.8-88.167-28.5-75.028 55.24-159.89 137.44-208.09 225.65-38.05 69.72-53.187 143.21-22.45 210.09 30.973 67.3 87.048 120.21 148.43 161.71 20.913 14.16 42.99 27.38 67.486 33.72 24.451 6.38 51.79 5.17 73.308-8.11-3.541-15.38-15.772-26.12-28.713-35.91a865 865 0 0 1-5.838-10.4c1.055.05 2.132.03 3.231-.08 5.69-.57 9.342-3.36 11.366-8.66 7.818-20.44-15.255-42.35-21.827-60.32-4.197-11.49-16.867-14.93-25.451-9.44-.649-2.71-1.247-5.43-1.784-8.17-2.901-14.79-3.852-29.8-3.021-44.7a20.7 20.7 0 0 0 6.878 3.24c17.52 4.57 24.788-13.14 26.802-27.04 1.824-12.56 6.149-27.67 5.267-40.26-.712-10.2-7.012-17.09-14.861-19.33 7.655-13.98 16.973-27.05 27.757-38.8 2.929 11.4 16.164 20.82 27.611 16.4 1.096-.42 2.234-.59 3.32-.98 3.593-1.28 6.149-3.08 9.074-5.13.152-.07.592-.3 1.365-.7.26-.14 1.489-.8 2.385-1.3 1.461-.62 5.111-2.29 5.515-2.5.285-.14.498-.25.639-.32q.44-.195.989-.42c-.928.38 6.208-2.98 3.461-1.61-3.593 1.8 8.264-3.19 2.579-1.15 11.078-3.97 16.178-16.28 11.96-25.85a56 56 0 0 1 9.295 4.19c9.41 5.32 18.229 11.92 26.325 19.02 11.108 9.74 21.25 20.51 31.617 31.04-15.475-.24-29.288 17.17-19.559 31.9 3.163 4.79 6.854 8.97 10.499 13.36-3.447-4.12 4.698 6.47 6.233 8.19 3.17 3.55 6.836 6.64 10.775 9.33 14.395 9.81 36.454 12.16 50.913 1.48 4.243-3.14 7.601-8.62 8.03-14.08 26.515 12.88 55.674 20.37 85.117 21.68-21.021 64.11-20.946 135.05.688 199 1.956 5.73 4.098 11.46 7.591 16.35 4.425 6.19 10.666 10.71 17.047 14.81.419.32.883.6 1.306.88 41.075 26.27 86.857 45.09 134.5 55.33 35.253 7.59 76.192 11.41 108.61 27.2 34.375 16.72 80.252 63.11 52.446 89.28-14.345 13.56-32.788 22.64-52.259 25.8-7.964 1.31-16.533 1.82-22.773 6.9-5.544 4.47-5.963 20.44-1.351 27.15-1.255 2.24.701 5.4 2.702 7.36 23.333 22.91 60.823 32.93 92.957 26.82 19.43 2.22 38.58-6.44 52.51-20.41 22.48-14.04 41.88-32.91 55.27-55.71 19.12-32.57 25.14-73.3 13.14-109.11-1.4-4.15-3.04-8.15-4.92-12.03 7.15 2.03 12.41-4.36 13.23-10.68 1.99-15.5-6.2-27.36-15.94-38.88-8.87-10.5-19.59-22.92-32.18-28.84-10.59-4.99-24.66 2.31-25.89 12.85-11.31-8.62-23.04-17.01-34.43-25.6 3.78-2.42 6.65-6.94 6.31-11.31-1.14-14.71-13.31-22.95-22.49-33.15-8.82-9.82-15.04-22.21-25.915-29.85-7.909-5.56-17.87-.5-21.404 7.32a103 103 0 0 1-4.957-11.66c-6.712-18.96-8.929-38.7-7.995-58.58 14.588-48.26 49.211-92.77 93.361-117.5 2.26 12.69 3.74 23.76 3.49 31.96-.59 18.5-2.81 37.26 1 55.38 3.81 18.11 15.25 36.06 33.01 41.31 13.4 3.95 26.92.04 38.92-7.57 35.41-15.21 73.44-73.1 102.06-128.42 4.94 1.27 9.87 2.59 14.79 3.93 40.83 25.45 91.11 40.48 118.75 81.94 1.46 2.18 2.81 4.4 4.07 6.67-7.54 16.86-8.3 35.06-1.08 52.41 3.14 7.56 8.15 16.58 14.69 22.98-1.14 13.31-3.7 26.58-7.18 39.28-.18.65-.36 1.3-.54 1.94-21.57 9.66-33.31 38.9-32.7 60.98.19 6.74 1.21 13.83 3.52 20.35-4.2 11.68-8.06 23.47-11.11 35.5-1.84 7.27-3.39 14.84-2.08 22.22 1.7 9.51 7.88 17.08 16 22.45 14.29 20.41 54.32 32.49 86.05 21.68 40.17-13.68 68.85-48.64 93.61-83.1 29.34-40.82 56.38-83.29 80.94-127.15 12.54-22.37 24.55-45.43 30.3-70.42 13.31-57.86-8.48-117.95-36.04-170.53-2-3.82-4.09-7.67-6.31-11.46 55.14-49.15 101.3-108.85 136.45-173.92 19.84-36.8 36.56-75.78 43.78-116.95 2.18-12.49 3.12-25.15 3.05-37.92 1.27-23.65-.65-48.94-1.27-67.78-.26-8.03-.68-16.05-1.23-24.06 10.35 3.53 22.97-.31 25.9-13.28 5.66-25.15 10.74-69.83-18.05-83.45-5.37-2.54-12.98-1.85-15.95 4.19a42 42 0 0 0-2.18 5.32c-2.96-18.78-6.26-37.53-9.67-56.25 13.52 2.99 29.18-4.35 27.72-21.52-2.2-25.94-3.29-63.96-22.21-84.71-2.08-5.1-4.74-9.41-8.28-11.39l-1.21-.68c-4.76-2.66-9.65-2.97-14.07-1.53.13-5.18.58-10.36 1.45-15.49 1.76-10.41 5.22-20.41 9.72-29.96 6.59 7.87 19.54 10.74 27.63 1.92 6.48-7.06 13.6-13.77 20.45-20.52 8.6-8.478 19.33-16.438 18.09-30.103-.8-8.887-5.24-14.188-13.29-17.463-.89-.36-1.77-.655-2.65-.89a244 244 0 0 1 26.61-21.676c3.43-2.42 7.05-5.458 10.22-8.809 8.94-.934 17.97-1.053 26.96-.29 3.45-6.522 3.64-21.424 4.47-28.783 3.03-27.799-31.76-43.027-59.66-45.403z"/><path fill="#c23918" d="M1453 1472.7c5.46 28.26 1.57 57.47-4.23 85.65a640.5 640.5 0 0 1-41.41 129.44c-12.63 28.58-27.77 56.78-50.52 78.2-22.74 21.42-54.28 35.34-85.18 30.72-8.1-1.21-16.37-4.18-23.26-8.73 14.3 20.41 54.33 32.49 86.06 21.68 40.17-13.69 68.85-48.65 93.61-83.1 29.34-40.82 56.38-83.3 80.94-127.15 12.54-22.38 24.55-45.43 30.3-70.42 13.31-57.87-8.48-117.95-36.04-170.54-2-3.81-4.09-7.66-6.31-11.46-24.06 21.44-49.82 40.87-77.13 57.87 16.27 19.68 28.18 42.04 33.17 67.84M1052.3 1525c-6.46 7.79-14.36 15.24-23.06 20.76 35.41-15.22 73.44-73.11 102.06-128.43-9.99-2.57-20.02-4.96-30.07-7.01-7.2 41.95-21.99 82.17-48.93 114.68"/><path fill="#0f1a12" d="M888.51 770.71c-6.823-22.05-31.52-13.13-46.651-6.44-11.878 5.26-23.419 10.02-35.201 14.18-2.332 12.2-9.499 22.99-18.495 31.53-9.476 8.99-22.239 8.15-31.091.48a33 33 0 0 1-2.965-1.26c-2.134 11.9 2.744 25.39 13.459 31.48 3.859 2.19 8.473 3.42 13.793 3.27 12.494-.35 25.241-2.32 37.532-5.85 11.226-3.21 22.073-7.72 32.001-13.46 16.632-9.63 44.559-31.5 37.618-53.93M1280.6 720.82c-7.52 11.42-21.37 15.08-32.72 9.1 1.04 2.64 2.6 5.01 4.71 6.74 6.93 5.7 14.11 7.88 21.36 7.82 9.9-.08 19.94-4.33 29.73-9.54 2.93-1.54 5.63-3.21 8.2-5.03.69-11.08.27-22.17-1.26-33.07q-.27-1.86-.57-3.72a192.09 192.09 0 0 0-3.61-17.18c-.13-.49-.26-.97-.39-1.45-7.17 2.61-13.63 5.86-20.12 9.49 3.25 12.24 1.67 26.21-5.33 36.84"/><path fill="#fff" d="M788.16 809.98c8.996-8.54 16.163-19.33 18.495-31.53.474-2.48.75-5.02.798-7.6.309-16.35-8.824-33.3-25.242-38.13-35.694-10.48-59.96 33.79-42.945 62.73 3.536 6.02 8.801 10.82 14.837 13.75q1.455.705 2.965 1.26c8.853 7.67 21.616 8.51 31.092-.48M1280.6 720.82c7-10.63 8.58-24.6 5.33-36.84-.17-.64-.35-1.28-.55-1.91-4.8-15.42-18.57-30.99-35.93-30.99-13.39 0-24.97 10.85-25.3 24.23-.04 1.54.05 3.07.26 4.57-1.85 5.81-1.76 12.06-.47 18.09 2.43 11.36 9.87 20.11 18.14 27.82 1.82 1.69 3.77 3.06 5.8 4.13 11.35 5.98 25.2 2.32 32.72-9.1"/><g fill="#ec6640"><path d="M463.42 267.21a234 234 0 0 0 3.436 23.66 14.6 14.6 0 0 0-4.4 1.671c-8.81 5.092-14.5 9.353-17.647 19.614-2.793 9.11-2.911 18.8-.687 28.058 4.53 18.871 17.879 33.461 31.265 46.74 7.855 7.796 22.37 7.586 30.007-.041 15.721 25.628 34.987 49.226 56.753 70.42-2.095.092-4.132.424-6.007 1.001-5.358 1.648-11.443 6.329-12.321 12.319-3.447 23.63 19.334 41.45 36.504 54.305 16.592 12.421 48.643 35.824 69.223 21.238 6.902-4.89 10.202-10.959 11.038-17.449 60.391 32.413 126.9 52.329 194.53 65.626 14.954 25.086 42.152 34.086 69.166 42.016 25.26 7.41 65.54 23.1 86.96.34 12.51-13.29 11.11-29.82 1.74-41.791 13.16-3.119 26.49-6.712 40.24-10.435 19.49-5.317 39.02-12.039 55.04-24.289 5.06 1.33 10.51 1.493 15.32.463 16.49-3.532 31.26-13.208 42.43-25.702 19.02-21.279 44.82-80.563 3.77-94.266-3.57-1.193-7.09-1.729-10.52-1.702.28-31.399-6.53-63.266-18.58-92.928-3.81-9.39-9.61-17.87-16.89-24.921l-.36-.342a411 411 0 0 0-6.26-5.863l-.15-.133c-.48-.446-.97-.892-1.46-1.339-.01-.005-.01-.01-.02-.014-.49-.446-.99-.892-1.48-1.339-.1-.088-.2-.176-.29-.264-.38-.336-.75-.672-1.13-1.009l-.51-.455-.87-.773-.63-.555-1.26-1.115c-.25-.223-.51-.445-.76-.668-.24-.203-.47-.406-.7-.61-.26-.221-.51-.443-.76-.665-.21-.177-.41-.354-.62-.53-1.06-.921-2.14-1.844-3.22-2.771-.09-.079-.19-.158-.28-.237-.35-.295-.69-.591-1.04-.886-.14-.121-.29-.242-.43-.363q-1.695-1.431-3.42-2.874c-.11-.095-.23-.19-.34-.285l-1.14-.944a6 6 0 0 0-.25-.206c-.38-.317-.76-.636-1.15-.954-.13-.113-.27-.225-.41-.338q-.93-.774-1.89-1.552l-.6-.492c-.32-.263-.64-.527-.97-.792-.18-.151-.37-.301-.55-.452-.34-.271-.67-.542-1.01-.814-.28-.232-.57-.465-.86-.697l-1.32-1.062c-.28-.231-.57-.461-.86-.692l-.9-.718c-.25-.205-.51-.41-.77-.616-.28-.228-.57-.457-.86-.686-.53-.423-1.07-.848-1.6-1.273-67.58-53.56-139.63-103.02-220.76-133.57-117.04-44.059-240.18-13.226-353.87 38.748l-.437.201-.083.038c-29.214 13.391-47.047 44.013-44.084 76.018z"/><path d="M483.16 448.07c1.451 1.124 2.915 2.529 4.526 3.427 1.565.657 3.125 1.317 4.689 1.976l.182.075.5.121c.942.2 4.384.702 5.353.714h.414c.978-.018 4.339-.502 5.294-.707l.505-.111q2.26-.956 4.526-1.91 3.317-1.788 5.317-4.882a9.44 9.44 0 0 0 2.438-4.182q1.782-3.389 1.633-7.302-.336-2.521-.678-5.039l-1.91-4.528q-1.452-2.695-3.768-4.523c-2.503-3.031-5.836-5.35-9.745-6.24q-2.634-.352-5.267-.707a19.7 19.7 0 0 0-10.001 2.706q-3.46 1.867-5.558 5.101-2.628 2.871-3.543 6.738a19.9 19.9 0 0 0 0 10.533 19.8 19.8 0 0 0 5.093 8.74M669.04 585.58q2.149 3.319 5.703 5.235l.255.148c6.14 3.57 13.854 3.57 19.998 0l.255-.148q2.055-1.59 4.111-3.177a15.3 15.3 0 0 0 3.257-4.264q2.237-3.513 2.419-7.586.914-4.07-.364-8.139-1.025-2.438-2.055-4.876a20.5 20.5 0 0 0-7.323-7.32l-.26-.139a15.5 15.5 0 0 0-2.442-1.042q-3.527-1.848-7.6-1.696l-5.24.702a30 30 0 0 0-4.798 2.035l-.259.139q-3.57 1.924-5.726 5.255-2.708 2.957-3.657 6.941-.36 2.713-.727 5.426.019 5.527 2.788 10.299a7.8 7.8 0 0 0 1.665 2.207M1045.4 627.86l1.13 1.01c2.98 2.96 6.49 5.01 10.54 6.14 3.18 1 6.35 1.14 9.53.43 3.18-.15 6.14-1.09 8.88-2.84 3.59-2.12 6.44-4.98 8.57-8.57.18-.43.38-.82.63-1.23 3.15-5.33 4.45-13.29 2.52-19.27a31 31 0 0 0-.97-2.59l-.09-.68c-.73-3.07-2.14-5.747-4.22-8.026-3.02-3.9-7.32-7.334-12.27-8.459-4.14-.944-8.4-.944-12.54 0-5.62 1.28-11.26 5.951-14.11 10.848-.56.951-1.07 1.954-1.54 2.977-.49.94-.9 1.92-1.24 2.94-1.56 2.98-2.28 6.19-2.15 9.64.3 6.64 2.54 12.89 7.33 17.68"/></g><g fill="#ce3b17"><path d="M1179.2 821.94c-10.25-15.09-14.82-33.25-18.07-51.19-1.91-10.48-3.31-20.91-4.29-31.2-4.17-44.77-.07-88.16 5.95-133.11-23.63 34.57-17.73 126.41-20.53 155.23-2.37 24.73-4.75 49.84-.23 74.29 4.52 24.4 17 48.48 38.19 61.43 11.27 6.89 25.2 9.73 38.24 8.06 1.35-9.69 2.56-18.82 3.3-27.11.91-10.02 1.77-20.04 2.57-30.08-18.14.28-34.97-11.33-45.13-26.32M210.05 1542.2c-4.239-45.97-8.059-94.59 11.921-136.18 11.134-23.15 28.877-42.38 46.947-60.55 15.232-15.27 31.533-30.5 51.699-38.14 44.755-17 93.657 7.27 135.39 30.83l135.11 76.34c2.42 1.39 5.121 3.16 5.449 5.96l-.05 1.02c13.786-12.29 29.436-22.77 43.504-34.74 21.327-18.17 40.47-43.41 38.096-71.3-1.26-15.1-11.689-31.12-26.825-31.72-6.568-.24-12.858 2.42-19.052 4.61-4.687 1.65-9.317 3.53-13.905 5.39a37.6 37.6 0 0 0 2.339-5.86c1.606-5.28-1.915-11.66-7.345-12.93-11.804-2.76-27.193 3.48-32.301 14.85a15.3 15.3 0 0 1-2.529-2.11c-6.049-6.27-17.638 2.1-12.357 9.53a36.3 36.3 0 0 0 4.562 5.27 40.4 40.4 0 0 1-6.645-2.36c-2.544-1.15-5.096-2.3-7.651-3.44a11.2 11.2 0 0 0-2.155-2.23c-9.81-7.72-20.613-13.99-32.51-18.03-3.348-1.13-13.913-2.73-16.592-5.09-4.375-3.86-3.32-10.99-6.013-15.85-11.143-20.11-36.768-15.8-52.509-4.29a8.8 8.8 0 0 0-2.711 3.2 988 988 0 0 0-19.235-5.76c.795-4.64-1.165-9.86-5.521-13.16-12.584-9.51-34.833-19.16-49.637-9.44-5.767-3.88-14.677.1-15.445 6.06-7.487.12-14.349 1.95-19.815 6.74-17.761.97-34.339 6.3-49.693 14.59 1.711-6 2.135-12.51 1.131-19.2-1.551-10.34-14.304-10.37-20.658-5.46-6.854 5.3-13.797 14.5-13.905 23.57-8.62 4.11-10.205 18.4-3.296 25.5.419.43.894.83 1.409 1.2-15.48 14.18-29.253 30.8-41.251 47.64-.175.25-.349.49-.524.74-3.366-2.66-7.974-2.15-11.597.68-1.053.82-1.924 1.82-2.67 2.94-7.303 1.93-13.515 6.71-17.443 13.49-4.709 8.14-5.655 20.65 1.004 28.06-9.896 14.5-20.107 28.7-31.418 41.76-4.7-6.96-13.822-10.24-22.168-4.97-5.08 3.21-8.364 9.32-11.885 14.07-3.916 5.28-7.45 11.34-5.562 18.2.713 2.6 2.001 4.64 3.638 6.16-.593.43-1.187.85-1.787 1.27-10.897 7.64-23.614 14.11-36.886 13.04-.081-.01-.16-.02-.241-.02q-.048-.465-.137-.93c-1.816-9.49-12.169-26.65-23.893-25.67q-.11-.6-.19-1.2c-.78-5.72-8.276-6.35-11.855-2.96-4.741-10.86-7.412-23.2-8.212-34.65-2.611-37.86 3.917-75.91 10.598-113.77.539 1.36 1.384 2.61 2.437 3.86 2.265 2.69 6.072 3.03 9.256 2.44 2.675-.49 5.236-2.61 6.536-4.94a9.5 9.5 0 0 0 1.154-3.44c2.236-1.51 3.817-4.29 3.703-6.88a9.76 9.76 0 0 0-1.119-4.13c-.819-1.55-3.089-3.52-4.894-3.77-2.42-.33-4.448-.53-6.849.18-2.029.6-3.512 1.52-5.085 2.7-1.202.94-2.271 1.86-3.208 3.02l.188-1.07c-38.05 69.72-53.187 143.21-22.45 210.09 30.974 67.3 87.048 120.21 148.43 161.71 20.913 14.16 42.99 27.38 67.486 33.72 24.452 6.38 51.791 5.17 73.309-8.11-3.541-15.38-15.772-26.12-28.713-35.91-4.264-3.22-8.606-6.35-12.739-9.5-25.946-19.75-51.189-48.16-54.167-80.67z"/><path d="M1680.2 1018.2c-.74-134-112.89-281.23-70.12-399.22-12.71 8.74-23.25 21.34-30.59 35.48-.32-.31-.64-.62-.97-.92-.49-.44-1.01-.78-1.56-1.03 3.14-6.41 7.62-12.3 13.26-17.31 6.62-5.87-1.92-16.63-9.38-12.15-25.92 15.54-35.83 48.28-24.55 76.15 1.9 4.68 6.06 7.52 10.4 7.25-.88 27.5 5.88 53.62 9.49 81.96 1.73 13.5 2.6 27.36 2.93 41.34-2.36-2.59-6.2-3.69-9.34-1.86-1.66-.7-3.42-1.29-5.26-1.75-7.07-1.78-12.44 5.67-9.18 11.93 1.4 2.69 3.01 5.23 4.66 7.74-7.17 21.38-4.4 44.67 7.57 64.76 2.13 3.56 5.9 5.3 9.61 5.19-1.34 32.26-4.15 64.66-9.37 96.57-2.52-7.13-12.3-9.4-18.26-4.03-19.81 17.81-21.61 46.58-12.09 70.2a265 265 0 0 1-4.99 15.65c-2.92 8.3 5.66 12.76 12.11 10.3-3.45 9.67-7.23 19.23-11.38 28.67-3.14-5.51-11.14-8.19-16.65-4.49-4.58 3.08-7.98 5.73-11.13 10.24-1.04 1.48-1.48 3.22-1.45 4.97-5.74 9.29-9.51 19.39-11 30.5-.96 7.18.61 15.65 5.76 20.45-16.41 23.14-36.06 43.82-59.18 59.64 1.51-7.52-4.65-14.09-12.52-15.01-14.68-1.72-29.15 3.58-40.14 13.27-5.7 5.03-10.87 12.14-13.2 19.76-4.44 1.15-6.94 5.92-6.57 10.59-19.03 2.68-38.44 1.96-56.75-2.59 5.24-4.12 6.32-12.13 1.21-17.42-8.49-8.8-19.78-16.17-32.52-14.56q-2.235.285-4.35.96c-4.82-2.87-11.97-.95-12.03 6.55-.01.28 0 .56.01.84-8.78-7.36-16.28-16.24-22.29-26.07 2.94-1.07 5.47-3.53 6.8-6.82 6.55-16.38 3.82-34.91-7.84-48.33a36 36 0 0 0-3.6-3.63c-1.21-4.7-7.3-7.65-11.84-6.08 1.08-16.11 6.12-31.72 15.77-45.08 2.7-3.77 5.78-7.55 9.13-11.27-27.11-18.96-37.73-49.51-40.34-83.56-18.75 42.15-49.17 81.32-92.35 90.14 1.57-5.02 1.44-10.47-1.17-15.38-6.72-12.69-25.28-15.36-37.16-8.71-5.65 3.16-9.73 8.88-11.2 14.92-2.34 1.08-4.21 3.26-4.84 5.66-5.28-1.47-10.5-3.16-15.63-4.98-15.19-5.4-24.54-13.05-34.1-20.93.53-3.56.07-7.42-1.23-11 .08-6.31-3.12-12.51-8.33-16.67-7.8-6.25-22.83-11.27-32.19-5.63-.53.32-1.01.65-1.48.99-2.92-2.12-6.69-1.74-9.24.07-17.43-11.17-32.99-25.25-46.04-41.38 3.09-1.58 5.34-4.59 5.03-8.5-1.5-18.54-14.35-39.39-33.233-44.02-.829-.2-1.635-.29-2.413-.3-5.336-13.8-9.067-28.22-10.959-42.93-.182-1.41-.348-2.82-.503-4.24-19.146 5.58-39.647 7.22-59.297 4.7-27.758-3.58-54.911-14.53-75.869-33.11-22.777-20.21-37.259-48.39-45.737-77.64-1.655-5.74-3.136-12.03-4.397-18.71-19.14-11.33-35.396-27.92-48.185-46.3-18.397-26.51-30.414-56.73-42.289-86.68-11.362-28.64-22.728-57.24-34.093-85.879-12.808-32.276-26.73-66.136-54.024-87.654-42.194-33.206-111.54-23.1-142.47 20.774-19.002 26.964-23.383 62.267-18.07 94.819 5.353 32.56 19.607 62.97 35.253 92.03 1.82 3.36 3.679 6.71 5.544 10.06 10.433 12.21 21.049 24.22 31.437 36.38 53.651 62.59 103.21 131.47 125.38 210.93 16.069 57.75 15.323 122.21-7.077 176.98-2.379 4.33-5.03 8.38-8.06 12.15 11.643.89 24.219-1.35 35.349-4.75 8.596-2.61 17.422-5.66 26.273-7.94-.964 4.16 2.011 9.56 7.061 7.73.688-.25 1.389-.52 2.103-.79 1.918 10.04 10.843 18.37 22.839 16.84 10.57-1.34 17.192-10.27 17.906-19.72 14.138 8.88 23.826 24.46 32.52 39.19 6.232 10.55 11.501 19.91 16.866 28.78-6.237-.81-13.177 4.8-12.636 11.32.848 10.26 4.412 23.04 12.321 30.69 7.404 11.58 21.589 19.41 35.067 20.56 4.389.37 7.326-2.33 8.712-5.81a337 337 0 0 1 34.869 53.48c2.018 3.84 3.969 7.76 5.669 11.78-.399.25-.796.54-1.185.88a42 42 0 0 0-7.954 9.1c-7.83 10.76-13.895 28.5-3.682 39a48.9 48.9 0 0 0 7.675 13.57c.315.39.648.74.996 1.06l-.451 1.27c-8.871 25.3-9.332 49.06-8.665 73.24a19.6 19.6 0 0 0-3.169-.57c-10.22-1.03-19.121 7.27-22.036 16.58-1.565 5.01-1.338 9.77-.532 14.87.924 5.86.892 12.13 2.292 17.83 1.578 6.41 10.315 8.71 14.854 3.92.076-.08.15-.16.224-.25 1.613 3.82 3.877 7.37 6.766 10.37.394.41.817.77 1.262 1.09q-.26 2.565-.589 5.16c-2.324 18.16-4.636 36.33-6.948 54.51-2.439-.68-5.168-.3-7.296 1.72a52.6 52.6 0 0 0-9.282 11.79c-14.405 7.43-14.828 26.47-8.579 40.52 1.403 3.16 4.777 3.46 7.406 2.16 2.379 2.97 5.589 5.11 9.282 5.96-1.73 7.6-4.43 14.84-9.31 20.82-8.014 9.83-20.54 14.53-32.556 18.54a746 746 0 0 1-22.263 6.97c-.738-6.12-5.261-12.06-11.625-15-6.554-3.04-13.499-4.81-20.722-5.21-2.506-.14-5.061-.04-7.515.49-2.966-1.6-6.932-1.22-9.518 2.65-7.525 11.28-2.09 21.69 7.576 28.08-13.151 3-26.954 5.32-39.932 2.65.419.32.883.6 1.306.88 41.075 26.27 86.857 45.09 134.5 55.33 35.253 7.59 76.192 11.41 108.61 27.2 34.375 16.72 80.244 63.11 52.446 89.28-14.345 13.56-32.788 22.64-52.259 25.81-7.964 1.3-16.533 1.81-22.773 6.89-5.544 4.47-5.963 20.45-1.351 27.15-1.255 2.24.701 5.41 2.702 7.36 23.333 22.91 60.823 32.93 92.959 26.83 19.43 2.21 38.58-6.45 52.51-20.42 5.11-5.11 9.51-10.94 12.97-17.22 12.95-23.38 14.53-51.55 10.76-78.01-6.29-44.29-3.63-76.15-36.74-106.23-26.97-24.55-54.307-49.42-74.288-79.92-19.98-30.46-32.23-67.72-25.758-103.63a181 181 0 0 1 4.883-20.22c14.588-48.26 49.203-92.76 93.363-117.5 13.48-7.55 27.86-13.26 42.83-16.67 34.86-7.94 70.33-4.9 105.58 2.31 10.04 2.06 20.07 4.45 30.07 7.02 4.94 1.27 9.87 2.59 14.79 3.93 12.06 3.29 24.05 6.72 35.94 10.03 61.02 16.9 123.33 30.87 180.8 4.37 19.67-9.08 38.69-19.39 57.02-30.8 27.31-16.99 53.07-36.42 77.13-57.86 55.14-49.15 101.3-108.85 136.45-173.92 19.84-36.79 36.56-75.77 43.78-116.95 2.18-12.49 3.12-25.14 3.05-37.91z"/><path d="M962.18 1026.6c-.4-1.71-1.38-3.24-2.64-4.44l.12.09c-.22-.2-.44-.39-.67-.57-.01-.02-.03-.03-.05-.05-.97-.79-1.97-1.41-3.15-1.84-.17-.13-.34-.25-.52-.37-.97-.89-2.1-1.48-3.41-1.79-1.77-.48-3.55-.48-5.33 0-.91.27-2.01.72-2.85 1.2-.66.4-1.72 1.22-2.28 1.76l-.2.18c-2.08 2.13-3.18 4.99-3.28 7.94-.04 1.16.19 2.42.42 3.5.44 2.05 1.74 4.54 3.3 5.98.79.74 1.75 1.54 2.72 2.07.74.4 1.97.92 2.78 1.18l.49.12 2.9.39a8.3 8.3 0 0 0 4.22-.94c.93-.26 1.73-.73 2.41-1.41.3-.19.59-.41.86-.63.49-.37.97-.77 1.43-1.22 1.06-1.06 1.79-2.25 2.36-3.6.52-1.24.87-2.58.87-3.94 0-.47-.06-1.16-.17-1.8-.07-.62-.19-1.24-.33-1.81M1040.2 1049.6c-32.97 0-33.02 51.23 0 51.23 32.96 0 33.02-51.23 0-51.23M1128.8 1096.5c3.42.94 7.77.06 10.19-2.7 1.28-1.45 2.56-2.9 3.84-4.36 2.22-2.52 3.04-5.76 1.69-8.94-.56-1.35-1.37-2.38-2.52-3.28-1.34-1.03-3.21-1.9-4.96-1.76l-5.46.45c-3.77.32-7.06 1.8-9.05 5.19-1.7 2.91-1.81 6.28-.52 9.33 1.25 2.97 3.62 5.2 6.79 6.07M902.27 933.24a8.7 8.7 0 0 0-7.455 4.28c-1.646 2.81-1.388 5.88 0 8.71.928 1.9 1.701 3.81 3.238 5.32 2.306 2.27 6.12 2.28 8.43 0 1.54-1.52 2.31-3.42 3.24-5.32 1.38-2.83 1.65-5.9 0-8.71a8.7 8.7 0 0 0-7.453-4.28M1175.4 1054.8c11.68 0 11.7-18.15 0-18.15-11.68 0-11.7 18.15 0 18.15M741.83 1309.5c2.612 1.88 5.779 2.84 8.845 2.28 2.075-.02 4.057-.52 5.701-2.2 1.635-1.68 1.973-3.57 1.847-5.56.112-.94.075-1.88-.029-2.85-.06-.78 0-1.54-.013-2.32-.05-2.75-1.31-4.93-2.42-7.32-.968-2.08-3.215-3.62-5.226-4.47-2.17-.92-4.808-1.3-7.114-.55a13 13 0 0 0-4.821 2.81c-2.192 2.01-2.938 4.9-3.198 7.72-.195 2.13.1 4.22.933 6.21 1.229 2.9 3.039 4.47 5.495 6.25M753.42 1392.9a7.5 7.5 0 0 0-3.929-.18c-.887.01-1.715.23-2.484.68a7.3 7.3 0 0 0-3.17 2.03 305 305 0 0 1-1.538 1.99c-.332.79-.664 1.57-.991 2.36a7.37 7.37 0 0 0-.177 3.92c.059 1.32.45 2.53 1.169 3.66l.887 1.41c1.878 2.97 5.181 5.23 8.828 5.06 2.711-.12 5.271-1.04 7.232-2.99a7.7 7.7 0 0 0 2.115-3.29c.637-1.22.932-2.53.878-3.94 0-3.7-1.988-6.88-5.062-8.83-.469-.3-.937-.59-1.405-.89zM672.43 1171c-3.175-1.53-6.345-2.16-9.838-1.19-2.108.58-3.478 1.53-4.969 2.71-.689.5-1.36 1.03-1.999 1.6-2.07 1.82-3.539 5.52-3.421 8.24.096 2.1.605 4.29 1.691 6.12.654 1.46 1.02 1.85 2.417 3.62q1.103.855 2.215 1.71a8.14 8.14 0 0 0 4.062 1.3c2.329.31 4.931.01 6.968-1.3a13.1 13.1 0 0 0 3.92-3.92c.587-.91.969-1.92 1.189-2.98 1.176-1.19 2.123-2.66 2.495-4.29.41-1.81.41-3.66 0-5.47-.519-2.26-2.611-5.12-4.73-6.15M569.89 1135.3c-1.035-.98-2.276-1.75-3.689-2.07-2.502-.57-4.621-.14-6.945.91-5.471 2.47-7.209 9.37-5.849 14.74 1.555 6.15 8.682 10.42 14.813 8.52 5.258-1.63 8.678-6.58 8.396-12.07-.215-4.29-2.78-8.53-6.726-10.03m-9.295 10.34c.018.02.037.05.057.07.016.34-.01.49-.057-.07m-.048-1.67q.003-.18.019-.33c.05-.14.108-.29.182-.46zM731.71 1543.2c-.805.81-1.587 1.71-2.115 2.71l-.155.31c-.869 1.76-1.533 3.69-1.492 5.69.005 1.96.5 3.79 1.483 5.48a8.2 8.2 0 0 0 2.797 3.05 8.13 8.13 0 0 0 3.697 1.94q2.885.78 5.776 0l.201-.06c.029 0 .055 0 .083-.01.305.02.61.03.912.02.941-.13 1.887-.26 2.833-.38a8.1 8.1 0 0 0 3.629-1.91c1.765-1.37 3.316-3.31 3.825-5.55.128-.94.255-1.89.382-2.83a10.66 10.66 0 0 0-1.46-5.39l-.223-.38c-.359-.55-1.323-1.84-1.792-2.31l-.318-.28c-.655-.56-1.596-1.37-2.342-1.8-.509-.29-1.096-.49-1.615-.71-.41-.17-1.106-.52-1.647-.67l-.345-.07c-.969-.19-2.219-.4-3.211-.42l-.355.01c-.832.03-2.438.21-3.243.43-.75.22-2.174.81-2.843 1.21-.752.45-1.843 1.3-2.462 1.92M702.98 1628.9c-2.126.54-3.91 1.63-5.424 3.06-1.271.93-2.32 2.09-3.136 3.47a8.53 8.53 0 0 0-1.365 4.27 8.67 8.67 0 0 0 .204 4.59 11.4 11.4 0 0 0 2.472 4.55c.4.56.841 1.11 1.276 1.53.855.85 1.902 1.71 2.957 2.27 2.12 1.13 4.325 1.57 6.712 1.25 2.211-.3 4.495-1.2 6.046-2.9a12.5 12.5 0 0 0 2.711-4.64c.369-1.14.451-2.34.332-3.53.075-.53.105-1.06.082-1.59-.027-.59-.09-1.2-.19-1.82.034-.26.07-.51.104-.77 0-2.25-.811-4.36-2.171-6.12-2.483-3.22-6.63-4.63-10.61-3.62M1248.9 1221l-.22.51c-.9 2.09-1.46 3.05-1.47 5.4 0 1.49.26 2.52.68 3.78.33.79.66 1.57.99 2.36a7.4 7.4 0 0 0 2.54 2.76c.62.61 1.34 1.04 2.18 1.27 1.17.62 2.44.9 3.8.85.87-.12 1.75-.23 2.62-.35.79-.33 1.57-.66 2.35-.99a7.5 7.5 0 0 0 2.77-2.54c.87-.96 1.46-2.07 1.77-3.36.42-1.25.68-2.31.67-3.78 0-2.4-.51-3.19-1.43-5.32l-.25-.59a9.95 9.95 0 0 0-3.53-3.53 9.8 9.8 0 0 0-4.97-1.34c-1.78 0-3.43.45-4.97 1.34a9.87 9.87 0 0 0-3.53 3.53M1331.7 1275.5c-.02.02-.03.05-.05.08 1.7.61 3.4.67 5.1.51 1.49.05 2.98 0 4.42-.5l.92-.09c2.92-.3 5.86-1.02 7.95-3.3 1.71-1.85 2.76-3.94 3.09-6.45.32-2.4.02-5.08-1.33-7.17-1.49-2.31-3.89-4.72-6.72-5.17-4.35-.69-9.14-2.17-13.43-.89-5.72 1.7-9.35 7.2-8.56 13.12.66 4.9 4.09 8.56 8.61 9.86M1446.8 1222.8c.63.1 1.17.18 1.68.24 3.59.73 7.59.39 10.7-1.66 2.63-1.74 4.97-4.29 5.69-7.47.38-1.7.43-3.29.21-4.83 1.36-3.01 1.57-5.47 1.11-8.78-.27-1.88-2.3-4.24-3.92-5.1-2.1-1.1-4.24-1.36-6.57-.86 3.26-.69.7-.16-.42-.17-.88 0-1.77.08-2.66.21-4.6-.14-8.97 2.24-11.85 5.96-3.1 4.02-4 8.45-2.98 13.45.81 3.98 4.93 8.32 9.01 9.01M1550.4 947.09c-.22.12-.43.23-.66.36-5.62 3.09-7.92 11.3-4.39 16.76 3.7 5.74 10.72 7.66 16.76 4.4 1-.54 1.85-1.17 2.76-1.88 1.69-1.3 2.85-2.8 3.67-4.76.14-.33.26-.66.37-.98.7-1.19 1.24-2.52 1.57-3.9 2.04-4.46.46-9.96-3.37-12.92-1.84-1.42-4.2-2.44-6.58-2.33-3.01.13-5.38 1.23-7.68 3.18-.82.69-1.64 1.38-2.45 2.07m11.08-1.52c-.23.03-.46.06-.69.1-.04 0-.08 0-.13.01.27-.04.55-.08.82-.11M1545.9 789.51c-.22 3.86 1.45 8.18 4.35 10.76 2.93 2.62 6.44 3.76 10.33 3.24 2.8-.38 5.36-1.49 7.38-3.56 2.24-2.29 3.42-5.41 3.53-8.58.12-3.27-1.22-6.08-3.45-8.02-.04-.09-.07-.17-.1-.26-1.95-4.6-7.49-7.85-12.52-6.14-3.08 1.05-5.83 2.83-7.52 5.71-1.29 2.2-1.85 4.31-2 6.85m8.15-5.01-.01.01zM1576.1 583.33c-.17.46-.24.94-.22 1.442-.14.496-.2.996-.17 1.503-.05 1.378.23 2.663.86 3.857a7.44 7.44 0 0 0 2.07 3.222c.68.521 1.35 1.044 2.03 1.565a9.93 9.93 0 0 0 5.05 1.366l.15.005 2.7-.361c.54-.169 1.11-.443 1.59-.648.88-.246 1.64-.69 2.29-1.333l1.13-.878.41-.341c.5-.409 1.01-.821 1.51-1.232a8 8 0 0 0 2.19-3.413c.66-1.262.97-2.625.91-4.084a8 8 0 0 0-.91-4.087 8 8 0 0 0-2.19-3.413c-2.02-1.855-4.68-3.234-7.5-3.106l-2.82.377q-2.7.757-4.68 2.729c-.41.498-.82.998-1.24 1.499l-.27.334c-.56.689-1.31 1.496-1.76 2.263a250 250 0 0 1-1.04 2.472zM1618 566.59c12.75 0 12.78-19.812 0-19.812-12.74 0-12.76 19.812 0 19.812M1568.8 548.54c10.62 0 10.64-16.501 0-16.501-10.62 0-10.63 16.501 0 16.501M53.578 1397.1c-1.837-1.69-4.253-2.94-6.822-2.83-.855.12-1.71.23-2.565.35a9.53 9.53 0 0 0-4.262 2.48c-.764.61-1.533 1.22-2.297 1.82l-1.151.92c-1.506 1.34-2.197 3.24-2.879 5.06-1.205 3.22.223 7.3 2.547 9.63 2.324 2.32 6.399 3.75 9.624 2.54 1.819-.68 3.72-1.37 5.062-2.88l2.742-3.45a7.26 7.26 0 0 0 1.997-3.1q.907-1.725.832-3.72c.001-2.37-1.054-5.19-2.828-6.82M85.975 1422.6a6.6 6.6 0 0 0-.509-1.24 7.24 7.24 0 0 0-1.992-3.09q-.97-.75-1.947-1.5a12.4 12.4 0 0 0-2.383-1c-2.224-.61-3.157-.35-5.367-.02l-.951.15-.473.07c-.641.1-.81.26-1.646.61a8.3 8.3 0 0 0-3.58 2.3c-.413.34-.75.76-1.01 1.25-.982 1.07-1.646 2.34-1.992 3.79l-.113.29q-.785 2.925 0 5.85a10.94 10.94 0 0 0 2.829 4.84 10.86 10.86 0 0 0 4.848 2.83q2.92.78 5.84 0l.3-.11c.887-.37 1.774-.75 2.661-1.12a7.9 7.9 0 0 0 2.374-1.88c.578-.75 1.16-1.51 1.742-2.26.901-1.4 1.042-2.15 1.242-3.44l.141-.95q.62-1.98.178-3.96c-.046-.47-.114-.94-.192-1.41M144.76 1364.9c-2.605 1.37-4.726 3.35-6.502 5.63-5.033 4.83-5.455 12.6-2.035 18.47 2.356 4.04 7.022 6.16 11.584 5.55 2.092-.28 3.829-1 5.499-2.29 1.701-1.31 2.686-2.74 3.523-4.53-.123.28-.243.57-.366.86.994-2.09 1.612-3.66 1.984-5.58l-.106.8c.062-.45.134-.89.203-1.33.024-.15.045-.29.067-.44 3.719-3.82 3.671-10.19.517-14.27-3.461-4.48-9.402-5.5-14.368-2.87M230.77 1274.9c-2.315-5.49-7.901-7.85-13.608-6.68-6.975 1.42-12.811 6.56-13.998 13.53-1.184 4.26.443 9.03 3.446 12.11 4.712 4.85 12.18 6.88 18.215 3.09 4.306-2.7 6.515-7.57 5.644-12.38 1.446-2.97 1.615-6.55.301-9.67M328.6 1211.2c-.045-1.28-.369-2.55-1.06-3.68q-.297-.48-.644-.93a12.05 12.05 0 0 0-4.082-3.96 8.8 8.8 0 0 0-4.448-1.42q-2.379-.54-4.767.21a12 12 0 0 0-5.276 3.08c-1.251 1-2.22 2.38-3.025 3.75-1.496 2.56-1.855 4.79-2.083 7.7-.264 3.31 1.537 6.58 3.702 8.94a12.6 12.6 0 0 0 5.581 3.25c1.678.53 3.361.6 5.039.23a9.5 9.5 0 0 0 4.703-1.5c1.474-.8 2.656-1.88 3.548-3.26 1.119-1.22 1.869-2.65 2.26-4.3q.545-2.025.433-4.05c.235-1.33.312-2.72.119-4.06M412.09 1194.7a10.8 10.8 0 0 0-2.783-4.78 10.9 10.9 0 0 0-4.785-2.79 10.7 10.7 0 0 0-3.682-.35c-.159-.01-.319 0-.483 0-1.073.15-2.143.29-3.217.44q-1.555.465-2.965 1.26l-.846.47c-3.665 2.02-6.327 6.47-6.14 10.69q.223 1.65.446 3.3c.587 2.1 1.651 3.92 3.183 5.46 1.124 1.21 2.452 2.07 3.989 2.56a9.23 9.23 0 0 0 4.771 1.07c4.285 0 8.606-2.34 10.702-6.13l.47-.85c.268-.48.485-.99.649-1.52a9.14 9.14 0 0 0 1.042-4.66l-.021-.16a10.9 10.9 0 0 0-.33-4.01M530.39 1242.3c-7.204-4.03-17.42-5.57-24.615-.64-7.377 5.04-6.618 16.69 2.524 19.34 1.741.5 3.465.85 5.119 1.2 4.2 7.31 11.904 11.36 20.733 12.11 6.877.57 12.644-7.46 10.516-13.81-2.611-7.77-6.941-14.09-14.277-18.2M456.17 1207.2c-1.756-1.33-3.902-2.27-6.129-2.13-4.426.27-7.787 2.33-10.247 5.96-3.293 4.87-2.456 11.72 1.674 15.83 2.829 2.81 6.809 4.55 10.843 4.42 3.62-.12 6.736-1.31 9.892-2.99 2.338-1.26 4.603-4.17 5.194-6.76.578-2.53.446-4.97-.568-7.36-1.789-4.24-6.104-7.09-10.659-6.97M651.97 1264c-.223-.58-.496-1.16-.819-1.71-.587-.77-1.178-1.53-1.765-2.29a11.34 11.34 0 0 0-4.989-2.91c-1.506-.47-3.006-.54-4.512-.2-1.501.06-2.902.51-4.203 1.34a8.5 8.5 0 0 0-3.17 2.91 8.5 8.5 0 0 0-2.024 3.85c-.541 2-.541 4 0 6.01.319.86.778 2.14 1.242 2.94.264.46.792 1.05 1.019 1.34.487.63.628.9 1.055 1.32.76.58 1.515 1.17 2.27 1.75l.204.14c1.283.81 2.67 1.26 4.157 1.32 1.487.34 2.974.27 4.462-.2.891-.37 1.783-.75 2.67-1.12a8.55 8.55 0 0 0 3.138-2.88 5.6 5.6 0 0 0 1.442-2.47 8.4 8.4 0 0 0 .96-4.31c-.076-1.71-.442-3.34-1.137-4.83M65.094 1343.2c-.136-1.02-.273-2.05-.414-3.07q-.579-1.38-1.164-2.76a8.6 8.6 0 0 0-2.974-3.24 5.8 5.8 0 0 0-2.547-1.49 8.74 8.74 0 0 0-4.453-.99h-.873c-5.758-.02-10.706 4.9-10.684 10.68v.87c.141 1.03.277 2.05.414 3.07q.586 1.38 1.164 2.76a8.67 8.67 0 0 0 2.979 3.24 5.7 5.7 0 0 0 2.547 1.49c.9.52 1.874.79 2.916.79a5.9 5.9 0 0 0 3.07 0c1.046 0 2.015-.27 2.92-.79a8.7 8.7 0 0 0 3.716-2.39q.906-1.17 1.805-2.34.586-1.38 1.164-2.76c.141-1.02.278-2.04.414-3.07M81.218 1367.6a10 10 0 0 0-1.467-.56c-.362-.16-.734-.3-1.135-.39-.265-.06-.535-.11-.809-.16-1.128-.43-2.357-.54-3.558-.38-1.85.25-3.721 1.25-5.046 2.68-.229.18-.459.35-.689.53a7.8 7.8 0 0 0-2.147 3.34c-.91 2.16-1.119 4.45-.523 6.76 1.101 4.26 4.162 7.52 8.383 8.83 2.433.76 5.344.83 7.8.06 5.062-1.6 8.31-6.33 7.595-11.64-.577-4.31-4.031-8.3-8.404-9.07m-2.488-.66h.003zM632.61 1192.4l.414-.2c.746-.35 1.11-.58 1.888-1.35a5.7 5.7 0 0 0 1.574-2.45q.716-1.365.655-2.94c0-2.06-.86-3.89-2.229-5.38a7.63 7.63 0 0 0-3.361-1.96l-2.024-.27c-2.029-.09-3.93.9-5.381 2.23a7.6 7.6 0 0 0-1.96 3.36 5.77 5.77 0 0 0-.137 3.04 5.66 5.66 0 0 0 .905 2.83 7.73 7.73 0 0 0 2.729 2.73l.869.41c.464.22.941.42 1.423.6q1.554.42 3.102 0c.51-.16 1.046-.42 1.533-.65M721.29 1347.2a9.9 9.9 0 0 0 3.52 3.52 9.8 9.8 0 0 0 4.959 1.34 9.8 9.8 0 0 0 4.953-1.34 9.9 9.9 0 0 0 3.524-3.52l.515-1.21a10.44 10.44 0 0 0 0-10.52c-1.856-3.16-5.321-5.16-8.992-5.16-3.675 0-7.142 2-8.998 5.16a10.4 10.4 0 0 0-1.419 5.26c.005 1.88.477 3.63 1.419 5.26zM688.4 1450.6c1.605 1.93 4.571 1.87 6.604.86 2.711-1.36 4.717-4.91 6.554-7.25 2.342-2.98 3.711-6.14 2.647-10.01-.955-3.46-3.729-6.23-7.186-7.18-7.609-2.1-14.673 5.09-12.658 12.65.974 3.65 1.578 7.99 4.039 10.93M697.06 1510.7a10.4 10.4 0 0 0-3.693 3.7 10.2 10.2 0 0 0-1.401 5.19c-.273 2.59-.833 5.28-.087 7.83.782 2.68 2.593 4.67 5.131 5.75 2.356.99 5.708 1.2 7.891-.45 1.605-1.22 2.679-2.12 3.775-3.84.273-.43.523-.87.782-1.3.559-.94 1.118-1.87 1.678-2.8 3.429-5.71.177-13.37-6.149-15.11-2.574-.71-5.621-.31-7.927 1.03M650.19 1596.7a9.14 9.14 0 0 0 2.351 4.03c.619.48 1.233.95 1.851 1.43a9 9 0 0 0 4.612 1.25c1.26.05 2.433-.22 3.525-.79q1.7-.555 2.943-1.89a6.9 6.9 0 0 0 1.888-2.94c.573-1.09.837-2.26.787-3.52q-.162-1.215-.323-2.43a9.17 9.17 0 0 0-2.352-4.04c-.618-.47-1.232-.95-1.851-1.42a9.03 9.03 0 0 0-4.616-1.25 6.9 6.9 0 0 0-3.52.78q-1.7.555-2.943 1.89a6.83 6.83 0 0 0-1.887 2.95 6.9 6.9 0 0 0-.791 3.52zM615.77 1636.9c-10.861 0-10.879 16.88 0 16.88 10.866 0 10.884-16.88 0-16.88M1084.4 1030.7c-.44-.16-1.43-.61.29.17-2.65-1.2-6.78-1.06-8.15 2.13-1.07 2.48-1.59 4.41-1.14 7.16.27 1.63.83 3.13 1.63 4.58 1.79 3.21 4.42 5.62 7.38 7.74 4.89 3.48 11.95.25 14.05-4.74 1.08-2.55 1.08-5.08 0-7.63-1.09-2.6-3.46-5.24-6.41-5.74-.36-.06-1.77-.6-2.41-.7l-.76-.46c-.68-.45-1.34-.91-2.02-1.34-.8-.52-1.46-.81-2.46-1.17m5.67 3.22-.13-.08c.57.26 1.19.64.13.08M955.8 1000.1c11.93 0 11.95-18.54 0-18.54-11.93 0-11.95 18.54 0 18.54M939.57 949.37a7.3 7.3 0 0 0 2.66 2.66l.86.41c.46.22.92.41 1.38.59q1.5.405 3 0c.5-.16 1.01-.41 1.49-.63l.41-.2c.73-.35 1.09-.57 1.85-1.32.73-.68 1.24-1.47 1.54-2.39.46-.89.67-1.84.64-2.86 0-2.02-.84-3.8-2.18-5.25a7.4 7.4 0 0 0-3.27-1.91l-1.98-.27c-1.97-.08-3.83.88-5.24 2.18a7.3 7.3 0 0 0-1.91 3.27c-.31.99-.36 1.98-.14 2.96.05.99.34 1.91.89 2.76M1038.3 1029.4c11.68 0 11.7-18.15 0-18.15-11.68 0-11.7 18.15 0 18.15M1158.2 1012.7c10.38 0 10.4-16.12 0-16.12-10.37 0-10.38 16.12 0 16.12M1282.5 1217.5c.46 1.65 1.3 3.09 2.51 4.31l1.98 1.53c1.53.89 3.17 1.33 4.94 1.34 1.35.05 2.6-.23 3.77-.85a7.3 7.3 0 0 0 3.15-2.02c.95-.88 1.62-1.93 2.02-3.14.61-1.17.89-2.42.84-3.77-.12-.87-.23-1.73-.35-2.6a9.8 9.8 0 0 0-2.51-4.31c-.66-.51-1.32-1.02-1.99-1.53a9.7 9.7 0 0 0-4.93-1.34c-1.35-.05-2.6.23-3.77.84-1.21.4-2.26 1.07-3.14 2.02-.96.89-1.63 1.94-2.03 3.15a7.4 7.4 0 0 0-.84 3.77c.12.87.24 1.73.35 2.6M1362.7 1240.7c12.91 0 12.93-20.07 0-20.07-12.91 0-12.94 20.07 0 20.07M1407.9 1163.8c12.59 0 12.61-19.56 0-19.56-12.58 0-12.6 19.56 0 19.56M1451.8 1162.4q.675 2.4 2.43 4.17c.64.5 1.28.99 1.92 1.48a9.4 9.4 0 0 0 4.77 1.3c1.3.04 2.52-.23 3.65-.82a7.04 7.04 0 0 0 3.04-1.96 7.07 7.07 0 0 0 1.96-3.04c.59-1.13.86-2.34.81-3.64l-.33-2.52c-.45-1.6-1.27-3-2.44-4.18-.64-.49-1.28-.98-1.91-1.48a9.55 9.55 0 0 0-4.78-1.29c-1.3-.05-2.52.22-3.65.82a7.1 7.1 0 0 0-3.04 1.95c-.92.86-1.57 1.88-1.96 3.05a7.14 7.14 0 0 0-.81 3.65c.12.83.22 1.67.34 2.51M1482.5 1053.8c12.75 0 12.77-19.82 0-19.82-12.74 0-12.77 19.82 0 19.82M1514 1011.9c-10.78 0-10.8 16.75 0 16.75 10.78 0 10.8-16.75 0-16.75M1509.3 907.93c2.72 1.59 6.19 1.59 8.91 0 2.61-1.53 4.47-4.54 4.37-7.62-.05-1.31-.09-2.61-.17-3.92-.15-2.38-1.18-4.5-3.3-5.74-2-1.17-4.73-1.27-6.72 0-1.04.66-2.07 1.35-3.09 2.04-2.62 1.78-4.37 4.35-4.37 7.62a8.9 8.9 0 0 0 4.37 7.62M1529.7 849.9c10.87 0 10.88-16.89 0-16.89-10.86 0-10.88 16.89 0 16.89M1535.6 796.18c-10.21 0-10.23 15.86 0 15.86 10.21 0 10.22-15.86 0-15.86M1539.3 701.86c4.33.87 8.84-1.24 10.08-5.72 1.15-4.18-1.41-9-5.72-10.07-.02 0-.68-.19-1.13-.32l-.66-.39c-.5-.44-.92-.94-1.36-1.43.01.01-.67-.72-.96-1.02-.35-.46-.7-.91-1.06-1.37l-.06-.09c-.09-.14-.78-1.27-.62-.93-.83-1.64-.99-2.86-1.88-4.59-1.1-2.16-4.55-3.19-6.58-1.73-4.86 3.51-5.82 10.33-4 15.79 2.01 6.06 7.75 10.62 13.95 11.87m2.9-16.2q.06.045 0 0m0 0c-.05-.04-.14-.13-.28-.25l-.04-.04c.16.15.27.24.32.29M1563.1 604.85c11.68 0 11.7-18.159 0-18.159-11.68-.001-11.71 18.159 0 18.159M1632.3 523.7a9.74 9.74 0 0 0 2.53 4.343c.66.514 1.33 1.026 1.99 1.54a9.84 9.84 0 0 0 4.97 1.344c1.35.05 2.62-.232 3.79-.848a7.34 7.34 0 0 0 3.16-2.035c.96-.892 1.65-1.947 2.04-3.168.61-1.171.9-2.435.85-3.791-.12-.873-.24-1.744-.35-2.618a9.8 9.8 0 0 0-2.54-4.341c-.66-.514-1.32-1.028-1.99-1.54a9.77 9.77 0 0 0-4.97-1.344 7.4 7.4 0 0 0-3.79.848 7.3 7.3 0 0 0-3.16 2.036 7.4 7.4 0 0 0-2.04 3.166 7.4 7.4 0 0 0-.85 3.793z"/></g><g fill="#d1a152"><path d="m591.12 1414.5-135.11-76.34c-41.73-23.56-90.632-47.83-135.39-30.83-20.167 7.64-36.468 22.87-51.7 38.14-18.07 18.17-35.813 37.4-46.947 60.55-19.98 41.59-16.16 90.21-11.921 136.18 2.979 32.51 28.222 60.92 54.165 80.67 4.133 3.15 8.476 6.27 12.739 9.5a796 796 0 0 1-5.838-10.41c1.055.05 2.132.03 3.231-.08 5.69-.57 9.342-3.36 11.366-8.65 7.818-20.45-15.255-42.35-21.827-60.33-4.197-11.48-16.867-14.93-25.451-9.44-.649-2.7-1.247-5.43-1.784-8.16-2.901-14.79-3.852-29.81-3.021-44.71a20.6 20.6 0 0 0 6.878 3.25c17.52 4.57 24.788-13.15 26.802-27.05 1.824-12.55 6.149-27.67 5.267-40.26-.712-10.2-7.012-17.08-14.861-19.32 7.655-13.98 16.973-27.06 27.757-38.8 2.929 11.39 16.164 20.82 27.611 16.39 1.096-.42 2.234-.59 3.32-.98 3.593-1.28 6.149-3.07 9.074-5.12.152-.07.592-.31 1.365-.71.26-.14 1.489-.8 2.385-1.29 1.461-.63 5.111-2.3 5.515-2.51.285-.14.498-.25.639-.32q.44-.18.989-.42c-.928.39 6.208-2.97 3.461-1.6-3.593 1.8 8.264-3.19 2.579-1.16 11.078-3.96 16.178-16.28 11.96-25.85 3.181 1.1 6.293 2.5 9.295 4.19 9.41 5.33 18.229 11.93 26.325 19.03 11.108 9.73 21.25 20.51 31.617 31.04-15.475-.24-29.288 17.16-19.559 31.89 3.163 4.79 6.854 8.98 10.499 13.36-3.447-4.11 4.698 6.47 6.233 8.19 3.17 3.55 6.836 6.64 10.775 9.33 14.395 9.82 36.454 12.16 50.913 1.48 4.243-3.13 7.601-8.62 8.03-14.07 26.515 12.88 55.674 20.36 85.117 21.67 2.694-8.21 5.73-16.31 9.115-24.27 5.358-12.62 5.312-9.17 12.158-21.05.701-1.26 1.492-2.7 1.628-4.15l.05-1.02c-.327-2.8-3.028-4.57-5.448-5.96zM1044.3 1759.9c1.99-15.49-6.2-27.36-15.94-38.88-8.87-10.49-19.59-22.91-32.18-28.84-10.59-4.99-24.66 2.32-25.89 12.86-11.31-8.63-23.04-17.01-34.43-25.6 3.78-2.42 6.65-6.95 6.31-11.32-1.14-14.71-13.31-22.95-22.48-33.15-8.83-9.81-15.05-22.2-25.924-29.85-7.909-5.55-17.87-.49-21.404 7.32a104 104 0 0 1-4.957-11.65c-6.712-18.97-8.929-38.71-7.995-58.59a181 181 0 0 0-4.882 20.22c-6.472 35.91 5.776 73.17 25.757 103.63 19.98 30.5 47.315 55.38 74.285 79.92 33.11 30.09 30.46 61.94 36.75 106.24 3.77 26.45 2.18 54.63-10.77 78.01-3.45 6.27-7.86 12.1-12.96 17.22 22.47-14.05 41.87-32.92 55.26-55.72 19.12-32.57 25.15-73.29 13.14-109.1-1.39-4.15-3.04-8.16-4.92-12.04 7.15 2.04 12.41-4.36 13.23-10.68M1453 1472.7c-4.99-25.8-16.9-48.16-33.17-67.84-18.32 11.41-37.35 21.72-57.01 30.8-57.48 26.5-119.79 12.53-180.8-4.38-11.9-3.3-23.89-6.74-35.95-10.03 40.83 25.45 91.11 40.48 118.75 81.95 1.46 2.18 2.81 4.4 4.07 6.66-7.54 16.86-8.3 35.06-1.08 52.41 3.14 7.57 8.15 16.58 14.69 22.99-1.15 13.3-3.7 26.57-7.18 39.28l-.54 1.93c-21.57 9.66-33.31 38.91-32.7 60.99.19 6.73 1.21 13.82 3.52 20.35-4.2 11.68-8.06 23.46-11.11 35.5-1.84 7.26-3.4 14.83-2.08 22.21 1.7 9.51 7.88 17.09 16 22.46 6.88 4.55 15.15 7.51 23.25 8.73 30.9 4.62 62.44-9.3 85.18-30.72 22.75-21.42 37.89-49.62 50.52-78.2a640.5 640.5 0 0 0 41.41-129.44c5.8-28.18 9.69-57.39 4.23-85.65M995.61 1408c-14.97 3.41-29.34 9.12-42.83 16.68 2.26 12.68 3.74 23.75 3.49 31.95-.59 18.51-2.81 37.26 1 55.38s15.25 36.06 33.01 41.31c13.4 3.96 26.92.04 38.92-7.56 8.7-5.52 16.6-12.97 23.06-20.76 26.94-32.51 41.73-72.73 48.93-114.68-35.25-7.21-70.71-10.26-105.58-2.32M943.17 858.36c20.91-38.75 14.85-86.91-1.17-127.94a274 274 0 0 0-15.51-33.16c-16.39-29.76-38.329-56.45-65.154-77.27-23.705-18.39-52.255-32.317-82.25-31.851-85.975 1.258-104.37 107.35-95.662 182.29.73 6.21 1.65 12.22 2.73 17.94 1.261 6.68 2.742 12.97 4.397 18.71 8.478 29.25 22.959 57.43 45.737 77.64 20.958 18.58 48.111 29.53 75.869 33.11 19.651 2.52 40.152.88 59.297-4.7 30.131-8.78 56.906-27.32 71.716-54.77zm-161.81-14.41c-5.319.15-9.934-1.08-13.793-3.27-10.716-6.09-15.594-19.58-13.459-31.48-6.037-2.93-11.301-7.74-14.837-13.75-17.015-28.94 7.25-73.21 42.944-62.73 16.419 4.83 25.552 21.78 25.243 38.13a45 45 0 0 1-.798 7.6c11.782-4.16 23.323-8.92 35.201-14.17 15.132-6.7 39.829-15.62 46.651 6.43 6.941 22.43-20.985 44.3-37.618 53.93-9.928 5.74-20.775 10.25-32.001 13.46-12.293 3.53-25.04 5.5-37.533 5.85M1161.1 770.75c3.25 17.93 7.82 36.1 18.07 51.19 10.16 14.99 26.99 26.6 45.13 26.31h.18c12.76-.23 24.78-6.24 35.03-13.83 32.5-23.99 49.88-63.85 52.35-104.51a74 74 0 0 1-8.2 5.03c-9.79 5.21-19.83 9.46-29.73 9.54-7.25.06-14.43-2.13-21.36-7.82-2.11-1.73-3.67-4.1-4.71-6.74a26.8 26.8 0 0 1-5.8-4.14c-8.27-7.71-15.71-16.46-18.14-27.82-1.29-6.03-1.38-12.27.47-18.08-.21-1.51-.3-3.04-.26-4.57.33-13.38 11.91-24.23 25.3-24.23 17.36 0 31.13 15.57 35.93 30.99.2.63.38 1.27.55 1.91 6.49-3.63 12.94-6.88 20.12-9.5-11.13-42.01-35.67-80.105-64.5-113.03-7.63-8.69-15.01-14.486-21.98-17.847-28.17-13.572-49.78 12.582-54.82 48.493a1578 1578 0 0 0-1.97 14.336c-6.02 44.95-10.12 88.35-5.95 133.11.98 10.3 2.38 20.73 4.29 31.21zM1624.3 590.05a151.5 151.5 0 0 0-14.16 28.971c-42.77 117.99 69.38 265.22 70.12 399.22 1.27-23.66-.65-48.94-1.27-67.78-.26-8.04-.68-16.06-1.23-24.07 10.35 3.54 22.97-.3 25.9-13.28 5.66-25.14 10.73-69.83-18.05-83.44-5.37-2.54-12.98-1.85-15.95 4.18a42 42 0 0 0-2.18 5.33c-2.96-18.79-6.26-37.53-9.67-56.25 13.52 2.98 29.18-4.36 27.72-21.52-2.2-25.94-3.29-63.96-22.21-84.71-2.08-5.1-4.74-9.41-8.28-11.39l-1.21-.68c-4.76-2.66-9.65-2.97-14.07-1.53.13-5.19.58-10.36 1.45-15.5 1.76-10.4 5.21-20.4 9.72-29.96 6.59 7.87 19.54 10.74 27.63 1.93 6.48-7.06 13.6-13.77 20.45-20.52 8.6-8.481 19.33-16.441 18.09-30.106-.81-8.887-5.24-14.188-13.29-17.463-.89-.36-1.77-.655-2.65-.89a244 244 0 0 1 26.61-21.676c3.43-2.42 7.05-5.458 10.22-8.809-45.71 4.774-89.23 30.875-113.69 69.943"/></g><path fill="#f0c47c" d="M1257 1724.9c11.88 9.77 27.42 7.09 37.36-3.74 15.14-16.49 29.43-45.46 19.68-66.56-.15-17.23-11.32-34.38-30.91-30.74-2.94.55-5.74 1.44-8.39 2.62-21.57 9.66-33.31 38.91-32.7 60.99.19 6.73 1.21 13.82 3.53 20.35 2.33 6.59 5.99 12.6 11.43 17.08m4-62.14c.24-3.93 1.66-7.77 4.02-11.11 1.82-2.58 5.84-3.51 8.1-1.22 2.76-.16 5.64 2.34 5.52 5.18-.1 2.32-.31 4.61-.61 6.87.27 8.97-2.27 17.66-7.77 25.18-.37.51-.8.93-1.27 1.27-.28.47-.56.94-.85 1.41-2.11 3.47-8.36 3.24-9.21-1.2-.4-2.13-.66-4.25-.77-6.35-1.32-7.09-.25-14.01 2.84-20.03M1309.6 1591.3c17.56-8.22 22.64-32.05 19.68-49.47-3.35-19.73-17.35-39.15-36.36-45.89-8.34-2.96-16.49 1.61-20.72 8.52-.9.87-1.69 1.93-2.3 3.2-.36.74-.71 1.48-1.04 2.22-7.54 16.86-8.31 35.06-1.08 52.42 3.14 7.56 8.14 16.58 14.68 22.98 7.29 7.13 16.48 11.01 27.14 6.02m-14.71-31.02a4.73 4.73 0 0 1-2.25 2.83c-.51 1.83-1.18 3.64-2 5.4-1.77 3.79-6.68 1.98-7.94-1.04-1.93-4.63-3.5-9.32-4.73-14.1-4.38-7-5.72-15.74-3.03-24.05.73-2.24 2.8-3.48 4.86-3.28 1.66-.49 3.63-.1 5.07 1.1 2.95 2.45 5.34 5.34 7.15 8.5 1.5-.02 2.97.82 3.5 2.74.8 2.93.84 5.77.33 8.49.61 4.38.31 8.94-.96 13.41"/><path fill="#845817" d="M1258.6 1689.1c.85 4.44 7.09 4.67 9.21 1.2.28-.47.56-.94.84-1.42.47-.33.9-.75 1.27-1.26 5.5-7.52 8.04-16.21 7.77-25.17.3-2.26.5-4.55.61-6.87.12-2.84-2.77-5.34-5.52-5.18-2.26-2.29-6.28-1.36-8.1 1.23-2.35 3.33-3.78 7.17-4.02 11.09-3.09 6.03-4.16 12.95-2.83 20.03.11 2.1.36 4.22.77 6.35M1295.2 1538.4c-.53-1.92-1.99-2.76-3.5-2.74-1.81-3.16-4.2-6.04-7.14-8.49-1.44-1.2-3.41-1.59-5.07-1.1-2.06-.2-4.13 1.04-4.86 3.28-2.69 8.31-1.35 17.03 3.03 24.04 1.23 4.77 2.8 9.47 4.72 14.09 1.26 3.02 6.18 4.83 7.95 1.04.82-1.76 1.48-3.57 1.99-5.39 1.05-.6 1.9-1.58 2.25-2.83 1.27-4.47 1.57-9.03.96-13.41.52-2.72.47-5.56-.33-8.49"/><g fill="#f0c47c"><path d="M1052.3 1525c26.94-32.51 41.73-72.73 48.93-114.68-35.25-7.21-70.71-10.26-105.58-2.32-14.97 3.41-29.34 9.12-42.83 16.68 2.26 12.69 3.75 23.75 3.49 31.95-.58 18.51-2.81 37.26 1 55.38s15.25 36.06 33.01 41.31c13.4 3.96 26.92.04 38.92-7.56 8.7-5.52 16.6-12.97 23.06-20.76M741.64 834.14c8.398 3.21 17.087 5.34 25.922 6.54-10.715-6.09-15.594-19.58-13.459-31.48-6.037-2.93-11.301-7.73-14.837-13.75-17.015-28.94 7.25-73.21 42.945-62.73 16.419 4.83 25.552 21.78 25.242 38.13a45 45 0 0 1-.798 7.6c11.782-4.16 23.323-8.92 35.201-14.17 15.132-6.7 39.829-15.62 46.651 6.43 6.94 22.43-20.986 44.3-37.619 53.93-9.928 5.74-20.775 10.25-32.001 13.47 9.541-2.08 18.924-4.97 27.962-8.49 36.518-14.2 71.26-42.1 78.67-80.61 3.3-16.96.97-34.42.97-51.75-16.39-29.76-38.328-56.45-65.154-77.26-23.705-18.4-52.254-32.326-82.25-31.86-85.975 1.258-104.37 107.35-95.663 182.29 11.598 29.11 27.385 51.88 58.218 63.71M1164.7 592.1c-.68 4.799-1.34 9.582-1.97 14.342-6.03 44.95-10.12 88.34-5.95 133.11 4.15 11.5 12.06 21.14 30.74 27.1 14.11 4.52 29.57 3.78 43.92 0 15.59-4.07 30.13-11.8 42.46-22.17-7.25.06-14.43-2.13-21.36-7.82-2.11-1.73-3.67-4.1-4.71-6.74a26.8 26.8 0 0 1-5.8-4.14c-8.27-7.71-15.71-16.46-18.14-27.82-1.29-6.03-1.38-12.27.47-18.08-.21-1.5-.3-3.03-.26-4.57.33-13.38 11.91-24.23 25.3-24.23 17.36 0 31.13 15.57 35.93 30.99.2.63.38 1.27.55 1.91 6.49-3.63 12.95-6.88 20.13-9.5-11.14-42.01-35.68-80.105-64.51-113.03-7.63-8.69-15.01-14.486-21.98-17.847-28.17-13.567-49.78 12.586-54.82 48.497z"/></g><g fill="#845817"><path d="M446.92 1437.6c-5.561-3-10.421-6.83-15.263-10.85-5.879-4.89-13.568 2.6-8.443 8.44 7.739 8.82 24.089 21.49 36.646 17.99 3.101-.86 3.874-4.62 1.819-6.89-3.856-4.26-9.79-6.01-14.759-8.69M342.38 1352.3c-11.585-2.51-23.92 4.34-32.049 12.08-3.638 3.47 1.155 9.99 5.46 7.08 4.342-2.93 8.853-5.67 13.681-7.73 4.524-1.93 9.348-3.39 13.64-5.81 2.223-1.25 1.877-5.05-.732-5.62M1010.4 1725.1c3.08 3.36 5.74 6.76 9.73 9.13 1.91 1.15 4.93-.29 4.72-2.7-.49-5.61-3.36-9.74-7.14-13.74-4.04-4.27-7.78-6.95-13.23-8.93-3.74-1.36-5.66 3.58-3.55 6.09 3 3.56 6.3 6.71 9.47 10.15"/></g><path fill="#f5de19" d="M1838.3 436.52a62.78 62.78 0 0 0 39.18-12.95 59.4 59.4 0 0 0 20.12-33.95 381.2 381.2 0 0 0 5.35-73.6c.2-34.75.83-57.642 1.88-68.675a130.7 130.7 0 0 1 10.45-42.15 75.5 75.5 0 0 1 18.87-25.45 76.2 76.2 0 0 1 28.8-14.5 169 169 0 0 1 38.6-3.125h17.5v49h-9.67a58.46 58.46 0 0 0-43.08 11.7 85 85 0 0 0-10.62 52.3c.83 34.479-.31 68.977-3.43 103.32a118.4 118.4 0 0 1-19.2 51.5 114.2 114.2 0 0 1-42.6 32.175 95.24 95.24 0 0 1 49.8 43.85 221.44 221.44 0 0 1 15.45 96.62c0 40.59.42 64.75 1.25 72.5a43.9 43.9 0 0 0 12.6 29.53 65.94 65.94 0 0 0 39.8 8.42h9.68v49.08h-17.5c-14.95.69-29.91-1-44.33-5a74.3 74.3 0 0 1-33.1-23.25 83.8 83.8 0 0 1-17.02-40.75 603 603 0 0 1-4.13-80.85 412 412 0 0 0-5.35-77.65 60.25 60.25 0 0 0-20.12-34.025 62.24 62.24 0 0 0-39.18-13.1zM2437.6 487.4a62.2 62.2 0 0 0-39.17 13.1 60.2 60.2 0 0 0-20.13 34.025 412 412 0 0 0-5.3 77.72c.4 27.02-1.01 54.03-4.22 80.86a83.8 83.8 0 0 1-17.03 40.74 74.16 74.16 0 0 1-33.1 23.25 141.4 141.4 0 0 1-44.32 5.01h-17.5v-48.98h9.67a65.95 65.95 0 0 0 39.8-8.43 43.83 43.83 0 0 0 12.65-29.65c.83-7.69 1.25-31.86 1.25-72.49a221.5 221.5 0 0 1 15.45-96.63 95.25 95.25 0 0 1 49.8-43.8 114.2 114.2 0 0 1-42.5-32.15 118.4 118.4 0 0 1-19.2-51.5 900 900 0 0 1-3.42-103.32 85.07 85.07 0 0 0-10.63-52.3 58.44 58.44 0 0 0-43.07-11.7h-9.68V162.13h17.5c12.91-.433 25.83.616 38.5 3.125a76.25 76.25 0 0 1 28.73 14.525 75.7 75.7 0 0 1 18.87 25.45 130.7 130.7 0 0 1 10.45 42.15c1.03 11.033 1.66 33.925 1.88 68.675a380.4 380.4 0 0 0 5.3 73.675 59.4 59.4 0 0 0 20.12 33.875 62.76 62.76 0 0 0 39.18 12.95z"/><defs><linearGradient id="a" x1="642.04" x2="2247.5" y1="1285.3" y2="1374.1" gradientTransform="translate(-97 -402.88)" gradientUnits="userSpaceOnUse"><stop offset="0" stop-color="#66A2D5"/><stop offset="1" stop-color="#9AE2D9"/></linearGradient></defs></svg>