<svg xmlns="http://www.w3.org/2000/svg" fill="none" viewBox="0 0 66.295 56.747"><g fill="#002cc4"><path d="M27.187 51.376c-1.084-1.018-.926-2.771.403-4.492.985-1.274 5.1-5.448 8.069-8.186l1.2-1.106-1.91-4.097c-2.142-4.594-2.131-4.682.695-4.997l1.556-.172 1.74 2.629c.955 1.446 1.877 2.628 2.042 2.628s1.882-1.376 3.811-3.057c3.35-2.921 3.559-3.05 4.694-2.896.684.095 1.292.037 1.435-.135.337-.403 1.303.194 1.303.805 0 .253-.483.89-1.069 1.417-2.405 2.16-7.534 7.271-7.534 7.505 0 .14 1.032 1.922 2.299 3.965l2.138 3.456a.4.4 0 0 1-.044.483l-.509.392c-.384.425-.644.758-.696 1.175.092.257-.293.381-.64.542-.883.41-1.534-.091-4.229-3.254-1.234-1.45-2.365-2.64-2.515-2.644-.333-.007-4.02 4.024-6.872 7.513-2.515 3.075-4.73 3.137-5.37 2.533zM24.196 27.458c-.015-.022-.033-.044-.044-.062-5.616-8.384-9.687-9.86-9.54-9.951 2.134-1.373 6.139-.026 8.614 2.175.03.025.058.058.091.088.593.505.729.688 1.44 1.479.127 0 2.866-4.551 2.884-4.58 5.514-8.695 11.28-12.371 14.626-12.363 1.596 0 1.834.556 1.834.556-5.422 2.83-10.009 7.875-14.747 17.167a456 456 0 0 1-3.708 7.25c-.242.438-.282-.217-1.446-1.758z"/><path d="M5.843 27.908c1.501-.37 2.654-.893 3.47-1.574q1.22-1.021 1.674-2.439.455-1.417.454-3.148V11.88q.001-2.593.611-4.269.611-1.675 2.083-2.471 1.475-.797 4.046-.798V0Q14.923 0 12.704.71c-1.48.472-2.658 1.197-3.548 2.17-.89.975-1.526 2.209-1.918 3.702q-.587 2.24-.586 5.298v7.095q.001 3.635-1.475 5.188c-.981 1.036-2.71 1.552-5.177 1.552v5.32q3.7-.001 5.177 1.552c.98 1.036 1.475 2.764 1.475 5.188v7.091q-.001 3.059.586 5.298.586 2.24 1.918 3.701c.89.974 2.069 1.699 3.548 2.171q2.217.709 5.477.71v-4.345q-2.571 0-4.046-.81-1.471-.807-2.083-2.47-.61-1.663-.611-4.258v-8.868q.001-1.728-.454-3.148-.455-1.417-1.673-2.438-1.22-1.02-3.47-1.575c-.191-.047-.407-.08-.612-.12v-.685c.205-.04.42-.077.611-.12zM60.452 27.908c-1.501-.37-2.654-.893-3.47-1.574q-1.22-1.021-1.674-2.439-.455-1.417-.454-3.148V11.88q-.001-2.593-.611-4.269-.611-1.675-2.083-2.471-1.474-.797-4.046-.798V0q3.257.001 5.477.71c1.48.472 2.658 1.197 3.548 2.17q1.33 1.463 1.918 3.702.587 2.24.586 5.298v7.095q-.001 3.635 1.475 5.188c.981 1.036 2.71 1.552 5.177 1.552v5.316q-3.7-.001-5.177 1.552c-.98 1.036-1.475 2.764-1.475 5.188v7.092q.001 3.057-.586 5.297-.586 2.241-1.918 3.701-1.33 1.463-3.548 2.171-2.217.71-5.477.71v-4.345q2.572 0 4.046-.81 1.471-.806 2.083-2.47c.612-1.664.611-2.526.611-4.258v-8.867q-.001-1.727.454-3.149.455-1.416 1.673-2.438 1.22-1.021 3.471-1.574c.19-.048.406-.08.611-.121v-.685c-.205-.04-.42-.077-.611-.12z"/></g></svg>