<svg version="2.0" viewBox="0 0 37.918 49.995" xmlns="http://www.w3.org/2000/svg" xmlns:xlink="http://www.w3.org/1999/xlink"><g style="mix-blend-mode:normal"><use transform="translate(30.9)" width="100%" height="100%" fill="#767677" style="mix-blend-mode:normal" xlink:href="#prefix__path7_fill"/><g style="mix-blend-mode:normal"><use transform="translate(1.3 30.7)" width="100%" height="100%" fill="#f37726" style="mix-blend-mode:normal" xlink:href="#prefix__path8_fill"/><use transform="translate(1.3 4.2)" width="100%" height="100%" fill="#f37726" style="mix-blend-mode:normal" xlink:href="#prefix__path9_fill"/><use transform="translate(1.4 42.5)" width="100%" height="100%" fill="#989798" style="mix-blend-mode:normal" xlink:href="#prefix__path10_fill"/><use transform="translate(0 4.8)" width="100%" height="100%" fill="#6f7070" style="mix-blend-mode:normal" xlink:href="#prefix__path11_fill"/></g></g><defs><path id="prefix__path7_fill" d="M5.894 2.844a2.993 2.993 0 01-.426 1.672 2.957 2.957 0 01-1.275 1.152 2.926 2.926 0 01-3.238-.504 2.997 2.997 0 01-.776-3.21A2.97 2.97 0 011.208.574 2.932 2.932 0 014.94.783c.576.532.919 1.274.953 2.061z"/><path id="prefix__path8_fill" d="M18.265 7.134C10.415 7.134 3.559 4.258 0 0a19.505 19.505 0 007.069 9.473c3.273 2.342 7.187 3.6 11.2 3.6s7.927-1.258 11.2-3.6A19.505 19.505 0 0036.537 0C32.97 4.258 26.114 7.134 18.264 7.134z"/><path id="prefix__path9_fill" d="M18.273 5.94c7.85 0 14.706 2.876 18.265 7.133A19.505 19.505 0 0029.469 3.6C26.196 1.258 22.282 0 18.27 0s-7.927 1.258-11.2 3.6a19.505 19.505 0 00-7.068 9.473C3.568 8.825 10.424 5.94 18.274 5.94z"/><path id="prefix__path10_fill" d="M7.428 3.583c.032.741-.154 1.475-.536 2.11S5.95 6.831 5.284 7.144a3.688 3.688 0 01-4.082-.638A3.754 3.754 0 01.105 4.632 3.778 3.778 0 01.227 2.46 3.744 3.744 0 011.526.72 3.696 3.696 0 016.23.988a3.76 3.76 0 011.198 2.595z"/><path id="prefix__path11_fill" d="M2.275 4.396a2.166 2.166 0 01-1.227-.318 2.193 2.193 0 01-.845-.951A2.216 2.216 0 01.575.71 2.163 2.163 0 012.93.134c.406.15.758.417 1.012.769a2.211 2.211 0 01-.156 2.784c-.39.43-.934.684-1.511.71z"/></defs></svg>
