<svg version="1.1" viewBox="0 0 99.7 100" xmlns="http://www.w3.org/2000/svg"><title>Group</title><desc>Created with Sketch.</desc><g transform="translate(-.4 -.3)" fill="none" fill-rule="evenodd"><g id="a" transform="translate(-150,-538)"><g id="b" transform="translate(0,413)"><g id="c" transform="translate(150,125)"><path d="m57.8 27.2-0.1-26.9h-15l0.1 26.9 7.5 10.3z" fill="#fff"/><path d="m42.8 73.3v27h15v-27l-7.5-10.3z" fill="#fff"/><path d="m57.8 73.3 15.8 21.8 12.1-8.8-15.8-21.8-12.1-3.9z" fill="#00f2e6"/><path d="m42.8 27.2-15.9-21.8-12.1 8.8 15.8 21.8 12.2 3.9z" fill="#00f2e6"/><path d="m30.6 36-25.6-8.3-4.6 14.2 25.6 8.4 12.1-4z" fill="#00b9f1"/><path d="m62.4 54.2 7.5 10.3 25.6 8.3 4.6-14.2-25.6-8.3z" fill="#00b9f1"/><path d="m74.5 50.3 25.6-8.4-4.6-14.2-25.6 8.3-7.5 10.3z" fill="#d63aff"/><path d="m26 50.3-25.6 8.3 4.6 14.2 25.6-8.3 7.5-10.3z" fill="#d63aff"/><path d="m30.6 64.5-15.8 21.8 12.1 8.8 15.9-21.8v-12.7z" fill="#fb015b"/><path d="m69.9 36 15.8-21.8-12.1-8.8-15.8 21.8v12.7z" fill="#fb015b"/></g></g></g></g></svg>
