<svg xmlns="http://www.w3.org/2000/svg" viewBox="0 0 793.7 916.1"><path fill="#185f85" d="M198.2 717.9v83.8l126.1 72.1 30.7 18.3 41.5 24 29.1-52.5 12.4-56.1-41.5-36.4-198.3-115.2z"/><path fill="#0d84be" d="M793.7 687.3V228.8l-83.1-2.9-17.5 27-25.5 48.8v312.7L396.5 771.1v145c132.6-76.5 264.6-153 397.2-228.8"/><path d="M125.4 387V157.4L0 230.3v458.5l125.4 72.1V532.1l271.1 156.7V543l-145-83.8 145-83.8V230.3z" style="fill:#2a2d31" transform="translate(0 -1.5)"/><path fill="#1a9bd7" d="M396.5 0c132.6 76.5 264.6 152.3 397.2 228.8l-72.9 42.3-53.2 30.6L396.5 145 198.2 259.4v-145z"/></svg>