<svg xmlns="http://www.w3.org/2000/svg" version="1.0" viewBox="0 0 120 40.541"><path d="M4.618 27.925q-.449.448-.874.538-.426.09-2.264.135H0v2.062h.493q.762-.135 6.456-.135c5.694 0 5.948.045 6.456.135h.493v-2.062h-1.48q-2.646-.044-3.004-.538-.135-.179-.135-4.394v-4.259l2.062-2.018a84 84 0 0 0 2.063-1.972q.313-.313.538-.493l3.901 5.873q3.496 5.38 3.99 6.098.135.269.135.538 0 1.166-2.062 1.166h-.359v2.062h.493q.941-.135 6.412-.135.404 0 1.211.022t1.255.022 1.143.022q.695.023 1.031.045c.336.022.366.022.426.022h.359v-2.062h-.942q-1.883-.044-2.69-.493a3.2 3.2 0 0 1-1.076-1.031l-5.179-7.779q-4.91-7.375-4.91-7.42t3.99-3.901 4.215-4.08Q27.258 2.279 30.62 2.1h.628V.037h-.269q-.045 0-.314.022-.27.023-.762.045a19 19 0 0 1-.852.022q-.313 0-.942.022-.628.022-.986.022-5.112 0-5.873-.135h-.448v2.062h.179l.202.022.247.022q1.255.314 1.255 1.3-.09.36-.179.493-.09.18-6.636 6.591l-6.546 6.367-.045-6.95q0-6.994.045-7.084.09-.762 2.511-.762h2.062V.037h-.493q-.764.135-6.456.135Q1.254.172.492.037H0v2.062h1.48q1.838.045 2.264.135c.426.09.575.24.874.538zm34.924-16.858h1.793v-.269q.044-.179.135-1.076.358-4.797 1.793-6.008 1.12-.942 3.049-1.255.447-.044 2.556-.045h1.211q1.03 0 1.278.067.246.067.381.471.044.09.045 12.509v12.375q-.36.493-1.121.628-1.614.135-4.035.135h-1.345v2.062h.583q.941-.135 8.25-.135 7.308 0 8.25.135h.583v-2.062h-1.345q-2.421 0-4.035-.135-.763-.134-1.121-.628V15.461q0-12.419.045-12.509.134-.404.381-.471.246-.067 1.278-.067h1.211q2.511 0 3.452.224 1.703.493 2.466 1.435 1.12 1.3 1.435 5.649.09.897.135 1.076v.269h1.793v-.269q0-.09-.404-5.111-.404-5.02-.448-5.111v-.27H40.394v.269q0 .09-.404 5.111-.404 5.022-.448 5.111zm60.461 19.593v-2.062h-.359q-.987-.09-1.704-.583c-.717-.493-.717-.702-.717-1.121q0-.314.045-.359.044-.135 3.004-4.618.671-1.031 1.166-1.816.493-.784.829-1.3.336-.515.56-.829c.224-.314.254-.343.314-.404l.135-.135 1.659 2.556a514 514 0 0 1 3.273 5.111q1.614 2.556 1.614 2.69 0 .314-.942.56t-1.704.247h-.269v2.062h.493q1.03-.135 6.546-.135 4.977 0 5.649.135H120v-2.062h-1.39q-1.749-.044-2.376-.179-.628-.135-.986-.538-.135-.135-4.73-7.308t-4.596-7.263q0-.044 2.959-4.663 3.138-4.708 3.273-4.842 1.524-1.569 5.201-1.704h.762V.037h-.359q-.538.135-4.932.135-5.202 0-5.784-.135h-.404v2.062h.359q1.39.135 2.062.897.582.583.314 1.076 0 .045-2.331 3.654t-2.376 3.609q-.09 0-2.757-4.192t-2.668-4.327q.09-.223 1.031-.471t1.704-.247h.224V.037h-.493q-.987.135-6.546.135-4.977 0-5.649-.135h-.404v2.062h1.525q2.421 0 3.228.673.134.135 4.125 6.367t3.99 6.322q0 .045-3.564 5.515a2726 2726 0 0 1-3.744 5.739q-1.435 1.749-5.425 1.883h-.763v2.062h.359q.538-.135 4.932-.135 5.2 0 5.784.135z"/><path d="M37.736 15.499h-3.429q-3.396 0-3.396-.034l1.715-5.077 1.681-5.043.672 1.984a629 629 0 0 1 1.715 5.077zm-6.153 8.573v-1.547h-.168q-.74 0-1.395-.286-.656-.285-.857-.723a.5.5 0 0 1-.101-.303q0-.201.672-2.185l.672-1.984h7.834l.807 2.387q.807 2.42.807 2.488 0 .605-2.353.605h-.437v1.547h.336q.504-.1 4.841-.101 3.765 0 4.27.101h.303v-1.547h-1.009q-1.749-.034-2.118-.37a1.3 1.3 0 0 1-.235-.336q-.774-2.387-4.018-11.969C36.19.267 36.178.256 36.156.233Q36.021.035 35.348 0h-.303q-.539 0-.639.269-.034.034-1.765 5.194a16100 16100 0 0 1-5.262 15.65q-.673 1.311-3.093 1.412h-.504v1.547h.235q.403-.1 3.396-.101 3.261 0 3.866.101zm36.735 13.734q-.449.448-.874.538-.426.09-2.264.135H63.7v2.062h26.229v-.135q.09-.135.964-5.986c.874-5.851.889-5.896.919-5.986v-.135h-1.793v.135q-.045.09-.224 1.211-.404 2.69-1.031 4.349-.763 2.063-2.219 3.071-1.457 1.01-4.058 1.323-.628.045-4.663.045h-2.287q-2.062 0-2.331-.224-.135-.09-.179-.314-.045-.09-.045-6.142v-6.008h2.421q2.915.045 3.587.269 1.255.36 1.704 1.278.448.92.538 2.802v.897h1.793V18.437h-1.793v.897q-.09 1.883-.538 2.802-.449.92-1.704 1.278-.672.225-3.587.269h-2.421v-5.425q0-5.469.045-5.56.135-.447.538-.493.359-.09 4.842-.09 2.6 0 3.049.045 3.676.225 5.179 1.771 1.502 1.547 2.04 5.761.09.807.135.942v.179h1.793v-.179q0-.044-.628-5.201l-.628-5.201v-.179H63.7v2.062h1.48q1.838.045 2.264.135c.426.09.575.24.874.538z"/></svg>