<svg xmlns="http://www.w3.org/2000/svg" fill-rule="evenodd" stroke-linejoin="round" stroke-miterlimit="2" clip-rule="evenodd" viewBox="0 0 430 276.63"><g fill="#c33" fill-rule="nonzero"><path d="M205.082 226.803c-69.497-2.5-164.393-34.2-184.092-80.002-17-41.7-.1-90.202 80.096-124.703 47.599-19.8 119.596-25.4 175.094-20.3 78.697 7.2 153.694 47.9 153.794 48.1V107l-.1 3.8s-24.4-22.1-54.898-39.9c-28.699-16.801-54.998-28.601-107.196-33.402-12.2-1.1-32.999-3.9-66.697.8-13.6 1.9-32.8 3.3-75.997 22.301-14 6.7-26.9 13.8-36.9 22.1-5.199 4.3-12.299 10.4-17.298 15.6-12.3 15.401-18.8 27.002-15.7 48.002 3.6 15.8 10.6 25.7 30.899 40.801 8.8 6.6 9.8 6.5 13.7 8.5 36.298 18.8 65.297 25.701 106.695 30.901"/><path d="M208.882 48.799c69.698-.3 168.494 27.6 194.193 72.601 22.499 40.902 12.1 90.003-63.298 127.504-44.798 21.7-115.895 30.1-171.893 27.2-79.497-4.1-159.694-41.8-159.794-41.9l-7.6-56.902-.5-3.8s27.3 21.1 60.098 37.7c30.899 15.601 58.698 26.401 111.396 29.101 12.3.7 33.398 2.5 66.397-3.4 13.3-2.4 32.299-4.6 72.797-25.2 13.1-7.2 25-14.8 33.8-23.5 4.599-4.501 10.899-10.901 15.199-16.201 10.2-15.9 15.199-27.7 9.3-48.501-5.7-15.6-14-25.201-36.2-39.501-9.6-6.2-10.6-6.1-14.799-8-38.698-17.301-68.497-23.001-110.596-26.601"/></g></svg>