<svg xmlns="http://www.w3.org/2000/svg" viewBox="0 0 260.54 157.24"><g transform="translate(-12.411 -34.278)"><path fill="#8f5444" d="m44.198 191.47 12.118.05-.429-12.24-11.241.05zm125.972-.22 12.12.05-.43-12.24-11.24.04z"/><path fill="#b7673c" d="m44.214 180.27 137.886.05-4.87-12.24-127.917.05z"/><path fill="#75c5f0" d="M12.411 88.454v28.378c.88 1.388.476 17.098 1.096 20.51 1.143 6.286.822 13.449 2.05 19.557.556 2.773 1.147 6.585 2.456 8.507 2.027 2.977 3.52 2.51 7.426 3.216 4.144.75 15.912.451 20.832.451h139.95c15.093 0 22.497-4.958 28.117-14.52 4.93-8.386 8.66-17.95 14.004-25.983 4.239-6.373 6.216-9.098 12.202-10.54 12.952-3.119 2.708-2.154 15.997-2.154V87.499c-11.99-.637-4.63 1.423-15.762-1.935-11.601-4.38-18.085-20.622-23.53-31.613-2.685-5.42-9.867-12.502-14.578-15.805-6.765-4.743-12.896-3.543-23.868-3.543-18.267 0-35.987-.322-54.498-.322H58.52c-8.559 0-16.646.322-24.83.322-10.414 0-15.361-1.12-17.345 7.808-1.7 7.643-1.474 14.391-2.717 22.436-.377 2.438-1.018 23.289-1.221 23.609z"/><path fill="#75c5f0" d="M250.8 84.978v30.958c0 2.595 2.029 5.482 4.515 5.482h3.854c2.5 0 2.507-5.787 2.507-8.566h-5.145c-1.327 0-.582 1.207-.582-.189l.01-21.558c-.093-1.309-.186.166 2.23-.483h4.822c0-2.376-.983-9.513-3.197-9.513h-4.5c-2.299 0-4.514 2.314-4.514 3.87z"/><path fill="#e77817" d="M272.95 92.73v16.876c0 2.074-.913 3.246-2.94 3.246h-24.319V90.134h24.972c1.07 0 2.287 1.219 2.287 2.596"/><ellipse cx="255.14" cy="103.28" fill="#71625b" rx="1.723" ry="1.721"/><ellipse cx="249.5" cy="94.765" fill="#71625b" rx="1.995" ry="1.994"/><ellipse cx="258.43" cy="108.36" fill="#71625b" rx="1.637" ry="1.635"/><ellipse cx="267.72" cy="96.502" fill="#71625b" rx="2.454" ry="2.452"/><ellipse cx="257.57" cy="97.927" fill="#71625b" rx="2.454" ry="2.452"/><ellipse cx="249.67" cy="107.84" fill="#71625b" rx="2.454" ry="2.452"/><ellipse cx="264.25" cy="104.12" fill="#71625b" rx="3.431" ry="3.428"/><path fill="#fff" fill-opacity=".502" d="M19.406 89.847v24.956c.782 1.22.422 15.036.973 18.037 1.014 5.528.73 11.827 1.818 17.199.495 2.439 1.02 5.791 2.18 7.482 1.8 2.618 3.126 2.207 6.591 2.828 3.678.658 14.122.397 18.49.397h124.21c13.394 0 27.143-3.902 32.131-12.31 4.375-7.376 7.687-15.786 12.428-22.85 3.763-5.606 5.684-7.449 10.83-9.27 6.746-2.386 9.996-3.249 16.63-3.463V90.135c-10.64-.56-6.54.582-16.42-2.37-10.297-3.853-16.052-18.137-20.884-27.802-8.533-19.108-30.73-17.339-41.299-17.474-16.212 0-31.939-.283-48.367-.283H60.333c-7.595 0-14.773.283-22.037.283-9.243 0-13.633-.985-15.394 6.866-1.508 6.722-1.307 12.656-2.41 19.731-.335 2.144-.904 20.481-1.085 20.762z"/><path fill="#00b7a5" d="M134.51 71.953h47.737v27.726H134.51z"/><path fill="#0794a3" d="M97.515 71.953h48.399v27.726H97.515z"/><rect width="3.803" height="28.174" x="43.259" y="56.032" fill="#3b4d56" rx="1.643" ry="1.643"/><path fill="#88a1a8" d="m38.391 83.884-.272 1.633v15.103h24.789V84.701l-.273-1.225-.272-.408-.273-.816-.544-.409-.273-.408-.545-.408-1.089-.408H41.66l-1.09.408-.817.408-.272.408-.273.409-.272.408-.272.408z"/><rect width="55.023" height="27.013" x="33.076" y="99.332" fill="#a4b7be" rx="5.235" ry="5.235"/><path fill="#3b4d56" d="M33.076 120.44h-8.164l-.408.408-.408.408-.408 1.225v.408l.408 1.225.408.408.408.408.817.408h2.449l.816-.408c1.975 1.716 7.89 34.142 11.021 35.703 47.45 3.119 95.786 2.93 144.86 0l11.07-24.274.407-.816.409-.817.408-1.224.408-1.225.408-1.224.408-1.633.408-4.082h2.45l.816-.408.408-.408.408-.408v-2.45l-.408-.816-.816-.408H33.079z"/><path fill="#00b7a5" d="M93.291 98.107h52.779v22.337H93.291z"/><path fill="#0794a3" d="M134.67 98.107h52.779v22.337H134.67z"/><rect width="19.908" height="3.232" x="39.419" y="105.75" fill="#3b4d56" rx="1.436" ry="1.436"/><rect width="19.908" height="3.232" x="39.835" y="111.37" fill="#3b4d56" rx="1.436" ry="1.436"/><path fill="#fff" d="m57.633 148.38-2.974-4.886-1.828 1.727v2.679q-.001.974-.514 1.5-.512.524-1.175.522-.777 0-1.226-.518-.442-.518-.442-1.53v-14.363q-.001-1.124.434-1.71.43-.587 1.234-.586c.518 0 .926.177 1.234.53q.455.531.455 1.568v8.167l3.787-3.972q.708-.745 1.074-1.015.372-.27.901-.27.632.001 1.05.4.421.403.42 1.007c0 .493-.459 1.15-1.369 1.976l-1.79 1.639 3.454 5.43q.384.606.548.922.17.314.168.598 0 .802-.438 1.264c-.29.307-.678.463-1.154.463q-.62 0-.948-.333c-.223-.223-.522-.623-.901-1.209m8.833-10.244v9.739q0 1.01-.48 1.529-.481.518-1.222.518-.744 0-1.204-.53-.463-.531-.464-1.517v-9.638q.001-1.003.464-1.508.46-.505 1.204-.505.74 0 1.222.505c.32.337.48.809.48 1.407m-1.668-3.48q-.701.001-1.2-.433-.5-.432-.502-1.218.001-.718.514-1.18a1.72 1.72 0 0 1 1.188-.462q.657 0 1.163.42.505.42.505 1.222 0 .778-.493 1.214-.492.436-1.175.438m8.21 3.43v.408q.892-1.173 1.942-1.723 1.055-.548 2.426-.547 1.332 0 2.38.581 1.05.575 1.567 1.638.335.618.434 1.336.096.712.097 1.824v6.272q-.001 1.01-.463 1.529-.46.518-1.205.518c-.502 0-.906-.177-1.222-.53q-.468-.531-.467-1.517v-5.615q-.001-1.668-.464-2.553-.462-.879-1.84-.88-.904-.001-1.643.535-.74.536-1.083 1.478-.247.75-.248 2.814v4.22q-.001 1.024-.476 1.534-.474.513-1.226.514c-.489 0-.885-.177-1.2-.53q-.468-.531-.468-1.517v-9.739q0-.961.42-1.436.419-.475 1.147-.476.443 0 .804.21c.236.14.43.35.573.628q.215.423.215 1.023m21.432 9.911v-.333q-.675.778-1.34 1.264a5 5 0 0 1-1.432.741 5.4 5.4 0 0 1-1.685.253q-1.207-.001-2.236-.514a5.2 5.2 0 0 1-1.786-1.461q-.751-.95-1.142-2.233a9.6 9.6 0 0 1-.387-2.776q0-3.16 1.541-4.924 1.544-1.764 4.06-1.765 1.46 0 2.457.501c.665.333 1.318.843 1.95 1.538v-4.975q.001-1.036.413-1.567.416-.53 1.18-.53.762 0 1.179.488.412.487.413 1.436v14.857c0 .64-.148 1.125-.443 1.445q-.448.48-1.15.48-.69 0-1.141-.501-.45-.498-.451-1.424m-6.626-4.95q.001 1.373.425 2.334.426.961 1.167 1.45a2.9 2.9 0 0 0 1.618.488q.887-.001 1.621-.464.734-.46 1.172-1.419.437-.954.438-2.389c0-.893-.148-1.668-.438-2.312q-.437-.967-1.184-1.479a2.84 2.84 0 0 0-1.634-.513q-.93-.001-1.656.522-.727.527-1.129 1.508-.399.98-.4 2.274"/><path fill="#fefefe" d="m145.06 80.59-.12.029-.09.03-.06.029-.06.03-.06.03-.09.029-.03.03-.09.029-.02.03-.03.03-.09.029-.06.03-.09.029-.09.03-.03.029-.09.03-.03.03-.06.029-.09.03-.02.029-.06.03-.06.029-.06.03-.09.03-.06.029-.06.03-.06.029-.09.03-.03.03-.06.029-.06.03-.05.029-.09.03-.03.03-.09.029-.06.03-.06.029-.09.03-.06.029-.03.03-.06.029-.06.03-.06.03-.05.029-.06.03-.09.029-.06.03-.09.03-.06.029-.03.03-.09.029-.03.03-.09.03-.03.029-.09.03-.02.029-.09.03-.06.029-.06.03-.06.03-.09.029-.03.03-.06.029-.06.03-.09.029-.03.03-.09.03-.02.029-.09.03-.06.029-.09.03-.03.03-.09.029-.03.03-.09.029-.03.03-.09.03-.03.029-.05.03-.09.029-.09.03-.03.029-.09.03-.03.03-.06.029-.09.03-.06.029-.06.03-.03.029-.05.03-.12.03-.03.029-.09.03-.03.029-.09.03-.03.03-.09.029-.03.03-.09.029-.03.03-.06.029-.08.03-.09.03-.06.029-.06.03-.03.029-.09.03-.06.029-.06.03-.06.03-.03.029-.06.03-.11.029-.03.03-.09.03-.03.029-.09.03-.03.029-.09.03-.06.03-.03.029-.06.03-.06.029-.09.03-.08.029-.06.03-.06.03-.06.029-.06.03-.06.029-.06.03-.03.029-.06.03-.09.03-.06.029-.08.03-.06.029-.03.03-.09.03-.06.029-.06.03-.06.029-.03.03-.09.03-.03.029-.09.03-.08.029-.06.03-.06.029-.06.03-.06.029-.06.03-.03.03-.09.029-.03.03-.09.029-.06.03-.06.03-.08.029-.06.03-.06.029-.06.03-.06.03-.06.029-.03.03-.09.029-.03.03-.09.029-.09.03-.05.03-.06.029-.06.03-.03.029-.09.03-.03.029-.09.03-.03.03-.09.029-.03.03-.12.029-.06.03-.05.03-.06.029-.06.03-.03.029-.09.03-.06.03-.06.029-.06.03-.06.029-.06.03-.09.029-.03.03-.08.03-.06.029-.06.03-.03.029-.09.03-.06.029-.06.03-.06.03-.09.029-.06.03-.06.029-.05.03-.06.03-.03.029-.09.03-.06.029-.06.03-.06.029-.06.03-.06.03-.09.029-.06.03-.06.029-.03.03-.08.029-.06.03-.06.03-.06.029-.06.03-.06.029-.09.03-.06.03-.06.029-.06.03-.06.029-.05.03-.06.03-.06.029-.06.03-.06.029-.03.03-.09.029-.09.03-.06.03-.06.029-.06.03-.05.029-.06.03-.06.029-.06.03-.03.03-.09.029-.06.03-.09.029-.06.03-.06.03-.06.029-.06.03-.05.029-.06.03-.06.03-.06.029-.03.03-.09.029-.09.03-.06.029-.06.03-.06.029-.06.03-.05.03-.06.029-.06.03-.03.029-.09.03-.03.03-.12.029-.06.03-.06.029-.06.03-.06.03-.06.029-.05.03-.04.029-.08.03-.06.029-.06.03-.09.03-.06.029-.06.03-.06.029-.06.03-.06.029-.06.03-.05.03-.06.029-.06.03-.06.029-.09.03-.06.03-.06.029-.06.03-.06.029-.06.03-.06.03-.05.029-.06.03-.06.029-.06.03-.06.029-.09.03-.06.029-.09.03-.03.03-.06.029-.06.03-.09.029-.02.03-.09.03-.03.029-.09.03-.06.029-.06.03-.06.03-.06.029-.06.03-.06.029-.06.03-.06.029-.05.03-.06.03-.06.029-.09.03-.06.029-.09.03-.03.029-.06.03-.06.03-.09.029-.03.03-.05.029-.06.03-.06.03-.09.029-.09.03-.03.029-.06.03-.06.03-.09.029-.03.03-.09.029-.03.03-.05.029-.06.03-.09.029-.06.03-.06.03-.06.029-.06.03-.06.029-.09.03-.03.03-.06.029-.05.03-.06.029-.09.03-.09.03-.03.029-.09.03-.03.029-.06.03-.09.029-.03.03-.06.03-.03.029-.08.03-.09.029-.06.03-.06.029-.06.03-.09.03-.03.029-.06.03-.06.029-.06.03-.06.03-.06.029-.08.03-.06.029-.06.03-.06.03-.06.029-.06.03-.06.029-.03.03-.03.029-.03.03-.09.03-.03.029-.06.03-.06.029-.02.03-.03.029-.03.03-.06.03-.03.029-.03.03-.06.029v.06h-.06l-.03.029-.03.03-.03.029-.03.03-.03.03-.06.029-.03.03-.03.029-.03.03-.03.029-.03.03-.02.059-.04.03-.02.029-.03.03-.03.029-.03.03-.03.059-.03.03-.03.029-.03.03-.03.03-.03.029-.03.059-.03.059-.03.03-.03.059-.03.059-.03.03-.03.029-.03.06-.03.059-.03.029-.03.06-.03.059-.03.089-.02.029-.03.089-.03.029-.03.089-.03.059-.03.089-.03.03-.03.088-.03.089-.03.118-.03.148-.03.119-.03.088-.03.178-.03.059-.03.178-.03.088-.03.119-.03.118-.03.118-.03.119-.03.236-.03.089-.02.148-.04.089-.02.148-.03.118-.03.118-.03.119-.03.088-.03.148-.03.089-.03.237-.03.148-.03.088-.03.148-.03.089-.03.118-.03.119-.03.118-.03.148-.03.089-.03.177-.03.148-.03.148-.03.148-.03.088-.03.119-.02.118-.04.119-.02.118-.03.089-.03.173-.03.09-.03.18-.03.21-.03.09-.03.11-.03.12-.03.09-.03.15-.03.12-.03.15-.03.08-.03.15-.03.12-.03.21-.03.15-.03.08-.03.09-.03.15-.02.09-.04.18-.02.09-.03.14-.03.09-.03.18-.03.21-.03.09-.03.09-.03.14-.03.09-.03.18-.03.06-.03.18-.03.08-.03.15-.03.09-.03.21-.03.12-.03.14-.03.09-.03.15-.03.09-.03.15-.03.12-.02.14-.04.09-.02.18-.03.12-.03.18-.03.09-.03.14-.03.09-.03.15-.03.09-.03.15-.03.11-.03.15-.03.09-.03.24-.03.09-.03.14-.03.09-.03.15-.03.09-.03.15-.03.09-.03.17-.03.09-.03.12-.02.21-.03.15-.03.08-.03.15-.03.09-.03.15-.03.09-.03.17-.03.09-.03.12-.03.12-.03.21-.03.12-.03.11-.03.12-.03.15-.03.09-.03.15-.03.09-.03.11-.03.15-.03.09-.03.15-.03.21-.03.11-.02.15-.03.09-.03.15-.03.09-.03.12-.03.11-.03.12-.03.15-.03.12-.03.18-.03.17-.03.09-.03.15-.03.09-.03.12-.03.12-.03.11-.03.15-.03.09-.03.18-.03.2-.03.06-.03.18-.02.09-.04.09-.02.15-.03.09-.03.14-.03.09-.03.18-.03.12-.03.18-.03.17-.03.09-.03.12-.03.12-.03.09-.03.15-.03.08-.03.18-.03.09-.03.15-.03.21-.03.11-.03.12-.03.12-.03.09-.03.15-.02.09-.03.17-.03.06-.03.18-.03.09-.03.21-.03.14-.03.09-.03.12-.03.15-.03.09-.03.15-.03.08-.03.18-.03.12-.03.21v1.18l.03.21.03.12.03.17.03.06.03.15.03.06.03.09.03.06.03.09.03.09.03.08.03.06.03.09.03.06.03.06.02.06.03.03.03.06.03.03.03.06.03.03.03.08.03.06.03.03.03.06.03.03.03.06.03.03.03.03.03.03.03.03.03.06.03.03.03.03.03.06.03.03.03.03.03.06.02.02.04.04.02.02.03.03.03.03.03.06.03.03.03.06.03.03.03.03.03.03.03.03.03.03.03.03.03.06.03.03.03.03.03.06.03.03.03.06.06.02.03.06.03.03.03.03.02.06.03.03.03.03.03.03.03.06.03.03.03.03.03.03.03.06.03.03.03.03.03.03.03.06h.06v.05l.03.06.03.03.03.03.03.06h.06v.06l.03.03.03.03.03.03.03.03.02.06.03.03.03.03.03.06.03.03.03.03.03.03.03.03.03.06.03.02.03.03.03.06.03.03.03.03.03.03.03.03.03.06.03.03.03.03.03.03.03.03.03.06.03.03.02.06.04.03.02.03.03.03.03.05h.06v.06l.03.03.03.03.03.03.03.06.03.03.03.06.03.03.03.03.03.03.03.06.03.03.03.03.03.03h.06v.06l.03.06.03.03.03.05.02.03.04.03.02.03.03.03.03.03.03.03.03.06.03.03.03.06.03.03.03.03.03.03.03.03.03.06.03.03.03.03.03.03.03.03.03.05.03.04.03.02.03.06.03.03.02.03.04.03.02.03.03.06.03.03.03.03.03.03.03.06.03.03.03.06.03.03.03.03.03.03.03.06h.06v.05h.06v.06l.03.06.03.03.03.03.03.06h.06v.06l.03.03.02.03.04.03.02.03.03.06.03.03.03.06.03.03.03.03.03.03.03.02.03.06.03.03.03.03.03.03.03.06.03.03.03.03.03.03.03.06.03.03.03.03.03.03.03.06.03.03.03.03.02.03.03.03.03.05.03.04.03.02.03.06.03.03.03.03.03.03.03.06h.06v.06l.03.03.03.06.03.03.03.03.03.03.03.06.03.03.03.03.03.03.03.03.03.03.02.05.04.03.02.06.03.03.03.03.03.03.03.06.03.03.03.03.03.03.03.03.03.03.03.06.03.03.03.06h.06v.06l.03.03.03.02.03.04.03.05.03.03.03.03.03.03.03.06.02.03.04.06h.05v.06l.03.03.03.03.03.03.03.03.03.06.03.06.03.03.03.03.03.03.03.05.03.03.03.03.03.03h.06v.06l.03.03.03.06.03.03.03.06.03.03.03.03.02.03.03.03.03.03.03.06.03.03.03.03.03.05.03.04.03.02.03.03.03.06.03.03.03.03.03.03.03.03.03.06.03.03.03.03.03.06.03.03.03.03.03.06h.05v.06l.04.03.02.03.03.03.03.02.03.06.03.06.03.03.03.03.03.03.03.03.03.03.03.06h.06v.06l.03.03.03.06.03.03.03.06h.06v.06l.03.03.03.02.03.04.03.05.02.03.04.03.02.03.03.06.03.03.03.03.03.03.03.06.03.03.03.03.03.03.03.06h.06v.06l.03.03.03.06.03.03.03.02.03.03.03.06.03.03.03.03.03.03.02.03.04.03.02.06.03.03.03.06.03.03.03.03.03.03.03.03.03.03.03.06.03.03.03.03.03.06.03.02.03.03.03.06.03.03.03.03.03.03.03.03.03.03.03.06.03.03.03.03.02.06.04.03.02.03.03.03.03.03.03.06.03.03.03.03.03.02.03.03.03.06.03.03.03.03.03.06.03.03.03.03.03.06.03.03.03.03.03.03.03.03.03.06.03.03.03.03.03.06.02.03.03.02.03.04.03.02.03.03.03.03.03.03.03.06.03.06.03.03.03.06.03.03.03.03h.06v.06l.03.03.03.03.03.06.03.03.03.05.03.04.03.02.03.03.02.03.04.03.02.06.03.03.03.03.03.03.03.06.03.03.03.03.03.03.03.06.03.03.03.03.03.03.03.06.03.03.03.03.03.02.03.06.03.03.03.06h.06v.06l.03.03.03.03.02.03.04.03.02.03.03.06.03.03.03.06.03.03.03.03.03.03.03.06h.06v.06l.03.02.03.06h.06v.06l.03.03.03.06.03.03.03.03.03.03.03.06h.05v.06l.04.03.02.03.03.06.03.03.03.03.03.06h.06v.05l.03.03.03.03.03.06.03.03.03.03.03.03.03.03.03.06.03.03.03.03.03.06.03.03.03.03.03.03.03.03.03.03.02.06.04.06.02.02.03.03.03.03.03.03.03.03.03.06h.06v.06l.03.03.03.03.03.06.03.06.03.03.03.03h.06v.06l.03.03.03.06.03.03.03.02.03.03.03.06.03.03.02.03.04.03.02.06.03.03.03.03.03.03.03.03.03.06.03.03.03.03.03.06.03.03.03.03.03.06.03.02.03.04.03.02.03.03.03.03.03.03.03.06.03.03.03.06.02.03.04.03.02.03.03.03.03.03.03.06.03.03.03.03.03.06.03.03.03.03.03.05h.06v.06l.03.03.03.03.03.06h.06v.06l.03.03.03.06.03.03.03.03.03.03.03.06h.06v.06l.02.03.03.06.03.03.03.02.03.04.03.05h.06v.06l.03.03.03.03.03.03.03.03.03.03.03.03.03.03.03.03.03.03.03.03.03.03.03.03.03.03.03.03.03.03.02.03.06.03.03.03.03.03.03.02.06.03.03.03.03.03.03.03.06.03.03.03.06.03.03.03.09.03.03.03.06.03.02.03.06.03.03.03.06.03.06.03.06.03.09.03.03.03.09.03.09.03.06.03.06.02.09.04.08.02.09.03.09.03.15.03.09.03.18.03h27.51l.18-.03.09-.03.15-.03.05-.03.12-.03.06-.02.09-.04.09-.02.06-.03.06-.03.12-.03.03-.03.09-.03.05-.03.06-.03.06-.03.03-.03.06-.03.03-.03.06-.03.03-.03.09-.03.03-.03.06-.03.03-.03.03-.03.06-.03.02-.03.04-.03.05-.03.03-.02.03-.03.03-.03.06-.03.03-.03.03-.03.03-.03.03-.03.03-.03.03-.03.03-.03.03-.03.03-.03.03-.03.03-.03.03-.03.03-.03.03-.03.03-.03.03-.03v-.06h.06l.02-.05.03-.04.03-.02.03-.03.03-.06.03-.03.03-.03.03-.03.03-.06.03-.03.03-.03.03-.03.03-.06.03-.03v-.06h.06l.03-.06.03-.03.03-.03v-.06h.06l.03-.05.03-.03.02-.03.03-.06.03-.03.03-.03.03-.06.03-.03.03-.03.03-.03.03-.03.03-.03.03-.06.03-.03.03-.06.03-.03.03-.03.03-.03.03-.02.03-.04.03-.02.03-.06.03-.03.03-.03.03-.06.02-.03.04-.03.02-.06.03-.03.03-.03.03-.03.03-.03.03-.06.03-.03.03-.03.03-.03.03-.06.03-.03.03-.02.03-.03.03-.06.03-.03v-.06h.06l.03-.03.03-.03.03-.06.03-.06.03-.03.03-.03v-.06h.06l.02-.06.03-.03.03-.03.03-.03.03-.03.03-.02.03-.06.03-.06.03-.03.03-.03.03-.03.03-.03.03-.03.03-.06.03-.03.03-.03.03-.06.03-.03.03-.03.03-.03.03-.03.02-.06.04-.03.02-.03v-.05h.06l.03-.06.03-.03.03-.03.03-.06.03-.03.03-.03v-.06h.06l.03-.06.03-.03.03-.03.03-.03.03-.06.03-.03.03-.06.03-.03.03-.03.03-.02v-.06h.06l.02-.06.04-.03.02-.03.03-.03.03-.06.03-.03.03-.06.03-.03.03-.03.03-.03.03-.03.03-.03.03-.06.03-.03.03-.03.03-.03.03-.06.03-.02.03-.03.03-.03.03-.06.03-.03.03-.03.03-.03.03-.06.02-.03.03-.03.03-.03.03-.06.03-.03.03-.03.03-.03.03-.06.03-.03.03-.03.03-.03.03-.02.03-.04.03-.05.03-.03.03-.06.03-.03.03-.06.06-.03.03-.03.03-.06.03-.03.02-.03.04-.06.02-.06.03-.03.03-.03.03-.03.03-.02.03-.04.03-.02.03-.06.03-.03.03-.03.03-.03.03-.06.03-.03.03-.03.03-.03.03-.06.03-.03.03-.03.03-.03.03-.06.03-.03.03-.03.03-.06.02-.03.04-.02.02-.03.03-.03.03-.06.03-.03.03-.03.03-.03.03-.03.03-.06v-.06h.06l.03-.06.03-.03.03-.03.03-.03.03-.03.03-.03.03-.06.03-.03.03-.02.03-.06.03-.03.02-.06.04-.03.02-.03.03-.03.03-.03.03-.03.03-.03.03-.06.03-.03.03-.06.03-.03.03-.03.03-.03v-.06h.06l.03-.06.03-.03.03-.02.03-.03.03-.06.03-.03v-.06h.06l.03-.06.03-.03.02-.03.04-.03.02-.06.03-.03.03-.03.03-.03.03-.06.03-.03.03-.03.03-.06.03-.02.03-.04.03-.02.03-.03.03-.06.03-.03.03-.03.03-.03.03-.06.03-.03v-.06h.06l.03-.06.03-.03.03-.03.02-.03.04-.03.02-.06.03-.03.03-.06.03-.02.03-.03.03-.03.03-.03.03-.06.03-.03.03-.03.03-.03.03-.03.03-.06.03-.03.03-.03.03-.06.03-.03.03-.03.03-.03.03-.03.03-.06.02-.03.04-.02.02-.04.03-.05.03-.03.03-.03.03-.06.03-.03.03-.03.03-.03.03-.03.03-.03.03-.06.03-.03.03-.06.03-.03v-.06h.06v-.06h.06l.03-.06.03-.02.03-.03.03-.06.03-.03.02-.06.04-.03.02-.03.03-.03.03-.03.03-.03v-.06h.06l.03-.06.03-.03.03-.06.03-.03.03-.03.03-.03.03-.05.03-.04.03-.02.03-.03.03-.06.03-.03.03-.03.03-.03.03-.06.03-.03.03-.03.02-.03.03-.06.03-.03.03-.03.03-.03.03-.03.03-.03.03-.06.03-.03.03-.05.03-.03.03-.03.03-.03.03-.03.03-.03.03-.06.03-.03.03-.03.03-.03.03-.06.03-.06.03-.03.03-.03.02-.03.04-.03v-.06h.05l.03-.06.03-.02.03-.04.03-.05.03-.03.03-.03v-.06h.06l.03-.06.03-.03.03-.03.03-.06.03-.03.03-.03.03-.03.03-.06.03-.03.03-.03.03-.03.03-.05.03-.04.02-.02.04-.03.02-.03.03-.03.03-.06.03-.06.03-.03.03-.03.03-.03.03-.03.03-.03v-.06h.06l.03-.06.03-.03.03-.03.03-.06v-.06h.06l.03-.05.03-.03.03-.03.03-.03.03-.03.03-.06.02-.03.03-.03.03-.06.03-.03.03-.03.03-.03.03-.06.03-.03.03-.03.03-.03.03-.03.03-.06.03-.02.03-.04.03-.05.03-.03.03-.03.03-.03.03-.03.03-.06.03-.03.03-.03.03-.03.02-.03.04-.06.02-.03.03-.06.03-.03.03-.03.03-.03.03-.03.03-.03.03-.05.03-.03.03-.03.03-.06.03-.06.06-.03.03-.03.03-.06.03-.03.03-.03v-.06h.06l.03-.06.03-.03.03-.06.02-.03.03-.03.03-.03v-.06h.06l.03-.05.03-.03.03-.06.03-.03.03-.03.03-.03.03-.06.03-.03.03-.03.03-.03.03-.06.03-.03.03-.03.03-.03.03-.03.03-.03.03-.06.03-.03.03-.05.03-.03.02-.03.03-.03.03-.03.03-.03.03-.06.03-.03.03-.03.03-.06v-.06h.06v-.06h.06l.03-.06.03-.03.03-.03.03-.03.03-.05.03-.04.03-.05.03-.03.03-.03.03-.03.03-.03.02-.03.04-.06.02-.03.03-.03.03-.06.03-.03.03-.03.03-.03.03-.06.03-.03.03-.03.03-.06.03-.03.03-.02.03-.03.03-.03.03-.03.03-.06.03-.03.03-.06.03-.03.03-.03.03-.03.03-.03.03-.03.02-.03.03-.06.03-.03.03-.03v-.09h.06l.03-.03.03-.02.03-.06.03-.03.03-.03.03-.03.03-.03.03-.06.03-.03.03-.06.03-.03.03-.03.03-.06.03-.03.03-.03.03-.03.03-.06.02-.03.04-.06.02-.03.03-.08.03-.03.03-.06.03-.06.03-.03.03-.06.03-.03.03-.09.03-.03.03-.09.03-.06.03-.12.03-.05.03-.09.03-.06.03-.09.03-.09.03-.12.03-.09.03-.14.03-.12.03-.24v-1.12l-.03-.24-.03-.12-.03-.18-.03-.08-.03-.15-.03-.09-.03-.15-.03-.09-.03-.12-.03-.14-.03-.21-.03-.09-.03-.18-.03-.06-.03-.17-.03-.09-.03-.15-.03-.09-.03-.12-.03-.12-.03-.09-.03-.23-.02-.15-.04-.09-.02-.18-.03-.08-.03-.15-.03-.09-.03-.12-.03-.12-.03-.09-.03-.14-.03-.21-.03-.12-.03-.15-.03-.12-.03-.11-.03-.12-.03-.12-.03-.12-.03-.09-.03-.15-.03-.09-.03-.2-.03-.18-.03-.09-.03-.15-.02-.11-.03-.09-.03-.15-.03-.09-.03-.15-.03-.09-.03-.14-.03-.21-.03-.12-.03-.15-.03-.09-.03-.11-.03-.12-.03-.12-.03-.15-.03-.09-.03-.15-.03-.08-.03-.21-.03-.15-.03-.12-.03-.12-.03-.11-.02-.09-.04-.18-.02-.09-.03-.15-.03-.09-.03-.14-.03-.12-.03-.21-.03-.12-.03-.12-.03-.09-.03-.17-.03-.06-.03-.18-.03-.09-.03-.15-.03-.08-.03-.15-.03-.18-.03-.15-.03-.09-.03-.14-.03-.09-.03-.15-.03-.09-.02-.18-.03-.09-.03-.14-.03-.09-.03-.21-.03-.09-.03-.18-.03-.09-.03-.14-.03-.09-.03-.15-.03-.12-.03-.14-.03-.09-.03-.15-.03-.15-.03-.18-.03-.09-.03-.14-.03-.09-.03-.15-.03-.09-.03-.15-.03-.12-.03-.14-.02-.09-.03-.21-.03-.09-.03-.18-.03-.08-.03-.15-.03-.09-.03-.15-.03-.09-.03-.15-.03-.11-.03-.09-.03-.21-.03-.15-.03-.12-.03-.14-.03-.09-.03-.15-.03-.09-.03-.15-.03-.09-.03-.09-.03-.14-.02-.21-.04-.12-.02-.18-.03-.05-.03-.18-.03-.09-.03-.15-.03-.09-.03-.12-.03-.11-.03-.09-.03-.21-.03-.18-.03-.09-.03-.174-.03-.089-.03-.118-.03-.118-.03-.119-.03-.118-.03-.089-.03-.147-.03-.148-.03-.178-.03-.148-.02-.089-.03-.147-.03-.119-.03-.118-.03-.119-.03-.088-.03-.148-.03-.089-.03-.148-.03-.237-.03-.088-.03-.148-.03-.089-.03-.118-.03-.148-.03-.089-.03-.148-.03-.088-.03-.148-.03-.089-.03-.237-.03-.118-.03-.118-.02-.119-.04-.118-.02-.089-.03-.177-.03-.089-.03-.148-.03-.089-.03-.148-.03-.148-.03-.088-.03-.089-.03-.089-.03-.059-.03-.089-.03-.059-.03-.059-.03-.059-.03-.059-.03-.059-.03-.089-.03-.059-.03-.06-.03-.029-.03-.059-.03-.06-.02-.029-.04-.03-.02-.059-.03-.029-.03-.06-.03-.029-.03-.059-.03-.059-.03-.03-.03-.03-.03-.029-.03-.03-.03-.059-.03-.03-.03-.029-.03-.03-.03-.029-.03-.03-.03-.03-.03-.029-.03-.059h-.06v-.059l-.03-.03-.05-.029-.03-.03-.03-.03-.03-.029-.03-.03-.03-.029h-.06v-.06l-.06-.029-.03-.03-.03-.029-.06-.03-.03-.03-.03-.029-.03-.03-.06-.029-.06-.03-.03-.029-.09-.03-.02-.03-.03-.029-.03-.03-.06-.029-.06-.03-.06-.029-.06-.03-.06-.03-.06-.029-.09-.03-.06-.029-.06-.03-.03-.03-.08-.029-.06-.03-.03-.029-.09-.03-.03-.03-.09-.029-.06-.03-.09-.029-.09-.03-.03-.029-.05-.03-.04-.03-.05-.029-.09-.03-.03-.029-.09-.03-.03-.029-.09-.03-.09-.03-.06-.029-.06-.03-.06-.029-.03-.03-.08-.03-.03-.029-.09-.03-.03-.029-.09-.03-.06-.03-.09-.029-.06-.03-.06-.029-.03-.03-.09-.029-.03-.03-.08-.029-.06-.03-.06-.03-.03-.029-.09-.03-.09-.029-.06-.03-.06-.03-.06-.029-.03-.03-.08-.029-.06-.03-.06-.03-.03-.029-.09-.03-.06-.029-.09-.03-.06-.029-.06-.03-.03-.03-.09-.029-.06-.03-.05-.029-.06-.03-.06-.029-.06-.03-.06-.03-.06-.029-.09-.03-.03-.029-.09-.03-.03-.03-.09-.029-.06-.03-.05-.029-.03-.03-.09-.03-.06-.029-.06-.03-.09-.029-.06-.03-.06-.029-.06-.03-.06-.029-.06-.03-.05-.03-.06-.029-.06-.03-.06-.029-.06-.03-.09-.03-.06-.029-.06-.03-.06-.029-.06-.03-.06-.03-.06-.029-.05-.03-.06-.029-.06-.03-.06-.029-.09-.03-.06-.03-.06-.029-.09-.03-.03-.029-.06-.03-.06-.029-.05-.03-.06-.03-.06-.029-.06-.03-.12-.029-.03-.03-.09-.03-.03-.029-.06-.03-.06-.029-.06-.03-.06-.03-.05-.029-.06-.03-.06-.029-.09-.03-.09-.029-.03-.03-.06-.029-.06-.03-.06-.03-.06-.029-.06-.03-.06-.029-.05-.03-.06-.03-.09-.029-.06-.03-.09-.029-.03-.03-.06-.03-.06-.029-.06-.03-.06-.029-.06-.03-.05-.029-.06-.03-.09-.03-.09-.029-.06-.03-.03-.029-.06-.03-.06-.029-.06-.03-.06-.03-.06-.029-.06-.03-.05-.029-.06-.03-.12-.03-.03-.029-.06-.03-.06-.029-.06-.03-.06-.03-.09-.029-.03-.03-.06-.029-.06-.03-.08-.029-.06-.03-.06-.03-.06-.029-.06-.03-.06-.029-.09-.03-.03-.029-.06-.03-.06-.03-.09-.029-.02-.03-.12-.029-.03-.03-.06-.03-.06-.029-.09-.03-.03-.029-.06-.03-.06-.029-.09-.03-.03-.03-.09-.029-.06-.03-.05-.029-.06-.03-.09-.029-.03-.03-.09-.03-.03-.029-.06-.03-.06-.029-.06-.03-.09-.03-.08-.029-.03-.03-.09-.029-.03-.03-.09-.03-.03-.029-.09-.03-.03-.029-.09-.03-.03-.029-.09-.03-.06-.03-.08-.029-.03-.03-.09-.029-.03-.03-.06-.029-.06-.03-.06-.03-.06-.029-.06-.03-.09-.029-.09-.03-.03-.03-.08-.029-.03-.03-.09-.029-.03-.03-.09-.03-.03-.029-.06-.03-.09-.029-.03-.03-.09-.029-.08-.03-.06-.029-.06-.03-.03-.03-.06-.029-.06-.03-.06-.029-.09-.03-.03-.03-.09-.029-.06-.03-.09-.029-.09-.03-.02-.03-.06-.029-.03-.03-.06-.029-.09-.03-.03-.029-.09-.03-.03-.03-.09-.029-.09-.03-.06-.029-.05-.03-.06-.029-.03-.03-.09-.03-.03-.029-.09-.03-.03-.029-.09-.03-.06-.03-.09-.029-.06-.03-.05-.029-.04-.03-.08-.03-.03-.029-.09-.03-.06-.029-.06-.03-.03-.029-.09-.03-.09-.03-.06-.029-.03-.03-.08-.029-.04-.03-.08-.029-.06-.03-.06-.03-.03-.029-.09-.03-.06-.029-.09-.03-.06-.03-.06-.029-.03-.03-.08-.029-.06-.03-.06-.029-.03-.03-.09-.03-.06-.029-.06-.03-.09-.029-.06-.03-.03-.029-.09-.03-.03-.03-.08-.029-.06-.03-.06-.029-.03-.03-.09-.03-.06-.029-.09-.03-.06-.029-.06-.03-.06-.03-.06-.029-.05-.03-.06-.029-.06-.03-.06-.029-.06-.03-.06-.03-.06-.029-.09-.03-.06-.029-.06-.03-.06-.029-.05-.03-.06-.03-.06-.029-.06-.03-.06-.029-.06-.03-.06-.03-.09-.029-.06-.03-.06-.029-.06-.03-.06-.03-.05-.029-.06-.03-.06-.029-.06-.03-.06-.029-.06-.03-.12-.029-.03-.03-.09-.03-.03-.029-.06-.03-.06-.029-.05-.03-.06-.03-.06-.029-.06-.03-.06-.029-.09-.03-.09-.03-.03-.029-.06-.03-.06-.029-.06-.03-.05-.029-.06-.03-.06-.03-.06-.029-.06-.03-.12-.029-.03-.03-.09-.029-.03-.03-.06-.03-.06-.029-.06-.03-.05-.029-.06-.03-.06-.03-.06-.029-.12-.03-.09-.029-.03-.03-.06-.03-.12-.029-.06-.03-.11-.029-.06-.03-.15-.029-.09-.03-.18-.03h-1.59l-.18.03-.09.03-.15.029-.09.03-.09.029-.09.03-.09.029-.05.03z"/><path fill="#326ce5" d="m119.91 98.191-.325 1.657-.033.006-1.56 6.762-.415 1.962-.064.085c0 .348-.26 1.094-.323 1.452-.09.507-.223.952-.34 1.464-.223.978-.482 1.985-.67 2.939-.192.967-.518 1.973-.671 2.908-.148.897-.6 2.054-.6 3.01v.03c0 1.74.864 2.698 1.68 3.646.407.473.797.985 1.185 1.477.4.505.812.975 1.201 1.492.76 1.007 1.607 1.972 2.39 2.964.772.979 1.575 2.032 2.384 2.971.41.476.795.983 1.186 1.477s.819.974 1.188 1.474c.365.493.802.983 1.19 1.474.36.457.813 1.083 1.2 1.491.408.432.784 1.016 1.183 1.48.42.488.786.996 1.2 1.493.498.6.708.842 1.388 1.274.48.305 1.319.598 2.094.598l24.56.02 1.063-.139c.076-.05.331-.116.455-.166.2-.08.281-.126.453-.198.321-.135.536-.311.796-.505.376-.28.941-.992 1.225-1.379.714-.971 1.596-1.9 2.308-2.87.715-.973 1.597-1.9 2.308-2.869.706-.963 1.551-1.923 2.303-2.875 1.524-1.93 3.09-3.807 4.615-5.738a51 51 0 0 1 1.152-1.423c.394-.464.751-1.006 1.154-1.45.362-.398.827-.993 1.126-1.447.262-.397.627-1.336.627-1.976v-.71c0-.004-.15-.618-.166-.692-.05-.237-.12-.508-.154-.704-.059-.336-.228-1.127-.331-1.414-.045-.126-.117-.531-.16-.699-.058-.233-.103-.466-.17-.687-.12-.403-.207-.996-.309-1.437-.113-.495-.22-.886-.319-1.397-.05-.263-.122-.4-.166-.691a9 9 0 0 0-.16-.728c-.13-.468-.64-2.428-.635-2.825l-.042-.09-.372-1.715-.04-.09-.734-3.071c0-.363-.234-.843-.266-1.273-.006-.076-.12-.494-.146-.623-.048-.24-.115-.388-.162-.636-.064-.333-.18-.988-.284-1.254-.11-.28-.197-.925-.3-1.269-.112-.376-.166-.853-.28-1.258-.106-.374-.214-.899-.296-1.271-.242-1.087-.409-1.403-.993-2.143-.49-.622-1.078-.933-1.83-1.277-.157-.072-.346-.176-.52-.25a8 8 0 0 1-.521-.247c-.312-.196-.732-.323-1.058-.51-.3-.174-.715-.327-1.046-.493a101 101 0 0 0-3.181-1.523 54 54 0 0 1-2.096-1.011c-.702-.354-1.397-.654-2.1-1.006s-1.399-.66-2.1-1.006c-.34-.168-.73-.361-1.067-.502-.315-.132-.775-.412-1.068-.5-.19-.056-.8-.385-1.043-.496a30 30 0 0 1-1.064-.503c-.697-.352-1.412-.66-2.12-1.016-.704-.353-1.396-.653-2.101-1.006-.718-.359-1.367-.7-2.436-.7h-.06c-.958 0-1.416.316-2.082.58a7 7 0 0 0-.9.433c-.226.142-.668.294-.934.426-1.204.596-2.415 1.135-3.618 1.737-2.399 1.199-4.845 2.27-7.24 3.47-1.208.606-2.41 1.142-3.619 1.736-.606.299-1.202.572-1.81.852-.226.104-.688.37-.898.434-.116.036-.812.369-.923.438-.215.133-.657.317-.902.43-.205.095-.73.383-.898.433-.501.15-1.191.813-1.51 1.182a4.1 4.1 0 0 0-.853 1.84c-.037.224-.472 2.074-.53 2.161"/><path fill="#fefefe" d="M145.38 91.387v.473c0 .551.133.998.2 1.456.067.443.125 1.1.125 1.562v.65c0 .401-.293.574-.443.8 0 .542.123.519-.303.584-.28.044-.528.027-.805.083-.257.05-.535.068-.763.125-.178.044-.596.154-.766.15l-.086.063c-.44 0-2.081.634-2.489.795a14.6 14.6 0 0 0-2.18 1.104c-.586.364-1.46.898-1.936 1.348-.285.27-.602.483-.887.769-.16.16-.71.71-.856.813l-.469-.335-.355.032h-.059c-1.033 0-2.96-3.224-4.142-3.224h-.207c-.293 0-.609.174-.787.307-.131.098-.426.525-.426.698v.474c0 .018.131.382.147.414.072.143.123.214.22.343.091.123.475.416.615.509.435.29.959.567 1.413.835.36.212 1.04.646 1.326.923.263.254.342.262.445.68.137.56.212.319.45.674-.131.247-.385.654-.551.899-.197.29-.338.664-.514.965-.365.623-.564 1.404-.879 2.08-.068.147-.3.958-.328 1.121-.068.41-.205.76-.276 1.203-.139.86-.293 1.643-.293 2.665l-.028.89.176 2.098a1 1 0 0 0-.702.363c-.239.288-.247.33-.66.436a9.3 9.3 0 0 1-1.892.296c-.526.021-1.522.088-1.933.227-.29.098-.502.21-.694.4-.11.11-.392.52-.392.704v.473c0 .224.3.594.436.718.173.158.515.318.837.318h.118c.54 0 1.878-.473 2.19-.68.211 0 .753-.268 1.007-.325.298-.066.759-.238 1.093-.238.335 0 .624.266.71.266.197 0 .378-.088.415-.088h.174l.033.266c.057.086.258.606.3.735.09.273.197.499.321.744.246.484.418.933.699 1.402.257.43.514.91.805 1.295.305.404.605.792.904 1.196.594.8 1.39 1.43 2.082 2.12.288.287.827.675 1.173.927.12.088 1.26.826 1.26.84 0 .132-.207.433-.207.532 0 .147.119.327.119.503v.207c0 .294-.923 1.757-1.107 2.06-.197.323-.435.608-.645.922-.1.149-.497.918-.497 1.1v.267c0 .668.548 1.301 1.213 1.301 1.406 0 1.63-1.59 2.002-2.672.188-.55.388-1.22.64-1.696.141-.265.264-.494.55-.606.243-.095.237-.007.364-.226.083-.143.16-.208.202-.39.251.006 1.025.329 1.332.413.37.101 1.026.306 1.392.354.48.063 1.013.153 1.51.235.415.069 1.219.092 1.683.092h.888c.947 0 2.083-.195 2.897-.358.485-.096.87-.228 1.307-.32.3-.063 1.033-.382 1.27-.387.033.144.12.243.187.375.095.189.173.121.36.201.276.117.407.357.538.617.26.52.445 1.05.642 1.636.182.542.34 1.235.581 1.696.235.45.63 1.007 1.301 1.007h.148c.654 0 1.184-.637 1.184-1.302 0-.834-.737-1.682-1.095-2.218-.211-.317-1.154-1.812-1.154-2.19v-.147c0-.104.148-.412.148-.414 0-.001-.182-.456-.207-.562.43-.289.85-.552 1.285-.846.43-.29.802-.638 1.206-.953.75-.587 1.476-1.46 2.102-2.188.544-.631 1.333-1.792 1.72-2.57.248-.502.463-.931.704-1.455.115-.25.192-.508.311-.754.112-.23.16-.6.277-.824l.295.035c.053.035.052.059.118.059h.148c.082 0 .292-.266.651-.266.51 0 1.666.398 2.062.571.154.068.339.085.492.158.157.075.298.165.464.218.19.06.843.295 1.036.295h.266c.398 0 .695-.11.923-.29.16-.127.468-.52.468-.775v-.384c0-.516-.583-.975-.997-1.134-.622-.24-1.206-.117-1.891-.24a10 10 0 0 0-.96-.105c-.215-.002-.693-.137-.893-.171-.362-.063-.53-.12-.731-.334-.092-.098-.15-.21-.232-.301-.089-.098-.27-.09-.391-.17-.07 0-.184.012-.158-.058l.128-1.688v-1.036c0-.684-.108-2.225-.277-2.71-.07-.199-.078-.397-.114-.626-.031-.197-.115-.4-.165-.604-.102-.42-.234-.769-.349-1.16-.2-.682-.571-1.53-.87-2.118a25 25 0 0 0-.532-.976c-.06-.105-.563-.931-.563-.946 0-.08.369-.364.444-.414 0-.7.388-.946.81-1.23s.823-.537 1.249-.823c.693-.466 2.113-.955 2.113-2.03v-.325c0-.544-.613-1.035-1.213-1.035h-.237c-.766 0-1.716 1.256-2.167 1.708-.285.285-.668.71-.981.942-.578.428-.411.544-1.409.544-.077.052-.395.326-.473.326-.064 0-.968-.896-1.087-1.014-.312-.309-.806-.661-1.167-.934a17.4 17.4 0 0 0-2.598-1.602 17.3 17.3 0 0 0-3.042-1.16 24 24 0 0 0-1.71-.391c-.308-.06-.632-.075-.927-.138-.569-.12-.476.192-.476-.589-.288-.43-.473-.28-.473-1.124 0-.328.05-.578.06-.857.006-.19.036-.682.07-.877.096-.546.225-1.054.225-1.668v-.236c0-.737-.582-1.45-1.302-1.45h-.03c-.39 0-.71.192-.91.392-.14.14-.421.631-.421.88"/><path fill="#326ce5" d="M137.13 104.2c0 .101 2.747 1.972 3.056 2.21a31 31 0 0 0 1.542 1.091c.371.25 1.17.959 1.675.959h.207c.251 0 .588-.234.718-.377.282-.311.195-.55.33-.778l.372-6.536v-.355c-.737.06-1.763.302-2.386.513-.383.13-.728.23-1.08.37-.37.147-.663.307-1.02.46-.495.209-1.415.788-1.824 1.104-.2.154-1.59 1.207-1.59 1.339m14.26 14.28v.355c0 .227 1.18 2.922 1.352 3.352.23.574.472 1.111.694 1.672.102.259.662 1.527.676 1.691.222-.018 1.584-1.123 1.783-1.324.568-.576.977-.956 1.51-1.596.462-.557.891-1.199 1.258-1.848.171-.304.952-1.825.949-2.132l-6.95-1.146h-.237c-.47 0-1.035.536-1.035.976m-18.38-5.06-.012.77.076 1.229 3.723-1.052c.235-.157 1.771-.494 2.19-.651.365-.137.739-.174 1.048-.372.244-.156.55-.5.55-.87v-.149c0-.655-.79-1.227-1.176-1.575-.236-.212-.507-.414-.726-.636a9 9 0 0 0-.732-.658c-.476-.345-.967-.915-1.455-1.296-.478-.373-.989-.982-1.474-1.307-.325.217-1.178 2.351-1.373 2.917-.298.866-.639 2.522-.639 3.65m19.83-1.21v.148c0 1.16 1.473 1.27 2.37 1.564a7 7 0 0 0 .765.212c.217.044.572.195.747.23.404.08 1.274.42 1.558.433l2.094.607.07-1.242v-.177c0-1.016-.18-1.922-.323-2.783a9 9 0 0 0-.32-1.249c-.075-.211-.393-1.027-.393-1.174-.133-.09-.353-.784-.479-.971-.164-.245-.384-.684-.527-.952-.243.056-2.448 2.217-2.9 2.544-.469.34-.954.926-1.437 1.284-.176.13-.553.484-.715.646-.215.215-.51.467-.51.88M142.33 127c.604.29 2.833.71 3.758.71h1.035c.752 0 1.483-.09 2.113-.225.328-.07.643-.113.958-.196.265-.069.646-.223.894-.289-.038-.163-.82-1.54-.958-1.763-.177-.283-.319-.584-.482-.88-.17-.31-.339-.574-.497-.893-.285-.576-.716-1.187-.966-1.755-.217-.493-.695-1.365-1.387-1.365h-.119c-.431 0-.718.2-.905.455-.13.175-.417.68-.506.885-.114.267-.337.609-.483.878-.16.296-.343.597-.501.889-.322.595-.667 1.176-.983 1.769-.162.303-.305.589-.474.887-.082.145-.47.793-.497.893m-8.4-8.33-.09-.009c.023.277.797 1.88.958 2.118.211.31.38.629.592.947s.423.584.65.887c.816 1.087 2.104 2.148 3.244 2.911.1-.074 1.266-2.98 1.423-3.369.231-.568 1.328-2.957 1.328-3.464 0-.605-.498-1.154-1.094-1.154l-.355.002zm16.04-10.24c.576 0 1.28-.657 1.68-.923.525-.347 1.033-.729 1.545-1.088 1.022-.716 2.046-1.499 3.077-2.19-.204-.304-1.227-1.092-1.58-1.348-.291-.212-.584-.377-.876-.574-.296-.201-.653-.338-.952-.527-.68-.43-3.411-1.367-4.492-1.367.123 1.475.155 3.034.266 4.527.056.752.09 1.48.118 2.278.023.682.492 1.212 1.214 1.212m-5.62 5.03.444 2.07c.16.085 1.891.918 1.923.918.125 0 1.526-.759 1.802-.861.164-.062.15-.243.199-.452.047-.204.082-.36.118-.563.057-.326.169-.743.248-1.082-.117-.176-1.278-1.657-1.361-1.657h-2.012c-.084 0-1.246 1.456-1.361 1.627"/></g></svg>