<svg xmlns="http://www.w3.org/2000/svg" viewBox="0 0 92.278 92.278"><defs><clipPath id="a"><path fill="none" stroke="#000" stroke-width=".1" d="M73.688 46.299h23.725v24.462H73.688zm24.635 15.557s-.889-12.167-1.623-11.541c-.837.714-2.47 2.45-2.933 2.94-.835.886-1.434 1.461-2.781 3.032-1.15 1.34-2.012 2.47-3.22 4.344-.89 1.384-2.01 3.432-2.5 5.312-.33 1.275-.608 3.026-.819 4.481-.03.21 13.06-8.07 13.876-8.568" class="powerclip"/></clipPath><clipPath id="b"><path fill="none" stroke="#000" stroke-width=".1" d="M-138.52 46.269h23.725v24.462h-23.725zm24.393 15.633s-.889-12.167-1.623-11.541c-.837.714-2.47 2.45-2.933 2.94-.835.886-1.434 1.461-2.781 3.032-1.15 1.34-2.012 2.47-3.22 4.344-.89 1.385-2.01 3.432-2.5 5.312-.33 1.275-.608 3.026-.819 4.481-.03.21 13.06-8.07 13.876-8.568" class="powerclip"/></clipPath></defs><g transform="translate(-59.684 -17.7)"><circle cx="105.82" cy="63.838" r="46.139" fill="#278ec7"/><path fill="#fff" d="M84.279 42.861a10 10 0 0 0-2.393.34c-.876.243-2.257.443-4.482 2.004-1.515 1.062-2.971 3.335-3.492 4.43s-1.25 2.762-1.46 4.326c-.208 1.563-.428 4.304.626 6.828.817 1.958 4.092 4.566 4.092 4.566s1.442.967 2.984 2.057c1.41.996 3.504 2.652 3.504 2.652l.312 3.545c.107 1.206.439 2.722.711 3.576.323 1.012 1.382 3.887 2.26 5.074 1.204 1.627 2.327 2.815 4.186 3.932.984.591 3.256 1.436 5.29 1.857 1.327.275 4.15.706 5.958.846 2.299.178 3.389.174 3.449.174v.002h.047v-.002c.057 0 1.05-.007 3.398-.174 1.81-.128 4.633-.57 5.96-.846 2.034-.421 4.306-1.266 5.29-1.857 1.859-1.117 2.982-2.305 4.186-3.932.878-1.187 1.936-4.062 2.26-5.074.272-.854.604-2.37.71-3.576l.313-3.545s2.094-1.656 3.504-2.652c1.542-1.09 2.982-2.057 2.982-2.057s3.276-2.608 4.094-4.566c1.054-2.524.834-5.265.625-6.828s-.938-3.232-1.459-4.327-1.977-3.367-3.492-4.43c-2.225-1.56-3.606-1.76-4.483-2.003-2.169-.603-4.395-.26-5.316-.106-.897.151-3.243 1.063-3.982 1.56-.996.672-1.48 1.059-2.332 1.888-.948.92-2.152 2.69-2.467 2.941 0 0-1.004-.676-1.338-.879-1.567-.952-2.097-1.098-3.578-1.539-1.338-.398-3.849-.348-4.877-.35h-.047c-1.042-.002-3.584-.048-4.922.35-1.48.44-2.011.587-3.578 1.54-.334.202-1.34.878-1.34.878-.315-.252-1.517-2.02-2.465-2.941-.852-.829-1.338-1.216-2.334-1.887-.739-.498-3.085-1.41-3.982-1.56-.576-.097-1.66-.268-2.922-.235"/><g fill="#278ec7" transform="translate(-.354 -.553)"><path d="M85.778 65.762a7.23 7.23 0 0 1-7.02-6.229 7.23 7.23 0 0 1 5.042-7.916 7.23 7.23 0 0 1 8.612 3.73" clip-path="url(#a)"/><path d="M-126.43 65.732a7.23 7.23 0 0 1-7.02-6.229 7.23 7.23 0 0 1 5.042-7.916 7.23 7.23 0 0 1 8.612 3.73" clip-path="url(#b)" transform="scale(-1 1)"/><path d="M106.34 69.145c-.46-.02-.571.004-.723.074-.23.107-.503.363-1.394 1.375-.867.985-1.44 1.667-1.922 2.672-.261.543-.436.868-.638 1.55-.178.603-.254.738-.346 1.317a16 16 0 0 0-.196 2.18c-.023.75.04 1.398.125 1.992.121.598.23 1.051.54 1.68.317.644.784 1.262 1.062 1.531.314.305.753.635 1.094.781.37.16.507.223.882.328.485.13 1.18.094 1.54.094.359 0 .793-.043 1.234-.219a5 5 0 0 0 1.293-.73c.396-.318.648-.605.988-1.098.335-.485.73-1.115.926-1.687.237-.694.215-1.281.262-2.125s-.078-2-.235-2.875-.677-2.278-1.023-2.852c-.334-.554-.535-.903-1.117-1.687-.551-.743-.781-.914-1.281-1.446s-.98-.832-.98-.832z"/><circle cx="115.18" cy="70.221" r="3.344"/><circle cx="97.095" cy="70.18" r="3.344"/><path d="M99.423 85.059c.748.56 1.48.777 2.602 1.046s2.73.363 4.104.367c1.488.005 3.307-.05 4.449-.37s1.617-.582 2.218-1.047 1.568-2.047 1.568-2.047-.918.736-1.44.997c-1.005.5-2.097.838-3.198 1.056-1.197.237-2.43.27-3.65.262-.96-.005-1.919-.116-2.871-.238-.602-.077-1.18-.16-1.794-.312s-1.288-.32-1.88-.608c-.623-.302-1.377-.951-1.724-1.157.349.683.92 1.529 1.616 2.05"/></g></g></svg>