<svg xmlns="http://www.w3.org/2000/svg" fill="none" viewBox="0 0 283 282.85"><path fill="url(#a)" d="M283 282.85H0V0h283L141.48 141.34z"/><mask id="b" width="76" height="131" x="306" y="175" maskUnits="userSpaceOnUse" style="mask-type:alpha"><path fill="#34a853" d="M373.51 176.5a65 65 0 0 0-14.589 5.505 65.3 65.3 0 0 0-16.16 11.908 65.4 65.4 0 0 0-9.133 11.536l-.127-.073q-3.393-1.97-6.787-3.937l-11.389-6.61a6 6 0 0 0-1.165-.52 5.98 5.98 0 0 0-4.153.184 5.92 5.92 0 0 0-2.808 2.448 6 6 0 0 0-.817 2.544 6.1 6.1 0 0 0 .178 2.046 5.97 5.97 0 0 0 2.773 3.633q2.38 1.383 4.761 2.761l6.628 3.849 6.787 3.936q.37.216.744.431c-.079.2-.158.396-.234.596a65.3 65.3 0 0 0-4.258 23.947 65.3 65.3 0 0 0 3.612 20.831q.395 1.135.832 2.246l-.693.402c-2.263 1.311-4.523 2.626-6.787 3.937l-11.389 6.61a5.97 5.97 0 0 0-2.95 5.679 5.9 5.9 0 0 0 .816 2.543 5.95 5.95 0 0 0 3.596 2.718 5.98 5.98 0 0 0 4.53-.605q2.38-1.383 4.761-2.762l6.629-3.848 6.787-3.937.057-.032a65.5 65.5 0 0 0 9.205 11.646 66 66 0 0 0 8.43 7.165 65 65 0 0 0 7.73 4.744 65 65 0 0 0 6.48 2.942 65 65 0 0 0 8.11 2.563 65 65 0 0 0 8.48 1.492v-130c-2.85.31-5.694.797-8.487 1.482"/></mask><g mask="url(#b)" transform="translate(-99.5 -99)"><path fill="#4faf53" d="M303.97 313.07V174.3h78.032v138.77z"/><g filter="url(#c)" opacity=".8"><path fill="url(#d)" fill-opacity=".3" d="M329.01 235.26c9.696-13.753 10.76 24.957 31.95 39.911s57.993 2.967 48.297 16.721c-11.639 8.492-35.25 9.784-56.44-5.17s-28.152-39.795-23.807-51.462"/></g><g filter="url(#e)" opacity=".7"><path fill="url(#f)" fill-opacity=".4" d="M329.01 244.7c9.696 13.753 10.76-24.957 31.95-39.911s57.993-2.967 48.297-16.721c-11.639-8.491-35.25-9.784-56.44 5.17s-28.152 39.796-23.807 51.462"/></g><g filter="url(#g)" opacity=".6"><path fill="#8bd8a0" d="M363.68 306.77c16.611 5.283 30.573 8.004 31.185 6.076s-12.357-7.772-28.968-13.055c-16.61-5.284-34.722-27.076-35.334-25.148-.613 1.927 16.506 26.844 33.117 32.127"/></g><g filter="url(#h)" opacity=".5"><path fill="#8bd8a0" d="M363.68 174.02c16.611-5.283 30.573-8.004 31.185-6.077.612 1.928-12.357 7.773-28.968 13.056-16.61 5.284-34.722 27.076-35.334 25.148-.613-1.927 16.506-26.844 33.117-32.127"/></g><g filter="url(#i)" opacity=".7"><path fill="#a8dab5" d="M319.38 280.29c8.588-5.232 12.682-7.522 13.144-6.763s-2.881 4.282-11.47 9.514c-6.942 7.904-16.345-.456-16.807-1.216s3.754 6.24 15.133-1.535"/></g><g filter="url(#j)" opacity=".1"><ellipse cx="1.352" cy="15.55" fill="#f8f9fa" rx="1.352" ry="15.55" transform="rotate(-123.161 233.279 62.976)skewX(.029)"/></g><g filter="url(#k)" opacity=".3"><path fill="#fff" d="M315.01 273.77c8.985-5.473 13.101-8.143 12.731-8.75-.37-.608-5.085 1.076-14.07 6.549-12 5.276-4.843 14.794-3.532 13.854 3.519-1.829-7.724-4.655 4.871-11.653"/></g><ellipse cx="6.427" cy="7.566" fill="url(#l)" fill-opacity=".9" opacity=".15" rx="6.427" ry="7.566" transform="matrix(.96053 -.27817 .27788 .96061 301.53 279)"/><ellipse cx="6.427" cy="7.566" fill="url(#l)" fill-opacity=".9" opacity=".15" rx="6.427" ry="7.566" transform="matrix(.96053 -.27817 .27788 .96061 300.54 196)"/><g filter="url(#m)" opacity=".1"><ellipse cx="1.352" cy="15.55" fill="#f8f9fa" rx="1.352" ry="15.55" transform="matrix(-.5334 .84587 .8456 .53381 308.32 188.1)"/></g><mask id="n" width="15" height="24" x="320" y="195" maskUnits="userSpaceOnUse" style="mask-type:alpha"><path fill="#000" d="M334.02 204.84c-1.919 3.079-5.214 10.111-6.621 13.241l-7.317-2.068 8.129-20.217c2.736 1.732 7.729 5.965 5.809 9.044"/></mask><g mask="url(#n)"><g filter="url(#o)" opacity=".3" style="mix-blend-mode:multiply"><path fill="#a8dab5" d="M332.91 202.8c-2.327 5.508-3.657 10.208-2.969 10.499s2.621-3.886 4.949-9.394c2.327-5.507 4.166-10.259 3.479-10.55s-3.132 3.938-5.459 9.445"/></g><g filter="url(#q)" opacity=".3" style="mix-blend-mode:screen"><path fill="#81c995" d="M328.52 214.07c-.753 1.534-1.121 2.898-.822 3.045s.942-1.003 1.695-2.537 1.333-2.872 1.034-3.019c-.3-.148-1.153.977-1.907 2.511"/></g></g><mask id="r" width="16" height="24" x="320" y="262" maskUnits="userSpaceOnUse" style="mask-type:alpha"><path fill="#000" d="M334.62 275.9c-1.982-3.039-5.421-10.001-6.893-13.103l-7.273 2.22 8.544 20.044c2.7-1.787 7.604-6.123 5.622-9.161"/></mask><g mask="url(#r)"><g filter="url(#s)" opacity=".3" style="mix-blend-mode:multiply"><path fill="#a8dab5" d="M333.56 277.97c-2.44-5.458-3.866-10.13-3.185-10.435.682-.305 2.701 3.831 5.141 9.29s4.378 10.171 3.696 10.476-3.212-3.872-5.652-9.331"/></g><g filter="url(#t)" opacity=".3" style="mix-blend-mode:screen"><path fill="#81c995" d="M328.93 266.79c-.785-1.519-1.181-2.874-.885-3.028s.962.984 1.747 2.502c.785 1.519 1.392 2.844 1.095 2.997s-1.173-.953-1.957-2.471"/></g></g><g filter="url(#u)" opacity=".7"><path fill="#a8dab5" d="M319.75 199.43c8.708 5.031 12.854 7.225 13.298 6.455s-2.98-4.214-11.688-9.244c-7.124-7.74-16.33.837-16.774 1.607-.445.771 3.608-6.325 15.164 1.182"/></g><g filter="url(#v)" opacity=".3"><path fill="#fff" d="M315.5 206.33c8.861 5.119 12.919 7.631 12.546 8.278s-5.036-.816-13.898-5.935c-15.396-5.835-13.361-17.4-4.946-15.503 3.459 1.495-6.132 6.679 6.298 13.16"/></g></g><ellipse cx="43.421" cy="302.39" fill="url(#w)" fill-opacity=".7" rx="3.936" ry="2.161" transform="matrix(.66509 -.74677 .74641 .66549 0 0)"/><ellipse cx="254.1" cy="114.78" fill="url(#x)" fill-opacity=".7" rx="3.935" ry="2.16" transform="matrix(.66508 .74677 .7464 -.66549 0 0)"/><g filter="url(#y)" opacity=".09" style="mix-blend-mode:multiply" transform="translate(-99.5 -99)"><path fill="#011b04" d="M362.65 265.51c-4.849-1.957-7.861.102-8.761 1.376-4.533 3.67-1.018 8.613.917 10.091s5.348 3.618 10.034 1.528 3.871-10.549-2.19-12.995"/></g><g filter="url(#z)" opacity=".09" style="mix-blend-mode:multiply" transform="translate(-99.5 -99)"><path fill="#011b04" d="M362.72 214.66c-4.823 1.957-7.819-.102-8.714-1.377-4.509-3.67-1.013-8.615.912-10.093s5.32-3.619 9.981-1.529 3.85 10.552-2.179 12.999"/></g><path fill="#f8f9fa" d="M266.56 104.56c-2.028-3.05-6.65-3.54-10.323-1.094s-5.007 6.9-2.978 9.95 6.649 3.539 10.323 1.093c3.673-2.445 5.006-6.9 2.978-9.949"/><g filter="url(#A)" transform="translate(-99.5 -99)"><path fill="#000" d="M362.91 266.66c-3.673-2.446-8.257-2.013-10.239.967-1.981 2.979-.61 7.377 3.063 9.823 3.674 2.445 8.258 2.012 10.239-.967s.61-7.378-3.063-9.823"/></g><g filter="url(#B)" transform="translate(-99.5 -99)"><path fill="#000" d="M362.98 213.51c-3.672 2.444-8.254 2.011-10.235-.967s-.61-7.374 3.062-9.819 8.254-2.012 10.235.967.61 7.374-3.062 9.819"/></g><mask id="C" width="16" height="15" x="351" y="265" maskUnits="userSpaceOnUse" style="mask-type:alpha"><path fill="#202124" d="M362.9 266.66c-3.673-2.446-8.257-2.013-10.239.967-1.981 2.979-.61 7.377 3.063 9.823 3.674 2.445 8.258 2.012 10.239-.967s.611-7.378-3.063-9.823"/></mask><g mask="url(#C)" transform="translate(-99.5 -99)"><g filter="url(#D)"><path fill="#d8d8d8" fill-opacity=".29" d="M355.27 276.57c2.866 2.339 6.207 2.602 7.63 2.314-2.774.592-5.496.377-8.217-1.883-1.502-1.248-2.336-3.146-2.737-4.533a5 5 0 0 1-.158-.609 7 7 0 0 1-.144-.847c.053.239.079.518.144.847q.063.282.158.609c.319.969 1.097 2.285 3.324 4.102"/></g><g filter="url(#E)" opacity=".8"><path fill="url(#F)" d="M355.98 266.02c-4.054.972-4.476 4.278-4.179 5.81-.575-1.32.156-3.697 1.306-4.7.919-.803 2.299-1.074 2.873-1.11"/></g></g><mask id="G" width="16" height="15" x="351" y="201" maskUnits="userSpaceOnUse" style="mask-type:alpha"><path fill="#202124" d="M362.98 213.51c-3.672 2.444-8.254 2.011-10.235-.967s-.61-7.374 3.062-9.819 8.254-2.012 10.235.967.609 7.374-3.062 9.819"/></mask><g mask="url(#G)" transform="translate(-99.5 -99)"><path fill="url(#H)" d="M352.53 209.68c.217 3.482 2.931 4.621 4.261 4.755-.823-.353-2.569-1.606-2.971-3.804s2.119-5.11 3.43-6.291l-1.223-1.097c-1.256.695-3.715 2.955-3.497 6.437"/><g filter="url(#I)"><path fill="#d8d8d8" fill-opacity=".29" d="M355.35 203.61c2.866-2.338 6.205-2.601 7.628-2.314-2.774-.592-5.494-.377-8.214 1.883-1.501 1.247-2.335 3.144-2.736 4.531a5 5 0 0 0-.158.609c-.08.351-.126.643-.144.846.053-.239.079-.517.144-.846q.063-.283.158-.609c.318-.969 1.097-2.284 3.322-4.1"/></g></g><g filter="url(#J)" opacity=".8" transform="translate(-99.5 -99)"><path fill="#e2dce1" d="M354.18 273.48c.272 1.361 1.7 2.381 2.38 2.721l1.02-.68c-.227-.113-.816-.476-1.36-1.02-.544-.545-1.133-1.361-1.36-1.701z"/></g><g filter="url(#K)" opacity=".8" transform="translate(-99.5 -99)"><path fill="#e2dce1" d="M354.25 206.64c.26-1.345 1.629-2.355 2.281-2.691l.978.673a5.8 5.8 0 0 0-1.304 1.009c-.521.538-1.086 1.345-1.303 1.682z"/></g><g fill="#e2dce1" filter="url(#L)" opacity=".8" transform="translate(-99.5 -99)"><path d="M361.53 267.9c.366.653.832 1.665 1.018 2.09l1.172.407c-.326-1.019-.917-1.783-1.172-2.038zm-5.145-2.038c-.326.081-.815.306-1.018.408h.458c.367-.204 1.002-.357 1.273-.408a1.4 1.4 0 0 0-.713 0"/></g><g fill="#e2dce1" filter="url(#M)" opacity=".8" transform="translate(-99.5 -99)"><path d="M361.63 212.37c.367-.654.832-1.667 1.019-2.093l1.171-.408c-.326 1.021-.917 1.786-1.171 2.041zm-5.144 2.041c-.326-.082-.815-.306-1.019-.409h.459c.366.205 1.001.358 1.273.409a1.4 1.4 0 0 1-.713 0"/></g><g filter="url(#N)" opacity=".3" transform="translate(-99.5 -99)"><path fill="url(#O)" fill-opacity=".4" d="M356.58 190.91c16.821 0-14.182 23.182-14.182 49.126 0 25.945 31.003 49.127 14.182 49.127-13.645-4.622-28.309-23.182-28.309-49.127 0-25.944 16.276-45.955 28.309-49.126"/></g><g filter="url(#P)" opacity=".2" transform="translate(-99.5 -99)"><path fill="url(#O)" fill-opacity=".4" d="M356.58 190.91c16.821 0-14.182 23.182-14.182 49.126 0 25.945 31.003 49.127 14.182 49.127-13.645-4.622-28.309-23.182-28.309-49.127 0-25.944 16.276-45.955 28.309-49.126"/></g><defs><filter id="c" width="91.228" height="73.959" x="323.7" y="228.27" color-interpolation-filters="sRGB" filterUnits="userSpaceOnUse"><feFlood flood-opacity="0" result="BackgroundImageFix"/><feBlend in="SourceGraphic" in2="BackgroundImageFix" result="shape"/><feGaussianBlur result="effect1_foregroundBlur_18031_13258" stdDeviation="2.038"/></filter><filter id="e" width="95.305" height="78.035" x="321.66" y="175.68" color-interpolation-filters="sRGB" filterUnits="userSpaceOnUse"><feFlood flood-opacity="0" result="BackgroundImageFix"/><feBlend in="SourceGraphic" in2="BackgroundImageFix" result="shape"/><feGaussianBlur result="effect1_foregroundBlur_18031_13258" stdDeviation="3.058"/></filter><filter id="g" width="70.455" height="45.061" x="327.49" y="271.46" color-interpolation-filters="sRGB" filterUnits="userSpaceOnUse"><feFlood flood-opacity="0" result="BackgroundImageFix"/><feBlend in="SourceGraphic" in2="BackgroundImageFix" result="shape"/><feGaussianBlur result="effect1_foregroundBlur_18031_13258" stdDeviation="1.529"/></filter><filter id="h" width="70.455" height="45.061" x="327.49" y="164.27" color-interpolation-filters="sRGB" filterUnits="userSpaceOnUse"><feFlood flood-opacity="0" result="BackgroundImageFix"/><feBlend in="SourceGraphic" in2="BackgroundImageFix" result="shape"/><feGaussianBlur result="effect1_foregroundBlur_18031_13258" stdDeviation="1.529"/></filter><filter id="i" width="36.507" height="21.185" x="300.14" y="269.31" color-interpolation-filters="sRGB" filterUnits="userSpaceOnUse"><feFlood flood-opacity="0" result="BackgroundImageFix"/><feBlend in="SourceGraphic" in2="BackgroundImageFix" result="shape"/><feGaussianBlur result="effect1_foregroundBlur_18031_13258" stdDeviation="2.038"/></filter><filter id="j" width="28.108" height="19.214" x="306.38" y="273.46" color-interpolation-filters="sRGB" filterUnits="userSpaceOnUse"><feFlood flood-opacity="0" result="BackgroundImageFix"/><feBlend in="SourceGraphic" in2="BackgroundImageFix" result="shape"/><feGaussianBlur result="effect1_foregroundBlur_18031_13258" stdDeviation=".51"/></filter><filter id="k" width="27.052" height="26.701" x="303.77" y="261.84" color-interpolation-filters="sRGB" filterUnits="userSpaceOnUse"><feFlood flood-opacity="0" result="BackgroundImageFix"/><feBlend in="SourceGraphic" in2="BackgroundImageFix" result="shape"/><feGaussianBlur result="effect1_foregroundBlur_18031_13258" stdDeviation="1.529"/></filter><filter id="m" width="28.376" height="18.798" x="306.56" y="188.15" color-interpolation-filters="sRGB" filterUnits="userSpaceOnUse"><feFlood flood-opacity="0" result="BackgroundImageFix"/><feBlend in="SourceGraphic" in2="BackgroundImageFix" result="shape"/><feGaussianBlur result="effect1_foregroundBlur_18031_13258" stdDeviation=".51"/></filter><filter id="o" width="12.832" height="24.05" x="327.72" y="191.3" color-interpolation-filters="sRGB" filterUnits="userSpaceOnUse"><feFlood flood-opacity="0" result="BackgroundImageFix"/><feBlend in="SourceGraphic" in2="BackgroundImageFix" result="shape"/><feGaussianBlur result="effect1_foregroundBlur_18031_13258" stdDeviation="1.019"/></filter><filter id="q" width="5.36" height="8.028" x="326.37" y="210.32" color-interpolation-filters="sRGB" filterUnits="userSpaceOnUse"><feFlood flood-opacity="0" result="BackgroundImageFix"/><feBlend in="SourceGraphic" in2="BackgroundImageFix" result="shape"/><feGaussianBlur result="effect1_foregroundBlur_18031_13258" stdDeviation=".612"/></filter><filter id="s" width="13.222" height="23.876" x="328.16" y="265.48" color-interpolation-filters="sRGB" filterUnits="userSpaceOnUse"><feFlood flood-opacity="0" result="BackgroundImageFix"/><feBlend in="SourceGraphic" in2="BackgroundImageFix" result="shape"/><feGaussianBlur result="effect1_foregroundBlur_18031_13258" stdDeviation="1.019"/></filter><filter id="t" width="5.463" height="7.973" x="326.73" y="262.53" color-interpolation-filters="sRGB" filterUnits="userSpaceOnUse"><feFlood flood-opacity="0" result="BackgroundImageFix"/><feBlend in="SourceGraphic" in2="BackgroundImageFix" result="shape"/><feGaussianBlur result="effect1_foregroundBlur_18031_13258" stdDeviation=".612"/></filter><filter id="u" width="36.687" height="20.761" x="300.47" y="189.36" color-interpolation-filters="sRGB" filterUnits="userSpaceOnUse"><feFlood flood-opacity="0" result="BackgroundImageFix"/><feBlend in="SourceGraphic" in2="BackgroundImageFix" result="shape"/><feGaussianBlur result="effect1_foregroundBlur_18031_13258" stdDeviation="2.038"/></filter><filter id="v" width="31.473" height="27.904" x="299.65" y="189.91" color-interpolation-filters="sRGB" filterUnits="userSpaceOnUse"><feFlood flood-opacity="0" result="BackgroundImageFix"/><feBlend in="SourceGraphic" in2="BackgroundImageFix" result="shape"/><feGaussianBlur result="effect1_foregroundBlur_18031_13258" stdDeviation="1.529"/></filter><filter id="y" width="17.404" height="15.895" x="351.06" y="264.09" color-interpolation-filters="sRGB" filterUnits="userSpaceOnUse"><feFlood flood-opacity="0" result="BackgroundImageFix"/><feBlend in="SourceGraphic" in2="BackgroundImageFix" result="shape"/><feGaussianBlur result="effect1_foregroundBlur_18031_13258" stdDeviation=".306"/></filter><filter id="z" width="17.318" height="15.901" x="351.19" y="200.18" color-interpolation-filters="sRGB" filterUnits="userSpaceOnUse"><feFlood flood-opacity="0" result="BackgroundImageFix"/><feBlend in="SourceGraphic" in2="BackgroundImageFix" result="shape"/><feGaussianBlur result="effect1_foregroundBlur_18031_13258" stdDeviation=".306"/></filter><filter id="A" width="15.525" height="14.367" x="351.45" y="265.08" color-interpolation-filters="sRGB" filterUnits="userSpaceOnUse"><feFlood flood-opacity="0" result="BackgroundImageFix"/><feColorMatrix in="SourceAlpha" result="hardAlpha" values="0 0 0 0 0 0 0 0 0 0 0 0 0 0 0 0 0 0 127 0"/><feOffset dx="-.102" dy=".204"/><feGaussianBlur stdDeviation=".102"/><feComposite in2="hardAlpha" operator="out"/><feColorMatrix values="0 0 0 0 0.0156863 0 0 0 0 0.231373 0 0 0 0 0.0666667 0 0 0 0.7 0"/><feBlend in2="BackgroundImageFix" result="effect1_dropShadow_18031_13258"/><feBlend in="SourceGraphic" in2="effect1_dropShadow_18031_13258" result="shape"/></filter><filter id="B" width="15.518" height="14.363" x="351.53" y="201.14" color-interpolation-filters="sRGB" filterUnits="userSpaceOnUse"><feFlood flood-opacity="0" result="BackgroundImageFix"/><feColorMatrix in="SourceAlpha" result="hardAlpha" values="0 0 0 0 0 0 0 0 0 0 0 0 0 0 0 0 0 0 127 0"/><feOffset dx="-.102" dy=".204"/><feGaussianBlur stdDeviation=".102"/><feComposite in2="hardAlpha" operator="out"/><feColorMatrix values="0 0 0 0 0.0156863 0 0 0 0 0.231373 0 0 0 0 0.0666667 0 0 0 0.7 0"/><feBlend in2="BackgroundImageFix" result="effect1_dropShadow_18031_13258"/><feBlend in="SourceGraphic" in2="effect1_dropShadow_18031_13258" result="shape"/></filter><filter id="D" width="11.664" height="8.562" x="351.44" y="270.81" color-interpolation-filters="sRGB" filterUnits="userSpaceOnUse"><feFlood flood-opacity="0" result="BackgroundImageFix"/><feBlend in="SourceGraphic" in2="BackgroundImageFix" result="shape"/><feGaussianBlur result="effect1_foregroundBlur_18031_13258" stdDeviation=".102"/></filter><filter id="E" width="4.482" height="5.912" x="351.55" y="265.97" color-interpolation-filters="sRGB" filterUnits="userSpaceOnUse"><feFlood flood-opacity="0" result="BackgroundImageFix"/><feBlend in="SourceGraphic" in2="BackgroundImageFix" result="shape"/><feGaussianBlur result="effect1_foregroundBlur_18031_13258" stdDeviation=".025"/></filter><filter id="I" width="11.659" height="8.558" x="351.52" y="200.81" color-interpolation-filters="sRGB" filterUnits="userSpaceOnUse"><feFlood flood-opacity="0" result="BackgroundImageFix"/><feBlend in="SourceGraphic" in2="BackgroundImageFix" result="shape"/><feGaussianBlur result="effect1_foregroundBlur_18031_13258" stdDeviation=".102"/></filter><filter id="J" width="3.807" height="3.808" x="353.97" y="272.6" color-interpolation-filters="sRGB" filterUnits="userSpaceOnUse"><feFlood flood-opacity="0" result="BackgroundImageFix"/><feBlend in="SourceGraphic" in2="BackgroundImageFix" result="shape"/><feGaussianBlur result="effect1_foregroundBlur_18031_13258" stdDeviation=".102"/></filter><filter id="K" width="3.667" height="3.771" x="354.04" y="203.75" color-interpolation-filters="sRGB" filterUnits="userSpaceOnUse"><feFlood flood-opacity="0" result="BackgroundImageFix"/><feBlend in="SourceGraphic" in2="BackgroundImageFix" result="shape"/><feGaussianBlur result="effect1_foregroundBlur_18031_13258" stdDeviation=".102"/></filter><filter id="L" width="8.557" height="4.784" x="355.27" y="265.71" color-interpolation-filters="sRGB" filterUnits="userSpaceOnUse"><feFlood flood-opacity="0" result="BackgroundImageFix"/><feBlend in="SourceGraphic" in2="BackgroundImageFix" result="shape"/><feGaussianBlur result="effect1_foregroundBlur_18031_13258" stdDeviation=".051"/></filter><filter id="M" width="8.557" height="4.79" x="355.37" y="209.76" color-interpolation-filters="sRGB" filterUnits="userSpaceOnUse"><feFlood flood-opacity="0" result="BackgroundImageFix"/><feBlend in="SourceGraphic" in2="BackgroundImageFix" result="shape"/><feGaussianBlur result="effect1_foregroundBlur_18031_13258" stdDeviation=".051"/></filter><filter id="N" width="41.464" height="106.41" x="324.19" y="186.83" color-interpolation-filters="sRGB" filterUnits="userSpaceOnUse"><feFlood flood-opacity="0" result="BackgroundImageFix"/><feBlend in="SourceGraphic" in2="BackgroundImageFix" result="shape"/><feGaussianBlur result="effect1_foregroundBlur_18031_13258" stdDeviation="2.038"/></filter><filter id="P" width="41.464" height="106.41" x="324.19" y="186.83" color-interpolation-filters="sRGB" filterUnits="userSpaceOnUse"><feFlood flood-opacity="0" result="BackgroundImageFix"/><feBlend in="SourceGraphic" in2="BackgroundImageFix" result="shape"/><feGaussianBlur result="effect1_foregroundBlur_18031_13258" stdDeviation="2.038"/></filter><linearGradient id="a" x1="382.53" x2="99.558" y1="99.876" y2="382.85" gradientTransform="translate(-99.5 -99)" gradientUnits="userSpaceOnUse"><stop offset="0" stop-color="#E44857"/><stop offset=".47" stop-color="#C711E1"/><stop offset="1" stop-color="#7F52FF"/></linearGradient><linearGradient id="d" x1="352.3" x2="365.85" y1="287.45" y2="268.25" gradientUnits="userSpaceOnUse"><stop offset="0" stop-color="#A8F0B9"/><stop offset="1" stop-color="#ADEEBC" stop-opacity="0"/></linearGradient><linearGradient id="f" x1="352.3" x2="365.85" y1="192.5" y2="211.7" gradientUnits="userSpaceOnUse"><stop offset="0" stop-color="#A8F0B9"/><stop offset="1" stop-color="#ADEEBC" stop-opacity="0"/></linearGradient><linearGradient id="F" x1="350.18" x2="355.92" y1="271.42" y2="271.16" gradientUnits="userSpaceOnUse"><stop offset="0" stop-color="#E2DDE2"/><stop offset="1" stop-color="#E2DDE2" stop-opacity="0"/></linearGradient><linearGradient id="H" x1="352.52" x2="357.25" y1="208.84" y2="208.84" gradientUnits="userSpaceOnUse"><stop offset="0" stop-color="#373637"/><stop offset="1" stop-color="#373637" stop-opacity="0"/></linearGradient><linearGradient id="O" x1="327.37" x2="350.87" y1="240.03" y2="240.03" gradientUnits="userSpaceOnUse"><stop offset="0" stop-color="#A8F0B9"/><stop offset="1" stop-color="#ADEEBC" stop-opacity="0"/></linearGradient><radialGradient id="l" cx="0" cy="0" r="1" gradientTransform="matrix(.04298 4.756 -3.4449 .03113 6.427 7.566)" gradientUnits="userSpaceOnUse"><stop offset="0" stop-color="#fff"/><stop offset=".948" stop-color="#fff" stop-opacity="0"/></radialGradient><radialGradient id="w" cx="0" cy="0" r="1" gradientTransform="matrix(-.0496 1.8544 -3.3778 -.09034 43.421 302.39)" gradientUnits="userSpaceOnUse"><stop offset="0" stop-color="#93E19F"/><stop offset="1" stop-color="#93E19F" stop-opacity="0"/></radialGradient><radialGradient id="x" cx="0" cy="0" r="1" gradientTransform="matrix(-.04957 1.8537 -3.3764 -.0903 254.1 114.78)" gradientUnits="userSpaceOnUse"><stop offset="0" stop-color="#93E19F"/><stop offset="1" stop-color="#93E19F" stop-opacity="0"/></radialGradient></defs></svg>