<svg xmlns="http://www.w3.org/2000/svg" viewBox="0 0 255.99 219.43"><defs><linearGradient id="b" x1="273.19" x2="135.92" y1="131.48" y2="126.17" gradientTransform="rotate(66.15 14.038 9.143)" gradientUnits="userSpaceOnUse"><stop offset="0" stop-color="#c600f0"/><stop offset=".998" stop-color="#070093"/></linearGradient><linearGradient id="a" x1="263.59" x2="24.467" y1="164.57" y2="164.57" gradientUnits="userSpaceOnUse"><stop offset=".003" stop-color="#ff5f99"/><stop offset=".995" stop-color="#c200f1"/></linearGradient><linearGradient id="d" x1="263.59" x2="24.467" y1="54.857" y2="54.857" gradientTransform="translate(0 -18.286)" href="#a"/><linearGradient id="f" x1="263.59" x2="24.467" y1="201.14" y2="201.14" gradientTransform="translate(0 -18.286)" href="#a"/><linearGradient id="g" x1="263.59" x2="24.467" y1="91.429" y2="91.429" gradientTransform="translate(0 -18.286)" href="#a"/><linearGradient id="i" x1="263.59" x2="24.467" y1="128" y2="128" gradientTransform="translate(0 -18.286)" href="#a"/><linearGradient id="c" x1="263.59" x2="24.467" y1="164.57" y2="164.57" gradientTransform="translate(0 -18.286)" gradientUnits="userSpaceOnUse" href="#a"/></defs><g stroke-width="0"><ellipse cx="-26.223" cy="212.03" fill="url(#b)" rx="116.96" ry="60.323" transform="rotate(-66.15)"/><path fill="url(#c)" d="M195.05 158.48h30.836a221 221 0 0 0 12.607-24.381H195.05c-6.733 0-12.19 5.458-12.19 12.19s5.458 12.19 12.19 12.19z"/><path fill="url(#d)" d="M195.05 36.571c0 6.733 5.458 12.19 12.19 12.19h48.351c-.773-9.212-2.652-17.428-5.546-24.381H207.24c-6.733 0-12.19 5.458-12.19 12.19z"/><path fill="url(#f)" d="M109.71 170.67c-6.733 0-12.19 5.458-12.19 12.19 0 6.733 5.458 12.19 12.19 12.19h87.687c7.183-6.953 14.131-15.169 20.587-24.38z"/><path fill="url(#g)" d="M12.19 85.333h73.143c6.733 0 12.19-5.458 12.19-12.19s-5.458-12.19-12.19-12.19H12.19C5.457 60.953 0 66.411 0 73.143s5.458 12.19 12.19 12.19"/><path fill="url(#i)" d="M73.143 109.71c0 6.733 5.458 12.19 12.19 12.19h97.524c6.733 0 12.19-5.458 12.19-12.19s-5.458-12.19-12.19-12.19H85.333c-6.733 0-12.19 5.458-12.19 12.19"/><path fill="url(#g)" d="M121.9 85.333h109.71c6.733 0 12.19-5.458 12.19-12.19s-5.458-12.19-12.19-12.19H121.9c-6.733 0-12.19 5.458-12.19 12.19s5.458 12.19 12.19 12.19"/><path fill="url(#d)" d="M121.9 36.571c0-6.733-5.458-12.19-12.19-12.19H60.948c-6.733 0-12.19 5.458-12.19 12.19s5.458 12.19 12.19 12.19h48.762c6.733 0 12.19-5.458 12.19-12.19"/><path fill="#ffb966" d="M231.62 109.71c0-6.733-5.458-12.19-12.19-12.19-6.733 0-12.19 5.458-12.19 12.19 0 6.733 5.458 12.19 12.19 12.19 6.733 0 12.19-5.458 12.19-12.19m-60.952 36.571c0-6.733-5.458-12.19-12.19-12.19h-12.19c-6.733 0-12.19 5.458-12.19 12.19 0 6.733 5.458 12.19 12.19 12.19h12.19c6.733 0 12.19-5.458 12.19-12.19m12.19-109.72c0-6.733-5.458-12.19-12.19-12.19h-24.381c-6.733 0-12.19 5.458-12.19 12.19 0 6.733 5.458 12.19 12.19 12.19h24.381c6.733 0 12.19-5.458 12.19-12.19"/></g></svg>