<svg xmlns="http://www.w3.org/2000/svg" viewBox="0 0 38.672 51.477"><defs><linearGradient id="b" x2="174.22" gradientTransform="scale(.86674 1.1537)" gradientUnits="userSpaceOnUse" href="#a"/></defs><defs><linearGradient id="a" gradientTransform="rotate(25)"><stop offset="0" stop-color="#5A5A2D"/><stop offset="1" stop-color="#0DE30D"/></linearGradient></defs><path fill="url(#b)" d="m84 23 8 24h-1l-2-4-3 4h-4l2 4-1 4 5-1 4 3v-5l1-1 11 34-7 2-12-7-1 14-11 10 13 6 6 13 10-11 11-1 20 60q18 4.5 18 12c0 10-34 18-75 18-42 0-76-8-76-18 0-5 7-9 19-12l31-90 3 6 8-9 11-1-6-10 3-11-11 2 12-34V0l14 6zM38 125l13 8 14-4-3 14 8 13-15 2-9 11-6-14-14-5 11-10zm49 15 6 4 6-2-1 6 4 6-7 1-4 5-3-6-6-3 5-4zm-27-30-4-2-4 1v-5l-2-4h5l2-4 2 5 5 1-4 3z" transform="scale(.25611)"/></svg>