<svg xmlns="http://www.w3.org/2000/svg" fill="none" viewBox="0 0 38 38"><path fill="url(#a)" fill-rule="evenodd" d="M2.423 13.149a8.274 8.274 0 0 0 0 11.701L13.15 35.576a8.274 8.274 0 0 0 11.701 0L35.576 24.85a8.274 8.274 0 0 0 0-11.701L24.85 2.423a8.274 8.274 0 0 0-11.7 0zm9.981-2.699a1.95 1.95 0 0 0-1.95 1.95v12.678a1.95 1.95 0 0 0 3.334 1.374l12.667-12.667a1.95 1.95 0 0 0-2.758-2.758l-8.557 8.557a.46.46 0 0 1-.786-.325V12.4a1.95 1.95 0 0 0-1.95-1.95m7.338 12.046a.49.49 0 0 1 0-.69l2.068-2.068c.19-.19.5-.19.69 0l4.482 4.482a1.95 1.95 0 1 1-2.758 2.758z" clip-rule="evenodd"/><defs><linearGradient id="a" x1="19" x2="19.95" y1="42" y2="4" gradientTransform="translate(0 -4)" gradientUnits="userSpaceOnUse"><stop offset="0" stop-color="#AF36FE"/><stop offset="1" stop-color="#45C4FE"/></linearGradient></defs></svg>