<svg xmlns="http://www.w3.org/2000/svg" fill="none" viewBox="0 0 27.479 24"><g clip-path="url(#a)"><path fill="#7528fc" d="M22.368 12.667h3.772c.74 0 1.339.6 1.339 1.34v2.224c0 .74-.6 1.34-1.34 1.34H22.85a1.34 1.34 0 0 0-.947.392l-5.645 5.644a1.34 1.34 0 0 1-.947.393h-2.714a1.34 1.34 0 0 1-1.34-1.305l-.058-2.271a1.34 1.34 0 0 1 1.34-1.375h2.335c.356 0 .696-.141.947-.392l5.598-5.598a1.34 1.34 0 0 1 .947-.393z"/><path fill="#ff3276" d="M11.17 0h3.771c.74 0 1.34.6 1.34 1.34v2.224c0 .74-.6 1.34-1.34 1.34h-3.29a1.34 1.34 0 0 0-.947.392L5.06 10.941a1.34 1.34 0 0 1-.947.393H1.398A1.34 1.34 0 0 1 .06 10.029L0 7.757a1.34 1.34 0 0 1 1.34-1.373h2.335c.356 0 .696-.142.948-.393L10.22.394A1.34 1.34 0 0 1 11.168 0z"/><path fill="#f480ff" d="M22.368 2.866h3.772c.74 0 1.339.6 1.339 1.34V6.43c0 .74-.6 1.34-1.34 1.34H22.85a1.34 1.34 0 0 0-.947.392l-5.645 5.645a1.34 1.34 0 0 1-.948.393h-3.297a1.34 1.34 0 0 0-.927.372L4.75 20.645c-.25.24-.582.372-.927.372h-2.31c-.74 0-1.339-.6-1.339-1.339v-2.286c0-.74.6-1.34 1.34-1.34h2.292c.356 0 .697-.14.948-.392l6.018-6.018a1.34 1.34 0 0 1 .947-.393h3.156c.355 0 .696-.141.947-.393L21.42 3.26a1.34 1.34 0 0 1 .947-.393h.002z"/></g><defs><clipPath id="a"><path fill="#fff" d="M0 0h122.53v24H0z"/></clipPath></defs></svg>