<svg version="1.1" viewBox="0 0 49.654 51.116" xmlns="http://www.w3.org/2000/svg"><title>Logomark</title><path d="m49.626 11.564a0.809 0.809 0 0 1 0.028 0.209v10.972a0.8 0.8 0 0 1-0.402 0.694l-9.209 5.302v10.509c0 0.286-0.152 0.55-0.4 0.694l-19.223 11.066c-0.044 0.025-0.092 0.041-0.14 0.058-0.018 6e-3 -0.035 0.017-0.054 0.022a0.805 0.805 0 0 1-0.41 0c-0.022-6e-3 -0.042-0.018-0.063-0.026-0.044-0.016-0.09-0.03-0.132-0.054l-19.219-11.066a0.801 0.801 0 0 1-0.402-0.694v-32.916c0-0.072 0.01-0.142 0.028-0.21 6e-3 -0.023 0.02-0.044 0.028-0.067 0.015-0.042 0.029-0.085 0.051-0.124 0.015-0.026 0.037-0.047 0.055-0.071 0.023-0.032 0.044-0.065 0.071-0.093 0.023-0.023 0.053-0.04 0.079-0.06 0.029-0.024 0.055-0.05 0.088-0.069h1e-3l9.61-5.533a0.802 0.802 0 0 1 0.8 0l9.61 5.533h2e-3c0.032 0.02 0.059 0.045 0.088 0.068 0.026 0.02 0.055 0.038 0.078 0.06 0.028 0.029 0.048 0.062 0.072 0.094 0.017 0.024 0.04 0.045 0.054 0.071 0.023 0.04 0.036 0.082 0.052 0.124 8e-3 0.023 0.022 0.044 0.028 0.068a0.809 0.809 0 0 1 0.028 0.209v20.559l8.008-4.611v-10.51c0-0.07 0.01-0.141 0.028-0.208 7e-3 -0.024 0.02-0.045 0.028-0.068 0.016-0.042 0.03-0.085 0.052-0.124 0.015-0.026 0.037-0.047 0.054-0.071 0.024-0.032 0.044-0.065 0.072-0.093 0.023-0.023 0.052-0.04 0.078-0.06 0.03-0.024 0.056-0.05 0.088-0.069h1e-3l9.611-5.533a0.801 0.801 0 0 1 0.8 0l9.61 5.533c0.034 0.02 0.06 0.045 0.09 0.068 0.025 0.02 0.054 0.038 0.077 0.06 0.028 0.029 0.048 0.062 0.072 0.094 0.018 0.024 0.04 0.045 0.054 0.071 0.023 0.039 0.036 0.082 0.052 0.124 9e-3 0.023 0.022 0.044 0.028 0.068zm-1.574 10.718v-9.124l-3.363 1.936-4.646 2.675v9.124l8.01-4.611zm-9.61 16.505v-9.13l-4.57 2.61-13.05 7.448v9.216zm-36.84-31.068v31.068l17.618 10.143v-9.214l-9.204-5.209-3e-3 -2e-3 -4e-3 -2e-3c-0.031-0.018-0.057-0.044-0.086-0.066-0.025-0.02-0.054-0.036-0.076-0.058l-2e-3 -3e-3c-0.026-0.025-0.044-0.056-0.066-0.084-0.02-0.027-0.044-0.05-0.06-0.078l-1e-3 -3e-3c-0.018-0.03-0.029-0.066-0.042-0.1-0.013-0.03-0.03-0.058-0.038-0.09v-1e-3c-0.01-0.038-0.012-0.078-0.016-0.117-4e-3 -0.03-0.012-0.06-0.012-0.09v-21.483l-4.645-2.676-3.363-1.934zm8.81-5.994-8.007 4.609 8.005 4.609 8.006-4.61-8.006-4.608zm4.164 28.764 4.645-2.674v-20.096l-3.363 1.936-4.646 2.675v20.096zm24.667-23.325-8.006 4.609 8.006 4.609 8.005-4.61zm-0.801 10.605-4.646-2.675-3.363-1.936v9.124l4.645 2.674 3.364 1.937zm-18.422 20.561 11.743-6.704 5.87-3.35-8-4.606-9.211 5.303-8.395 4.833z" fill="#ff2d20" fill-rule="evenodd"/></svg>
