<svg viewBox="0 0 155.61 120" xmlns="http://www.w3.org/2000/svg"><path d="M14.344 1.075c1.499 2.701 3.058 5.027 4.685 7.028l.02.02c.005.007.014.013.02.02-.75-.11-1.522-.186-2.324-.178-1.583.017-3.284.29-5.118.866 3.15 2.638 5.832 4.566 8.19 6.064l-.178-.06.177.1c-3.652-1.144-7.592-1.284-12.205.905 3.312 2.072 6.092 3.585 8.544 4.725-.072-.011-.145-.03-.216-.04l.177.099c-3.822-.659-7.789-.289-12.108 2.559 2.816 1.255 5.263 2.202 7.442 2.933h.02l.137.079C7.963 26.337 4.351 27.47.82 30.82c3.085.765 5.727 1.276 8.052 1.614l-.197.04c-.09-.002-.185.001-.275 0l.098.04C5.78 33.13 3.131 34.492.544 37.1a90.21 90.21 0 005.71 1.063c-2.127 1.028-4.146 2.62-5.985 5.06 2.415.187 4.555.267 6.476.275-2.324 1.076-4.515 2.765-6.457 5.493 3.45.172 6.334.165 8.82.02-.047.018-.092.039-.138.058-.151.014-.303.024-.453.04l.216.079c-2.584 1.134-4.975 2.973-7.028 6.083 4.288.062 7.684-.14 10.532-.493-.086.024-.17.054-.256.08-.11.005-.226.01-.334.019l.138.04c-3.36 1-6.461 2.927-9.036 6.83 3.463.05 6.355-.08 8.839-.315-.054.03-.104.069-.158.099-2.967 1.655-5.518 4.141-7.205 8.347 3.046-.577 5.6-1.186 7.815-1.83-.036.028-.081.048-.118.078l.138-.02c-2.281 1.703-4.2 4.088-5.492 7.619 2.097-.464 3.97-.95 5.65-1.437-1.508 1.822-2.672 4.097-3.327 7.087a88.305 88.305 0 006.004-2.441c-.021.025-.038.053-.059.078-.036.029-.083.05-.118.08l.059-.02c-1.607 1.925-2.833 4.347-3.445 7.559 3.206-1.282 5.814-2.512 8.012-3.681-.062.06-.138.116-.197.177l.06-.02c-1.945 2.132-3.396 4.871-3.977 8.642 3.784-1.67 6.7-3.223 9.095-4.685l-.08.079.158-.08c-2.718 2.33-4.804 5.419-5.531 10.14 5.1-2.252 8.668-4.292 11.437-6.182-1.189 2.405-1.817 5.208-1.515 8.721 4.93-3.782 8.05-6.831 10.374-9.528-.004.039.003.079 0 .118-.14 1.71-.034 3.562.473 5.61 2.922-5.02 5.845-7.102 8.819-8.819-3.72 2.41-3.051 4.364-3.051 6.595 4.422-4.657 10.574-9.604 12.461-12.697-2.522 3.787-3.53 7.385-4.193 10.551-12.905 6.825-20.78 8.612-29.589 11.34 3.417 1.253 7.085 2.47 5.572 4.212l-4.036 4.036c2.58-.802 5.216-1.959 7.5-.394-.224 2.117-2.893 3.196-5.177 4.43 4.02-1.45 4.888-1.108 5.945-.768.528 2.536-1.306 3.896-2.5 5.571 10.127-7.7 23.334-13.78 32.64-16.32 13.09-4.408 29.979-9.003 34.57-20.179l4.586-18.426c5.382-5.824 10.33-11.854 12.678-19.194 14.985-2.9 27.107-1.86 39.747-1.536-1.152-.192-38.586-6.535-38.586-6.535-10.942-14.972-27.266-4.79-32.64 10-1.356 3.733-9.096 3.725-11.339-.02C64.182 28.7 37.258 8.513 14.344 1.074z"/><path d="M14.083 0c1.51 2.72 3.08 5.04 4.718 7.052-.75-.11-1.521-.173-2.323-.165-1.584.017-3.277.28-5.11.857 3.2 2.68 5.905 4.636 8.29 6.143-3.685-1.177-7.654-1.345-12.317.868 3.406 2.13 6.264 3.671 8.766 4.821-3.9-.718-7.945-.39-12.36 2.52 2.915 1.299 5.436 2.274 7.672 3.015-3.67.128-7.305 1.262-10.861 4.636 3.085.765 5.728 1.272 8.053 1.61-2.846.575-5.637 1.94-8.343 4.667a90.31 90.31 0 005.71 1.053C3.852 38.105 1.84 39.697 0 42.137c2.415.187 4.552.27 6.474.278C4.149 43.491 1.973 45.191.03 47.92c3.45.172 6.332.155 8.818.01-2.732 1.117-5.25 3.004-7.403 6.267 4.287.063 7.683-.143 10.53-.495-3.534.96-6.806 2.89-9.498 6.969 3.463.05 6.354-.075 8.838-.31-3.036 1.655-5.644 4.165-7.362 8.446 3.126-.592 5.746-1.225 8.002-1.889-2.35 1.71-4.325 4.112-5.648 7.723a89.953 89.953 0 005.638-1.435c-1.507 1.822-2.67 4.103-3.325 7.093a87.943 87.943 0 006-2.447c-1.665 1.948-2.936 4.413-3.563 7.703 3.206-1.282 5.814-2.507 8.012-3.676-2.015 2.154-3.514 4.925-4.11 8.787 3.904-1.724 6.9-3.32 9.335-4.822-2.797 2.344-4.948 5.46-5.69 10.273 5.101-2.251 8.66-4.294 11.43-6.184-1.189 2.405-1.82 5.222-1.517 8.734 4.93-3.782 8.052-6.843 10.376-9.54-.157 1.742-.033 3.636.485 5.73 3.54-6.08 7.056-7.855 10.696-9.884-5.797 2.919-4.938 5.116-4.938 7.665 4.422-4.657 10.59-9.596 12.476-12.69-2.522 3.788-3.548 7.375-4.212 10.542-12.905 6.825-20.762 8.608-29.571 11.336 3.417 1.254 7.078 2.481 5.565 4.223l-4.037 4.027c2.58-.802 5.211-1.947 7.496-.382-.224 2.117-2.9 3.185-5.183 4.42 4.02-1.45 4.89-1.115 5.947-.775.528 2.536-1.305 3.9-2.499 5.575 10.128-7.7 23.342-13.783 32.648-16.324 13.09-4.408 29.968-8.99 34.558-20.164l4.605-18.43c5.381-5.825 10.331-11.864 12.68-19.205 14.984-2.899 27.1-1.852 39.74-1.528-1.152-.192-38.595-6.536-38.595-6.536-10.942-14.971-27.253-4.795-32.627 9.995-1.356 3.733-9.094 3.734-11.337-.01C63.925 27.62 36.998 7.438 14.083 0z" fill="teal"/><g fill="#fff"><path d="M102.49 39.07l-.098.157c-.389.723-1.045 1.217-1.969 1.516-.923.298-2.107.394-3.484.334l-.867-.04.63.611c.32.308.41.553.414.768.005.215-.088.446-.296.709-.414.524-1.239 1.094-2.007 1.673l-.256.177.177.256c.641.984.935 1.742 1.004 2.323.069.582-.067.999-.335 1.358-.537.72-1.715 1.208-2.776 1.812l-.197.098.04.236c.091.554-.058 1.006-.453 1.457-.395.45-1.06.881-1.949 1.26l-.236.098.04.256c.177 1.185.533 2.217 1.279 2.875.682.601 1.715.76 3.032.492.23 1.263.558 2.412 1.319 3.17.77.767 1.99.994 3.622.57.367.885.903 1.515 1.516 1.93.672.454 1.55.637 2.273.862l.428-.46c-.717-.224-1.776-.568-2.347-.954s-1.035-.915-1.358-1.83l-.099-.316-.315.099c-1.677.515-2.608.283-3.248-.355-.64-.637-1-1.79-1.22-3.13l-.06-.354-.354.098c-1.383.361-2.199.177-2.756-.315-.52-.459-.828-1.272-1.004-2.283.801-.37 1.488-.776 1.93-1.28a2.42 2.42 0 00.59-1.732c.977-.538 2.156-1 2.835-1.91.355-.476.539-1.101.452-1.83-.078-.664-.403-1.431-.964-2.343.688-.508 1.436-1.016 1.91-1.615.263-.332.46-.7.452-1.122-.005-.232-.228-.443-.354-.669 1.197.016 2.289-.063 3.189-.354.949-.307 1.694-.866 2.185-1.634 1.418.007 2.885.319 4.37.512 1.526.198 3.078.251 4.548-.394l-.276-.61c-1.3.57-2.69.547-4.173.354-1.484-.193-3.03-.543-4.587-.532h-.197z"/><path d="M108 38.824a2.797 2.797 0 11-5.594 0 2.797 2.797 0 015.594 0z" stroke="#fff" stroke-width=".661"/><path d="M116.35 36.2c-2.512 3.267-3.143 2.423-4.672 2.971l-.256.098.04.276c.588 3.281 2.533 4.324 4.05 5.517l.085-.266.404-.077c-1.521-1.195-3.186-2.208-3.791-4.997 1.113-.263 2.175.074 4.547-3.012zM19.653 13.88c4.745 2.942 12.555 5.976 17.571 9.146 2.76 1.757 5.238 3.507 7.166 5.02 1.928 1.512 3.354 3.075 3.878 3.583.525.508.88.268.532-.394-.35-.662-2.067-2.191-4.016-3.72-1.95-1.53-4.43-3.273-7.205-5.04-5.552-3.535-12.067-6.696-17.926-8.596zm-.854-6.83c1.99.46 4.926 2.157 8.19 3.972 3.265 1.815 6.824 4.049 10.08 6.22 3.256 2.173 5.766 4.073 7.773 5.605 1.906 1.63 2.847 2.687 3.211 2.683a.5.5 0 00.178 0c.078-.01.21-.07.275-.196a.359.359 0 00.02-.296.51.51 0 00-.06-.137c-.107-.162-.271-.314-.51-.532-.48-.437-1.273-1.079-2.285-1.85-2.022-1.544-4.961-3.648-8.228-5.828-3.267-2.179-6.85-4.432-10.139-6.26-1.168-.433-6.9-3.464-8.505-3.38zM16.08 19.578c6.091 2.486 14.755 5.406 20.539 9.041 3.107 1.974 5.814 3.94 7.835 5.552a47.859 47.859 0 012.48 2.106c.626.576.98 1.098 1.182 1.24.423.3.747.1.55-.373-.148-.358-.638-.77-1.279-1.359-.641-.59-1.5-1.312-2.52-2.126a91.898 91.898 0 00-7.894-5.61c-6.258-3.975-13.74-7.469-20.892-8.471zm-4.687 5.525c4.747.003 14.552 4.348 18.685 6.525 6.701 3.574 12.795 8.168 16.163 11.379.373.356.919.042.492-.453-3.128-3.625-9.589-7.896-16.34-11.497-6.75-3.6-13.74-5.96-19-5.954zm-2.742 6.252c7.136 1.044 15.69 3.925 21.922 7.046 3.478 1.766 6.58 3.657 8.958 5.335a28.657 28.657 0 014.567 4.054c.433.489.95.51.551-.354-.398-.864-2.335-2.553-4.744-4.252s-5.531-3.595-9.036-5.375c-7.01-3.56-14.994-6.36-22.218-6.455zm2.355 5.311c-1.773-.154-3.368.21-4.994.413 6.34-.595 15.207 2.317 21.118 5.04 6.962 3.265 12.743 7.746 15.513 10.592.433.446.74-.122.512-.414-2.58-3.292-8.72-7.492-15.75-10.788-5.272-2.471-11.08-4.378-16.399-4.842zm-4.505 5.715c6.24.463 14.594 1.957 20.446 4.643 5.885 2.753 10.352 6.322 12.599 8.347.345.312.957.091.472-.472-2.05-2.383-6.82-5.679-12.777-8.465-5.957-2.787-13.193-4.571-20.74-4.053zm5.604 5.193c-1.317-.045-1.934.202-3.204.339 4.235.186 10.965 1.313 14.681 2.574 4.823 1.674 8.789 4.194 11.044 6.162.436.38.76-.13.473-.452-2.113-2.371-6.406-4.642-11.3-6.34-3.67-1.273-7.745-2.15-11.694-2.283zm-.182 6.141c9.053.611 14.527 2.206 18.724 5.965.314.282.81-.106.472-.472-4.306-4.666-12.785-5.966-19.196-5.493zm6.971 5.438c-2.744-.22-5.04.38-7.542 1.212 7.32-1.167 10.363-.607 15.909 1.997.632.297.595-.403.315-.571-2.946-1.77-5.938-2.417-8.682-2.638zm-.261 5.098c-2.594.23-4.798 1.121-6.614 2.599 7.248-2.794 9.251-2.238 14.795-.667.73.207.503-.495.217-.61-3.32-1.33-5.803-1.552-8.397-1.322zm14.362 4.489c-3.867-.418-8.224.051-12.048.749-3.824.697-7.112 2.114-8.969 3.623 6.358-2.685 7.516-2.679 9.087-2.974 3.768-.687 7.502-.954 11.891-.748.398.019.378-.613.04-.65zm2.245 3.13c-4.191-.158-8.52.88-12.265 1.95s-6.524 2.53-8.357 4.02c3.709-1.783 7.16-2.99 8.534-3.39 3.692-1.056 7.417-1.97 12.127-1.91.366.005.602-.645-.04-.67zm3.422 2.577c-3.947.583-8.086 1.749-11.694 2.973s-6.176 2.678-7.851 4.418c4.291-2.463 6.651-3.327 8.048-3.808 3.563-1.209 6.89-2.05 11.615-2.933.567-.106.111-.684-.118-.65zm2.008 3.288c-7.916 1.261-13.046 4.676-16.306 8.063 5.053-3.807 8.568-5.853 16.443-7.413.499-.1.348-.727-.138-.65zm3.857 2.893c-7.962 1.226-12.553 6.066-14.465 9.261 5.037-5.032 8.957-7.77 14.602-8.611.571-.085.426-.737-.138-.65zm2.402 2.522c-1.241.154-2.931 1.034-4.527 2.047s-2.801 2.245-3.52 3.833c1.923-1.984 2.693-2.521 3.874-3.282a17.04 17.04 0 014.33-1.949c.589-.17.144-.687-.157-.65z"/><path d="M108 38.824a2.797 2.797 0 11-5.594 0 2.797 2.797 0 015.594 0z" stroke="#fff" stroke-width=".661"/></g><path d="M108 38.824a2.797 2.797 0 11-5.594 0 2.797 2.797 0 015.594 0z" fill="#37c871" stroke="#fff" stroke-width=".661"/></svg>
