<svg xmlns="http://www.w3.org/2000/svg" viewBox="0 0 1024 980"><path fill="#3b3868" d="M490 .01C314.77.01 161.05 92.012 74.43 230.33l15.45 542.58C178.636 898.21 324.76 980 490 980c270.62 0 490-219.38 490-490S760.62 0 490 0z"/><path fill="#1aa9e8" d="M1008.6 203.23H506.78c-32.358 0-58.834-26.476-58.834-58.834s26.476-58.834 58.834-58.834h501.82c8.492 0 15.44 6.948 15.44 15.44v86.786c0 8.494-6.948 15.442-15.44 15.442"/><path fill="#198fd8" d="M726.97 85.568H506.74c-32.358 0-58.832 26.474-58.832 58.834 0 32.358 26.474 58.834 58.832 58.834h220.23v-88.594c-19.112-15.664 0-29.074 0-29.074"/><path fill="#e9efff" d="M981.33 118.29c1.864-.85 1.236-3.648-.812-3.648h-473.78c-29.31 0-53.792 16.874-58.144 38.732 4.352 28.14 28.834 49.862 58.144 49.862h483.92c-23.02-6.734-39.518-24.032-39.518-44.196 0-17.318 12.168-32.534 30.188-40.75z"/><path fill="#bec8f7" d="M726.97 114.64H506.74c-29.31 0-53.79 16.872-58.144 38.732 4.354 28.14 28.834 49.862 58.144 49.862h220.15c-45.336-10.164-44.356-78.424.076-88.594zm254.37 85.132v-81.486c-18.022 8.216-30.188 23.432-30.188 40.75 0 17.316 12.172 32.52 30.188 40.736"/><path fill="#ffdd40" d="M76.35 227.27C28.018 303.204.004 393.33.004 490.01c0 39.686 4.752 78.258 13.658 115.21h156.11v-43.828c0-21.562 8.588-42.174 23.698-57.556 28.82-29.342 46.606-69.554 46.606-113.93-.002-90.188-73.406-163.2-163.72-162.63z"/><path fill="#ffb332" d="M55.918 479.96c-17.19-25.782-27.212-56.748-27.212-90.062 0-69.782 43.96-129.25 105.68-152.34a162.4 162.4 0 0 0-58.04-10.294C28.014 303.196 0 393.324 0 490.004c0 39.686 4.752 78.258 13.658 115.21h42.256z"/><path fill="#ffdd40" d="M311.48 404.17h-30.028c-7.884 0-14.274-6.39-14.274-14.274s6.39-14.274 14.274-14.274h30.028a14.274 14.274 0 1 1 0 28.548M179.41 227.46a14.274 14.274 0 0 1-12.348-21.414l15.014-26.002a14.276 14.276 0 0 1 24.724 14.274l-15.014 26.004a14.27 14.27 0 0 1-12.376 7.138m74.714 74.686a14.274 14.274 0 0 1-7.15-26.638l26.004-15.012a14.276 14.276 0 0 1 14.276 24.724l-26.004 15.012a14.24 14.24 0 0 1-7.126 1.914"/><path fill="#fcf9eb" d="M123.2 428.46H31.606c-11.908 0-21.56 9.652-21.56 21.56s9.652 21.56 21.56 21.56H123.2c11.908 0 21.56-9.652 21.56-21.56s-9.652-21.56-21.56-21.56"/><path fill="#fceca9" d="M72.892 450.02c0-11.908 9.652-21.56 21.56-21.56H31.608c-11.908 0-21.56 9.652-21.56 21.56s9.652 21.56 21.56 21.56h62.844c-11.906 0-21.56-9.654-21.56-21.56"/><path fill="#ffb332" d="M114.12 577.15a14.28 14.28 0 0 1-12.89-8.124l-5.13-10.74c-7.078-14.818-10.818-31.656-10.818-48.7V471.4c0-7.884 6.39-14.274 14.274-14.274s14.274 6.39 14.274 14.274v38.186c0 12.812 2.776 25.394 8.028 36.392l5.13 10.738a14.276 14.276 0 0 1-6.726 19.034c-1.984.95-4.078 1.4-6.142 1.4"/><path fill="#ff9100" d="M40.69 577.15a14.274 14.274 0 0 1-12.872-20.43l5.13-10.74c5.252-10.996 8.028-23.58 8.028-36.392v-38.186a14.274 14.274 0 1 1 28.548 0v38.186c0 17.046-3.74 33.886-10.816 48.698l-5.13 10.74a14.27 14.27 0 0 1-12.888 8.124"/><path fill="#fceca9" d="M107.14 551.6H47.658c-12.398 0-22.54 10.144-22.54 22.54v31.082h104.56V574.14c0-12.398-10.144-22.54-22.54-22.54z"/><path fill="#dae2fe" d="M132.2 728.57H61.942a490 490 0 0 0 30.026 47.23h16.068c7.364 0 14.57-2.184 20.668-6.312a92 92 0 0 0 15.664-13.4c9.742-10.442 2.112-27.518-12.168-27.518"/><path fill="#bec8f7" d="M116.56 769.49a92 92 0 0 1-15.664-13.4c-9.744-10.44-2.114-27.516 12.166-27.516H61.938a490 490 0 0 0 30.028 47.23h16.066a37 37 0 0 0 14.598-3.022 36.6 36.6 0 0 1-6.07-3.292"/><path fill="#bec8f7" d="M151.76 688.23H41.79a488 488 0 0 0 20.686 41.296h87.538c7.418 0 13.946-4.968 15.876-12.13 1.01-3.75 1.7-7.266 2.166-10.472 1.438-9.874-6.316-18.694-16.294-18.694z"/><path fill="#a2b6f4" d="M93.46 717.39a90 90 0 0 1-2.166-10.472c-1.438-9.874 6.316-18.692 16.294-18.692h-65.8a489 489 0 0 0 20.684 41.296h46.864c-7.418-.002-13.946-4.968-15.876-12.132"/><path fill="#dae2fe" d="M24.056 641.95a487 487 0 0 0 18.148 47.23h110.35A16.45 16.45 0 0 0 169 672.734V641.95z"/><path fill="#bec8f7" d="M86.306 672.73v-30.784h-62.25a487 487 0 0 0 18.148 47.23h60.55a16.45 16.45 0 0 1-16.448-16.446"/><path fill="#e9efff" d="M168.99 602.02H12.87a486 486 0 0 0 12.212 43.12h143.91c11.908 0 21.56-9.652 21.56-21.56-.002-11.908-9.654-21.56-21.562-21.56"/><path fill="#dae2fe" d="M67.196 623.58c0-11.908 9.652-21.56 21.56-21.56H12.882a487 487 0 0 0 12.21 43.12h63.662c-11.906 0-21.558-9.652-21.558-21.56"/><path fill="#42c3fc" d="M1008.6 199.88H506.78c-31.232 0-56.976-24.666-58.73-55.48h-.102v691.21c0 32.358 26.476 58.834 58.834 58.834h501.82c8.492 0 15.44-6.948 15.44-15.44v-694.57c0 8.492-6.95 15.442-15.442 15.442z"/><path fill="#1aa9e8" d="M725.81 388.77h10.14v-66.462h-10.14c-13.444 0-24.444-11-24.444-24.444v-74.776c0-10.792 7.096-19.996 16.846-23.212h-211.48c-31.232 0-56.976-24.668-58.73-55.48h-.102v691.21c0 32.358 26.474 58.834 58.832 58.834h208.36c-8.106-3.99-13.732-12.322-13.732-21.926v-459.3c0-13.444 11-24.444 24.444-24.444z"/><path fill="#8686bf" d="m403.79 504.77-50.684-50.682c-8.416-8.414-22.262-8.078-30.246 1.006-7.286 8.288-6.364 20.992 1.44 28.796l11.878 11.876c1.084 1.084.316 2.936-1.216 2.936h-78.938c-11.036 0-20.672 8.328-21.386 19.342-.78 12.068 8.776 22.098 20.676 22.098h79.648c1.532 0 2.3 1.854 1.216 2.936l-11.874 11.874c-7.804 7.804-8.728 20.506-1.444 28.796 7.98 9.084 21.828 9.422 30.246 1.008l50.684-50.682c8.086-8.09 8.088-21.214 0-29.304"/><path fill="#42c3fc" d="M510.02 199.88h60.754v694.57H510.02z"/><path fill="#1aa9e8" d="M952.22 321.19H642.55a12.77 12.77 0 0 0-12.772 12.772v43.168a12.77 12.77 0 0 0 12.772 12.772h309.67a12.77 12.77 0 0 0 12.772-12.772v-43.168a12.77 12.77 0 0 0-12.772-12.772"/><path fill="#198fd8" d="M705.8 377.13v-43.168a12.77 12.77 0 0 1 12.772-12.772h-76.02a12.77 12.77 0 0 0-12.772 12.772v43.168a12.77 12.77 0 0 0 12.772 12.772h76.02A12.77 12.77 0 0 1 705.8 377.13"/><path fill="#b8f0ff" d="M831.67 655.87h-68.56c-9.116 0-16.502-7.388-16.502-16.502s7.388-16.502 16.502-16.502h68.56c9.116 0 16.502 7.388 16.502 16.502s-7.388 16.502-16.502 16.502"/><path fill="#8ae1ff" d="M856.9 473.63H737.86c-9.116 0-16.502-7.388-16.502-16.502s7.388-16.502 16.502-16.502H856.9c9.116 0 16.502 7.388 16.502 16.502s-7.388 16.502-16.502 16.502m6.804 246.29h-132.65a16.504 16.504 0 0 1 0-33.006h132.65a16.5 16.5 0 0 1 16.502 16.504 16.5 16.5 0 0 1-16.502 16.502m0 64.05h-132.65c-9.116 0-16.502-7.388-16.502-16.502s7.388-16.502 16.502-16.502h132.65a16.5 16.5 0 0 1 16.502 16.502 16.5 16.5 0 0 1-16.502 16.502"/><path fill="#5f5f9b" d="M334.96 498.71h-78.938c-11.036 0-20.672 8.328-21.386 19.342-.78 12.068 8.776 22.098 20.676 22.098h79.648c-22.222-22.222 0-41.44 0-41.44m31.42 72.776c-31.018-.44-30.204-28.402-30.204-28.402l-11.874 11.874c-7.804 7.802-8.728 20.506-1.444 28.796 7.98 9.084 21.828 9.422 30.248 1.006z"/><path fill="#fceca9" d="M184.31 314.79a13.278 13.278 0 1 1-26.526 1.282 13.278 13.278 0 0 1 26.526-1.282m-30.272 25.934c.652 13.482-9.748 24.94-23.23 25.594-13.482.652-24.94-9.748-25.594-23.23-.652-13.482 9.748-24.94 23.23-25.592 13.484-.654 24.942 9.746 25.594 23.228"/></svg>