<svg xmlns="http://www.w3.org/2000/svg" fill="none" viewBox="0 0 166.13 145.6"><g clip-path="url(#a)" transform="translate(-10.142 -20.67)"><path stroke="#151c1f" stroke-linecap="round" stroke-width="4.257" d="m55.833 80.944 12.335 2.44m-8.535 6.124L62.42 75.41"/><path fill="#f5bd14" fill-rule="evenodd" d="m33.04 88.644 115.24-47.473.073.069c-.584 35.336-23.157 77.897-75.662 91.319-6.45-10.952-25.223-35-40.025-42.621q.195-.633.37-1.294z" clip-rule="evenodd"/><path fill="#f86932" d="m81.482 31.716-8.657 24.21-1.1-1.42a82 82 0 0 0-17.55-16.78L69.474 20.67l-.786 18.619z"/><circle cx="45.306" cy="70.863" r="35.164" fill="#ffcc32" transform="rotate(-33.813 45.306 70.863)"/><path stroke="#151c1f" stroke-linecap="round" stroke-width="4.257" d="m44.297 58.986 11.947-3.92m-4.438 9.522-4.48-13.654"/><path fill="#ffcc32" fill-rule="evenodd" d="M10.142 71.263c.34 42.015 28.467 80.331 70.989 91.725 32.496 8.707 65.573-.406 88.872-21.351-10.18.667-20.639-.294-31.039-3.081-25.536-6.842-45.88-23.392-58.132-44.622z" clip-rule="evenodd"/><path fill="#ffcc32" fill-rule="evenodd" d="M175.46 56.914 57.96 97.067q-.226.668-.472 1.303c14.24 8.625 31.307 33.913 36.986 45.284 11.244-2.06 21.25-5.504 30.066-9.988a32.2 32.2 0 0 1-8.993-5.654l-.695-.62a1.999 1.999 0 1 1 2.657-2.988l.696.618a28.25 28.25 0 0 0 11.074 6.07 97 97 0 0 0 3.483-2.116 32.2 32.2 0 0 1-5.467-3.037l-.767-.53a2 2 0 0 1 2.272-3.291l.766.529a28.3 28.3 0 0 0 7.257 3.597q1.668-1.186 3.263-2.425a33 33 0 0 1-1.803-1.158l-.766-.53a2 2 0 0 1 2.272-3.291l.766.529a28 28 0 0 0 2.866 1.736c20.45-17.431 30.966-41.474 32.843-63.325a89 89 0 0 0-.808-.866z" clip-rule="evenodd"/></g><defs><clipPath id="a"><path fill="#fff" d="M0 0h185v185H0z"/></clipPath></defs></svg>