<svg viewBox="0 0 63.079 66.862" xmlns="http://www.w3.org/2000/svg"><path d="M45.559 35.962h-8.04v-4.128a5.986 5.986 0 00-5.98-5.979 5.986 5.986 0 00-5.979 5.979v4.128h-8.04v-4.128c0-7.73 6.289-14.02 14.02-14.02s14.02 6.289 14.02 14.02v4.128z" fill="#f9a11d"/><path d="M48.802 35.962H14.277a2.688 2.688 0 00-2.68 2.68v25.54a2.688 2.688 0 002.68 2.68h34.525a2.688 2.688 0 002.68-2.68v-25.54a2.688 2.688 0 00-2.68-2.68zM33.289 52.731v3.461a1.75 1.75 0 01-3.498 0v-3.46a3.552 3.552 0 115.301-3.09 3.549 3.549 0 01-1.803 3.089z" fill="#2c3c69"/><path d="M10.777 32.154H2.446a2.446 2.446 0 110-4.892h8.331a2.446 2.446 0 110 4.892zm5.868-13.105a2.433 2.433 0 01-1.552-.557l-6.59-5.419a2.446 2.446 0 113.108-3.779l6.59 5.419a2.446 2.446 0 01-1.556 4.336zm14.894-5.76a2.446 2.446 0 01-2.446-2.446V2.446a2.446 2.446 0 114.892 0v8.397a2.446 2.446 0 01-2.446 2.446zm14.894 5.76a2.447 2.447 0 01-1.556-4.336l6.59-5.419a2.447 2.447 0 013.108 3.779l-6.59 5.419a2.431 2.431 0 01-1.552.557zm14.2 13.105h-8.41a2.446 2.446 0 110-4.892h8.41a2.446 2.446 0 110 4.892z" fill="#f9a11d"/></svg>
