<svg xmlns="http://www.w3.org/2000/svg" fill="none" viewBox="0 0 30.664 30.368"><g clip-path="url(#a)" transform="translate(0 -.815)"><path fill="#1ded83" d="M15.305 31.183c8.483 0 15.359-6.798 15.359-15.184S23.787.815 15.305.815C6.822.815-.054 7.613-.054 15.999s6.877 15.184 15.359 15.184"/><path fill="#000" d="M9.272 23.04c-.175-.005-.18-.007-.125-.17.173-.518 2.183-6.512 3.02-8.99a.36.36 0 0 0-.085-.398c-.694-.76-1.168-1.655-1.592-2.576a11 11 0 0 1-.691-1.993c-.033-.133.01-.172.107-.201.527-.162 1.056-.317 1.582-.485.113-.036.16-.027.204.094.155.427.308.856.493 1.27.176.398.386.782.59 1.17q.143.27.313.525c.112.17.119.166.237-.009.037-.054.064-.113.097-.17a8 8 0 0 1 1.245-1.6c.689-.675 1.489-1.147 2.438-1.363a5.2 5.2 0 0 1 1.112-.122c.556-.006 1.102.028 1.64.173.587.156 1.11.434 1.587.807.556.434.913 1 1.145 1.646.089.249.107.523.151.786.013.08-.004.167.004.25.032.46-.044.907-.177 1.34-.128.42-.337.806-.603 1.156a4.4 4.4 0 0 1-2.08 1.5 8 8 0 0 1-1.438.339c-.535.085-1.071.07-1.6.034a6 6 0 0 1-1.977-.475q-.206-.088-.412-.177c-.168-.074-.184-.07-.242.096-.111.315-1.684 5.17-1.697 5.204-.027.067-.016.107.066.107h8.07c.33 0 .386-.061.282.344-.139.546-.266 1.093-.401 1.641-.06.245-.062.247-.319.247H9.267zm9.331-12.838q-.041.002-.084 0c-.607-.045-1.168.085-1.664.443-.247.178-.479.37-.685.604-.514.583-.847 1.259-1.155 1.956-.035.08-.042.132.049.179.24.122.472.27.72.378.412.18.842.313 1.292.34q.399.027.804.015c.585-.022 1.128-.162 1.618-.472.643-.41.991-.995.988-1.762a1.5 1.5 0 0 0-.472-1.095c-.381-.366-.85-.604-1.41-.584z"/></g><defs><clipPath id="a"><path fill="#fff" d="M0 .815h99.132v30.37H0z"/></clipPath></defs></svg>