<svg xmlns="http://www.w3.org/2000/svg" fill="none" viewBox="0 0 25.981 30"><g clip-path="url(#a)" transform="translate(-.25 .373)"><path fill="#994187" d="m18.505 8.832 3.91-3.91-9.172-5.295-9.174 5.296 3.909 3.909a7.41 7.41 0 0 0 10.527 0"/><path fill="#c961b3" d="m7.475 9.39-4.08-4.079L.25 7.127v15l3.145 1.815 4.082-4.082a7.39 7.39 0 0 0 2.189-5.025v-.24A7.42 7.42 0 0 0 7.475 9.39"/><path fill="#994187" d="m8.007 20.39-3.94 3.94 9.175 5.297 9.173-5.297-3.94-3.94a7.38 7.38 0 0 0-5.443-2.188 7.39 7.39 0 0 0-5.025 2.188"/><path fill="#c961b3" d="m19.004 19.86 4.083 4.082 3.144-1.815v-15L23.087 5.31l-4.083 4.082a7.39 7.39 0 0 0-2.188 5.024v.418a7.39 7.39 0 0 0 2.188 5.025z"/></g><defs><clipPath id="a"><path fill="#fff" d="M.25-.373h25.981v30H.25z"/></clipPath></defs></svg>