<svg xmlns="http://www.w3.org/2000/svg" viewBox="0 0 288.75 100"><path d="M23.68 6.969v71.043h28.395v20.055H.001V6.969zM62.219 36.09H84.09v61.977H62.219zm36.847 0h21.871v7.61c5.957-5.72 12.645-8.579 20.055-8.579q13.77.002 21.023 11.598C166.925 38.911 173.933 35 183.035 35c2.902 0 5.637.422 8.215 1.27q3.866 1.266 6.648 3.984 2.778 2.721 4.406 7.07 1.634 4.348 1.633 10.513v40.23H182.07V67.5q0-4.712-.664-7.735-.668-3.018-1.933-4.71c-.848-1.126-1.832-1.891-2.961-2.294a10.7 10.7 0 0 0-3.625-.605q-10.512-.001-10.512 15.344v30.566h-21.867V67.5q0-4.711-.606-7.793-.602-3.08-1.75-4.895-1.15-1.81-2.96-2.476-1.813-.664-4.227-.664-2.056.001-3.868.605c-1.812.604-2.277 1.188-3.203 2.356s-1.652 2.78-2.172 4.832c-.527 2.054-.785 4.734-.785 8.035v30.566h-21.87zm167.694 0h21.988v61.977H266.76V91.18q-7.009 8.82-18.969 8.82-6.768-.002-12.445-2.476a30 30 0 0 1-9.906-6.95q-4.23-4.465-6.586-10.507c-1.567-4.027-2.356-8.418-2.356-13.172q0-6.641 2.297-12.625 2.293-5.978 6.403-10.45 4.106-4.469 9.789-7.07c3.781-1.73 7.972-2.593 12.562-2.593 7.734 0 14.137 2.695 19.21 8.094zm-27.547 30.805c0 2.016.363 3.887 1.086 5.621.726 1.73 1.71 3.242 2.96 4.527q1.875 1.934 4.47 3.024 2.596 1.084 5.62 1.086c1.934 0 3.762-.364 5.497-1.086q2.594-1.09 4.469-3.024a15.5 15.5 0 0 0 3.02-4.468q1.15-2.537 1.151-5.438a13.45 13.45 0 0 0-1.152-5.496c-.766-1.73-1.77-3.242-3.02-4.531a13.3 13.3 0 0 0-4.468-3.02A14.1 14.1 0 0 0 253.35 53q-3.024 0-5.621 1.09a13.3 13.3 0 0 0-4.47 3.02 14.9 14.9 0 0 0-2.96 4.41q-1.085 2.479-1.086 5.375"/><path fill="#a9cf38" d="M85.418 12.305v-.02h-.004C85.394 5.496 79.887 0 73.094 0s-12.3 5.497-12.32 12.285h-.004v.04h.004c.02 6.789 5.527 12.285 12.32 12.285s12.301-5.497 12.32-12.285h.004z"/></svg>