<svg xmlns="http://www.w3.org/2000/svg" viewBox="0 0 440 320"><rect width="320" height="320" x="60" rx="40" ry="40"/><path d="M60 77.2H18.6A18.6 18.6 0 0 1 0 58.6 18.6 18.6 0 0 1 18.6 40H60zm0 67.66H18.6A18.6 18.6 0 0 1 0 126.26a18.6 18.6 0 0 1 18.6-18.6H60zm0 67.67H18.6A18.6 18.6 0 0 1 0 193.93a18.6 18.6 0 0 1 18.6-18.6H60zm0 67.67H18.6A18.6 18.6 0 0 1 0 261.6 18.6 18.6 0 0 1 18.6 243H60zm320-203h41.4A18.6 18.6 0 0 0 440 58.6 18.6 18.6 0 0 0 421.42 40H380zm0 67.66h41.4a18.6 18.6 0 0 0 18.6-18.6 18.6 18.6 0 0 0-18.6-18.6H380zm0 67.67h41.4a18.6 18.6 0 0 0 18.6-18.6 18.6 18.6 0 0 0-18.6-18.6H380zm0 67.67h41.4a18.6 18.6 0 0 0 18.6-18.6 18.6 18.6 0 0 0-18.6-18.6H380z"/><path fill="#fff" d="M252 137.63c36.13-61 98.1-82.8 98.1-82.8-56.44-3.94-95.1 16.94-109.57 25.7s-26 4.26-26 4.26C119.39 62.21 87.8 125.38 80 146.7V280a20 20 0 0 0 20 20h112.43A283.3 283.3 0 0 1 252 137.63"/><circle cx="181.35" cy="115.7" r="8.59"/><path fill="#fff" d="m267.94 300 .61-11.68h-25.83s-2.52-20.94-1.61-35c1.13-17.47 2.32-28.06 4.49-42.08 1.62-10.53 11.87-42.06 16.34-57.14.69-2.32-1.24-3.55-3.14.21A282.4 282.4 0 0 0 228.43 300"/><path fill="#fff" d="M267.73 300c0 .49 20.21.32 22.11.29 11.74-.22 25.14-2 33.29-11.4 14.56-16.79 5.87-50.89-17.64-54.11 5.86-12.53.88-28.81-11.1-35.8-7.35-4.29-23.09-7.46-23.62 5.14m11.49 2.93c7.08-1.1 11.79 6.3 13.34 12.22a23.34 23.34 0 0 1-6.15 22.34c17.48-2.33 31.1 15.3 28.87 30.63-2.75 18.93-24.85 16-38.83 16.49"/></svg>