<svg xmlns="http://www.w3.org/2000/svg" viewBox="0 0 50.5 50.5"><path d="M15 10.1C18.6 6.6 21.9 3.3 25.2 0c3.3 3.3 6.6 6.7 10.1 10.2-1.6 1.5-3.3 3.1-4.9 4.6l5.2 5.2c1.5-1.6 3.1-3.3 4.6-4.9l10.3 10.3c-3.2 3.2-6.6 6.6-10.1 10-1.5-1.6-3.1-3.3-4.7-5l-5.1 5.1 4.8 4.8c-3.6 3.5-7 6.9-10.3 10.2-3.1-3.2-6.5-6.6-9.9-10 1.5-1.4 3.3-3.1 5-4.7l-5.3-5.3c-1.6 1.7-3.2 3.4-4.7 5C6.7 32 3.3 28.6 0 25.2c3.2-3.2 6.6-6.5 10.1-10 1.4 1.6 3 3.3 4.5 5 2-1.9 3.6-3.6 5.5-5.4-1.7-1.5-3.4-3.1-5.1-4.7m10.4 10.4c-1.7 1.6-3.3 3.3-4.9 4.8 1.6 1.6 3.2 3.2 4.7 4.8 1.7-1.6 3.3-3.2 5-4.9-1.7-1.6-3.3-3.2-4.8-4.7m4.7-5.4c-1.7-1.6-3.3-3.3-4.9-4.8-1.6 1.6-3.3 3.2-4.7 4.7 1.5 1.6 3.1 3.3 4.6 4.9 1.8-1.6 3.4-3.2 5-4.8m-15 5.4c-1.6 1.6-3.2 3.3-4.7 4.7 1.5 1.6 3.1 3.3 4.6 4.9l4.9-4.9c-1.6-1.5-3.3-3.1-4.8-4.7m20.4.1c-1.5 1.5-3.2 3.1-4.8 4.6 1.6 1.7 3.3 3.3 4.7 4.8 1.6-1.6 3.2-3.2 4.9-4.8-1.6-1.5-3.3-3.1-4.8-4.6M20.6 35.3c1.5 1.6 3.2 3.4 4.7 5l4.8-4.8c-1.6-1.6-3.3-3.3-4.8-4.9z"/></svg>