<svg xmlns="http://www.w3.org/2000/svg" fill="none" viewBox="0 0 122.07 50.759"><path fill="#000" d="M0 50.131h32.527v-9.707H11.953V.676H0zm65.446-34.628h11.446C76.795 6.254 69.43 0 57.936 0 46.635 0 38.497 6.158 38.57 15.358c-.024 7.51 5.24 11.736 13.788 13.692l5.168 1.207c5.433 1.256 7.872 2.73 7.92 5.506-.048 3.019-2.874 5.119-7.679 5.119-5.288 0-8.766-2.463-9.031-7.22H37.29c.145 11.567 8.186 17.097 20.622 17.097 12.315 0 19.608-5.578 19.656-14.972-.048-7.896-5.385-12.726-15.141-14.875l-4.25-.966c-4.492-.966-7.341-2.463-7.245-5.409.025-2.704 2.343-4.66 6.98-4.66 4.66 0 7.22 2.1 7.533 5.626zm18.16 34.628h11.953V34.773h8.114c11.325 0 18.4-6.713 18.4-16.976 0-10.166-6.93-17.121-18.038-17.121H83.606zm11.953-24.776V10.311h5.892c5.361 0 8.234 2.898 8.234 7.486 0 4.564-2.873 7.558-8.234 7.558z"/></svg>