<svg xmlns="http://www.w3.org/2000/svg" viewBox="0 0 946.43 946.44"><path fill="navy" d="M835.19 473.31c0-199.85-162.2-362-362-362s-362 162.19-362 362 162.19 362 362 362 362-162.2 362-362"/><path fill="#fff" d="M729.19 323.31a106 106 0 1 0-106 106 106.08 106.08 0 0 0 106-106"/><path fill="navy" d="M941.23 111.27a106 106 0 1 0-106 106 106.08 106.08 0 0 0 106-106"/><path fill="#fff" d="M244.7 420.53h31.66V626.4h118.37v27.842H244.7zm206.03 63.32v113.12q0 13.046 4.137 21.319 7.636 15.273 28.478 15.273 29.91 0 40.729-26.728 5.886-14.319 5.886-39.297v-83.685h28.637v170.39h-27.046l.318-25.137q-5.568 9.705-13.84 16.387-16.388 13.364-39.775 13.364-36.433 0-49.638-24.342-7.16-13.046-7.16-34.842v-115.82zm174.527 125.053q0 12.41 9.069 19.57 9.068 7.159 21.478 7.159 15.114 0 29.274-7 23.864-11.614 23.864-38.024v-23.07q-5.25 3.342-13.523 5.569t-16.228 3.182l-17.342 2.227q-15.591 2.069-23.387 6.523-13.205 7.478-13.205 23.864m69.366-57.91q9.864-1.273 13.205-8.274 1.91-3.818 1.91-10.978 0-14.637-10.5-21.16-10.342-6.682-29.752-6.682-22.433 0-31.819 12.091-5.25 6.682-6.841 19.887h-26.728q.795-31.5 20.364-43.752 19.728-12.41 45.661-12.41 30.069 0 48.843 11.455 18.614 11.455 18.614 35.638v98.163q0 4.455 1.75 7.16 1.91 2.704 7.796 2.704 1.909 0 4.295-.159 2.387-.318 5.092-.795v21.16q-6.683 1.909-10.182 2.386t-9.546.478q-14.796 0-21.478-10.5-3.5-5.569-4.932-15.751-8.75 11.455-25.137 19.887t-36.115 8.432q-23.705 0-38.82-14.32-14.955-14.477-14.955-36.114 0-23.705 14.796-36.751t38.82-16.07z"/><path fill="none" stroke="gray" stroke-dasharray="40.85" stroke-miterlimit="10" stroke-width="10.86" d="M890.29 260.72a468.1 468.1 0 0 1 51 212.5c0 258.38-209.7 468.08-468.08 468.08S5.15 731.61 5.15 473.23 214.85 5.15 473.23 5.15a468 468 0 0 1 254.93 75.57"/></svg>