<svg xmlns="http://www.w3.org/2000/svg" fill="none" viewBox="0 0 70.704 66.021"><defs><linearGradient id="c" x1="15.2" x2="19.2" y1="50" y2="54" gradientTransform="translate(-.996 -2.9)" gradientUnits="userSpaceOnUse"><stop offset="0" stop-color="#272727"/><stop offset=".6" stop-color="#51555E"/><stop offset="1" stop-color="#404546"/></linearGradient><linearGradient id="d" x1="15.2" x2="19.2" y1="50" y2="54" gradientTransform="translate(-.996 -2.9)" gradientUnits="userSpaceOnUse"><stop offset="0" stop-color="#D4B791"/><stop offset=".6" stop-color="#FEF7C9"/><stop offset="1" stop-color="#FFFEE9"/></linearGradient><linearGradient id="e" x1="-20.1" x2="-16.1" y1="85" y2="89" gradientTransform="translate(-.996 -2.9)" gradientUnits="userSpaceOnUse"><stop offset="0" stop-color="#F2F2F2"/><stop offset=".6" stop-color="#B6B8B7"/><stop offset="1" stop-color="#959698"/></linearGradient><radialGradient id="a" cx="0" cy="0" r="1" gradientTransform="matrix(0 12.5 -11 0 59.504 12.6)" gradientUnits="userSpaceOnUse"><stop offset="0" stop-color="#FFFF3F"/><stop offset=".6" stop-color="#FBD74A"/></radialGradient><radialGradient id="b" cx="0" cy="0" r="1" gradientTransform="matrix(0 5.5 -5 0 54.004 27.6)" gradientUnits="userSpaceOnUse"><stop offset="0" stop-color="#FFFF3F"/><stop offset="1" stop-color="#FBD74A"/></radialGradient></defs><g stroke="#c6b694" stroke-linejoin="round" stroke-width=".2"><path fill="url(#a)" d="M70.504 12.2a.1.1 0 0 0 0-.2c-5.5-.2-8-1.4-9.2-3.3-.7-1-1-2.2-1.3-3.7l-.4-2.1v-.2a81 81 0 0 0-.7-2.6l-.3 3-.2 1.7c-.2 1.5-.4 2.7-1 3.7-1 2-3.4 3.3-8.9 3.5a.1.1 0 0 0 0 .2h.2l4.2.8c1.2.4 2.3 1 3.2 1.7 1.9 1.7 2.9 4.7 2.9 10.4a.1.1 0 0 0 .2 0c.6-1.5 1-3 1.2-4.3a93 93 0 0 1 1.2-3.8c1-2.2 3.3-3.8 9-4.8z"/><path fill="url(#magic433)" d="M43.004 10.5a.1.1 0 0 0 0-.2c-2.5-.1-3.6-.6-4.2-1.5l-.5-1.5a28 28 0 0 1-.5-2.3h-.1l-.2 1.2v1l-.5 1.6c-.5.8-1.5 1.4-4 1.5a.1.1 0 0 0 0 .2 82 82 0 0 1 2 .3c.5.2 1 .4 1.4.8.8.7 1.3 2 1.3 4.5a.1.1 0 0 0 .2 0 12 12 0 0 0 .5-2l.5-1.6c.5-.9 1.5-1.6 4.1-2z"/><path fill="url(#b)" d="M59.004 27.5a.1.1 0 0 0 0-.2c-2.5-.1-3.6-.6-4.2-1.5l-.5-1.5-.2-1a35 35 0 0 0-.3-1.3h-.1l-.2 1.2v1l-.5 1.6c-.5.8-1.5 1.4-4 1.5a.1.1 0 0 0 0 .2 82 82 0 0 1 2 .3c.5.2 1 .4 1.4.8.8.7 1.3 2 1.3 4.5a.1.1 0 0 0 .2 0 12 12 0 0 0 .5-2l.5-1.6c.5-.9 1.5-1.6 4.1-2z"/></g><path fill="url(#c)" d="M.604 60.7c1.2-1.2 31-31.5 46-46.5 1-1 6 4.5 5 5.5l-46.6 45.5c-2 2-6-3-4.5-4.5z"/><path fill="url(#d)" d="m34.704 25.6 11.9-11.4c1-1 6 4.5 5 5.5l-10.9 10.9c-2 2-7.2-3.7-6-5"/><path fill="url(#e)" d="m.204 60.6 10-10c-.5.9 3.5 6.5 5.5 4.5l-10.3 10.5c-2 2-6.4-3.7-5.2-5"/></svg>