<svg xmlns="http://www.w3.org/2000/svg" viewBox="0 0 78.569 52.263"><g transform="translate(612.477 -260.8)"><path fill="#e07a5f" d="M-533.912 305.858h-23.552l11.776-20.397z"/><path fill="#525893" d="M-572.94 271.67h27.256v27.256h-27.256z"/><circle cx="-573.13" cy="299.11" r="13.948" fill="#87c2a5"/><path fill="#ece6e2" d="m-590.39 284.2-9.422-22.397c-.386-1.004-.386-1.004-1.776-1.004h-9.114c-.926 0-1.621 0-1.621.85 0 .849.85.849 1.08.849.619 0 1.932.155 3.013.54v26.259c0 1.08 0 3.243-3.321 3.552-.927.077-.927.773-.927.85 0 .85.772.85 1.7.85h7.568c.927 0 1.622 0 1.622-.85 0-.464-.387-.85-.773-.85-3.784-.309-3.784-2.394-3.784-3.552v-24.482l.077-.078 11.971 28.807c.463.85.773 1.004 1.081 1.004.618 0 .695-.386 1.004-1.004l12.048-28.807.077.078v24.482c0 1.08 0 3.243-3.398 3.552-.927.077-.927.773-.927.85 0 .85.773.85 1.7.85h13.129c.926 0 1.621 0 1.621-.85 0-.464-.386-.85-.772-.85-3.784-.309-3.784-2.394-3.784-3.552V266.05c0-1.082 0-3.244 3.32-3.553.541 0 .928-.309.928-.85 0-.849-.696-.849-1.622-.849h-9.5c-1.235 0-1.39 0-1.776 1.004zm-1.467.927c.386.772.463.85 1.08 1.081l-2.239 5.174h-.077l-11.198-26.799c-.232-.617-.695-1.467-1.313-2.085h4.248zm13.67-22.628h5.251c-1.158 1.235-1.158 2.548-1.158 3.398v23.555c0 .85 0 2.162 1.158 3.398h-6.333c1.082-1.236 1.082-2.549 1.082-3.398z"/></g></svg>