<svg xmlns="http://www.w3.org/2000/svg" viewBox="0 0 70 70"><rect width="70" height="70" fill="#00639b" rx="21"/><path fill="#fbf7ff" d="M35 59q-4.963 0-9.382-1.854-4.363-1.91-7.636-5.128-3.219-3.272-5.127-7.636Q10.999 39.963 11 35q0-5.018 1.854-9.382 1.91-4.363 5.128-7.582 3.273-3.272 7.636-5.127Q30.037 10.999 35 11q5.019 0 9.382 1.91 4.363 1.854 7.582 5.126 3.272 3.219 5.127 7.582 1.91 4.365 1.91 9.382 0 4.964-1.91 9.382-1.854 4.364-5.127 7.636-3.219 3.219-7.582 5.128Q40.018 59 35 59M19.727 47.273V22.727A19 19 0 0 0 16.51 28.4q-1.145 3.11-1.145 6.6c0 3.49.381 4.545 1.145 6.655a19.1 19.1 0 0 0 3.218 5.618zm3-27.546h24.6a19 19 0 0 0-5.672-3.218Q38.49 15.364 35 15.364c-3.49 0-4.545.381-6.654 1.145a19.1 19.1 0 0 0-5.619 3.218M35 40.455l8.236-16.364H26.818zm2.182 5.454h8.727V28.455zm-13.091 0h8.727l-8.727-17.454zM35 54.636q3.489 0 6.654-1.145t5.672-3.218h-24.6a19.1 19.1 0 0 0 5.619 3.218q3.163 1.146 6.654 1.145zm15.272-7.363a19.1 19.1 0 0 0 3.218-5.618Q54.636 38.49 54.635 35c-.001-3.49-.381-4.527-1.145-6.6q-1.145-3.164-3.218-5.673z"/></svg>