<svg xmlns="http://www.w3.org/2000/svg" xmlns:xlink="http://www.w3.org/1999/xlink" viewBox="0 0 51.207 68.487"><defs><linearGradient xlink:href="#a" id="s" x1="-7708.8" x2="-7633.2" y1="-803.36" y2="-714.91" gradientTransform="rotate(-65.001 -3054.3 -6609.8)" gradientUnits="userSpaceOnUse"/><linearGradient xlink:href="#b" id="t" x1="-8268.6" x2="-7729" y1="-813.12" y2="-813.12" gradientTransform="rotate(-65.001 -3054.3 -6609.8)" gradientUnits="userSpaceOnUse"/><linearGradient xlink:href="#c" id="u" x1="-8203.5" x2="-7881.9" y1="-758.99" y2="-758.99" gradientTransform="rotate(-65.001 -3054.3 -6609.8)" gradientUnits="userSpaceOnUse"/><linearGradient xlink:href="#d" id="v" x1="-8238.3" x2="-7698.6" y1="-818.15" y2="-818.15" gradientTransform="rotate(-65.001 -3054.3 -6609.8)" gradientUnits="userSpaceOnUse"/><linearGradient xlink:href="#e" id="w" x1="-8199" x2="-7915.4" y1="-810.85" y2="-810.85" gradientTransform="rotate(-65.001 -3054.3 -6609.8)" gradientUnits="userSpaceOnUse"/><linearGradient xlink:href="#f" id="x" x1="-8238.3" x2="-7698.6" y1="-762.3" y2="-762.3" gradientTransform="rotate(-65.001 -3054.3 -6609.8)" gradientUnits="userSpaceOnUse"/><linearGradient xlink:href="#g" id="y" x1="-8271.8" x2="-7732.1" y1="-765.07" y2="-765.07" gradientTransform="rotate(-65.001 -3054.3 -6609.8)" gradientUnits="userSpaceOnUse"/><linearGradient xlink:href="#h" id="z" x1="-8238.3" x2="-7698.6" y1="-745.68" y2="-745.68" gradientTransform="rotate(-65.001 -3054.3 -6609.8)" gradientUnits="userSpaceOnUse"/><linearGradient xlink:href="#i" id="A" x1="-8238.3" x2="-7698.6" y1="-747.59" y2="-747.59" gradientTransform="rotate(-65.001 -3054.3 -6609.8)" gradientUnits="userSpaceOnUse"/><linearGradient xlink:href="#a" id="j" x1="-7708.8" x2="-7633.2" y1="-803.36" y2="-714.91" gradientTransform="rotate(-101.276 -414.285 -419.683)scale(.1186)" gradientUnits="userSpaceOnUse"/><linearGradient xlink:href="#b" id="k" x1="-8268.6" x2="-7729" y1="-813.12" y2="-813.12" gradientTransform="rotate(-101.276 -414.285 -419.683)scale(.1186)" gradientUnits="userSpaceOnUse"/><linearGradient xlink:href="#c" id="l" x1="-8203.5" x2="-7881.9" y1="-758.99" y2="-758.99" gradientTransform="rotate(-101.276 -414.285 -419.683)scale(.1186)" gradientUnits="userSpaceOnUse"/><linearGradient xlink:href="#d" id="m" x1="-8238.3" x2="-7698.6" y1="-818.15" y2="-818.15" gradientTransform="rotate(-101.276 -414.285 -419.683)scale(.1186)" gradientUnits="userSpaceOnUse"/><linearGradient xlink:href="#e" id="n" x1="-8199" x2="-7915.4" y1="-810.85" y2="-810.85" gradientTransform="rotate(-101.276 -414.285 -419.683)scale(.1186)" gradientUnits="userSpaceOnUse"/><linearGradient xlink:href="#f" id="o" x1="-8238.3" x2="-7698.6" y1="-762.3" y2="-762.3" gradientTransform="rotate(-101.276 -414.285 -419.683)scale(.1186)" gradientUnits="userSpaceOnUse"/><linearGradient xlink:href="#g" id="p" x1="-8271.8" x2="-7732.1" y1="-765.07" y2="-765.07" gradientTransform="rotate(-101.276 -414.285 -419.683)scale(.1186)" gradientUnits="userSpaceOnUse"/><linearGradient xlink:href="#h" id="q" x1="-8238.3" x2="-7698.6" y1="-745.68" y2="-745.68" gradientTransform="rotate(-101.276 -414.285 -419.683)scale(.1186)" gradientUnits="userSpaceOnUse"/><linearGradient xlink:href="#i" id="r" x1="-8238.3" x2="-7698.6" y1="-747.59" y2="-747.59" gradientTransform="rotate(-101.276 -414.285 -419.683)scale(.1186)" gradientUnits="userSpaceOnUse"/></defs><path fill="url(#j)" d="M1.085 1.304C.633 2.372.276 4.694.115 7.798l3.49 1.69c-.058-2.223.025-4.315.25-6.215.012-.142.025-.225.025-.225-.003.076-.023.15-.026.225-.07.626-.219 2.588-.016 6.132 1.445-1.178 3.525-3.175 5.17-4.883-1.738-3.55-3.9-4.17-3.9-4.17s-3.092-1.247-4.023.952"/><path fill="none" d="M10.163 18.886c.01-.007.02-.014.022-.03l-.196.173c-.003.016-.022.03-.025.047zm.128 24.591c-.009-.053-.034-.108-.043-.16-.3-1.09-.588-2.143-.869-3.187a374 374 0 0 1-.878-3.402 246 246 0 0 1-1.58-6.725c-.188-.877-.372-1.728-.541-2.56-.059-.28-.11-.551-.162-.822-.104-.542-.21-1.068-.309-1.583-.087-.48-.177-.944-.268-1.407a13 13 0 0 0-.083-.454l-.013-.079-.168.153-.346-.172c.011.035.013.078.024.114a72 72 0 0 0 .372 2.11c.074.402.156.813.227 1.231.216 1.136.442 2.265.69 3.407.24 1.148.496 2.299.755 3.433.251 1.124.522 2.235.793 3.346.27 1.11.544 2.204.827 3.291.292 1.14.586 2.262.893 3.361.063.248.134.505.208.745.244.894.484 1.763.734 2.624l.56.28.186-.166a.2.2 0 0 0-.023-.07 79 79 0 0 1-.986-3.308"/><g fill="#be202e"><path d="M13.184 28.114c-.163.178-.333.347-.503.516.088-.08.18-.176.261-.265.089-.08.17-.169.242-.251"/><path d="M13.184 28.114c-.163.178-.333.347-.503.516.088-.08.18-.176.261-.265.089-.08.17-.169.242-.251" opacity=".35"/><path d="M11.906 25.33q-.014.01 0 0c.029-.021.05-.052.08-.073.11-.11.22-.22.313-.333-.122.134-.26.265-.393.406"/><path d="M11.906 25.33q-.014.01 0 0c.029-.021.05-.052.08-.073.11-.11.22-.22.313-.333-.122.134-.26.265-.393.406" opacity=".35"/></g><path fill="url(#k)" d="M4.518 19.793q-.242-1.743-.442-3.428a78 78 0 0 1-.32-3.443c-.006-.069-.013-.138-.012-.197a71 71 0 0 1-.156-3.24L.104 7.806c-.007.212-.023.43-.033.657Q.017 9.716.003 11.116c-.009 1.05.001 2.147.02 3.295.025 1.056.068 2.157.126 3.277.056.96.12 1.928.197 2.915.002.043.006.07.008.112l4.66 2.361c-.16-1.102-.333-2.198-.497-3.283"/><path fill="url(#l)" d="M11.402 47.355c.257.87.518 1.768.803 2.677.007.01.004.026.011.035.04.134.071.257.12.383.185.614.365 1.16.75 2.406.754-.155 1.695.184 2.677.64a3.82 3.82 0 0 0-2.546-1.383c2.855-1.904 4.733-4.356 4.47-7.281a10 10 0 0 0-.116-.798c-.045 1.121-.509 1.932-1.875 2.817l-.01.007.01-.007c1.29-2.27 1.646-3.811 1.493-5.803a19 19 0 0 0-.183-1.513c-.413 2.966-2.006 4.885-4.335 6.02l-1.413 1.302c.05.17.094.329.144.498"/><path fill="url(#m)" d="M9.586 43.377c-.297-1.106-.59-2.23-.892-3.361a220 220 0 0 1-.827-3.292 361 361 0 0 1-.793-3.346 156 156 0 0 1-.755-3.433c-.242-1.132-.465-2.277-.69-3.406a49 49 0 0 1-.227-1.232c-.13-.698-.25-1.404-.372-2.11-.01-.036-.013-.078-.025-.114L.371 20.717c.006.07.02.148.017.224.093 1.049.184 2.115.308 3.186.122 1.088.26 2.178.422 3.28.137.93.284 1.851.438 2.783.031.183.07.375.1.558a65 65 0 0 0 2.165 8.562c.175.52.367 1.04.551 1.553a47 47 0 0 0 1.463 3.516l4.684 2.373c-.25-.86-.48-1.736-.734-2.624-.064-.247-.128-.494-.199-.751"/><path fill="url(#n)" d="M5.905 44.534a36 36 0 0 0 2.155 3.98c.028.037.053.092.082.13-1.295-.52-3.589-.279-3.572-.276 2.368.821 4.445 1.827 5.755 3.352-.52.573-1.495 1.01-2.72 1.364 1.694.184 2.638-.112 2.984-.263-.885.738-1.38 2.087-1.816 3.54.997-1.63 1.985-2.708 2.948-3.12 1.406 4.661 3.1 9.715 4.975 15.017.317-.41.353-.862.22-1.323-.346-.953-2.577-7.26-5.123-15.821-.074-.24-.138-.488-.218-.738-.023-.071-.039-.133-.062-.204q-.392-1.346-.797-2.77c-.059-.221-.12-.426-.18-.647l-.007-.01-4.684-2.373a1 1 0 0 0 .06.162"/><path fill="url(#o)" d="M5.56 23.177c.026.156.056.297.082.453.09.464.171.935.268 1.408.1.515.205 1.04.31 1.583q.074.403.161.822.256 1.246.54 2.56a246 246 0 0 0 1.581 6.725c.28 1.104.565 2.234.878 3.402.274 1.034.57 2.098.87 3.187.008.052.033.107.042.16.302 1.073.615 2.181.943 3.309a.2.2 0 0 0 .023.071l1.413-1.301c-.036.011-.064.032-.11.05 1.677-1.583 3.115-4.756 3.443-7.616.151-1.317.138-2.72-.044-4.25-.13-1.14-.362-2.337-.68-3.633a47 47 0 0 0-1.04-3.562c-.26.529-.628 1.05-1.08 1.557l-.244.268c-.082.089-.17.169-.26.265 1.235-1.923 1.383-3.987 1.016-6.13a7.8 7.8 0 0 1-1.399 2.423 5 5 0 0 1-.314.334c-.029.02-.05.051-.089.08.41-.684.714-1.333.908-1.99.047-.138.077-.278.107-.417.05-.213.082-.429.115-.644.014-.142.034-.275.047-.417a6 6 0 0 0-.006-1.01c-.008-.112-.01-.214-.027-.319-.027-.157-.047-.304-.076-.444a21 21 0 0 0-.55-2.392c-.03-.081-.043-.16-.073-.24-.076-.225-.138-.43-.205-.6a6 6 0 0 0-.257-.592 1.3 1.3 0 0 1-.102.282c-.292.684-.97 1.624-1.59 2.284l1.303-1.191-1.303 1.191c-.01.007-.019.014-.02.03-.06.06-.13.125-.193.2.003-.016.021-.03.024-.047L5.52 23.103c.037.03.042.057.04.074"/><path fill="url(#p)" d="M3.838 9.405c.054.976.14 2.075.25 3.288.006.07.006.128.022.19.1 1.06.231 2.2.396 3.446.14 1.074.297 2.21.491 3.435.16 1.06.355 2.167.556 3.344l4.452-4.077c.928-1.682 1.131-2.728 1.12-4.028a21 21 0 0 0-.054-1.094 35 35 0 0 0-.402-3.515 31 31 0 0 0-.663-3.148 17 17 0 0 0-.51-1.597c-.16-.397-.324-.762-.49-1.11-1.643 1.69-3.723 3.688-5.168 4.866"/><path fill="#be202e" d="M12.95 28.375c-.082.089-.171.169-.262.265.081-.09.163-.179.261-.265"/><path fill="#be202e" d="M12.95 28.375c-.082.089-.171.169-.262.265.081-.09.163-.179.261-.265" opacity=".35"/><path fill="url(#q)" d="M12.95 28.375c-.082.089-.171.169-.262.265.081-.09.163-.179.261-.265"/><path fill="#be202e" d="M11.897 25.337c.028-.021.05-.052.088-.08-.028.021-.05.052-.088.08"/><path fill="#be202e" d="M11.897 25.337c.028-.021.05-.052.088-.08-.028.021-.05.052-.088.08" opacity=".35"/><path fill="url(#r)" d="M11.897 25.337c.028-.021.05-.052.088-.08-.028.021-.05.052-.088.08"/><g transform="rotate(8.344 44.339 76.917)scale(.13415)"><linearGradient id="a" x1="-7708.8" x2="-7633.2" y1="-803.36" y2="-714.91" gradientTransform="rotate(-65.001 -3054.3 -6609.8)" gradientUnits="userSpaceOnUse"><stop offset="0" stop-color="#f69923"/><stop offset=".312" stop-color="#f79a23"/><stop offset=".838" stop-color="#e97826"/></linearGradient><path fill="url(#s)" d="M267.1 19.6c-8.4 5-22.4 19-39 39.3l15.3 28.9c10.7-15.4 21.7-29.2 32.7-41 .8-.9 1.3-1.4 1.3-1.4-.4.5-.9.9-1.3 1.4-3.6 3.9-14.4 16.5-30.7 41.6 15.7-.8 39.8-4 59.5-7.4 5.9-32.8-5.7-47.8-5.7-47.8s-14.8-23.9-32.1-13.6"/><path fill="none" d="M241.1 184.4c.1 0 .2 0 .3-.1l-2.2.2c-.1.1-.3.1-.4.2.8-.1 1.6-.2 2.3-.3m-15.6 51.7c-1.2.3-2.5.5-3.8.7 1.3-.2 2.6-.4 3.8-.7M119.3 352.2c.2-.4.3-.9.5-1.3 3.4-8.9 6.7-17.5 10-26 3.7-9.4 7.4-18.6 11-27.5 3.8-9.3 7.6-18.4 11.3-27.1 3.9-9.2 7.7-18 11.5-26.5 3.1-6.9 6.1-13.6 9.1-20.1 1-2.2 2-4.3 3-6.4 2-4.2 3.9-8.3 5.8-12.3 1.8-3.7 3.5-7.3 5.2-10.9.6-1.2 1.2-2.4 1.7-3.5l.3-.6-1.9.2-1.5-2.9c-.1.3-.3.6-.4.9-2.7 5.3-5.4 10.7-8 16.2-1.5 3.1-3 6.3-4.6 9.5-4.2 8.8-8.3 17.6-12.3 26.6-4.1 9-8.1 18.1-12 27.1-3.9 8.9-7.6 17.8-11.3 26.7s-7.3 17.7-10.8 26.5c-3.7 9.2-7.3 18.3-10.7 27.3-.8 2-1.6 4.1-2.3 6.1-2.8 7.3-5.5 14.4-8.1 21.5l2.4 4.7 2.1-.2c.1-.2.2-.4.2-.6 3.1-9.5 6.5-18.6 9.8-27.4"/><g fill="#be202e"><path d="M215.6 262.2c-2 .4-4 .7-6 1 1-.1 2.1-.3 3.1-.5 1-.1 2-.3 2.9-.5"/><path d="M215.6 262.2c-2 .4-4 .7-6 1 1-.1 2.1-.3 3.1-.5 1-.1 2-.3 2.9-.5" opacity=".35"/><path d="M220.8 236.9q-.15 0 0 0c.3 0 .6-.1.9-.1 1.3-.2 2.6-.4 3.8-.7-1.5.3-3.1.5-4.7.8"/><path d="M220.8 236.9q-.15 0 0 0c.3 0 .6-.1.9-.1 1.3-.2 2.6-.4 3.8-.7-1.5.3-3.1.5-4.7.8" opacity=".35"/></g><linearGradient id="b" x1="-8268.6" x2="-7729" y1="-813.12" y2="-813.12" gradientTransform="rotate(-65.001 -3054.3 -6609.8)" gradientUnits="userSpaceOnUse"><stop offset=".323" stop-color="#9e2064"/><stop offset=".63" stop-color="#c92037"/><stop offset=".751" stop-color="#cd2335"/><stop offset="1" stop-color="#e97826"/></linearGradient><path fill="url(#t)" d="M198.2 162.4q7.05-13.05 14.1-25.5c4.9-8.6 9.9-16.9 15-25 .3-.5.6-1 .9-1.4 5-7.9 10-15.5 15.1-22.8L228 58.9c-1.1 1.4-2.3 2.8-3.5 4.3-4.4 5.5-9 11.4-13.7 17.7-5.3 7.1-10.7 14.6-16.3 22.5-5.1 7.3-10.3 15-15.5 22.9-4.4 6.8-8.8 13.7-13.2 20.8-.2.3-.3.5-.5.8l19.9 39.3c4.4-8.3 8.7-16.6 13-24.8"/><linearGradient id="c" x1="-8203.5" x2="-7881.9" y1="-758.99" y2="-758.99" gradientTransform="rotate(-65.001 -3054.3 -6609.8)" gradientUnits="userSpaceOnUse"><stop offset="0" stop-color="#282662"/><stop offset=".095" stop-color="#662e8d"/><stop offset=".788" stop-color="#9f2064"/><stop offset=".949" stop-color="#cd2032"/></linearGradient><path fill="url(#u)" d="M107.5 384.1c-2.6 7.2-5.3 14.6-7.9 22.2 0 .1-.1.2-.1.3-.4 1.1-.8 2.1-1.1 3.2-1.8 5.1-3.3 9.7-6.9 20.1 5.9 2.7 10.6 9.7 15 17.7-.5-8.3-3.9-16.1-10.4-22.1 28.9 1.3 53.9-6 66.7-27.2 1.1-1.9 2.2-3.9 3.2-6-5.9 7.4-13.1 10.6-26.8 9.8h-.1.1c20.1-9 30.2-17.7 39.1-32 2.1-3.4 4.2-7.1 6.3-11.2-17.6 18.1-38 23.2-59.5 19.3L109 380c-.5 1.4-1 2.7-1.5 4.1"/><linearGradient id="d" x1="-8238.3" x2="-7698.6" y1="-818.15" y2="-818.15" gradientTransform="rotate(-65.001 -3054.3 -6609.8)" gradientUnits="userSpaceOnUse"><stop offset=".323" stop-color="#9e2064"/><stop offset=".63" stop-color="#c92037"/><stop offset=".751" stop-color="#cd2335"/><stop offset="1" stop-color="#e97826"/></linearGradient><path fill="url(#v)" d="M115 348c3.5-9 7.1-18.1 10.7-27.3 3.5-8.8 7.1-17.6 10.8-26.5s7.5-17.8 11.3-26.7c3.9-9.1 7.9-18.1 12-27.1 4-8.9 8.2-17.8 12.3-26.6 1.5-3.2 3-6.3 4.6-9.5 2.6-5.4 5.3-10.8 8-16.2.1-.3.3-.6.4-.9L165.4 148c-.3.5-.6 1.1-1 1.6-4.6 7.6-9.3 15.3-13.8 23.2-4.6 8-9.1 16.1-13.5 24.4-3.7 7-7.3 14-10.9 21.1-.7 1.4-1.4 2.9-2.1 4.3-4.3 8.9-8.3 17.6-11.8 25.9-4 9.4-7.5 18.4-10.6 26.9-2 5.6-3.9 11-5.6 16.2-1.4 4.4-2.7 8.9-4 13.3-3 10.4-5.5 20.8-7.6 31.2l20 39.5c2.6-7.1 5.4-14.2 8.1-21.5.8-2 1.6-4 2.4-6.1"/><linearGradient id="e" x1="-8199" x2="-7915.4" y1="-810.85" y2="-810.85" gradientTransform="rotate(-65.001 -3054.3 -6609.8)" gradientUnits="userSpaceOnUse"><stop offset="0" stop-color="#282662"/><stop offset=".095" stop-color="#662e8d"/><stop offset=".788" stop-color="#9f2064"/><stop offset=".949" stop-color="#cd2032"/></linearGradient><path fill="url(#w)" d="M84.2 337.5c-2.5 12.6-4.3 25.2-5.2 37.8 0 .4-.1.9-.1 1.3-6.2-10-23-19.8-22.9-19.7 12 17.4 21.1 34.6 22.4 51.5-6.4 1.3-15.2-.6-25.3-4.3 10.6 9.7 18.5 12.4 21.6 13.1-9.7.6-19.8 7.3-30 15 14.9-6.1 27-8.5 35.6-6.5-13.7 38.7-27.4 81.5-41.1 126.9 4.2-1.2 6.7-4.1 8.1-7.9 2.4-8.2 18.7-62.2 44.1-133.1.7-2 1.5-4 2.2-6.1.2-.6.4-1.1.6-1.7q4.05-11.1 8.4-22.8c.7-1.8 1.3-3.5 2-5.3v-.1l-20-39.5c-.2.5-.3.9-.4 1.4"/><linearGradient id="f" x1="-8238.3" x2="-7698.6" y1="-762.3" y2="-762.3" gradientTransform="rotate(-65.001 -3054.3 -6609.8)" gradientUnits="userSpaceOnUse"><stop offset=".323" stop-color="#9e2064"/><stop offset=".63" stop-color="#c92037"/><stop offset=".751" stop-color="#cd2335"/><stop offset="1" stop-color="#e97826"/></linearGradient><path fill="url(#x)" d="M188.4 190.6c-.6 1.2-1.1 2.3-1.7 3.5-1.7 3.6-3.5 7.2-5.2 10.9-1.9 4-3.8 8.1-5.8 12.3-1 2.1-2 4.2-3 6.4-3 6.5-6 13.2-9.1 20.1-3.8 8.5-7.6 17.3-11.5 26.5-3.7 8.7-7.5 17.8-11.3 27.1-3.6 8.9-7.3 18-11 27.5-3.3 8.4-6.6 17.1-10 26-.2.4-.3.9-.5 1.3-3.3 8.8-6.7 17.9-10.1 27.2-.1.2-.2.4-.2.6l16.1-1.8c-.3-.1-.6-.1-1-.2 19.3-2.4 44.9-16.8 61.4-34.6 7.6-8.2 14.5-17.8 20.9-29.1 4.8-8.4 9.2-17.7 13.5-28.1 3.7-9 7.3-18.8 10.7-29.4-4.4 2.3-9.5 4-15.1 5.2l-3 .6c-1 .2-2 .3-3.1.5 18-6.9 29.3-20.2 37.5-36.6-4.7 3.2-12.4 7.4-21.6 9.5-1.2.3-2.5.5-3.8.7-.3 0-.6.1-1 .1 6.2-2.6 11.5-5.5 16.1-9 1-.7 1.9-1.5 2.8-2.3 1.4-1.2 2.7-2.5 4-3.8.8-.9 1.6-1.7 2.4-2.6 1.8-2.1 3.5-4.4 5-6.9.5-.8 1-1.5 1.4-2.3.6-1.2 1.2-2.3 1.7-3.4 2.5-5 4.5-9.5 6.1-13.5.8-2 1.5-3.8 2.1-5.5.2-.7.5-1.3.7-2 .6-1.9 1.2-3.6 1.6-5.1.6-2.2 1-4 1.2-5.3-.6.5-1.3 1-2.1 1.4-5.4 3.2-14.7 6.2-22.2 7.6l14.8-1.6-14.8 1.6c-.1 0-.2 0-.3.1-.7.1-1.5.2-2.3.4.1-.1.3-.1.4-.2l-50.6 5.5c.1.4 0 .6-.1.7"/><linearGradient id="g" x1="-8271.8" x2="-7732.1" y1="-765.07" y2="-765.07" gradientTransform="rotate(-65.001 -3054.3 -6609.8)" gradientUnits="userSpaceOnUse"><stop offset=".323" stop-color="#9e2064"/><stop offset=".63" stop-color="#c92037"/><stop offset=".751" stop-color="#cd2335"/><stop offset="1" stop-color="#e97826"/></linearGradient><path fill="url(#y)" d="M245.4 88.4c-4.5 6.9-9.4 14.8-14.7 23.6-.3.5-.6.9-.8 1.4-4.6 7.7-9.4 16.1-14.5 25.4-4.4 8-9 16.5-13.8 25.8-4.2 8-8.4 16.5-12.9 25.5l50.6-5.5c14.7-6.8 21.3-12.9 27.7-21.8 1.7-2.4 3.4-5 5.1-7.7 5.2-8.1 10.3-17 14.8-25.9 4.4-8.6 8.3-17.1 11.2-24.7 1.9-4.9 3.4-9.4 4.5-13.4.9-3.5 1.6-6.8 2.2-10-19.6 3.3-43.7 6.5-59.4 7.3"/><path fill="#be202e" d="M212.7 262.8c-1 .2-2 .3-3.1.5 1-.2 2-.4 3.1-.5"/><path fill="#be202e" d="M212.7 262.8c-1 .2-2 .3-3.1.5 1-.2 2-.4 3.1-.5" opacity=".35"/><linearGradient id="h" x1="-8238.3" x2="-7698.6" y1="-745.68" y2="-745.68" gradientTransform="rotate(-65.001 -3054.3 -6609.8)" gradientUnits="userSpaceOnUse"><stop offset=".323" stop-color="#9e2064"/><stop offset=".63" stop-color="#c92037"/><stop offset=".751" stop-color="#cd2335"/><stop offset="1" stop-color="#e97826"/></linearGradient><path fill="url(#z)" d="M212.7 262.8c-1 .2-2 .3-3.1.5 1-.2 2-.4 3.1-.5"/><path fill="#be202e" d="M220.7 236.9c.3 0 .6-.1 1-.1-.3 0-.6.1-1 .1"/><path fill="#be202e" d="M220.7 236.9c.3 0 .6-.1 1-.1-.3 0-.6.1-1 .1" opacity=".35"/><linearGradient id="i" x1="-8238.3" x2="-7698.6" y1="-747.59" y2="-747.59" gradientTransform="rotate(-65.001 -3054.3 -6609.8)" gradientUnits="userSpaceOnUse"><stop offset=".323" stop-color="#9e2064"/><stop offset=".63" stop-color="#c92037"/><stop offset=".751" stop-color="#cd2335"/><stop offset="1" stop-color="#e97826"/></linearGradient><path fill="url(#A)" d="M220.7 236.9c.3 0 .6-.1 1-.1-.3 0-.6.1-1 .1"/></g></svg>