<svg xmlns="http://www.w3.org/2000/svg" viewBox="0 0 42.1 43.9"><path fill="#ef8700" d="M35.5 12.5h-.2v-.1L18.9 3.1 2.7 12.6l.1 18.9 16.4 9.3 16.3-9.6v-.1h.2l.4-.3.2.3h1.8v1.7L19.2 43.9.2 33 0 11.1 18.9 0 38 10.8v1.7h-1.8l-.2.3z"/><path fill="#ef8700" d="M23.8 29.1v-8.5c0-1.3-.6-2.1-2-2.1s-2.3.8-2.8 1.6v9.1h-3.6v-8.5c0-1.3-.6-2.1-2-2.1s-2.3.8-2.8 1.6v9H7.1V15.8h3.5v1.8c.6-.8 2.3-2.1 4.4-2.1s3.2.9 3.7 2.4c.8-1.2 2.6-2.4 4.6-2.4s3.9 1.3 3.9 4.1v9.7h-3.6zM38.4 29.1v-1.4c-.9 1.1-2.5 1.7-4.3 1.7S29.4 28 29.4 25s2.5-4.3 4.7-4.3 3.4.6 4.3 1.6v-1.9c0-1.4-1.2-2.3-2.9-2.3s-2.8.5-3.9 1.6l-1.3-2.4c1.6-1.4 3.8-2.1 5.9-2.1 3.1 0 5.9 1.2 5.9 5.1V29h-3.5zm0-4.9c-.6-.8-1.7-1.2-2.8-1.2s-2.5.8-2.5 2 1.1 2 2.5 2 2.3-.4 2.8-1.2v-1.7z"/></svg>