<svg xmlns="http://www.w3.org/2000/svg" fill="none" viewBox="0 0 21.43 24.001"><path fill="url(#a)" d="M4.98 15.611h11.47a4.99 4.99 0 0 1 4.98 4.98v3.41H0v-3.4a4.99 4.99 0 0 1 4.98-4.99"/><path fill="url(#b)" d="M5.17 16.911h11.1a5.17 5.17 0 0 1 5.16 5.17v1.92H0v-1.92a5.17 5.17 0 0 1 5.17-5.17"/><path fill="url(#c)" d="M7.43 18.151H14a5.65 5.65 0 0 1 5.65 5.65v.2H1.78v-.2a5.65 5.65 0 0 1 5.65-5.65"/><g fill="#9c9ca3"><path d="m2.77 20.601-.1.16a6.05 6.05 0 0 1 2.3 3.24h.2a6.25 6.25 0 0 0-2.4-3.4"/><path d="M3.48 20.281a2 2 0 0 0-.29-.21l-.12.14.3.21a7.1 7.1 0 0 1 2.33 3.58h.2a7.3 7.3 0 0 0-2.42-3.72m15.18.32.1.16a6.05 6.05 0 0 0-2.3 3.24h-.2a6.25 6.25 0 0 1 2.4-3.4"/><path d="M17.95 20.281c.09-.08.19-.15.29-.21l.12.14-.3.21a7.1 7.1 0 0 0-2.32 3.58h-.2a7.3 7.3 0 0 1 2.4-3.72z"/></g><path fill="url(#d)" d="M6.53 21.841h5.1c.11 0 .2.09.2.2v1.96H6.34v-1.97c0-.1.08-.19.18-.19z"/><path fill="url(#e)" d="M12.62 21.081h2.36c.1 0 .19.08.19.18v2.74h-2.74v-2.74c0-.1.08-.18.19-.18"/><path fill="url(#f)" d="M13.8 23.341a.9.9 0 1 0 0-1.8.9.9 0 0 0 0 1.8"/><path fill="url(#g)" d="M13.8 21.541a.9.9 0 1 1 0 1.8.9.9 0 0 1 0-1.8m0-.06a.96.96 0 1 0 0 1.92.96.96 0 0 0 0-1.92"/><path fill="url(#h)" d="M11.64 21.721h-5.1a.31.31 0 0 0-.32.31v1.97h.13v-1.97c0-.1.08-.18.18-.18h5.1c.11 0 .2.08.2.18v1.97h.12v-1.97a.31.31 0 0 0-.31-.3z"/><path fill="url(#i)" d="M14.98 21.011h-2.36a.25.25 0 0 0-.25.25v2.74h.06v-2.74c0-.1.09-.18.19-.18h2.36c.1 0 .19.08.19.18v2.74h.06v-2.74a.25.25 0 0 0-.25-.25"/><path fill="url(#j)" d="M2.94 23.801c.16.17.43.15.56-.05l.33-.54a.65.65 0 0 0-.02-.72c-.4-.56-.84-.92-1.37-1.33a5.6 5.6 0 0 0-.6 1.8c.56.33.9.63 1.1.84"/><path fill="url(#k)" d="M18.88 15.311c0 2.32-3.6 4.2-8.05 4.2-4.44 0-8.04-1.88-8.04-4.2l-.49-6.63a7.4 7.4 0 0 1 .08-1.76 8.47 8.47 0 0 1 8.45-6.92 8.44 8.44 0 0 1 8.44 6.81c.11.62.14 1.25.1 1.87l-.5 6.63z"/><path fill="url(#l)" d="M19.27 6.812a8 8 0 0 0-.26-1.05l-.7 7.57c-.5 3.44-3.71 4.69-7.48 4.69-3.76 0-6.96-1.25-7.46-4.7l-.7-7.56a7.9 7.9 0 0 0-.37 2.92l.49 6.63c0 2.32 3.6 4.2 8.04 4.2 4.45 0 8.05-1.88 8.05-4.2l.49-6.63c.04-.62.01-1.25-.1-1.87"/><path fill="url(#m)" d="M2.8 15.341c.67 1.97 4.01 3.46 8.03 3.46 4.03 0 7.37-1.5 8.05-3.46v-.03l.21-2.89c-.2.84-.4 2.06-.74 2.8a4.65 4.65 0 0 1-2.39 2.25c-1.42.62-3.24.96-5.13.96h-.14a13.1 13.1 0 0 1-4.98-.96 5.33 5.33 0 0 1-2.46-2.34c-.34-.68-.47-1.87-.67-2.7l.21 2.88v.03z"/><path fill="url(#n)" d="M10.83 18.801c-4.02 0-7.36-1.5-8.04-3.46.03 2.3 3.62 4.17 8.04 4.17 4.43 0 8.02-1.87 8.05-4.17-.68 1.97-4.02 3.46-8.05 3.46"/><path fill="url(#o)" d="M10.83 19.501c-2.83 0-5.32-.76-6.76-1.92 1.08 1.54 3.7 2.63 6.76 2.63 3.07 0 5.69-1.09 6.77-2.63-1.44 1.16-3.93 1.93-6.77 1.93z"/><path fill="url(#p)" d="M5.04 18.681c0 .1.04.18.11.25 1.27 1.07 3.37 1.77 5.75 1.77 2.37 0 4.33-.66 5.6-1.67a.33.33 0 0 0 .13-.26v-.22c-1.33 1-3.43 1.65-5.8 1.65-2.36 0-4.46-.65-5.8-1.65v.12z"/><path fill="#000" d="M4.98 18.681c0 .11.05.22.13.3.64.54 1.5 1 2.48 1.3 1.01.33 2.16.5 3.3.5 1.16 0 2.21-.16 3.21-.46.95-.3 1.8-.72 2.45-1.23a.4.4 0 0 0 .14-.31v-.22h-.06v.22c0 .1-.04.2-.12.26-1.28 1.01-3.32 1.67-5.61 1.67-2.3 0-4.48-.7-5.75-1.78a.33.33 0 0 1-.11-.25v-.12l-.07.12z"/><path fill="url(#q)" d="M2.3 8.682a8 8 0 0 1-.02-.72l-.55.09a.25.25 0 0 0-.2.24v4.02c0 .12.08.23.2.25l.87.14z"/><path fill="url(#r)" d="M1.52 8.342c-.35.32-.6 1.08-.6 1.95s.25 1.62.6 1.95z"/><path fill="url(#s)" d="M19.36 8.682c.02-.24.03-.48.02-.72l.55.09c.12.02.21.12.21.24v4.02c0 .12-.09.23-.2.25l-.87.14.3-4.02z"/><path fill="url(#t)" d="M20.14 8.342c.36.32.61 1.08.61 1.95s-.25 1.62-.6 1.95v-3.9z"/><path fill="url(#u)" d="M2.32 8.942c1.26-3.82 4.58-5.14 8.51-5.14 3.94 0 7.26 1.34 8.52 5.16l.02-.27c.04-.62.01-1.25-.1-1.87a8.48 8.48 0 0 0-8.44-6.82c-4.22 0-7.8 3-8.45 6.92a7.4 7.4 0 0 0-.08 1.76z"/><path fill="url(#v)" d="M10.83 3.802c-3.94 0-7.25 1.32-8.5 5.14l.28 3.87.17-3.71c1.49-3.58 4.52-4.78 8.05-4.78 3.54 0 6.57 1.2 8.06 4.78l.17 3.73.29-3.88c-1.26-3.82-4.57-5.16-8.52-5.16z"/><path fill="url(#w)" d="M5.93 1.482v1.97c0 .35-.2.66-.5.82a7.6 7.6 0 0 0-2.92 2.7c-.08.14-.14.26-.19.39l-.03.44c0-.25.1-.51.27-.79a7.2 7.2 0 0 1 2.9-2.68c.33-.17.53-.51.53-.88v-2z"/><path fill="url(#x)" d="M19.35 7.362a7.27 7.27 0 0 0-3.11-3.09.92.92 0 0 1-.5-.82v-1.97l-.06-.04v2.01c0 .37.2.7.53.88a7.36 7.36 0 0 1 2.9 2.69c.17.27.26.54.27.78 0-.15-.02-.3-.03-.44"/><path fill="#666" d="M10.83 4.322c-3.4 0-6.35 1.12-7.9 4.41l.44 4.6c.5 3.44 3.7 4.69 7.47 4.69 3.76 0 6.96-1.25 7.46-4.7l.43-4.58c-1.54-3.3-4.48-4.42-7.9-4.42"/><path fill="url(#y)" d="M10.83 4.632c-2.18 0-4.16.45-5.68 1.65a4.56 4.56 0 0 0-1.7 4.03l.25 2.49c.48 3.12 3.54 4.25 7.13 4.25 3.6 0 6.66-1.13 7.14-4.25l.24-2.5a4.56 4.56 0 0 0-1.7-4.01c-1.5-1.2-3.49-1.66-5.68-1.66"/><path fill="#000" d="M10.83 4.882c1.11 0 2.12.12 3 .36.94.26 1.77.73 2.46 1.28a4.37 4.37 0 0 1 1.55 3.75l-.24 2.48a3.97 3.97 0 0 1-2.2 3.01c-.59.31-1.28.54-2.07.7-.75.14-1.6.22-2.5.22s-1.74-.08-2.49-.22a7.5 7.5 0 0 1-2.07-.7 3.97 3.97 0 0 1-2.2-3.01l-.24-2.48a4.37 4.37 0 0 1 1.56-3.77 6.9 6.9 0 0 1 2.45-1.27q1.32-.36 3-.36m0-.25c-2.2 0-4.17.45-5.69 1.65a4.56 4.56 0 0 0-1.7 4.03l.25 2.49c.48 3.12 3.54 4.25 7.13 4.25 3.6 0 6.66-1.13 7.14-4.25l.24-2.5a4.56 4.56 0 0 0-1.7-4.01c-1.5-1.2-3.49-1.66-5.68-1.66z"/><path fill="url(#z)" d="m18.21 10.301-.24 2.5c-.48 3.12-3.54 4.25-7.14 4.25-3.59 0-6.65-1.13-7.13-4.25l-.24-2.5-.02-.31c0 .16 0 .34.02.55l.24 2.6c.48 3.24 3.54 4.42 7.13 4.42 3.6 0 6.66-1.18 7.14-4.42l.24-2.6a4 4 0 0 0 0-.23z"/><path fill="url(#A)" d="M10.46 10.141c2.57-.47 4.44-2.01 4.18-3.44s-2.56-2.2-5.13-1.72c-2.57.47-4.44 2.01-4.18 3.44.26 1.42 2.56 2.2 5.13 1.72"/><defs><linearGradient id="a" x1=".99" x2="22.43" y1="17.07" y2="17.07" gradientTransform="translate(-1 .001)" gradientUnits="userSpaceOnUse"><stop offset="0" stop-color="#BBB"/><stop offset=".12" stop-color="#EEE"/><stop offset=".88" stop-color="#EEE"/><stop offset="1" stop-color="#BBB"/></linearGradient><linearGradient id="b" x1="1" x2="22.43" y1="20.45" y2="20.45" gradientTransform="translate(-1 .001)" gradientUnits="userSpaceOnUse"><stop offset="0" stop-color="#A6A4A7"/><stop offset=".25" stop-color="#555"/><stop offset=".75" stop-color="#555"/><stop offset="1" stop-color="#908E90"/></linearGradient><linearGradient id="d" x1="10.09" x2="10.09" y1="21.84" y2="24" gradientTransform="translate(-1 .001)" gradientUnits="userSpaceOnUse"><stop offset="0" stop-color="#FAF6F9"/><stop offset="1" stop-color="#919191"/></linearGradient><linearGradient id="e" x1="14.8" x2="14.8" y1="24" y2="21.08" gradientTransform="translate(-1 .001)" gradientUnits="userSpaceOnUse"><stop offset="0" stop-color="#8A898A"/><stop offset="1" stop-color="#EFEBEE"/></linearGradient><linearGradient id="g" x1="14.8" x2="14.8" y1="21.48" y2="23.4" gradientTransform="translate(-1 .001)" gradientUnits="userSpaceOnUse"><stop offset="0" stop-color="#EAE6E9"/><stop offset="1" stop-color="#D7D5D8"/></linearGradient><linearGradient id="h" x1="10.09" x2="10.09" y1="21.72" y2="24" gradientTransform="translate(-1 .001)" gradientUnits="userSpaceOnUse"><stop offset="0" stop-color="#E9E9E9"/><stop offset="1" stop-color="gray"/></linearGradient><linearGradient id="i" x1="14.8" x2="14.8" y1="21.01" y2="24" gradientTransform="translate(-1 .001)" gradientUnits="userSpaceOnUse"><stop offset="0" stop-color="#C8C6C8"/><stop offset="1" stop-color="#6A6A6A"/></linearGradient><linearGradient id="j" x1="3.05" x2="4.46" y1="21.38" y2="23.82" gradientTransform="translate(-1 .001)" gradientUnits="userSpaceOnUse"><stop offset="0" stop-color="#5068CC"/><stop offset="1" stop-color="#3C4E95"/></linearGradient><linearGradient id="l" x1="11.83" x2="11.83" y1="8.4" y2="18.02" gradientTransform="translate(-1 .001)" gradientUnits="userSpaceOnUse"><stop offset="0" stop-color="#444"/><stop offset=".6" stop-color="#DDD"/></linearGradient><linearGradient id="m" x1="3.58" x2="20.09" y1="15.61" y2="15.61" gradientTransform="translate(-1 .001)" gradientUnits="userSpaceOnUse"><stop offset="0" stop-color="#555"/><stop offset=".5" stop-color="#999"/><stop offset="1" stop-color="#555"/></linearGradient><linearGradient id="n" x1="3.79" x2="19.88" y1="17.42" y2="17.42" gradientTransform="translate(-1 .001)" gradientUnits="userSpaceOnUse"><stop offset="0" stop-color="#777"/><stop offset=".5" stop-color="#AAA"/><stop offset="1" stop-color="#777"/></linearGradient><linearGradient id="o" x1="5.07" x2="18.6" y1="18.9" y2="18.9" gradientTransform="translate(-1 .001)" gradientUnits="userSpaceOnUse"><stop offset="0" stop-color="#525455"/><stop offset=".5" stop-color="#777"/><stop offset="1" stop-color="#525455"/></linearGradient><linearGradient id="p" x1="6.04" x2="17.63" y1="19.63" y2="19.63" gradientTransform="translate(-1 .001)" gradientUnits="userSpaceOnUse"><stop offset="0" stop-color="#242424"/><stop offset=".5" stop-color="#444"/><stop offset="1" stop-color="#242424"/></linearGradient><linearGradient id="q" x1="3.06" x2="3.06" y1="7.96" y2="12.7" gradientTransform="translate(-1 .001)" gradientUnits="userSpaceOnUse"><stop offset="0" stop-color="#BCC0C1"/><stop offset=".39" stop-color="#EDEDED"/><stop offset="1" stop-color="#515254"/></linearGradient><linearGradient id="r" x1="2.22" x2="2.22" y1="8.34" y2="12.24" gradientTransform="translate(-1 .001)" gradientUnits="userSpaceOnUse"><stop offset="0" stop-color="#B8BABA"/><stop offset=".39" stop-color="#BFC1C1"/><stop offset="1" stop-color="#6A6F72"/></linearGradient><linearGradient id="s" x1="20.61" x2="20.61" y1="7.96" y2="12.7" gradientTransform="translate(-1 .001)" gradientUnits="userSpaceOnUse"><stop offset="0" stop-color="#BCC0C1"/><stop offset=".39" stop-color="#EDEDED"/><stop offset="1" stop-color="#515254"/></linearGradient><linearGradient id="t" x1="21.45" x2="21.45" y1="8.34" y2="12.24" gradientTransform="translate(-1 .001)" gradientUnits="userSpaceOnUse"><stop offset="0" stop-color="#B8BABA"/><stop offset=".39" stop-color="#BFC1C1"/><stop offset="1" stop-color="#6A6F72"/></linearGradient><linearGradient id="v" x1="3.32" x2="20.35" y1="8.31" y2="8.31" gradientTransform="translate(-1 .001)" gradientUnits="userSpaceOnUse"><stop offset="0" stop-color="#888"/><stop offset=".05" stop-color="#555"/><stop offset=".95" stop-color="#555"/><stop offset="1" stop-color="#888"/></linearGradient><linearGradient id="w" x1="3.29" x2="6.99" y1="4.62" y2="4.62" gradientTransform="translate(-1 .001)" gradientUnits="userSpaceOnUse"><stop offset="0" stop-color="#777"/><stop offset=".6" stop-color="#AAA"/></linearGradient><linearGradient id="x" x1="16.68" x2="20.38" y1="4.62" y2="4.62" gradientTransform="translate(-1 .001)" gradientUnits="userSpaceOnUse"><stop offset=".4" stop-color="#AAA"/><stop offset="1" stop-color="#777"/></linearGradient><linearGradient id="z" x1="4.43" x2="19.23" y1="13.78" y2="13.78" gradientTransform="translate(-1 .001)" gradientUnits="userSpaceOnUse"><stop offset="0" stop-color="#4F5354"/><stop offset=".2" stop-color="#CCC"/><stop offset=".8" stop-color="#CCC"/><stop offset="1" stop-color="#4F5354"/></linearGradient><radialGradient id="c" cx="0" cy="0" r="1" gradientTransform="matrix(8.7893 0 0 7.0315 10.85 23.321)" gradientUnits="userSpaceOnUse"><stop offset=".7" stop-color="#DDD"/><stop offset="1" stop-color="#BDBCBE"/></radialGradient><radialGradient id="f" cx="0" cy="0" r="1" gradientTransform="translate(13.8 22.441)scale(.89735)" gradientUnits="userSpaceOnUse"><stop offset=".6" stop-color="#424242"/><stop offset="1" stop-color="#333"/></radialGradient><radialGradient id="k" cx="0" cy="0" r="1" gradientTransform="matrix(-12.255 0 0 -7.966 10.98 5.181)" gradientUnits="userSpaceOnUse"><stop offset=".4" stop-color="#FAFAFA"/><stop offset="1" stop-color="#A8AAAB"/></radialGradient><radialGradient id="u" cx="0" cy="0" r="1" gradientTransform="matrix(8.8432 0 0 6.2787 10.83 4.462)" gradientUnits="userSpaceOnUse"><stop offset=".4" stop-color="#FAFAFA"/><stop offset="1" stop-color="#A8AAAB"/></radialGradient><radialGradient id="y" cx="0" cy="0" r="1" gradientTransform="matrix(6.5101 0 0 7.1611 11.05 10.061)" gradientUnits="userSpaceOnUse"><stop offset=".8"/><stop offset="1" stop-color="#444"/></radialGradient><radialGradient id="A" cx="0" cy="0" r="1" gradientTransform="matrix(4.1378 -.76316 .39248 2.128 10 7.622)" gradientUnits="userSpaceOnUse"><stop offset="0" stop-color="#fff" stop-opacity=".75"/><stop offset="1" stop-color="#fff" stop-opacity="0"/></radialGradient></defs></svg>