<svg xmlns="http://www.w3.org/2000/svg" fill="none" viewBox="0 0 155.11 172.54"><g stroke="#000" stroke-linecap="round" stroke-width="12"><path d="m6 80.874 67.882-67.882c9.373-9.373 24.569-9.373 33.941 0s9.373 24.568 0 33.941L56.558 98.198m.707-.707 50.558-50.558c9.373-9.373 24.569-9.373 33.942 0l.353.354c9.373 9.372 9.373 24.568 0 33.94l-61.393 61.394a8 8 0 0 0 0 11.313l12.606 12.607"/><path d="M90.853 29.962 40.648 80.167c-9.373 9.372-9.373 24.568 0 33.941 9.373 9.372 24.569 9.372 33.941 0l50.205-50.205"/></g></svg>