<svg xmlns="http://www.w3.org/2000/svg" fill="none" viewBox="0 0 41.15 23.997"><g fill="url(#a)"><path d="M0 23.997 7.603 4.545A7.15 7.15 0 0 1 14.259 0h4.584L11.24 19.452a7.15 7.15 0 0 1-6.656 4.545zM11.153 23.997l7.603-19.452A7.15 7.15 0 0 1 25.412 0h4.584l-7.603 19.452a7.15 7.15 0 0 1-6.656 4.545zM22.307 23.997 29.91 4.545A7.15 7.15 0 0 1 36.566 0h4.584l-7.603 19.452a7.15 7.15 0 0 1-6.656 4.545z"/></g><defs><linearGradient id="a" x1="41.15" x2="0" y1="-1.333" y2="21.914" gradientTransform="translate(0 -.5)" gradientUnits="userSpaceOnUse"><stop offset="0" stop-color="#FF5CAA"/><stop offset="1" stop-color="#FF4E62"/></linearGradient></defs></svg>