<svg xmlns="http://www.w3.org/2000/svg" fill="none" viewBox="0 0 108.52 107.78"><path fill="#000" fill-rule="evenodd" d="M55.748 8.92a4.46 4.46 0 1 0 0-8.92 4.46 4.46 0 0 0 0 8.92M38.012 29.317c-1.148-1.484-2.07-3.338-1.585-5.15s2.211-2.956 3.947-3.667a7.805 7.805 0 1 0-9.123-2.444c1.149 1.484 2.072 3.337 1.586 5.15-.486 1.811-2.211 2.955-3.948 3.666a7.805 7.805 0 1 0 9.123 2.445m47.73 9.272c-1.812-.486-3.665.437-5.149 1.585a7.805 7.805 0 1 1 2.444-9.123c.711 1.736 1.855 3.462 3.667 3.948 1.813.485 3.666-.437 5.15-1.585a7.805 7.805 0 1 1-2.445 9.123c-.711-1.737-1.855-3.463-3.667-3.948m17.414 38.55a7.805 7.805 0 0 1-13.253-6.572c.252-1.86.125-3.926-1.202-5.252s-3.393-1.455-5.252-1.202a7.805 7.805 0 1 1 6.68-6.678c-.253 1.859-.126 3.925 1.2 5.251s3.393 1.454 5.252 1.201a7.805 7.805 0 0 1 6.575 13.252zM63.714 96.002a7.805 7.805 0 1 0 13.708-2.761c-1.148-1.484-2.07-3.337-1.585-5.149s2.211-2.955 3.947-3.666a7.805 7.805 0 1 0-9.122-2.444c1.148 1.483 2.07 3.336 1.585 5.148s-2.21 2.956-3.947 3.667A7.8 7.8 0 0 0 63.714 96m-35.283 3.671a7.805 7.805 0 0 1 9.78-11.1c1.73.726 3.76 1.137 5.384.2 1.625-.939 2.283-2.902 2.52-4.763a7.804 7.804 0 0 1 14.502-2.92 7.806 7.806 0 0 1-9.78 11.1c-1.73-.725-3.76-1.137-5.384-.199s-2.283 2.902-2.52 4.763a7.805 7.805 0 0 1-14.502 2.92m-.35-28.55c-1.484 1.148-3.337 2.071-5.15 1.586-1.811-.486-2.955-2.212-3.665-3.948a7.805 7.805 0 1 0-2.445 9.122c1.484-1.147 3.337-2.07 5.149-1.585 1.812.486 2.956 2.212 3.667 3.948a7.805 7.805 0 1 0 2.444-9.122M5.517 34.156a7.805 7.805 0 0 1 13.253 6.574c-.252 1.859-.124 3.925 1.202 5.251s3.393 1.454 5.252 1.202a7.805 7.805 0 1 1-6.678 6.679c.252-1.86.124-3.925-1.202-5.252s-3.393-1.453-5.252-1.201a7.805 7.805 0 0 1-6.575-13.253m59.56-11.632c-1.624.938-2.282 2.9-2.52 4.762a7.806 7.806 0 1 1-4.723-8.179c1.731.724 3.76 1.136 5.385.198s2.283-2.9 2.52-4.762a7.804 7.804 0 0 1 14.502-2.92 7.806 7.806 0 0 1-9.78 11.1c-1.731-.725-3.76-1.137-5.384-.199zm38.984 37.684a4.46 4.46 0 1 0 0-8.918 4.46 4.46 0 0 0 0 8.918m-8.176-38.652a4.46 4.46 0 1 1-8.92 0 4.46 4.46 0 0 1 8.92 0M23.042 20.07a4.46 4.46 0 1 1-8.92 0 4.46 4.46 0 0 1 8.92 0M4.459 60.209a4.46 4.46 0 1 0 0-8.92 4.46 4.46 0 0 0 0 8.92m17.84 28.989a4.46 4.46 0 1 1-8.92 0 4.46 4.46 0 0 1 8.92 0M52.03 107.78a4.46 4.46 0 1 0 0-8.92 4.46 4.46 0 0 0 0 8.92m43.11-17.097a4.46 4.46 0 1 1-8.919 0 4.46 4.46 0 0 1 8.92 0m-41.073-22.16c7.391 0 13.384-5.991 13.384-13.383S61.46 41.757 54.068 41.757 40.684 47.749 40.684 55.14s5.992 13.384 13.384 13.384" clip-rule="evenodd"/></svg>