<svg xmlns="http://www.w3.org/2000/svg" fill="#1e1e1e" viewBox="0 0 132.89 143.86"><path fill-rule="evenodd" d="M81.945 4.153a31 31 0 0 0-31 0L15.5 24.617A31 31 0 0 0 0 51.464v40.93a31 31 0 0 0 15.5 26.846l35.445 20.464a31 31 0 0 0 31 0l35.445-20.464a31 31 0 0 0 15.5-26.847V51.464a31 31 0 0 0-15.5-26.847zM10.558 67.666a7.75 7.75 0 0 0 0 7.75L35.34 118.34a7.75 7.75 0 0 0 6.712 3.875h49.563a7.75 7.75 0 0 0 6.711-3.875l24.782-42.923a7.75 7.75 0 0 0 0-7.75L98.326 24.743a7.75 7.75 0 0 0-6.711-3.875H42.052a7.75 7.75 0 0 0-6.712 3.875z" clip-rule="evenodd"/></svg>