<svg xmlns="http://www.w3.org/2000/svg" preserveAspectRatio="xMidYMid" viewBox="0 0 255 250.13"><g fill="#1b1a1b"><path d="M238.693 190.793c45.729-76.034-9.658-199.35-110.93-186.82-91.503 11.312-92.978 107.62-12.335 130.5 69.786 19.817 14.417 64.082 16.035 93.558 1.625 29.472 60.669 40.165 107.23-37.239z"/><path d="M80.876 238.733c21.074-5.542 33.686-27.198 28.169-48.37s-27.073-33.841-48.148-28.299-33.686 27.198-28.169 48.37 27.073 33.841 48.148 28.299M23.324 90.792C9.135 92.172-1.252 104.834.122 119.089c1.376 14.265 13.98 24.707 28.172 23.327 14.187-1.398 24.583-14.057 23.203-28.313-1.379-14.245-13.981-24.691-28.173-23.311"/></g><path fill="#bfbfbf" d="M238.88 187.38c45.442-75.902-9.594-199-110.23-186.5-90.923 11.292-92.39 107.44-12.258 130.28 69.344 19.783 14.326 63.97 15.934 93.398 1.616 29.418 60.283 40.09 106.55-37.18z"/><path d="M143.99 236.17c-2.754-4.487 1.457-9.472 5.786-9.093 6.89.607 21.892-.08 33.729-6.821 29.573-16.842 75.084-97.88 52.194-148.99-10.247-22.88-15.237-29.431-25.79-40.623-2.153-2.283-.917-2.159.54-1.386 5.707 3.009 15.736 14.663 26.022 33.632 17.38 32.049 16.478 70.148 10.014 94.048-4.503 16.626-20.011 54.239-42.722 70.5-22.763 16.3-49.398 25.65-59.773 8.734zM123.39 131.01c-15.494-4.62-35.467-11.055-47.02-26.236-8.517-11.193-12.84-23.41-13.944-30.337-.393-2.472-.726-4.534-.018-5.103.328-.264 6.36 13.432 15.377 24.911 9.016 11.482 21.616 18.197 32.113 20.637 9.337 2.168 28.677 6.933 35.22 12.533 6.727 5.757 7.289 18.194 5.025 19.598-2.283 1.411-6.912-10.09-26.753-16.004z"/><path fill="#fff" d="M155.33 238.37c-.299 3.563 3.774 4.261 9.257 3.436 7.027-1.06 12.97-1.854 21.059-5.927 10.963-5.519 22.057-13.414 30.183-24.066 24.243-31.775 32.828-69.37 31.506-74.78-.442 4.467-6.294 27.911-19.68 49.047-17.19 27.15-29.655 41.61-58.404 48.62-8 1.953-13.53-1.02-13.921 3.67zM91.573 114.81c3.274 2.79 9.983 6.508 23.184 10.857 15.944 5.251 23.706 9.806 26.957 11.988 3.445 2.318 5.628 7.489 5.844 2.896.225-4.598-2.596-8.552-8.89-10.65-4.26-1.42-11.424-4.803-18.29-6.164-4.413-.875-11.593-2.612-17.75-4.506-3.374-1.042-6.812-2.867-11.056-4.421z"/><path fill="#bfbfbf" d="M80.866 235.65c20.991-5.542 33.552-27.198 28.057-48.37s-26.966-33.841-47.957-28.299-33.552 27.198-28.057 48.37 26.966 33.841 47.957 28.299"/><path d="M47.527 226.19c30.559 28.561 76.557-10.671 56.302-45.323-2.274-3.89-5.227-6.852-4.256-3.872 6.473 19.925.491 35.687-10.67 43.808-10.942 7.965-25.983 9.297-38.024 3-3.536-1.848-5.003.846-3.351 2.387z"/><path fill="#fff" d="M71.505 232.06c3.89-.825 26.52-6.736 31.836-25.509 1.656-5.853 1.953-4.677 1.485-1.506-2.388 16.187-17.558 28.128-30.467 28.57-2.62.272-6.056-.88-2.854-1.555z"/><path fill="#bfbfbf" d="M23.542 87.712C9.409 89.092-.936 101.754.432 116.009c1.37 14.262 13.924 24.707 28.057 23.327 14.133-1.398 24.487-14.06 23.111-28.316-1.371-14.246-13.922-24.689-28.058-23.309z"/><path d="M11.878 133.24c.157 1.832 2.645 4.186 6.553 5.266 3.358.929 12.014 3.302 23.134-3.777s12.402-26.014 7.348-31.583c-1.565-2.821-3.6-4.875-1.981-.373 4.089 11.368-3.856 22.001-10.71 26.925-6.85 4.923-15.537 2.594-19.085 1.503s-5.418.147-5.26 2.04z"/><path fill="#fff" d="M26.228 135.78c1.02-.925 6.179-.547 10.837-3.074 4.656-2.526 10.19-8.064 11.178-15.933.582-4.62.756-3.46.988-.944-.723 13.082-12.65 20.308-19.472 21.261-1.84.258-5.08.1-3.53-1.31z"/><path fill="#999" d="M230.27 138.07C249.541 82.047 209.215-2.56 127.63 7.62c-73.713 9.192-74.902 87.445-9.938 106.04 73.585 11.235 29.275 67.223 22.989 95.456-5.636 25.309 59.467 29.474 89.584-71.044z"/><path fill="#f3f3f3" d="M179.85 181.83c-19.935-2.488-48.622 42.907-21.573 37.59 27.045-5.312-27.049 5.316 0 0 13.001-1.945 23.771-6.574 33.413-17.674 12.572-14.47 31.352-45.726 36.783-65.922 4.575-17.028 2.276-43.409-2.441-18.622-4.837 25.438-26.248 67.116-46.183 64.628z"/><path fill="#999" d="M45.943 218.14c4.615.078 7.407.734 12.08 4.041 9.238 3.872 26.22 1.419 34.062-8.994s8.1-24.758 5.111-33.427c-7.309-21.216-38.359-20.84-52.23-3.227-15.007 19.67-3.639 41.53.976 41.607zM4.726 119.83c.92 2.922 3.27 7.185 8.234 7.896 6.629.949 7.984 3.97 15.81 2.402 7.827-1.567 13.76-8.036 16.133-15.192 2.718-9.901-1.351-15.014-7.476-19.578s-19.598-4.073-27.638 3.32c-5.714 5.25-7.303 14.039-5.063 21.152z"/><path fill="#f3f3f3" d="M30.756 126.37c6.014-1.588 13.968-9.853 10.019-16.164-4.872-7.775-18.444-1.12-18.903 7.537-.46 8.66 2.51 10.31 8.884 8.627zM75.913 219.66c5.131-1.355 20.851-7.807 17.898-30.856-1.494-11.675-7.808 14.49-19.5 18.404-17.713 5.929-15.723 17.027 1.601 12.452z"/></svg>