<svg clip-rule="evenodd" fill-rule="evenodd" stroke-linejoin="round" stroke-miterlimit="2" version="1.1" viewBox="0 0 490.16 490.16" xmlns="http://www.w3.org/2000/svg"><path d="m490.16 84.61c0-46.698-37.912-84.61-84.61-84.61h-320.94c-46.698 0-84.61 37.912-84.61 84.61v320.94c0 46.698 37.912 84.61 84.61 84.61h320.94c46.698 0 84.61-37.912 84.61-84.61z" fill="#ff3670"/><path d="m407.48 111.18c-71.893-3.077-137.91 41.158-162.4 108.82-24.493-67.662-90.507-111.9-162.4-108.82-2.395 57.049 24.897 111.45 72.06 143.64 24.168 16.599 38.61 44.131 38.53 73.45v50.86h103.63v-50.86c-0.084-29.317 14.355-56.85 38.52-73.45 47.176-32.176 74.472-86.587 72.06-143.64z" fill="#fff" fill-rule="nonzero"/></svg>
