<svg xmlns="http://www.w3.org/2000/svg" fill="none" viewBox="0 0 15.13 10.054"><g clip-path="url(#a)" transform="translate(-.054 -.055)"><path fill="url(#b)" d="M4.402.055h-.015l-.02 1.643h.014c1.082 0 1.92.853 3.744 3.925l.111.187.008.012 1.02-1.532-.007-.012q-.36-.585-.692-1.078-.384-.569-.74-1.024C6.617.64 5.608.055 4.401.055"/><path fill="url(#c)" d="M4.387.055c-1.213.006-2.286.79-3.06 1.99l-.007.011 1.422.774.007-.01c.452-.681 1.015-1.115 1.618-1.122h.014L4.4.055z"/><path fill="url(#d)" d="m1.327 2.047-.007.01C.81 2.85.432 3.822.227 4.871l-.003.013 1.597.377.003-.014c.17-.921.495-1.776.918-2.416l.007-.01z"/><path fill="url(#e)" d="M1.824 5.248.227 4.87l-.003.014a9.3 9.3 0 0 0-.17 1.764l1.638.147v-.014l-.002-.104a8 8 0 0 1 .134-1.43"/><path fill="url(#f)" d="M1.742 7.305a3.4 3.4 0 0 1-.05-.511v-.015L.054 6.633v.015a5.6 5.6 0 0 0 .092 1.038l1.598-.368z"/><path fill="url(#j)" d="M2.115 8.154c-.178-.194-.304-.475-.37-.834q-.002-.007-.003-.013l-1.598.367.002.014c.121.634.358 1.163.697 1.562l.01.011 1.272-1.096z"/><path fill="#0082fb" d="M6.85 3.607c-.964 1.477-1.547 2.404-1.547 2.404-1.283 2.01-1.727 2.461-2.44 2.461a.98.98 0 0 1-.748-.319L.843 9.25l.01.01c.468.547 1.129.85 1.947.85 1.237 0 2.127-.584 3.71-3.35l1.113-1.966a26 26 0 0 0-.774-1.186z"/><path fill="url(#k)" d="m8.566 1.277-.01.01a10 10 0 0 0-.732.89q.356.455.741 1.024c.303-.467.585-.845.862-1.135l.01-.01z"/><path fill="#0082fb" d="M13.241 1.131C12.569.453 11.769.055 10.913.055c-.903 0-1.662.494-2.347 1.221l-.01.01.871.779.01-.01c.451-.47.888-.704 1.372-.704.52 0 1.008.246 1.43.675l.01.01 1.002-.895z"/><path fill="url(#l)" d="M15.182 6.417c-.038-2.178-.8-4.126-1.931-5.276l-.01-.01-1.002.895.01.01c.851.874 1.435 2.5 1.488 4.38v.015h1.445z"/><path fill="url(#o)" d="M15.182 6.433v-.015h-1.445v.014q.004.132.004.266c0 .513-.076.927-.232 1.226l-.007.013 1.077 1.12.008-.011c.39-.604.596-1.442.596-2.458z"/><path fill="url(#p)" d="m13.509 7.922-.007.013c-.135.252-.327.42-.578.494l.49 1.547a2.2 2.2 0 0 0 1.165-.92l.008-.013z"/><path fill="url(#q)" d="M12.611 8.47c-.165 0-.31-.024-.452-.087l-.503 1.584c.283.097.584.14.92.14q.465 0 .852-.135l-.49-1.547a1.1 1.1 0 0 1-.327.046"/><path fill="url(#r)" d="m11.605 7.93-.01-.01-1.156 1.203.01.01c.401.429.785.695 1.22.84l.503-1.583c-.183-.079-.36-.221-.567-.46"/><path fill="url(#s)" d="M11.596 7.919c-.347-.404-.776-1.076-1.451-2.162l-.88-1.468-.008-.012-1.02 1.531.007.013.623 1.049c.605 1.011 1.097 1.743 1.572 2.252l.01.01 1.156-1.203z"/></g><defs><linearGradient id="b" x1="8.586" x2="5.197" y1="5.199" y2=".758" gradientUnits="userSpaceOnUse"><stop offset=".001" stop-color="#0867DF"/><stop offset=".454" stop-color="#0668E1"/><stop offset=".859" stop-color="#0064E0"/></linearGradient><linearGradient id="c" x1="1.988" x2="4.311" y1="2.322" y2=".558" gradientUnits="userSpaceOnUse"><stop offset=".132" stop-color="#0064DF"/><stop offset=".999" stop-color="#0064E0"/></linearGradient><linearGradient id="d" x1="1.003" x2="1.935" y1="4.912" y2="2.565" gradientUnits="userSpaceOnUse"><stop offset=".015" stop-color="#0072EC"/><stop offset=".688" stop-color="#0064DF"/></linearGradient><linearGradient id="e" x1=".876" x2=".984" y1="6.607" y2="5.174" gradientUnits="userSpaceOnUse"><stop offset=".073" stop-color="#007CF6"/><stop offset=".994" stop-color="#0072EC"/></linearGradient><linearGradient id="f" x1=".936" x2=".858" y1="7.383" y2="6.809" gradientUnits="userSpaceOnUse"><stop offset=".073" stop-color="#007FF9"/><stop offset="1" stop-color="#007CF6"/></linearGradient><linearGradient id="j" x1=".89" x2="1.371" y1="7.536" y2="8.556" gradientUnits="userSpaceOnUse"><stop offset=".073" stop-color="#007FF9"/><stop offset="1" stop-color="#0082FB"/></linearGradient><linearGradient id="k" x1="8.279" x2="8.915" y1="2.602" y2="1.723" gradientUnits="userSpaceOnUse"><stop offset=".28" stop-color="#007FF8"/><stop offset=".914" stop-color="#0082FB"/></linearGradient><linearGradient id="l" x1="13.112" x2="14.441" y1="1.461" y2="6.352" gradientUnits="userSpaceOnUse"><stop offset="0" stop-color="#0082FB"/><stop offset="1" stop-color="#0081FA"/></linearGradient><linearGradient id="o" x1="14.762" x2="13.921" y1="6.541" y2="8.241" gradientUnits="userSpaceOnUse"><stop offset=".062" stop-color="#0081FA"/><stop offset="1" stop-color="#0080F9"/></linearGradient><linearGradient id="p" x1="13.252" x2="14.039" y1="9.141" y2="8.605" gradientUnits="userSpaceOnUse"><stop offset="0" stop-color="#027AF3"/><stop offset="1" stop-color="#0080F9"/></linearGradient><linearGradient id="q" x1="12.018" x2="13.111" y1="9.245" y2="9.245" gradientUnits="userSpaceOnUse"><stop offset="0" stop-color="#0377EF"/><stop offset=".999" stop-color="#0279F1"/></linearGradient><linearGradient id="r" x1="11.068" x2="11.854" y1="8.645" y2="9.107" gradientUnits="userSpaceOnUse"><stop offset=".002" stop-color="#0471E9"/><stop offset="1" stop-color="#0377EF"/></linearGradient><linearGradient id="s" x1="8.671" x2="11.188" y1="5.235" y2="8.4" gradientUnits="userSpaceOnUse"><stop offset=".277" stop-color="#0867DF"/><stop offset="1" stop-color="#0471E9"/></linearGradient><clipPath id="a"><path fill="#fff" d="M0 0h50v11H0z"/></clipPath></defs></svg>