<svg xmlns="http://www.w3.org/2000/svg" viewBox="0 0 19 18.2"><g fill="#ff5c16"><path d="m17.756 17.577-4.093-1.21-3.086 1.832H8.424l-3.089-1.833-4.09 1.211L0 13.403l1.245-4.632L0 4.854 1.245 0l6.392 3.795h3.727L17.756 0 19 4.854l-1.244 3.917L19 13.403z"/><path d="m1.245 0 6.392 3.797-.254 2.606zM5.336 13.405l2.812 2.129-2.812.832zM7.923 9.885l-.54-3.48-3.46 2.366H3.92v.001l.01 2.436 1.404-1.323zM17.756 0l-6.392 3.797.253 2.606zM13.665 13.405l-2.812 2.129 2.812.832zM15.079 8.772V8.77zl-3.461-2.366-.54 3.48h2.587l1.404 1.323zM5.335 16.366l-4.09 1.21L0 13.406h5.335z"/><path d="m7.922 9.884.782 5.031-1.083-2.797-3.691-.91 1.404-1.324zM13.665 16.366l4.09 1.21L19 13.406h-5.335zM11.077 9.884l-.781 5.031 1.083-2.797 3.69-.91-1.404-1.324z"/></g><g fill="#ff8d5d"><path d="m0 13.403 1.244-4.632h2.677l.01 2.437 3.69.91 1.083 2.797-.556.616-2.813-2.129zM19 13.403l-1.244-4.632H15.08l-.01 2.437-3.691.91-1.083 2.797.556.616 2.813-2.129zM11.364 3.795H7.637L7.384 6.4l1.321 8.511h1.591l1.322-8.511z"/></g><g fill="#661800"><path d="M1.244 0 0 4.854l1.244 3.917h2.677l3.461-2.368zM7.045 10.634H5.572l-.802.781 2.85.702-.575-1.484zM17.755 0l1.244 4.854-1.244 3.917h-2.676l-3.462-2.368zM11.951 10.634h1.474l.801.781-2.85.703.575-1.485zM10.576 16.539l.277-1.006-.557-.616H8.704l-.557.616.277 1.006"/></g><g fill="#e7ebf6"><path d="M10.576 16.539V18.2H8.424V16.54z"/><path d="m5.336 16.364 3.089 1.835v-1.661l-.277-1.007zM13.664 16.364l-3.09 1.835v-1.661l.277-1.007z"/></g></svg>