<svg xmlns="http://www.w3.org/2000/svg" viewBox="0 0 299.29 201.25"><path fill="#146ee6" d="M298.64 88.446c-.634-5.973-1.74-11.758-3.314-17.333a96 96 0 0 0-6.118-16.08c-5.428-11.131-12.883-20.91-22.197-29.13a99 99 0 0 0-4.105-3.429c-7.912-6.246-16.944-11.327-26.581-15.066a110 110 0 0 0-12.682-4.057c-8.624-2.192-17.53-3.343-26.397-3.343-8.25 0-16.814.767-25.674 2.296q-3.324.575-6.701 1.29-6.756 1.432-13.728 3.435c-11.62 3.338-23.683 7.86-36.16 13.555-9.98 4.557-20.224 9.866-30.716 15.92-20.307 11.719-36.625 23.46-45.13 29.89q-.578.436-1.11.843a232 232 0 0 0-5.28 4.127L.726 97.424a1.98 1.98 0 0 0-.732 1.506 1.98 1.98 0 0 0 .677 1.529l15.004 13.138a1.98 1.98 0 0 0 2.553.054l13.186-10.617 16.377-13.185c.257-.211 2.355-1.911 5.968-4.64 5.058-3.822 13.089-9.661 23.205-16.256a418 418 0 0 1 19.215-11.809c38.297-22.1 72.3-33.304 101.067-33.304.564 0 1.13.024 1.693.036.59.013 1.178.013 1.767.037 4.308.185 8.609.71 12.842 1.556a85 85 0 0 1 18.377 5.902c5.833 2.643 11.306 5.935 16.212 9.81a71 71 0 0 1 2.564 2.138 73 73 0 0 1 3.408 3.128 70 70 0 0 1 5.275 5.82 69.37 69.37 0 0 1 8.402 13.212c.35.715.658 1.454.984 2.185.858 1.921 1.662 3.873 2.355 5.885a75 75 0 0 1 1.315 4.225c1.995 7.141 3 14.788 3 22.856 0 7.669-.93 14.945-2.732 21.78-1.232 4.671-2.859 9.144-4.921 13.372a71 71 0 0 1-1.827 3.493 69 69 0 0 1-9.125 12.696 71.4 71.4 0 0 1-8.697 8.11 75 75 0 0 1-6.54 4.594 78 78 0 0 1-3.65 2.164 82 82 0 0 1-4.096 2.148c-11.25 5.447-23.966 8.434-36.606 8.434-28.767 0-62.77-11.205-101.067-33.306-2.137-1.233-4.937-2.93-7.778-4.678a1144.624 1144.624 0 0 1-12.692-7.953 256.4 256.4 0 0 1 29.145-23.416 237 237 0 0 1 5.613-3.738 227 227 0 0 1 5.088-3.211 221 221 0 0 1 13.089-7.372c19.977-10.342 43.47-18.273 68.602-18.273 5.076 0 13.069 1.632 18.894 6.232q.374.295.75.62c.88.752 1.773 1.635 2.61 2.72.43.557.847 1.168 1.24 1.843.59 1.009 1.127 2.16 1.581 3.482.188.548.355 1.138.512 1.745.603 2.334.972 5.12.972 8.514 0 4.11-.537 7.34-1.385 9.934a20 20 0 0 1-1.11 2.75q-.274.554-.57 1.058c-.25.43-.515.827-.783 1.208a17 17 0 0 1-2.12 2.487 22 22 0 0 1-1.697 1.487c-5.825 4.6-13.818 6.234-18.894 6.234-4.61 0-9.681-.55-15.138-1.623-3.639-.715-7.448-1.665-11.408-2.844-5.939-1.767-12.213-4.046-18.75-6.82a2 2 0 0 0-1.676.054c-7.63 3.871-14.762 8.11-21.289 12.414a2 2 0 0 0-.421.37c-.824.958-.551 2.527.692 3.095l7.327 3.341a251 251 0 0 0 8.52 3.699 218 218 0 0 0 8.267 3.21 181 181 0 0 0 11.906 3.9c5.159 1.487 10.136 2.648 14.922 3.478 5.986 1.036 11.673 1.557 17.048 1.557a49.068 49.068 0 0 0 3.641-.147c6.717-.504 19.174-2.65 30.02-11.213.477-.374.906-.782 1.36-1.172 1.486-1.27 2.895-2.594 4.165-4.017.182-.203.342-.419.521-.625 4.768-5.55 7.966-12.195 9.534-19.898.76-3.73 1.15-7.7 1.15-11.917 0-16.204-5.628-28.865-16.73-37.627-8.186-6.466-17.281-9.266-24.141-10.47a61 61 0 0 0-4.365-.61 52 52 0 0 0-5.155-.28c-19.316 0-39.231 3.934-59.196 11.697a208 208 0 0 0-17.7 7.87 223 223 0 0 0-5.887 3.058 240 240 0 0 0-9.355 5.334 255 255 0 0 0-5.773 3.559 257 257 0 0 0-8.237 5.426 278 278 0 0 0-16.32 12.175 287 287 0 0 0-4.669 3.838 267 267 0 0 0-14.437 13.039c-4.609 4.49-7.201 7.386-7.462 7.68l-.447.502-5.06 5.663-1.853 2.071a1.989 1.989 0 0 0 .327 2.94l8.523 6.094.274.193.274.192a446 446 0 0 0 8.783 6.04 450 450 0 0 0 6.272 4.134 445 445 0 0 0 10.227 6.41 456 456 0 0 0 4.75 2.85c1.33.787 2.658 1.581 3.987 2.348 18.36 10.596 35.964 18.906 52.72 24.903q3.592 1.284 7.131 2.427a216 216 0 0 0 13.942 4.005q6.866 1.717 13.512 2.865c8.86 1.53 17.424 2.297 25.674 2.297 8.866 0 17.773-1.151 26.397-3.345 8.623-2.19 16.965-5.424 24.698-9.587a100 100 0 0 0 14.565-9.535 95.6 95.6 0 0 0 11.629-10.85 92.7 92.7 0 0 0 14.673-21.709c5.046-10.348 8.209-21.638 9.455-33.68.403-3.896.61-7.868.61-11.917 0-4.14-.212-8.204-.634-12.184"/></svg>