<svg xmlns="http://www.w3.org/2000/svg" viewBox="0 0 42.286 24"><defs><linearGradient id="a" x2=".94" y1=".383" y2=".624"><stop offset="0" stop-color="#8FF4FF"/><stop offset=".518" stop-color="#73B3FF"/><stop offset="1" stop-color="#5F81FF"/></linearGradient><linearGradient id="c" x1="25.966" x2="26.911" y1="3.879" y2="10.871" gradientTransform="scale(.5716 1.7495)" gradientUnits="userSpaceOnUse"><stop offset="0" stop-color="#5ABFE2"/><stop offset="1" stop-color="#56B0E4"/></linearGradient><linearGradient id="d" x1="47.156" x2="47.156" y1="2.311" y2="10.635" gradientTransform="scale(.52807 1.8937)" gradientUnits="userSpaceOnUse"><stop offset="0" stop-color="#56A8E6"/><stop offset="1" stop-color="#509AE6"/></linearGradient><linearGradient id="b" x2="29.948" y1="12.192" y2="19.892" gradientTransform="scale(1.3274 .75337)" gradientUnits="userSpaceOnUse" href="#a"/></defs><g fill="none" fill-rule="evenodd"><path fill="url(#b)" d="M39.948 0c-1.5 0-2.516.834-2.516 2.112 0 1.07.864 1.63 1.601 1.93.636.26 1.22.417 1.22.756 0 .261-.178.391-.635.391-.445 0-.966-.208-1.55-.652l-.966 1.383c.66.547 1.652.912 2.465.912 1.779 0 2.72-.938 2.72-2.164 0-1.174-.865-1.67-1.627-1.956-.636-.235-1.195-.365-1.195-.704 0-.26.19-.365.56-.365.393 0 .838.208 1.295.547l.966-1.33C41.727.43 40.99 0 39.948 0M25.71 4.377h-3.632L17.643 15.94 13.208 4.377H9.576L8.187 20.14h3.632l.764-8.666 3.555 8.39-.003.007h3.015l-.002-.006 3.556-8.394.764 8.669H27.1zM0 1.887V24h6.014v-2.477H2.41V4.349h3.604V1.887zm29.272 0V4.35h3.604v17.174h-3.604V24h6.014V1.887z"/><path fill="url(#c)" d="m17.643 15.94-1.505 3.924-3.556-8.39.625-7.097z"/><path fill="url(#d)" d="M27.1 20.14h-3.632l-.764-8.669 3.007-7.094z"/></g></svg>