<svg xmlns="http://www.w3.org/2000/svg" viewBox="0 0 131.85 131.85"><path fill="#999" d="m0 51.616 23-23.002 23.002 23.002L23 74.617zm0 57.227 23-23.001 23.002 23.001L23 131.845z"/><path fill="#4d4d4d" d="m28.614 80.23 23.001-23.002 23.001 23.001-23.001 23.002zm0-57.228L51.615 0l23.001 23.002-23.001 23.001z"/><path fill="#999" d="M57.227 51.616 80.23 28.614l23.001 23.002L80.23 74.617z"/><path fill="#4d4d4d" d="M85.841 23.002 108.843 0l23.001 23.002-23.001 23.001z"/><path fill="#999" d="m57.23 108.846 23.002-23.002 23.001 23.002-23.001 23.001z"/><path fill="#4d4d4d" d="m85.844 80.232 23.001-23.001 23.002 23.001-23.002 23.002z"/></svg>