<svg xmlns="http://www.w3.org/2000/svg" xmlns:xlink="http://www.w3.org/1999/xlink" viewBox="0 0 701.06 682.67"><defs><path id="a" d="M701.06 1.593H0V684.26h701.06z"/></defs><g fill="none" fill-rule="evenodd"><g transform="translate(0 -1.592)"><mask id="b" fill="#fff"><use xlink:href="#a"/></mask><path fill="#326de6" d="M351.21 1.59c-9.517 0-19.039 2.27-28.105 6.346l-229.37 109.7c-18.135 8.61-30.825 24.476-35.358 43.967L1.712 407.743c-4.533 19.49 0 39.439 12.694 55.305l158.65 197.18c12.242 15.415 30.825 24.024 50.316 24.024h254.31c19.491 0 38.074-8.61 50.316-24.024l158.65-197.18c12.694-15.415 17.227-35.814 12.694-55.305l-56.665-246.14c-4.533-19.491-17.223-35.358-35.358-43.967l-228.46-109.7c-8.613-4.077-18.135-6.345-27.653-6.345m0 21.303a44.35 44.35 0 0 1 18.587 4.08l229.37 109.25c11.786 5.894 20.851 16.776 23.572 29.466l56.661 246.14c3.173 13.146 0 26.744-8.613 37.17l-158.65 197.19c-8.162 10.425-20.851 16.318-33.998 16.318h-254.3c-13.146 0-25.84-5.893-33.998-16.319L31.177 449c-8.158-10.426-11.33-24.024-8.614-37.17l56.665-246.14c3.173-13.146 11.786-24.024 23.572-29.465l229.37-109.7c5.893-2.268 12.694-3.628 19.04-3.628" mask="url(#b)"/></g><path fill="#1fbfcf" d="M218.5 603.353c8.132 10.21 20.329 15.846 33.06 15.846l199.57-.353c12.736 0 24.804-5.988 32.936-15.846l121.66-153.17c3.513-4.781 3.123-14.158 3.123-22.058v-213.89l-261.39 150.5v-.004l-261.14-150.36v213.75c0 8.03 2.836 15.858 8.053 22.411z"/><path fill="#c9e9ec" d="M347.21 63.473 86.315 214.013l261.145 150.37 261.38-150.5z"/><path fill="#326de6" d="M409.81 480.653c-7.494 4.769-17.716 3.409-23.85-4.09-2.045-2.044-2.725-4.768-3.405-7.493L376.422 358c47.015 5.454 89.946 26.574 122.65 59.282zm-92.67-14.312c-.684 9.542-8.178 17.72-18.4 17.72-2.725 0-6.13-.684-8.174-2.045l-90.63-64.736c27.94-27.939 62.691-47.015 101.53-55.873 7.494-1.364 14.307-2.728 21.805-4.089zm254.85-45.651 6.814-6.134v-1.364c0-3.405.68-6.814 3.408-10.218 8.174-7.498 18.396-13.631 30.66-21.125 2.044-1.364 4.089-2.044 6.133-3.409 4.089-2.04 7.498-4.085 11.587-6.813.68-.68 2.04-1.36 3.405-2.725.68-.68 1.364-.68 1.364-1.364 9.538-8.174 11.583-21.801 4.77-30.66-3.41-4.773-9.539-7.497-15.673-7.497-5.453 0-10.222 2.044-14.992 5.453l-1.364 1.36c-1.36.684-2.045 2.045-3.405 2.725-3.409 3.409-6.133 6.133-8.858 9.542-1.364 1.36-2.725 3.405-4.77 4.77-9.541 10.221-18.4 18.395-27.258 24.53q-3.068 2.045-6.134 2.044c-1.36 0-2.724 0-4.089-.68h-1.36l-8.178 5.449c-8.858-9.538-18.396-17.716-27.939-25.894-40.882-32.024-90.626-51.784-142.41-56.553l-.684-8.858-1.36-1.365c-2.045-2.044-4.774-4.089-5.454-8.858-.68-10.903.68-23.17 2.045-36.797v-.68c0-2.044.68-4.769 1.364-6.813.68-4.09 1.36-8.178 2.045-12.947v-6.134c0-12.263-9.543-22.485-21.125-22.485-5.45 0-10.903 2.725-14.992 6.814s-6.134 9.538-6.134 15.672v5.453c0 4.77.684 8.858 2.045 12.943.684 2.045.684 4.09 1.364 6.818v.68c1.365 13.627 3.405 25.894 2.045 36.797-.68 4.77-3.41 6.814-5.454 8.858l-1.36 1.36-.684 8.858c-12.263 1.365-24.53 2.73-36.793 5.454-52.47 11.583-98.804 38.157-134.92 76.318l-6.814-4.773h-1.364c-1.36 0-2.725.684-4.085.684q-3.067-.002-6.134-2.045c-8.858-6.133-17.716-14.992-27.259-25.214-1.36-1.36-2.724-3.404-4.769-4.769-2.724-3.405-5.449-6.133-8.858-9.538-.68-.68-2.044-1.364-3.404-2.725-.685-.684-1.365-.684-1.365-1.364-4.089-3.409-9.538-5.453-14.992-5.453-6.133 0-12.263 2.728-15.672 7.497-6.813 8.859-4.769 22.485 4.77 30.663.684 0 .684.68 1.364.68 1.36.68 2.044 2.045 3.404 2.725 4.09 2.729 7.498 4.773 11.587 6.818 2.045.68 4.09 2.04 6.13 3.405 12.267 7.498 22.489 13.627 30.663 21.125 3.409 3.404 3.409 6.813 3.409 10.218v1.364l6.813 6.134c-1.364 2.044-2.724 3.404-3.404 5.449-7.992 12.628-14.776 25.795-20.437 39.339l38.846 47.932c5.254-18.55 12.947-36.47 23.153-53.198l81.087 72.229c7.497 6.13 8.178 17.716 2.044 25.21-2.044 2.724-4.769 4.769-8.174 5.453l-46.824 13.594 23.265 28.702c8.133 10.214 20.325 15.846 33.06 15.846l199.57-.352c12.731 0 24.8-5.985 32.936-15.846l21.843-27.503-47.845-13.76c-9.538-2.725-14.992-12.267-12.947-21.805.68-2.725 2.045-5.45 4.09-7.494l82.451-74.274c10.036 16.534 18.02 35.121 23.518 55.305l39.621-49.881a283.6 283.6 0 0 0-22.937-42.901z"/></g></svg>