<svg xmlns="http://www.w3.org/2000/svg" xmlns:xlink="http://www.w3.org/1999/xlink" version="1.0" viewBox="0 0 112 103.6"><defs><linearGradient id="b" x1="12.364" x2="13.516" y1="104.18" y2="105.67" gradientTransform="translate(92 -19)" gradientUnits="userSpaceOnUse"><stop offset="0" stop-color="#131313"/><stop offset="1" stop-color="#4e4e4e"/></linearGradient><linearGradient id="o" x1="55.953" x2="55.953" y1="81" y2="80" gradientTransform="matrix(1.0879 0 0 1 -4.636 7.921)" gradientUnits="userSpaceOnUse"><stop offset="0" stop-color="#fff"/><stop offset="1" stop-color="#eee"/></linearGradient><linearGradient id="a" x1="24" x2="24" y1="40" y2="20" gradientUnits="userSpaceOnUse"><stop offset=".5" stop-color="#fff"/><stop offset="1" stop-color="#eeeeec"/></linearGradient><linearGradient id="f" x1="9" x2="106.56" y1="24.324" y2="53.655" gradientTransform="matrix(1.0851 0 0 1.1143 -4.766 -1.108)" gradientUnits="userSpaceOnUse"><stop offset="0" stop-color="#555753"/><stop offset=".627" stop-color="#2e2e2e"/><stop offset="1" stop-color="#2e2e2e"/></linearGradient><linearGradient id="e" x1="56.001" x2="56.001" y1="81" y2="7" gradientTransform="matrix(1.0816 0 0 1.0135 -4.571 -.174)" gradientUnits="userSpaceOnUse"><stop offset="0" stop-color="#bbb"/><stop offset=".589" stop-color="#9f9f9f"/><stop offset="1" stop-color="#888"/></linearGradient><linearGradient xlink:href="#a" id="j" x1="24" x2="24" y1="40" y2="20" gradientTransform="translate(-4 7.921)" gradientUnits="userSpaceOnUse"/><linearGradient id="k" x1="44" x2="44" y1="44" y2="40" gradientTransform="translate(-4 7.921)" gradientUnits="userSpaceOnUse"><stop offset=".5" stop-color="#fff"/><stop offset="1" stop-color="#eeeeec"/></linearGradient><linearGradient id="c" x1="8" x2="120" y1="40.665" y2="64" gradientTransform="matrix(1 0 0 1.0792 -8 -17.267)" gradientUnits="userSpaceOnUse"><stop offset="0" stop-color="#c6c6c6"/><stop offset=".521" stop-color="#eee"/><stop offset="1" stop-color="#c6c6c6"/></linearGradient><linearGradient xlink:href="#b" id="bl" x1="11.364" x2="12.517" y1="107.18" y2="108.67" gradientTransform="translate(-4 -19)" gradientUnits="userSpaceOnUse"/><linearGradient xlink:href="#b" id="bk" x1="14.364" x2="15.517" y1="110.18" y2="111.67" gradientTransform="translate(-4 -19)" gradientUnits="userSpaceOnUse"/><linearGradient xlink:href="#b" id="bj" x1="15.364" x2="16.517" y1="107.18" y2="108.67" gradientTransform="translate(-4 -19)" gradientUnits="userSpaceOnUse"/><linearGradient xlink:href="#b" id="bi" x1="12.365" x2="13.517" y1="104.18" y2="105.67" gradientTransform="translate(-4 -19)" gradientUnits="userSpaceOnUse"/><linearGradient xlink:href="#b" id="bh" x1="10.364" x2="11.517" y1="110.18" y2="111.67" gradientTransform="translate(4 -19)" gradientUnits="userSpaceOnUse"/><linearGradient xlink:href="#b" id="bg" x1="11.364" x2="12.517" y1="107.18" y2="108.67" gradientTransform="translate(4 -19)" gradientUnits="userSpaceOnUse"/><linearGradient xlink:href="#b" id="bf" x1="14.364" x2="15.517" y1="110.18" y2="111.67" gradientTransform="translate(4 -19)" gradientUnits="userSpaceOnUse"/><linearGradient xlink:href="#b" id="be" x1="8.364" x2="9.517" y1="104.18" y2="105.67" gradientTransform="translate(4 -19)" gradientUnits="userSpaceOnUse"/><linearGradient xlink:href="#b" id="bd" x1="15.364" x2="16.517" y1="107.18" y2="108.67" gradientTransform="translate(4 -19)" gradientUnits="userSpaceOnUse"/><linearGradient xlink:href="#b" id="bc" x1="12.364" x2="13.517" y1="104.18" y2="105.67" gradientTransform="translate(4 -19)" gradientUnits="userSpaceOnUse"/><linearGradient xlink:href="#b" id="bb" x1="10.364" x2="11.517" y1="110.18" y2="111.67" gradientTransform="translate(12 -19)" gradientUnits="userSpaceOnUse"/><linearGradient xlink:href="#b" id="ba" x1="11.364" x2="12.517" y1="107.18" y2="108.67" gradientTransform="translate(12 -19)" gradientUnits="userSpaceOnUse"/><linearGradient xlink:href="#b" id="aZ" x1="14.364" x2="15.517" y1="110.18" y2="111.67" gradientTransform="translate(12 -19)" gradientUnits="userSpaceOnUse"/><linearGradient xlink:href="#b" id="aY" x1="8.364" x2="9.517" y1="104.18" y2="105.67" gradientTransform="translate(12 -19)" gradientUnits="userSpaceOnUse"/><linearGradient xlink:href="#b" id="aX" x1="15.364" x2="16.517" y1="107.18" y2="108.67" gradientTransform="translate(12 -19)" gradientUnits="userSpaceOnUse"/><linearGradient xlink:href="#b" id="aW" x1="12.364" x2="13.517" y1="104.18" y2="105.67" gradientTransform="translate(12 -19)" gradientUnits="userSpaceOnUse"/><linearGradient xlink:href="#b" id="aV" x1="10.364" x2="11.517" y1="110.18" y2="111.67" gradientTransform="translate(20 -19)" gradientUnits="userSpaceOnUse"/><linearGradient xlink:href="#b" id="aU" x1="11.364" x2="12.517" y1="107.18" y2="108.67" gradientTransform="translate(20 -19)" gradientUnits="userSpaceOnUse"/><linearGradient xlink:href="#b" id="aT" x1="14.364" x2="15.517" y1="110.18" y2="111.67" gradientTransform="translate(20 -19)" gradientUnits="userSpaceOnUse"/><linearGradient xlink:href="#b" id="aS" x1="8.364" x2="9.516" y1="104.18" y2="105.67" gradientTransform="translate(20 -19)" gradientUnits="userSpaceOnUse"/><linearGradient xlink:href="#b" id="aR" x1="15.364" x2="16.517" y1="107.18" y2="108.67" gradientTransform="translate(20 -19)" gradientUnits="userSpaceOnUse"/><linearGradient xlink:href="#b" id="aQ" x1="12.364" x2="13.517" y1="104.18" y2="105.67" gradientTransform="translate(20 -19)" gradientUnits="userSpaceOnUse"/><linearGradient xlink:href="#b" id="aP" x1="10.364" x2="11.517" y1="110.18" y2="111.67" gradientTransform="translate(28 -19)" gradientUnits="userSpaceOnUse"/><linearGradient xlink:href="#b" id="aO" x1="11.364" x2="12.517" y1="107.18" y2="108.67" gradientTransform="translate(28 -19)" gradientUnits="userSpaceOnUse"/><linearGradient xlink:href="#b" id="aN" x1="14.364" x2="15.517" y1="110.18" y2="111.67" gradientTransform="translate(28 -19)" gradientUnits="userSpaceOnUse"/><linearGradient xlink:href="#b" id="aM" x1="8.364" x2="9.516" y1="104.18" y2="105.67" gradientTransform="translate(28 -19)" gradientUnits="userSpaceOnUse"/><linearGradient xlink:href="#b" id="aL" x1="15.364" x2="16.517" y1="107.18" y2="108.67" gradientTransform="translate(28 -19)" gradientUnits="userSpaceOnUse"/><linearGradient xlink:href="#b" id="aK" x1="12.364" x2="13.516" y1="104.18" y2="105.67" gradientTransform="translate(28 -19)" gradientUnits="userSpaceOnUse"/><linearGradient xlink:href="#b" id="aJ" x1="10.364" x2="11.517" y1="110.18" y2="111.67" gradientTransform="translate(36 -19)" gradientUnits="userSpaceOnUse"/><linearGradient xlink:href="#b" id="aI" x1="11.364" x2="12.517" y1="107.18" y2="108.67" gradientTransform="translate(36 -19)" gradientUnits="userSpaceOnUse"/><linearGradient xlink:href="#b" id="aH" x1="14.364" x2="15.517" y1="110.18" y2="111.67" gradientTransform="translate(36 -19)" gradientUnits="userSpaceOnUse"/><linearGradient xlink:href="#b" id="aG" x1="8.364" x2="9.516" y1="104.18" y2="105.67" gradientTransform="translate(36 -19)" gradientUnits="userSpaceOnUse"/><linearGradient xlink:href="#b" id="aF" x1="15.364" x2="16.517" y1="107.18" y2="108.67" gradientTransform="translate(36 -19)" gradientUnits="userSpaceOnUse"/><linearGradient xlink:href="#b" id="aE" x1="12.364" x2="13.516" y1="104.18" y2="105.67" gradientTransform="translate(36 -19)" gradientUnits="userSpaceOnUse"/><linearGradient xlink:href="#b" id="aD" x1="10.364" x2="11.517" y1="110.18" y2="111.67" gradientTransform="translate(44 -19)" gradientUnits="userSpaceOnUse"/><linearGradient xlink:href="#b" id="aa" x1="11.364" x2="12.516" y1="107.18" y2="108.67" gradientTransform="translate(44 -19)" gradientUnits="userSpaceOnUse"/><linearGradient xlink:href="#b" id="Z" x1="14.364" x2="15.517" y1="110.18" y2="111.67" gradientTransform="translate(44 -19)" gradientUnits="userSpaceOnUse"/><linearGradient xlink:href="#b" id="Y" x1="8.364" x2="9.516" y1="104.18" y2="105.67" gradientTransform="translate(44 -19)" gradientUnits="userSpaceOnUse"/><linearGradient xlink:href="#b" id="X" x1="15.364" x2="16.517" y1="107.18" y2="108.67" gradientTransform="translate(44 -19)" gradientUnits="userSpaceOnUse"/><linearGradient xlink:href="#b" id="W" x1="12.364" x2="13.516" y1="104.18" y2="105.67" gradientTransform="translate(44 -19)" gradientUnits="userSpaceOnUse"/><linearGradient xlink:href="#b" id="V" x1="10.363" x2="11.516" y1="110.18" y2="111.67" gradientTransform="translate(52 -19)" gradientUnits="userSpaceOnUse"/><linearGradient xlink:href="#b" id="U" x1="11.364" x2="12.516" y1="107.18" y2="108.67" gradientTransform="translate(52 -19)" gradientUnits="userSpaceOnUse"/><linearGradient xlink:href="#b" id="T" x1="14.364" x2="15.517" y1="110.18" y2="111.67" gradientTransform="translate(52 -19)" gradientUnits="userSpaceOnUse"/><linearGradient xlink:href="#b" id="S" x1="8.364" x2="9.516" y1="104.18" y2="105.67" gradientTransform="translate(52 -19)" gradientUnits="userSpaceOnUse"/><linearGradient xlink:href="#b" id="R" x1="15.364" x2="16.517" y1="107.18" y2="108.67" gradientTransform="translate(52 -19)" gradientUnits="userSpaceOnUse"/><linearGradient xlink:href="#b" id="Q" x1="12.364" x2="13.516" y1="104.18" y2="105.67" gradientTransform="translate(52 -19)" gradientUnits="userSpaceOnUse"/><linearGradient xlink:href="#b" id="P" x1="10.365" x2="11.517" y1="110.18" y2="111.67" gradientTransform="translate(60 -19)" gradientUnits="userSpaceOnUse"/><linearGradient xlink:href="#b" id="O" x1="11.364" x2="12.517" y1="107.18" y2="108.67" gradientTransform="translate(60 -19)" gradientUnits="userSpaceOnUse"/><linearGradient xlink:href="#b" id="N" x1="14.364" x2="15.517" y1="110.18" y2="111.67" gradientTransform="translate(60 -19)" gradientUnits="userSpaceOnUse"/><linearGradient xlink:href="#b" id="M" x1="8.364" x2="9.517" y1="104.18" y2="105.67" gradientTransform="translate(60 -19)" gradientUnits="userSpaceOnUse"/><linearGradient xlink:href="#b" id="L" x1="15.364" x2="16.517" y1="107.18" y2="108.67" gradientTransform="translate(60 -19)" gradientUnits="userSpaceOnUse"/><linearGradient xlink:href="#b" id="K" x1="12.364" x2="13.517" y1="104.18" y2="105.67" gradientTransform="translate(60 -19)" gradientUnits="userSpaceOnUse"/><linearGradient xlink:href="#b" id="J" x1="10.364" x2="11.517" y1="110.18" y2="111.67" gradientTransform="translate(68 -19)" gradientUnits="userSpaceOnUse"/><linearGradient xlink:href="#b" id="I" x1="11.364" x2="12.517" y1="107.18" y2="108.67" gradientTransform="translate(68 -19)" gradientUnits="userSpaceOnUse"/><linearGradient xlink:href="#b" id="H" x1="14.364" x2="15.517" y1="110.18" y2="111.67" gradientTransform="translate(68 -19)" gradientUnits="userSpaceOnUse"/><linearGradient xlink:href="#b" id="G" x1="8.364" x2="9.517" y1="104.18" y2="105.67" gradientTransform="translate(68 -19)" gradientUnits="userSpaceOnUse"/><linearGradient xlink:href="#b" id="F" x1="15.364" x2="16.517" y1="107.18" y2="108.67" gradientTransform="translate(68 -19)" gradientUnits="userSpaceOnUse"/><linearGradient xlink:href="#b" id="E" x1="12.364" x2="13.517" y1="104.18" y2="105.67" gradientTransform="translate(68 -19)" gradientUnits="userSpaceOnUse"/><linearGradient xlink:href="#b" id="D" x1="10.364" x2="11.517" y1="110.18" y2="111.67" gradientTransform="translate(76 -19)" gradientUnits="userSpaceOnUse"/><linearGradient xlink:href="#b" id="C" x1="11.364" x2="12.517" y1="107.18" y2="108.67" gradientTransform="translate(76 -19)" gradientUnits="userSpaceOnUse"/><linearGradient xlink:href="#b" id="B" x1="14.364" x2="15.517" y1="110.18" y2="111.67" gradientTransform="translate(76 -19)" gradientUnits="userSpaceOnUse"/><linearGradient xlink:href="#b" id="A" x1="8.364" x2="9.517" y1="104.18" y2="105.67" gradientTransform="translate(76 -19)" gradientUnits="userSpaceOnUse"/><linearGradient xlink:href="#b" id="z" x1="15.364" x2="16.517" y1="107.18" y2="108.67" gradientTransform="translate(76 -19)" gradientUnits="userSpaceOnUse"/><linearGradient xlink:href="#b" id="y" x1="12.364" x2="13.517" y1="104.18" y2="105.67" gradientTransform="translate(76 -19)" gradientUnits="userSpaceOnUse"/><linearGradient xlink:href="#b" id="x" x1="10.364" x2="11.517" y1="110.18" y2="111.67" gradientTransform="translate(84 -19)" gradientUnits="userSpaceOnUse"/><linearGradient xlink:href="#b" id="w" x1="11.364" x2="12.517" y1="107.18" y2="108.67" gradientTransform="translate(84 -19)" gradientUnits="userSpaceOnUse"/><linearGradient xlink:href="#b" id="v" x1="14.364" x2="15.517" y1="110.18" y2="111.67" gradientTransform="translate(84 -19)" gradientUnits="userSpaceOnUse"/><linearGradient xlink:href="#b" id="u" x1="8.364" x2="9.517" y1="104.18" y2="105.67" gradientTransform="translate(84 -19)" gradientUnits="userSpaceOnUse"/><linearGradient xlink:href="#b" id="t" x1="15.364" x2="16.517" y1="107.18" y2="108.67" gradientTransform="translate(84 -19)" gradientUnits="userSpaceOnUse"/><linearGradient xlink:href="#b" id="s" x1="12.364" x2="13.517" y1="104.18" y2="105.67" gradientTransform="translate(84 -19)" gradientUnits="userSpaceOnUse"/><linearGradient xlink:href="#b" id="r" x1="10.364" x2="11.517" y1="110.18" y2="111.67" gradientTransform="translate(92 -19)" gradientUnits="userSpaceOnUse"/><linearGradient xlink:href="#b" id="q" x1="11.364" x2="12.517" y1="107.18" y2="108.67" gradientTransform="translate(92 -19)" gradientUnits="userSpaceOnUse"/><linearGradient xlink:href="#b" id="p" x1="8.364" x2="9.516" y1="104.18" y2="105.67" gradientTransform="translate(92 -19)" gradientUnits="userSpaceOnUse"/><linearGradient id="bm" x1="64" x2="64" y1="17.359" y2="65.874" gradientTransform="matrix(1 0 0 1.0792 -8 -17.267)" gradientUnits="userSpaceOnUse"><stop offset="0" stop-color="#fff"/><stop offset="1" stop-color="#fff" stop-opacity="0"/></linearGradient><filter id="l" width="1.12" height="1.48" x="-.06" y="-.24"><feGaussianBlur stdDeviation=".4"/></filter><filter id="m" width="1.216" height="1.173" x="-.108" y="-.086"><feGaussianBlur stdDeviation=".72"/></filter></defs><path fill="url(#c)" d="M3 .001c-1.65 0-3 1.456-3 3.237v97.129c0 1.78 1.35 3.237 3 3.237h106c1.65 0 3-1.457 3-3.237V3.237C112 1.457 110.65 0 109 0z"/><path fill="url(#e)" d="M4.082 6.921C3.485 6.921 3 7.375 3 7.935v72.972c0 .561.485 1.014 1.082 1.014h103.84c.599 0 1.082-.453 1.082-1.014V7.935c0-.56-.483-1.014-1.082-1.014z"/><path d="M4 7.921h104v80H4z"/><path fill="url(#f)" d="M107 83.578c0 1.839-1.465 3.343-3.255 3.343H8.255C6.466 86.92 5 85.417 5 83.578V12.263C5 10.424 6.465 8.92 8.256 8.92h95.489c1.79 0 3.255 1.504 3.255 3.343z"/><path fill="#fff" d="M5 44.921C46.905 22.555 87.224 17.36 107 16.223V8.921H5z" opacity=".05"/><path fill="url(#j)" d="m28 39.921-16 8v-4.288l10.667-5.712L12 32.209v-4.288l16 8.296z" opacity=".9"/><path fill="url(#k)" d="M48 51.921H32v-4h16z" opacity=".9"/><path fill="#fff" d="M60 60H44v-4h16z" filter="url(#l)" opacity=".2" transform="matrix(1.125 0 0 1.5 -18.5 -37.079)"/><path fill="url(#j)" d="m28 39.921-16 8v-4.288l10.667-5.712L12 32.209v-4.288l16 8.296z" filter="url(#m)" opacity=".4"/><path fill="url(#o)" d="m109.24 88.653-.584-.732H3.926l-.688.621c.183.208.446.344.754.364l104.52.015c.282 0 .534-.105.728-.268"/><g transform="translate(0 6.921)"><circle cx="101" cy="86" r="1" fill="url(#p)"/><circle cx="104" cy="89" r="1" fill="url(#q)"/><circle cx="103" cy="92" r="1" fill="url(#r)"/><circle cx="97" cy="86" r="1" fill="url(#s)"/><circle cx="100" cy="89" r="1" fill="url(#t)"/><circle cx="93" cy="86" r="1" fill="url(#u)"/><circle cx="99" cy="92" r="1" fill="url(#v)"/><circle cx="96" cy="89" r="1" fill="url(#w)"/><circle cx="95" cy="92" r="1" fill="url(#x)"/><circle cx="89" cy="86" r="1" fill="url(#y)"/><circle cx="92" cy="89" r="1" fill="url(#z)"/><circle cx="85" cy="86" r="1" fill="url(#A)"/><circle cx="91" cy="92" r="1" fill="url(#B)"/><circle cx="88" cy="89" r="1" fill="url(#C)"/><circle cx="87" cy="92" r="1" fill="url(#D)"/><circle cx="81" cy="86" r="1" fill="url(#E)"/><circle cx="84" cy="89" r="1" fill="url(#F)"/><circle cx="77" cy="86" r="1" fill="url(#G)"/><circle cx="83" cy="92" r="1" fill="url(#H)"/><circle cx="80" cy="89" r="1" fill="url(#I)"/><circle cx="79" cy="92" r="1" fill="url(#J)"/><circle cx="73" cy="86" r="1" fill="url(#K)"/><circle cx="76" cy="89" r="1" fill="url(#L)"/><circle cx="69" cy="86" r="1" fill="url(#M)"/><circle cx="75" cy="92" r="1" fill="url(#N)"/><circle cx="72" cy="89" r="1" fill="url(#O)"/><circle cx="71" cy="92" r="1" fill="url(#P)"/><circle cx="65" cy="86" r="1" fill="url(#Q)"/><circle cx="68" cy="89" r="1" fill="url(#R)"/><circle cx="61" cy="86" r="1" fill="url(#S)"/><circle cx="67" cy="92" r="1" fill="url(#T)"/><circle cx="64" cy="89" r="1" fill="url(#U)"/><circle cx="63" cy="92" r="1" fill="url(#V)"/><circle cx="57" cy="86" r="1" fill="url(#W)"/><circle cx="60" cy="89" r="1" fill="url(#X)"/><circle cx="53" cy="86" r="1" fill="url(#Y)"/><circle cx="59" cy="92" r="1" fill="url(#Z)"/><circle cx="56" cy="89" r="1" fill="url(#aa)"/><circle cx="55" cy="92" r="1" fill="url(#aD)"/><circle cx="49" cy="86" r="1" fill="url(#aE)"/><circle cx="52" cy="89" r="1" fill="url(#aF)"/><circle cx="45" cy="86" r="1" fill="url(#aG)"/><circle cx="51" cy="92" r="1" fill="url(#aH)"/><circle cx="48" cy="89" r="1" fill="url(#aI)"/><circle cx="47" cy="92" r="1" fill="url(#aJ)"/><circle cx="41" cy="86" r="1" fill="url(#aK)"/><circle cx="44" cy="89" r="1" fill="url(#aL)"/><circle cx="37" cy="86" r="1" fill="url(#aM)"/><circle cx="43" cy="92" r="1" fill="url(#aN)"/><circle cx="40" cy="89" r="1" fill="url(#aO)"/><circle cx="39" cy="92" r="1" fill="url(#aP)"/><circle cx="33" cy="86" r="1" fill="url(#aQ)"/><circle cx="36" cy="89" r="1" fill="url(#aR)"/><circle cx="29" cy="86" r="1" fill="url(#aS)"/><circle cx="35" cy="92" r="1" fill="url(#aT)"/><circle cx="32" cy="89" r="1" fill="url(#aU)"/><circle cx="31" cy="92" r="1" fill="url(#aV)"/><circle cx="25" cy="86" r="1" fill="url(#aW)"/><circle cx="28" cy="89" r="1" fill="url(#aX)"/><circle cx="21" cy="86" r="1" fill="url(#aY)"/><circle cx="27" cy="92" r="1" fill="url(#aZ)"/><circle cx="24" cy="89" r="1" fill="url(#ba)"/><circle cx="23" cy="92" r="1" fill="url(#bb)"/><circle cx="17" cy="86" r="1" fill="url(#bc)"/><circle cx="20" cy="89" r="1" fill="url(#bd)"/><circle cx="13" cy="86" r="1" fill="url(#be)"/><circle cx="19" cy="92" r="1" fill="url(#bf)"/><circle cx="16" cy="89" r="1" fill="url(#bg)"/><circle cx="15" cy="92" r="1" fill="url(#bh)"/><circle cx="9" cy="86" r="1" fill="url(#bi)"/><circle cx="12" cy="89" r="1" fill="url(#bj)"/><circle cx="11" cy="92" r="1" fill="url(#bk)"/><circle cx="8" cy="89" r="1" fill="url(#bl)"/></g><path fill="url(#bm)" d="M3 .001c-1.65 0-3 1.456-3 3.237v97.129c0 .967.402 1.833 1.031 2.428-.007-.092-.031-.176-.031-.27V4.317c0-1.78 1.317-3.238 2.938-3.238h104.12c1.62 0 2.888 1.458 2.937 3.238.686 25.092 0 98.208 0 98.208 0 .094-.024.178-.031.27a3.34 3.34 0 0 0 1.031-2.428V3.237c0-1.78-1.35-3.237-3-3.237z" opacity=".9"/></svg>