<svg xmlns="http://www.w3.org/2000/svg" viewBox="0 0 204.786 188.885"><defs><path id="a" d="M173.987 134.362h-37.795l9.633-37.776h37.796z"/></defs><g transform="matrix(1 0 .25454 1 -56.97 -21.03)"><g fill="#1c1c1b icc-color(adobe-rgb-1998,.13299561,.13299561,.1289978)"><path d="M98.397 134.362H60.602l9.633-37.776h37.796zm28.161 37.776H88.763l9.633-37.776h37.796z"/><path d="M136.192 134.362H98.397l9.633-37.776h37.796z"/><use href="#a"/><path d="M108.031 96.585H70.236l9.633-37.776h37.796z"/><use x="9.634" y="-37.777" href="#a"/><path d="M60.602 134.362H22.807l9.633-37.776h37.796zm9.634-37.777H32.441l9.633-37.776H79.87z"/><path d="M79.87 58.809H42.075l9.633-37.776h37.796z"/><use x="57.063" y="-75.553" href="#a"/><path d="M50.968 172.138H13.173l9.633-37.776h37.796zm-9.634 37.777H3.539l9.633-37.776h37.796z"/><use x="37.795" href="#a"/><use x="47.429" y="-37.777" href="#a"/><use x="28.161" y="37.776" href="#a"/><use x="18.527" y="75.553" href="#a"/></g><path fill="#ff7000" d="M114.115 134.359H76.321l9.633-37.776h37.796z"/><use x="-31.71" y="37.773" fill="#ff4900" href="#a"/><g fill="#ff7000"><use x="-22.076" y="-.003" href="#a"/><use x="15.719" y="-.003" href="#a"/></g><g fill="#ffa300"><path d="M123.749 96.582H85.955l9.633-37.776h37.796z"/><use x="25.353" y="-37.78" href="#a"/></g><path fill="#ff7000" d="M76.32 134.359H38.526l9.633-37.776h37.796z"/><path fill="#ffa300" d="M85.954 96.582H48.16l9.633-37.776h37.796z"/><g fill="#ffce00"><path d="M95.588 58.806H57.794l9.633-37.776h37.796z"/><use x="72.782" y="-75.556" href="#a"/></g><path fill="#ff4900" d="M66.686 172.135H28.892l9.633-37.776h37.796z"/><path fill="#ff0107" d="M57.052 209.912H19.258l9.633-37.776h37.796z"/><use x="53.514" y="-.003" fill="#ff7000" href="#a"/><path fill="#ffa300" d="M237.135 96.582H199.34l9.633-37.776h37.796z"/><use x="43.88" y="37.773" fill="#ff4900" href="#a"/><use x="34.246" y="75.55" fill="#ff0107" href="#a"/></g></svg>