<svg xmlns="http://www.w3.org/2000/svg" viewBox="0 0 223.93 121.33"><path fill="#624aff" d="M0 47.84h25.65v25.65H0zm99.14 25.65h25.65v25.65H99.14zm76.95 25.65h-25.65v22.19h47.84V73.49h-22.19z"/><path fill="#36cfd1" d="M124.79 47.84h25.65v25.65h-25.65zM0 22.19h25.65v25.65H0z"/><path fill="#624aff" d="M198.28 47.84h25.65v25.65h-25.65z"/><path fill="#36cfd1" d="M198.28 22.19h25.65v25.65h-25.65z"/><path fill="#624aff" d="M150.44 0v22.19h25.65v25.65h22.19V0z"/><path fill="#36cfd1" d="M73.49 47.84h25.65v25.65H73.49z"/><path fill="#624aff" d="M47.84 22.19h25.65V0H25.65v47.84h22.19zm0 51.3H25.65v47.84h47.84V99.14H47.84z"/></svg>