<svg xmlns="http://www.w3.org/2000/svg" viewBox="0 0 31.747 39.7"><path fill="#ff4c1f" d="M29.017 16.8c.4 1.2-1 2.6-1 2.6s-2.6 1.6-2.1-5.4c.5-7.2-11.2-14-11.2-14v5.3c0 5.8-3.5 3.9-3.5 3.9-3.6 3.6-3.2 11.6-3.2 11.6-4.4 3.7-4.5-4-4.5-4s-8.3 8 .6 16.7c0 0 1.3 1.2-.8.8-1.5-.3-1.8-.8-1.8-.8s.3 3.6 10.7 5.8c.2 0 3.4.7 7 0 8.1-1.8 9.5-5 9.5-5s-.2.3-1.5.4c-1.4.1-.2-1.2-.2-1.2 9.5-5.7 1.7-18.1 2-16.8z"/><path fill="#ff9c45" d="M25.617 28.5c1.9-2.8.4-5 .4-5-3 1.5-3.8.5-4-.3-.2-.4-.2-.7 0-1 1.8-10.8-5.6-16.6-5.4-15.1 0 .3 0 1-.2 1.5-.3 1.4-1 2.7-1.8 3.9-1 1.5-3.2 5-4.4 10.2-1.6 7.4-6.3 2-6.3 2s-2.7 9 8.5 14.7c.6 0 2.7.3 5.3.1 7.3-3.3 10-9.8 10-9.8s-4 1.6-2.1-1.2"/><path fill="#ffdd56" d="M23.017 26.6s-.8 2-3.7 2.4c-3 .5-1.7-9.6-1.7-9.6-7.4 3.4-6 11.3-6 11.3s-1.2 1.1-2.7 0c-.5-.4.6 6.3 5.4 9l3.3-.1c3.3-2.2 5-9.2 5-9.2l-1.5.9 2-4.7z"/><path fill="#ff4c1f" d="M1.817 15.9s-.4-3.6 1.7-5.2l.7-.8c.2-.3.3-.9.3-1.2-.3-.9 2.8 4.1-2.7 7.3v-.2z"/><path fill="#fcfbcc" d="M17.617 39.6c1.3-1.4 3-6.8 3-6.8s-.3 1-1.7 1c-2-.2-3.2-5.4-3.2-5.4s-1.6 4.3-2 5c-.7 1.4-2 0-2 0-.4 2.2 2.5 5.4 3.3 6.2z"/></svg>