<svg viewBox="0 0 11.93 26" xmlns="http://www.w3.org/2000/svg"><path d="M11.713 10.4c-1.4-6.1-4.3-7.7-5-8.8-.4-.5-.6-1.1-.9-1.6 0 .5-.1.9-.5 1.3-1 .8-4.9 4-5.3 10.9-.3 6.5 4.8 10.4 5.5 10.8.5.3 1.2 0 1.5-.2 2.4-1.7 5.8-6.1 4.7-12.4" fill="#10aa50"/><path d="M6.013 19.5c-.2 1.6-.3 2.5-.6 3.4 0 0 .2 1.5.4 3.1h.5l.6-3.3c-.7-.4-.9-1.8-.9-3.2z" fill="#b8c4c2"/><path d="M7.013 22.8c-.7-.4-.9-1.9-.9-3.2.2-2.3.2-4.6.2-7-.1-1.2 0-11.1-.3-12.6.2.5.4 1 .7 1.4.7 1.2 3.6 2.8 5 8.9 1.1 6.3-2.2 10.8-4.7 12.5z" fill="#12924f"/></svg>
