<svg version="1.1" viewBox="0 0 28.529 43.586" xmlns="http://www.w3.org/2000/svg"><g clip-rule="evenodd" fill="#9e1084" fill-rule="evenodd"><path d="m14.186 36.619c-6.2905 0-10.858-3.6404-10.858-8.1967 0-4.5562 3.2999-8.2498 10.858-8.303 7.5579-0.0532 10.964 3.7468 10.964 8.303 0 4.5563-5.0463 8.1967-10.964 8.1967zm5.8075-12.864h-11.429c-2.0144 0-3.6474 1.6329-3.6474 3.6473s1.6329 3.6475 3.6474 3.6475c0 0 2.783-1.2158 5.5928-1.2158 2.903 0 5.8358 1.2158 5.8358 1.2158 2.0144 0 3.6474-1.6331 3.6474-3.6475s-1.633-3.6473-3.6474-3.6473z"/><path d="m14.584 20.332 2.3419-15.861s0.9048-4.5241 4.7902-4.4709c3.8854 0.053229 6.7063 5.9612 6.8128 10.751-0.0762 6.1527-3.4596 4.0845-5.3225 1.0645 0-0.3725-4.5774 8.9417-4.5774 8.9417z"/><path d="m13.945 20.332-2.3419-15.861s-0.9048-4.5241-4.7901-4.4709c-3.8854 0.053229-6.7064 5.9612-6.8127 10.751 0.07612 6.1527 3.4596 4.0845 5.3224 1.0645 0-0.3725 4.5774 8.9417 4.5774 8.9417z"/></g><g fill="#9e1084"><path d="m18.737 28.718 1.8815-1.3659v-0.7175l-1.8815-1.3659v0.8347l0.7702 0.4967 0.5611 0.3725v0.0345l-0.5611 0.3726-0.7702 0.4967z"/><path d="m18.267 25.268-1.8815 1.3659v0.7175l1.8815 1.3659v-0.8347l-0.7702-0.4968-0.5612-0.3725v-0.0345l0.5612-0.3725 0.7702-0.4967z"/><path d="m10.896 28.422v-0.38h0.644v-2.048h-0.528v-0.292c0.276-0.052 0.472-0.12 0.64-0.224h0.348v2.564h0.576v0.38z"/><path d="m9.4112 28.474c-0.57996 0-0.95196-0.512-0.95196-1.536 0-1.02 0.372-1.516 0.95196-1.516 0.576 0 0.952 0.5 0.952 1.516 0 1.024-0.376 1.536-0.952 1.536zm0-0.364c0.3 0 0.512-0.32 0.512-1.172 0-0.844-0.212-1.152-0.512-1.152-0.29996 0-0.51196 0.308-0.51196 1.152 0 0.852 0.212 1.172 0.51196 1.172z"/></g><g clip-rule="evenodd" fill="#9e1084" fill-rule="evenodd"><path d="m11.634 25.413h0.4313v2.564h0.576v0.5096h-1.8096v-0.5096h0.644v-1.9184h-0.528v-0.4106l0.0528-0.0099c0.2714-0.0512 0.459-0.1171 0.6179-0.2154zm0.0367 0.1296c-0.162 0.0973-0.3477 0.1626-0.5934 0.2126v0.1738h0.528v2.1776h-0.644v0.2504h1.5504v-0.2504h-0.576v-2.564z"/><path d="m8.7718 25.833c-0.15571 0.2366-0.24782 0.6012-0.24782 1.1049 0 0.5057 0.0921 0.8755 0.24811 1.1168 0.15378 0.2379 0.37146 0.3544 0.63903 0.3544 0.2655 0 0.4833-0.1165 0.6376-0.3545 0.1565-0.2413 0.2496-0.6112 0.2496-1.1167 0-0.5015-0.093-0.8661-0.2493-1.1034-0.1541-0.2338-0.3718-0.3478-0.6379-0.3478-0.26837 0-0.48593 0.1132-0.63932 0.3463zm-0.10831-0.0713c0.17761-0.2699 0.43606-0.4046 0.74763-0.4046 0.3099 0 0.5682 0.136 0.7462 0.4061 0.1757 0.2668 0.2707 0.6602 0.2707 1.1747 0 0.5184-0.095 0.9166-0.2705 1.1873-0.1776 0.2739-0.4359 0.4135-0.7464 0.4135-0.31238 0-0.57069-0.1395-0.74791-0.4136-0.175-0.2707-0.26889-0.6689-0.26889-1.1872 0-0.5163 0.09389-0.9098 0.26917-1.1762zm0.50473 0.0318c0.07381-0.05 0.15624-0.0724 0.2429-0.0724 0.0867 0 0.1691 0.0224 0.243 0.0724 0.0733 0.0497 0.1346 0.1243 0.1836 0.2231 0.0972 0.1959 0.1503 0.4959 0.1503 0.9213 0 0.4294-0.0532 0.7341-0.15 0.9338-0.0489 0.1006-0.11 0.1769-0.1832 0.228-0.0738 0.0515-0.1565 0.075-0.2437 0.075-0.08718 0-0.16985-0.0235-0.24364-0.075-0.07323-0.0511-0.13432-0.1274-0.18316-0.228-0.09689-0.1997-0.15-0.5044-0.15-0.9338 0-0.4254 0.0531-0.7254 0.15025-0.9213 0.049-0.0988 0.11029-0.1734 0.18365-0.2231zm-0.06749 0.2807c-0.08385 0.1691-0.13675 0.4451-0.13675 0.8637 0 0.4226 0.05289 0.7039 0.13699 0.8772 0.04167 0.0858 0.08982 0.1428 0.14072 0.1783 0.05033 0.0351 0.10666 0.0517 0.16943 0.0517 0.0628 0 0.1192-0.0166 0.1695-0.0517 0.0509-0.0355 0.099-0.0925 0.1407-0.1783 0.0841-0.1733 0.137-0.4546 0.137-0.8772 0-0.4186-0.0529-0.6946-0.1368-0.8637-0.0414-0.0837-0.0894-0.1389-0.1402-0.1733-0.0503-0.0341-0.1069-0.0502-0.1702-0.0502-0.06329 0-0.11985 0.0161-0.17016 0.0502-0.05078 0.0344-0.09874 0.0896-0.14023 0.1733z"/><path d="m14.369 41.726c-0.2962 0.0143-0.5616 0.0233-0.7412 0.0215-0.1711-0.0016-0.4238-0.0275-0.7075-0.0746 0.0138 0.0859 0.0229 0.1734 0.0229 0.2632 0 0.9112-0.7392 1.6499-1.6512 1.6499-0.9119 0-1.6511-0.7387-1.6511-1.6499 0-0.1074 0.011-0.2122 0.0306-0.3139-0.1342 0.0909-0.2738 0.1376-0.41906 0.1253-1.2991-0.1091-0.87589-2.0145 0.15346-3.7612 1.0294-1.7468 2.7635-2.5332 2.7635-2.5332l2.1996-0.2zm-3.877-1.2328c0.1378-0.0765 0.2876-0.1335 0.446-0.168 0.1894-0.6299 0.6818-1.4749 0.9243-2.4158-0.2899-0.3958-0.7431 1.318-1.3703 2.5838z"/><path d="m19.336 41.747c-0.1452 0.0123-0.2848-0.0343-0.419-0.1252 0.0196 0.1017 0.0306 0.2064 0.0306 0.3138 0 0.9112-0.7392 1.6499-1.6511 1.6499-0.912 0-1.6512-0.7387-1.6512-1.6499 0-0.0898 0.0092-0.1773 0.023-0.2633-0.2838 0.0472-0.5366 0.0731-0.7078 0.0747-0.1795 0.0018-0.4449-0.0072-0.741-0.0215v-6.4729l2.1995 0.2s1.734 0.7864 2.7634 2.5332c1.0294 1.7467 1.4526 3.6521 0.1536 3.7612zm-2.61-3.8381c0.2427 0.9409 0.735 1.7859 0.9245 2.4157 0.1582 0.0346 0.308 0.0915 0.4458 0.168-0.6271-1.2658-1.0804-2.9795-1.3703-2.5837z"/></g></svg>
