<svg xmlns="http://www.w3.org/2000/svg" viewBox="0 0 96.36 83.45"><path d="M96.36 15.74h-9.08l4.54-7.87h-9.08L87.28 0H9.09l3.4 5.9H17l-1.13-2h64.59l-31.14 54 2.27 3.94 24.33-42.17h4.54l-26.6 46.08 2.27 3.93L85 19.67h4.54L57.27 75.59 26.12 21.64h-4.54l24.33 42.14-2.27 3.94L17 21.64h-4.51l28.88 50-2.27 3.95L6.81 19.67h62.3l2.27-3.93H22.71l-2.27-3.94h53.21l2.27-3.93H4.54l4.55 7.87H0l39.1 67.71 4.54-7.86 4.54 7.86 4.54-7.86 4.55 7.86zm-18.17 0 2.27-3.94H85l-2.27 3.94zM11.36 11.8h4.54l2.27 3.94h-4.54zm36.82 63.79-2.27-3.94 2.27-3.93 2.27 3.93z" fill="#ff671d"/></svg>