<svg xmlns="http://www.w3.org/2000/svg" overflow="visible" version="1.2" viewBox="0 0 202.9 202.9"><g fill="#fff"><path d="M.1 20v31h.6c84.4 0 153.2 68 153.9 151.8h30.1C183.9 102.1 101.5 20.3.1 20"/><path d="M.1 84v31h.6c48.9 0 88.8 39.3 89.5 87.8h30.1C119.6 137.4 66 84.3.1 84M202.9 122.6V60.1c-7.7-10.5-17.2-22.5-26.7-31.8-10.6-10.5-23-20-35-28.3H74.8C133 20.9 179.7 65.8 202.9 122.6"/></g><g fill="#606"><path d="M.6 115H0v77.6c0 5.6 4.6 10.2 10.2 10.2h79.9C89.4 154.3 49.6 115 .6 115"/><path d="M.6 51H0v33c65.9.3 119.5 53.3 120.2 118.8h34.2C153.8 119 85.1 51 .6 51"/><path d="M202.9 192.7v-70.1C179.7 65.8 133 20.9 74.9 0H10.2C4.6 0 0 4.6 0 10.2v9.9c101.4.3 183.9 82 184.5 182.8h8.2c5.7-.1 10.2-4.6 10.2-10.2M176.2 28.3c9.4 9.4 19 21.3 26.7 31.8v-50c0-5.6-4.5-10.1-10.1-10.1h-51.5c12 8.3 24.4 17.8 34.9 28.3"/></g></svg>