<svg viewBox="0 0 32.807 30.932" xmlns="http://www.w3.org/2000/svg"><path d="M30.294 17.527c-.213-.78-.6-.538-3.779-.538-4.238 0-4.51.218-2.654-2.447 2.457-3.527 3.49-5.924 2.809-6.965-.472-.72-1.013-.624-1.927.341-.849.896-1.87.418-1.87-.955 0-2.012 2.806-4 5.39-3.993 1.614.005 2.437.404 3.216 1.56 1.12 1.663.731 3.856-1.134 6.398-1.544 2.103-.734 3.612.956 1.78 1.463-1.687 1.56.862 1.49 1.704-.23 2.696-2.076 4.657-2.497 3.115z" fill="#999"/><g stroke-width=".505"><path d="M.129 21.6c-.306-.2-.084-.862.86-2.565C2.572 16.18 6.211 8.415 7.748 4.613c.912-2.256.985-2.835.418-3.293-.302-.244-.341-.34-.221-.54.441-.735 2.988-1.05 4.063-.503 1.198.61 1.749 2.082 2.471 6.608.577 3.61 1.002 6.037 1.081 6.165.214.345.637-.499 2.245-4.474 2.253-5.569 3.245-7.358 4.417-7.961.52-.267.9-.345 1.9-.389 1.603-.07 1.65-.032 1.649 1.297-.003 1.723-.08 1.966-.764 2.366-1.276.748-2.168 2.007-2.17 3.063-.002 1.45 1.079 1.9 2.073.862.208-.217.427-.394.486-.394s.11.556.11 1.236c0 .68.058 1.585.128 2.012.143.878.164.836-1.836 3.866-1.11 1.683-1.208 1.921-.908 2.221.181.182.602.227 2.488.262l2.27.042.559.74c.683.905.726 1.4.185 2.11-.494.647-1.485 1.355-2.163 1.545-.99.278-2.225-.268-3.3-1.457-1.378-1.525-1.994-3.942-2.18-8.54-.064-1.594-.138-2.295-.24-2.26-.082.027-.996 2.004-2.032 4.393-3.287 7.58-3.684 8.286-4.54 8.071-.536-.134-1.35-1.062-1.91-2.178-1.11-2.207-1.736-5.05-2.038-9.257-.087-1.213-.208-2.261-.27-2.33-.136-.15-.584.824-2.084 4.528-2.015 4.977-2.796 6.542-3.82 7.653-.87.944-3.137 1.88-3.686 1.523z" fill="#f9f9f9"/><g fill="#d35e64"><path d="M17.7 28.25c-.325-.254-.355-.353-.32-1.035l.04-.754h.46c.444 0 .459.016.467.535l.009.534.703.04c.538.032.721-.008.782-.167.16-.416-.107-.898-.986-1.78-.494-.494-1.033-1.076-1.2-1.293-.386-.502-.408-1.383-.046-1.83.234-.289.355-.315 1.456-.315 1.37 0 1.678.16 1.803.934.116.71-.067 1.204-.444 1.204-.267 0-.342-.098-.464-.601-.133-.55-.184-.606-.593-.645a2.75 2.75 0 00-.763.036c-.595.15-.376.578.954 1.868l1.27 1.23v.903c0 1.378-.044 1.418-1.524 1.418-1.066 0-1.298-.04-1.605-.281zM23.02 30.45c.047-.282.12-1.054.16-1.715.071-1.127.036-1.355-.55-3.608-.345-1.323-.658-2.54-.696-2.706-.06-.26-.014-.301.332-.301.22 0 .467.081.55.18.082.1.302.866.489 1.704.417 1.87.453 1.991.59 1.991.158 0 .355-.563.747-2.137.39-1.564.486-1.738.957-1.738.392 0 .461-.435-.701 4.448-.47 1.968-.93 3.742-1.026 3.942-.118.247-.295.377-.555.407-.375.043-.38.033-.297-.468zM30.35 26.234l-.001 1.044s.042.995-.108 1.137c-.152.143-.73.118-1.532.118-1.395 0-1.469-.014-1.67-.322-.143-.218-.198-.552-.17-1.035.04-.694.051-.714.44-.714.296 0 .409.069.439.267.131.867.133.869.818.869 1.33 0 1.187-.743-.42-2.167-.987-.876-1.305-1.347-1.302-1.936.005-1.024.442-1.376 1.71-1.376 1.444 0 1.897.367 1.897 1.54 0 .85-.808 1.014-.942.191-.113-.695-.22-.796-.844-.796-.59 0-.886.176-.888.528 0 .114.585.763 1.303 1.442"/></g></g></svg>
