<svg xmlns="http://www.w3.org/2000/svg" version="1.0" viewBox="0 0 44.859 82.09"><g fill="none" stroke="#000"><path d="M16.896 79.709s-1.974 3.951-3.453.405c-1.48-3.547-1.19-11.914-1.19-11.914.365-31.291 17.349-9.339 14.254-4.866z"/><path d="M17.062 79.517s-2.183 4.427-4.032.347-1.784-13.582-1.784-13.582c-.598-35.555 20.018-10.047 16.54-5.064z"/><path d="M17.29 79.24s-2.48 5.076-4.756.312c-2.275-4.764-2.408-15.762-2.408-15.762-1.497-41.174 23.423-11.186 19.425-5.495z"/><path d="M17.592 78.872s-2.874 5.931-5.696.274S8.698 60.53 8.698 60.53C6.094 11.993 36.563 47.812 31.88 54.438z"/><path d="M17.892 78.524s-3.25 6.795-6.766.157S6.797 57.01 6.797 57.01C2.329.673 39.577 43.055 34.195 50.603z"/><path d="M18.319 77.982s-3.825 7.996-7.962.185-5.095-25.502-5.095-25.502C.004-13.63 43.836 36.244 37.503 45.126z"/><path d="M18.716 77.482s-4.36 9.162-9.261.122c-4.902-9.04-6.217-29.419-6.217-29.419-6.87-76.388 44.692-18.469 37.424-8.313z"/><path d="M19.082 77.022s-4.851 10.24-10.47.059-7.278-33.05-7.278-33.05c-8.416-85.738 50.375-20.336 42.244-9.008z"/></g></svg>