<svg viewBox="0 0 158.95 156.45" xmlns="http://www.w3.org/2000/svg"><g fill="#00758f" fill-rule="evenodd"><path d="M146.396 121.003c-8.653-.217-15.353.65-20.973 3.036-1.622.65-4.213.65-4.435 2.71.87.865.975 2.273 1.737 3.47 1.293 2.168 3.56 5.09 5.617 6.612 2.27 1.735 4.541 3.463 6.923 4.98 4.213 2.613 8.971 4.124 13.073 6.727 2.387 1.516 4.756 3.465 7.142 5.095 1.185.867 1.936 2.279 3.456 2.815v-.328c-.762-.973-.975-2.383-1.728-3.473-1.079-1.075-2.162-2.057-3.245-3.136-3.137-4.227-7.034-7.91-11.24-10.945-3.462-2.39-11.034-5.643-12.433-9.642l-.22-.221c2.38-.22 5.195-1.089 7.463-1.746 3.67-.973 7.022-.753 10.805-1.726 1.733-.437 3.463-.982 5.2-1.515v-.983c-1.957-1.947-3.356-4.552-5.41-6.393-5.509-4.768-11.57-9.426-17.838-13.334-3.357-2.168-7.68-3.57-11.25-5.418-1.29-.652-3.45-.973-4.21-2.063-1.947-2.384-3.033-5.523-4.435-8.346-3.132-5.955-6.165-12.565-8.863-18.862-1.945-4.225-3.134-8.45-5.513-12.354-11.14-18.431-23.244-29.59-41.838-40.54-4-2.28-8.757-3.254-13.834-4.447-2.707-.113-5.407-.324-8.11-.43-1.732-.763-3.464-2.824-4.975-3.799C21.097 2.847 5.212-5.607.67 5.557c-2.92 7.05 4.324 13.984 6.812 17.562 1.836 2.49 4.218 5.313 5.509 8.127.758 1.844.975 3.798 1.735 5.746 1.727 4.769 3.346 10.082 5.622 14.529 1.185 2.276 2.48 4.664 3.993 6.714.873 1.2 2.382 1.735 2.707 3.692-1.508 2.165-1.626 5.417-2.49 8.129-3.89 12.25-2.379 27.424 3.137 36.42 1.726 2.71 5.84 8.673 11.353 6.391 4.864-1.947 3.783-8.126 5.188-13.543.323-1.31.106-2.17.753-3.035v.219c1.513 3.03 3.03 5.95 4.435 8.995 3.356 5.306 9.188 10.836 14.057 14.518 2.587 1.959 4.643 5.313 7.886 6.51v-.328h-.213c-.65-.973-1.621-1.41-2.487-2.165-1.945-1.952-4.102-4.338-5.622-6.505-4.54-6.068-8.544-12.792-12.104-19.729-1.734-3.368-3.245-7.05-4.652-10.408-.647-1.295-.647-3.252-1.73-3.9-1.626 2.381-3.998 4.444-5.185 7.362-2.056 4.666-2.27 10.41-3.033 16.375-.43.113-.213 0-.43.215-3.455-.866-4.645-4.443-5.945-7.468-3.243-7.706-3.788-20.063-.973-28.953.753-2.272 4.006-9.426 2.703-11.594-.654-2.068-2.814-3.25-4-4.882-1.403-2.06-2.925-4.655-3.888-6.937-2.596-6.068-3.902-12.791-6.703-18.86-1.298-2.823-3.574-5.75-5.405-8.346-2.058-2.928-4.327-4.987-5.95-8.452-.536-1.195-1.294-3.147-.432-4.444.212-.869.651-1.195 1.517-1.413 1.398-1.193 5.403.322 6.805.973 4.003 1.621 7.354 3.147 10.701 5.42 1.516 1.086 3.137 3.145 5.08 3.691h2.275c3.458.753 7.352.211 10.597 1.19 5.726 1.842 10.914 4.552 15.566 7.48 14.157 8.997 25.833 21.79 33.721 37.072 1.3 2.49 1.846 4.769 3.033 7.365 2.27 5.322 5.084 10.742 7.35 15.94 2.268 5.095 4.435 10.294 7.682 14.528 1.617 2.272 8.105 3.465 11.025 4.658 2.157.972 5.514 1.84 7.46 3.032 3.676 2.272 7.344 4.878 10.808 7.375 1.726 1.3 7.133 4.008 7.459 6.179"/><path d="M36.125 26.794a17.27 17.27 0 00-4.433.544v.218h.21c.874 1.73 2.389 2.932 3.46 4.446.872 1.735 1.63 3.463 2.493 5.2.106-.107.21-.22.21-.22 1.525-1.08 2.28-2.812 2.28-5.417-.654-.765-.755-1.517-1.3-2.28-.647-1.08-2.054-1.623-2.92-2.491"/></g></svg>
