<svg xmlns="http://www.w3.org/2000/svg" xmlns:xlink="http://www.w3.org/1999/xlink" viewBox="0 0 832.77 390.211"><defs><linearGradient id="a" x1="816.73" x2="1492.16" y1="195.1" y2="195.1" gradientUnits="userSpaceOnUse"><stop offset="0" stop-color="#4190ff"/><stop offset="1" stop-color="#1be1f6"/></linearGradient><linearGradient xlink:href="#a" id="b" x1="816.73" x2="1492.16" y1="195.1" y2="195.1" gradientTransform="translate(-742.23)" gradientUnits="userSpaceOnUse"/><linearGradient xlink:href="#a" id="c" x1="816.73" x2="1492.16" y1="195.1" y2="195.1" gradientTransform="translate(-742.23)" gradientUnits="userSpaceOnUse"/></defs><path d="M195.1 390.21C87.52 390.21 0 302.69 0 195.11S87.52 0 195.1 0a193.92 193.92 0 0 1 137.17 56.36l.16.15 52.64 52.64-54.52 54.52-52.56-52.56a118 118 0 1 0 .56 167.43l53.91-53.91 54.52 54.52-53.91 53.91a193.83 193.83 0 0 1-137.97 57.15" class="cls-2" style="fill:url(#b)"/><path d="M637.63 390.21a194 194 0 0 1-137-56.17l-.38-.38-137.2-139.15L499.67 57.14A193.83 193.83 0 0 1 637.63 0c107.58 0 195.14 87.52 195.14 195.1s-87.56 195.11-195.14 195.11m-82.66-110.9a118 118 0 1 0-.76-167.67l-82.64 83.1z" class="cls-2" style="fill:url(#c)"/></svg>