<svg xmlns="http://www.w3.org/2000/svg" fill-rule="evenodd" stroke-linejoin="round" stroke-miterlimit="1.414" clip-rule="evenodd" viewBox="0 0 1762384 1300000"><g fill-rule="nonzero"><g fill="#8f1e1c"><path d="M876488.46 547018.195c-138198.337 0-263766.377 16614.668-356724.523 43691.589v231292.97c92960.246 27076.92 218526.186 43690.538 356724.523 43690.538 158177.934 0 299788.446-21763.377 394898.887-56066.76V603090.204c-95119.89-34306.532-236731.452-56072.009-394898.887-56072.009"/><path d="M1277571.258 756357.756c-4049.464-11195.084-4859.987-25359.285-1428.914-39016.384 6141.915-24451.12 23539.808-38004.28 38859.949-30271.766 3798.538 1918.167 7112.022 4967.076 9855.411 8838.058 250.926-1.05 501.852 0 750.679 16.798 0 0 46775.144 55755.99 3478.318 121788.4-939.66 3747.093-80353.046 96294.728-98735.745 99240.748-12031.854 1927.616 15634.06-94488.9 47220.302-160603.203zM510157.352 745417.798c5564.47-10110.537 7515.184-23925.121 4427.428-38242.607-5528.773-25634.359-25103.109-43161.39-43719.936-39145.522-4617.46 995.305-8740.417 3225.293-12248.133 6402.29-296.072-60.894-592.143-118.639-887.165-160.635 0 0-59100.971 44045.405-12658.645 119604.608 845.17 3927.676 88035.165 114271.116 109515.07 121536.424 14059.21 4758.147-11808.226-97141.997-44429.669-169999.808z"/></g><path fill="#e33a25" d="m427201.603 751769.693 7.35 15.749c194.231 152.235 374.814 289.772-7.35-15.749"/><path fill="#e43a25" d="M1367547.688 672848.71c-923.912-3216.894-1843.624-6431.687-2794.834-9619.184l32214.082-46669.105c3286.187-4747.648 3958.123-10916.86 1816.327-16331.194-2141.796-5385.987-6813.851-9249.62-12346.824-10194.53l-54475.111-9244.369c-2108.2-4306.69-4321.389-8548.286-6540.877-12756.285l22884.67-52393.16c2354.926-5340.84 1857.273-11543.65-1263.03-16386.839-3108.754-4867.336-8388.7-7710.465-14015.115-7488.936l-55283.534 2008.458c-2863.078-3727.145-5770.25-7420.693-8737.268-11045.998l12704.84-56159.15c1286.127-5704.107-338.068-11672.789-4307.74-15815.694-3949.724-4128.207-9689.527-5836.394-15145.857-4496.722l-53848.322 13237.14c-3486.717-3081.457-7033.28-6124.067-10618.688-9105.783l1940.215-57654.209c207.88-5836.394-2512.41-11381.966-7185.516-14619.857-4667.855-3258.89-10596.64-3751.293-15702.304-1329.174l-50234.565 23882.075c-4046.315-2320.279-8113.627-4619.56-12225.036-6842.198l-8876.904-56815.338c-899.765-5755.552-4603.812-10643.887-9791.368-12877.024-5168.657-2244.686-11095.343-1520.255-15634.06 1898.22l-44787.685 33604.149c-4409.58-1465.66-8839.108-2869.377-13325.33-4211.15l-19303.462-53877.718c-1963.313-5489.927-6489.432-9523.642-12008.756-10657.534-5500.426-1124.443-11160.437 780.075-14974.724 5041.62l-37698.76 42176.582c-4558.665-524.95-9118.38-1003.704-13693.845-1398.467l-29106.378-49043.978c-2950.219-4968.127-8157.723-7991.84-13770.488-7991.84-5600.167 0-10818.17 3023.713-13743.19 7991.84l-29116.878 49043.978c-4575.464 394.763-9157.227 873.517-13707.494 1398.467L787141.97 255929.22c-3817.436-4261.544-9498.445-6166.062-14979.973-5041.62-5517.225 1146.491-10050.693 5167.608-12003.507 10657.535l-19320.26 53877.719c-4472.574 1341.772-8904.202 2758.087-13324.28 4211.149l-44771.936-33604.15c-4552.367-3428.973-10478.002-4152.354-15660.309-1898.219-5164.458 2233.137-8883.203 7121.472-9777.718 12877.024l-8883.204 56815.338c-4109.309 2222.638-8177.671 4508.27-12234.485 6842.198l-50229.316-23882.075c-5100.414-2430.518-11054.397-1929.716-15700.204 1329.174-4666.806 3237.891-7393.396 8783.463-7181.316 14619.857l1926.566 57654.209c-3574.91 2981.716-7112.022 6024.326-10616.589 9105.782l-53837.822-13237.139c-5471.029-1328.123-11202.433 368.515-15161.606 4496.722-3984.37 4142.905-5598.066 10111.587-4318.238 15815.693l12681.742 56159.151c-2941.82 3640.004-5853.193 7318.853-8706.82 11045.998l-55282.485-2008.458c-5580.219-164.835-10905.312 2621.6-14022.465 7488.936-3123.452 4843.19-3595.907 11045.998-1271.429 16386.84l22902.519 52393.16c-2224.738 4207.998-4434.778 8449.594-6560.825 12756.284l-54471.962 9244.37c-5534.023 932.311-10198.729 4793.843-12351.024 10194.529-2138.646 5414.334-1444.662 11583.546 1821.577 16331.194l32221.431 46669.105c-248.826 823.122-477.705 1654.643-724.431 2481.964l-17704.464 18805.809 47603.516 67245.045s456863.985 210746.427 880656.12 3565.46c48408.79-8685.823 59692.065-82479.094 59692.065-82479.094z"/><path fill="#030404" d="M963525.17 634905.324s50560.034-55360.177 101121.119 0c0 0 39728.215 73820.569 0 110722.454 0 0-65006.659 51672.928-101121.119 0 0 0-43338.822-40601.733 0-110722.454"/><path fill="#fff" d="M1022067.594 655441.368c0 21557.597-12706.94 39034.232-28378.797 39034.232-15668.708 0-28375.647-17476.635-28375.647-39034.232 0-21556.547 12706.94-39035.282 28375.647-39035.282 15671.857 0 28378.797 17478.735 28378.797 39035.282"/><path fill="#030404" d="M737859.664 619786.764s86730.14-38401.142 110396.985 47310.594c0 0 24796.538 99902.184-71222.066 105535.948 0 0-122439.338-23582.854-39179.119-152854.941z"/><path fill="#fff" d="M781430.514 656858.733c0 22229.533-13102.752 40259.465-29268.062 40259.465-16159.011 0-29264.913-18029.932-29264.913-40259.465 0-22234.782 13105.902-40259.465 29264.913-40259.465 16165.31 0 29268.062 18024.683 29268.062 40259.465"/><g fill="#e43a25"><path d="M442039.84 763476.078c11514.253-13084.904 39487.789-28932.094 37344.943-48591.472-3835.285-35199.997-33025.654-60893.15-65197.74-57386.484-7979.24 869.317-15389.434 3456.27-21968.108 7387.097-485.053-112.34-971.157-221.53-1457.26-308.671 0 0-108801.138 53411.563-46787.744 160277.734 584.794 5393.336 123730.715 163437.933 158314.42 175469.787 22634.795 7876.35-20904.558-135059.136-60246.411-236846.941zM1326003.145 758699.033c-13326.38-11233.93-48465.484-21436.858-49261.308-41195.976-1423.664-35379.53 23635.349-65115.848 55972.269-66416.674 8019.136-323.37 15731.701 1137.041 22819.576 4049.464 464.056-182.682 928.112-363.265 1395.317-521.8 0 0 115509.998 36695.055 70023.08 151574.063 220.48 5420.633-98132.052 179973.858-130544.565 197003.236-21217.43 11144.688 5780.75-137988.357 29600.88-244479.714zM525548.886 759633.444s-1452.012 144151.27 139815.183 176309.707l29453.895-59175.514s-102360 9901.607-110239.5-117137.343zM1244961.364 759633.444s1450.962 144151.27-139815.183 176309.707l-29453.895-59175.514s102360 9901.607 110239.5-117137.343z"/><path d="M1142921.583 906650.941c-21260.475-51384.206-89866.19-71784.813-153232.905-45565.66-55776.987 23077.852-88860.386 74576.497-81497.438 121620.416 44039.106-684.535 91278.306-3539.213 137263.926-10202.928 0 0-27126.266 43846.974-67043.464 82113.729 26841.743 6928.29 58146.612 5005.923 88271.392-7458.49 63368.815-26219.153 97504.213-89129.16 76243.738-140508.117zM749818.025 970054.402s57957.63 7659.02 137190.433 9612.884c6939.839-49881.798-30846.062-102671.82-91132.37-123090.276-66603.556-22560.25-135426.6 2931.321-153715.859 56938.177s20867.812 116076.944 87471.369 138639.295c29524.238 10001.348 59479.984 10550.445 85282.327 3367.03-38752.86-38326.6-65091.7-85462.91-65091.7-85462.91z"/></g></g><g fill="none" stroke="#000" stroke-linejoin="miter" stroke-miterlimit="4"><path stroke-width="61838" d="M298957 1500047H30919V-200042h268038"/><path stroke-width="37103" d="M423193 1160030H262370V139977h160823"/><path stroke-width="49470" d="M367259 1330039H152829V-30032h214430"/></g><g fill="none" stroke="#000" stroke-linejoin="miter" stroke-miterlimit="4"><path stroke-width="61838" d="M1463427 1500047h268038V-200042h-268038"/><path stroke-width="37103" d="M1339191 1160030h160823V139977h-160823"/><path stroke-width="49470" d="M1395125 1330039h214430V-30032h-214430"/></g></svg>