<svg xmlns="http://www.w3.org/2000/svg" viewBox="0 0 153 153"><rect width="153" height="153" fill="#f14d42" rx="14"/><path fill="#fff" d="M34.28 34.58q-.28.28-.82.42-.52.16-1.26.16c-.74 0-.96-.073-1.4-.22s-.8-.5-1.08-1.06l-1.98-4.04q-.3-.62-.54-1.16-.24-.56-.52-1.28l-.12.02q.08 1.08.08 2.2.02 1.12.02 2.2v3.1q-.22.06-.68.12-.44.06-.88.06c-.44 0-.553-.02-.78-.06s-.413-.12-.56-.24-.26-.28-.34-.48q-.12-.32-.12-.82v-10q.28-.4.86-.6c.58-.2.8-.2 1.24-.2q.74 0 1.4.24.68.22 1.08 1.04l2 4.04q.3.62.54 1.18.24.54.52 1.26l.1-.02q-.08-1.08-.1-2.16c-.02-1.08-.02-1.44-.02-2.16v-3.24q.22-.06.66-.12.46-.06.9-.06.88 0 1.34.32.46.3.46 1.28zm2.994-9.84q0-.86.5-1.36t1.36-.5h6.6q.141.22.24.58.12.36.12.76 0 .76-.34 1.08-.32.32-.86.32h-4.22v1.86h4.5q.141.22.24.58.12.34.12.74 0 .76-.32 1.08t-.86.32h-3.68v2.1h5.14q.141.22.24.58.12.36.12.76 0 .76-.34 1.1-.32.32-.86.32h-5.84q-.86 0-1.36-.5t-.5-1.36zm16.957 1.1q.22-.1.68-.22.48-.14.96-.14.84 0 1.4.26.56.24.68.72.22.82.4 1.54a116 116 0 0 1 .72 2.64q.18.64.34 1.34h.1a118 118 0 0 0 .58-4.5q.12-1.08.24-2.12l.24-2.14a3.15 3.15 0 0 1 1.58-.42q.74 0 1.28.32t.54 1.08q0 .44-.1 1.26a31 31 0 0 1-.24 1.8 58 58 0 0 1-.76 4.2q-.22 1-.46 1.82-.219.8-.42 1.24-.3.28-.98.46t-1.4.18q-.94 0-1.6-.24-.639-.26-.78-.72-.26-.8-.56-1.9c-.3-1.1-.413-1.54-.64-2.42q-.28 1.3-.58 2.54c-.3 1.24-.38 1.527-.54 2.1q-.3.28-.9.46c-.6.18-.84.18-1.32.18q-.9 0-1.64-.24-.72-.26-.94-.72a7.6 7.6 0 0 1-.4-1.06q-.2-.72-.42-1.62-.22-.92-.46-1.98-.219-1.06-.42-2.12-.18-1.06-.34-2.06a31 31 0 0 1-.24-1.86q.28-.26.78-.48.501-.22 1.08-.22.76 0 1.24.34.5.32.62 1.1.32 2.04.52 3.4.22 1.36.34 2.24.14.86.2 1.34c.06.48.08.573.12.76h.1q.18-.8.34-1.48l.32-1.36q.18-.7.36-1.48.18-.8.38-1.82m15.603 4.34q-.88-.3-1.6-.6a5.1 5.1 0 0 1-1.24-.76 3.3 3.3 0 0 1-.82-1.04q-.28-.62-.28-1.5 0-1.7 1.3-2.72 1.32-1.02 3.68-1.02.86 0 1.6.12t1.26.38q.54.24.84.64.3.38.3.9c0 .52-.08.647-.24.9q-.24.36-.58.62-.44-.28-1.18-.48a5.7 5.7 0 0 0-1.62-.22q-.9 0-1.32.26-.42.24-.42.62 0 .3.26.5.261.18.78.34l1.06.34q1.881.6 2.88 1.54 1.02.92 1.02 2.52 0 1.7-1.34 2.76-1.34 1.04-3.94 1.04a9 9 0 0 1-1.72-.16 5.6 5.6 0 0 1-1.38-.42 2.8 2.8 0 0 1-.92-.72 1.66 1.66 0 0 1-.32-1q0-.58.34-.98.34-.42.74-.64.56.44 1.36.76.82.32 1.78.32.981 0 1.38-.3.4-.3.4-.7c0-.4-.106-.467-.32-.6q-.32-.22-.9-.42zM34.28 53.58q-.28.28-.82.42-.52.16-1.26.16c-.74 0-.96-.073-1.4-.22s-.8-.5-1.08-1.06l-1.98-4.04q-.3-.62-.54-1.16-.24-.56-.52-1.28l-.12.02q.08 1.08.08 2.2.02 1.12.02 2.2v3.1q-.22.06-.68.12-.44.06-.88.06c-.44 0-.553-.02-.78-.06s-.413-.12-.56-.24-.26-.28-.34-.48q-.12-.32-.12-.82v-10q.28-.4.86-.6c.58-.2.8-.2 1.24-.2q.74 0 1.4.24.68.22 1.08 1.04l2 4.04q.3.62.54 1.18.24.54.52 1.26l.1-.02q-.08-1.08-.1-2.16c-.02-1.08-.02-1.44-.02-2.16v-3.24q.22-.06.66-.12.46-.06.9-.06.88 0 1.34.32.46.3.46 1.28zm2.394-5.66q0-1.56.48-2.76.5-1.2 1.34-2a5.7 5.7 0 0 1 2-1.24 7.3 7.3 0 0 1 2.5-.42q1.34 0 2.48.42 1.16.42 2.02 1.24.86.8 1.34 2 .5 1.2.5 2.76c0 1.56-.16 1.967-.48 2.78a5.6 5.6 0 0 1-1.34 2.02q-.84.8-2 1.22a7.4 7.4 0 0 1-2.52.42 7.4 7.4 0 0 1-2.52-.42q-1.16-.44-2-1.26c-.84-.82-1-1.22-1.32-2.02s-.48-1.713-.48-2.74m3.6 0q0 1.82.74 2.72.741.9 1.98.9 1.26 0 2-.9t.74-2.72q0-1.8-.74-2.7-.72-.9-1.98-.9-1.24 0-2 .9-.74.88-.74 2.7m17.062-3.08q.22-.1.68-.22.48-.14.96-.14.84 0 1.4.26.56.24.68.72.22.82.4 1.54a116 116 0 0 1 .72 2.64q.18.64.34 1.34h.1a118 118 0 0 0 .58-4.5q.12-1.08.24-2.12l.24-2.14a3.15 3.15 0 0 1 1.58-.42q.74 0 1.28.32c.54.32.54.573.54 1.08q0 .44-.1 1.26a31 31 0 0 1-.24 1.8 58 58 0 0 1-.76 4.2q-.22 1-.46 1.82-.219.8-.42 1.24-.3.28-.98.46t-1.4.18q-.94 0-1.6-.24-.639-.26-.78-.72-.26-.8-.56-1.9c-.3-1.1-.413-1.54-.64-2.42q-.28 1.3-.58 2.54c-.3 1.24-.38 1.527-.54 2.1q-.3.28-.9.46c-.6.18-.84.18-1.32.18q-.9 0-1.64-.24-.72-.26-.94-.72a7.6 7.6 0 0 1-.4-1.06q-.2-.72-.42-1.62-.22-.92-.46-1.98-.219-1.06-.42-2.12-.18-1.06-.34-2.06a31 31 0 0 1-.24-1.86q.28-.26.78-.48.501-.22 1.08-.22.76 0 1.24.34.5.32.62 1.1.32 2.04.52 3.4.22 1.36.34 2.24.14.86.2 1.34c.06.48.08.573.12.76h.1q.18-.8.34-1.48l.32-1.36q.18-.7.36-1.48.18-.8.38-1.82"/><path fill="#dc1b21" d="m130.24 31.988-4.51 3.805 1.376 5.687a2.15 2.15 0 0 1-.818 2.236 2.18 2.18 0 0 1-2.411.11l-5.087-3.06-5.086 3.062a2.173 2.173 0 0 1-3.161-1.104 2.15 2.15 0 0 1-.07-1.242l1.376-5.687-4.508-3.807a2.148 2.148 0 0 1 .061-3.336 2.15 2.15 0 0 1 1.17-.453l5.937-.47 2.284-5.409A2.17 2.17 0 0 1 118.79 21a2.17 2.17 0 0 1 1.998 1.32l2.284 5.41 5.937.469a2.152 2.152 0 0 1 1.231 3.789m-23.647 4.42a1.28 1.28 0 0 0-1.402-.278c-.156.064-.298.16-.417.279l-9.394 9.393a1.286 1.286 0 1 0 1.82 1.819l9.393-9.393q.182-.181.279-.417a1.28 1.28 0 0 0-.279-1.402m-.08 9.834-8.562 8.559a1.287 1.287 0 1 0 1.82 1.819l8.56-8.56a1.284 1.284 0 0 0-1.818-1.818m11.733-.16-8.726 8.722a1.288 1.288 0 0 0 .91 2.196c.341 0 .668-.136.909-.377l8.724-8.723a1.28 1.28 0 0 0 .001-1.818 1.286 1.286 0 0 0-1.818 0"/><rect width="121" height="71" x="16" y="66" fill="#fff" rx="8"/></svg>