<svg xmlns="http://www.w3.org/2000/svg" fill="none" viewBox="0 0 99.737 76.278"><g clip-path="url(#a)" transform="translate(-.003 -5.132)"><path fill="url(#b)" d="M89.156 6.365c8.658 3.49 12.848 13.336 9.358 21.995l-.008.02-15.763 38.97c-3.506 8.667-13.37 12.857-22.044 9.361-8.658-3.489-12.848-13.336-9.359-21.994l.009-.02 15.763-38.97c3.506-8.668 13.37-12.857 22.044-9.362"/><path fill="url(#c)" fill-rule="evenodd" d="M14.233 21.195 1.005 58.535C-2.13 67.378 2.31 77.158 10.92 80.377c8.609 3.22 18.128-1.341 21.261-10.186L37.5 55.18 18.791 35.55c-3.129-3.283-4.83-7.727-4.718-12.32a19 19 0 0 1 .16-2.035" clip-rule="evenodd"/><path fill="url(#d)" fill-opacity=".96" d="M78.402 51.15a17.1 17.1 0 0 1 4.728 12.69c-.767 15.053-19.28 21.876-29.724 10.954l-35.612-37.24a17.1 17.1 0 0 1-4.728-12.691c.767-15.054 19.28-21.876 29.724-10.955z"/></g><defs><linearGradient id="b" x1="1436" x2="-2251.5" y1="1756" y2="4743.8" gradientUnits="userSpaceOnUse"><stop offset="0" stop-color="#3EADFE"/><stop offset="1" stop-color="#2A7AFF"/></linearGradient><linearGradient id="c" x1="2822.9" x2="487.72" y1="298.6" y2="1608.3" gradientUnits="userSpaceOnUse"><stop offset="0" stop-color="#01B3FF"/><stop offset="1" stop-color="#59ECFA"/></linearGradient><linearGradient id="d" x1="2898.6" x2="7441.1" y1="4457.6" y2="5436.4" gradientUnits="userSpaceOnUse"><stop offset="0" stop-color="#023BFF" stop-opacity=".82"/><stop offset=".88" stop-color="#2D86FF" stop-opacity=".76"/></linearGradient><clipPath id="a"><path fill="#fff" d="M0 0h600v84H0z"/></clipPath></defs></svg>