<svg viewBox="0 0 174.5 198.25" xmlns="http://www.w3.org/2000/svg"><path d="M1.4 148.72c.9 1.6 2.2 2.8 3.8 3.7l77 44.4c3.2 1.9 7.1 1.9 10.2 0l77-44.4c3.2-1.8 5.1-5.2 5.1-8.9v-88.8c0-3.7-1.9-7.1-5.1-8.9l-77-44.4c-3.2-1.9-7.1-1.9-10.2 0l-77 44.4c-3.3 1.8-5.2 5.2-5.2 8.9v88.9c0 1.8.4 3.5 1.4 5.1" fill="#009639"/><path d="M62.6 133.02c0 5.5-4.4 9.9-9.9 9.9s-9.9-4.4-9.9-9.9v-67.9c0-5.3 4.7-9.6 11.2-9.6 4.7 0 10.2 1.9 13.5 6l3 3.6 41.4 49.5v-49.3c0-5.5 4.4-9.9 9.9-9.9s9.9 4.4 9.9 9.9v67.9c0 5.3-4.7 9.6-11.2 9.6-4.7 0-10.2-1.9-13.5-6l-44.4-53z" fill="#fff"/></svg>
