<svg xmlns="http://www.w3.org/2000/svg" viewBox="0 0 89 61"><path fill="#f3d400" d="M44.854 0s-3.41 2.695-6.887 5.372c-3.576-.114-10.59.687-14.392 2.07-3.501-2.219-6.578-4.668-6.578-4.668s-2.629 4.523-4.282 7.177c-2.452 1.304-4.914 2.77-7.108 4.711a390 390 0 0 1-5.606-2.29c3.38 6.817 5.651 13.643 11.83 17.745 9.84-15.54 55.56-14.107 65.603-.089 6.49-3.385 9.014-10.667 11.566-17.391-.28.092-3.753 1.254-6.004 2.113-1.344-1.463-4.512-3.713-6.313-4.8-1.708-3.127-4.194-7.353-4.194-7.353s-2.945 2.19-6.357 4.58c-4.61-.851-10.187-1.886-14.877-1.63C48.062 2.923 44.853 0 44.853 0z"/><path fill="#ffe953" d="m3.494 26.86 8.117 19.657c14.096 18.597 50.092 19.89 65.785.36 3.713-8.369 8.723-20.13 8.723-20.13-4.026 5.964-10.578 10.081-14.613 12.3-2.868 1.57-9.484 2.52-9.484 2.52l-17.37-9.002-17.469 8.821s-6.528-1.049-9.483-2.43C11.735 35.772 7.724 32.01 3.494 26.86"/></svg>