<svg xmlns="http://www.w3.org/2000/svg" viewBox="0 -123.32 73.71 78.775"><path fill="#4dabcf" d="m31.324-107.31-13.159-6.642-14.447 7.209 13.518 6.787zm6.036 3.045 13.798 6.968-14.315 7.187-13.539-6.797zm18.43-9.588 14.177 7.11-12.681 6.366-13.826-6.975zm-6.103-3.062-12.763-6.401-12.624 6.302 13.152 6.631zM39.71-61.958v17.417l15.46-7.716-.014-17.424zm15.439-13.804-.018-17.24-15.421 7.667v17.246zm18.561-3.229v17.484l-13.188 6.578-.011-17.403zm0-6.114v-17.133l-13.213 6.567.011 17.275z"/><path fill="#4d77cf" d="m34.252-85.339-10.413-5.239v22.627s-12.738-27.1-13.915-29.535c-.152-.315-.776-.659-.936-.744C6.692-99.428 0-102.816 0-102.816v39.99l9.258 4.962v-20.912s12.6 24.215 12.731 24.481c.131.265 1.389 2.814 2.743 3.71 1.797 1.195 9.513 5.834 9.513 5.834z"/></svg>