<svg xmlns="http://www.w3.org/2000/svg" viewBox="0 0 94.674 91.977"><defs><clipPath id="a"><path d="M0 0h1545v425H0z"/></clipPath><clipPath id="b"><path d="M162.2 209.34h134.32V78.99H162.2z"/></clipPath><clipPath id="c"><path d="M162.2 339.68h134.18V209.33H162.2z"/></clipPath><clipPath id="d"><path d="M296.24 339.68h134.32V78.98H296.24z"/></clipPath><clipPath id="e"><path d="M0 0h1545v425H0z"/></clipPath><clipPath id="f"><path d="M182 209.34h114.5V98.43H182z"/></clipPath><clipPath id="g"><path d="M182 320.25h114.38V209.34H182z"/></clipPath><clipPath id="h"><path d="M296.26 320.25h114.5V98.43h-114.5z"/></clipPath><clipPath id="i"><path d="M218.52 292.08h184.47v-181.5H218.52z"/></clipPath></defs><path fill="#383ce0" d="M94.674 45.992 47.338 91.977.002 45.992 47.338.007z"/><g clip-path="url(#a)" transform="matrix(.35278 0 0 -.35278 -57.221 119.83)"><g clip-path="url(#b)" opacity=".4"><path fill="#0ff" d="M296.38 78.989 162.2 209.339l1.788.001L296.518 80.6z"/></g><g clip-path="url(#c)" opacity=".4"><path fill="#1b1464" d="m296.38 339.68-.136-1.606-132.26-128.74-1.788-.001z"/></g><g clip-path="url(#d)" opacity=".4"><path fill="#0ff" d="m296.38 339.68 134.18-130.35-.894-.869-133.42 129.61z"/><path fill="#1b1464" d="m296.38 78.989.136 1.606 132.26 128.74 1.788.001z"/></g></g><path fill="#383ce0" d="M87.684 45.992 47.333 85.119 6.982 45.992 47.333 6.865z"/><g clip-path="url(#e)" transform="matrix(.35278 0 0 -.35278 -57.221 119.83)"><g clip-path="url(#f)" opacity=".4"><path fill="#0ff" d="M296.38 98.426 182 209.336l1.524.001 112.97-109.55z"/></g><g clip-path="url(#g)" opacity=".4"><path fill="#1b1464" d="m296.38 320.25-.116-1.366-112.74-109.54-1.524-.001z"/></g><g clip-path="url(#h)" opacity=".4"><path fill="#0ff" d="m296.38 320.25 114.38-110.91-.762-.739-113.74 110.28z"/><path fill="#1b1464" d="m296.38 98.426.116 1.366 112.74 109.54 1.524.001z"/></g><g fill="#1a1a5b" clip-path="url(#i)" opacity=".66"><path d="M242.56 113.89h-24.037v163.89c0 6.542 5.304 11.845 11.846 11.845h.346c6.542 0 11.845-5.303 11.845-11.845z"/><path d="m219.72 272.26 22.204 9.375 78.353-153.7c3.226-5.635 1.139-12.744-4.662-15.877s-13.119-1.106-16.345 4.529z"/><path d="m321.62 119.56-21.959 9.497 80.33 155.3c2.7 5.891 9.804 8.54 15.868 5.917s8.791-9.524 6.091-15.414z"/><path d="M320.99 124.95h-24.037v155.29c0 6.542 5.304 11.846 11.846 11.846h.346c6.542 0 11.845-5.304 11.845-11.846z"/><path d="m298.16 274.72 21.007 11.348 79.55-155.67c3.226-5.635 1.139-12.744-4.662-15.877s-13.119-1.106-16.345 4.529z"/></g><g fill="#cee3f0"><path d="M231.17 120.64h-24.037v163.89c0 6.542 5.304 11.845 11.846 11.845h.346c6.542 0 11.845-5.303 11.845-11.845z"/><path d="m208.33 279.02 22.204 9.375 78.353-153.7c3.226-5.635 1.139-12.744-4.662-15.877s-13.119-1.106-16.345 4.529z"/><path d="m310.24 126.31-21.959 9.497 80.33 155.3c2.7 5.891 9.804 8.54 15.868 5.917s8.791-9.524 6.091-15.414z"/><path d="M309.61 131.7h-24.037v155.29c0 6.542 5.304 11.846 11.846 11.846h.346c6.542 0 11.845-5.304 11.845-11.846z"/><path d="m286.77 281.48 21.007 11.348 79.55-155.67c3.226-5.635 1.139-12.744-4.662-15.877s-13.119-1.106-16.345 4.529z"/></g><g fill="#fff"><path d="M217.97 287.78h-.164a5.61 5.61 0 0 1-5.611-5.611v-161.52h11.386v161.52a5.61 5.61 0 0 1-5.611 5.611"/><path d="M300.56 124.83c2.825 1.341 3.996 4.652 2.616 7.397l-79.99 151.96-10.231-4.856 79.991-151.96c1.38-2.744 4.789-3.882 7.614-2.541"/><path d="M297.67 290.24h-.164a5.61 5.61 0 0 1-5.611-5.611v-152.92h11.386v152.92a5.61 5.61 0 0 1-5.611 5.611"/><path d="M379.63 127.9c2.825 1.341 3.996 4.652 2.616 7.397l-79.6 151.87-10.621-4.767 79.991-151.96c1.38-2.744 4.789-3.882 7.614-2.541"/><path d="M380.86 288.51c-2.752 1.478-6.215.509-7.737-2.164l-81.602-149.78a1.595 1.595 0 0 1 .309-1.924l8.552-8.141c.81-.771 2.157-.554 2.668.429l80.038 154.06c1.521 2.673.524 6.037-2.228 7.515"/></g></g></svg>