<svg xmlns="http://www.w3.org/2000/svg" viewBox="0 0 300 200"><path fill="#00dc82" d="M168 200h111c3.542 0 6.932-1.244 10-3s6.23-3.959 8-7 3.002-6.49 3-10.001-1.227-6.959-3-9.998l-75-129c-1.77-3.04-3.933-5.245-7-7s-7.458-3-11-3-6.933 1.245-10 3-5.23 3.96-7 7l-19 33-38-64.002c-1.772-3.04-3.932-6.243-7-7.998s-6.458-2-10-2-6.932.245-10 2S96.772 6.96 95 10L2 170c-1.773 3.039-1.998 6.487-2 9.998s.23 6.96 2 10.001 4.932 5.244 8 7 6.458 3 10 3h70c27.737 0 47.925-12.442 62-36l34-59 18-31 55 94h-73zm-79-32H40l73-126 37 63-24.509 42.725C116.144 163.01 105.488 168 89 168"/></svg>