<svg xmlns="http://www.w3.org/2000/svg" version="1.0" viewBox="0 0 598.48 599.84"><path fill="#fff" d="M277.72.87c132.56-9.192 220.46 55.68 270.72 134.72 25.2 39.63 49.925 99.82 50.039 161.66.122 67.194-21.646 125.38-50.039 168.08-29.182 43.883-66.926 80.128-114.19 103.93-79.006 39.783-189.42 40.871-261.74 2.566C91.968 529.168 30.04 468.286 7 362.686c-9.222-42.256-10.282-96.855 2.566-143.7 3.015-10.989 8.494-22.554 12.831-33.359 20.842-51.924 56.317-97.076 100.08-128.31 17.584-12.548 38.916-25.028 57.737-33.359C203.632 13.593 243.06 3.268 277.725.864z"/><path d="M529.18 304.72c0 125.29-101.57 226.85-226.85 226.85S75.48 430.01 75.48 304.72c0-125.28 101.56-226.85 226.85-226.85 125.28 0 226.85 101.57 226.85 226.85"/><path d="M277.72.87c132.56-9.192 220.46 55.68 270.72 134.72 25.2 39.63 49.925 99.82 50.039 161.66.122 67.194-21.646 125.38-50.039 168.08-29.182 43.883-66.926 80.128-114.19 103.93-79.006 39.783-189.42 40.871-261.74 2.566C91.968 529.168 30.04 468.286 7 362.686c-9.222-42.256-10.282-96.855 2.566-143.7 3.015-10.989 8.494-22.554 12.831-33.359 20.842-51.924 56.317-97.076 100.08-128.31 17.584-12.548 38.916-25.028 57.737-33.359C203.632 13.593 243.06 3.268 277.725.864zm-44.907 21.812c-49.239 12.766-85.342 35.637-116.76 60.303-45.299 35.568-74.177 85.203-91.096 144.98-18.823 66.508-6.732 146.99 19.246 197.59 26.939 52.472 63.11 93.203 114.19 121.89 49.695 27.908 119.59 45.828 192.46 32.076 64.74-12.218 113.91-40.42 153.96-82.115 53.592-55.785 96.665-158.53 68.002-266.87-7.662-28.955-17.679-59.133-33.36-84.68-8.472-13.803-20.904-27.38-33.359-41.058-47.006-51.62-122.98-96.104-220.68-89.813-18.594 1.197-34.935 3.117-52.605 7.7z"/><path fill="none" stroke="#fff" stroke-width="2" d="m316.05 576.79 262.14-262.13M293.13 556.03l263.28-263.28M270.22 535.27l264.42-264.42M247.3 514.51l265.57-265.56m-288.49 244.8L491.1 227.04M201.47 473l267.85-267.86m-290.77 247.1 269-269M155.63 431.48l270.15-270.15M132.72 410.72 404 139.43M109.8 389.96l272.43-272.43M86.88 369.2 360.46 95.62M63.97 348.44 338.69 73.72M41.05 327.68 316.92 51.82M18.13 306.92l277.01-277M18.04 309.58l267.38 267.39M39.73 287.59 307.62 555.5M61.41 265.6l268.42 268.42M83.09 243.6l268.94 268.95M104.77 221.61l269.46 269.47M126.46 199.62l269.98 269.99m-248.3-291.99 270.5 270.51m-248.82-292.5 271.02 271.03M191.5 133.64l271.55 271.54M213.19 111.65l272.06 272.06M234.87 89.65l272.58 272.59M256.55 67.66l273.11 273.11M278.24 45.67l273.62 273.62M299.92 23.67l274.14 274.15"/><path d="M490.71 106.08c-23.593-23.593-52.599-44.853-87.247-57.737-35.914-13.355-76.54-24.612-124.46-20.529-76.326 6.506-129.92 40.751-170.64 80.832-28.528 28.073-49.987 62.474-64.152 102.64-20.798 58.981-19.536 128.6 3.849 188.61 19.947 51.187 52.595 92.473 98.794 124.46 43.431 30.067 105.76 53.386 175.78 47.473 85.272-7.202 147.66-50.95 188.61-101.36 10.476-12.896 20.892-27.473 26.943-44.906 5.929-12.561 8.831-21.1 11.548-25.661 11.372-25.482 17.397-52.368 19.245-82.114 5.685-91.492-29.517-162.96-78.263-211.7zm-25.131 278.75c-.163.348-.309.672-.479 1.031-4.23 12.105-11.517 22.227-18.841 31.183-28.634 35.004-72.263 65.382-131.9 70.384-48.961 4.104-92.552-12.087-122.92-32.965-26.392-18.143-46.454-40.601-60.522-67.591-.858-1.624-9.028-20.447-9.052-21.275-11.145-34.569-12.112-90.155-.673-123.51 7.634-22.263 20.357-46.351 37.208-65.435 23.266-26.351 46.549-43.236 83.398-55.171 16.825-5.45 31.887-10.997 52.604-11.547 50.52-1.345 101.96 21.338 129.59 46.189 25.384 22.837 54.314 67.322 61.587 109.06 7.485 42.957-.503 84.898-19.999 119.65z"/><path fill="#fff" stroke="#000" stroke-width="6" d="M377.77 426.03c-12.44 0-23.357-7.878-27.167-19.604l-13.856-42.218h-69.315l-12.874 41.833c-3.886 11.954-14.886 19.956-27.39 19.956-3.002 0-5.984-.475-8.863-1.409-14.946-4.487-23.431-20.574-18.852-35.84l58.506-185.32c3.799-11.789 14.983-20.012 27.2-20.012h31.11c12.286 0 23.469 8.083 27.194 19.657l61.529 185.25c4.92 15.146-3.227 31.405-18.151 36.263a29.3 29.3 0 0 1-9.071 1.443z"/><path fill="#fff" d="m148 124.35-.073-.099c-7.296-9.999-5.155-23.987 5.59-31.829 10.745-7.84 24.548-5.64 31.844 4.358l.073.1c7.296 9.998 5.155 23.987-5.59 31.828s-24.548 5.641-31.844-4.358m27.657-20.183-.073-.099c-3.666-5.024-10.492-6.752-15.814-2.868-5.273 3.848-5.683 10.703-2.017 15.728l.073.1c3.667 5.023 10.492 6.751 15.765 2.903 5.323-3.884 5.733-10.739 2.066-15.764m42.683-45.35 10.965-3.518 30.739 35.734-12.197 3.913-5.342-6.37-15.833 5.08-.58 8.271-11.962 3.838zm18.04 21.958-8.318-10.202-.889 13.156zm43.42-11.208.096-24.203 12.132.048-.095 23.957c-.025 6.22 3.104 9.188 7.908 9.208s7.956-2.8 7.979-8.836l.097-24.264 12.132.048-.095 23.895c-.055 13.918-8.023 19.984-20.279 19.935s-19.928-6.3-19.875-19.788m84.06-4.229-12.368-3.775 3.056-10.013 36.163 11.037-3.056 10.013-12.368-3.774-9.527 31.216-11.426-3.487zm59.15 11.221 9.946 6.62-8.938 13.431 12.766 8.496 8.939-13.433 9.946 6.62-23.883 35.888-9.947-6.619 9.076-13.638-12.767-8.496-9.075 13.638-9.946-6.619zm35.14 392.32.076.097c7.674 9.713 6.068 23.775-4.37 32.021s-24.316 6.574-31.99-3.139l-.076-.097c-7.674-9.714-6.067-23.775 4.37-32.02s24.316-6.575 31.99 3.138m-26.869 21.227.076.097c3.856 4.881 10.743 6.347 15.914 2.262 5.122-4.047 5.271-10.913 1.414-15.794l-.076-.097c-3.855-4.88-10.743-6.347-15.865-2.3-5.171 4.085-5.319 10.951-1.463 15.832M390.71 537.18l-10.8 3.997-32.282-34.346 12.013-4.447 5.618 6.13 15.594-5.772.215-8.288 11.782-4.36zm-18.989-21.142 8.759 9.825.309-13.182zM328.89 528.98l1.067 24.18-12.12.534-1.057-23.933c-.274-6.214-3.542-9.028-8.341-8.816s-7.812 3.181-7.546 9.21l1.07 24.24-12.12.535-1.054-23.87c-.614-13.905 7.054-20.347 19.297-20.887s20.209 5.333 20.804 18.807m-84.22 7.91 12.487 3.371-2.729 10.108-36.511-9.855 2.729-10.109 12.487 3.371 8.507-31.516 11.536 3.114zm-59.02-8.78-10.249-6.142 8.295-13.84-13.153-7.885-8.295 13.841L152 507.942l22.164-36.979 10.248 6.143-8.422 14.052 13.154 7.884 8.422-14.052 10.248 6.143z"/></svg>