<svg xmlns="http://www.w3.org/2000/svg" fill="none" viewBox="0 0 45.987 40"><path fill="#fff" d="M23.859 35.239c-.091-.364.091-.82-.091-1.184-.091-.364-.364-.364-.455-.637-.365-.729-.82-1.548-.82-2.459 0-.729-.273-1.457-.364-2.186v-1.092c0-.182 0-.365-.091-.547 0-.09 0-.273-.091-.273l.09-.273c0-.091.82-.091 1.093-.091.456 0 .82 0 1.275.091.911 0 1.64 0 2.55-.091 1.912-.273 2.732-1.093 3.187-1.366 1.73-1.184 2.55-3.278 2.55-3.278.273-.638.273-1.822.91-2.277.73-.637 1.913-.546 2.733-.91.455-.183.82-.365 1.366-.274.364.091 1.001.547 1.183-.09q-.136-.138-.273-.274c.729-.091 0-1.64-.273-2.003-.455-.456-1.093-.729-1.821-.911-.91-.273-1.73-.546-2.55-.364-1.457.273-1.366-.547-2.186-.547-1.001 0-2.823.091-3.187 1.093-.182.455-.273.455-.546.82-.182.273 0 .546-.091.91-.091.365-.273 1.64-.456 2.095-.273.728-.637 1.639-1.274 1.639-.911.091-1.64.182-2.368-.091-.455-.182-1.184-.455-1.548-.547-1.73-.728-2.004-1.457-2.004-1.457-.182-.273-.637-.82-.82-1.457-.181-.728-.546-1.274-.637-1.639-.182-.364-.455-1.001-.728-1.639-.364-.82-.82-1.457-1.184-1.73-.546-.455-1.002-1.184-2.094-1.002-.182 0-.91.091-1.457.547-.365.273-.456.91-.82 1.457-.182.273-.546 1.183-.82 1.912-.182.546-.273.91-.546 1.093-.182.182-.364.364-.637.273l-.547-.273c-.273-.182-.82-1.184-1.184-1.822-.273-.637-.91-1.548-1.274-2.003-.547-.728-.82-.91-1.64-.91-1.639 0-1.82.91-2.55 2.276-.364.637-.455 1.548-1.092 2.277C2.004 16.389.82 18.119 0 18.392V30.96v-.09c.091-.183.091-.365.182-.456.365-.638 1.093-1.275 1.457-2.004.183-.364.456-.728.638-1.183.09-.274.182-.82.364-1.093.182-.364.546-.455.91-.546.638-.092 1.094.82 1.822 1.183.273.182 1.73.638 2.186.729.728.182 1.457.273 2.185.455.364.091.729.091 1.184.182.364 0 1.73.091 1.73.182-.637.365-1.093 1.275-1.366 2.004s-.455 1.548-.728 2.185c-.365.729-1.093 1.093-1.002 2.004 0 .364.09.728 0 1.092-.091.456-.273.73-.364 1.184-.183.547-.365 2.277-.547 2.732l1.457-.182c.182-.364.273-2.003.365-2.185a5.95 5.95 0 0 1 1.183-2.095c.547-.637.547-1.366.82-2.094.364-.82.82-1.366 1.275-2.095.82-1.275 1.366-3.005 3.005-3.37.182 0 1.184.73 1.639 1.185.546.546 1.093 1.093 1.457 1.821.637 1.366 1.275 3.37 1.457 4.371.091.638.182.638.637 1.184.183.182.547.91.729 1.184.091.273.364.91.455 1.275.091.182.365.82.547 1.366h1.366c-.547-1.549-1.002-3.097-1.184-4.645z"/><path fill="url(#a)" d="M23.13 38.428c-.182-.364-.364-1.002-.455-1.275s-.547-1.002-.729-1.184c-.455-.455-.546-.546-.637-1.184-.182-1.092-.82-3.096-1.457-4.37-.365-.729-.91-1.275-1.457-1.822-.456-.455-1.457-1.184-1.64-1.184-1.73.365-2.185 2.004-3.005 3.37-.455.728-.91 1.366-1.274 2.094-.365.729-.274 1.548-.82 2.095a6 6 0 0 0-1.184 2.094c-.09.182-.182 1.821-.364 2.186l2.55-.182c2.367.182 1.639 1.092 5.372.91l5.828-.182c-.364-.546-.637-1.184-.728-1.366"/><path fill="url(#b)" d="M40.068 0H5.737C2.55 0 0 2.64 0 5.828v12.658c.82-.364 2.003-2.094 2.368-2.55.637-.728.728-1.73 1.092-2.276.729-1.366.911-2.277 2.55-2.277.82 0 1.093.182 1.64.91.364.456 1.001 1.367 1.274 1.913.364.729.91 1.64 1.184 1.821q.273.273.546.273c.274.091.456-.09.638-.273.273-.182.364-.546.546-1.093.273-.728.638-1.639.82-1.912.364-.546.455-1.184.82-1.457.546-.455 1.183-.455 1.456-.546 1.093-.182 1.548.546 2.095 1.001.364.274.82.911 1.184 1.73.273.638.637 1.276.728 1.64s.455.91.638 1.639c.182.637.637 1.093.82 1.457 0 0 .272.82 2.003 1.457.364.182 1.092.364 1.548.546.728.274 1.457.274 2.367.091.638 0 1.002-.91 1.275-1.639.182-.455.364-1.73.455-2.094s-.182-.638.091-.91c.274-.365.365-.365.547-.82.273-1.002 2.185-1.093 3.187-1.093.82 0 .729.82 2.186.546.82-.182 1.639.091 2.55.364.728.183 1.456.456 1.82.911.274.273.911 1.912.274 2.003.09.092.09.183.273.274-.182.637-.82.182-1.184.09-.455-.09-.82 0-1.366.274-.82.364-2.094.364-2.732.91-.637.547-.637 1.64-.91 2.277 0 0-.82 2.095-2.55 3.278-.455.365-1.275 1.093-3.187 1.366-.82.091-1.64.182-2.55.091-.455 0-.82 0-1.275-.09-.273 0-1.093 0-1.093.09l-.09.274c0 .09 0 .273.09.273 0 .182 0 .364.091.546v1.093c0 .728.274 1.457.365 2.185 0 .82.455 1.73.82 2.46.181.272.363.272.455.637.09.364 0 .728.09 1.183a13.8 13.8 0 0 0 1.367 4.554c.82-.183 1.73-.456 2.822-.638 2.004-.273 4.827-.182 6.648-.273 4.553-.455 7.103 1.912 11.201.91V5.829C45.897 2.64 43.347 0 40.068 0z"/><path fill="url(#d)" d="M10.563 32.508c.364-.728.546-1.457.729-2.185.273-.729.637-1.64 1.366-2.004-.092-.091-1.457-.182-1.73-.182-.365 0-.73-.091-1.184-.182-.729-.182-1.549-.273-2.186-.455-.455-.091-1.821-.638-2.185-.729-.729-.364-1.184-1.275-1.822-1.184-.364.091-.728.182-.91.547-.183.273-.274.82-.365 1.183-.182.365-.364.82-.637 1.184-.455.729-1.184 1.366-1.457 2.004-.091.182-.091.273-.182.455v7.831c.364.091.728.183 1.184.274 3.187.82 4.006.91 7.194.546h.273c.273-.546.455-2.186.546-2.732.091-.364.273-.728.364-1.184.091-.364 0-.728 0-1.092-.09-1.002.638-1.366 1.002-2.095"/><defs><linearGradient id="a" x1="16.835" x2="16.835" y1="27.436" y2="39.999" gradientUnits="userSpaceOnUse"><stop offset="0" stop-color="#F29100"/><stop offset="1" stop-color="#EC670F"/></linearGradient><linearGradient id="b" x1="22.941" x2="22.941" y1=".019" y2="40.024" gradientUnits="userSpaceOnUse"><stop offset="0" stop-color="#F29100"/><stop offset="1" stop-color="#EC670F"/></linearGradient><linearGradient id="d" x1="6.325" x2="6.325" y1="25.565" y2="39.747" gradientUnits="userSpaceOnUse"><stop offset="0" stop-color="#F29100"/><stop offset="1" stop-color="#EC670F"/></linearGradient></defs></svg>