<svg xmlns="http://www.w3.org/2000/svg" viewBox="0 0 18.43 12.05"><path d="M11.91 12.89a18 18 0 0 1 1.62-.59l.42-.12c2.12-.59 4.27-.75 6.35-.52V9.49c-2.3-.23-4.67-.03-7.02.63l-.42.12c-.18.06-.37.12-.55.18-.36.12-.72.26-1.07.4l.67 2.06z" style="fill:#07c846" transform="translate(-1.87 -.84)"/><path d="M20.29 2.46v6.49c-2.39-.23-4.85-.02-7.27.69-.3.09-.59.18-.89.28-.36.12-.72.24-1.07.34-3.06.9-6.16 1.22-9.18 1V4.77c2.36.23 4.79.02 7.18-.66.33-.09.65-.2.98-.31s.66-.22.98-.32c3.09-.92 6.22-1.24 9.27-1.03z" style="fill:#0181fd" transform="translate(-1.87 -.84)"/><path d="M10.26.84a18 18 0 0 1-1.62.59l-.42.12c-2.12.59-4.27.75-6.35.52v2.17c2.3.23 4.67.03 7.02-.63l.42-.12c.18-.06.37-.12.55-.18.36-.12.72-.26 1.07-.4L10.26.85z" style="fill:#ffa005" transform="translate(-1.87 -.84)"/></svg>