<svg xmlns="http://www.w3.org/2000/svg" viewBox="0 0 345.71 339.63"><path fill="#db2852" d="M112.62 339.58a26.2 26.2 0 0 1-17.32-45.87c19.07-16.78 22.56-28.33 27-43 4.73-15.65 10.63-35.14 34.19-54.28a26.2 26.2 0 1 1 33 40.67c-11.1 9-13.22 16-17.07 28.77-5.17 17.08-12.24 40.47-42.52 67.13a26.1 26.1 0 0 1-17.28 6.58"/><path fill="#d31543" d="M178.14 250.36c-2.15 4.06-3.57 8.52-5.26 14.09l-.45 1.47c-1.16 3.84-2.42 8-4 12.42-5.5 15.33-15 34-38.51 54.71a26.16 26.16 0 0 1-21.75 6.15 26.1 26.1 0 0 0 12.84-6.15c30.28-26.65 37.35-50 42.52-67.13l.45-1.47a90 90 0 0 1 4.46-12.48c.24-.53.5-1 .77-1.56 1.22 0 2.45.06 3.68.06q2.63 0 5.25-.11"/><g fill="#db2852" transform="translate(.38 -2.71)"><path d="M232.76 342.29a26.1 26.1 0 0 1-17.3-6.53c-30.28-26.65-37.35-50-42.52-67.13-3.85-12.74-6-19.76-17.07-28.77a26.2 26.2 0 0 1 33-40.67c23.57 19.14 29.46 38.62 34.19 54.28 4.42 14.62 7.92 26.18 27 43a26.2 26.2 0 0 1-17.32 45.87z"/><path d="M68.71 282.95c-18 0-37.32-7.31-57.71-21.85a26.2 26.2 0 1 1 30.4-42.67c12.6 8.95 23.39 13.27 29.73 11.87 8.22-1.82 16.19-15.87 22-26.12 3.8-6.69 7.38-13 11.88-18.23 12.73-14.79 28.62-15 39.24-10.24a26.2 26.2 0 0 1-2.32 48.74c-1.07 1.81-2.23 3.86-3.22 5.59-4.63 8.16-10.39 18.31-18.33 27.54-10.94 12.71-23.7 20.74-37.92 23.89a63.5 63.5 0 0 1-13.75 1.48m207.58 0a63.4 63.4 0 0 1-13.74-1.49c-14.22-3.15-27-11.18-37.92-23.89-7.95-9.22-13.71-19.38-18.33-27.54-1-1.73-2.15-3.78-3.22-5.59a26.2 26.2 0 0 1-2.32-48.74c10.62-4.75 26.5-4.55 39.24 10.24 4.5 5.22 8.08 11.54 11.88 18.23 5.82 10.26 13.79 24.3 22 26.12 6.33 1.4 17.17-2.92 29.73-11.87A26.2 26.2 0 1 1 334 261.1c-20.39 14.53-39.74 21.85-57.71 21.85"/><circle cx="172.5" cy="127.95" r="125.23"/></g><g fill="#d31543"><path d="M334.38 258.39c-20.39 14.54-39.75 21.85-57.72 21.85q-2.23 0-4.43-.15c16.69-1.11 34.53-8.36 53.24-21.7a26.2 26.2 0 0 0-10.75-47.15 26.2 26.2 0 0 1 19.66 47.15m-36.27-133.15a124.84 124.84 0 0 1-37.73 89.63q-2.58 2.52-5.3 4.88a125.3 125.3 0 0 1-34.61 21.37q-2.2.9-4.44 1.72-1.73.64-3.48 1.22t-3.79 1.2a124.8 124.8 0 0 1-30.58 5.09q-2.62.11-5.26.11c-1.23 0-2.46 0-3.68-.06l-1.58-.05h-1l1-.05 1.77-.12q4.79-.34 9.48-1a124 124 0 0 0 27.47-7.45q2.37-.94 4.7-2 1.16-.51 2.29-1c1.77-.83 3.53-1.7 5.25-2.61a125.5 125.5 0 0 0 31.37-23.44q2.77-2.84 5.35-5.84A125.23 125.23 0 0 0 166.59.16q3.13-.16 6.29-.16a125.23 125.23 0 0 1 125.23 125.24"/><path d="M252.82 330.69a26.22 26.22 0 0 1-24.13 8.5 26.19 26.19 0 0 0 12.87-45.48c-17.46-15.37-21.87-26.36-25.88-39.34-.37-1.19-.73-2.39-1.11-3.63-.65-2.16-1.33-4.39-2.06-6.69q1.75-.58 3.48-1.22a120 120 0 0 0 8.59 11.53 98 98 0 0 0 4.81 13c3.79 8.1 9.63 16.29 21.07 26.36a26.2 26.2 0 0 1 2.36 36.97m-127.49-89.57c-1.15 3.33-2.12 6.55-3 9.63q-.555 1.845-1.11 3.63l-.41.49a82.7 82.7 0 0 1-13.3 12.49 64.4 64.4 0 0 1-24.62 11.4 63.5 63.5 0 0 1-13.74 1.49c-1.48 0-3 0-4.47-.15a63 63 0 0 0 9.31-1.34c14.22-3.15 27-11.19 37.93-23.89l.41-.49a119 119 0 0 0 7.9-10.48q1.31-1.95 2.54-3.89 1.23.57 2.56 1.11"/></g><g fill="#ffa5b1" transform="translate(.38 -2.71)"><ellipse cx="322.1" cy="255.27" rx="10.22" ry="7.34" transform="rotate(-27.87 322.123 255.056)"/><ellipse cx="290.66" cy="270.47" rx="10.22" ry="7.34" transform="rotate(-11.88 290.465 270.277)"/><ellipse cx="219.4" cy="324.44" rx="7.34" ry="10.22" transform="rotate(-53 219.22 324.253)"/><ellipse cx="194.77" cy="293.52" rx="7.34" ry="10.22" transform="rotate(-30 194.753 293.534)"/><ellipse cx="22.91" cy="255.27" rx="7.34" ry="10.22" transform="rotate(-62.1 22.958 255.253)"/><ellipse cx="54.34" cy="270.47" rx="7.34" ry="10.22" transform="rotate(-78.12 54.328 270.358)"/><ellipse cx="125.61" cy="324.44" rx="10.22" ry="7.34" transform="rotate(-37 125.637 324.408)"/><ellipse cx="150.23" cy="293.52" rx="10.22" ry="7.34" transform="rotate(-60 150.236 293.531)"/></g><path fill="#2276bc" d="M139.65 80.72h66.13c27.86 0 32.21 17.57 32.21 32.21 0 18.83-7 41.21-40.2 41.21-25.78 0-40.44-19.66-45.75-41.75-1.77-7.35-3.9-29.12 4.4-31.45"/><path fill="#1a598d" d="M197.8 155.71c-23.14 0-40.81-16.06-47.27-42.95-1-4.14-3.84-23 1.59-30.48h-12.47a1.57 1.57 0 1 1 0-3.13h66.13c22.73 0 33.78 11.05 33.78 33.78.01 19.52-7.24 42.78-41.76 42.78m-40.53-73.42a1.6 1.6 0 0 1-.4.17c-6.31 1.77-5.48 20.46-3.29 29.57 6.1 25.39 22.64 40.55 44.23 40.55 31.93 0 38.63-21.56 38.63-39.65 0-13.16-3.18-30.65-30.65-30.65z"/><path fill="#2276bc" d="M146.11 80.72H79.97c-27.86 0-32.21 17.57-32.21 32.21 0 18.83 7 41.21 40.2 41.21 25.78 0 40.44-19.66 45.75-41.75 1.77-7.35 3.9-29.12-4.4-31.45"/><path fill="#1a598d" d="M87.96 155.71c-34.52 0-41.77-23.26-41.77-42.78 0-22.73 11.05-33.78 33.78-33.78h66.13a1.57 1.57 0 1 1 0 3.13h-12.46c5.43 7.52 2.58 26.34 1.59 30.48-6.46 26.89-24.14 42.95-47.27 42.95m-7.99-73.42c-27.47 0-30.65 17.49-30.65 30.65 0 18.09 6.7 39.65 38.63 39.65 21.59 0 38.12-15.16 44.23-40.55 2.19-9.11 3-27.8-3.3-29.57a1.6 1.6 0 0 1-.4-.17z"/><path fill="#1a598d" d="M150.19 104.11h-15.13a1.57 1.57 0 0 1 0-3.13h15.13a1.57 1.57 0 0 1 0 3.13"/><path fill="#fff" d="M56.61 105.76a4 4 0 0 1-.78-.08 3.92 3.92 0 0 1-3.07-4.61c1.79-8.89 9.12-15.15 19.13-16.34a3.92 3.92 0 0 1 .92 7.78c-6.73.8-11.24 4.48-12.37 10.1a3.92 3.92 0 0 1-3.83 3.15m120.56-13.22h-17.09a3.92 3.92 0 0 1 0-7.84h17.09a3.92 3.92 0 0 1 0 7.84"/><path d="M213.96 72.8a3.9 3.9 0 0 1-2.76-1.13 24.36 24.36 0 0 0-21.92-6.12 3.927 3.927 0 0 1-1.9-7.62 32.11 32.11 0 0 1 29.32 8.16 3.92 3.92 0 0 1-2.76 6.7zm-142.16 0a3.92 3.92 0 0 1-2.76-6.7 32.12 32.12 0 0 1 29.34-8.17 3.92 3.92 0 1 1-1.89 7.61 24.35 24.35 0 0 0-21.92 6.12 3.9 3.9 0 0 1-2.77 1.14m71.08 111.68c-9.75 0-19.5-1.9-26.08-5.7a3.92 3.92 0 1 1 3.92-6.79c10.77 6.22 33.55 6.22 44.32 0a3.92 3.92 0 0 1 3.92 6.79c-6.58 3.8-16.33 5.7-26.08 5.7"/></svg>