<svg xmlns="http://www.w3.org/2000/svg" viewBox="0 0 17 22.001"><path d="M4.405.09c.216.085.411.225.588.41.295.306.544.744.734 1.263.191.522.315 1.1.362 1.68a5.05 5.05 0 0 1 2.05-.636l.05-.004c.87-.07 1.73.087 2.48.474q.151.08.297.17a6.4 6.4 0 0 1 .36-1.644c.19-.52.44-.957.733-1.264a1.7 1.7 0 0 1 .59-.41c.256-.1.53-.118.795-.042.401.114.745.368 1.016.737.248.337.434.77.561 1.287.23.934.27 2.163.115 3.645l.053.04.026.02c.757.575 1.284 1.396 1.563 2.35.435 1.486.216 3.154-.534 4.087l-.018.021.002.003c.417.762.67 1.567.724 2.4l.002.03c.064 1.065-.2 2.137-.814 3.19l-.007.01.01.024c.472 1.157.62 2.322.438 3.486l-.006.04a.65.65 0 0 1-.747.535.65.65 0 0 1-.54-.742c.167-1.033.01-2.069-.48-3.123a.64.64 0 0 1 .04-.617l.004-.006c.604-.924.854-1.83.8-2.72-.046-.779-.325-1.544-.8-2.273a.644.644 0 0 1 .18-.886l.01-.006c.242-.159.466-.565.58-1.12a4.2 4.2 0 0 0-.096-1.974c-.205-.7-.58-1.284-1.105-1.683-.595-.454-1.383-.673-2.38-.61a.65.65 0 0 1-.632-.37c-.314-.666-.772-1.142-1.343-1.437a3.3 3.3 0 0 0-1.772-.332c-1.245.1-2.343.801-2.67 1.686a.65.65 0 0 1-.61.425c-1.067.002-1.893.252-2.497.703-.522.39-.878.935-1.066 1.588a4.1 4.1 0 0 0-.068 1.886c.112.558.331 1.02.582 1.27l.008.006c.212.207.257.53.11.785-.36.622-.63 1.55-.674 2.44-.05 1.018.186 1.902.72 2.536l.015.02a.64.64 0 0 1 .095.69c-.576 1.235-.753 2.251-.562 3.051a.652.652 0 0 1-1.269.298C.165 20.46.33 19.293.881 17.98l.014-.035-.008-.012a4.3 4.3 0 0 1-.598-1.309l-.005-.019a5.8 5.8 0 0 1-.177-1.785c.044-.91.278-1.842.622-2.59l.012-.026-.002-.002c-.293-.418-.51-.953-.63-1.545l-.005-.024a5.35 5.35 0 0 1 .093-2.49c.262-.915.777-1.7 1.536-2.269q.09-.068.186-.132c-.159-1.493-.119-2.73.112-3.67.127-.518.314-.95.562-1.287.27-.368.614-.622 1.015-.737.266-.076.54-.059.797.042m4.116 9.09c.936 0 1.8.313 2.446.855.63.527 1.005 1.235 1.005 1.94 0 .888-.406 1.58-1.133 2.022-.62.375-1.45.557-2.403.557-1.009 0-1.87-.259-2.493-.734-.617-.47-.963-1.13-.963-1.845 0-.707.398-1.417 1.056-1.946.668-.537 1.55-.849 2.485-.849m0 .896a3.07 3.07 0 0 0-1.916.65c-.46.37-.722.835-.722 1.25 0 .428.21.83.61 1.134.455.347 1.124.548 1.943.548.8 0 1.473-.147 1.932-.426.463-.28.7-.686.7-1.257 0-.423-.246-.89-.683-1.256-.484-.405-1.14-.643-1.864-.643m.662 1.21.004.004c.12.151.095.37-.056.49l-.292.23v.446a.375.375 0 0 1-.376.373.375.375 0 0 1-.376-.373v-.46l-.27-.218a.347.347 0 0 1-.053-.49.353.353 0 0 1 .494-.05l.215.171.22-.174a.353.353 0 0 1 .49.051m-5.04-1.919a.87.87 0 0 1 .867.871.87.87 0 0 1-.868.871.87.87 0 0 1-.867-.87.87.87 0 0 1 .867-.872zm8.706 0c.48 0 .868.39.868.871a.87.87 0 0 1-.868.871.87.87 0 0 1-.867-.87.87.87 0 0 1 .867-.872M3.94 1.3l-.003.002a.66.66 0 0 0-.285.238l-.005.006c-.138.19-.258.467-.348.832-.17.692-.216 1.631-.124 2.782q.646-.193 1.404-.237h.01l.02-.035a3 3 0 0 1 .147-.239c.123-.77.022-1.692-.253-2.444-.134-.364-.297-.65-.453-.813a.6.6 0 0 0-.107-.09zm9.174.04-.002.001a.6.6 0 0 0-.107.09c-.156.163-.32.45-.453.814-.29.794-.387 1.776-.23 2.572l.058.097.008.014h.03a5.2 5.2 0 0 1 1.466.212c.086-1.124.038-2.043-.128-2.722-.09-.365-.21-.643-.349-.832l-.004-.006a.66.66 0 0 0-.285-.239h-.004z"/></svg>