<svg xmlns="http://www.w3.org/2000/svg" viewBox="0 0 76.907 73.259"><path fill="#fff" d="m57.412 19.153-18.78 20.99V.373z"/><path fill="#d1d1d1" d="m57.412 19.153-12.11 13.4-6.67-13.4"/><path fill="#b2b2b2" d="m38.632.373 18.77 18.78h-18.77z"/><path fill="#fff" d="m24.062 15.783 14.17 24.34-37.83-12.29z"/><path fill="#d1d1d1" d="m24.062 15.783 9.01 15.65-14.81 2.2"/><path fill="#b2b2b2" d="m.402 27.833 23.66-12.05-5.8 17.85z"/><path fill="#fff" d="m10.552 46.443 27.53-5.94-23.38 32.17z"/><path fill="#d1d1d1" d="m10.552 46.443 17.67-3.73-2.48 14.77"/><path fill="#b2b2b2" d="m14.702 72.673-4.15-26.23 15.19 11.03c0 .01-10.96 15.1-11.04 15.2"/><path fill="#fff" d="m35.552 68.773 2.85-28.02 23.37 32.18z"/><path fill="#d1d1d1" d="m35.552 68.773 1.91-17.96 13.27 6.92"/><path fill="#b2b2b2" d="m61.772 72.933-26.23-4.16 15.19-11.03c0-.01 10.97 15.09 11.04 15.19"/><path fill="#fff" d="m64.502 51.903-25.76-11.37 37.82-12.29z"/><path fill="#d1d1d1" d="m64.502 51.903-16.49-7.37 10.69-10.49"/><path fill="#b2b2b2" d="m76.562 28.243-12.06 23.66-5.8-17.85c0-.01 17.74-5.77 17.86-5.81"/><path fill="#333" d="M76.792 27.853a.49.49 0 0 0-.52-.15l-.02.01-36.46 11.85 17.87-19.98v-.01a.2.2 0 0 0 .05-.07s0-.01.01-.01c.01-.02.02-.03.03-.05v-.01c0-.01.01-.02.01-.03.01-.02.01-.04.01-.05v-.11c0-.03 0-.05-.01-.08 0-.01 0-.01-.01-.02-.01-.02-.01-.04-.02-.06 0-.01-.01-.02-.01-.03-.01-.02-.02-.03-.03-.05 0-.01-.01-.02-.01-.02-.02-.02-.03-.05-.05-.07L38.862.143a.5.5 0 0 0-.53-.11c-.18.08-.3.25-.3.45v38.36l-13.47-23.17v-.01a.3.3 0 0 0-.05-.07l-.05-.05s-.01 0-.01-.01c-.01-.01-.02-.01-.02-.02-.02-.01-.03-.02-.05-.03-.01 0-.02-.01-.03-.01-.02-.01-.04-.02-.06-.02-.01 0-.01 0-.02-.01-.03-.01-.05-.01-.08-.02h-.11c-.02 0-.04.01-.06.01-.01 0-.02 0-.03.01-.03.01-.05.02-.08.03L.262 27.543a.48.48 0 0 0-.26.47c.02.2.15.36.33.42l.02.01 36.46 11.85-26.2 5.66h-.01c-.03.01-.05.01-.08.03 0 0-.01 0-.01.01-.02.01-.03.02-.05.03l-.01.01c-.01.01-.02.01-.02.02-.01.01-.03.02-.04.04l-.02.02c-.01.01-.03.03-.04.05 0 .01-.01.01-.01.02-.02.02-.03.05-.04.07 0 .01 0 .01-.01.02-.01.02-.01.04-.02.06 0 .01 0 .02-.01.03 0 .02-.01.04-.01.06v.03c0 .03 0 .06.01.09l4.15 26.23a.488.488 0 0 0 .88.21l.01-.02 22.52-31.06-2.71 26.66v.11c0 .02 0 .04.01.06v.01c0 .01.01.02.01.03.01.02.01.03.02.05 0 .01.01.02.01.03.01.02.02.04.03.05 0 .01.01.01.01.02l.07.07c.02.01.03.03.05.04.01.01.02.01.02.01.02.01.03.02.05.02.01 0 .02.01.03.01.03.01.05.02.08.02l26.23 4.16c.19.03.39-.06.49-.23s.09-.38-.02-.54l-.01-.02-22.53-31.01 24.52 10.82h.01c.03.01.05.02.08.03h.01c.02 0 .04.01.06.01h.13c.02 0 .04-.01.06-.02.01 0 .01 0 .02-.01.03-.01.05-.02.07-.03.01 0 .01-.01.02-.01.02-.01.04-.02.05-.04l.08-.08c.02-.02.03-.05.05-.07l12.06-23.66c.08-.18.05-.39-.07-.54m-31.48 3.96-6.01-12.06h16.9zm10.35-13.49.46.46h-17.12V1.663zm-16.66 3 5.65 11.35-5.65 6.31zm-37.26 6.55 21-10.7.58-.29-5.3 16.28c-2.32-.76-12.82-4.16-16.28-5.29m22.52-10.76 8.11 14.09-13.33 1.98zm8.72 14.97 4.26 7.32-16.8-5.46zm-17.82 39.33-3.68-23.28-.1-.64 13.84 10.07c-1.44 1.98-7.92 10.91-10.06 13.85m-3.28-24.74 15.91-3.36-2.23 13.29zm14.84 8.83 2.1-12.5 8.28-1.79zm34 16.61-23.28-3.69-.64-.1 13.85-10.06c1.44 1.97 7.92 10.9 10.07 13.85m-24.55-4.53 1.72-16.17 11.95 6.23zm1.75-17.25.86-8.43 10.38 14.29zm2.03-9.8 16.8-5.46-9.05 8.88zm8.77 3.78 9.62-9.44 5.22 16.07zm16.03 5.68-.29.58-5.29-16.28c2.33-.76 12.82-4.17 16.29-5.29z"/></svg>