<svg xmlns="http://www.w3.org/2000/svg" fill="#202123" viewBox="0 0 23.68 24"><path fill-rule="evenodd" d="M22.392 7.312a6 6 0 0 1-.273 2.51 6.05 6.05 0 0 1 .747 7.088 5.98 5.98 0 0 1-3.998 2.9A6.05 6.05 0 0 1 13.096 24a5.98 5.98 0 0 1-4.51-2.01 6.05 6.05 0 0 1-6.512-2.902 5.98 5.98 0 0 1-.513-4.91 6.05 6.05 0 0 1-.745-7.09 5.98 5.98 0 0 1 3.998-2.9A6.05 6.05 0 0 1 10.583 0a5.98 5.98 0 0 1 4.51 2.01 6.05 6.05 0 0 1 6.512 2.902c.43.734.699 1.553.787 2.4M10.219 21.39c.808.674 1.732 1.041 2.926 1.041 2.34 0 4.447-1.968 4.447-4.5v-5.577a.07.07 0 0 0-.04-.055l-2.02-1.166v6.736a.78.78 0 0 1-.392.68l-4.779 2.76a3 3 0 0 1-.142.081m-7.32-6.1a4.48 4.48 0 0 0 .536 3.014 4.5 4.5 0 0 0 6.143 1.646l4.831-2.79a.07.07 0 0 0 .029-.06v-2.334l-5.834 3.37a.78.78 0 0 1-.785 0l-4.779-2.76zM4.516 5.9a4.48 4.48 0 0 0-2.34 1.972 4.5 4.5 0 0 0 1.648 6.141l4.83 2.792a.07.07 0 0 0 .069-.006l2.02-1.166-5.834-3.369a.77.77 0 0 1-.392-.68zm8.421 2.465 5.834 3.37a.78.78 0 0 1 .39.678V18.1a4.499 4.499 0 0 0 .695-8.116l-4.83-2.79a.07.07 0 0 0-.069.006zm7.703.256.142.085a4.498 4.498 0 0 0-6.68-4.658l-4.83 2.788a.07.07 0 0 0-.029.062v2.333l5.834-3.37a.78.78 0 0 1 .785 0zm-14.515 3.08 2.02 1.165.003-6.734a.78.78 0 0 1 .393-.68l4.779-2.76c.042-.026.105-.06.142-.08a4.498 4.498 0 0 0-7.377 3.454v5.58a.07.07 0 0 0 .04.055m5.715-2.7-2.598 1.5v3l2.598 1.5 2.599-1.5v-3z"/></svg>