<svg xmlns="http://www.w3.org/2000/svg" fill="none" viewBox="0 0 39.272 27.946">
    <g clip-path="url(#a)">
        <g clip-path="url(#b)">
            <path fill="#ffe165"
                d="M37.725 8.382c-1.254-.802-2.092.427-1.99 2.095l-.01.013c.004-1.742-.223-3.666-.975-5.223-.267-.55-.807-1.457-1.875-1.03-.468.187-.893.751-.674 2.207 0 0 .244 1.527.199 3.448v.027c-.305-5.296-1.455-6.912-3.1-6.808-.526.097-1.245.333-1.003 1.962 0 0 .263 1.699.349 3.051l.005.069h-.005c-.774-2.92-1.815-2.96-2.57-2.846-.684.102-1.432.84-1.054 2.296 1.187 4.567.955 10.067.866 10.854-.242-.539-.317-.966-.653-1.556-1.352-2.373-1.995-2.548-2.784-2.584-.784-.036-1.63.467-1.575 1.423.058.957.526 1.115 1.192 2.449.519 1.037.667 2.397 1.712 4.869.866 2.046 3.129 4.29 7.25 4.024 3.34-.115 8.327-1.33 7.46-9.302-.216-1.386-.054-2.546.059-3.735.176-1.844.434-4.901-.822-5.705zm-20.852 6.031c-.789.052-1.427.238-2.737 2.636-.325.596-.391 1.025-.625 1.567-.103-.786-.432-6.28.673-10.868.351-1.461-.408-2.185-1.094-2.275-.756-.1-1.8-.04-2.521 2.91h-.009l.01-.086c.062-1.354.295-3.057.295-3.057.21-1.633-.51-1.855-1.038-1.943-1.641-.072-2.76 1.55-2.976 6.8h-.003c-.075-1.9.14-3.414.14-3.414.193-1.46-.243-2.015-.715-2.194-1.075-.407-1.6.51-1.855 1.067-.725 1.57-.918 3.498-.883 5.24l-.01-.013c.07-1.67-.788-2.882-2.029-2.057-1.24.827-.928 3.879-.719 5.72.136 1.187.317 2.343.125 3.732-.724 7.988 4.284 9.106 7.625 9.159 4.125.189 6.348-2.101 7.177-4.164 1-2.49 1.126-3.853 1.626-4.9.64-1.345 1.108-1.513 1.148-2.47.04-.956-.816-1.442-1.6-1.392z" />
            <path fill="#000"
                d="M18.525 14.426c-.419-.424-1.047-.649-1.687-.609-1.024.067-1.75.454-2.867 2.345-.03-2.163.087-5.411.773-8.268.258-1.074-.001-1.774-.266-2.173a1.88 1.88 0 0 0-1.317-.839c-.483-.063-1.113-.067-1.728.456l.002-.016c.198-1.535-.314-2.414-1.521-2.613l-.066-.007a2.39 2.39 0 0 0-1.896.748q-.412.423-.721 1.1a1.6 1.6 0 0 0-.765-.62C5.03 3.386 4.235 4.555 3.89 5.3c-.4.868-.65 1.841-.79 2.834l-.086-.058c-.317-.19-.978-.42-1.835.151-1.453.97-1.268 3.754-.979 6.29l.047.404c.124 1.04.24 2.021.08 3.176l-.003.029c-.29 3.205.293 5.67 1.735 7.333 1.387 1.6 3.559 2.432 6.438 2.477q.317.015.617.011c4.92-.047 6.684-3.46 7.118-4.541.56-1.398.852-2.441 1.084-3.28.179-.649.322-1.16.524-1.586.23-.482.432-.796.61-1.073.303-.472.564-.88.595-1.636.023-.548-.158-1.034-.526-1.405zM8.769 4.296a1.27 1.27 0 0 1 1-.401c.35.06.667.148.523 1.264-.01.07-.237 1.748-.298 3.113V8.3c-.319 1.333-.585 3.254-.728 6.06a22 22 0 0 0-1.835.198c-.193-5.694.255-9.147 1.337-10.26zm-3.834 1.52c.434-.938.798-.89 1.136-.763.468.178.395 1.146.341 1.548-.008.064-.217 1.572-.144 3.49a62 62 0 0 0 .017 4.672c-.573.117-1.116.252-1.613.398-.235-.818-1.275-6.013.263-9.344zm12.557 10.99a10 10 0 0 0-.685 1.206c-.25.521-.402 1.08-.6 1.784a28 28 0 0 1-1.04 3.15c-.38.944-1.975 4.01-6.635 3.794-2.597-.04-4.433-.72-5.612-2.08-1.216-1.402-1.702-3.56-1.446-6.412.177-1.304.047-2.408-.08-3.475l-.047-.398c-.14-1.23-.513-4.5.458-5.146.261-.175.475-.215.634-.12.27.16.542.743.503 1.647a.7.7 0 0 0 .012.143c.05 2.107.413 3.941.62 4.63-.34.13-.639.268-.89.405a.606.606 0 0 0-.238.807.57.57 0 0 0 .515.317.55.55 0 0 0 .265-.07c1.41-.773 4.752-1.559 7.698-1.474.32.005.584-.25.592-.58a.59.59 0 0 0-.56-.613q-.264-.006-.532-.005c.295-5.66 1.105-7.507 1.735-8.052.261-.226.51-.244.855-.198a.73.73 0 0 1 .51.33c.186.282.22.7.099 1.208-1.067 4.433-.826 9.646-.704 10.911q-.03.065-.063.131c-.25.485-.713.99-1.265.955a.59.59 0 0 0-.611.56.59.59 0 0 0 .542.633c.933.057 1.813-.535 2.353-1.585q.085-.167.15-.321l.01-.024c.101-.234.175-.448.239-.64.101-.3.188-.56.362-.88 1.237-2.266 1.739-2.299 2.27-2.333.312-.02.622.083.805.27a.64.64 0 0 1 .18.501c-.018.424-.131.6-.405 1.025zm21.564.92c-.18-1.151-.08-2.135.024-3.176q.022-.202.04-.404c.244-2.54.38-5.33-1.092-6.27-.867-.555-1.524-.312-1.838-.118q-.044.029-.087.06c-.158-.99-.423-1.956-.84-2.817-.356-.74-1.17-1.894-2.599-1.32a1.6 1.6 0 0 0-.752.633q-.323-.671-.742-1.086a2.38 2.38 0 0 0-1.908-.712l-.066.008c-1.204.221-1.7 1.11-1.474 2.644 0 0 0 .007.002.013-.623-.512-1.254-.496-1.735-.424a1.9 1.9 0 0 0-1.301.865c-.256.404-.505 1.108-.228 2.176.738 2.845.912 6.09.921 8.254-1.15-1.87-1.883-2.243-2.907-2.29-.638-.028-1.267.211-1.676.642-.36.378-.533.868-.5 1.414.045.755.314 1.158.625 1.623.183.274.39.584.63 1.061.21.422.361.93.553 1.575a28 28 0 0 0 1.143 3.258c.453 1.072 2.279 4.453 7.184 4.405q.299-.003.613-.024c2.895-.099 5.052-.974 6.41-2.6 1.412-1.689 1.952-4.166 1.605-7.365l-.003-.029zM32.769 6.353c-.061-.407-.153-1.372.314-1.558.334-.135.7-.187 1.15.74 1.597 3.303.65 8.518.43 9.339-.5-.137-1.046-.261-1.62-.367.03-1.775.01-3.328-.067-4.672a21.5 21.5 0 0 0-.207-3.482m-3.406-2.646c.406-.018.727.103 1.007.384 1.101 1.093 1.612 4.536 1.52 10.234a22 22 0 0 0-1.838-.164c-.192-2.805-.494-4.718-.837-6.046v-.027c-.085-1.365-.343-3.037-.353-3.102-.166-1.119.15-1.212.5-1.279zm8.552 14.195c.306 2.846-.141 5.014-1.331 6.438-1.155 1.382-2.979 2.099-5.592 2.19-4.634.302-6.289-2.732-6.684-3.669a27 27 0 0 1-1.097-3.13c-.21-.703-.373-1.256-.631-1.773a10 10 0 0 0-.705-1.192c-.281-.42-.398-.595-.424-1.018a.64.64 0 0 1 .17-.505c.182-.19.489-.3.802-.284.532.025 1.033.046 2.312 2.29.181.316.272.574.378.871.07.193.146.407.253.64l.008.02q.07.152.157.318c.56 1.04 1.45 1.616 2.381 1.54a.59.59 0 0 0 .532-.64.587.587 0 0 0-.62-.55c-.553.043-1.025-.452-1.283-.931l-.064-.13c.1-1.265.247-6.484-.899-10.895-.132-.506-.104-.924.077-1.21a.74.74 0 0 1 .503-.341c.343-.052.594-.038.859.182.64.535 1.484 2.365 1.878 8.018a13 13 0 0 0-.53.016.59.59 0 0 0-.55.623c.014.33.278.579.602.57 2.943-.14 6.301.58 7.723 1.327a.565.565 0 0 0 .777-.263.607.607 0 0 0-.255-.803 8 8 0 0 0-.897-.39c.195-.691.528-2.532.539-4.64q.013-.07.008-.142c-.055-.903.208-1.492.474-1.657q.237-.147.636.108c.982.628.669 3.903.55 5.137q-.018.2-.04.399c-.108 1.07-.22 2.174-.017 3.476M21.763 6.384a.6.6 0 0 1-.275-.061.68.68 0 0 1-.32-.89 9.2 9.2 0 0 1 2.05-2.916.633.633 0 0 1 .916.04.686.686 0 0 1-.038.947 7.9 7.9 0 0 0-1.75 2.49.65.65 0 0 1-.583.39m-2.185-.387a.657.657 0 0 1-.651-.616A31.5 31.5 0 0 1 18.915.62a.657.657 0 0 1 .695-.618c.357.029.623.35.597.719-.111 1.51-.106 3.04.012 4.55a.663.663 0 0 1-.594.722l-.047.002zm-2.233.416a.65.65 0 0 1-.634-.505 8 8 0 0 0-1.505-3.066.687.687 0 0 1 .087-.944.634.634 0 0 1 .913.09 9.4 9.4 0 0 1 1.76 3.589.674.674 0 0 1-.47.816.7.7 0 0 1-.154.022z" />
        </g>
    </g>
    <defs>
        <clipPath id="a">
            <path fill="#fff" d="M0 0h39.272v27.947H0z" />
        </clipPath>
        <clipPath id="b">
            <path fill="#fff" d="M0 0h39.272v27.947H0z" />
        </clipPath>
    </defs>
</svg>