<svg xmlns="http://www.w3.org/2000/svg" viewBox="0 0 201.95 202.59"><path fill="#2a667f" d="M162.888 28.654a5.34 5.34 0 0 1-7.596 0 5.42 5.42 0 0 1 0-7.636 5.34 5.34 0 0 1 7.596 0 5.4 5.4 0 0 1-.002 7.636m-1.177 150.936c-3.67 3.684-9.613 3.684-13.252 0-3.67-3.684-3.67-9.652 0-13.306 3.669-3.684 9.622-3.684 13.252 0 3.67 3.684 3.67 9.652 0 13.306m-31.351-18.172c-3.67-3.684-3.67-9.662 0-13.306 3.669-3.684 9.623-3.684 13.252 0 3.68 3.684 3.67 9.662.002 13.306-3.669 3.684-9.623 3.684-13.252 0m-4.817 18.172c-3.669 3.684-9.623 3.684-13.252 0-3.68-3.684-3.68-9.652 0-13.306 3.669-3.684 9.613-3.684 13.252 0 3.67 3.684 3.67 9.652 0 13.306m-31.35-18.172c-3.67-3.684-3.67-9.662 0-13.306 3.668-3.684 9.622-3.684 13.252.002 3.669 3.684 3.669 9.662 0 13.306-3.67 3.684-9.623 3.684-13.253 0m-4.816 18.172c-3.67 3.684-9.623 3.684-13.253-.004-3.67-3.694-3.67-9.652 0-13.306 3.67-3.684 9.623-3.684 13.253 0 3.669 3.684 3.679 9.652-.001 13.306m-31.352-18.172c-3.669-3.684-3.669-9.652 0-13.306 3.678-3.684 9.622-3.684 13.252 0 3.67 3.684 3.67 9.662 0 13.306-3.66 3.674-9.613 3.684-13.253-.007m-4.816 18.172c-3.67 3.684-9.623 3.684-13.253 0-3.669-3.694-3.669-9.662 0-13.306 3.67-3.684 9.613-3.684 13.253 0 3.67 3.684 3.67 9.662 0 13.306M38.766 21.694a5.35 5.35 0 0 1 7.606 0 5.42 5.42 0 0 1 0 7.636 5.35 5.35 0 0 1-7.605 0c-2.097-2.105-2.107-5.53-.002-7.636m11.67 11.717a5.367 5.367 0 0 1 7.605.002 5.434 5.434 0 0 1 0 7.647 5.37 5.37 0 0 1-7.605 0c-2.097-2.116-2.107-5.531.002-7.647m11.67 11.718a5.35 5.35 0 0 1 7.605 0c2.107 2.105 2.097 5.53 0 7.636a5.34 5.34 0 0 1-7.596 0 5.41 5.41 0 0 1-.005-7.636m.005-23.435a5.337 5.337 0 0 1 7.595.002c2.107 2.105 2.097 5.531 0 7.636a5.35 5.35 0 0 1-7.595 0 5.403 5.403 0 0 1 0-7.636m11.67 35.152c2.107-2.105 5.509-2.115 7.605.002 2.107 2.105 2.107 5.531 0 7.646a5.37 5.37 0 0 1-7.605 0c-2.097-2.115-2.097-5.54 0-7.646m.005-23.435a5.355 5.355 0 0 1 7.595.002c2.097 2.115 2.107 5.531 0 7.647a5.37 5.37 0 0 1-7.605 0c-2.097-2.116-2.097-5.541.005-7.647m11.67-11.717a5.35 5.35 0 0 1 7.606 0 5.42 5.42 0 0 1 0 7.636c-2.107 2.115-5.51 2.105-7.606 0s-2.096-5.53 0-7.636m11.67 35.152c2.097-2.115 5.5-2.105 7.606-.002 2.097 2.115 2.097 5.541 0 7.646s-5.499 2.105-7.606 0c-2.096-2.115-2.106-5.53 0-7.646m0-23.435c2.097-2.105 5.5-2.105 7.606 0s2.097 5.531-.002 7.647a5.37 5.37 0 0 1-7.606 0c-2.096-2.116-2.096-5.541 0-7.647m11.67-11.717a5.35 5.35 0 0 1 7.606 0 5.423 5.423 0 0 1 .002 7.636 5.36 5.36 0 0 1-7.605 0 5.42 5.42 0 0 1 0-7.636m3.6 108.237c3.669-3.684 9.623-3.684 13.252 0 3.67 3.684 3.67 9.662 0 13.306-3.669 3.684-9.623 3.684-13.252 0-3.68-3.684-3.68-9.662 0-13.306m4.005-54.02c-2.097 2.116-5.499 2.106-7.605 0a5.435 5.435 0 0 1-.002-7.645 5.36 5.36 0 0 1 7.605.01 5.42 5.42 0 0 1 0 7.636m0-23.435a5.354 5.354 0 0 1-7.605.003 5.42 5.42 0 0 1 0-7.636 5.35 5.35 0 0 1 7.605 0 5.423 5.423 0 0 1 .002 7.636M97.117 79.992a5.37 5.37 0 0 1 7.605 0c2.097 2.105 2.097 5.541-.001 7.646a5.37 5.37 0 0 1-7.605 0 5.427 5.427 0 0 1 .006-7.647m-2.848 31.776c3.67-3.684 9.623-3.684 13.253.002 3.669 3.684 3.669 9.652 0 13.306-3.67 3.684-9.623 3.684-13.253.002-3.669-3.684-3.669-9.652 0-13.306m-4.816 18.172c3.669 3.684 3.669 9.662 0 13.306-3.67 3.684-9.623 3.684-13.253-.002-3.679-3.684-3.67-9.652 0-13.306 3.66-3.684 9.623-3.684 13.253 0m-4.006-85.1a5.35 5.35 0 0 1 7.606 0 5.42 5.42 0 0 1 0 7.636 5.354 5.354 0 0 1-7.606.003 5.42 5.42 0 0 1 0-7.636m0 23.435a5.357 5.357 0 0 1 7.605-.007 5.446 5.446 0 0 1 0 7.656c-2.107 2.105-5.509 2.115-7.606-.007-2.096-2.115-2.096-5.531 0-7.636m35.01-11.718a5.36 5.36 0 0 1 7.606 0c2.097 2.115 2.097 5.541-.002 7.646a5.37 5.37 0 0 1-7.605.001c-2.097-2.115-2.097-5.54 0-7.646m0-23.435a5.37 5.37 0 0 1 7.605 0 5.434 5.434 0 0 1 0 7.647 5.363 5.363 0 0 1-7.605-.006c-2.097-2.106-2.097-5.531 0-7.647m11.67 11.718c2.107-2.115 5.519-2.115 7.606 0a5.42 5.42 0 0 1 0 7.636 5.35 5.35 0 0 1-7.606 0 5.42 5.42 0 0 1 0-7.636m.002-23.435a5.35 5.35 0 0 1 7.605 0c2.097 2.105 2.097 5.521 0 7.636s-5.498 2.115-7.605 0a5.42 5.42 0 0 1 0-7.636m11.67 11.717a5.37 5.37 0 0 1 7.606 0c2.096 2.116 2.096 5.531 0 7.647s-5.509 2.115-7.606 0c-2.096-2.106-2.096-5.522 0-7.647m58.153-17.774c0-8.52-6.883-15.491-15.428-15.491H15.43C6.935-.138.002 6.773.002 15.352v58.985h22.944L.002 128.257v58.984c0 8.53 6.883 15.49 15.428 15.49h171.097c8.496 0 15.428-6.91 15.428-15.49v-58.984h-22.944l22.944-53.92z"/></svg>