<svg xmlns="http://www.w3.org/2000/svg" viewBox="0 0 241.93 290.08"><g fill="#43b0e8"><path d="M120.96 151.423c-10.874 0-19.725 8.85-19.725 19.725s8.85 19.724 19.725 19.724 19.724-8.85 19.724-19.724-8.85-19.725-19.724-19.725M0 50.186L20.503 70.69C46.238 44.948 81.77 29.01 120.96 29.01s74.721 15.938 100.463 41.68l20.504-20.504C210.938 19.198 168.144.001 120.959.001 73.782 0 30.996 19.198 0 50.186"/><path d="M36.907 87.09l20.503 20.503c16.28-16.28 38.762-26.368 63.55-26.368 24.794 0 47.276 10.088 63.556 26.368L205.02 87.09c-21.535-21.534-51.27-34.875-84.06-34.875S58.44 65.555 36.906 87.09"/><path d="M73.809 123.994l20.503 20.503c6.827-6.826 16.25-11.057 26.65-11.057s19.825 4.23 26.651 11.057l20.504-20.503c-12.08-12.08-28.766-19.564-47.154-19.564-18.396 0-35.074 7.483-47.154 19.564"/></g><path fill="#072342" d="M193.6 118.231c10.85 14.86 17.28 33.15 17.28 52.92 0 49.582-40.342 89.917-89.925 89.917S31.03 220.733 31.03 171.151c0-19.77 6.43-38.06 17.289-52.92l-20.68-20.68c-16.02 20.268-25.611 45.826-25.611 73.6 0 65.572 53.347 118.927 118.927 118.927s118.936-53.355 118.936-118.927c0-27.774-9.599-53.332-25.612-73.6z"/></svg>