<svg xmlns="http://www.w3.org/2000/svg" fill="#0083a2" viewBox="0 0 37.041 45.266"><path fill="#009585" d="M29.871 5.66c-3.4-1.4-6.46-.702-8.5 1.75 1.02-.701 3.06-2.8 6.8-1.4s4.42 5.95 4.08 8.4c-.681 9.81-7.82 28.4-19 29.1-6.46.698-9.86-3.86-10.2-4.9h-.344c1.7 4.2 6.13 6.65 11.2 6.65 13.6.346 23.8-14.7 23.1-27.3-.341-7.36-4.08-10.9-7.14-12.3"/><path fill="#009585" d="M6.471 39.96c4.76 1.75 7.48-.354 8.16-1.05-5.1 2.45-9.86-.347-10.2-7.01-.34-9.1 8.5-30.5 19.7-30.5 4.08 0 6.8 1.4 9.18 3.85-1.02-2.1-4.76-5.25-10.2-5.25-13.3 0-23.5 13.3-23.1 27.3.342 7.7 3.4 11.2 6.46 12.6"/></svg>