<svg xmlns="http://www.w3.org/2000/svg" version="1.1" viewBox="0 0 163.9 152.25"><path d="m144.58 79.2c11.536 6.787 19.289 19.322 19.314 33.677 0.037 21.607-17.448 39.154-39.055 39.191-21.608 0.038-39.155-17.448-39.192-39.055-0.025-14.354 7.684-26.917 19.196-33.744l11.242 18.998c0.282 0.477 0.122 1.089-0.336 1.4-4.251 2.894-7.039 7.776-7.029 13.306 0.015 8.864 7.214 16.038 16.078 16.022 8.865-0.015 16.038-7.214 16.023-16.078-0.01-5.53-2.815-10.402-7.076-13.282-0.459-0.31-0.621-0.921-0.341-1.399z" fill="#128dff"/><path d="m58.225 78.971a38.946 38.946 0 0 0-19.101-4.971c-21.607 0-39.124 17.516-39.124 39.124 0 21.607 17.516 39.123 39.124 39.123 21.714 0 39.657-18.434 39.111-40.127h-22.024c-0.578 0-1.034 0.489-1.037 1.068-0.056 8.645-7.27 15.986-16.05 15.986-8.864 0-16.05-7.186-16.05-16.05 0-8.865 7.186-16.051 16.05-16.051 2.322 0 4.528 0.492 6.52 1.38 0.488 0.216 1.069 0.052 1.34-0.407z" fill="#8bda67"/><path d="m61.389 72.834c-11.525-6.807-19.255-19.356-19.255-33.71 0-21.607 17.516-39.124 39.124-39.124s39.124 17.516 39.124 39.124c0 14.354-7.731 26.903-19.256 33.71l-11.208-19.017c-0.281-0.477-0.12-1.089 0.338-1.4 4.256-2.886 7.053-7.763 7.053-13.294 0-8.864-7.186-16.05-16.051-16.05s-16.051 7.185-16.051 16.05c0 5.53 2.797 10.407 7.053 13.294 0.458 0.311 0.619 0.923 0.338 1.4z" fill="#ff2a44"/></svg>