<svg xmlns="http://www.w3.org/2000/svg" viewBox="0 0 194.39 167.61"><linearGradient id="a"><stop offset="0" stop-color="#fff68e"/><stop offset=".5" stop-color="#faea82"/><stop offset="1" stop-color="#d6aa4a"/></linearGradient><radialGradient id="m" cx="497.43" cy="348.2" r="9.247" gradientTransform="matrix(.39649 0 0 .77025 199.24 17.699)" gradientUnits="userSpaceOnUse" href="#a"/><radialGradient id="l" cx="488.7" cy="285.97" r="7.616" gradientTransform="matrix(.32864 0 0 .92928 199.24 17.699)" gradientUnits="userSpaceOnUse" href="#a"/><radialGradient id="k" cx="501.06" cy="394.91" r="8.932" gradientTransform="matrix(.46705 0 0 .65388 199.24 17.699)" gradientUnits="userSpaceOnUse" href="#a"/><radialGradient id="j" cx="338.42" cy="292.83" r="7.609" gradientTransform="matrix(.35939 0 0 .84976 199.24 17.699)" gradientUnits="userSpaceOnUse" href="#a"/><radialGradient id="i" cx="492.17" cy="412.91" r="8.303" gradientTransform="translate(199.24 17.699)scale(.55263)" gradientUnits="userSpaceOnUse" href="#a"/><radialGradient id="h" cx="178.34" cy="341.68" r="10.078" gradientTransform="matrix(.47601 0 0 .64158 199.24 17.699)" gradientUnits="userSpaceOnUse" href="#a"/><radialGradient id="g" cx="509.23" cy="353.12" r="248.78" gradientTransform="matrix(.54751 0 0 .5578 199.24 17.699)" gradientUnits="userSpaceOnUse" href="#a"/><radialGradient id="f" cx="507.45" cy="320.44" r="25.233" gradientTransform="matrix(.55139 0 0 .55387 199.24 17.699)" gradientUnits="userSpaceOnUse" href="#a"/><radialGradient id="e" cx="429.5" cy="326.19" r="23.596" gradientTransform="matrix(.65364 0 0 .46723 199.24 17.699)" gradientUnits="userSpaceOnUse" href="#a"/><radialGradient id="d" cx="551.65" cy="183.26" r="9.608" gradientTransform="matrix(.52102 0 0 .58615 199.24 17.699)" gradientUnits="userSpaceOnUse" href="#a"/><radialGradient id="c" cx="364.33" cy="234.71" r="21.186" gradientTransform="matrix(.69902 0 0 .4369 199.24 17.699)" gradientUnits="userSpaceOnUse" href="#a"/><radialGradient id="b" cx="359.25" cy="159.95" r="145.69" gradientTransform="matrix(1 0 0 1.0475 0 -7.597)" gradientUnits="userSpaceOnUse"><stop offset="0" stop-color="#fff68e"/><stop offset=".731" stop-color="#eed26a"/><stop offset="1" stop-color="#d6aa4a"/></radialGradient><path d="M110.925 0c-1.64 3.81-1.18 8.256-2.375 12.217-.276.912-1.178 3.668-2.497 3.477-2.697-.39-1.3-5.573-4.413-5.676l.978 7.574c-4.678.588-4.04-6.714-5.938-9.68-2.191-3.423-2.719 1.552-2.572 3.083.093.982.291 1.954.409 2.932.204 1.703.253 3.185.038 4.887-4.47-.053-2.829-5.936-6.108-6.841l.244 7.086c-4.955-.042-7.214-4.514-9.389-8.307-.908-1.583-2.116-4.643-4.293-3.665 1.018 4.401 3.427 8.615 3.673 13.193.064 1.184-1.054 4.19-2.695 3.637-3.794-1.278-3.285-8.162-6.447-9.973-.639-.366-1.648-.046-2.35-.016.002 3.651 1.608 8.065 2.885 11.483.274.735 1.045 3.32-.556 3.272-2.863-.086-3.575-5.636-6.483-4.982.356 1.497 1.245 2.712 1.741 4.154.303.88.865 1.77 1.027 2.687.356 2.004-2.183 2.167-3.5 1.778-3.113-.917-5.348-3.462-7.575-5.687-.617-.617-2.245-2.788-3.272-1.802-1.142 1.096 1.101 3.021 1.737 3.757 1.902 2.198 3.96 4.772 4.868 7.574.39 1.203.467 2.914-.728 3.74-1.186.819-3.114-.668-4.07-1.298-2.93-1.927-5.842-5.295-9.53-5.374l-.863 2.199 2.351 3.176 6.086 6.841-7.085-2.932c.286 1.852 4.723 4.097 3.85 6.006-.518 1.131-3.085 1.15-4.095 1.006-3.612-.515-6.168-3.204-9.528-4.168-2.968-.852-2.415 1.45-.733 2.78.584.46 1.146.944 1.71 1.43a53 53 0 0 1 2.932 2.72c1.482 1.48 2.78 3.065 4.153 4.641l-7.085-.244v.489l6.84 3.176-1.221 4.887c-1.975-.006-3.577-.544-5.375-1.326-1.226-.533-2.516-1.419-3.91-1.32-1.663.116-2.652 1.635-1.538 3.055 1.671 2.128 5.018 3.34 7.157 4.998.816.632 1.998 1.714 1.075 2.794-1.823 2.133-6.736-.604-9.137.106v.488c2.229 1.3 6.797 2.043 8.109 4.44 1.025 1.876-1.891 6.127-3.955 5.96-1.84-.148-3.53-2.224-4.887-3.314-3.247-2.608-6.721-5.677-10.506-7.476-6.49-3.087-12.936 1.829-18.08 5.032.657 2.076 3.255-.133 4.886.236 2.196.498 3.864 2.541 5.271 4.162 6.803 7.834 12.496 16.716 15.04 26.876.669 2.675 1.812 5.875-.187 8.272-.536.642-1.336.726-1.927 1.257-.442.396-.419.958.187 1.144 1.12.342 2.752-.178 3.85-.443 3.586-.864 7.68-2.799 9.309-6.32 1.013-2.192 1.37-6.454 3.885-7.33.556 2.347 3.197 5.454 2.94 7.818-.229 2.1-2.44 4.532-3.732 6.086-.458.55-1.564 1.757-.902 2.547.658.787 2.016-.907 2.427-1.294 1.854-1.751 5.907-4.517 7.007-.498.957 3.494-2.117 9.143-3.653 12.216-.427.855-2.395 3.527-1.627 4.48.886 1.1 2.74-1.764 3.134-2.281 1.54-2.017 6.933-7.994 9.798-5.846 3.494 2.62 2.29 4.493.965 8.045-.373 1-1.75 3.51-.814 4.461.906.92 2.097.078 2.56-.8.838-1.59 3.095-6.314 5.352-5.109 1.412.755 3.573 2.035 4.395 3.445 1.284 2.204.167 6.603-.175 8.998-.198 1.379-1.68 5.683-.45 6.68 1.138.92 2.057-1.849 2.399-2.527 1.203-2.39 2.588-4.838 4.38-6.84.643-.72 1.552-1.925 2.645-1.72 5.675 1.062-.123 6.715 2.205 9.601.472.584 1.75.542 2.437.67l2.932-7.574c1.49.574 3.684.773 4.784 2.007.924 1.036 1.106 2.787 1.373 4.1.747 3.68 1.157 7.258.684 10.996.464.334 1.197 1.11 1.82.712.79-.504.89-2.557 1.16-3.4.861-2.696 2.176-5.273 3.398-7.818.805-1.677 3-3.463 4.583-1.154 1.624 2.368.973 6.51 1.988 9.217 2.595-1.28 2.878-6.681 2.932-9.285l3.366.491 2.022 4.151 3.653 10.507c1.89-.724 1.291-4.359 1.503-6.109.288-2.372.838-7.137 2.577-8.902.702-.712 2.096-.772 3.005-1.115 1.037 2.528 1.606 5.395 2.86 7.815.49.943 1.605 1.96 2.733 1.381 1.08-.554 1.039-1.813.9-2.844-.34-2.531-.916-5.02-1.118-7.574 4.844-.342 7.686 3.574 10.73 6.841 1.175 1.263 2.2 2.935 3.93 3.42l-2.511-7.33-1.398-6.84c1.758-.736 5.477-4.331 7.33-3.807 2.76.78 4.867 8.468 8.293 6.66 1.461-.77.705-2.076.02-3.098-1.022-1.52-4.095-5.174-3.762-7.084.247-1.416 2.618-3.065 4-3.046 3.168.044 8.675 2.455 10.507 5l2.199-.245c-.33-4.374-6.885-6.37-7.823-10.75a3.3 3.3 0 0 1 .03-1.397c.696-2.808 2.385-1.581 4.128-.827.544.235 1.732.839 2.182.166.496-.741-.383-1.72-.705-2.34-.658-1.267-1.262-2.73-.988-4.154 2.283.597 3.691 1.955 5.62 3.238.455.303 1.461 1.063 2.037.64.605-.446-.289-1.345-.576-1.679-.861-.998-3.498-3.409-3.238-4.864.176-.983 1.834-2.035 2.51-2.71 2.233-2.23 4.777-4.503 6.596-7.086h.245c4.315 5.034 17.844 1.504 16.125-6.108-1.076.154-2.075 1-3.176.62-4.812-1.659-3.65-9.368-9.04-9.416-.398-5.025-2.417-10.048-4.853-14.415-1.117-2.003-3.44-3.835-4.25-5.874-.45-1.13-.374-2.922-.426-4.144 2.826-.44 1.433-3.301.404-4.886-1.147-1.766-2.36-3.862-3.848-5.353-1.828-1.83-4.55-3.024-4.316-6.13.219-2.893 5.204-2.526 6.05-5.131-1.479.063-2.94.43-4.398.672-3.63.605-4.263-.616-2.568-3.849 1.481-2.824 3.839-4.967 5.918-7.33.666-.756 2.718-2.478 1.66-3.573-.873-.905-2.316.476-3.056.967-2.697 1.788-5.708 3.11-8.796 4.066-.92.285-3.631 1.346-3.938-.284-.415-2.2 3.75-2.61 3.205-5.085-1.666.396-4.94 3.025-6.541 1.806-1.926-1.466.902-5.211 1.205-6.937.306-1.747-1.1-1.811-2.088-.718-.347.383-.66.801-.98 1.207-.553.702-1.01 1.382-1.37 2.199-4.001-2.336 3.57-5.051 2.145-7.213-.508-.77-1.444 0-1.9.4-.95.831-4.52 4.946-5.298 1.925-.859-3.34.876-7.353 1.775-10.505.234-.823 1.294-3.044.266-3.635-1.5-.863-2.159 2.048-2.51 2.902-1.083 2.629-2.872 4.914-4.983 6.799-.696.62-1.876 1.826-2.918 1.539-1.512-.417-1.518-4.612-1.47-5.895.022-.61.365-1.664-.231-2.107-.778-.577-1.185.581-1.3 1.131-.38 1.799-1.495 6.938-4.162 3.568-2.413-3.049 1.319-9.373-3.602-10.655l-2.687 8.552c-3.221-.703-2.507-5.308-1.71-7.819l-1.467-.489c-.23.997-.559 1.968-.902 2.932-1.302 3.655-3.042 4.367-4.386.245-1.025-3.146-.661-6.54-1.172-9.773-.203-1.29-.324-2.597-1.603-3.176z"/><path fill="url(#b)" d="M389.04 30.214c-.246 11.919-3.845 20.849-17.103 20.858l4.589 18.772c-4.979-5.217-6.794-12.52-9.039-19.189-1.425-4.233-3.24-8.487-3.893-12.932h-.417c.155 7.53 1.743 15.003.23 22.526-.833 4.136-3.164 7.35-4.402 11.263h-.417l2.503-18.355c-9.313.736-17.353 2.147-23.455-6.674-1.326-1.917-2.35-4.112-3.243-6.258h-.417c1.045 6.98 7.261 15.125-.038 20.98-1.114.894-2.401 1.443-3.717 1.964l6.595 9.996 3.834 5.022c-10.554-6.99-16.832-19.162-22.109-30.452h-.417c1.346 8.985 6.806 17.107 8.165 26.28.472 3.188 1.706 7.697-1.073 10.013l-3.338-15.852c-4.859 2.52-8.598 10.099-15.018 9.03-2.73-.456-4.94-2.666-7.508-3.607 1.209 3.821 4.557 7.435 2.647 11.68-.706 1.57-2.085 2.774-3.065 4.171l13.35 5.006c-2.436 2.915-7.508.627-10.43-.743-5.538-2.596-10.467-6.026-15.435-9.564-2.823-2.01-6.144-4.877-9.594-5.544 2.124 4.555 7.578 8.417 11.263 11.75 3.047 2.757 5.323 5.944 7.892 9.107 2.531 3.115 5.839 6.63 4.622 10.846-4.436-4.474-8.31-7.726-15.018-6.16-2.434.569-4.487 1.999-7.091 1.935-4.638-.115-9.118-2.477-13.35-4.118 2.457 5.268 8.932 8.104 10.314 14.183 1.015 4.466-2.206 10.166-2.804 14.6l14.183 2.086v.834c-12.163 3.218-20.733-3.462-32.121-5.423v.417c7.681 3.634 16.387 9.772 21.863 16.27 1.992 2.362 4.434 5.106 4.418 8.342-2.242-1.816-6.476-6.559-9.594-6.08-2.489.38-3.311 3.142-3.64 5.246-.89 5.678-.95 11.776-.95 17.52-2.389-2.086-2.085-4.993-2.085-7.925-2.968 1.955-6.175 4.407-10.012 3.638-3.882-.778-7.748-5.559-10.43-8.226-5.297-5.27-11.17-10.468-18.771-11.504-3.965-.54-15.97.017-10.604 6.072.553.624 1.107 1.273 1.86 1.665 2.825 1.472 8.853-.406 12.08-.406v.417l-10.428 2.086c4.19 8.782 13.263.91 18.355 6.258-3.479-1.029-9.453-1.029-12.932 0l5.828 7.508 2.678 3.503 9.849 1.086v.417h-8.76c.517 4.594 5.83 3.343 9.177 2.92v.417l-7.092 1.252c1.114 2.585 3.836 10.252 6.42 11.427 2.023.92 4.834-.857 6.512-1.833-2.303 4.199-6.42 2.507-4.172 8.343l6.675-3.337c-1.488 1.678-3.988 3.004-4.993 5.012-1.158 2.317.799 6.516 1.656 8.754l6.674-5.005-6.352 7.13.512 7.47c5.592-2.329 10.123-6.461 12.508-12.098.99-2.338 1.093-5.265 2.273-7.453.862-1.6 3.354-1.342 3.856-3.071.961-3.309-1.083-5.996.552-9.5h.417l1.251 6.675c4.214-1.184 6.725-7.81 7.926-11.68h.835c1.163 5.352-3.68 8.82-5.423 13.349 2.944.682 8.24 2.11 7.926 5.84l-10.43-3.754 7.927 17.52h.417c3.816-5.766 7.504-14.94 12.932-19.188 1.896 6.153-4.673 11.155-7.092 16.269 3.577-.979 10.063-5.782 13.35-3.755-4.598 1.914-8.682 4.673-12.06 8.343-1.11 1.208-3.143 3.235-3.118 5.006.025 1.812 2.252 4.005 3.256 5.423 3.646 5.15 8.053 10.57 13.59 13.766 2.265-4.306 4.18-8.613 5.37-13.349.545-2.173.458-5.1 2.555-6.257 2.042 11.51-6.19 24.196-8.76 35.041 7.842-6.65 12.578-17.405 22.526-21.692-.229 5.363-8.85 8.202-9.312 14.177-.162 2.096 2.444 3.188 3.888 4.188 4.046 2.803 7.47 5.918 12.098 7.79 1.665.673 3.238 2.089 4.786.473 2.811-2.936 3.053-8.643 2.604-12.445-.284-2.407-1.285-6.09.536-7.926l2.904 17.103-1.652 20.024h.417c3.9-9.91 7.355-20.683 15.018-28.367.045 5.228-5.869 12.58-7.926 17.521 7.823 3.659 16.99 5.87 25.447 7.51.662-5.24.469-10.305-.899-15.436-.613-2.298-2.624-5.37-1.187-7.509 5.174 11.134 10.838 22.427 10.846 35.041h.417c.005-7.649 1.339-15.453 2.837-22.944.274-1.368.668-7.005 2.6-7.005 2.11 0 1.284 3.377 1.075 4.503-.949 5.12-2.101 10.269-2.757 15.435l17.938-.449 6.245-1.113-.167-6.365-8.581-15.018c3.263-.745 6.487 5.065 8.003 7.51 5.524 8.908 9.246 20.264 11.603 30.451h.418c-1.09-13.789-4.684-26.512-2.92-40.464 4.06 1.63 1.872 11.903 2.385 15.852.165 1.271-.026 4.591 1.501 5.095 1.428.47 3.93-.759 5.29-1.203 4.91-1.6 9.499-3.908 14.184-6.052 1.79-.819 4.327-1.819 4.456-4.099.452-8.035-6.777-10.319-11.547-14.599 4.21-.437 7.283 2.324 10.429 4.766 4.698 3.647 9.326 7.787 13.166 12.337 2.212 2.622 3.85 6.14 6.44 8.343-1.427-4.48-4.868-8.688-6.989-12.932-4.109-8.224-7.284-17.134-8.446-26.28h.417l7.926 20.857c4.309-1.464 7.805-6.582 10.591-10.012 1.253-1.542 2.806-2.961 2.758-5.006 7.004-2.518-1.976-8.076-3.337-10.429 4.85-.728 9.213 3.965 13.766 5.006-2.03-4.347-5.56-10.029-4.589-15.018h.834l2.92 8.343c7.308-6.756 15.96-13.689 21.402-22.109 7.682-11.89 7.633-26.929 2.258-39.63-1.47-3.477-2.873-8.408-5.467-11.202-3.692-3.975-6.887 2.715-7.346 5.779 1.814.272 3.473.882 5.004 1.918 5.657 3.83 5.949 10.54 3.567 16.436-1.01 2.5-2.879 4.734-3.059 7.51-.223 3.437 1.626 6.702 2.22 10.011.987 5.493-1.701 11.34-5.646 14.98-3.66 3.375-8.79 5.237-13.766 4.501-2.302-.34-4.751-2.513-7.09-1.648-3.67 1.355-4.383 6.908-6.677 9.7-1.035-6.272 3.726-9.884 4.72-15.435.518-2.887-1.596-7.667-2.496-10.43-.712-2.184-1.812-8.332-5.14-7.079-2.147.809-3.227 3.248-4.486 4.994-2.972 4.12-5.674 9.163-10.952 10.43 1.94-5.007 7.198-9.197 10.14-13.767 5.837-9.067 12.027-24.396 4.297-34.206-2.329-2.956-6.067-5.045-9.431-6.625-4.63-2.174-9.723-2.85-14.6-4.221v-.835l5.84-.834-1.252-9.177-3.754 1.251c.042-15.273 15.328-23.605 25.864-31.704l-1.926 5.423 5.2 7.926 10.492 16.269-4.172-.417c.805 5.975 2.233 11.573.126 17.52-1.354 3.824-4.685 7.01-5.693 10.847-.51 1.935.418 3.895.42 5.84.003 2.712-.93 5.318-1.527 7.926 7.472-3.555 8.9-14.457 16.686-17.103-.635-3.692-2.204-7.025-2.466-10.846-.565-8.243 1.064-16.392-.22-24.612-1.406-8.996-5.322-17.055-8.577-25.447l3.754 1.669c.865-5.77 5.62-8.89 8.76-13.35-4.822 1.756-12.23 7.735-17.52 4.586-3.649-2.172-4.973-6.953-8.76-8.757l-5.007 20.023h-.417c-2.2-9.245 2.526-17.99 4.589-26.698-6.357 5.142-10.796 11.631-19.606 12.932l12.098-8.797 2.776-4.062-3.61-3.119-9.178-6.548 4.172.834 1.668-13.349h-.417a24.7 24.7 0 0 1-3.374 4.589c-1.725 1.86-3.987 4.838-6.46 5.689-4.853 1.668-11.556-3.983-16.03-5.272v19.189c-4.261-.712-3.708-5.015-3.752-8.76-.1-8.247-.356-16.36-.002-24.612h-.417c-1.25 9.274-4.29 22.49-13.35 27.115 2.594-4.164 5.06-7.721 6.434-12.515.405-1.413 1.59-3.827.102-4.948-4.204-3.165-10.652-.46-14.106-5.488-3.394-4.94-1.167-11.236-3.276-16.263z" transform="translate(-116.69 -10.366)scale(.5857)"/><path fill="#0f0d06" d="m96.27 12.461.245.244zm-.244.733.245.244z"/><path fill="#0e0b05" d="m125.345 14.171.244.245z"/><path fill="#0f0d06" d="m109.952 14.66.245.244z"/><path fill="#0d0b05" d="m125.099 15.149.244.244z"/><path fill="#0f0d06" d="m109.706 15.393.245.244z"/><path fill="#fff" d="m69.393 17.348.244.244z"/><path fill="#0f0d06" d="m108.482 17.348.245.244zm-.244.244.244.244zm5.62.244.244.245zm-33.473.245.244.244zm33.962 0 .244.244zm-44.224.244.245.244zm11.973 0 .244.244zm32.74 0 .244.244z"/><path fill="#0f0e07" d="m82.829 19.058.244.244zm21.99 0 .244.244z"/><path fill="#0d0b05" d="m143.425 19.058.245.244z"/><path fill="#fff" d="m143.261 19.465.082.163z"/><path fill="#0f0d06" d="m70.125 19.546.244.245zm50.087 0 .245.245z"/><path fill="#0f0e07" d="m80.872 20.524.245.244z"/><path fill="#0e0b05" d="m142.933 20.524.245.244z"/><path fill="#0f0e07" d="m71.349 22.723.244.244zm1.222 0 .244.244zm.244.488.244.245z"/><path d="m108.974 24.189-3.909 17.591c3.011-1.835 3.648-8.526 3.91-11.728h.244c.523 2.817.777 5.64 1.923 8.307.454 1.057.953 2.464 2.23 2.443l-3.128-10.994z"/><path fill="#0f0e07" d="m100.177 24.433.244.245zm-20.768.489.245.244zm-1.221.977.244.245zm-1.222.489.244.244zm31.274.733.244.244z"/><path d="M85.03 27.365c.053 6.247 3.142 11.934 1.956 18.325 1.172-.717 1.205-2.391 1.22-3.665.035-2.956-.48-5.854-.487-8.796h.244c.85 2.953 3.159 8.824 6.597 9.284-.413-1.587-1.712-2.788-2.582-4.154-1.932-3.033-3.823-9.152-6.947-10.994"/><path fill="#0f0e07" d="m75.256 27.61.244.244z"/><path fill="#0f0e08" d="m85.517 27.61.244.244z"/><path fill="#0f0d06" d="m118.99 27.854.244.244z"/><path fill="#0f0e07" d="m107.996 28.342.245.245zm11.973 0 .244.245z"/><path fill="#0f0d06" d="m140.737 28.342.244.245z"/><path fill="#0f0e07" d="m119.722 28.587.244.244zm-1.466.244.244.244zm1.222 0 .244.244z"/><path fill="#0f0e08" d="m86.495 29.076.244.244zm16.126.244.244.244z"/><path fill="#0d0b05" d="m142.201 29.32.244.244z"/><path fill="#0f0e07" d="m118.258 29.808.244.245z"/><path d="M135.114 30.053c-2.716 4.266-5.955 10.086-10.017 13.193v.244c3.08-.55 6.41-4.442 7.33-7.33h.244c-.036 4.346-2.034 8.955-.244 13.194h.244c1.3-4.398.623-9.587 1.742-14.171.351-1.438 1.645-3.834.702-5.131z"/><path fill="#0f0e07" d="m72.081 30.542.244.244z"/><path fill="#0f0e08" d="m87.473 30.786.245.244zm-13.438.489.244.244zm-1.71.244.244.244zm5.62 0 .244.244zm32.495 0 .244.244zm-1.955.489.245.244z"/><path fill="#0f0d06" d="m135.114 32.007.244.244z"/><path fill="#fff" d="m150.02 32.252.245.244zm-91.62.244.244.245z"/><path fill="#0f0e08" d="m88.451 32.496.245.244z"/><path fill="#0e0b05" d="m150.02 32.496.245.244z"/><path fill="#0f0e07" d="m133.164 32.985.244.244z"/><path fill="#0f0e08" d="m79.9 33.473.245.244z"/><path fill="#0f0e07" d="m125.83 33.473.245.244z"/><path fill="#0e0d08" d="m82.097 33.962.244.244z"/><path fill="#0f0e08" d="m82.343 34.206.244.245z"/><path fill="#0f0e07" d="m132.186 34.206.244.245z"/><path fill="#010101" d="m82.583 34.45.244.245z"/><path fill="#0f0e07" d="m62.552 34.695.244.244z"/><path fill="#0f0d06" d="m148.064 34.695.244.244zm-.244.244.244.244zm-102.129.489.244.244z"/><path fill="#0f0e07" d="m59.863 35.428.245.244z"/><path fill="#0e0d08" d="m88.938 35.672.244.245z"/><path fill="#0f0e07" d="m132.672 35.917.244.244z"/><path fill="#0f0d06" d="m144.403 35.917.245.244z"/><path fill="#0e0b05" d="m146.846 35.917.244.244z"/><path fill="#0f0e07" d="m132.426 36.16.244.245z"/><path fill="#0e0d08" d="m86.741 37.138.245.245z"/><path fill="#0f0d06" d="m148.31 37.383.244.244z"/><path fill="#0e0d08" d="m87.96 37.871.244.244z"/><path fill="#0e0b05" d="m141.223 38.115.244.245z"/><path fill="#0e0d08" d="m91.872 38.36.244.244z"/><path fill="#0f0d06" d="m152.709 38.849.244.244z"/><path fill="#fff" d="m165.904 38.849.245.244z"/><path fill="#0e0d08" d="m92.358 39.093.244.244z"/><path fill="#0f0e07" d="m130.475 39.093.245.244z"/><path fill="#0e0b05" d="m165.904 39.093.245.244z"/><path fill="#0d0b05" d="m164.926 39.337.245.244zm.733 0 .245.244z"/><path fill="#0f0e07" d="m129.983 39.581.245.245z"/><path fill="#0e0b05" d="m165.412 39.581.245.245z"/><path fill="#0e0d08" d="m91.14 39.826.244.244z"/><path d="M118.99 39.826c-1.443 3.254-2.147 6.277-5.131 8.55v.49c2.145.564 3.639-2.127 4.154-3.91h.244c.212 1.642.412 5.056 2.199 5.62l-1.2-5.62z"/><path fill="#0f0d06" d="m153.44 39.826.245.244z"/><path fill="#0d0b05" d="m165.166 39.826.245.244z"/><path d="M66.704 40.07c.528 6.01 8.611 10.072 7.575 16.615 1.3-.76.958-2.176.521-3.42-.902-2.576-2.411-4.828-3.453-7.33 2.338 2.133 5.792 4.546 9.04 3.176l-5.127-2.125z"/><path fill="#0e0b05" d="m164.926 40.07.245.245z"/><path fill="#0d0b05" d="m164.68 40.315.245.244z"/><path fill="#0f0d06" d="m149.288 40.559.244.244z"/><path fill="#0d0b05" d="m162.478 40.559.244.244z"/><path fill="#0e0b05" d="m164.434 40.559.245.244z"/><path fill="#0e0d08" d="m91.872 40.803.244.244z"/><path fill="#0f0e07" d="m129.005 40.803.245.244z"/><path fill="#0d0b05" d="m164.188 40.803.245.244z"/><path fill="#0f0e08" d="m66.704 41.047.245.245zm62.061 0 .244.245z"/><path fill="#0e0b05" d="m163.948 41.047.244.245z"/><path fill="#0f0e07" d="m68.415 41.292.244.244z"/><path fill="#0d0b05" d="m163.702 41.292.245.244z"/><path fill="#0f0e07" d="m54.733 41.536.244.245z"/><path fill="#0f0e08" d="m128.273 41.536.245.245zm-.244.245.244.244z"/><path fill="#0f0e07" d="m51.558 42.025.245.244z"/><path fill="#0e0d08" d="m93.09 42.025.245.244z"/><path d="M100.423 42.025c-.739 2.432-2.813 7.18-1.955 9.529h.49l1.71-5.864h.244c.604 2.211 1.236 5.566 3.909 5.864l-3.91-9.53z"/><path fill="#0f0e08" d="m51.798 42.27.245.243z"/><path fill="#0d0b05" d="m162.724 42.27.244.243z"/><path fill="#0f0e07" d="m52.044 42.513.245.245z"/><path fill="#0f0e08" d="m59.863 42.513.245.245zm65.968 0 .244.245z"/><path fill="#0f0e07" d="m52.29 42.758.245.244z"/><path fill="#0f0e08" d="m56.689 42.758.244.244z"/><path fill="#0e0d08" d="m117.772 42.758.244.244zm1.466 0 .244.244z"/><path fill="#0f0e08" d="m125.585 42.758.244.244z"/><path fill="#0f0e07" d="m52.53 43.002.245.244z"/><path fill="#0e0d08" d="m125.345 43.002.244.244zm-54.486.488.245.245z"/><path fill="#0f0e08" d="m131.694 43.49.244.245z"/><path fill="#0e0d08" d="m68.415 44.224.244.244zm48.62.244.245.244z"/><path fill="#0f0e08" d="m60.596 44.713.244.244zm-6.109.244.245.244z"/><path fill="#0e0d08" d="m72.567 44.957.245.244zm14.415 0 .245.244z"/><path fill="#0f0d06" d="m148.31 44.957.244.244z"/><path fill="#0e0d08" d="m87.473 45.445.245.245zm13.194.245.244.244zm17.591 0 .245.244zm-48.133.977.245.244z"/><path fill="#0d0b05" d="m160.282 46.667.244.244z"/><path fill="#0e0d08" d="m73.3 47.4.244.244z"/><path fill="#0d0b05" d="m159.058 47.4.244.244z"/><path fill="#0e0d08" d="m70.857 47.644.244.244zm45.2.244.245.245z"/><path d="m84.053 48.133 1.221 10.262h.49l-.245-7.33c1.593 1.11 3.749 3.844 5.864 2.932-.816-.884-1.999-1.039-2.931-1.794-1.516-1.228-2.316-3.906-4.4-4.07z"/><path fill="#0e0d08" d="m72.567 48.62.245.244zm41.292.244.244.244zm-42.025.244.244.245zm26.387 0 .245.245z"/><path fill="#0f0e08" d="m132.186 49.112.244.244zm.488 0 .245.244z"/><path d="M137.803 49.598c-2.578 2.584-4.73 4.36-8.307 5.375v.489c2.116.608 4.162-.566 5.864-1.71-.279 1.434-2.108 5.19-.733 6.108l2.346-7.086z"/><path fill="#0e0d08" d="m86.25 49.844.244.244zm-27.854.244.244.245zm39.336 0 .245.245zm22.723 0 .245.245z"/><path fill="#0f0d06" d="m137.07 50.09.245.244z"/><path fill="#0f0e07" d="m41.783 50.576.244.244z"/><path fill="#0e0d08" d="m104.084 50.576.244.244z"/><path fill="#0f0e08" d="m54.979 50.822.244.244z"/><path fill="#0d0b05" d="m160.528 50.822.244.244z"/><path fill="#0e0d08" d="m72.813 51.062.245.245zm.978 0 .244.245zm25.165 0 .245.245zm-42.513.245.245.244z"/><path fill="#0f0e08" d="m135.606 51.8.244.245zm1.466.245.244.244z"/><path fill="#0f0d06" d="m152.463 52.04.244.245z"/><path fill="#010101" d="m41.05 52.286.245.245z"/><path fill="#0e0d08" d="m87.473 52.532.245.245zm-12.949.245.244.244zm14.66 0 .244.244z"/><path fill="#0f0e07" d="m41.783 53.018.244.245z"/><path fill="#0f0e08" d="m133.896 53.018.244.245z"/><path fill="#0e0d08" d="m88.451 53.264.245.245zm2.688.245.244.244z"/><path fill="#0f0e08" d="m134.874 53.75.244.245z"/><path fill="#0e0d08" d="m89.67 53.997.244.244zm.488.244.245.244zm41.292 0 .244.244z"/><path fill="#0f0e07" d="m147.086 54.243.244.244zM43 54.487l.244.244z"/><path fill="url(#c)" d="M439.1 129.5c9.545-2.298 19.981-3.657 29.618-1.669-1.435-4.983-5.156-9.076-8.456-12.932-1.129-1.318-2.567-3.757-4.478-3.901-2.263-.172-4.238 2.01-5.838 3.271-4.686 3.692-8.725 9.625-10.846 15.23z" transform="translate(-116.69 -10.366)scale(.5857)"/><path fill="#0e0d08" d="m132.918 54.975.244.244z"/><path fill="#0f0e07" d="m146.114 54.975.244.244z"/><path d="m96.025 55.22-1.466 7.575c1.226-.93 1.51-3.895 1.71-5.375l2.199 2.443c-.257-1.647-1.219-3.511-2.443-4.642z"/><path fill="#0e0d08" d="m129.497 55.46.245.245z"/><path fill="#0f0e08" d="m134.874 55.46.244.245zm16.859.245.244.244z"/><path d="m119.968 55.953-4.642 4.642 4.398-3.176.733 4.398c.854-1.253.406-4.684-.49-5.864m-51.797.733v.244c2.06 2.078 3.754 4.94 5.04 7.574.708 1.45.507 3.049 2.046 3.91-.123-2.857-1.344-5.023-2.443-7.575 1.73 1.01 4.05 2.52 6.108 1.955v-.489c-2.773-1.232-4.92-2.28-7.33-4.2-1.027-.818-2.078-1.876-3.42-1.42z"/><path fill="#0e0d08" d="m146.846 56.439.244.244zm-49.6.489.245.244zm-28.83.244.245.244zm29.076.244.244.245z"/><path fill="#0f0e08" d="m153.195 57.417.244.244z"/><path fill="#0e0d08" d="m96.757 57.663.244.244z"/><path fill="#0f0e08" d="m143.425 57.663.245.244z"/><path fill="#0f0d06" d="m155.637 57.663.244.244z"/><path fill="#0f0e08" d="m44.717 57.909.245.244z"/><path fill="#0e0d08" d="m117.772 57.909.244.244zm1.954 0 .245.244zm14.415 0 .245.244zm-62.546.244.244.245zm24.433 0 .244.245z"/><path fill="#0f0d06" d="m162.97 58.15.244.244z"/><path fill="#0f0e08" d="m144.643 58.395.245.245z"/><path fill="#0e0d08" d="m118.012 58.641.244.244z"/><path d="M51.798 58.881c.23 2.06 1.916 2.83 3.42 3.968 2.066 1.562 3.985 3.253 5.563 5.317 1.027 1.344 1.661 3.668 2.99 4.642-.286-3.592-2.406-7.82-5.865-9.284v-.245c3.517.682 7.019 1.99 10.507.489v-.489l-4.154-.163z"/><path fill="#0e0d08" d="m69.879 58.881.244.245zm46.422.245.245.244zm18.325 0 .245.244zm-61.569.244.245.244zm43.003 0 .244.244z"/><path fill="#0f0d06" d="m156.861 59.373.245.245z"/><path fill="#0f0e08" d="m141.715 59.62.244.244z"/><path fill="url(#d)" d="m481.65 119.49.834 10.012 9.178 1.251c-1.537-4.052-5.92-9.676-10.012-11.263" transform="translate(-116.69 -10.366)scale(.5857)"/><path fill="#0e0d08" d="m98.467 59.86.244.244z"/><path d="m106.286 59.86-2.199 4.153 2.443-2.688 1.466 2.444z"/><path fill="#0e0d08" d="m134.382 59.86.244.244z"/><path fill="#0d0b05" d="m165.412 59.86.245.244z"/><path fill="#0e0d08" d="m70.611 60.105.244.245zm3.42 0 .245.245z"/><path fill="#0f0d06" d="m155.397 60.105.244.245z"/><path fill="#0f0e08" d="m44.225 60.351.245.245z"/><path fill="#0e0d08" d="m105.554 60.592.244.244zm-30.297.244.245.244zm-1.466.489.245.244zm46.911 0 .245.244zm46.911 0 .245.244zm-61.082.244.244.244zm61.328 0 .245.244zm-108.237.244.244.245zm108.483 0 .245.245zm-113.854.245.245.244zm53.264 0 .244.244z"/><path fill="#0f0e08" d="m43.74 62.548.243.244z"/><path fill="#0e0d08" d="m54.979 62.548.244.244z"/><path fill="#0d0b05" d="m141.955 62.548.244.244z"/><path fill="#0e0d08" d="m94.8 62.794.245.244zm10.262.244.245.244z"/><path fill="#0f0e08" d="m43.493 63.526.244.244z"/><path fill="#0e0d08" d="m59.617 63.526.245.244zm14.416 0 .244.244zm-1.222.244.244.245z"/><path fill="#0d0b05" d="m141.223 63.772.244.244z"/><path fill="#0f0e08" d="m151.73 63.772.245.244z"/><path fill="#0d0b05" d="m156.13 64.012.243.244z"/><path fill="#0e0d08" d="m57.421 64.504.244.244zm15.881.244.245.245z"/><path fill="#0d0b05" d="m170.79 65.236.243.244z"/><path d="M129.743 65.722 125.59 68.9l3.665-1.955-.489 2.932c1.04-.725 1.427-3.003.977-4.154"/><path fill="#fff" d="M154.173 80.382c1.853-.883 2.74-2.994 3.24-4.886.617-2.329 1.417-8.47-1.54-9.626-1.627-.636-4.345.097-6.098.097-1.588 0-4.974-.242-6.206.941-1.135 1.093-.286 5.212.55 6.321.87 1.153 2.937 1.382 4.19 1.969 2.497 1.17 4.507 2.75 5.864 5.184"/><path fill="#0f0d06" d="m161.014 65.968.244.245z"/><path fill="#0d0b05" d="m169.811 65.968.244.245zm1.466 0-.244.489z"/><path fill="#020202" d="m156.615 66.214.244.245z"/><path fill="#fff" d="m171.275 66.214.245.245z"/><path fill="#0f0e08" d="m44.717 66.46.245.245z"/><path fill="#0e0d08" d="m128.273 66.46.245.245z"/><path fill="#0f0e07" d="m38.116 66.7.245.245z"/><path fill="#0e0d08" d="m143.18 66.7.244.245zm13.682 0 .244.245zm-81.852.245.245.244zm53.997 0 .244.244z"/><path fill="#0f0e08" d="m39.586 67.192.245.245z"/><path fill="#0e0d08" d="m127.055 67.192.244.245z"/><path fill="#020202" d="m157.107 67.192.245.245z"/><path fill="#fff" d="M165.412 67.192v2.2c4.43-1.603 5.434 4.879.733 4.642l.978 5.62c3.274-1.529 4.781-8.896 2.093-11.651-.811-.831-2.705-.724-3.804-.81"/><path fill="#0f0e07" d="m36.652 67.433.244.244z"/><path fill="#0e0d08" d="m62.06 67.679.244.244zm65.727 0 .244.244zm12.217 0 .244.244z"/><path fill="#020202" d="m157.347 67.679.245.244zm11.728 0 .245.244z"/><path fill="#0f0e07" d="m37.384 67.925.245.244z"/><path fill="#0e0d08" d="m139.513 67.925.244.244zm-64.75.244.245.244z"/><path d="M152.955 68.17c-.501.515-1.23.889-1.6 1.519-2.581 4.415 7.178 4.53 4.42-.245-.314-.544-.87-.898-1.354-1.273l-1.466.733z"/><path fill="#020202" d="M153.195 68.17v.245h.977z"/><path fill="#010101" d="m157.593 68.17.245.245z"/><path fill="#0f0e07" d="m38.116 68.41.245.245z"/><path fill="#020202" d="m152.299 68.575.081.162z"/><path fill="#010101" d="m152.627 68.493.162.081zm.325.163v.244l1.222-.244z"/><path fill="#020202" d="m154.665 68.41.244.245z"/><path fill="#010101" d="m151.976 68.657.245.244z"/><path fill="#050505" d="m155.15 68.657.245.244z"/><path fill="#0f0e07" d="m38.848 68.903.245.244z"/><path fill="#010101" d="m151.73 68.903.245.244z"/><path fill="#020202" d="m166.145 68.903.733.488v-.244z"/><path fill="#050505" d="m166.39 68.903.245.244z"/><path fill="#010101" d="m166.637 68.903.244.244z"/><path fill="#020202" d="m167.123 68.903.244.244z"/><path fill="#010101" d="m167.369 68.903.244.244z"/><path fill="#0e0d08" d="m62.798 69.143.244.244z"/><path d="M101.641 69.143c0 1.244-.24 2.505.978 3.176v-2.443l2.932.977z"/><path fill="#0e0d08" d="m102.133 69.143.245.244z"/><path fill="#020202" d="m165.658 69.143.245.244z"/><path fill="#010101" d="m165.904 69.143.489.488v-.488zm1.222 0 .244.244z"/><path fill="#0e0d08" d="m102.866 69.389.244.244z"/><path fill="#010101" d="m151.244 69.389.245.244z"/><path fill="#0f0e08" d="m164.926 69.389.245.244z"/><path fill="#050505" d="m165.166 69.389.245.244z"/><path d="m116.547 72.563 1.222-2.199 1.466.978c-1.074-2.874-2.67-.816-2.687 1.221"/><path fill="#010101" d="m155.883 69.635.244.244zm9.04 0 .245.244z"/><path d="M86.981 69.88c.432 1.578 1.11 2.925 2.444 3.91l-1.466-3.176 2.932.244c-.757-1.373-2.53-.977-3.91-.977"/><path fill="#0e0d08" d="m90.402 69.88.244.245zm12.216 0 .245.245z"/><path fill="#fff" d="m164.68 69.88.245.245z"/><path fill="#0f0e08" d="m40.559 70.12.244.245z"/><path fill="#0e0d08" d="m118.504 70.12.244.245z"/><path fill="#fff" d="m164.434 70.12.245.245z"/><path fill="#0e0d08" d="m103.598 70.367.244.244z"/><path d="m74.523 71.345 3.421 4.154-1.955-3.421 2.932-.489-.244-.977z"/><path fill="#0e0d08" d="m87.96 70.613.244.244z"/><path fill="#050505" d="m156.13 70.613.243.244z"/><path fill="#fff" d="M164.188 70.613v.733h.245z"/><path fill="#0e0d08" d="m87.227 70.853.245.244z"/><path fill="#050505" d="m164.188 71.345.245.244z"/><path fill="#0e0d08" d="m63.53 71.591.244.244zm10.995 0 .244.244z"/><path fill="#fff" d="M164.188 71.591v.733h.245z"/><path fill="#010101" d="m155.72 71.995.08.163zm13.6-.163.245.245z"/><path fill="#0e0d08" d="m63.038 72.077.244.244zm38.848 0 .245.244zm-58.64.244.244.245zm44.712 0 .245.245z"/><path fill="#050505" d="m151.484 72.323.245.244z"/><path fill="#0f0e08" d="m43.493 72.563.244.245z"/><path fill="#fff" d="m164.434 72.563.245.245z"/><path fill="#010101" d="m154.905 72.81.244.244z"/><path fill="#050505" d="m164.434 72.81.245.244z"/><path fill="#020202" d="m152.463 73.055.244.245z"/><path fill="#010101" d="m152.709 73.055.244.245zm1.629.082.162.081z"/><path fill="#fff" d="m164.68 73.055.245.245z"/><path fill="#010101" d="m168.669 73.22.081.162z"/><path fill="#050505" d="m168.833 73.055.244.245z"/><path fill="#010101" d="m44.225 73.301.245.245z"/><path fill="#050505" d="m153.44 73.301.245.245z"/><path fill="#fff" d="m164.926 73.301.245.245z"/><path fill="#010101" d="m144.157 73.541.245.245z"/><path fill="#fff" d="m165.166 73.541.245.245z"/><path fill="#010101" d="m165.658 73.541.245.245z"/><path d="M49.848 78.186v.489l7.086 2.443c-.144-1.857-2.546-2.41-4.154-2.688l4.887-4.398c-2.597-.304-5.714 2.86-7.819 4.154"/><path fill="#050505" d="m165.412 73.787.245.245z"/><path fill="#fff" d="m165.658 73.787.245.245z"/><path fill="#020202" d="m165.904 73.787.245.245z"/><path fill="#010101" d="M166.877 73.787v.245h.733z"/><path fill="#0f0e08" d="m44.957 74.033.245.245z"/><path fill="#0e0d08" d="m157.593 74.033.245.245zm9.285 0 .244.245z"/><path fill="#010101" d="m146.114 74.274.244.244z"/><path d="M60.11 77.208v.489l5.375 1.93 3.176 2.223c-.348-2.595-3.101-3.03-4.887-4.398 2.27-.427 5.35-.464 6.353-2.932z"/><path fill="#0e0d08" d="m141.469 74.765.244.245z"/><path fill="#010101" d="m147.332 74.765.244.245z"/><path fill="#0e0d08" d="m54.487 75.011.244.245zm13.682.245.245.244zm1.466 0 .245.244zm100.418 0 .245.244zM46.178 75.5l.244.244z"/><path fill="#020202" d="m170.057 75.498.244.244z"/><path fill="#0e0d08" d="m53.268 75.744.245.244zm15.882 0 .244.244zm87.96.244.244.244zm9.285 0 .244.244zm-113.855.244.245.245z"/><path fill="#0f0d06" d="m159.55 76.23.244.244zm-139.514.488.244.245z"/><path fill="#010101" d="m166.39 76.722.245.244z"/><path fill="#0e0d08" d="m45.203 77.208.245.244z"/><path d="m94.56 78.918.733-1.71c-1.04.166-1.858.97-.733 1.71"/><path fill="#0e0d08" d="m50.82 77.454.245.244z"/><path fill="#0f0d06" d="m21.506 77.694.244.244z"/><path fill="#0f0e08" d="m148.796 77.694.244.244z"/><path fill="#0e0d08" d="m64.262 77.94.244.244z"/><path fill="#010101" d="m166.637 77.94.244.244z"/><path fill="#0e0d08" d="m45.935 78.186.245.244z"/><path fill="#0f0e07" d="m149.534 78.186.244.244z"/><path fill="#0e0d08" d="m156.13 78.186.243.244z"/><path fill="#0e0b05" d="m9.042 78.432.245.244z"/><path fill="#0f0d06" d="m22.478 78.432.245.244z"/><path fill="#0f0e08" d="m40.073 78.432.244.244z"/><path fill="#020202" d="m168.587 78.432.244.244z"/><path fill="#0e0d08" d="m65.972 78.672.245.244z"/><path d="m103.352 78.672-.245 1.71c.765-.447.895-.848.733-1.71z"/><path fill="#0e0d08" d="m103.844 78.672.244.244z"/><path d="m113.613 80.382.733-1.71c-.948.274-1.734.955-.733 1.71"/><path fill="#010101" d="m155.883 78.672.244.244z"/><path fill="#020202" d="m168.347 78.672.244.244z"/><path fill="#0e0d08" d="m64.748 79.164.244.244z"/><path fill="#010101" d="m153.44 79.164.245.244z"/><path fill="#0f0e07" d="m158.325 79.164.245.244z"/><path fill="#010101" d="m167.855 79.164.244.244zm-.245.244.245.245z"/><path fill="#0e0d08" d="m67.437 79.65.244.245z"/><path fill="#0f0d06" d="m24.188 79.896.245.245z"/><path fill="#0e0d08" d="m153.927 79.896.244.245z"/><path fill="#0e0b05" d="m14.173 80.142.244.245z"/><path fill="#0e0d08" d="m103.598 80.142.244.245zm9.528 0 .245.245z"/><path d="M120.946 81.852v.978l2.443-1.71z"/><path fill="#0e0d08" d="m67.683 81.36.244.245zm54.24 0 .245.245zm1.222 0 .245.245z"/><path d="M132.672 81.36v2.932c.918-.898.918-2.033 0-2.932"/><path fill="#0f0d06" d="m165.166 81.36.245.245z"/><path fill="#0d0b05" d="m175.188 81.36.244.245z"/><path fill="#0e0d08" d="m121.678 81.606.245.245zm1.222 0 .244.245zm9.529 0 .244.245z"/><path fill="#0f0e07" d="m156.861 81.606.245.245z"/><path fill="#0f0d06" d="m163.948 81.852.244.245z"/><path fill="#0e0d08" d="m121.432 82.585.245.244zm-34.939.244.245.244z"/><path d="m84.539 86.251 2.932.733-1.627-1.568.894-2.341c-1.178.61-1.9 1.904-2.199 3.176"/><path fill="#0e0d05" d="m165.412 83.07.245.245z"/><path fill="url(#e)" d="M464.55 177.89v.417c10.496 1.327 15.223-3.69 22.944-9.594-1.108 2.987-6.614 6.822-6.47 9.594.156 2.968 4.823 3.242 6.887 2.424 3.943-1.563 6.436-5.918 7.293-9.933 1.778-8.334-9.164-15.158-16.014-9.838-5.872 4.56-8.464 12.35-14.64 16.93" transform="translate(-116.69 -10.366)scale(.5857)"/><path fill="#010101" d="m14.665 83.563.244.244z"/><path d="M40.319 88.447c.316 1.823 2.124.844 3.42.756 1.863-.128 5.324.476 6.353 2.176l1.71-.244c-.437-2.765-4.424-2.76-6.597-2.932 1.6-1.617 3.892-2.098 4.398-4.642z"/><path fill="#0d0b05" d="m173.477 83.563.245.244z"/><path fill="#0f0e07" d="m28.347 83.803.244.244z"/><path fill="#0d0b05" d="m176.406 84.049.244.244z"/><path fill="#0f0d06" d="m21.746 84.295.244.244z"/><path fill="#0e0d08" d="m85.271 84.295.244.244zm-37.626.244.244.245zm37.87.245.245.244z"/><path fill="#0f0e07" d="m30.057 85.273.244.244z"/><path fill="#0e0d08" d="m46.668 85.273.244.244zm1.954 0 .245.244z"/><path fill="#0e0b05" d="m15.151 85.513.244.244z"/><path d="m96.757 85.513-2.688 3.42 3.42 1.222-2.443-1.466c.509-1.066 2.505-1.992 1.71-3.176"/><path fill="#0e0d05" d="m172.745 85.513.245.244z"/><path fill="#0f0e07" d="m36.406 85.76.244.243z"/><path fill="#0e0d08" d="m45.935 85.76.245.243zm38.36 0 .245.243z"/><path fill="#0f0e07" d="m31.03 86.005.244.244zm4.886 0 .244.244z"/><path fill="#0e0d08" d="m47.646 86.251.244.244zm27.609 0 .244.244z"/><path d="M75.502 86.251 72.57 88.94c1.144.386 3.787 1.891 4.642.733l-3.176-1.222zm63.279 0 3.42 2.688v.488l-3.176 1.71c1.672-.136 3.097-.644 4.398-1.71-.95-1.61-2.806-2.822-4.642-3.176"/><path fill="#0f0e07" d="m31.767 86.491.245.245z"/><path fill="#010101" d="m173.231 86.491.245.245z"/><path fill="#0d0b05" d="m177.384 86.491.244.245zm-161.255.245.245.244z"/><path fill="#0e0d08" d="m95.292 86.737.245.245zm1.222 0 .244.245zm43.735 0 .244.245z"/><path fill="#0e0d05" d="m161.506 86.737.244.245zm11.728 0 .244.245z"/><path fill="#0e0d08" d="m74.277 86.983.245.245zm.978 0 .244.245zm19.79 0 .245.245z"/><path fill="#0e0b05" d="m16.615 87.223.245.245z"/><path d="M60.35 87.223c-1.48 3.316-3.757 6.017-6.353 8.548-1.49 1.453-3.812 2.804-4.398 4.89l10.75-2.281 5.62-1.14c-3.35-2.386-9.226.27-12.46 1.711 2.221-4.46 6.584-6.23 7.574-11.483l-.245-.245z"/><path fill="#0e0d08" d="m75.01 87.223.244.245zm19.79 0 .245.245zm44.957 0 .244.245zm-94.07.245.245.244z"/><path d="m105.062 89.672 1.466.244v-2.443c-1.06.343-1.181 1.198-1.466 2.199"/><path fill="#0f0e08" d="m42.269 87.715.244.245z"/><path fill="#0e0d08" d="m140.49 87.715.245.245zm-80.627.245.245.244z"/><path fill="#0e0b05" d="m17.347 88.201.245.245z"/><path fill="#0e0d08" d="m46.181 88.201.245.245zm48.866.245.244.244z"/><path fill="#010101" d="m173.477 88.447.245.245z"/><path fill="#0f0e08" d="m142.933 88.693.245.245z"/><path fill="#0f0e07" d="m158.571 88.693.245.245z"/><path fill="#0e0d08" d="m75.256 88.934.244.244z"/><path fill="#0f0d06" d="m167.855 88.934.244.244z"/><path fill="#0e0d08" d="m73.545 89.18.245.244zm31.519 0 .244.244z"/><path d="m116.547 89.18.245 2.687c1.133-.6 1.874-1.438 2.199-2.687l-1.71 1.221z"/><path fill="#0e0d08" d="m50.82 89.426.245.244zm65.481 0 .245.244zm1.955 0 .244.244z"/><path fill="#0f0e08" d="m143.18 89.426.244.244z"/><path fill="#0e0d05" d="m168.347 89.426.244.244z"/><path fill="#0e0b05" d="m18.326 89.672.244.244z"/><path fill="#0e0d08" d="m75.01 89.672.244.244zm43.002 0 .244.244zm22.723.244.244.244z"/><path fill="#0e0d05" d="m158.817 90.404.245.244z"/><path fill="#010101" d="m172.986 90.404.244.244z"/><path fill="#0d0b05" d="m178.608 90.644.245.244z"/><path fill="#010101" d="m172.745 91.136.245.244z"/><path fill="#0e0d08" d="m59.617 91.382.245.244z"/><path fill="#0e0b05" d="m24.926 91.622.245.244z"/><path fill="#020202" d="m164.68 91.868.245.244z"/><path fill="#0d0b05" d="m157.347 92.114.245.244z"/><path fill="#0e0d05" d="m164.434 92.114.245.244zm-7.33.244.245.245z"/><path d="m82.097 94.31.488-1.71c-1.048.305-1.624 1.06-.488 1.71"/><path fill="#0f0d06" d="m20.036 92.846.244.244z"/><path fill="#0e0d08" d="m81.364 92.846.245.244zm-24.921.244.244.245z"/><path fill="#0e0d05" d="m162.478 93.092.244.244z"/><path fill="#0e0d08" d="m56.197 93.332.244.244z"/><path fill="#010101" d="m171.521 93.332.245.244zm-10.262.244.245.245z"/><path fill="#0e0d05" d="m171.275 93.578.245.245z"/><path d="m125.83 94.064-.244 3.42-2.198-1.465c.229 1.482 1.265 2.186 2.687 2.443l.244-4.398z"/><path fill="#010101" d="M159.058 94.064v.245h.733z"/><path d="M65.48 101.643c1.617-.07 7.249.147 8.063-.977l-5.375-.733 2.932-5.62c-1.778.556-4.83 5.607-5.62 7.33M85.271 122.9c1.843-1.056 4.242-4.202 5.13-6.108-1.955.586-2.81 2.503-4.153 3.91l-.733-5.132c5.714-.499 8.225-6.742 11.588-10.496 2.047-2.284 4.612-3.274 7.226-4.652-1.54-1.843-3.684.105-5.131 1.22-3.878 2.985-6.116 6.604-9.53 10.02l1.956-5.131h-.245c-1.061 2.549-2.33 5.27-4.886 6.596l.977-3.42h-.244c-1.028 2.454-2.186 3.663-4.887 3.665l2.443-5.62h-.244l-3.176 5.375-.977-.244 2.443-4.642h-.245c-1.235 1.977-2.537 4.788-5.13 4.153l2.199-4.153c-1.225.958-1.755 3.25-3.2 3.819-.659.26-1.9-.223-1.636-1.095.343-1.133 2.207-2.248 2.942-3.213 2.502-3.286 4.531-8.643 8.246-10.664 3.042-1.656 7.671.442 10.995.401 1.905-.023 4.073-.677 4.642-2.687-1.553-.167-3.022.836-4.642.838-4.106.007-10.845-2.039-14.374.75-3.212 2.537-3.394 5.942-5.415 9.162-.986 1.572-2.73 2.636-4.154 3.77-.527.42-1.483 1.03-1.283 1.834.246.99 1.93 1.52 2.748 1.895a27.5 27.5 0 0 0 5.864 1.92c1.068.219 2.656.184 3.563.84 1.654 1.2 1.096 5.285 1.324 7.09z"/><path fill="#010101" d="m169.811 95.042.244.245zm-4.154.245.245.244zm3.421 0 .244.244z"/><path d="M39.586 95.534 39.342 97l.977-1.466z"/><path fill="#0e0d08" d="m97.243 95.534.244.245z"/><path fill="#010101" d="m166.637 95.534.244.245z"/><path fill="#0e0d08" d="m126.323 95.775.244.244z"/><path fill="url(#f)" d="M483.32 192.9c-.957-2.829-.52-6.249-2.358-8.742-2.401-3.258-7.787-2.981-11.408-2.937-1.25.016-3.334-.06-4.143 1.126-.965 1.415.791 4.873 1.17 6.381 1.57 6.25 2.971 14.871 8.398 19.058 3.567 2.752 10.744.948 13.72-2 4.749-4.702 6.03-15.69 1.207-20.766-5.965-6.279-5.874 4.89-6.585 7.88z" transform="translate(-116.69 -10.366)scale(.5857)"/><path fill="#0f0d06" d="m21.992 96.02.244.245z"/><path fill="#0e0d08" d="m82.829 96.02.244.245z"/><path fill="#0f0e08" d="m44.957 96.267.245.244z"/><path fill="#0e0d08" d="m53.268 96.267.245.244zm16.86 0 .244.244z"/><path fill="#0f0e08" d="m40.073 96.513.244.244z"/><path fill="#0e0d08" d="m46.181 96.513.245.244zm6.841 0 .245.244zm33.718 0 .244.244zm-33.962.244.245.244z"/><path fill="#0f0e08" d="m39.827 96.999.244.244z"/><path fill="#0e0d08" d="m68.66 96.999.245.244zm13.194 0 .244.244z"/><path fill="#0e0b05" d="m99.199 96.999.244.244z"/><path fill="#0e0d08" d="m169.079 96.999.244.244z"/><path fill="url(#g)" d="m509.18 183.73-2.23 10.429-1.58 5.405 2.976 2.104-.835-3.755h.418c1.929 4.633 3.962 5.423 8.76 5.423l-2.92-6.257c1.924 2.214 2.621 5.342 5.84 5.84l-2.92-5.423c2.67 2.898 3.988 4.9 7.926 2.92v-.834c-6.95-3.307-7.582-14.429-15.435-15.852" transform="translate(-116.69 -10.366)scale(.5857)"/><path d="m142.447 99.195.733-1.71c-.998.29-1.523.85-.733 1.71"/><path fill="#0e0d08" d="m68.169 97.73.244.245z"/><path fill="#0e0d05" d="m165.166 97.73.245.245z"/><path fill="#0f0e08" d="m84.293 97.977.244.244z"/><path fill="#010101" d="m155.883 97.977.244.244z"/><path fill="#0d0b05" d="m178.848 97.977.245.244z"/><path fill="#0e0d08" d="m60.35 98.223.244.244z"/><path fill="#0f0e08" d="m84.053 98.223.244.244zm-44.468.244.245.244zm.978 0 .244.244zm43.246 0 .244.244z"/><path fill="#0e0d08" d="m68.415 98.709.244.244zm11.728 0 .244.244z"/><path fill="#0f0e08" d="m43.74 98.955.243.244z"/><path fill="#0f0e07" d="m150.266 98.955.245.244z"/><path fill="#010101" d="m166.39 98.955.245.244z"/><path fill="#0f0e08" d="m43.493 99.441.244.244z"/><path fill="#0f0e07" d="m83.075 99.441.244.244z"/><path d="m109.46 99.441 2.688 2.932 1.222-2.932-1.222 1.955zm24.678 0-.245 3.665-2.443-1.466c-.136 1.61 2.331 3.442 3.665 4.154l-.489-6.353z"/><path fill="#0e0d08" d="m66.458 99.933.245.244zm4.154 0 .244.244zm-4.398.244.244.245z"/><path fill="#0f0e07" d="m149.534 100.173.244.244z"/><path fill="#0f0d06" d="m28.587 100.665.244.244z"/><path fill="#0f0e08" d="m43.98 100.905.244.245z"/><path fill="#0e0d08" d="m65.48 100.905.245.245z"/><path fill="#0f0d06" d="m99.931 100.905.244.245z"/><path fill="#0f0e07" d="m149.042 100.905.244.245zm1.71.245.245.244z"/><path fill="#0e0d08" d="m110.925 101.397.244.245zm75.01 0 .245.245zm-107.259.245.244.244z"/><path fill="#0f0e07" d="m148.556 101.643.244.245z"/><path fill="#0f0d06" d="m26.39 101.883.245.245zm72.323 0 .244.245z"/><path fill="#0e0d08" d="m100.663 101.883.245.245z"/><path fill="#0f0d06" d="m25.659 102.13.244.244z"/><path fill="#0e0d08" d="m111.417 102.13.244.244zm21.012 0 .244.244z"/><path fill="#0f0e07" d="m149.774 102.616.245.244z"/><path fill="#0e0d08" d="m98.953 103.108.244.244z"/><path fill="#0f0d06" d="m25.659 103.354.244.244z"/><path fill="#0e0d08" d="m157.347 103.354.245.244zm-104.33.244.244.244z"/><path d="M67.928 103.594c-.765 3.66-3.38 6.954-5.725 9.773-1.118 1.343-2.836 2.693-3.315 4.398 4.05-1.167 8.601-5.28 12.95-4.887-1.119-2.167-6.337.84-8.307 1.222 1.584-2.35 3.751-4.395 4.772-7.086.428-1.129.698-2.647-.374-3.42z"/><path fill="#0f0e07" d="m80.386 103.594.245.244z"/><path fill="#0e0d08" d="m96.27 103.594.245.244z"/><path fill="#0f0d06" d="m28.587 103.84.244.244zm.977 0 .245.244z"/><path fill="#0e0d08" d="m67.683 104.086.244.244z"/><path fill="#0f0e07" d="m146.6 104.086.244.244z"/><path fill="#010101" d="m157.593 104.326.245.244zm14.171.244.245.244z"/><path fill="#0f0e08" d="m187.892 104.572.244.244z"/><path fill="#0e0d08" d="m97.003 104.818.244.244z"/><path fill="#0f0e08" d="m44.957 105.064.245.244z"/><path fill="#0f0d06" d="m27.609 105.304.244.244z"/><path fill="#0e0d08" d="m94.56 105.304.245.244z"/><path fill="#0f0d06" d="m27.369 105.55.244.244z"/><path fill="#0e0d08" d="m134.382 105.55.244.244z"/><path d="M122.41 109.462c-1.033-1.03-2.086-2.454-3.665-2.199l4.643 5.62 1.221-7.086c-1.861.295-1.77 2.142-2.199 3.665"/><path fill="#0f0e07" d="m184.957 105.796.245.244z"/><path fill="#0f0e08" d="m42.029 106.036.244.244zm5.13 0 .245.244z"/><path d="m99.445 108.238-.244-1.221h-.733l.244 3.176c1.423-.246 2.904-2.805 3.176-4.154z"/><path fill="#010101" d="m171.521 106.036.245.244z"/><path fill="#0e0d08" d="m51.312 106.282.245.244zm42.513 0 .245.244zm1.955 0 .244.244zm28.83 0 .245.244z"/><path fill="#0f0e07" d="m147.086 106.282.244.244z"/><path fill="#0d0b05" d="m190.58 106.528.244.244z"/><path fill="#0e0d08" d="m75.988 106.774.244.244z"/><path fill="#0e0b05" d="m179.094 106.774.245.244z"/><path fill="#0e0d08" d="m53.268 107.014.245.244zm13.194 0 .244.244z"/><path d="m84.867 107.178.082.163z"/><path fill="#0f0e07" d="m146.114 107.26.244.244z"/><path fill="#0d0b05" d="m173.231 107.26.245.244zm7.575 0 .244.244z"/><path fill="#0e0d08" d="m67.928 107.506.245.244zm16.615 0 .244.244zm-18.569.489.244.244zm104.817 0 .244.244z"/><path fill="#0d0b05" d="m172.986 107.992.244.245z"/><path fill="#0f0d06" d="m186.181 107.992.245.245z"/><path d="m32.008 108.238.244.245z"/><path fill="#0e0d08" d="m74.277 108.238.245.245z"/><path fill="#0f0e07" d="m144.157 108.238.245.245z"/><path fill="#0f0d06" d="m31.521 108.484.245.245zm.489 0 .244.245z"/><path fill="#0f0e08" d="m82.343 108.484.244.245z"/><path fill="#0e0d08" d="m92.358 108.484.244.245zm78.185 0 .244.245zm-48.133.489.245.244zm37.138 0 .245.244z"/><path fill="#0f0e07" d="m36.16 109.216.244.245z"/><path fill="#0e0d08" d="m91.626 109.462.244.245zm31.762 0 .245.245z"/><path fill="#0f0e08" d="m51.558 109.703.245.244z"/><path fill="#0e0b05" d="m78.19 109.703.244.244z"/><path fill="#0e0d08" d="m81.364 109.703.245.244z"/><path fill="#0f0e08" d="m83.56 109.703.245.244z"/><path fill="#0e0d08" d="m93.336 109.703.244.244z"/><path fill="#0d0b05" d="m173.964 109.703.244.244z"/><path fill="#0e0d08" d="m72.081 109.948.244.245zm14.904 0 .245.245z"/><path d="m108.482 109.948-1.221 3.177h-.245l-1.954-2.688 1.71 5.62h.244c.65-1.633 2.951-4.636 1.466-6.109"/><path fill="#0e0d08" d="m121.192 109.948.244.245z"/><path fill="#0f0e08" d="m83.32 110.194.245.245z"/><path fill="#0f0d06" d="m156.861 110.194.245.245z"/><path fill="#0d0b05" d="m74.77 110.435.244.244z"/><path fill="#0e0d08" d="m107.996 110.435.245.244z"/><path fill="#0f0e08" d="m44.225 110.68.245.245z"/><path fill="#0f0e07" d="m82.583 110.68.244.245z"/><path fill="#0e0d08" d="m86.981 110.68.245.245zm2.2 0 .244.245z"/><path fill="#0f0d06" d="m29.811 110.927.244.244z"/><path fill="#0e0d08" d="m89.67 110.927.244.244zm71.344 0 .244.244zm-97.244.244.244.244zm97.49 0 .244.244z"/><path fill="#0f0d06" d="m29.079 111.413.244.244z"/><path fill="#0d0b05" d="m77.698 111.413.244.244z"/><path fill="#0f0d06" d="m80.872 111.413.245.244z"/><path fill="#0e0d08" d="m89.67 111.413.244.244z"/><path d="m134.874 111.659 1.466 8.062c-1.557-1.36-6.36-7.63-8.307-5.375 4.495 1.433 6.368 6.684 10.262 9.04l-1.218-4.642-1.47-7.33z"/><path fill="#0e0d08" d="m161.506 111.413.244.244z"/><path fill="#010101" d="m166.145 111.659.244.244z"/><path fill="#0e0b05" d="m172.253 111.659.245.244z"/><path fill="#0d0b05" d="m28.347 111.905.244.244z"/><path fill="#0f0e07" d="m34.696 111.905.244.244z"/><path fill="#0e0d08" d="m64.748 111.905.244.244z"/><path fill="#0d0b05" d="m76.72 111.905.244.244zm.733 0 .244.244z"/><path fill="#0e0b05" d="m81.85 111.905.245.244z"/><path fill="#010101" d="m162.724 111.905.244.244z"/><path fill="#0d0b05" d="m172.007 111.905.245.244z"/><path fill="#0e0d08" d="m63.038 112.145.244.244z"/><path fill="#0d0b05" d="m76.234 112.145.244.244zm3.42 0 .245.244z"/><path fill="#0f0e08" d="m47.4 112.39.244.245z"/><path fill="#0f0e07" d="m87.227 112.637.245.244z"/><path fill="#0f0d06" d="m33.964 112.883.244.244z"/><path fill="#0e0b05" d="m81.118 112.883.245.244z"/><path fill="#0f0e07" d="m86.741 112.883.245.244z"/><path fill="#0e0d08" d="m66.704 113.123.245.244z"/><path fill="#0f0d06" d="m160.036 113.123.244.244z"/><path fill="#0e0d08" d="m75.502 113.369.244.244z"/><path d="M147.824 113.369c-1.237 3.029 1.782 6.28 2.932 9.04-3.177-1.637-5.997-4.366-9.773-4.398v.978c5.44.475 8.342 6.041 12.705 8.551-.041-4.553-3.95-9.79-5.375-14.17z"/><path fill="#0f0d06" d="m155.15 113.369.245.244z"/><path fill="#0e0d08" d="m65.24 113.615.244.244z"/><path fill="#0f0d06" d="m161.014 113.615.244.244z"/><path fill="#0e0b05" d="m170.297 113.615.244.244z"/><path fill="#0e0d08" d="m89.43 113.855.244.244z"/><path fill="#0d0b05" d="m170.057 113.855.244.244z"/><path fill="#0f0e08" d="m51.558 114.101.245.244zm83.562 0 .244.244z"/><path fill="#0e0b05" d="m169.811 114.101.244.244z"/><path fill="#0f0e08" d="m51.312 114.347.245.244z"/><path fill="#0e0d08" d="m78.43 114.347.244.244zm10.262 0 .244.244z"/><path fill="#0f0d06" d="m156.615 114.347.244.244z"/><path fill="#0f0e08" d="m51.066 114.593.245.244zm-.244.244.244.245z"/><path fill="#0e0d08" d="m107.264 114.833.244.245z"/><path fill="#0f0e08" d="m50.58 115.08.244.244z"/><path fill="#0e0d08" d="m60.596 115.08.244.244z"/><path fill="#0f0e08" d="m136.338 115.325.245.245z"/><path fill="#0f0e07" d="m147.578 116.057.244.245z"/><path fill="#0f0e08" d="m49.602 116.303.244.245z"/><path fill="#0e0d08" d="m61.82 116.303.244.245zm-.489.245.244.244z"/><path d="m98.22 117.035-1.71.245c.577 1.37 1.594 2.477 2.072 3.909.53 1.586.186 3.775 1.838 4.642.765-1.718 2.646-4.518 2.199-6.352-1.388.682-2.046 2.168-2.2 3.665h-.243z"/><path fill="#0f0e08" d="m48.87 117.276.244.244z"/><path d="M75.502 117.276c0 4.795-.653 9.303-1.955 13.926 1.7.063 2.59-1.705 3.512-2.932 1.819-2.421 3.643-5.091 6.506-6.352v-.244c-2.903-.376-6.53 3.963-7.575 6.352h-.244c.86-3.325 1.626-7.482.244-10.75z"/><path fill="#0e0d08" d="m90.162 117.276.244.244z"/><path fill="#0e0b05" d="m160.528 117.276.244.244z"/><path fill="#0d0b05" d="m166.39 117.276.245.244z"/><path d="m117.034 122.652-5.62-3.909c.313 1 1.107 1.298 1.847 1.985 1.458 1.352 2.731 4.515 4.75 4.856l.489-8.062c-1.972.752-1.466 3.398-1.466 5.13"/><path fill="#0f0e07" d="m148.31 117.522.244.244z"/><path fill="#0e0b05" d="m166.145 117.522.244.244z"/><path fill="#0e0d08" d="m98.467 117.768.244.244z"/><path fill="#0f0e08" d="m135.846 118.014.245.244z"/><path fill="#0e0d08" d="m97.003 118.254.244.244z"/><path fill="#0f0e08" d="m133.164 118.254.244.244zm1.71.244.244.244z"/><path fill="#0f0e07" d="m135.114 118.746.244.244z"/><path fill="#0e0d08" d="m88.451 118.986.245.244zm23.944 0 .245.244z"/><path fill="#0f0e08" d="m145.376 119.232.244.244z"/><path fill="#0f0e07" d="m49.356 119.478.244.244z"/><path fill="#0e0d08" d="m102.62 119.478.244.244zm-14.905.488.245.245z"/><path fill="#0f0e08" d="m134.628 119.964.244.244z"/><path fill="#0f0d06" d="m150.752 119.964.245.244z"/><path fill="#0e0b05" d="m162.478 119.964.244.244z"/><path fill="#010101" d="m163.702 119.964.245.244z"/><path fill="#0f0e07" d="m49.848 120.21.244.244z"/><path fill="#0e0b05" d="m163.456 120.21.244.244z"/><path fill="#0e0d08" d="m113.127 120.456.244.244z"/><path fill="#0f0d06" d="m147.578 120.456.244.244z"/><path fill="#0e0b05" d="m163.216 120.456.244.244z"/><path fill="#0e0d08" d="m61.82 120.942.244.244zm36.649 0 .244.244zm15.637.489.244.244z"/><path fill="#0f0e08" d="m61.574 121.92.244.245z"/><path fill="#0e0d08" d="m116.301 122.166.245.245z"/><path d="M130.962 122.166c-1.723 3.055.788 9.35 1.221 12.705h-.244c-1.362-2.876-3.985-5.252-6.108-7.574-.3-.327-1.847-2.436-2.401-1.549-.577.925 2.251 3.118 2.782 3.748 1.953 2.314 3.716 4.932 5.195 7.574.854 1.528 1.599 3.57 3.22 4.398-1.223-6.303-3.159-12.848-3.177-19.302z"/><path fill="#0f0d06" d="m147.578 122.166.244.245z"/><path fill="#010101" d="m80.872 122.406.245.245z"/><path fill="#0e0d08" d="m82.097 122.406.244.245zm17.835 0 .245.245z"/><path fill="#0f0e07" d="m137.07 122.406.245.245z"/><path fill="#0f0e08" d="m130.475 122.652.245.245z"/><path fill="#0e0b05" d="m162.238 122.652.244.245z"/><path fill="#0e0d08" d="m85.271 122.898.244.245z"/><path fill="#0f0e08" d="m100.177 122.898.244.245z"/><path fill="#0e0b05" d="m156.615 123.144.244.245zm3.176 0 .245.245z"/><path fill="#0e0d08" d="m80.872 123.384.245.245zm34.695 0 .244.245z"/><path fill="#0f0d06" d="m148.796 123.384.244.245z"/><path fill="#0f0e08" d="m61.082 123.63.244.245z"/><path fill="#0e0b05" d="m157.84 123.876.244.245z"/><path fill="#0e0d08" d="m75.01 124.117.244.244z"/><path fill="#0f0e07" d="m53.022 124.363.245.244z"/><path fill="#0f0e08" d="m116.301 124.363.245.244zm14.171 0 .245.244z"/><path fill="#0d0b05" d="m162.238 124.363.244.244z"/><path fill="url(#h)" d="m283.92 230.45-4.589 12.932 9.595-6.675c-.168-3.223-1.914-5.338-5.006-6.257" transform="translate(-116.69 -10.366)scale(.5857)"/><path fill="#0e0d08" d="m79.408 124.855.245.244zm37.383.244.244.244z"/><path fill="#0f0e08" d="m60.11 126.073.244.244z"/><path fill="#0f0d06" d="m151.73 126.073.245.244z"/><path fill="#0f0e08" d="m124.853 126.319.244.244z"/><path fill="#0e0d08" d="m71.349 126.565.244.244z"/><path d="m90.162 126.565-.245.244c1.196 3.284 2.373 6.005 2.952 9.529.269 1.637.102 3.767 1.446 4.886 1.374-2.606 1.869-5.63 3.123-8.307.72-1.536 1.896-2.884 1.52-4.642-2.349 1.155-3.735 6.37-4.398 8.796-1.212-3.23-.842-8.843-4.398-10.506"/><path fill="#0f0e08" d="m123.875 127.05.244.245zm.244.245.244.245z"/><path fill="#0e0d08" d="m75.742 127.537.244.244z"/><path fill="#0f0e08" d="m124.367 127.537.244.244z"/><path fill="#0f0e07" d="m56.443 127.783.244.244z"/><path fill="#0f0e08" d="m61.574 127.783.244.244z"/><path fill="#fff" d="m75.742 127.783.244.244z"/><path fill="#0f0e08" d="m124.613 127.783.244.244z"/><path fill="#010101" d="m157.84 127.783.244.244z"/><path fill="#0e0d08" d="m76.966 128.03.244.243zm21.257.243.244.245z"/><path fill="#0f0e07" d="m130.962 128.275.244.244z"/><path fill="#0e0d08" d="m98.953 128.515.244.245z"/><path fill="#0f0e08" d="m126.809 128.515.244.245z"/><path fill="#0f0d06" d="m127.055 128.761.244.244z"/><path fill="#0f0e07" d="m57.907 129.007.244.245zm18.325 0 .244.245z"/><path d="M106.772 129.007c2.763 5.487 4.808 10.648 6.353 16.615 1.723-.966 1.486-2.672 1.467-4.398-.045-4.02 1.5-8.024 1.22-11.972-1.153.395-1.359 1.576-1.56 2.687-.481 2.666-.49 5.418-1.127 8.063-1.325-3.078-2.376-10.358-6.353-10.995"/><path fill="#0e0d08" d="m107.504 129.007.245.245z"/><path fill="#0f0d06" d="m146.6 129.007.244.245z"/><path fill="#0e0d08" d="m91.14 129.247.244.245z"/><path fill="#0f0e07" d="m126.077 129.247.244.245zm-64.99.245.245.244z"/><path fill="#0e0d08" d="m79.654 129.493.245.245z"/><path fill="#0f0e08" d="m114.837 129.493.245.245z"/><path fill="#0f0d06" d="m156.615 129.493.244.245z"/><path fill="#0d0b05" d="m49.602 129.74.244.244z"/><path fill="#0f0e08" d="m114.591 129.985.245.245zm-49.599.489.245.244z"/><path fill="#0e0d08" d="m97.003 130.471.244.245zm1.466 0 .244.245z"/><path fill="#0f0e07" d="m127.055 130.471.244.245zm-62.301.245.244.244z"/><path fill="#0f0d06" d="m147.332 130.717.244.245z"/><path fill="#0d0b05" d="m155.637 130.717.244.245z"/><path fill="#0f0e08" d="m64.508 130.958.244.244z"/><path fill="#0e0d08" d="m98.22 130.958.245.244z"/><path fill="#0f0e08" d="m109.214 130.958.245.244z"/><path fill="url(#i)" d="m469.55 241.29-2.92 5.006 9.177 4.171z" transform="translate(-116.69 -10.366)scale(.5857)"/><path fill="#0f0e07" d="m129.251 131.204.245.244z"/><path fill="#0e0d08" d="m97.98 131.45.245.244z"/><path fill="#0f0e08" d="m108.242 131.696.245.244z"/><path fill="#0d0b05" d="m47.16 131.936.244.244z"/><path fill="#0f0e08" d="m66.704 131.936.245.244z"/><path fill="#fff" d="m46.668 132.182.244.244z"/><path fill="#0e0d08" d="m96.27 132.182.245.244z"/><path fill="#0f0e08" d="m108.482 132.182.245.244z"/><path fill="#0e0b05" d="m154.419 132.182.244.244z"/><path fill="#0f0e08" d="m108.728 132.668.245.244zm1.466 0 .245.244zm-1.221.488.244.245zm1.466 0 .244.245zm-14.66.245.244.244zm1.222 0 .244.244z"/><path fill="#0f0d06" d="m139.513 133.406.244.244z"/><path fill="#0f0e08" d="m110.685 133.646.244.244z"/><path fill="#010101" d="m156.861 133.892.245.244z"/><path fill="#0f0e07" d="m61.574 134.138.244.244z"/><path d="m89.184 134.378.244.244z"/><path fill="#0f0e07" d="m129.743 134.378.245.244z"/><path fill="#0f0e08" d="m95.292 134.624.245.244z"/><path fill="#0f0d06" d="m141.223 134.624.244.244z"/><path fill="#0f0e07" d="m65.726 134.87.245.244z"/><path fill="#0f0e08" d="m89.67 134.87.244.244z"/><path fill="#0f0d06" d="m142.201 135.356.244.245zm-15.637.245.244.244zm.489 0 .244.244z"/><path fill="#0f0e07" d="m60.11 135.848.244.244z"/><path fill="#0f0e08" d="m94.8 135.848.245.244z"/><path fill="#0f0e07" d="m130.716 135.848.244.244zm-62.061.978.244.244z"/><path fill="#0f0e08" d="m99.199 136.826.244.245zm-40.07.245.244.244z"/><path fill="#0f0d06" d="m133.65 137.066.244.245z"/><path fill="#0f0e07" d="m112.149 137.312.244.245zm-42.513.245.244.244z"/><path fill="#0f0d06" d="m131.694 137.558.244.245z"/><path fill="#0f0e07" d="m116.793 137.804.245.245z"/><path fill="#0f0e08" d="m70.125 138.045.244.244z"/><path fill="#0e0b05" d="m145.622 138.29.244.245z"/><path fill="#0f0e07" d="m58.153 138.537.245.244z"/><path fill="#0f0e08" d="m93.09 138.537.245.244z"/><path fill="#0f0e07" d="m107.996 138.537.245.244z"/><path fill="#0e0b05" d="m145.868 138.537.244.244z"/><path fill="#0f0e07" d="m79.162 138.777.245.244zm33.473.244.244.244zm-40.803.244.245.245zm47.889 0 .244.245zm-47.156.489.245.244zm45.69.244.244.245zm-32.985.245.245.244zm35.183 0 .245.244zm-35.427.488.244.245zm-10.018.245.245.244zm3.177 0 .244.244zm42.757 0 .244.244zm-45.2.244.243.244zm25.653.244.245.245z"/><path fill="url(#j)" d="m318.96 260.07-.834 12.932c3.666-3.915 9.78-12.145.834-12.932" transform="translate(-116.69 -10.366)scale(.5857)"/><path fill="#0f0e07" d="m86.25 141.957.244.244z"/><path fill="#0e0b05" d="m141.223 142.935.244.244z"/><path fill="#0d0b05" d="m150.998 142.935.245.244z"/><path fill="#0f0e07" d="m114.837 143.175.245.245z"/><path fill="#0e0b05" d="m140.245 143.421.244.245z"/><path fill="#0f0e07" d="m102.374 143.907.244.245zm10.262 0 .244.245z"/><path fill="#0d0b05" d="m138.535 144.153.244.245z"/><path fill="#0f0e07" d="m114.105 144.885.244.245z"/><path fill="#0f0d06" d="m121.192 144.885.244.245z"/><path fill="#0e0b05" d="m137.07 144.885.245.245z"/><path fill="#0f0e07" d="m85.763 145.131.244.245zm28.098 0 .244.245z"/><path fill="#0e0b05" d="m136.584 145.131.245.245z"/><path fill="#0f0e07" d="m108.242 145.618.245.244z"/><path fill="#0f0d06" d="m121.432 145.618.245.244zm1.955 0 .244.244z"/><path fill="#0d0b05" d="m71.59 146.11.243.244z"/><path fill="#0f0e07" d="m89.43 146.356.244.244zm13.926.488.245.245z"/><path fill="#0e0b05" d="m132.426 146.842.244.244zm-.733.244.244.244z"/><path fill="#0d0b05" d="m153.195 147.328.244.244zm.488 0 .245.244z"/><path fill="#0f0d06" d="m129.983 147.574.245.244z"/><path fill="url(#k)" d="M429.09 272.58c1.607 3.45 5.253 7 8.343 9.177l-3.754-11.68z" transform="translate(-116.69 -10.366)scale(.5857)"/><path fill="#0f0d06" d="m124.367 148.066.244.244zm-42.513.488.244.245z"/><path fill="#0f0e07" d="m97.003 148.552.244.244z"/><path fill="#0d0b05" d="m135.114 148.798.244.244z"/><path fill="#0f0d06" d="m99.199 149.038.244.244z"/><path fill="#0d0b05" d="m135.606 150.748.244.245zm.244.245.245.244z"/><path fill="url(#l)" d="M358.17 290.52h.417l3.755-13.349-4.749-.806-.257 3.726z" transform="translate(-116.69 -10.366)scale(.5857)"/><path fill="#0d0b05" d="m136.092 151.24.245.245zm2.444.978.244.244z"/><path fill="url(#m)" d="m392.8 279.67 4.589 13.349c1.03-2.386 4.208-11.602 1.952-13.515-1.745-1.48-4.647-.335-6.541.166" transform="translate(-116.69 -10.366)scale(.5857)"/><path fill="#0d0b05" d="m113.86 153.197.243.244z"/><path fill="#010101" d="m137.803 153.197.244.244zm-11.484.977.245.244z"/><path fill="#0d0b05" d="m139.027 154.415.244.244zm-25.41.244.244.245zm25.654 0 .489.489z"/><path fill="#fff" d="m139.513 154.66.244.245z"/><path fill="#0e0b05" d="m127.541 155.147.244.244z"/><path fill="#0d0b05" d="m94.314 155.393.245.244z"/><path fill="#fef666" d="M166.75 95.68c-.966-.176-1.722-.895-1.722-1.638 0-.701.45-1.41 2.279-3.591 1.46-1.74 1.283-1.694-1.418.37-2.986 2.283-5.125 3.153-8.106 3.295-1.384.066-2.517.032-2.517-.077 0-.108.408-.54.907-.96.498-.42 2.172-2.457 3.72-4.527 2.826-3.782 4.205-5.064 6.021-5.597 2.872-.842 6.57 1.376 7.402 4.441.773 2.845-1.736 7.427-4.485 8.191-.591.164-1.14.282-1.219.261s-.467-.096-.861-.168z"/><path fill="#fef67a" d="M162.873 112.056c-.94-.26-2.15-1.242-3.03-2.457-1.049-1.447-1.788-3.427-3.031-8.115a308 308 0 0 0-1.135-4.204c-.401-1.31 2.454-1.976 5.946-1.387 2.747.463 3.757 1.385 4.25 3.879.186.942.374 1.842.417 2s.246-.598.45-1.68c.228-1.201.623-2.257 1.018-2.716l.645-.75 1.047.706c1.645 1.11 2.576 3.289 2.56 5.986-.025 3.817-1.597 6.792-4.248 8.038-1.312.617-3.87.983-4.889.7"/></svg>