<svg xmlns="http://www.w3.org/2000/svg" viewBox="0 0 23.414 22.08"><path fill="#1a3967" fill-rule="evenodd" d="M12.091 7.647c1.869.224 3.27 1.778 3.263 3.617-.003 1.492-.942 2.83-2.366 3.369l1.403 7.447H8.912l1.429-7.432c-1.764-.643-2.757-2.474-2.31-4.26s2.191-2.965 4.06-2.74" clip-rule="evenodd"/><path fill="#ed7f22" fill-rule="evenodd" d="M11.707 0c6.373 0 11.575 4.978 11.707 11.201.003 4.046-2.206 7.786-5.795 9.807l-.746-4.852a6.62 6.62 0 0 0 1.82-4.549c-.102-3.696-3.2-6.642-6.986-6.642s-6.884 2.946-6.985 6.642c0 1.673.64 3.285 1.794 4.52l-.752 4.866C2.195 18.964 0 15.235 0 11.201.132 4.978 5.334 0 11.707 0z" class="ov-orange" clip-rule="evenodd"/></svg>