<svg xmlns="http://www.w3.org/2000/svg" viewBox="0 0 298.9 246.83"><defs><linearGradient id="a" x1="213.93" x2="513.92" y1="-1164.1" y2="-1164.1" gradientTransform="matrix(1 0 0 -1 -214.98 -1040.7)" gradientUnits="userSpaceOnUse"><stop offset="0" stop-color="#3fa9f5"/><stop offset=".9" stop-color="#7ac943"/></linearGradient></defs><path fill="url(#a)" fill-rule="evenodd" d="M243.86 136.82h-25a1 1 0 0 0-1 .91v.31a95 95 0 0 1-2 9.61l-.76 2.76-.34 1.18-.37 1.18-.73 2.19-.43 1.24-.87 2.28-.41 1.06-1.38 3.26-.42.89-1.2 2.55a97 97 0 0 1-14.93 21.8l-2.47 2.63-2.84 2.81-.45.41-2.61 2.42-1.07.91-2.14 1.75-1.24 1-2.12 1.59-1.28.92-2.3 1.55-1.18.78-3.06 1.88-.5.3-3.66 2-1.12.56-2.65 1.3-1.41.64-2.48 1.07-1.49.61-2.55 1-1.45.53-3 1-1.08.35-4.12 1.12-.91.21-3.29.73-1.49.27-2.79.48-1.64.24-2.77.34-1.64.17-3 .22-1.42.08-4.45.11a96.56 96.56 0 0 1 0-193.12l4.46.11 1.42.08 3 .22 1.63.17 2.77.33 1.64.24 2.79.48 1.5.28 3.29.73.91.21 4.11 1.12 1.08.34 3 1 1.44.53 2.56 1 1.49.61 2.47 1.07 1.42.64 2.65 1.3 1.12.56 3.66 2 .49.3 3.07 1.88 1.18.77 2.29 1.56 1.28.92 1.95 1.26.92.73 3.41 2.81q1.69 1.46 3.32 3l2.23 2.2a1 1 0 0 0 .72.29h32a1 1 0 0 0 .88-1.6 124 124 0 0 0-9-11.7L212.42 39l-.95-1-1-1.06-.35-.34-.46-.48c-1.4-1.39-2.83-2.76-4.29-4.08l-.12-.1-.08-.09-.59-.5-3.68-3.19-.79-.62-.54-.46-1.15-.87-2.14-1.68-1.66-1.22-1-.75h-.05l-.9-.6-1.33-.94-2.66-1.71-1.21-.81h-.05l-.46-.26-.61-.4c-1.69-1-3.42-2-5.17-3h-.09l-.07-.05c-1.1-.58-2.2-1.16-3.3-1.72l-1.31-.63-.55-.29-.49-.22-1-.48c-1.13-.53-2.26-1-3.41-1.53l-.56-.24-.5-.19-2.41-1-2.1-.79-.59-.23-.3-.1-.53-.2c-1.18-.42-2.38-.83-3.57-1.22l-.88-.27-.45-.15-.63-.18-1.65-.51-3.44-.94h-.2c-1.23-.31-2.47-.61-3.71-.89l-1.53-.32-.64-.14-.51-.1-1.07-.22c-1.26-.24-2.52-.45-3.79-.66l-.45-.06-.26-.05-.59-.07-2.58-.48-2.42-.27-.63-.08h-.29l-.53-.05c-1.29-.13-2.59-.23-3.9-.31l-1-.05h-1.23l-1.71-.08c-1.32 0-2.63-.07-4-.07a123.42 123.42 0 0 0 0 246.83c1.33 0 2.65 0 4-.07h1.4l.84-.05 1.69-.08 1.91-.16.87-.16.45-.05.68-.05c1.29-.12 2.58-.26 3.86-.43h.24l.48-.07 3.11-.44 1-.17.6-.1.77-.15 1.44-.25 2.08-.43.82-.16.35-.08.51-.1c1.24-.27 2.48-.57 3.7-.89l.27-.07h.19l.66-.19 2.54-.69 1.1-.34.64-.18.69-.23 1.19-.36 2.26-.77.72-.24.24-.09.35-.12c1.18-.42 2.35-.86 3.52-1.31l.38-.16.27-.11.72-.3 2.09-.86 1.19-.53.67-.29.58-.27 1-.44 2.46-1.19.55-.26.15-.07.2-.1c1.11-.56 2.21-1.13 3.3-1.72l.31-.18.5-.27c1.47-.8 2.92-1.65 4.36-2.51l.78-.5.44-.26a.1.1 0 0 0 .05 0l.8-.52 2.14-1.5 2.39-1.65.76-.51h.06l.32-.24.59-.41c1.36-1 2.69-2 4-3l.59-.48.35-.26h.05l.71-.6 2.17-1.78 2-1.76.71-.61.36-.35.65-.57q1.83-1.69 3.59-3.47l.43-.44.25-.25h.05l.59-.65 2.14-2.23 1.6-1.8.64-.69v-.05l.36-.44.68-.76c1.07-1.27 2.13-2.56 3.16-3.88l.27-.37.17-.21.46-.64 2-2.73 1.24-1.81.57-.78.48-.73.55-.81a122.7 122.7 0 0 0 13.4-27.12l.1-.28v-.07l.48-1.51 1-3 .11-.38.11-.35.45-1.69.71-2.53.12-.52.17-.59.72-3.24.16-.69.33-1.51c.37-1.82.7-3.66 1-5.51l.53-4.13a1 1 0 0 0-.89-1.41m-81.58-30.35 1.09 3h27.79l-.05-.27a69.9 69.9 0 0 0-10.55-25.1l-1.15-1.6h-42.62l.48.16a43.47 43.47 0 0 1 25.01 23.81m18.28 56.09a69.7 69.7 0 0 0 10.55-25.09l.08-.54h-27.73l-1.19 3.25a43.47 43.47 0 0 1-23.05 23.05l-1.69.67h42.07zm91.46-54.52.15 2h26.73v-.22a178 178 0 0 0-3.08-22.06l-1.09-4.69H267.3l.79 2.77a150.5 150.5 0 0 1 3.93 22.2m.15 28.74-.15 2a149 149 0 0 1-4 22.22l-.77 2.71h27.45l1.07-4.62a174 174 0 0 0 3.08-22.06v-.29zm-33.15-53.87-.16-.42h-29l.6 1.25a96 96 0 0 1 7.3 24.77l.15 1.23h27.11l-.68-5.31a122.4 122.4 0 0 0-5.32-21.52"/></svg>