<svg xmlns="http://www.w3.org/2000/svg" fill-rule="evenodd" stroke-linejoin="round" stroke-miterlimit="2" clip-rule="evenodd" viewBox="0 0 140.15 140.14"><path d="M70.073 0c38.674 0 70.073 31.398 70.073 70.072s-31.399 70.073-70.073 70.073S0 108.747 0 70.072 31.4 0 70.073 0m0 20.003c27.634 0 50.07 22.436 50.07 50.07 0 27.633-22.436 50.069-50.07 50.069s-50.07-22.436-50.07-50.07c0-27.633 22.436-50.069 50.07-50.069"/><path fill="#6c24f0" d="M95.907 59.366a27.9 27.9 0 0 1 2.245 11.001c0 15.498-12.583 28.081-28.081 28.081S41.99 85.865 41.99 70.367s12.583-28.08 28.08-28.08c3.834 0 7.49.77 10.817 2.169a11.21 11.21 0 0 0-6.524 10.204c0 6.236 5.063 11.3 11.3 11.3 4.553 0 8.48-2.698 10.243-6.594"/></svg>