<svg xmlns="http://www.w3.org/2000/svg" viewBox="0 0 29.5 32"><path fill="#002fa7" d="M26.462 12.477c-.65.788-2.322 1.108-3.65.702-1.268-.387-1.676-1.276-.99-1.976.662-.674 2.142-.966 3.375-.66 1.29.317 1.889 1.178 1.265 1.934m-5.86-1.61c-.694.679-2.183.97-3.258.642-.598-.183-.928-.564-.945-.882-.014-.245-.4-.47-.825-.591-.428-.123-.923-.111-1.418-.053a4 4 0 0 0-.562.124c-.456.145-.851.31-1.18.57-.41.326-.545.905-.536 1.12.013.3.304.559.746.718.434.156.975.184 1.513.103.657-.17 1.377-.176 1.968.023 1.081.364 1.354 1.296.536 2.095-.852.833-2.491 1.145-3.58.687-.604-.254-.817-.719-.85-1.148-.024-.335-.338-.603-.765-.77-.43-.169-.931-.163-1.493-.117a7 7 0 0 0-.613.122c-.281.071-.86.226-1.344.683a2.9 2.9 0 0 0-.653.908 1.8 1.8 0 0 0-.127.476c-.013.377.211.718.647.937.43.216.998.274 1.585.192.73-.19 1.497-.17 2.09.107 1.09.51 1.217 1.719.194 2.719-1.071 1.046-2.896 1.382-3.975.737-.592-.354-.763-.886-.68-1.507v-.004c0-.003-.003-.148-.023-.226a1 1 0 0 0-.097-.28 1.3 1.3 0 0 0-.538-.524c-.42-.232-.977-.292-1.557-.209-.726.188-1.437.161-1.904-.117-.796-.476-.558-1.486.464-2.248a4.2 4.2 0 0 1 1.775-.753l.003-.002a4 4 0 0 0 1.637-.719c.457-.35.695-.732.716-1.063l.002-.001a1.7 1.7 0 0 0-.025-.358c-.02-.286-.005-.568.266-.875.173-.196.548-.387.96-.461.28-.05.643-.04.848-.05.177-.009.487-.043.596-.075.415-.119.662-.251.969-.487.313-.24.508-.493.542-.723.007-.05.024-.274.02-.302-.106-.54.68-1.132 1.755-1.323.545-.097 1.058-.072 1.447.047l.04.008c.394.097.644.278.739.5h.004l.002.017q.024.06.033.123c.093.237.363.44.802.556.43.114.944.122 1.44.043.599-.153 1.275-.178 1.855-.035 1.058.261 1.422.993.753 1.647m-2.51 12.013c-1.06 1.291-3.177 1.664-4.593.818-1.334-.798-1.452-2.34-.38-3.437 1.023-1.048 2.84-1.384 4.164-.766 1.4.653 1.814 2.16.808 3.385M28.482 7.287 15.77.262a2.12 2.12 0 0 0-2.037 0L1.02 7.287A1.94 1.94 0 0 0 .001 8.975v14.05c0 .698.388 1.34 1.018 1.69l12.713 7.025c.63.348 1.407.348 2.037 0l12.713-7.026a1.94 1.94 0 0 0 1.019-1.688V8.975c0-.696-.389-1.34-1.019-1.688"/></svg>