<svg xmlns="http://www.w3.org/2000/svg" viewBox="0 0 31.831 31.15"><g fill="#ed1944" opacity=".98"><path d="M28.872 0H2.958A2.965 2.965 0 0 0 .001 2.957v6.969h7.188V8.787a1.6 1.6 0 0 1 1.6-1.6h14.254a1.6 1.6 0 0 1 1.6 1.6v1.139h7.188V2.957A2.97 2.97 0 0 0 28.872 0M24.642 22.363a1.6 1.6 0 0 1-1.6 1.6H8.788a1.6 1.6 0 0 1-1.6-1.6v-1.139H0v6.969a2.965 2.965 0 0 0 2.957 2.957h25.914a2.965 2.965 0 0 0 2.957-2.957v-6.969H24.64v1.139zM0 11.981h7.188v7.188H0zM24.642 11.981h7.188v7.188h-7.188z"/></g></svg>