<svg version="1.1" viewBox="0 0 256 256" xmlns="http://www.w3.org/2000/svg"><path d="m229.31 26.745c-24.152-24.054-58.876-26.745-101.32-26.745-42.489 0-77.264 2.7161-101.41 26.845-24.135 24.112-26.585 58.838-26.585 101.28 0 42.442 2.4494 77.185 26.601 101.3 24.144 24.129 58.91 26.57 101.4 26.57 42.489 0 77.255-2.441 101.4-26.57 24.143-24.128 26.601-58.863 26.601-101.3-8e-3 -42.5-2.491-77.26-26.693-101.38z" fill="#0074ff"/><g fill="#fff"><path d="m66 191.72c14.328-1.442 29.297-2.384 44.729-2.727 9.101-0.204 18.046-0.184 26.808 0.014 5.2-16.704 7.873-34.522 7.468-52.997-0.909-40.805-16.485-77.79-41.502-106.01 4.338 14.214 6.867 29.245 7.213 44.849 1 45.172-16.164 86.464-44.716 116.87z"/><path d="m144.91 97.56c3.718 13.292 5.848 27.263 6.168 41.707 0.385 17.337-1.869 34.113-6.39 49.941 12.309 0.316 19.281 0.889 30.943 1.996 0.307-4.137 0.431-8.326 0.34-12.561-0.693-31.076-12.322-59.3-31.061-81.083z"/><path d="m116.65 195.48c-17.249 0-33.929 0.803-49.786 2.279 4.567 12.073 27.056 21.242 54.138 21.242 26.442 0 48.519-8.747 53.791-20.399-18.3-2.016-37.836-3.122-58.142-3.122z"/></g></svg>
