<svg viewBox="6.494 1.72 497.01 549.01" xmlns="http://www.w3.org/2000/svg"><defs><linearGradient id="prefix__a" x1="225.89" x2="225.89" y1="1.953" y2="442.21" gradientTransform="matrix(1.1289 0 0 .88583 .003 -.01)" gradientUnits="userSpaceOnUse"><stop stop-color="#34AADC" offset="0"/><stop stop-color="#007AFF" offset="1"/></linearGradient></defs><path d="M477.86 306.92c34.185 26.66 34.185 70.518 0 97.393l-160.85 126.42c-34.185 26.66-89.845 26.66-124.03 0l-160.85-126.2c-34.185-26.66-34.185-70.519 0-97.393l160.85-126.42c34.185-26.659 89.845-26.659 124.03 0z" fill="#ff9d00"/><path d="M193.37 451.82L31.81 324.85C15.522 312.088 6.498 295 6.498 276.83s9.024-35.258 25.312-48.02l161.56-127.19c16.288-12.762 38.299-19.9 61.63-19.9s45.122 7.138 61.63 19.9l161.56 126.97c16.288 12.762 25.312 29.85 25.312 48.02s-9.024 35.258-25.312 48.02L316.63 451.6c-16.508 12.979-38.299 20.117-61.63 20.117s-45.122-7.138-61.63-19.9z" fill="#fc0"/><path d="M193.37 371.82L31.81 244.85C15.522 232.088 6.498 215 6.498 196.83s9.024-35.258 25.312-48.02L193.37 21.62c16.288-12.762 38.3-19.9 61.63-19.9 23.331 0 45.122 7.138 61.63 19.9l161.56 126.97c16.288 12.762 25.312 29.85 25.312 48.02s-9.024 35.258-25.312 48.02L316.63 371.6c-16.508 12.979-38.299 20.117-61.63 20.117s-45.122-7.138-61.63-19.9z" fill="url(#prefix__a)"/><path d="M255.56 318.51c82.555 0 149.48-54.705 149.48-122.19S338.115 74.13 255.56 74.13c-82.556 0-149.48 54.706-149.48 122.19s66.924 122.19 149.48 122.19zm0 12.579c-91.054 0-164.87-60.337-164.87-134.77 0-74.43 73.814-134.77 164.87-134.77s164.87 60.337 164.87 134.77-73.813 134.77-164.87 134.77z" fill="#fff"/><path d="M266.58 248.19c8.263-1.083 16.318-3.387 23.691-6.911l47.054 19.341-24.647-36.924c12.965-16.701 12.965-37.855 0-54.557l24.647-36.924-44.346 18.229-1.275 19.499c18.13 15.204 17.666 39.216-1.172 53.894-4.807 3.845-10.326 6.543-16.123 8.46l-7.83 15.892zm-21.996-103.58c-13.649 1.775-23.879 6.942-23.879 6.942l-47.01-19.34 24.647 36.923c-12.965 16.702-12.965 37.856 0 54.557l-24.648 36.925 45.559-18.727.97-18.262c-19.057-15.16-18.905-39.413.31-54.639 4.471-4.002 14.577-8.24 16.093-8.465l7.958-15.913z" fill="#8cc8f6"/><path d="M232.94 192.29l-6.261 111 50.706-102.94 7.261-110.79zm-.655 89.664l40.615-82.406-35.591-6.494z" fill="#fff" fill-rule="evenodd"/></svg>
