<svg xmlns="http://www.w3.org/2000/svg" viewBox="0 0 132.84 132.84"><g fill="#2c3e50"><path d="m58.17 84.17-1.84 1.06V83.1z" transform-origin="57.24999809265137 84.16499710083008"/><path d="m71.08 84.98-1.42-.81 1.42-.82z" transform-origin="70.37000274658203 84.16500473022461"/><path d="m78.72 84.17-1.92 1.1v-2.21z" transform-origin="77.76000213623047 84.16499710083008"/><path d="m81.3 79.02-1.34-.77 1.34-.77z" transform-origin="80.6300048828125 78.25"/><path d="m89.01 66.42-1.99 1.15v-2.3z" transform-origin="88.0150032043457 66.41999816894531"/><path d="m81.27 55.31-1.26-.72 1.26-.73z" transform-origin="80.63999557495117 54.58500099182129"/><path d="m78.72 48.67-1.92 1.11v-2.22z" transform-origin="77.76000213623047 48.66999816894531"/><path d="m71.08 49.49-1.42-.82 1.42-.82z" transform-origin="70.37000274658203 48.67000198364258"/><path d="m58.17 48.67-1.84 1.07V47.6z" transform-origin="57.24999809265137 48.66999816894531"/><path d="m50.56 61.27-1.34-.77 1.34-.77z" transform-origin="49.89000129699707 60.5"/><path d="m48.02 66.42-1.99 1.15v-2.3z" transform-origin="47.02499961853027 66.41999816894531"/><path d="m50.56 73.11-1.34-.78 1.34-.77z" transform-origin="49.89000129699707 72.33500289916992"/><path d="m61.39 91.87-3.1-1.79 3.1-1.79z" transform-origin="59.84000015258789 90.08000183105469"/><path d="m69.09 90.08-2.85 1.64v-3.28z" transform-origin="67.66499710083008 90.08000183105469"/><path d="m82.14 92.32-3.87-2.24 3.87-2.24z" transform-origin="80.20499801635742 90.08000183105469"/><path d="m89.54 78.25-2.79 1.61v-3.22z" transform-origin="88.14500045776367 78.25"/><path d="m92.13 74.12-3.1-1.79 3.1-1.78z" transform-origin="90.57999801635742 72.33500289916992"/><path d="m92.13 62.29-3.1-1.79 3.1-1.78z" transform-origin="90.57999801635742 60.505001068115234"/><path d="m89.5 54.59-2.72 1.57v-3.14z" transform-origin="88.13999938964844 54.59000015258789"/><path d="m82.11 44.93-3.77-2.17 3.77-2.18z" transform-origin="80.22500228881836 42.755001068115234"/><path d="m69.04 42.76-2.78 1.6v-3.21z" transform-origin="67.6500015258789 42.75499725341797"/><path d="m61.35 44.47-2.97-1.71 2.97-1.72z" transform-origin="59.86499786376953 42.755001068115234"/><path d="m51.1 50.39-2.97-1.72 2.97-1.72z" transform-origin="49.61499786376953 48.66999816894531"/><path d="m48.47 54.59-2.66 1.53v-3.07z" transform-origin="47.14000129699707 54.584999084472656"/><path d="m41.12 68.59-3.76-2.17 3.76-2.17z" transform-origin="39.239999771118164 66.41999816894531"/><path d="m48.51 78.25-2.72 1.57v-3.14z" transform-origin="47.14999771118164 78.25"/><path d="m51.1 85.88-2.97-1.71 2.97-1.72z" transform-origin="49.61499786376953 84.16499710083008"/><path d="M51.96 99.2 46.41 96l5.55-3.21z" transform-origin="49.18499946594238 95.99499893188477"/><path d="m60.14 96-4.79 2.76v-5.53z" transform-origin="57.744998931884766 95.99500274658203"/><path d="M72.05 98.5 67.71 96l4.34-2.51z" transform-origin="69.8800048828125 95.99499893188477"/><path d="m80.63 96-4.79 2.76v-5.53z" transform-origin="78.2349967956543 95.99500274658203"/><path d="m91.02 90.08-5.01 2.89v-5.78z" transform-origin="88.51499557495117 90.08000183105469"/><path d="m92.6 86.77-4.51-2.6 4.51-2.61z" transform-origin="90.34499740600586 84.16499710083008"/><path d="m101.12 72.33-4.79 2.77v-5.53z" transform-origin="98.72500228881836 72.33499908447266"/><path d="m103.12 69.5-5.34-3.08 5.34-3.08z" transform-origin="100.45000076293945 66.41999816894531"/><path d="m101.12 60.5-4.79 2.77v-5.53z" transform-origin="98.72500228881836 60.505001068115234"/><path d="m92.6 51.27-4.51-2.6 4.51-2.6z" transform-origin="90.34499740600586 48.67000198364258"/><path d="m90.95 42.76-4.9 2.83v-5.66z" transform-origin="88.49999618530273 42.75999641418457"/><path d="m80.63 36.84-4.79 2.76v-5.53z" transform-origin="78.2349967956543 36.834999084472656"/><path d="m72.05 39.34-4.34-2.5 4.34-2.51z" transform-origin="69.8800048828125 36.83500099182129"/><path d="m60.14 36.84-4.79 2.76v-5.53z" transform-origin="57.744998931884766 36.834999084472656"/><path d="m51.96 40.05-5.55-3.21 5.55-3.21z" transform-origin="49.18499946594238 36.84000015258789"/><path d="m49.96 42.76-4.9 2.83v-5.66z" transform-origin="47.5099983215332 42.75999641418457"/><path d="m41.35 57.16-4.45-2.57 4.45-2.57z" transform-origin="39.12499809265137 54.59000015258789"/><path d="m39.64 60.5-4.79 2.77v-5.53z" transform-origin="37.244998931884766 60.505001068115234"/><path d="m39.64 72.33-4.79 2.77v-5.53z" transform-origin="37.244998931884766 72.33499908447266"/><path d="m41.37 80.85-4.51-2.6 4.51-2.6z" transform-origin="39.1150016784668 78.25"/><path d="m50 90.08-4.96 2.86v-5.72z" transform-origin="47.52000045776367 90.08000183105469"/><path d="m51.06 101.91-6.55 3.78v-7.56z" transform-origin="47.78500175476074 101.91000366210938"/><path d="m62.3 105.27-5.82-3.36 5.82-3.36z" transform-origin="59.38999938964844 101.90999603271484"/><path d="m71 101.91-5.72 3.3v-6.6z" transform-origin="68.13999938964844 101.91000747680664"/><path d="m82.93 105.52-6.24-3.61 6.24-3.6z" transform-origin="79.81000137329102 101.91499710083008"/><path d="m92.05 101.91-6.55 3.78v-7.56z" transform-origin="88.7750015258789 101.91000366210938"/><path d="M93.19 99.63 86.9 96l6.29-3.63z" transform-origin="90.04500198364258 96"/><path d="m101.84 84.17-5.87 3.39v-6.78z" transform-origin="98.90499496459961 84.16999816894531"/><path d="m103.28 81.61-5.81-3.36 5.81-3.36z" transform-origin="100.375 78.25"/><path d="m112.54 66.42-6.55 3.78v-7.56z" transform-origin="109.26499938964844 66.41999626159668"/><path d="m103.28 57.95-5.81-3.36 5.81-3.36z" transform-origin="100.375 54.59000015258789"/><path d="m101.84 48.67-5.87 3.39v-6.78z" transform-origin="98.90499496459961 48.66999816894531"/><path d="m93.19 40.47-6.29-3.63 6.29-3.63z" transform-origin="90.04500198364258 36.84000015258789"/><path d="M92.05 30.92 85.5 34.7v-7.56z" transform-origin="88.7750015258789 30.92000102996826"/><path d="m82.91 34.49-6.18-3.57 6.18-3.57z" transform-origin="79.82000350952148 30.920001983642578"/><path d="m70.93 30.92-5.61 3.24v-6.47z" transform-origin="68.125 30.924999237060547"/><path d="m62.28 34.25-5.77-3.33 5.77-3.33z" transform-origin="59.39499855041504 30.920000076293945"/><path d="m51.06 30.92-6.55 3.78v-7.56z" transform-origin="47.78500175476074 30.92000102996826"/><path d="m41.86 46.21-5.98-3.45 5.98-3.46z" transform-origin="38.8700008392334 42.7549991607666"/><path d="m40.36 48.67-5.87 3.39v-6.78z" transform-origin="37.42500114440918 48.66999816894531"/><path d="m31.66 64.04-6.13-3.54 6.13-3.54z" transform-origin="28.594999313354492 60.5"/><path d="m30.57 66.42-6.55 3.78v-7.56z" transform-origin="27.295000076293945 66.41999626159668"/><path d="m31.66 75.88-6.13-3.55 6.13-3.54z" transform-origin="28.594999313354492 72.33499526977539"/><path d="m40.36 84.17-5.87 3.39v-6.78z" transform-origin="37.42500114440918 84.16999816894531"/><path d="m41.88 93.56-6.04-3.48 6.04-3.48z" transform-origin="38.86000061035156 90.07999420166016"/><path d="m52.33 111.67-6.65-3.84 6.65-3.84z" transform-origin="49.005001068115234 107.83000183105469"/><path d="m61.38 107.83-6.65 3.84v-7.68z" transform-origin="58.05500030517578 107.82999801635742"/><path d="m72.79 111.61-6.55-3.78 6.55-3.78z" transform-origin="69.51499938964844 107.83000183105469"/><path d="m81.87 107.83-6.65 3.84v-7.68z" transform-origin="78.54500198364258 107.82999801635742"/><path d="m93.21 111.49-6.34-3.66 6.34-3.66z" transform-origin="90.03999710083008 107.82999420166016"/><path d="m102.33 96-6.6 3.81v-7.62z" transform-origin="99.03000259399414 95.99999618530273"/><path d="m103.54 93.89-6.6-3.81 6.6-3.81z" transform-origin="100.2400016784668 90.08000183105469"/><path d="m112.61 78.25-6.65 3.84v-7.68z" transform-origin="109.28499984741211 78.24999618530273"/><path d="m113.79 76.14-6.6-3.81 6.6-3.81z" transform-origin="110.4900016784668 72.33000183105469"/><path d="m113.79 64.31-6.6-3.81 6.6-3.81z" transform-origin="110.4900016784668 60.499996185302734"/><path d="m112.61 54.59-6.65 3.84v-7.68z" transform-origin="109.28499984741211 54.59000015258789"/><path d="m103.54 46.57-6.6-3.81 6.6-3.81z" transform-origin="100.2400016784668 42.7599983215332"/><path d="m102.33 36.84-6.6 3.81v-7.62z" transform-origin="99.03000259399414 36.84000205993652"/><path d="m93.21 28.67-6.34-3.66 6.34-3.66z" transform-origin="90.03999710083008 25.010000228881836"/><path d="m81.87 25.01-6.65 3.84v-7.68z" transform-origin="78.54500198364258 25.010000228881836"/><path d="m72.79 28.79-6.55-3.78 6.55-3.78z" transform-origin="69.51499938964844 25.010000228881836"/><path d="m61.38 25.01-6.65 3.84v-7.68z" transform-origin="58.05500030517578 25.010000228881836"/><path d="m52.33 28.85-6.65-3.84 6.65-3.84z" transform-origin="49.005001068115234 25.010000228881836"/><path d="m42.06 34.73-6.59-3.81 6.59-3.81z" transform-origin="38.76500129699707 30.920000076293945"/><path d="m40.85 36.84-6.6 3.81v-7.62z" transform-origin="37.54999923706055 36.84000205993652"/><path d="m31.82 52.48-6.6-3.81 6.6-3.81z" transform-origin="28.519999504089355 48.66999816894531"/><path d="m30.64 54.59-6.65 3.84v-7.68z" transform-origin="27.3149995803833 54.59000015258789"/><path d="m21.49 70.08-6.35-3.66 6.35-3.66z" transform-origin="18.3149995803833 66.42000007629395"/><path d="m30.64 78.25-6.65 3.84v-7.68z" transform-origin="27.3149995803833 78.24999618530273"/><path d="m31.82 87.98-6.6-3.81 6.6-3.81z" transform-origin="28.519999504089355 84.17000579833984"/><path d="m40.85 96-6.6 3.81v-7.62z" transform-origin="37.54999923706055 95.99999618530273"/><path d="m42.06 105.72-6.59-3.81 6.59-3.81z" transform-origin="38.76500129699707 101.91000366210938"/><path d="m41.48 116.54-4.85-2.79 4.85-2.8z" transform-origin="39.05500030517578 113.74499893188477"/><path d="m50.43 113.75-5.6 3.23v-6.47z" transform-origin="47.630001068115234 113.74500274658203"/><path d="m62.45 117.38-6.29-3.63 6.29-3.64z" transform-origin="59.30500030517578 113.74499893188477"/><path d="m71.42 113.75-6.34 3.66v-7.33z" transform-origin="68.25 113.74500274658203"/><path d="m82.88 117.26-6.08-3.51 6.08-3.52z" transform-origin="79.83999633789062 113.74500274658203"/><path d="m91.42 113.75-5.61 3.23v-6.47z" transform-origin="88.61499786376953 113.74500274658203"/><path d="m101.67 107.83-5.61 3.24v-6.48z" transform-origin="98.86499786376953 107.82999801635742"/><path d="m103.37 105.42-6.08-3.51 6.08-3.51z" transform-origin="100.33000183105469 101.90999603271484"/><path d="m112.44 90.08-6.4 3.69v-7.38z" transform-origin="109.2400016784668 90.08000564575195"/><path d="m113.7 87.83-6.34-3.66 6.34-3.67z" transform-origin="110.52999877929688 84.16500091552734"/><path d="m122.19 72.33-5.66 3.27v-6.53z" transform-origin="119.36000061035156 72.33499908447266"/><path d="m123.49 69.28-4.96-2.86 4.96-2.86z" transform-origin="121.0099983215332 66.41999816894531"/><path d="m122.19 60.5-5.66 3.27v-6.54z" transform-origin="119.36000061035156 60.5"/><path d="m113.7 52.33-6.34-3.66 6.34-3.66z" transform-origin="110.52999877929688 48.67000198364258"/><path d="m112.44 42.76-6.4 3.69v-7.39z" transform-origin="109.2400016784668 42.75499725341797"/><path d="m103.39 34.47-6.14-3.55 6.14-3.54z" transform-origin="100.31999969482422 30.92500114440918"/><path d="m101.67 25.01-5.61 3.23v-6.47z" transform-origin="98.86499786376953 25.005000114440918"/><path d="m91.49 19.09-5.71 3.3v-6.6z" transform-origin="88.6349983215332 19.089999198913574"/><path d="m82.9 22.63-6.14-3.54 6.14-3.54z" transform-origin="79.83000183105469 19.089999675750732"/><path d="m71.45 19.09-6.39 3.69V15.4z" transform-origin="68.25499725341797 19.09000062942505"/><path d="m62.49 22.78-6.4-3.69 6.4-3.69z" transform-origin="59.290000915527344 19.09000015258789"/><path d="m50.5 19.09-5.71 3.3v-6.6z" transform-origin="47.64500045776367 19.089999198913574"/><path d="m41.52 21.95-4.96-2.86 4.96-2.86z" transform-origin="39.040000915527344 19.09000015258789"/><path d="m40.19 25.01-5.61 3.23v-6.47z" transform-origin="37.3849983215332 25.005000114440918"/><path d="m31.73 40.5-6.34-3.66 6.34-3.66z" transform-origin="28.559999465942383 36.84000015258789"/><path d="m30.46 42.76-6.39 3.69v-7.39z" transform-origin="27.264999389648438 42.75499725341797"/><path d="m21.42 58.13-6.14-3.54 6.14-3.54z" transform-origin="18.350000381469727 54.59000015258789"/><path d="m19.73 60.5-5.66 3.27v-6.54z" transform-origin="16.899999618530273 60.5"/><path d="m19.73 72.33-5.66 3.27v-6.53z" transform-origin="16.899999618530273 72.33499908447266"/><path d="m21.4 81.76-6.08-3.51 6.08-3.51z" transform-origin="18.359999656677246 78.25"/><path d="m30.46 90.08-6.39 3.69v-7.38z" transform-origin="27.264999389648438 90.08000564575195"/><path d="M31.73 99.66 25.39 96l6.34-3.66z" transform-origin="28.559999465942383 96"/><path d="m40.19 107.83-5.61 3.24v-6.48z" transform-origin="37.3849983215332 107.82999801635742"/><path d="m38.47 119.66-3.03 1.75v-3.5z" transform-origin="36.95500183105469 119.66000366210938"/><path d="m51.63 122.3-4.56-2.64 4.56-2.63z" transform-origin="49.35000038146973 119.66500473022461"/><path d="m60.28 119.66-5.01 2.89v-5.78z" transform-origin="57.77499771118164 119.66000366210938"/><path d="m72.35 122.68-5.23-3.02 5.23-3.02z" transform-origin="69.7349967956543 119.66000366210938"/><path d="m80.78 119.66-5.01 2.89v-5.78z" transform-origin="78.27499771118164 119.66000366210938"/><path d="m92.39 121.9-3.88-2.24 3.88-2.24z" transform-origin="90.45000076293945 119.66000366210938"/><path d="m99.95 119.66-3.03 1.75v-3.5z" transform-origin="98.43499755859375 119.66000366210938"/><path d="m102.64 115.98-3.88-2.23 3.88-2.24z" transform-origin="100.70000076293945 113.74500274658203"/><path d="m111.48 101.91-4.96 2.87v-5.73z" transform-origin="109.00000381469727 101.91500473022461"/><path d="M113.33 99.02 108.1 96l5.23-3.02z" transform-origin="110.71500015258789 96"/><path d="m121.8 84.17-5.07 2.92v-5.85z" transform-origin="119.2650032043457 84.16499710083008"/><path d="m123.38 80.92-4.63-2.67 4.63-2.67z" transform-origin="121.06499862670898 78.25"/><path d="m130.81 66.42-3.22 1.86v-3.72z" transform-origin="129.1999969482422 66.41999816894531"/><path d="m123.38 57.26-4.63-2.67 4.63-2.67z" transform-origin="121.06499862670898 54.58999824523926"/><path d="m121.8 48.67-5.07 2.93v-5.85z" transform-origin="119.2650032043457 48.67499923706055"/><path d="m113.33 39.86-5.23-3.02 5.23-3.02z" transform-origin="110.71500015258789 36.84000015258789"/><path d="m111.52 30.92-5.02 2.9v-5.79z" transform-origin="109.0099983215332 30.924999237060547"/><path d="m102.66 21.36-3.94-2.27 3.94-2.27z" transform-origin="100.69000244140625 19.09000015258789"/><path d="m99.95 13.18-3.03 1.75v-3.51z" transform-origin="98.43499755859375 13.175000190734863"/><path d="m92.39 15.41-3.88-2.23 3.88-2.24z" transform-origin="90.45000076293945 13.175000190734863"/><path d="m80.78 13.18-5.01 2.89v-5.79z" transform-origin="78.27499771118164 13.174999713897705"/><path d="m72.35 16.2-5.23-3.02 5.23-3.02z" transform-origin="69.7349967956543 13.180000305175781"/><path d="m60.28 13.18-5.01 2.89v-5.79z" transform-origin="57.77499771118164 13.174999713897705"/><path d="m51.63 15.81-4.56-2.63 4.56-2.64z" transform-origin="49.35000038146973 13.175000190734863"/><path d="m38.47 13.18-3.03 1.75v-3.51z" transform-origin="36.95500183105469 13.175000190734863"/><path d="m31.14 27.64-4.57-2.63 4.57-2.64z" transform-origin="28.854999542236328 25.0049991607666"/><path d="m29.58 30.92-5.07 2.93V28z" transform-origin="27.045000076293945 30.92499828338623"/><path d="m21.11 45.77-5.23-3.01 5.23-3.02z" transform-origin="18.4950008392334 42.755001068115234"/><path d="m19.33 48.67-5.06 2.93v-5.85z" transform-origin="16.800000190734863 48.67499923706055"/><path d="M10.48 62.84 6.42 60.5l4.06-2.34z" transform-origin="8.449999570846558 60.5"/><path d="m7.9 66.42-3.28 1.89v-3.79z" transform-origin="6.259999990463257 66.41499710083008"/><path d="m10.48 74.67-4.06-2.34 4.06-2.34z" transform-origin="8.449999570846558 72.33000183105469"/><path d="m19.33 84.17-5.06 2.92v-5.85z" transform-origin="16.800000190734863 84.16499710083008"/><path d="m21.1 93.07-5.18-2.99 5.18-2.99z" transform-origin="18.510000228881836 90.08000183105469"/><path d="m29.51 101.91-4.96 2.87v-5.73z" transform-origin="27.02999973297119 101.91500473022461"/><path d="m31.14 110.47-4.57-2.64 4.57-2.64z" transform-origin="28.854999542236328 107.83000183105469"/><path d="m40.57 126.81-2.12-1.23 2.12-1.23z" transform-origin="39.510000228881836 125.57999420166016"/><path d="m48.55 125.58-2.78 1.6v-3.21z" transform-origin="47.15999984741211 125.57500076293945"/><path d="m61.57 127.68-3.64-2.1 3.64-2.11z" transform-origin="59.75 125.57500076293945"/><path d="m69.7 125.58-3.76 2.17v-4.34z" transform-origin="67.81999588012695 125.58000183105469"/><path d="m81.97 127.51-3.35-1.93 3.35-1.93z" transform-origin="80.29500198364258 125.58000183105469"/><path d="m89.54 125.58-2.79 1.6v-3.21z" transform-origin="88.14500045776367 125.57500076293945"/><path d="m101.84 126.44-1.49-.86 1.49-.86z" transform-origin="101.09499740600586 125.58000183105469"/><path d="m109.94 113.75-2.65 1.53v-3.07z" transform-origin="108.6150016784668 113.74499893188477"/><path d="m112.66 109.69-3.22-1.86 3.22-1.86z" transform-origin="111.05000305175781 107.83000183105469"/><path d="m120.89 96-3.7 2.14v-4.28z" transform-origin="119.04000091552734 96"/><path d="m123.03 92.15-3.58-2.07 3.58-2.07z" transform-origin="121.23999786376953 90.08000183105469"/><path d="m130.61 78.25-2.91 1.68v-3.36z" transform-origin="129.15499877929688 78.25"/><path d="m132.84 73.64-2.26-1.31 2.26-1.3z" transform-origin="131.70999908447266 72.33499908447266"/><path d="m132.84 61.81-2.26-1.31 2.26-1.3z" transform-origin="131.70999908447266 60.505001068115234"/><path d="m130.61 54.59-2.91 1.68v-3.36z" transform-origin="129.15499877929688 54.59000015258789"/><path d="m123.05 44.86-3.64-2.1 3.64-2.11z" transform-origin="121.2300033569336 42.755001068115234"/><path d="m120.89 36.84-3.7 2.14V34.7z" transform-origin="119.04000091552734 36.84000015258789"/><path d="m112.66 26.87-3.22-1.86 3.22-1.86z" transform-origin="111.05000305175781 25.010000228881836"/><path d="m110.03 19.09-2.78 1.61v-3.22z" transform-origin="108.63999938964844 19.090001106262207"/><path d="m101.86 8.16-1.56-.9 1.56-.9z" transform-origin="101.08000183105469 7.259999752044678"/><path d="m89.62 7.26-2.91 1.68V5.58z" transform-origin="88.16500091552734 7.260000467300415"/><path d="m81.98 9.22-3.4-1.96 3.4-1.97z" transform-origin="80.28000259399414 7.255000114440918"/><path d="M69.78 7.26 65.9 9.5V5.02z" transform-origin="67.84000015258789 7.259999990463257"/><path d="m61.61 9.43-3.76-2.17 3.76-2.17z" transform-origin="59.73000144958496 7.260000228881836"/><path d="m48.63 7.26-2.9 1.68V5.58z" transform-origin="47.18000030517578 7.260000467300415"/><path d="m40.6 8.53-2.2-1.27 2.2-1.27z" transform-origin="39.49999809265137 7.259999752044678"/><path d="m30.33 14.4-2.13-1.22 2.13-1.23z" transform-origin="29.26500129699707 13.174999237060547"/><path d="m28.06 19.09-2.79 1.61v-3.22z" transform-origin="26.664999961853027 19.090001106262207"/><path d="m20.57 32.99-3.59-2.07 3.59-2.06z" transform-origin="18.774999618530273 30.925002098083496"/><path d="m18.42 36.84-3.7 2.14V34.7z" transform-origin="16.570000171661377 36.84000015258789"/><path d="M10.24 50.6 6.9 48.67l3.34-1.93z" transform-origin="8.569999694824219 48.66999816894531"/><path d="m7.65 54.59-2.91 1.68v-3.36z" transform-origin="6.194999933242798 54.59000015258789"/><path d="M1.56 67.32 0 66.42l1.56-.9z" transform-origin="0.7799999713897705 66.41999816894531"/><path d="m7.65 78.25-2.91 1.68v-3.36z" transform-origin="6.194999933242798 78.25"/><path d="M10.24 86.1 6.9 84.17l3.34-1.93z" transform-origin="8.569999694824219 84.16999816894531"/><path d="m18.42 96-3.7 2.14v-4.28z" transform-origin="16.570000171661377 96"/><path d="m20.53 103.91-3.47-2 3.47-2z" transform-origin="18.79500102996826 101.91000366210938"/><path d="m27.97 113.75-2.65 1.53v-3.07z" transform-origin="26.644999504089355 113.74499893188477"/><path d="m30.33 120.89-2.13-1.23 2.13-1.23z" transform-origin="29.26500129699707 119.65999603271484"/><path d="m50.7 132.52-1.78-1.03 1.78-1.02z" transform-origin="49.810001373291016 131.49500274658203"/><path d="m58.36 131.49-2.13 1.23v-2.46z" transform-origin="57.295000076293945 131.48999786376953"/><path d="m71.38 132.84-2.33-1.35 2.33-1.34z" transform-origin="70.21499633789062 131.4949951171875"/><path d="m78.85 131.49-2.12 1.23v-2.46z" transform-origin="77.78999710083008 131.48999786376953"/><path d="m91.52 132.22-1.26-.73 1.26-.73z" transform-origin="90.88999557495117 131.49000549316406"/><path d="m112.01 120.39-1.26-.73 1.26-.73z" transform-origin="111.38000106811523 119.65999603271484"/><path d="m119.75 107.83-1.99 1.15v-2.3z" transform-origin="118.75500106811523 107.83000183105469"/><path d="m122.55 103.14-2.13-1.23 2.13-1.22z" transform-origin="121.48500442504883 101.91499710083008"/><path d="M129.99 90.08 128 91.23v-2.3z" transform-origin="128.99500274658203 90.08000183105469"/><path d="m132.65 85.15-1.7-.98 1.7-.99z" transform-origin="131.79999542236328 84.16500091552734"/><path d="m132.65 49.66-1.7-.99 1.7-.98z" transform-origin="131.79999542236328 48.67499923706055"/><path d="m130.04 42.76-2.06 1.18v-2.37z" transform-origin="129.00999450683594 42.7549991607666"/><path d="m122.57 32.19-2.2-1.27 2.2-1.26z" transform-origin="121.47000122070312 30.92499828338623"/><path d="m119.75 25.01-1.99 1.15v-2.3z" transform-origin="118.75500106811523 25.010000228881836"/><path d="m112.01 13.9-1.26-.72 1.26-.73z" transform-origin="111.38000106811523 13.174999237060547"/><path d="m91.52 2.07-1.26-.73 1.26-.72z" transform-origin="90.88999557495117 1.3449999690055847"/><path d="m78.85 1.34-2.12 1.23V.12z" transform-origin="77.78999710083008 1.345000147819519"/><path d="m71.38 2.69-2.33-1.35L71.38 0z" transform-origin="70.21499633789062 1.3450000286102295"/><path d="m58.36 1.34-2.13 1.23V.12z" transform-origin="57.295000076293945 1.345000147819519"/><path d="m50.7 2.37-1.78-1.03L50.7.32z" transform-origin="49.810001373291016 1.34499990940094"/><path d="m19.92 20.04-1.64-.95 1.64-.94z" transform-origin="19.100000381469727 19.09500026702881"/><path d="m17.28 25.01-1.99 1.15v-2.3z" transform-origin="16.285000801086426 25.010000228881836"/><path d="m9.86 38.11-2.2-1.27 2.2-1.27z" transform-origin="8.759999752044678 36.84000015258789"/><path d="m7.08 42.76-2.06 1.18v-2.37z" transform-origin="6.049999952316284 42.7549991607666"/><path d="m1.49 55.36-1.34-.77 1.34-.78z" transform-origin="0.8199999928474426 54.58500099182129"/><path d="m1.49 79.02-1.34-.77 1.34-.77z" transform-origin="0.8199999928474426 78.25"/><path d="m7.04 90.08-1.99 1.15v-2.3z" transform-origin="6.045000076293945 90.08000183105469"/><path d="M9.86 97.26 7.66 96l2.2-1.27z" transform-origin="8.759999752044678 95.99500274658203"/><path d="m17.28 107.83-1.99 1.15v-2.3z" transform-origin="16.285000801086426 107.83000183105469"/><path d="m19.92 114.69-1.64-.94 1.64-.95z" transform-origin="19.100000381469727 113.74500274658203"/><path d="m130.04 30.92-1.71.99v-1.98z" transform-origin="129.18498992919922 30.920000076293945"/></g></svg>