<svg xmlns="http://www.w3.org/2000/svg" viewBox="0 0 153.43 177.17"><path fill="#008be0" d="M0 44.291v17.717l61.373 35.434v17.717L0 79.725v53.148l76.713 44.294V88.582L0 44.292zm15.343 62.008 46.03 26.574v17.717l-46.03-26.573z"/><path fill="#009eff" d="m0 44.292 76.715 44.291 46.029-26.575-61.372-35.433 15.343-8.858 61.372 35.433 15.343-8.858L76.715 0 30.686 26.575l61.372 35.433-15.343 8.858-61.372-35.433z"/><path fill="#0077c0" d="m76.715 177.167 15.343-8.859V97.442l15.343-8.858v70.866l15.343-8.858V62.008L76.715 88.584zm61.372-35.433 15.343-8.859V44.293l-15.343 8.858z"/><path fill="#e05400" d="m122.743 132.877 15.343 8.859V53.153L76.714 17.72l-15.342 8.858 61.372 35.433z"/><path fill="#e05400" d="M30.686 26.575v17.717l46.03 26.574 15.342-8.858z"/><path fill="#ff6000" d="m0 79.725 15.343-8.859 46.03 26.575v17.717z"/><path fill="#e05400" d="m92.058 150.587 15.343 8.858V88.579l-15.343 8.858z"/><path fill="#c04800" d="m15.343 124.017 15.343-8.86-15.343-8.857z"/><path fill="#ff6000" d="M61.373 150.587V132.87l-30.687-17.716-15.343 8.858z"/></svg>