<svg xmlns="http://www.w3.org/2000/svg" viewBox="0 0 135.93 137.94"><path fill="#ffbf3b" d="M91.248 0H44.693C20.013 0 .003 20.307.003 45.35v47.243c0 25.043 20.01 45.35 44.69 45.35h46.555c24.68 0 44.69-20.307 44.69-45.35V45.35c0-25.052-20.01-45.35-44.69-45.35"/><path fill="#353535" d="M115.114 63.155c0 8.873-5.46 16.415-13.056 19.167l4.6 7.614-6.8 8.366 6.8 8.176-10.974 14.721-7.732-8.248v-31.19c-6.872-3.124-11.688-10.276-11.688-18.606 0-11.2 8.7-20.28 19.42-20.28 10.729.009 19.43 9.08 19.43 20.28m-19.43 3.115c2.59 0 4.69-2.191 4.69-4.898s-2.1-4.898-4.69-4.898-4.69 2.19-4.69 4.898 2.1 4.898 4.69 4.898"/><path d="M115.168 63.219c0 8.764-5.315 16.233-12.757 19.094l4.237 7.623-6.265 8.366 6.265 8.176-10.964 14.839V66.26c2.59 0 4.69-2.191 4.69-4.898s-2.1-4.899-4.69-4.899v-13.58c10.765 0 19.484 9.099 19.484 20.335M81.587 85.455C75.313 80.303 71.103 72.39 70.524 63.4H36.898c-7.053 0-12.766 5.803-12.766 12.956v16.197c0 3.576 2.86 6.482 6.383 6.482h44.69c3.521 0 6.382-2.897 6.382-6.482z"/><path fill="#141313" d="M51.293 59.516c-1.557-.3-3.105-.58-4.572-1.195-5.568-2.336-8.81-6.646-9.86-12.73-.724-4.165-.38-8.284 1.304-12.177 2.39-5.532 6.691-8.538 12.323-9.552 3.368-.607 6.726-.471 9.977.742 4.889 1.82 8.157 5.315 9.678 10.457 1.53 5.18 1.304 10.367-1.005 15.265-2.39 5.124-6.573 7.868-11.86 8.945-.444.09-.878.181-1.322.263-1.548-.018-3.105-.018-4.663-.018"/></svg>