<svg xmlns="http://www.w3.org/2000/svg" class="ppLogo" viewBox="0 0 33.166 40.83"><path fill="#001c64" d="M28.227 9.359C28.326 4.232 24.096.298 18.28.298H6.25a1.18 1.18 0 0 0-1.162.993l-4.82 30.12a.956.956 0 0 0 .944 1.104h7.127l-1.114 6.976a.957.957 0 0 0 .944 1.105h5.806c.28 0 .53-.1.743-.282s.248-.435.291-.711l1.704-10.027c.044-.277.185-.636.398-.818s.4-.283.68-.283h3.553c5.695 0 10.528-4.048 11.412-9.679.625-3.997-1.089-7.633-4.529-9.437z"/><path fill="#0070e0" d="M9.88 21.409 8.105 32.665l-1.114 7.06a.956.956 0 0 0 .945 1.105h6.144a1.18 1.18 0 0 0 1.162-.993l1.619-10.262a1.176 1.176 0 0 1 1.162-.993h3.617c5.696 0 10.528-4.155 11.412-9.786.627-3.997-1.385-7.633-4.825-9.437q-.013.64-.112 1.271c-.883 5.63-5.717 9.786-11.412 9.786h-5.66a1.18 1.18 0 0 0-1.163.993"/><path fill="#003087" d="M8.105 32.664H.956a.955.955 0 0 1-.944-1.105L4.832.993A1.18 1.18 0 0 1 5.994 0H18.28c5.816 0 10.046 4.232 9.947 9.359-1.447-.759-3.147-1.193-5.01-1.193H12.972a1.18 1.18 0 0 0-1.162.994l-1.93 12.249z"/></svg>