<svg version="1.1" viewBox="0 0 56.489 64.125" xmlns="http://www.w3.org/2000/svg"><g><path d="m1.0807 0.58826 27.26 4.0836 27.067-4.0836-4.4832 57.316-22.584 5.7058-23.785-5.7058z" fill="#e5e7e8" stroke="#ccc"/><path d="m28.341 10.845 21.829-3.9157-2.9088 46.989-18.92 4.6989z" fill="#fff"/><rect y="22.531" width="34.027" height="19.136" fill="#ff2600"/><rect x="33.008" y="22.531" width="23.481" height="19.136" fill="#ff501a"/></g><g transform="matrix(.42779 0 0 .42779 54.862 9.7729)" fill="#fff"><path d="m-120.53 34.594v35.188h6.5312v-11.906h8.875l4.1562-3.7188v-15.438l-4.2188-4.125zm6.5312 6.8125h6.2188v10.219h-6.2188z"/><path d="m-98.125 34.594v35.188h16.125l3.75-3.625v-27.969l-3.9688-3.5938zm6.8125 6.8125h6.8125v21.562h-6.8125z"/><path d="m-74.856 34.603h16.457v6.8098h-10.215v7.4162c2.932 0.1105 5.864-0.11049 8.796 0v6.7419c-2.932 0.1105-5.864-0.1105-8.796 0v14.216h-6.2423v-35.184z"/><path d="m-42.881 67.943-2.1818-1.8443v-5.9606c2.1754 6.7e-4 4.3507 0.0013 6.5261 2e-3v2.8374h5.6749v-28.374c2.1754-1.26e-4 4.3507-2.52e-4 6.5261-3.78e-4v31.496c-1.4545 1.2296-2.909 2.4591-4.3635 3.6887h-10c-0.72724-0.61477-1.4546-1.2296-2.1818-1.8443z"/><path d="m-21.317 67.943-2.1091-1.8443v-5.9784c2.061 0 4.3924 0.01978 6.4534 0.01978v2.8374h6.8098v-7.3773h-9.5909l-3.7451-3.6887v-13.62l3.7451-3.6887h11.589l4.2511 3.6887c-0.00204 1.797-0.00472 3.5941-0.00737 5.3911h-6.2423v-2.2699h-6.8098v7.3773h8.9704c1.3606 1.2046 4.0818 3.6137 4.0818 3.6137v13.666l-4.1786 3.7175h-11.036z"/></g></svg>
