<svg version="1.1" viewBox="0 0 16 16" xmlns="http://www.w3.org/2000/svg"><rect width="16" height="16" rx="2" fill="#4f5b93"/><g fill="#fff"><path d="m2.108 5.962h2.076c0.61 5e-3 1.051 0.181 1.325 0.527s0.364 0.819 0.27 1.418a2.72 2.72 0 0 1-0.24 0.806c-0.118 0.263-0.283 0.5-0.495 0.712-0.258 0.269-0.535 0.44-0.829 0.512s-0.6 0.108-0.914 0.108h-0.93l-0.294 1.472h-1.077l1.108-5.555m0.906 0.884-0.464 2.324a0.57 0.57 0 0 0 0.093 7e-3h0.109c0.496 6e-3 0.909-0.043 1.24-0.147 0.33-0.108 0.552-0.485 0.666-1.13 0.093-0.543 0-0.856-0.28-0.938-0.273-0.083-0.616-0.122-1.03-0.116a2.169 2.169 0 0 1-0.178 7e-3h-0.163l8e-3 -7e-3m3.992-2.363h1.069l-0.302 1.48h0.96c0.527 0.01 0.92 0.118 1.178 0.325 0.263 0.206 0.34 0.599 0.232 1.177l-0.519 2.58h-1.085l0.496-2.463c0.052-0.259 0.036-0.442-0.046-0.55s-0.261-0.163-0.535-0.163l-0.86-8e-3 -0.635 3.184h-1.069l1.116-5.562m4.285 1.479h2.076c0.61 5e-3 1.051 0.181 1.325 0.527s0.364 0.819 0.271 1.418a2.72 2.72 0 0 1-0.24 0.806c-0.119 0.263-0.284 0.5-0.496 0.712-0.258 0.269-0.534 0.44-0.829 0.512s-0.599 0.108-0.914 0.108h-0.93l-0.294 1.472h-1.077l1.108-5.555m0.907 0.884-0.465 2.324a0.57 0.57 0 0 0 0.093 7e-3h0.108c0.496 6e-3 0.91-0.043 1.24-0.147 0.33-0.108 0.552-0.485 0.666-1.13 0.093-0.543 0-0.856-0.279-0.938-0.274-0.083-0.617-0.122-1.03-0.116a2.169 2.169 0 0 1-0.179 7e-3h-0.162l8e-3 -7e-3"/></g></svg>
