<svg version="1.1" viewBox="0 0 99.58 97.633" xmlns="http://www.w3.org/2000/svg"><path d="m75.08 19.28 2.43-13.25c-3.69-2.46-7.7-4.42-11.91-5.83l-8.97 10.05c-4.37-0.8-8.85-0.83-13.23-0.08l-8.86-10.17c-4.23 1.35-8.26 3.26-11.99 5.68l2.26 13.28c-3.35 2.92-6.17 6.4-8.32 10.3l-13.46 0.58c-1.58 4.15-2.6 8.49-3.03 12.91l11.8 6.51c0.19 4.44 1.16 8.81 2.86 12.92l-7.94 10.89c2.26 3.82 5.02 7.33 8.2 10.42l12.45-5.16c3.59 2.62 7.62 4.59 11.89 5.82l3.56 13c4.4 0.62 8.86 0.64 13.26 0.08l3.72-12.95c4.29-1.17 8.34-3.09 11.96-5.67l12.38 5.32c3.22-3.05 6.03-6.52 8.33-10.32l-7.8-10.99c1.75-4.08 2.78-8.45 3.03-12.88l11.88-6.36c-0.38-4.42-1.34-8.78-2.87-12.95l-13.45-0.75c-2.1-3.92-4.87-7.44-8.19-10.4z" fill="#6b9543" stroke-width="0px"/><circle cx="50.56" cy="47.22" r="31.49" fill="#e9f4ca" stroke-width="0px"/><g id="a" transform="translate(-.49 -.5)" fill="#c8d987" stroke-width="0px"><path d="m28.79 62.54c8.22 14.22 24.82 18.97 20.85-10.47-0.31-2.29-1.56-4.35-3.45-5.68-24.66-17.36-26.37 0.64-17.4 16.15zm15.42-8.25c0.7-0.17 1.24 0.13 1.49 0.83 3.27 9.16-2.6 12.49-6.71 10.44-3.77-1.88-3.77-9.01 5.22-11.27zm-2.14-5.45c0.48 0.57 0.47 1.19-0.03 1.7-6.44 6.67-12.62 3.1-12.37-1.09 0.27-4.58 6.09-8.01 12.4-0.61z"/><ellipse transform="rotate(-30 38.621 55.008)" cx="38.62" cy="55.01" rx="7.64" ry="14.03"/></g><g transform="translate(-.49 -.5)" fill="#c8d987" stroke-width="0px"><path d="m49.34 21.03c-16.42 0.01-28.84 12.01-1.36 23.29 2.14 0.88 4.54 0.82 6.64-0.15 27.37-12.67 12.63-23.16-5.29-23.15zm-0.56 17.48c-0.2 0.69-0.73 1.01-1.46 0.88-9.57-1.75-9.52-8.5-5.69-11.03 3.51-2.32 9.69 1.24 7.15 10.16zm5.79 0.87c-0.73 0.13-1.27-0.18-1.46-0.88-2.56-8.91 3.62-12.48 7.13-10.17 3.83 2.53 3.9 9.28-5.67 11.04z"/><ellipse cx="50.94" cy="33.31" rx="14.03" ry="7.64"/><path d="m75.02 59.59c8.2-14.23 4.02-30.98-19.5-12.82-1.83 1.41-2.99 3.52-3.19 5.83-2.71 30.04 13.74 22.52 22.69 7zm-14.86-9.23c-0.5-0.52-0.51-1.14-0.03-1.7 6.3-7.41 12.12-3.99 12.4 0.59 0.26 4.2-5.92 7.77-12.37 1.11zm-3.65 4.58c0.25-0.7 0.79-1 1.49-0.83 8.99 2.24 9 9.38 5.24 11.26-4.1 2.05-9.98-1.26-6.73-10.43z"/><ellipse transform="rotate(-60 63.58 54.837)" cx="63.58" cy="54.83" rx="14.03" ry="7.64"/></g></svg>
