<svg version="1.1" viewBox="0 0 345.19 258.67" xmlns="http://www.w3.org/2000/svg"><path d="m113.78 146.1c-12.886 3.657-21.34 10.069-26.909 16.476 5.334-4.668 12.479-8.952 22.117-11.684 9.858-2.794 18.268-2.774 25.217-1.433v-5.434c-5.928-0.542-12.724-0.11-20.425 2.075zm-27.498-45.68-47.856 12.608s0.8722 1.232 2.4872 2.876l40.576-10.692s-0.575 7.409-5.5683 14.037c9.4453-7.146 10.361-18.829 10.361-18.829zm40.059 112.47c-67.347 18.139-102.98-59.909-113.77-100.42-4.984-18.699-7.1597-32.861-7.7396-42-0.0623-0.949-0.0335-1.749 0.0336-2.482-3.4936 0.211-5.1662 2.027-4.8259 7.275 0.5799 9.134 2.7556 23.295 7.7396 42 10.783 40.504 46.419 118.55 113.77 100.41 14.659-3.949 25.672-11.142 33.939-20.324-7.62 6.882-17.157 12.302-29.147 15.537zm12.656-160.24v4.793h26.416c-0.542-1.697-1.088-3.226-1.63-4.793z" fill="#2d4552"/><path d="m171.32 92.131c11.88 3.374 18.163 11.703 21.484 19.074l13.246 3.762s-1.807-25.797-25.141-32.425c-21.829-6.202-35.262 12.129-36.896 14.501 6.35-4.524 15.623-8.228 27.307-4.912zm105.44 19.193c-21.849-6.23-35.277 12.139-36.887 14.478 6.355-4.519 15.623-8.224 27.302-4.893 11.861 3.379 18.139 11.698 21.47 19.074l13.265 3.776s-1.836-25.802-25.15-32.435zm-13.16 68.018-110.19-30.805s1.193 6.048 5.77 13.879l92.775 25.936c7.638-4.419 11.645-9.01 11.645-9.01zm-76.395 66.307c-87.249-23.392-76.701-134.56-62.583-187.24 5.813-21.709 11.789-37.845 16.745-48.661-2.957-0.6087-5.406 0.9489-7.826 5.8706-5.262 10.672-11.991 28.049-18.503 52.375-14.114 52.677-24.662 163.84 62.583 187.23 41.123 11.017 73.159-5.727 97.04-32.023-22.668 20.531-51.609 32.042-87.456 22.443z" fill="#2d4552"/><path d="m139 186.84v-22.433l-62.329 17.674s4.6056-26.76 37.112-35.981c9.858-2.794 18.269-2.775 25.217-1.433v-92.013h31.208c-3.398-10.5-6.685-18.584-9.446-24.201-4.567-9.297-9.249-3.134-19.878 5.756-7.486 6.254-26.406 19.596-54.877 27.268-28.471 7.677-51.489 5.641-61.093 3.978-13.615-2.349-20.737-5.339-20.07 5.017 0.5798 9.134 2.7556 23.296 7.7396 42 10.783 40.505 46.418 118.55 113.77 100.41 17.592-4.74 30.009-14.109 38.616-26.051h-25.965zm-100.58-73.812 47.861-12.608s-1.395 18.412-19.337 23.142c-17.947 4.725-28.524-10.534-28.524-10.534z" fill="#e2574c"/><path d="m319.12 53.721c-12.441 2.181-42.288 4.898-79.174-4.989-36.896-9.881-61.376-27.163-71.075-35.286-13.749-11.516-19.797-19.519-25.749-7.4137-5.262 10.677-11.991 28.054-18.504 52.38-14.113 52.677-24.661 163.84 62.583 187.23 87.226 23.372 133.66-78.178 147.78-130.86 6.513-24.321 9.369-42.738 10.155-54.613 0.896-13.452-8.344-9.547-26.013-6.451zm-175.29 43.582s13.749-21.384 37.068-14.756c23.334 6.628 25.141 32.425 25.141 32.425zm56.923 95.957c-41.017-12.015-47.343-44.723-47.343-44.723l110.18 30.806c0-5e-3 -22.241 25.782-62.842 13.917zm38.957-67.218s13.73-21.369 37.045-14.722c23.314 6.638 25.15 32.435 25.15 32.435z" fill="#2ead33"/><path d="m117.22 170.59-40.548 11.492s4.4046-25.092 34.275-35.036l-22.96-86.166-1.984 0.603c-28.471 7.678-51.489 5.641-61.093 3.978-13.615-2.348-20.736-5.339-20.07 5.018 0.5799 9.134 2.7556 23.295 7.7396 42 10.783 40.504 46.419 118.55 113.77 100.41l1.984-0.623zm-78.795-57.555 47.861-12.609s-1.395 18.412-19.337 23.142c-17.947 4.725-28.524-10.533-28.524-10.533z" fill="#d65348"/><path d="m202.61 193.71-1.855-0.451c-41.017-12.014-47.343-44.722-47.343-44.722l56.818 15.882 30.081-115.59-0.364-0.096c-36.896-9.881-61.375-27.163-71.075-35.286-13.749-11.516-19.797-19.519-25.749-7.4137-5.257 10.677-11.986 28.054-18.499 52.38-14.113 52.677-24.661 163.84 62.583 187.23l1.788 0.403zm-58.773-96.407s13.749-21.384 37.068-14.756c23.334 6.628 25.141 32.425 25.141 32.425z" fill="#1d8d22"/><path d="m119.28 170-10.874 3.086c2.569 14.482 7.097 28.38 14.204 40.658 1.237-0.273 2.464-0.508 3.724-0.853 3.302-0.891 6.364-1.994 9.312-3.197-7.941-11.784-13.194-25.356-16.366-39.694zm-4.246-102c-5.588 20.856-10.587 50.875-9.211 80.985 2.463-1.069 5.065-2.065 7.955-2.885l2.013-0.45c-2.454-32.162 2.851-64.936 8.827-87.235 1.515-5.641 3.034-10.888 4.548-15.781-2.439 1.552-5.065 3.143-8.056 4.782-2.017 6.226-4.054 13.031-6.076 20.584z" fill="#c04b41"/></svg>
