<svg xmlns="http://www.w3.org/2000/svg" viewBox="0 0 1744.8 1744.8"><defs><clipPath id="a"><path d="M0 1500h1500V0H0z"/></clipPath></defs><g clip-path="url(#a)" transform="matrix(1.3333 0 0 -1.3333 -127.61 1872.4)"><path fill="#fab040" d="m665.15 130.85-534.29 534.3c-46.863 46.862-46.863 122.84 0 169.7l534.29 534.3c46.863 46.864 122.84 46.864 169.71 0l534.29-534.29c46.863-46.863 46.863-122.84 0-169.71l-534.29-534.3c-46.863-46.862-122.84-46.862-169.71 0"/><path fill="none" stroke="#040521" stroke-miterlimit="10" stroke-width="34" d="M687.77 233.23 233.22 687.78c-34.366 34.366-34.366 90.085 0 124.45l454.55 454.55c34.365 34.366 90.084 34.366 124.45 0l454.55-454.55c34.365-34.365 34.365-90.084 0-124.45L812.22 233.23c-34.366-34.365-90.085-34.365-124.45 0z"/><path d="M784.67 763.29c12.096 0 23.74.893 34.943 2.688 11.194 1.785 21.053 5.26 29.569 10.416 8.504 5.145 15.34 12.432 20.496 21.84 5.144 9.408 7.726 21.724 7.726 36.96 0 15.225-2.582 27.552-7.726 36.96-5.156 9.408-11.992 16.684-20.496 21.84-8.516 5.145-18.375 8.62-29.57 10.416-11.202 1.785-22.846 2.688-34.942 2.688h-81.985v-143.81zm28.895 225.79q45.012 0 76.609-13.104c21.05-8.736 38.187-20.275 51.406-34.608 13.209-14.343 22.85-30.692 28.897-49.056 6.048-18.375 9.072-37.412 9.072-57.12 0-19.268-3.024-38.2-9.072-56.784-6.047-18.596-15.688-35.06-28.897-49.392-13.22-14.343-30.355-25.872-51.406-34.608q-31.596-13.104-76.61-13.104h-110.88v-172.03h-105.5v479.81z"/></g></svg>