<svg xmlns="http://www.w3.org/2000/svg" fill="none" viewBox="0 0 229.5 251.28"><path fill="url(#a)" stroke="#000" stroke-width="5.408" d="m135.57 8.282 70.402 40.646a41.64 41.64 0 0 1 20.821 36.064v81.292a41.64 41.64 0 0 1-20.821 36.064l-70.402 40.646a41.64 41.64 0 0 1-41.642 0l-70.402-40.646a41.64 41.64 0 0 1-20.821-36.064V84.992a41.64 41.64 0 0 1 20.821-36.064L93.928 8.282a41.64 41.64 0 0 1 41.642 0z"/><path stroke="url(#b)" stroke-width="2.163" d="m21.728 85.625 70.401 40.647a44.35 44.35 0 0 0 44.347 0l70.401-40.647"/><g stroke-width="2.163" style="mix-blend-mode:overlay"><path stroke="url(#c)" d="M54.622 151.97v63.275m13.52-42.724v50.296m11.898-29.745v38.398" transform="translate(-17.752 -6.862)"/><path stroke="url(#d)" d="M40.02 136.28v70.306" transform="translate(-17.752 -6.862)"/></g><defs><linearGradient id="a" x1="132.5" x2="132.5" y2="265" gradientTransform="translate(-17.752 -6.862)" gradientUnits="userSpaceOnUse"><stop offset="0" stop-color="#FFF500"/><stop offset=".687" stop-color="#FFC000"/><stop offset="1" stop-color="#FF7A00"/></linearGradient><linearGradient id="b" x1="131.96" x2="131.96" y1="153.05" y2="93.02" gradientTransform="translate(-17.752 -6.862)" gradientUnits="userSpaceOnUse"><stop offset="0"/><stop offset="1" stop-opacity=".24"/></linearGradient><linearGradient id="c" x1="67.332" x2="67.332" y1="151.97" y2="231.47" gradientUnits="userSpaceOnUse"><stop offset="0" stop-opacity="0"/><stop offset="1"/></linearGradient><linearGradient id="d" x1="40.52" x2="40.52" y1="136.28" y2="206.59" gradientUnits="userSpaceOnUse"><stop offset="0" stop-opacity="0"/><stop offset="1"/></linearGradient></defs></svg>