<svg version="1.1" viewBox="0 0 21.437 32" xmlns="http://www.w3.org/2000/svg"><path d="m21.221 17.94h-21.038v-1.1864c0-0.7971 0.64616-1.4434 1.4433-1.4434h18.151c0.7972 0 1.4435 0.6463 1.4435 1.4434z" fill="#dfdedf"/><path d="m19.756 31.699h-18.106c-0.80942 0-1.4656-0.6562-1.4656-1.4656v-12.293h21.038v12.293c0 0.8094-0.6561 1.4656-1.4657 1.4656z" fill="#fff"/><path d="m20.96 17.702v-1.0639c0-0.6282-0.5091-1.1374-1.1372-1.1374h-18.208c-0.6281 0-1.1372 0.5092-1.1372 1.1374v1.0639zm0 12.684v-12.207h-20.483v12.207c0 0.6281 0.50913 1.1373 1.1372 1.1373h18.208c0.6281 0 1.1372-0.5092 1.1372-1.1373zm-19.239-15.362 0.07082-0.7734-0.30076 0.7796c0.04079-0.0031 0.08157-0.0062 0.12318-0.0062zm17.87-1.3038 0.105 1.3038h0.1267c0.0677 0 0.134 0.0055 0.1996 0.0136zm1.4443 1.8559c0.2492 0.2842 0.4018 0.6554 0.4018 1.0623v13.748c0 0.8903-0.7243 1.6144-1.6144 1.6144h-18.208c-0.89018 0-1.6144-0.7241-1.6144-1.6144v-13.748c0-0.4315 0.1711-0.8229 0.44778-1.1129l1.6094-4.1716 0.70178-7.6666 0.79183 0.07245-0.63237 6.9077 0.22275 0.0859-0.30233 0.7836-0.31916 3.487h16.379l-0.909-11.283 0.7926-0.06393 0.536 6.6546zm-19.264 0.7026c0.19897 0 0.36024 0.1613 0.36024 0.3603 0 0.1989-0.16127 0.3602-0.36024 0.3602-0.19896 0-0.36024-0.1613-0.36024-0.3602 0-0.199 0.16128-0.3603 0.36024-0.3603zm1.2317 0c0.19897 0 0.36024 0.1613 0.36024 0.3603 0 0.1989-0.16127 0.3602-0.36024 0.3602-0.19896 0-0.36024-0.1613-0.36024-0.3602 0-0.199 0.16128-0.3603 0.36024-0.3603zm1.1928 0c0.19896 0 0.36024 0.1613 0.36024 0.3603 0 0.1989-0.16128 0.3602-0.36024 0.3602-0.19897 0-0.36024-0.1613-0.36024-0.3602 0-0.199 0.16127-0.3603 0.36024-0.3603z"/><path d="m3.0166 24.096c0.06188-0.0716 0.09443-0.1657 0.09443-0.2825 0-0.1169-0.03255-0.2072-0.09443-0.2789-0.06515-0.0716-0.15642-0.1055-0.2737-0.1055h-0.57335v0.7724h0.57335c0.11728 0 0.20855-0.034 0.2737-0.1055zm-0.2737-1.1302c0.24753 0 0.4431 0.0754 0.5896 0.2298 0.14666 0.1544 0.2183 0.3616 0.2183 0.6179 0 0.2598-0.07164 0.4633-0.21492 0.6177-0.14666 0.1546-0.34207 0.2336-0.59298 0.2336h-0.57335v1.0396h-0.44304v-2.7386zm2.3902 1.6795v-0.7989h0.4772v1.8037h-0.4772v-0.1626c-0.1446 0.1446-0.3325 0.2169-0.56747 0.2169-0.21685 0-0.3904-0.0723-0.52409-0.2133-0.13375-0.1409-0.19879-0.3217-0.19879-0.5458v-1.0989h0.47711v0.9977c0 0.1265 0.03249 0.2313 0.10115 0.3073 0.06509 0.0759 0.15181 0.1157 0.26388 0.1157 0.30001 0 0.44821-0.2061 0.44821-0.6218zm2.3385 0.4952c0.094-0.0976 0.141-0.2277 0.141-0.3903 0-0.1627-0.047-0.2965-0.141-0.3941-0.0976-0.0975-0.2169-0.1482-0.3651-0.1482-0.1337 0-0.253 0.0507-0.3578 0.1519s-0.1554 0.2312-0.1554 0.3904c0 0.1589 0.0506 0.2892 0.1554 0.3867 0.1048 0.1013 0.2241 0.1518 0.3578 0.1518 0.1482 0 0.2675-0.0505 0.3651-0.1482zm-0.2819-1.3482c0.235 0 0.4446 0.0904 0.6217 0.2711 0.1771 0.1843 0.2638 0.412 0.2638 0.6868 0 0.2746-0.0867 0.5024-0.2638 0.6831-0.1771 0.1808-0.3832 0.2711-0.6217 0.2711-0.235 0-0.4338-0.0651-0.5964-0.1951v1.0014h-0.4771v-2.6642h0.4771v0.1445c0.159-0.1337 0.3578-0.1987 0.5964-0.1987zm2.6023 1.3482c0.094-0.0976 0.141-0.2277 0.141-0.3903 0-0.1627-0.047-0.2965-0.141-0.3941-0.0976-0.0975-0.2168-0.1482-0.3651-0.1482-0.1337 0-0.2529 0.0507-0.3578 0.1519-0.1048 0.1012-0.1554 0.2312-0.1554 0.3904 0 0.1589 0.0506 0.2892 0.1554 0.3867 0.1049 0.1013 0.2241 0.1518 0.3578 0.1518 0.1483 0 0.2675-0.0505 0.3651-0.1482zm-0.282-1.3482c0.235 0 0.4446 0.0904 0.6219 0.2711 0.177 0.1843 0.2637 0.412 0.2637 0.6868 0 0.2746-0.0867 0.5024-0.2637 0.6831-0.1773 0.1808-0.3832 0.2711-0.6219 0.2711-0.2349 0-0.4337-0.0651-0.5963-0.1951v1.0014h-0.4771v-2.6642h0.4771v0.1445c0.159-0.1337 0.3578-0.1987 0.5963-0.1987zm1.5903 0.7482h0.8712c-0.029-0.1121-0.0832-0.1951-0.1591-0.2495-0.0759-0.0542-0.1662-0.0831-0.2675-0.0831-0.0975 0-0.1915 0.0289-0.2747 0.0868-0.0867 0.0579-0.1446 0.1409-0.1699 0.2458zm0.4446-0.7482c0.2458 0 0.4591 0.0867 0.6362 0.2567 0.1771 0.1734 0.2675 0.3938 0.2784 0.665v0.1627h-1.3736c0.0253 0.1264 0.0795 0.2276 0.1627 0.3036 0.0831 0.0759 0.177 0.1156 0.2891 0.1156 0.2061 0 0.3543-0.0795 0.4483-0.2385l0.4265 0.0903c-0.0759 0.1844-0.1916 0.3218-0.3434 0.4158-0.1518 0.0939-0.3289 0.1409-0.5314 0.1409-0.2602 0-0.4808-0.0903-0.6579-0.2674s-0.2675-0.4085-0.2675-0.6868 0.0905-0.5097 0.2711-0.6905c0.1771-0.177 0.3977-0.2674 0.6615-0.2674zm2.2301 1.4676c0.0904 0 0.1916-0.029 0.3001-0.0868l0.1373 0.3976c-0.1663 0.0903-0.3218 0.1337-0.4699 0.1337-0.2205 0-0.3941-0.0614-0.5206-0.1808-0.1264-0.1191-0.1879-0.2963-0.1879-0.5385v-0.7483h-0.3868v-0.3904h0.3868v-0.5457h0.4772v0.5457h0.5892v0.3904h-0.5892v0.7121c0 0.2061 0.0867 0.311 0.2638 0.311zm1.0011-0.7194h0.8711c-0.0289-0.1121-0.0831-0.1951-0.159-0.2495-0.076-0.0542-0.1662-0.0831-0.2676-0.0831-0.0974 0-0.1914 0.0289-0.2746 0.0868-0.0868 0.0579-0.1446 0.1409-0.1699 0.2458zm0.4445-0.7482c0.2459 0 0.4592 0.0867 0.6363 0.2567 0.1771 0.1734 0.2675 0.3938 0.2783 0.665v0.1627h-1.3735c0.0253 0.1264 0.0794 0.2276 0.1627 0.3036 0.083 0.0759 0.177 0.1156 0.2891 0.1156 0.2061 0 0.3542-0.0795 0.4482-0.2385l0.4264 0.0903c-0.0758 0.1844-0.1914 0.3218-0.3432 0.4158-0.1519 0.0939-0.329 0.1409-0.5314 0.1409-0.2603 0-0.4808-0.0903-0.6579-0.2674s-0.2675-0.4085-0.2675-0.6868 0.0904-0.5097 0.2711-0.6905c0.1771-0.177 0.3977-0.2674 0.6614-0.2674zm1.6988 0.7482h0.8711c-0.0289-0.1121-0.0832-0.1951-0.159-0.2495-0.076-0.0542-0.1663-0.0831-0.2676-0.0831-0.0974 0-0.1915 0.0289-0.2746 0.0868-0.0868 0.0579-0.1446 0.1409-0.1699 0.2458zm0.4445-0.7482c0.2459 0 0.4592 0.0867 0.6363 0.2567 0.1771 0.1734 0.2675 0.3938 0.2783 0.665v0.1627h-1.3735c0.0253 0.1264 0.0795 0.2276 0.1627 0.3036 0.0831 0.0759 0.177 0.1156 0.289 0.1156 0.2061 0 0.3543-0.0795 0.4483-0.2385l0.4265 0.0903c-0.0759 0.1844-0.1916 0.3218-0.3434 0.4158-0.1518 0.0939-0.3289 0.1409-0.5314 0.1409-0.2602 0-0.4807-0.0903-0.6578-0.2674s-0.2676-0.4085-0.2676-0.6868 0.0905-0.5097 0.2712-0.6905c0.1771-0.177 0.3977-0.2674 0.6614-0.2674zm2.4001 0.0289c0.0542 0 0.0976 0.0035 0.1266 0.0144l-0.0254 0.4591h-0.1048c-0.4301 0-0.6435 0.2567-0.6435 0.7736v0.5819h-0.477v-1.8037h0.477v0.3289c0.1628-0.235 0.3796-0.3542 0.6471-0.3542z"/><path d="m17.677 11.107 2.5743-1.2428v-1.2427l-5.9474-2.8406 5.9474-3.0624v-1.1983l-2.4855-1.154-7.042 3.5062-7.1604-3.5062-2.308 1.2427v1.0651l5.5923 3.0624-5.5923 2.8406v1.287l2.3967 1.2428 7.1012-3.6395z" fill="#00d8a2"/><path d="m17.999 10.6v-0.5352l1.9376-1.0041v0.60122zm-16.588-1.5534 1.8724 1.0749v0.4279l-1.8724-0.94725zm9.5908-2.2604 6.4411 3.1824v0.63996l-6.4411-3.2997zm-7.1617 3.2756 6.6051-3.275v0.52187l-6.6051 3.3419zm4.6769-5.3513-6.6842-3.2271 1.7312-0.87983 7.1595 3.7115 7.0396-3.7099 1.7923 0.91802-6.5182 3.2804c-0.2606 0.13112-0.2602 0.50334 6e-4 0.63388l6.451 3.2287-1.672 0.86645-7.0933-3.6345-7.2187 3.7087-1.6488-0.9465 6.6647-3.3129c0.264-0.13119 0.2618-0.50872-0.0037-0.63693zm-7.0227-2.1337v-0.58737l6.234 3.1102-0.6303 0.25179zm12.783 2.8092c-0.0085-0.0052-0.597-0.28287-0.597-0.28287l6.2569-3.149v0.58994zm0.6263 0.30841 5.4995-2.7614c0.0557-0.02793 0.0908-0.08496 0.0908-0.14725v-1.3066c0-0.06189-0.0346-0.11849-0.0896-0.14671l-2.5652-1.3139c-0.0469-0.024028-0.1026-0.024116-0.1497-2.514e-4l-6.8919 3.4972c-0.0464 0.02361-0.1014 0.0239-0.1481 5.3e-4l-7.0134-3.4988c-0.04663-0.023274-0.10162-0.023023-0.14819 5.902e-4l-2.5432 1.2924c-0.05539 0.02813-0.09022 0.08491-0.09022 0.14696v1.3277c0 0.0627 0.03559 0.11996 0.09186 0.14778l5.5227 2.7285-5.4972 2.7294c-0.05498 0.0274-0.09033 0.08309-0.09144 0.14462l-0.02402 1.3056c-0.00117 0.06322 0.03401 0.12148 0.09034 0.15005l2.6409 1.3362c0.04663 0.0234 0.10162 0.0236 0.14836 1e-4l6.9132-3.4714c0.0468-0.02349 0.1019-0.02338 0.1487 3.5e-4l6.827 3.4713c0.0459 0.0232 0.1001 0.0238 0.1465 0.0014l2.6295-1.2731c0.0569-0.0275 0.093-0.08515 0.093-0.14832v-1.3641c0-0.06287-0.0357-0.12025-0.0921-0.14795z"/></svg>
