<svg xmlns="http://www.w3.org/2000/svg" viewBox="0 0 737.25 859.6"><path fill="#5d4191" d="M170.31 299.69c-8.977 1.209-18.395 3.148-27 6.001-3.295 1.092-8.781 2.361-6.953 7.003 2.744 6.966 12.007 12.879 17.671 17.355 1.937 1.531 5.819 4.338 4.361 7.254-1.661 3.327-7.962 4.898-11.079 6.415-4.362 2.123-8.501 4.68-13 6.52-5.235 2.141-12.549 3.931-16.606 8.089-4.87 4.99 1.512 13.241 4.733 17.274 10.722 13.423 24.828 22.144 36.873 34.089-3.963 1.259-7.919 2.208-12 3 2.906 13.426 14.187 21.032 24.985 27.95 4.913 3.147 9.344 6.416 15.015 8.05-4.344 2.449-8.863 4.148-13 7 7.862 10.277 22.91 16.864 35 20.653 5.655 1.772 11.618 2.649 17 5.263 7.942 3.857 15.978 12.954 21 20.084-25.27 0-49.878 6.878-75 6.999-5.576.027-11.493.528-17-.463-16.573-2.983-32.73-9.753-50-8.442-5.103.388-9.257 2.932-14 4.5-3.587 1.187-7.421 1.292-11 2.51-8.026 2.731-15.279 8.843-19.891 15.896-3.368 5.15-2.479 10.826-5.048 16-7.165 14.426-11.393 28.584-8.445 45 1.115 6.207 5.088 9.273 9.028 14.3 1.824 2.324 4.177 4.688 5.706 7.192 1.375 2.25-.434 8.028.207 10.508.724 2.803 2.258 5.377 3.443 8-5.539 1.365-11.016 2.202-16 5.213-9.605 5.802-13.47 15.598-20.61 23.524-2.205 2.448-5.302 3.831-7.63 6.166-5.236 5.251-8.833 11.915-10.524 19.097-1.441 6.118-1.717 12.757-.95 19 .438 3.56 1.859 7.406 1.563 11-.629 7.624-6.169 15.187-7.528 23-2.381 13.687 2.004 24.237 5.679 37 2.995 0 3.21 3.35 4.167 6 2.197 6.085 3.245 12.26 6.833 18 3.96 6.335 7.658 12.989 12.333 18.833 3.983 4.979 9.591 8.046 14.667 11.5 5.418 3.687 10.387 7.648 16 11 15.745 10.068 27.011 17.943 47 20.797 10.721 1.511 20.999 5.856 31.91 5.774 15.433-.264 28.389-4.117 40.09-6.571 17.148-2.884 33.796-8.912 49-14.125 11.932-4.262 24.185-8.111 36-12.636 15.225-5.831 29.758-13.568 46-16.286 19.368-3.242 39.45-.469 59-1.325 14.092-.617 28.939-5.275 43-2.292 14.619 3.101 27.775 12.127 42 16.737 8.156 2.643 16.811 3.121 25 5.565 11.016 3.286 21.838 7.47 32.911 10.518 12.986 3.575 26.795 4.764 40.089 6.681 14.802 2.134 28.958 3.83 44 3.83 9.984 0 20.151.642 30-1.314 3.456-.686 6.584-2.349 10-3.161 8.099-1.926 16.414-3.162 24-6.898 25.341-12.482 36.148-35.773 48.273-59.627 3.027-5.955 7.114-11.341 10.357-17.17 7.833-14.075 13.726-30.684 15.081-46.83.53-6.325.351-13.372-2.939-19-2.046-3.501-5.416-6.155-6.879-10-2.621-6.89-1.053-14.033-4.718-21-4.174-7.934-11.636-10.792-17.875-16.518-3.149-2.89-5.366-6.65-8.315-9.737-8.347-8.736-18.438-16.807-29.985-20.745 2.603-3.387 5.47-6.967 7.005-11 .989-2.596.802-5.482 2.007-8 1.219-2.545 3.344-4.537 4.711-7 3.111-5.604 3.855-12.715 3.093-19-.758-6.245-5.421-10.364-6.69-16.089-1.588-7.163-.715-14.189-4.489-20.911-2.894-5.154-7.529-7.938-11.039-12.375-3.091-3.907-4.221-9.447-7.358-13.624-6.162-8.207-17.562-14.662-27.24-17.896-10.707-3.578-26.147-1.429-37 .699-5.032.987-12.953 4.571-17.41.839-3.629-3.039-10.657-11.428-8.457-16.6 1.079-2.537 3.746-4.046 5.868-5.597 4.866-3.558 9.909-7.111 14.07-11.5 1.777-1.874 4.235-4.13 4.177-6.942-.065-3.163-3.055-5.236-5.248-7.004 15.026-6.173 27.929-15.798 39.961-26.579 3.359-3.011 10.757-9.189 8.822-14.406-1.108-2.988-4.367-5.043-6.783-6.885-5.355-4.081-11.065-7.499-15.999-12.106-1.775-1.658-4.975-3.723-5.655-6.194-.752-2.73 2.026-5.047 3.634-6.83 4.484-4.974 15.342-14.253 7.958-20.391-1.803-1.499-3.949-2.692-5.938-3.924-2.607-1.615-5.068-2.822-8-3.685 8.556-26.303 17.781-53.465 21.24-81 2.479-19.731.434-39.326.814-59 .301-15.578 1.928-31.356.857-47-1.422-20.765-5.767-40.136-11.709-60-3.374-11.282-6.133-22.679-9.342-34-1.794-6.327-3.142-13.426-6.829-18.985-2.069-3.119-4.928-5.079-8.031-7.061-3.758-2.401-7.521-4.735-12-5.472-13.84-2.275-25.271 11.041-35 18.635-19.149 14.944-42.882 26.707-57.251 46.883-10.055 14.118-14.12 32.567-18.749 49-19.831-7.639-41.542-4.419-59 8 2.269-12.224 2.36-33.75-9.001-41.046-3.237-2.079-6.912-4.979-10.999-4.211-5.358 1.007-10.834 5.645-15 8.926-13.055 10.282-25.925 26.295-31 42.331-2-6.765-.475-14.05-1.805-21-3.76-19.656-10.812-41.125-21.743-58-12.307-18.999-31.819-30.867-45.934-47.961-9.196-11.135-18.031-22.505-31.518-28.603-6.266-2.833-13.56-4.692-19.815-.427-6.559 4.473-7.84 14.117-10.483 20.991-5.225 13.591-12.956 25.812-19.011 39-5.603 12.205-12.581 24.173-16.662 37-7.787 24.474-9.903 51.655-13.318 77-2.251 16.711-8.077 33.99-6.54 51 1.359 15.046 3.808 29.612 8.499 44 2.759 8.464 8.429 17.199 9.33 26"/><path fill="#5d4191" d="M287.31 289.12c-10.601 1.409-21.203 2.144-29.907 9.186-10.454 8.457-12.16 25.038-10.517 37.39.866 6.513 1.855 13.022 4.851 19 5.07 10.112 13.411 15.949 22.573 21.864 13.023 8.409 25.055 14.221 41 12.006 16.522-2.296 37.125-7.649 50.961-17.226 5.641-3.904 11.036-8.135 13.686-14.644 3.085-7.576 1.492-18.092.507-26-.995-7.997-3.594-16.008-9.258-21.96-16.391-17.223-40.559-20.04-62.896-20.04-6.947 0-14.103-.492-21 .424m156 13.004c-5.631.798-11.304 1.765-15.815 5.5-6.336 5.247-8.755 14.354-10.381 22.072-2.297 10.902-5.084 19.162-.275 30 4.561 10.279 14.261 17.306 23.471 23.065 11.043 6.905 21.946 13.21 34 18.224 7.842 3.261 15.105 7.44 24 6.257 10.83-1.44 15.632-7.023 22.025-15.122 11.623-14.725 19.356-37.756 9.291-55.423-4.214-7.395-12.266-11.518-19.316-15.798-14.726-8.939-30.05-14.208-47-16.957-6.535-1.06-13.377-2.756-20-1.818"/><path fill="#fff" d="M357.12 174.36v7.4h-27.541v8.963h-119.6v265.34h100.15v18.494h208.97v-18.494h27.791v-265.34H432.17v-8.963h-20.14v-7.4z"/><path fill="#1b1d2b" d="M223.98.033c-4.458.28-9.04 2.353-11.559 5.765-5.067 6.863-6.447 16.132-9.699 23.895-4.773 11.392-11.567 21.788-16.715 33-5.603 12.205-12.58 24.173-16.662 37-7.787 24.474-9.903 51.655-13.318 77-2.251 16.71-8.076 33.99-6.54 51 1.36 15.046 3.808 29.612 8.499 44 2.759 8.464 8.429 17.199 9.33 26-8.977 1.209-18.395 3.149-27 6.002-3.295 1.092-8.781 2.36-6.953 7.002 2.744 6.966 12.008 12.88 17.672 17.355 1.937 1.53 5.817 4.338 4.36 7.254-1.662 3.327-7.962 4.897-11.079 6.414-4.362 2.123-8.501 4.682-13 6.522-5.235 2.14-12.548 3.93-16.605 8.088-4.87 4.99 1.511 13.24 4.732 17.273 10.722 13.423 24.828 22.145 36.873 34.09-3.963 1.259-7.919 2.208-12 3 2.668 12.328 13.504 22.529 25 26.936 2.882 1.105 15.146 3.604 14.37 7.959-.606 3.39-9.648 6.228-12.37 8.105 8.111 10.569 26.728 13.648 39 17.074 2.597.725 5.487.422 7.984 1.447 4.163 1.71 6.516 6.213 9.317 9.479 5.332 6.218 11.972 11.29 16.699 18-29.54 0-58.468 8.3-88 6.96-8.808-.4-17.352-4.498-26-6.155-9.017-1.73-20.9-3.996-30-2.48-4.624.77-8.555 3.298-13 4.57-5.591 1.603-10.82 2.006-16 4.986-6.846 3.938-13.681 10.578-16.44 18.119-1.186 3.247-.76 6.832-2.029 10-2.359 5.893-6.19 10.693-7.937 17-2.037 7.352-.836 14.556-1.42 22-.788 10.047 4.057 28.11 15.826 29-1.671 7.02.124 11.632 3 18-5.539 1.365-11.016 2.202-16 5.213-9.605 5.802-13.47 15.597-20.61 23.523-2.204 2.448-5.302 3.83-7.63 6.166-5.236 5.25-8.833 11.916-10.524 19.098-1.44 6.118-1.718 12.757-.95 19 .437 3.56 1.86 7.406 1.564 11-.63 7.624-6.17 15.187-7.53 23-2.852 19.125 4.543 28.818 9.512 42 2.202 5.66 3.125 11.405 6 17 3.673 7.146 8.491 14.57 13.5 20.832 4.805 6.006 11.822 9.373 17.668 14 14.546 10.1 27.428 17.647 46 20.299 10.721 1.51 21 5.855 31.91 5.773 15.434-.263 28.389-4.118 40.09-6.572 17.149-2.882 33.796-8.911 49-14.125 11.011-3.933 21.905-7.86 33-11.562 16.23-5.416 31.013-13.98 48-17.184 20.01-3.774 40.795-.168 61-1.55 14.652-1.005 30.508-5.63 44.998-1.481 7.187 2.057 14.005 5.224 20.83 8.398 5.965 2.774 11.933 5.557 18.172 7.578 8.156 2.643 16.811 3.12 25 5.565 11.016 3.286 21.837 7.47 32.91 10.517 12.986 3.575 26.796 4.765 40.09 6.682 15.145 2.183 29.613 3.83 45 3.83 9.663 0 19.466.579 29-1.314 3.456-.686 6.584-2.35 10-3.16 9.26-2.204 18.592-3.706 27-8.542 23.426-13.473 33.524-34.87 45.273-57.984 3.027-5.955 7.115-11.34 10.358-17.17 6.497-11.673 10.524-23.811 13.17-36.83 1.38-6.798 2.804-13.443 1.76-20.424-1.191-7.962-7.73-11.584-9.836-18.615-2.523-8.422-.753-16.19-6.364-23.957-4.023-5.57-10.31-6.865-14.984-11.395-3.391-3.287-5.573-7.737-8.842-11.185-10.135-10.69-19.919-15.416-34.535-15.424 2.776-5.38 7.298-9.59 10.084-15 1.653-3.21 1.406-6.82 2.928-10 1.219-2.545 3.344-4.537 4.71-7 2.99-5.384 3.671-11.955 3.184-18-.545-6.752-5.425-10.98-6.779-17.09-1.497-6.753-.695-13.468-3.963-19.91-1.55-3.058-3.71-6.172-6.453-8.277-1.84-1.413-4.368-1.99-5.684-4.026-1.439-2.226-1.177-5.282-2.304-7.697-3.573-7.655-9.736-13.226-17.723-15.895-4.785-1.6-10.028-1.105-15-1.105-11.651 0-22.667 1.574-34 4.34-4.425 1.08-8.463 2.99-13 3.66-.97-6.473-3.979-11.08-8.092-16.04-2.735-3.297-7.357-8.322-7.201-12.956.123-3.632 3.697-5.66 6.295-7.56 4.866-3.557 9.907-7.11 14.068-11.5 4.586-4.837 5.752-9.112-1.07-11.944v-2c14.253-5.856 26.444-14.803 37.996-24.87 3.712-3.233 10.92-8.673 11.113-14.114.136-3.857-4.439-6.398-7.109-8.385-6.521-4.855-17.43-10.242-21.248-17.72-1.631-3.195 1.253-5.72 3.228-7.911 3-3.33 11.502-11.056 10.983-15.895-.848-7.9-17.126-4.438-16.412-13.123.49-5.975 3.872-12.25 5.54-17.982 4.49-15.426 9.907-31.16 12.659-47 2.517-14.49 4.071-29.3 4.246-44 .12-10-1.132-20.093-.941-30 .3-15.578 1.926-31.356.855-47-1.422-20.765-5.767-40.136-11.709-60-3.672-12.276-6.654-24.692-10.201-37-1.556-5.4-2.705-12.424-6.639-16.697-3.652-3.966-9.667-3.337-14.361-2.002-10.852 3.086-19.37 12.563-28 19.36-18.533 14.595-41.269 25.705-55.252 45.339-10.055 14.118-14.119 32.567-18.748 49-4.163-1.604-8.533-3.575-13-4.117-24.222-2.934-41.107 11.102-62 20.117-.437-4.798 1.253-9.253 1.844-14 1.193-9.576 1.634-18.515-.494-28-.616-2.75-.495-8.215-2.377-10.354-1.575-1.79-4.21-.626-5.975.182-5.409 2.48-10.563 6.419-14.996 10.342-17.402 15.399-28.245 35.636-34.002 57.83-2.996-4.645-6.783-9.614-8.234-15-2.282-8.473-.421-18.296-.805-27-.37-8.373-3.161-17.063-5.705-25-4.373-13.647-9.28-28.097-17.477-40-10.975-15.938-26.114-27.673-39.779-41.04-8.984-8.788-16.907-25.23-30-28.286-1.378-.322-2.85-.428-4.336-.334m233.34 168.66c-1.03 4.495-1.889 11.22-5.42 14.484-1.976 1.827-6.85 3.3-8.404.078-.973-2.015.721-4.058 1.976-5.472 3.203-3.608 7.385-7.286 11.848-9.09m-69 9.674c18.363.665 36.342 9.732 52 18.467 36.348 20.277 71.416 46.994 88.904 85.859 8.794 19.544 11.275 41.895 12.52 63 .459 7.76 1.757 15.257.48 23-.93 5.65-4.043 9.754-5.935 15-1.3 3.603-1.323 7.43-2.85 11-3.628 8.476-12.4 12.838-16.13 21-1.386 3.032-1.072 6.748-1.579 10-.962 6.167-2.235 12.155-4.474 18-1.433 3.74-3.134 8.238-7.041 9.99-7.974 3.576-13.485-2.99-18.895-7.705-2.013-1.754-4.956-5.012-7.91-4.697-5.01.534-11.166 9.22-15.13 12.23-6.715 5.1-15.827 8.357-23.96 10.297-14.357 3.425-30.62 2.487-45-.627-6.063-1.313-11.745-4.366-17.83-5.383-9.308-1.556-18.839 1.443-28.17.805-20.183-1.38-40.212-8.833-55-22.95-4.658-4.446-9.64-8.868-12-14.96-5.557 3.43-10.354 8.13-16 11.36-18.61 10.647-22.841-19.554-25.2-31.36-.6-3.005-.768-6.664-2.163-9.424-4.655-9.218-15.58-14.266-19.037-24.58-3.077-9.178-.044-17.752.36-26.996.263-5.981-.406-12.046.325-18 2.37-19.29 9.87-37.466 19.883-53.998 14.659-24.207 38.447-46.498 62.832-60.707 19.569-11.403 39.772-20.168 62-24.86 7.893-1.664 16.914-4.054 25-3.761m-94.518 108.23c-3.18.002-6.356.108-9.482.524-11.046 1.469-23.384 2.186-31.672 10.787-7.087 7.354-9.437 18.963-9.324 28.789.1 8.66 1.506 18.183 5.424 26 9.232 18.416 29.642 27.638 49.572 24.87 16.522-2.297 37.125-7.648 50.96-17.225 5.642-3.904 11.037-8.136 13.686-14.645 3.085-7.576 1.493-18.092.508-26-1.083-8.704-4.053-17.83-11.17-23.47-13.096-10.38-33.224-9.53-48.984-9.53-3.149 0-6.336-.102-9.518-.1m151.27 13.266a29.4 29.4 0 0 0-4.754.262c-5.631.798-11.303 1.765-15.814 5.5-6.612 5.476-8.93 15.039-10.584 23.072-2.131 10.346-4.547 17.619-.483 28 7.15 18.263 28.395 26.422 44.881 33.71 7.405 3.275 14.569 6.958 23 5.837 10.83-1.44 15.632-7.024 22.025-15.123 11.535-14.613 19.488-37.871 9.291-55.408-3.394-5.837-9.601-9.15-15.316-12.362-11.629-6.537-25.004-9.445-38-11.574-4.666-.764-9.474-1.814-14.246-1.914m-128.71 1.676c11.186-.125 18.146 11.465 18.77 22.443.935 16.474-9.151 36.217-25.817 40.926-11.592 3.276-19.474-7.588-19.96-18.211-.737-16.056 4.085-38.963 21.96-44.352 1.764-.532 3.449-.788 5.047-.806m131.86 11.008c8.938-1.01 16.467 6.965 19.332 15.15 5.333 15.229 5.958 42.585-13.244 49.268-8.89 3.095-16.202-7.606-19.56-14.27-7.25-14.385-8.807-41.703 9.564-49.14a14.8 14.8 0 0 1 3.908-1.008m-221.03 287.81c.543.035 1.059.177 1.518.473 1.792 1.155 1.584 4.038 1.596 5.869.037 5.794-1.894 10.748-4.142 15.998-3.786 8.84-7.798 19.617-14.368 26.79-5.704 6.23-17.579 12.215-25.482 15.077-14.09 5.103-26.35-13.611-36-21.406-5.114-4.131-11.096-7.1-16-11.461 14.087-3.26 27.493-9.73 41-14.771 9.486-3.54 19.413-5.955 29-9.225 6.011-2.05 11.917-4.36 18-6.193 1.376-.415 3.251-1.256 4.879-1.15m268.65 7.537c2.538.16 5.188 1.148 7.475 1.803 6.631 1.9 13.21 4.26 20 5.54 15.113 2.85 30.686 6.802 46 8.29 5.587.543 11.389 1.15 17 1.168 3.605.012 7.544-.828 11 .002-17.006 6.73-32.678 15.296-49 23.479-5.075 2.544-9.598 6.067-15 7.972-4.53 1.597-9.325 1.474-14 2.354-8.122 1.528-18.776 5.526-26.89 2.164-4.303-1.783-5.518-8.01-7.094-11.97-2.652-6.658-6.666-19.945-4.448-26.997 1.063-3.381 3.82-5.722 6.096-8.283 1.88-2.114 3.419-4.72 6.379-5.362.804-.174 1.636-.213 2.482-.16"/></svg>