<svg xmlns="http://www.w3.org/2000/svg" fill="none" viewBox="0 0 131.98 152.41"><g fill-rule="evenodd" clip-rule="evenodd"><path fill="#24386c" d="m103.792 140.09-3.04-83.784-5.503-22.089 36.735 3.889v101.35l-22.44 12.95z"/><path fill="#7589be" d="m131.982 38.1-22.44 12.96-46.308-10.158L9.03 62.971 0 38.1l32.99-19.05L65.99 0l32.991 19.05z"/><path fill="#b2bfe8" d="m.002 38.1 22.44 12.96L35.45 89.746l43.92 35.142L65.994 152.4l-33-19.051-32.991-19.05z"/><path fill="#24386c" d="m80.87 104.56-14.877 21.932v25.91l21.11-12.18L97.98 123.98"/><path fill="#7589be" d="m66.002 100.59-21.12-36.565 4.55-12.119 17.292-8.384 20.379 20.504z"/><path fill="#b2bfe8" d="m44.883 64.022 21.11 12.18v24.38l-19.524.84-11.81-15.08z"/><path fill="#24386c" d="m65.993 76.2 21.11-12.179 14.367 23.922-17.386 14.365-18.091-1.727z"/><path fill="#dc244c" d="m87.103 140.22 22.44 12.181V51.061l-21.78-12.57-21.77-12.57-21.78 12.57-21.77 12.57v50.289l21.77 12.57 21.78 12.571 21.11-12.191zm0-51.83-21.11 12.19-21.11-12.19V64.02l21.11-12.19 21.11 12.19z"/></g><path fill="url(#a)" d="M66.002 126.5v-25.914l-21-12.086v25.871z"/><defs><linearGradient id="a" x1="62.128" x2="41.202" y1="105.54" y2="105.54" gradientTransform="translate(.002)" gradientUnits="userSpaceOnUse"><stop offset="0" stop-color="#FF3364"/><stop offset="1" stop-color="#C91540" stop-opacity="0"/></linearGradient></defs></svg>