<svg xmlns="http://www.w3.org/2000/svg" fill="none" viewBox="0 0 144 147.84"><defs><clipPath id="a"><rect width="640" height="180" rx="0"/></clipPath><clipPath id="c"><rect width="180" height="180" rx="0"/></clipPath></defs><g clip-path="url(#a)" transform="translate(-18 -15.197)"><g clip-path="url(#c)"><path fill="#2adb5c" d="M162 104.26V79.273c0-14.196-6.178-25.589-16.931-31.26L89.531 18.728l-.279.532-.278.531c10.348 5.456 16.285 16.462 16.285 30.196v24.987c0 .753-.019 1.545-.057 2.336q-.01.226-.032.462l-.025.373c-.032.5-.063 1.007-.114 1.507-.019.202-.044.41-.07.613l-.056.475c-.051.418-.095.83-.159 1.247-.031.234-.07.462-.107.696l-.057.361c-.07.424-.14.848-.222 1.272q-.179.948-.386 1.886l-.044.184a45 45 0 0 1-.456 1.81l-.145.531q-.255.912-.538 1.823l-.171.526q-.322.998-.684 1.987c-.063.177-.133.348-.202.525l-.108.285c-.196.506-.392 1.02-.601 1.525-.12.298-.253.595-.38.893l-.044.107c-.165.386-.336.773-.513 1.152-.152.342-.316.677-.475 1.013-.183.38-.36.753-.55 1.126a79.39 79.39 0 0 1-1.082 2.044q-.287.514-.583 1.026c-.19.33-.38.665-.582.987q-.304.512-.627 1.013c-.202.323-.398.64-.607.956-.215.335-.437.658-.69 1.038-.203.297-.405.595-.608.886a93 93 0 0 1-1.392 1.905c-.234.31-.468.608-.709.911-.247.31-.494.627-.74.93-.216.267-.437.526-.659.786l-.044.05q-.437.52-.892 1.032-.36.407-.722.804c-.304.335-.607.658-.918.987-.234.247-.474.487-.715.734-.411.418-.829.823-1.253 1.228l-.184.177c-.151.146-.297.285-.449.43q-.796.74-1.62 1.45l-.152.132-.177.16-.26.214c-.45.38-.905.747-1.36 1.114-.14.114-.285.221-.43.335l-.108.082c-.387.298-.773.59-1.197.9-.177.126-.348.26-.525.385q-.673.483-1.354.937l-.355.247a54 54 0 0 1-1.804 1.14l-.386.227q-.72.427-1.449.835-.219.124-.437.234l-.228.121c-.405.215-.803.424-1.209.633l-.664.322-.076.038c-.392.19-.778.368-1.177.545q-.379.173-.766.335a47 47 0 0 1-1.203.494l-.215.082-.531.21c-.437.164-.88.315-1.323.467l-.24.083c-.134.044-.267.095-.4.14a50 50 0 0 1-1.987.6l-3.88 1.063q-.864.239-1.721.437a6 6 0 0 1-.317.063l-.43.09c-.323.07-.64.138-.962.195-.133.026-.272.045-.405.07l-.519.088a15 15 0 0 1-.76.121q-.217.031-.436.05l-.525.064q-.352.046-.703.082-.144.008-.278.025l-.216.02c-.367.031-.734.063-1.1.081-.14.007-.273.013-.412.013h-.203q-.483.031-.956.032H49.5c-.297 0-.6-.007-.898-.019-.165 0-.33-.013-.494-.025h-.164c-.31-.026-.614-.045-.924-.07l-.406-.038a35 35 0 0 1-1.151-.127l-.247-.03c-.45-.065-.899-.134-1.348-.217l-.336-.063a41 41 0 0 1-.835-.177 23 23 0 0 1-1.298-.323l-.183-.05c-.083-.019-.158-.045-.24-.064a31 31 0 0 1-1.653-.525l-.392-.146a26 26 0 0 1-1.158-.449l-.437-.19-.095-.044a29 29 0 0 1-.994-.456l-.151-.076q-.057-.03-.09-.044l-4.132-2.165 2.994 2.994h.101l55.405 29.21c.19.1.38.195.576.296.063.032.126.057.19.09l.12.056c.342.164.684.323 1.038.475l.101.044c.152.063.298.133.45.196.398.165.797.317 1.202.468l.133.051q.105.038.19.076l.082.025a29 29 0 0 0 1.722.545q.132.039.266.07l.17.044c.444.12.9.234 1.355.335l.107.025c.057.013.108.026.165.038.133.032.272.057.411.083l.538.101q.691.123 1.393.228l.26.031q.589.076 1.19.133l.778.07.367.02.304.012c.202.012.398.025.607.031.285.013.576.013.861.02h.74c.31 0 .62-.013.994-.032h.203c.139-.013.284-.013.43-.026.373-.019.753-.05 1.133-.082l.202-.019c.102-.006.203-.013.361-.032l.665-.076.5-.063q.246-.027.493-.063c.266-.038.526-.083.792-.127l.506-.082c.145-.025.291-.044.437-.076q.493-.096.987-.203l.405-.082.36-.076a39 39 0 0 0 1.773-.449l3.88-1.063a45 45 0 0 0 2.038-.614 8 8 0 0 0 .405-.14l.253-.088q.685-.236 1.36-.48c.197-.07.387-.153.577-.229l.183-.076c.412-.165.83-.329 1.234-.506q.389-.171.785-.342.606-.274 1.203-.557l.133-.063.626-.304q.626-.313 1.24-.646l.229-.12c.151-.082.303-.158.449-.24.5-.273.987-.564 1.481-.855l.164-.095q.112-.067.235-.133a50 50 0 0 0 1.747-1.1l.398-.273 12.196 5.557c7.127 3.247 15.228-1.962 15.228-9.798v-45.151z"/><path fill="#fff" d="M89.563 18.744q-.285-.15-.57-.291c-.1-.05-.208-.095-.31-.146a37 37 0 0 0-1.025-.474c-.184-.083-.36-.159-.55-.24a25 25 0 0 0-1.197-.463c-.107-.038-.215-.089-.329-.126-.025-.007-.05-.02-.076-.026a32 32 0 0 0-1.709-.544c-.145-.044-.291-.076-.436-.114-.444-.12-.893-.234-1.342-.33-.095-.018-.184-.05-.272-.069-.197-.044-.393-.076-.59-.114-.113-.025-.233-.044-.347-.07a32 32 0 0 0-1.386-.22c-.089-.013-.177-.02-.266-.032a35 35 0 0 0-1.595-.171q-.18-.021-.36-.032c-.197-.013-.393-.019-.59-.032a25 25 0 0 0-.683-.031c-.304-.013-.614-.013-.924-.02-.221 0-.45-.006-.67 0-.324 0-.653.02-.982.026-.209.006-.424.013-.633.025-.373.02-.753.051-1.126.083l-.513.038h-.05c-.304.031-.615.076-.925.114-.246.031-.487.056-.734.088-.348.05-.696.114-1.044.171-.228.038-.456.07-.684.114q-.589.114-1.19.247c-.19.038-.373.076-.563.12q-.882.201-1.766.45l-3.88 1.063c-.683.19-1.36.392-2.037.614-.222.07-.437.152-.659.227-.455.159-.911.317-1.36.481-.254.095-.507.197-.766.298-.412.165-.823.33-1.234.506-.26.114-.526.228-.785.342q-.606.274-1.203.557-.38.178-.76.367-.624.313-1.24.646-.343.18-.677.36c-.5.273-.987.564-1.481.855q-.2.113-.399.234a58 58 0 0 0-1.753 1.108c-.032.019-.063.044-.095.063-.126.082-.247.17-.367.253-.468.317-.93.633-1.386.962q-.285.211-.57.412-.599.444-1.19.898c-.183.14-.367.285-.544.424q-.704.56-1.398 1.14a8 8 0 0 1-.266.215c-.02.012-.038.031-.057.044-.095.082-.184.17-.279.253-.557.481-1.114.975-1.652 1.481-.221.203-.43.412-.652.62q-.643.618-1.278 1.254c-.114.114-.228.221-.342.335-.133.133-.253.279-.386.411-.316.336-.633.671-.943 1.013l-.74.817c-.31.348-.608.702-.912 1.05-.152.177-.304.348-.45.526-.088.107-.176.221-.265.329q-.39.473-.76.955c-.24.31-.487.62-.727.93q-.37.487-.728.982c-.152.209-.31.411-.462.626-.083.114-.152.228-.234.342-.222.317-.437.64-.659.956q-.342.5-.677 1.012-.315.486-.62.981c-.14.216-.279.43-.412.652-.075.127-.145.26-.227.386q-.305.502-.589 1.013-.303.52-.595 1.05c-.19.343-.373.69-.557 1.032-.114.216-.24.43-.348.652-.07.133-.127.266-.196.399-.196.386-.38.772-.57 1.158-.164.342-.329.684-.487 1.032q-.264.589-.52 1.177c-.1.234-.214.468-.31.709-.044.101-.082.209-.126.316-.215.513-.411 1.032-.614 1.557-.107.279-.215.551-.316.83-.247.67-.475 1.348-.696 2.031-.038.114-.083.228-.12.348a.1.1 0 0 1-.013.045c-.02.05-.032.107-.051.158-.196.62-.373 1.24-.55 1.86-.051.184-.102.361-.146.545a47 47 0 0 0-.462 1.854c-.013.064-.032.127-.045.19q-.187.815-.348 1.64c-.019.1-.031.196-.05.297-.089.456-.158.911-.234 1.373-.057.336-.114.677-.165 1.013-.07.48-.12.962-.177 1.443-.038.316-.082.633-.108.95-.05.53-.088 1.069-.12 1.607-.019.266-.044.525-.057.791a74 74 0 0 0-.044 2.38v24.987c0 9.107 2.582 16.886 7.012 22.747a29.252 29.252 0 0 0 3.652 4.032 29.3 29.3 0 0 0 6.152 4.335l55.538 29.279c-10.202-5.38-16.81-16.538-16.816-31.114v-24.988c0-.798.02-1.601.057-2.399.013-.266.038-.525.057-.791.038-.538.07-1.07.12-1.608.032-.316.076-.632.108-.949.057-.481.108-.962.177-1.443.05-.335.108-.677.165-1.013.076-.455.152-.917.234-1.373q.18-.97.399-1.93c.012-.064.031-.127.044-.19.146-.62.297-1.24.462-1.855.05-.177.095-.36.146-.538.17-.62.354-1.247.55-1.86.02-.051.032-.108.05-.159.039-.126.09-.26.134-.386.221-.677.45-1.36.696-2.031.101-.279.209-.551.316-.83q.294-.778.614-1.556c.14-.342.291-.684.437-1.02q.255-.588.52-1.177c.157-.348.322-.69.486-1.031q.276-.579.57-1.159c.177-.354.36-.702.544-1.057q.274-.52.557-1.031.293-.531.595-1.05c.196-.336.393-.678.589-1.013.209-.349.424-.69.64-1.032.202-.33.41-.652.62-.981.22-.342.449-.677.677-1.013a53.079 53.079 0 0 1 1.354-1.918q.359-.495.728-.98c.24-.317.48-.62.728-.93.253-.317.506-.64.76-.957.233-.284.474-.57.714-.854.304-.354.602-.709.912-1.057q.362-.408.734-.816.466-.512.943-1.013.359-.378.728-.747a60 60 0 0 1 1.278-1.253q.32-.315.652-.62.816-.76 1.652-1.481c.114-.095.222-.203.336-.298.088-.076.177-.145.265-.215.462-.386.924-.766 1.4-1.14q.274-.216.55-.423a53 53 0 0 1 1.19-.9l.57-.417c.455-.329.923-.652 1.385-.962.12-.082.24-.17.367-.247a57 57 0 0 1 1.842-1.17q.201-.114.393-.228c.493-.291.987-.583 1.487-.855.221-.126.45-.24.677-.36a47 47 0 0 1 2-1.013q.6-.287 1.209-.563l.778-.342c.412-.177.823-.342 1.241-.507.253-.1.506-.202.76-.297.449-.171.905-.33 1.36-.481l.658-.228a47 47 0 0 1 2.038-.614l3.88-1.063a40 40 0 0 1 1.766-.443c.202-.044.398-.082.595-.127.386-.082.772-.17 1.152-.24.234-.045.468-.076.702-.114.342-.057.684-.12 1.025-.171.247-.038.494-.057.741-.089.323-.038.645-.082.968-.114.171-.019.336-.025.507-.038.38-.031.76-.063 1.132-.082.21-.013.418-.013.627-.025q.494-.021.987-.032h.671c.31 0 .621 0 .924.02.228.005.456.018.684.03.316.02.633.039.943.064l.418.038q.588.057 1.177.133c.09.013.177.019.266.032q.702.096 1.386.221c.114.02.234.044.348.07.291.057.576.12.867.183.45.102.9.215 1.342.33l.436.113q.864.246 1.71.538c.14.05.271.102.411.152q.599.218 1.19.462.275.115.55.24.522.229 1.026.475c.297.146.588.285.88.437z"/></g></g></svg>