<svg viewBox="0 0 55.886 41.826" xmlns="http://www.w3.org/2000/svg" xmlns:xlink="http://www.w3.org/1999/xlink"><defs><path id="prefix__a" d="M55.886 42V.174H0V42z"/></defs><g transform="translate(0 -.174)" fill="none" fill-rule="evenodd"><path d="M20.908 10.723c-2.205 0-3.725.748-4.561 2.264-.818 1.517-1.236 3.92-1.236 7.247 0 3.308.4 5.69 1.198 7.109.798 1.417 2.337 2.146 4.599 2.146s3.782-.709 4.58-2.107c.78-1.398 1.179-3.78 1.179-7.109 0-3.347-.4-5.77-1.217-7.285-.817-1.517-2.337-2.265-4.542-2.265" fill="#41cd52"/><mask id="prefix__b" fill="#fff"><use width="100%" height="100%" xlink:href="#prefix__a"/></mask><path d="M40.8 32.477c-2 0-3.371-.465-4.114-1.393-.743-.93-1.124-2.691-1.124-5.284v-8.362h-2.705V14.11h2.705V8.883h3.828v5.226h4.877v3.348H39.39v7.917c0 1.47.115 2.438.324 2.903.21.484.762.716 1.62.716l2.895-.116.17 3.136c-1.561.309-2.761.464-3.6.464zm-11.029 3.755l-3.638 1.722-3.143-5.245c-.457.135-1.162.213-2.152.213-3.677 0-6.248-1.006-7.696-3.02-1.447-2.012-2.171-5.206-2.171-9.541 0-4.355.743-7.587 2.21-9.697 1.466-2.11 4.018-3.174 7.657-3.174 3.638 0 6.19 1.045 7.638 3.155 1.466 2.09 2.19 5.322 2.19 9.697 0 2.883-.305 5.206-.895 6.967-.61 1.78-1.581 3.136-2.952 4.065zM50.514.174H7.752L0 8.05v33.948h48.133l7.752-7.877V.174z" fill="#41cd52" mask="url(#prefix__b)"/></g></svg>
