<svg xmlns="http://www.w3.org/2000/svg" fill="none" viewBox="0 0 79.008 100.5"><path fill="#212d2d" fill-rule="evenodd" d="M55.772 86.071a39.5 39.5 0 0 1-11.606 3.218C22.503 91.864 2.855 76.389.28 54.727-1.757 37.59 7.501 21.713 22.184 14.553a286 286 0 0 0-.18 3.47C9.309 24.962 1.447 39.128 3.259 54.373c2.38 20.018 20.536 34.316 40.553 31.936a36.5 36.5 0 0 0 11.84-3.5l.007.102q.11 1.717.113 3.159zm13.28-9.792c7.22-8.144 11.061-19.218 9.675-30.876-2.26-19.015-17.675-33.261-36.06-34.718a90 90 0 0 1 2.375 3.294c15.816 2.418 28.727 15.117 30.707 31.778 1.171 9.855-1.7 19.26-7.306 26.552q.349 2.022.61 3.97z" clip-rule="evenodd"/><path fill="#212d2d" fill-rule="evenodd" d="M56.828 64.694c-1.425-5.744-3.369-11.932-5.83-18.309-5.16-13.369-11.45-24.592-17.287-31.934-2.942-3.7-5.552-6.138-7.607-7.442-1.212-.77-1.9-.952-2.195-.992-.191.228-.579.826-.96 2.21-.432 1.569-.707 3.68-.75 6.319a39.3 39.3 0 0 0-5.934 3.57C15.804 8.6 17.578 1.97 21.728.368c8.623-3.328 24.233 16.307 34.867 43.857 2.644 6.848 4.73 13.54 6.242 19.782-1.26-.91-2.81-1.214-4.213-.675-.73.281-1.336.757-1.796 1.363zm1.763 8.326c.534 3.096.887 5.99 1.06 8.632.307 4.717.012 8.276-.634 10.623-.38 1.384-.768 1.981-.96 2.21-.294-.041-.983-.223-2.195-.992-1.638-1.04-3.628-2.8-5.858-5.344a40 40 0 0 1-6.759 1.238c6.423 8.197 12.61 12.438 16.992 10.746 5.54-2.138 6.847-13.234 4.254-28.2a4.12 4.12 0 0 1-1.952 1.583c-1.307.502-2.74.274-3.949-.496zm-.655 21.587.002-.001zm.283-.112.011-.002zM24.03 5.894l-.01.007zm-.283.112-.012.002z" clip-rule="evenodd"/><path stroke="#212d2d" stroke-width="5" d="M35.432 51.487s13.481 5.915 23.829 14.057a1.02 1.02 0 0 0 1.606-.496c3.441-11.335 7.565-23.561 7.565-23.561"/><g fill="#212d2d"><circle cx="12.5" cy="46.987" r="3.5"/><circle cx="16" cy="35.487" r="3"/><circle cx="21" cy="27.487" r="2"/></g></svg>