<svg xmlns="http://www.w3.org/2000/svg" xmlns:xlink="http://www.w3.org/1999/xlink" data-name="Layer 1" viewBox="0 0 459.23 223.38"><defs><linearGradient id="n" x1="4197.7" x2="4512.5" y1="124.27" y2="124.27" gradientTransform="translate(-4126.5 -73.12)" gradientUnits="userSpaceOnUse"><stop offset="0" stop-color="#f48120"/><stop offset="1" stop-color="#ffcc32"/></linearGradient><linearGradient id="m" x1="-552" x2="-231.66" y1="199.14" y2="199.14" gradientTransform="matrix(-1 0 0 1 -161.07 -73.12)" gradientUnits="userSpaceOnUse"><stop offset="0" stop-color="#ffcc32"/><stop offset="1" stop-color="#f48120"/></linearGradient><linearGradient id="a" x1="-3038.1" x2="-3000.4" y1="2486.2" y2="2486.2" gradientTransform="rotate(153.05 -437.9 1903.4)" gradientUnits="userSpaceOnUse"><stop offset="0" stop-color="#76c4e2"/><stop offset=".17" stop-color="#85cba8"/></linearGradient><linearGradient xlink:href="#a" id="j" x1="3051.9" x2="3089.6" y1="3317.6" y2="3317.6" gradientTransform="rotate(-88.39 -54.785 3259.8)"/><linearGradient xlink:href="#a" id="i" x1="1834.7" x2="1872.4" y1="1037.2" y2="1037.2" gradientTransform="rotate(174.9 996.93 528.13)"/><linearGradient xlink:href="#a" id="h" x1="970.49" x2="1046.3" y1="5629.3" y2="5629.3" gradientTransform="matrix(-.78 -1.2 .67 -.43 -2625.7 3770.8)"/><linearGradient xlink:href="#a" id="g" x1="-1218.8" x2="-1195.6" y1="4679" y2="4679" gradientTransform="matrix(-1.43 -.05 .03 -.79 -1614.8 3767.3)"/><linearGradient xlink:href="#a" id="f" x1="696.71" x2="740.46" y1="3496.3" y2="3496.3" gradientTransform="matrix(-.96 -1.06 1.11 -1.01 -3042.3 4422.8)"/><linearGradient id="b" x1="-381.86" x2="-310.73" y1="-813.78" y2="-813.78" gradientTransform="scale(-1 1)rotate(-29.4 842.256 1865.023)" gradientUnits="userSpaceOnUse"><stop offset=".46" stop-color="#85cba8"/><stop offset="1" stop-color="#ffdb6f"/></linearGradient><linearGradient xlink:href="#b" id="e" x1="-351.56" x2="-307.87" y1="104.87" y2="104.87" gradientTransform="matrix(-1 0 0 1 -161.07 -73.12)"/><linearGradient id="l" x1="2312.2" x2="2401.8" y1="891.63" y2="891.63" gradientTransform="matrix(.54 1.61 -1.41 .47 143.16 -4144.8)" gradientUnits="userSpaceOnUse"><stop offset="0" stop-color="#85cba8"/><stop offset=".54" stop-color="#76c4e2"/></linearGradient><linearGradient xlink:href="#b" id="k" x1="-428.03" x2="-333.03" y1="-475.26" y2="-475.26" gradientTransform="scale(-1 1)rotate(-19.9 1227.69 -833.47)"/><linearGradient xlink:href="#a" id="d" x1="-3038.1" x2="-3000.4" y1="2486.2" y2="2486.2" gradientTransform="rotate(153.05 -1092 1708)" gradientUnits="userSpaceOnUse"/><linearGradient xlink:href="#b" id="c" x1="-381.86" x2="-310.73" y1="-813.78" y2="-813.78" gradientTransform="scale(-1 1)rotate(-29.4 1365.745 -698.172)" gradientUnits="userSpaceOnUse"/><style>.cls-7{fill:#f16975}.cls-15{fill:#f58220}</style></defs><path fill="#edf2f8" stroke="#bfcce2" stroke-miterlimit="10" stroke-width="3" d="M1.5 164.2c0-31.85 102.13-57.68 228.12-57.68s228.11 25.83 228.11 57.68-102.13 57.68-228.11 57.68S1.5 196.06 1.5 164.2z"/><path fill="#d9e4f4" d="M50.16 158.75c0-23.15 80.34-41.92 179.46-41.92s179.46 18.77 179.46 41.92-80.35 41.92-179.46 41.92-179.46-18.79-179.46-41.92"/><path fill="url(#n)" d="M137.9 14.26c-25.85 16.48-65.06 34.26-65.21 63.88a3.22 3.22 0 0 0 0 5.4c.21 2.54 1.55 4.51 3.18 4.51h306.84c1.78 0 3.23-3.4 3.23-6.27.03-1.51-248.04-67.52-248.04-67.52"/><path fill="url(#m)" d="M384.18 170.88H75.06c-4.13-.05-4.13-3.05-4.13-7.05l-.35-82.61h313.6c3.75.65 6.75 1.25 6.75 9.65l-.28 64.81c0 8.36-2.9 15.2-6.47 15.2"/><path fill="#ffdb6f" d="M390.31 164.2H82.7c-3.5 0-4.77-.4-4.34-4.91V88.05h311c3.5 0 2.33 5.78 2.33 12.91v50.33c-.04 7.13 2.13 12.91-1.38 12.91"/><path d="m210.93 115.97 4.81-3.72a7.36 7.36 0 0 0 1.53-10.05 7.37 7.37 0 0 0-10.54-1.6l-4.81 3.72a7.36 7.36 0 0 0-1.52 10.05 7.37 7.37 0 0 0 10.53 1.6" class="cls-7"/><path fill="url(#d)" d="M275.45 144.18a5.5 5.5 0 0 0 .38.67l.17-.08c4.63-2.35 13-10.74 12-15.6a8.3 8.3 0 0 0-2.93.85c-4.03 2.02-11.65 10.17-9.62 14.16"/><path d="m254.31 157.05 2.57-2a3.93 3.93 0 0 0 .82-5.37 3.94 3.94 0 0 0-5.63-.85l-2.57 2a3.93 3.93 0 0 0-.81 5.37 3.93 3.93 0 0 0 5.62.85m-131.13 3.4 4.08-3.15a6.23 6.23 0 0 0 1.29-8.51 6.24 6.24 0 0 0-8.92-1.35l-4.08 3.15a6.23 6.23 0 0 0-1.29 8.51 6.24 6.24 0 0 0 8.92 1.35" class="cls-7"/><path fill="#e04e64" d="m376.77 99.95-2.6-2.49a4.38 4.38 0 0 0-6 0 4.37 4.37 0 0 0 0 6.3l2.61 2.49a4.36 4.36 0 0 0 6 0 4.37 4.37 0 0 0-.01-6.3"/><path fill="url(#j)" d="M87.12 137.4a7 7 0 0 0-.78 0 1 1 0 0 1 0 .18c-.14 5.19 3.25 16.52 8 17.95a8.1 8.1 0 0 0 .66-3c.11-4.42-3.41-15-7.88-15.13"/><path fill="url(#i)" d="M99.01 101.04c0 .26.07.51.11.76h.19c5.17-.46 16-5.15 16.9-10a8.2 8.2 0 0 0-3-.31c-4.49.39-14.59 5.09-14.2 9.55"/><path fill="url(#h)" d="M335.11 121.6a8 8 0 0 0-1 .77l.29.45c8.15 12.53 30.76 36.37 39.21 35.34a39.3 39.3 0 0 0-3.93-7.72c-7-10.79-28.58-32.74-34.57-28.84"/><path fill="url(#g)" d="M252.18 114.44a1.6 1.6 0 0 0 0 .38h.16c4.58.17 14.55-1.28 15.79-3.58a12.7 12.7 0 0 0-2.63-.38c-3.92-.14-13.19 1.39-13.32 3.58"/><path fill="url(#f)" d="M159.87 134.45c-.34.31-.65.63-1 1 .07.08.13.16.2.23 5.8 6.4 23.13 15.87 30.77 11.87a12.9 12.9 0 0 0-2.59-4.36c-4.94-5.54-21.59-13.98-27.38-8.74"/><ellipse cx="64.97" cy="77.2" class="cls-15" rx="10.9" ry="10.89"/><ellipse cx="70.58" cy="61.05" class="cls-15" rx="10.9" ry="10.89"/><ellipse cx="82.79" cy="47.94" class="cls-15" rx="10.9" ry="10.89"/><ellipse cx="95" cy="36.05" class="cls-15" rx="10.9" ry="10.89"/><ellipse cx="107.64" cy="27.02" class="cls-15" rx="10.9" ry="10.89"/><ellipse cx="120.93" cy="18.49" class="cls-15" rx="10.9" ry="10.89"/><ellipse cx="134.76" cy="10.89" class="cls-15" rx="10.9" ry="10.89"/><path fill="none" stroke="url(#c)" stroke-linecap="round" stroke-linejoin="round" stroke-width="3" d="M217.06 51.09c-2.68 1.17-19.12 8-37.48 0s-24.43-24.42-25.43-27.2"/><path fill="url(#e)" d="M187.31 55.64a30 30 0 0 0 3.21-.68c0-.3-.07-.6-.12-.9-3.84-24.83-21.82-43.44-42.84-46.56a43.8 43.8 0 0 0-.2 14.69c3.27 21.38 21.16 36.36 39.95 33.45"/><path fill="url(#l)" d="M172.01 67a44 44 0 0 0 4.12-1.65c-.13-.39-.23-.77-.36-1.16-10.76-32.18-38.92-52.87-67.6-52.26a59.2 59.2 0 0 0 3.06 19.59c9.26 27.71 36.47 43.59 60.78 35.48"/><path fill="none" stroke="url(#k)" stroke-linecap="round" stroke-linejoin="round" stroke-width="3" d="M210.63 54.18c-3.31 2.17-23.63 15-49.88 8.52-26.06-6.42-38.08-27-40-30.43"/></svg>