<svg xmlns="http://www.w3.org/2000/svg" viewBox="0 0 228.19 190.64"><path fill="#284058" d="M219.262 57.967 123.006 2.394a17.84 17.84 0 0 0-17.837 0l-63.825 36.85.024.014-.643.371a24.5 24.5 0 0 1 5.238 2.268l2.579 1.505.005-.001 18.205 10.505L58.9 58.44l-16.896-9.754-.002.003c-5.533-3.228-12.59-2.939-17.932.757a24.4 24.4 0 0 1 5.011 2.198l3.942 2.3 16.832 9.719-7.845 4.53-17.11-9.875c-6.127-3.448-14.033-2.644-19.44 2.26A17.83 17.83 0 0 0-.003 73.416v43.787c0 6.37 3.4 12.258 8.918 15.446l96.256 55.572c5.519 3.186 12.317 3.186 17.43.235l63.89-36.886h-.002l.65-.376a24.5 24.5 0 0 1-5.236-2.267l-2.58-1.505-.015.003-97.27-56.133 7.86-4.537 95.946 55.393.02-.01c5.536 3.23 12.595 2.937 17.942-.765a24.3 24.3 0 0 1-4.876-2.114l-1.027-.593-1.697-.991-.014.003-97.249-56.144 7.837-4.526 96.007 55.406c5.84 3.383 13.357 2.853 18.775-1.447.45-.375.908-.742 1.316-1.148 3.414-3.39 5.303-7.87 5.303-12.615V73.414c0-6.371-3.4-12.26-8.917-15.446"/><path fill="#5dcae9" d="M114.091 127.124 59.29 95.488 114.09 63.85l54.801 31.637-7.514 4.338 24.743 14.286 8.65-4.994v-27.26l-80.678-46.576L33.41 81.858v27.26l80.682 46.576 32.256-18.622-24.745-14.285z"/></svg>