<svg xmlns="http://www.w3.org/2000/svg" viewBox="0 0 200 200"><path d="M163.79 51.886q2.531 0 5.062.016l2.686.004q4.264.01 8.53.031l5.767.014q7.084.016 14.17.049v12h-4v16h-4v4h-4v4h-4l1 3c-1 1-1 1-2.848 1.097L176.005 92l1 3-5 1 1 3-5 1 1 3-5 1 1 3-1 1h-8v36h20l1 3 3 1v36l-3 1-1 3h-4v8h-4v4c-2.702-.366-4.584-.7-6.813-2.313-1.187-1.687-1.187-1.687-1.187-5.687h-4v-4h4v-4h4v-4h4l-.254-3.868-.309-5.007-.17-2.551-.146-2.442-.143-2.253c.022-1.88.022-1.88 1.022-3.88h-4v4h-12v4h-4l1 3c-.121 2.262-.121 2.262-.438 4.688l-.308 2.45-.254 1.863-5-1 1-3-5-1 1-3-5-1 1-3-5-1 1-3-5-1 1-3-5-1 1-3-5-1 1-3h-4v-4h-4v-4h-4v-4h-4v-4h-4v-4h-4v-8h4v-8h4v-4h-8v4h-16v-4h-4v-4h-4v-4h-4v-8h4v-4h4v-4h8v-4h28v-4h4v-4h4v-4h4v-4h4v-4h4v-4h16l-1-3c1-1 1-1 3.722-1.098l3.34.035 3.348.027 2.59.036-1-3c1-1 1-1 4.785-1.114M132.005 68v3l-4 1v8l4 2v2h8v-4h4v-8h-4v-4z"/><path d="M92 0h24v4h4v36h4v4h4v8h4v8h-4v4h-4v4h-4v4h-4v4h-4v4h-12v-4h-4v-4h-8v-4h-4v-4h-4v-4H56v-4h-4V36h4v-4h4v-4h4v-4h4v-4h4v-4h4v-4h4V8h4V4h8zM64 108h8v4h4v4h4v4h4v4l5 1-1 3 5 1-1 3h4v4h4v4h4v4h4v4h4v4h4v4h4l1 3 3 1 1 3 3 1 1 3c3.009 1.225 3.009 1.225 6 2l-1 3h2l1 3 3 1 1 3 3 1 1 3 3 1v4l5 1-1 3h4v4h4v4h-8v-4h-4v-4h-4v-4h-4v-4h-4v-4h-4v-4h-4v-4h-4v-4h-4v-4h-4v-4h-4v-4h-4v-4h-4v-4h-4v-4h-4v-4h-4v-4h-4v-4h-4v-4h-4v-4h-4v-4h-4v-4h-8l1 3-5 1 1 3-5 1 1 3-5 1 1 3-5 1 1 3-5 1 1 3-5 1 1 3-5 1 1 3-5 1 1 3-5 1 1 3-5 1 1 3-5 1 1 3-5 1 1 3-5 1 1 3-5 1 .563 2.875C9 178 9 178 8 180h4v4l5 1-1 3 5 1-1 3 5 1-1 3h4v4h-8v-4h-4v-4h-4v-4H8v-4H4v-4H0v-8h4v-4h4v-4h4v-4h4v-4h4v-4h4v-4h4v-4h4v-4h4v-4h4v-4h4v-4h4v-4h4v-4h4v-4h4v-4h4z"/><path d="m68 128 5 1-1 3h4v16H60l-1-3-3-1v-4h12zM68 156h4v4l5 1-1 3h4v8h-4v-4h-4v-4h-4zM137 173l2 1-2 1zM129 165l2 1-2 1z"/></svg>