<svg xmlns="http://www.w3.org/2000/svg" viewBox="0 0 126.38 126.47"><path fill="#3c8ae9" d="M61.438.099c-1.303.145-3.55.666-4.332 1.004-2.044.884-2.472 1.092-3.144 1.529-7.177 4.66-9.961 13.497-6.746 21.409.465 1.144.582 1.352 1.707 3.057.986 1.494 3.928 4.463 4.424 4.463.054 0 .429.223.832.496 4.639 3.13 12.64 3.283 17.395.332.457-.284 22.892 21.99 22.486 22.327-.218.18-.803 1.49-1.437 3.22l-.352.959h-6.238c-5.795 0-6.238-.021-6.238-.288 0-.977-1.759-4.418-3.151-6.165-4.027-5.051-11.482-7.68-17.226-6.075-.711.198-1.405.36-1.542.36-.745 0-4.681 2.22-5.914 3.337-.321.29-.792.706-1.046.923-.855.728-2.606 3.23-3.29 4.7a54 54 0 0 1-.837 1.747 1.5 1.5 0 0 0-.16.61c0 .889.287.85-6.415.85h-6.212l-.198-.541a54 54 0 0 0-.531-1.375c-.183-.458-.358-.946-.389-1.083-.087-.39-1.399-2.503-2.064-3.324-2.725-3.366-5.769-5.225-10.441-6.377-3.309-.816-10.96.695-12.419 2.453-.113.136-.278.248-.367.248-.392 0-4.298 3.657-4.298 4.024 0 .086-.131.297-.291.469C.211 56.386-.932 64.685.863 68.937c.844 1.999 1.072 2.472 1.583 3.29.314.505.634.943.711.973s.138.154.138.274c0 .246 2.689 3.043 3.334 3.468.229.15.716.486 1.083.744 6.843 4.81 18.162 3.018 23.001-3.643.093-.128.412-.542.709-.922s.54-.747.54-.815c0-.07.224-.49.498-.935.275-.445.461-.81.414-.81-.046 0 .104-.372.335-.827.231-.456.42-.94.42-1.076s.087-.44.193-.672l.194-.425h12.44l.101.459c1.063 4.828 6.623 10.565 11.322 11.682a90 90 0 0 1 1.75.446c7.975 2.118 18.533-4.211 20.101-12.05l.107-.537h12.434l.352.959c.642 1.75 1.22 3.04 1.447 3.228.178.148-2.094 2.503-10.941 11.344L71.964 94.25l-.793-.404c-1.29-.658-1.561-.77-2.959-1.21-5.239-1.651-12.178-.296-16.032 3.13-1.412 1.257-2.907 2.909-3.508 3.879-4.539 7.323-3.445 16.326 2.69 22.138.992.939 3.39 2.578 4.35 2.972 1.875.77 2.482 1.005 2.729 1.053l1.556.32c10.388 2.155 20.37-6.164 20.38-16.983.002-3.118-.379-4.767-1.788-7.728l-.505-1.061L89.191 89.25l11.107-11.105.873.447c1.444.739 3.341 1.372 5.068 1.69 1.606.298 5.042.226 6.39-.133.595-.16 1.37-.358 1.72-.442 1.198-.288 4.129-1.822 5.32-2.786 9.711-7.857 8.716-22.425-1.957-28.665-3.504-2.048-8.663-2.872-12.167-1.942-.55.146-1.262.327-1.583.403-.614.144-1.774.627-2.958 1.232l-.709.362L89.19 37.206 78.085 26.1l.289-.561c3.009-5.83 2.687-12.491-.861-17.825a73 73 0 0 1-.634-.965c-1.398-2.203-6.344-5.524-9.084-6.1C64.699 0 63.371-.115 61.438.1m4.095 8.912c6.101 1.712 8.316 9.52 3.993 14.078-6.028 6.355-16.205 1.325-14.858-7.345.559-3.597 3.168-6.047 7.544-7.084.546-.13 2.249.05 3.321.35M19.908 55.04c2.314.806 4.061 2.37 5.152 4.615l.644 1.323v4.5l-.648 1.332c-3.748 7.71-14.726 6.286-16.362-2.124-1.223-6.284 5.142-11.76 11.214-9.646m45.054-.3c7.468 1.695 9.27 11.549 2.87 15.694-7.325 4.746-16.184-3.082-12.434-10.986.56-1.18 2.473-3.387 2.935-3.387.102 0 .312-.113.465-.252 1.043-.944 4.259-1.502 6.164-1.07m46.441.172c4.417 1.35 7.025 5.54 6.148 9.877-.306 1.514-.863 2.879-1.336 3.27-.139.117-.253.307-.253.425 0 .307-1.541 1.65-2.554 2.224-7.406 4.199-15.743-3.631-12.051-11.318.752-1.565 3.286-3.994 4.167-3.994a.6.6 0 0 0 .363-.153c.713-.687 3.754-.87 5.516-.331m-44.774 46.358c8.432 4.162 5.806 16.556-3.5 16.523-2.572-.01-7.167-2.461-7.167-3.824 0-.11-.106-.287-.236-.395-1.065-.884-1.517-5.232-.754-7.262 1.796-4.781 7.334-7.176 11.657-5.042"/></svg>