<svg xmlns="http://www.w3.org/2000/svg" fill="none" viewBox="0 0 231.9 211.37"><path fill="#060010" d="M63.312 2.363C72.443-2.292 82.599.58 91.095 5.366l.817.469 7.7 4.503-9.006 15.398-7.7-4.503-.648-.372c-6.597-3.709-9.771-3.153-10.846-2.605l-.007.003c-.912.464-2.765 2.097-3.857 7.59-1.068 5.366-1.06 12.963.38 22.515.743 4.933 1.849 10.252 3.304 15.873a283 283 0 0 1 18.048-2.068c10.416-16.834 21.554-31.155 32.288-41.728 7.663-7.549 15.488-13.552 23.042-17.038 7.32-3.379 15.836-5.001 23.607-1.235l.37.184.018.009c5.663 2.895 9.25 7.911 11.363 13.407 2.087 5.428 2.941 11.79 2.974 18.514l.044 8.919-17.839.087-.043-8.92-.014-1.003c-.104-4.937-.789-8.636-1.772-11.195-1.02-2.652-2.138-3.568-2.826-3.922-.92-.463-3.336-.989-8.408 1.352-4.973 2.294-11.115 6.77-17.999 13.55-7.37 7.26-15.17 16.747-22.848 27.968q2.347-.035 4.714-.036c30.245 0 58 4.074 78.501 10.907 10.204 3.401 19.106 7.648 25.64 12.796 6.433 5.07 11.811 12.063 11.811 20.894 0 7.61-4.032 13.886-9.183 18.647s-12.147 8.736-20.118 12.027l-8.244 3.403-6.807-16.488 8.244-3.404c6.894-2.846 11.79-5.84 14.816-8.637 3.025-2.797 3.454-4.667 3.454-5.548 0-1.023-.615-3.415-5.014-6.882-4.3-3.388-11.074-6.83-20.239-9.885-18.238-6.078-44-9.99-72.86-9.99-5.508 0-10.902.142-16.153.415a312 312 0 0 0-7.7 14.196 313 313 0 0 0-5.858 12.126 311 311 0 0 0 4.654 9.746l1.215 2.408v.002l1.235 2.4c12.813 24.641 27.475 44.926 40.742 57.994 6.882 6.78 13.024 11.252 17.995 13.544 5.078 2.342 7.493 1.81 8.41 1.344l.161-.088c.845-.5 2.268-1.897 3.32-5.868 1.117-4.22 1.487-10.285.742-18.117-1.484-15.59-7.188-36.2-16.935-58.57l-3.562-8.178 16.354-7.125 3.563 8.177c10.233 23.486 16.623 45.976 18.34 64.007.853 8.98.6 17.358-1.258 24.372-1.853 6.998-5.634 13.72-12.62 17.282l-.006.002c-7.868 4.006-16.54 2.391-23.979-1.039-7.554-3.484-15.38-9.486-23.043-17.034-15.03-14.804-30.85-36.963-44.367-63.087-4.612 12.894-7.73 24.862-9.279 35.154-1.438 9.554-1.445 17.152-.377 22.521 1.025 5.15 2.718 6.908 3.678 7.49l.181.102.01.004.14.066c1.558.672 6.172.876 15.263-5.57l7.275-5.159 10.318 14.552-7.276 5.16-.951.663c-9.907 6.802-22.094 11.676-32.872 6.18v.001c-7.87-4.007-11.663-11.973-13.262-20.008-1.624-8.159-1.368-18.019.232-28.656 2.406-15.985 8.031-34.884 16.461-54.672a288 288 0 0 1-8.018-21.007c-5.666 1.255-10.903 2.683-15.634 4.26-9.166 3.055-15.94 6.497-20.24 9.885-4.398 3.467-5.012 5.859-5.013 6.882 0 1.54 1.621 5.648 10.982 10.747l.93.497 7.904 4.134-8.267 15.806-7.904-4.133-1.026-.547C9.876 126.44 0 117.778 0 105.679c0-8.831 5.377-15.824 11.81-20.894 6.535-5.149 15.437-9.395 25.64-12.796 4.995-1.665 10.42-3.165 16.207-4.483-1.454-5.757-2.584-11.276-3.368-16.484-1.603-10.635-1.86-20.495-.237-28.653 1.598-8.033 5.39-15.999 13.26-20.006zm13.967 70.085a9.557 9.557 0 1 0 0 19.114 9.557 9.557 0 0 0 0-19.114"/></svg>