<svg xmlns="http://www.w3.org/2000/svg" preserveAspectRatio="xMidYMid" viewBox="0 0 255.94 246.3"><defs><radialGradient id="a" cx="151.77" cy="81.944" r="163.15" gradientTransform="matrix(1.1823 0 0 .84578 .006 -.147)" gradientUnits="userSpaceOnUse"><stop offset="0" stop-color="#F80090"/><stop offset="1" stop-color="#4D008E"/></radialGradient><radialGradient id="b" cx="157.55" cy="84.429" r="170.05" gradientTransform="matrix(1.1498 0 0 .86975 .006 -.147)" gradientUnits="userSpaceOnUse"><stop offset="0" stop-color="#57008E"/><stop offset=".292" stop-color="#5C008E"/><stop offset="1" stop-color="#F80090"/></radialGradient><linearGradient id="c" x1="96.622" x2="138.86" y1="194.16" y2="250.78" gradientTransform="matrix(1.1201 0 0 .89276 .006 -.147)" gradientUnits="userSpaceOnUse"><stop offset="0" stop-color="#F70090"/><stop offset=".67" stop-color="#E50090"/><stop offset=".827" stop-color="#D6008F" stop-opacity=".2"/><stop offset="1" stop-color="#C10090" stop-opacity="0"/></linearGradient><linearGradient id="d" x1="77.851" x2="69.587" y1="69.943" y2="61.301" gradientTransform="matrix(1.3533 0 0 .73893 .006 -.147)" gradientUnits="userSpaceOnUse"><stop offset="0" stop-color="#B2008F" stop-opacity=".151"/><stop offset=".4" stop-color="#F70090" stop-opacity=".4"/><stop offset=".649" stop-color="#F60090" stop-opacity=".892"/><stop offset="1" stop-color="#FF0090"/></linearGradient></defs><path fill="#ff0090" d="M16.691 156.97C3.573 87.225 38.242 19.96 117.811 11.01 106.837-.715 91.846-.803 84.95.624c-12.179 3.88-11.797 11.761-25.611 21.94-13.733 7.843-20.63 1.837-30.633 9.968-9.983 8.07-3.017 26.597-7.204 30.2-4.156 7.203-17.047 13.62-19.394 22.718-1.94 11.636 5.264 19.948 4.987 29.922.832 8.311-8.274 13.011-6.966 19.748 3.919 11.005 11.472 17.629 15.033 20.682.816.576 1.678 1.993 1.523 1.167z"/><path fill="url(#a)" d="M158.28 60.431a5.265 5.265 0 1 1 .001-10.53 5.265 5.265 0 0 1 0 10.53zM19.76 164.581c-12.607-60.616 26.403-111.26 101.95-86.33 44.327 25.932 100.09 24.243 102.6 7.48 6.207-20.095-28.26-61.506-79.792-72.311-102.23-19.949-157.35 90.545-124.76 151.16z"/><path fill="url(#b)" d="M187.46 171.34c15.18 1.645 29.59-1.998 42.943-12.883-20.174 22.503-45.4 33.817-74.343 36.895 13.82 11.749 27.147 17.041 39.896 14.776-35.426 9.776-65.107-.984-101.21-36.94-1.89 9.679 8.333 24.76 18.87 34.386-61.138-26.505-66.498-109.07 8.053-129.38-77.28-37.13-120.98 35.014-99.51 94.142 21.007 45.54 76.985 80.6 138.34 72.89 29.8-3.65 74.302-24.197 92.482-72.89-12.813 11.498-35.716 21.512-45.936 22.28 34.59-17.287 53.264-46.662 48.022-86.81-7.165 17.058-16.619 30.159-28.444 39.156 25.12-39.157 20.81-59.396 2.217-81.639 13.298 36.572-3.905 77.161-41.374 106.02z"/><path fill="url(#c)" d="M169.71 213.47c-2.625-.49 5.95 3.473-10.628-.916-16.577-4.388-33.456-8.617-64.337-39.37-1.89 9.68 8.333 24.76 18.87 34.387 28.444 19.838 9.1 10.56 52.44 25.542 3.478-6.922 3.655-13.074 3.655-19.643"/><path fill="url(#d)" d="M114.61 57.703s3.768-5.562 5.235-8.07c1.798-3.074 4.558-8.676 4.558-8.676s-29.004-9.463-36.122-10.618c-22.127 5.744-22.207 15.014-9.837 29.203 1.376 1.58 36.166-1.839 36.166-1.839"/></svg>