<svg xmlns="http://www.w3.org/2000/svg" fill="none" viewBox="0 0 69 40"><g fill="#c1c6e5"><path d="M44.086 30.956c-1.12-.766-6.47-3.594-8-4.499-1.28-.756-1.566-1.485-2.083-2.82a9 9 0 0 1-.226-.672 22 22 0 0 0-1.967-.266c-.484 1.477-1.142 2.183-1.73 2.799.428.42.832.882 1.271 1.29.913.85 1.353 1.511 2.564 1.934 1.357.475 5.667 2.548 6.93 3.196.281.145.777.33 1.045.364.56.07.461.355.543.968.074.557.528 1.023 1.064 1.666l3.348-1.434c-.929-1.108-1.532-1.685-2.759-2.524zM54.995 25.067h-.55q-.367.004-.709.004.275.273.567.584c.454.483-1.003 2.13-1.813 2.832-.352.307-.051.638-.796.774-.5.09-1.196.168-1.65.355l-.124 3.506c.97-.258 2.194-.516 2.948-1.24 2.03-1.955 3.354-3.038 4.508-5.394.178-.362.272-.789.287-1.25-.74-.13-2.058-.17-2.668-.17z"/><path d="M67.137 28.313c-.589-.666-4.053-3.696-5.403-4.721-2.39-1.816-5.48-2.74-8.411-3.6 1.026-1.953 1.382-4.183 1.918-6.439.197-.825.43-1.656.871-2.381.442-.725 1.202-1.331 1.964-1.557 2.593-.767 1.574.24 5.743.66.512.05.816.608 1.33.649 1.254.102 1.658-1.202 1.766-2.216.063-.596-.746-.837-1.13-1.296-1.094-1.3-2.191-2.04-3.164-3.373-1.33-1.826-3.33-2.07-5.472-2.819C56.566.595 55.76.102 54.912.001a.156.156 0 0 0-.17.195c.075.28.196.547.357.787-.49-.005-.982.043-1.416.258-.99.492-1.882 1.568-2.943 1.871.21.105.586.108.717.12-.676.735-1.732.934-2.684 1.23-1.459.455-1.92.802-3.058 1.825 1.288-.188 1.931-.136 2.315-.148a5.4 5.4 0 0 1-2.133 1.415c.435.355 1.046.588 1.63.676 0 0-1.282 1.051-1.76 1.32-1.211.677-2.729.727-4.124.793-4.287.205-8.548-.719-12.84-.828-2.993-.075-5.778.775-7.657 3.058-4.871-1.558-11.214.202-14.928 3.942-.713.72-1.358 1.513-2.057 2.247A18.4 18.4 0 0 1 0 22.042c.896.84 4.08.107 5.222-.288q.417-.145.817-.323c-.332.45-.713.864-1.14 1.223a12.7 12.7 0 0 0 4.106-2.066c2.393-1.792 3.168-3.81 5.307-4.848 2.181-1.06 3.952-1.55 5.84-1.49-.524 1.335-.6 2.857-.283 4.268.401 1.786.868 3.087 2.011 4.401.445.57 1.156 1.33 1.316 1.972.2.802-.146 1.324-.953 2.67-.429.718-1.362 2.013-1.226 2.873.111.705 2.63 4.547 3.787 6.171.205.287.41.292.527.41.217.216.536.334.317 1.356-.114.533.187 1.189.438 1.63H29.6c.03-1.152-1.177-2.547-1.816-3.489-.828-1.221-3.431-5.964-3.384-6.504.052-.606.72-1.111 1.162-1.506 1.31-1.172 2.945-2.047 4.192-3.31l.006.006c.596-.625 1.209-1.282 1.666-2.743a.3.3 0 0 1 .313-.203c.39.03 1.037.091 2.13.281.402.07.925.179 1.495.31q1.772.387 3.504.916c2.287.7 4.686 1.165 7.066.929a11 11 0 0 0 2.332-.49c1.706.256 3.18.37 4.457.425.551.01 1.105.009 1.72.006 0 0 2.298-.031 3.338.181.424.087.798.165 1.108.326 1.693.878 3.627 2.803 4.662 3.63.375.299.53.27.718.359.863.405.482.862.58 1.393a5.2 5.2 0 0 0 .647 1.705l3.504-.91c-.241-1.179-1.305-2.366-1.863-2.999z"/></g></svg>