<svg xmlns="http://www.w3.org/2000/svg" fill="#61dafb" stroke="#61dafb" viewBox="0 0 513 349.61"><path d="M502.3.5H10.7C5.067.5.501 5.066.501 10.699v286.19c0 5.633 4.566 10.199 10.199 10.199h193.34l-21.624 21.624h-29.432c-5.633 0-10.199 4.566-10.199 10.199s4.566 10.199 10.199 10.199h207.04c5.633 0 10.199-4.566 10.199-10.199s-4.566-10.199-10.199-10.199h-29.432l-21.624-21.624h193.34c5.633 0 10.199-4.566 10.199-10.199V10.699C512.507 5.066 507.941.5 502.308.5zM211.26 328.71l21.624-21.624h47.235l21.623 21.624zm280.84-42.021H20.9V20.899h471.2z"/><circle cx="255.5" cy="153.8" r="20.5"/><g fill="none" stroke-width="10" transform="translate(.5 -81.196)"><ellipse rx="110" ry="42" transform="translate(255 235)"/><ellipse rx="110" ry="42" transform="rotate(60 -76.016 338.34)"/><ellipse rx="110" ry="42" transform="rotate(120 59.661 191.11)"/></g></svg>