<svg fill="none" version="1.1" viewBox="0 0 601.83 693.89" xmlns="http://www.w3.org/2000/svg"><g stroke-linejoin="bevel" stroke-width="4.0784"><rect transform="matrix(.86603 .5 0 1 0 0)" x="2.0392" y="172.71" width="345.42" height="345.42" fill="#ff4438" stroke="#091a23"/><rect transform="matrix(.86603 -.5 0 1 0 0)" x="347.29" y="520.08" width="345.42" height="345.42" fill="#6b2b2b" stroke="#091a23"/><rect transform="matrix(.86603 .5 -.86603 .5 0 0)" x="174.76" y="-172.72" width="345.42" height="345.42" fill="#ff4438" stroke="#ff4438"/></g><g clip-rule="evenodd" fill="#fff" fill-rule="evenodd"><path d="m409.73 219.32-75.52-43.601 75.517-43.6 75.52 43.601z"/><path d="m300 288.21-85.266-49.228 122.74-21.557-37.338 70.865-0.093-0.054z"/><path d="m218.7 199.14c-20.902 12.068-54.784 12.067-75.687-1e-3 -20.902-12.068-20.903-31.63-1e-3 -43.698s54.784-12.067 75.687 1e-3 20.904 31.63 1e-3 43.698z"/></g><path d="m347.16 86.461c1.665 8.5145 3.98 18.007-10.147 26.163-12.619 7.285-28.403 3.601-37.737-1.407 8.586 1.764 18.705 1.366 26.921-3.63 15.699-9.6667 12.229-24.507-1.058-32.178-15.893-9.1756-39.258-8.9209-59.926 3.0117-14.781 8.5343-27.494 22.341-30.67 34.403 8.986 5.34 25.944 9.239 26.472 7.43 2.963-10.336 6.429-17.888 12.04-23.914 1.313 14.471 3.441 48.609 5.345 53.736 5.343 2.631 24.778 6.753 27.786 5.016 0.915-0.528 1.179-1.284 1.183-2.338-1.024-10.511-2.636-19.531-4.714-27.923 13.05 6.525 33.948 11.648 50.756 1.943 15.044-8.685 19.143-23.536 1.584-41.527-2.213-2.1831-8.22-1.4221-7.838 1.2149zm-36.807-1.4631c7.687 4.4377 3.875 10.998-3.058 15-3.705 2.14-7.52 3.223-11.031 3.795-2.104-5.9967-4.409-12.063-6.858-18.565 9.079-3.7289 16.283-2.9257 20.947-0.2329z" fill="#fff"/><path d="m600.06 288.87-299.14 172.71-299.14-172.71" stroke="#ff4438" stroke-linejoin="bevel" stroke-opacity=".15" stroke-width="2.7189"/><g stroke="#091a23" stroke-linejoin="bevel" stroke-width="4.0784"><path d="m600.06 288.87-299.14 172.71-299.14-172.71"/><rect transform="matrix(.86603 .5 -.86603 .5 0 0)" x="174.76" y="-172.72" width="345.42" height="345.42"/><path d="m600.04 404.01-299.14 172.71-299.14-172.71"/></g></svg>
