<svg xmlns="http://www.w3.org/2000/svg" viewBox="0 0 232.57 237.28"><path d="M114.347 4.3C51.22 4.3.007 55.517.007 118.64c0 63.126 51.217 114.34 114.34 114.34 42.849 0 80.204-23.604 99.785-58.506a47.5 47.5 0 0 1-5.673 2.137c-19.46 31.533-54.32 52.543-94.112 52.543-61.06 0-110.52-49.459-110.52-110.52S53.286 8.114 114.347 8.114c51.963 0 95.517 35.824 107.34 84.133a47.5 47.5 0 0 1 4.767 3.814c-10.492-52.324-56.71-91.773-112.11-91.773z"/><path d="M114.577 32.17c-47.604 0-86.235 38.631-86.235 86.23 0 47.604 38.632 86.235 86.235 86.235 25.54 0 48.495-11.123 64.289-28.783a46 46 0 0 1-3.76-1.52c-15.051 16.28-36.591 26.48-60.53 26.48-45.535 0-82.408-36.876-82.408-82.412 0-45.535 36.874-82.406 82.409-82.406 33.338 0 62.03 19.77 75.012 48.23a48 48 0 0 1 4.039-.304c-13.32-30.453-43.712-51.75-79.051-51.75"/><g stroke="#000"><g stroke-width=".453" transform="translate(-99.663 -115.36)"><circle cx="214" cy="347.39" r="5.028"/><circle cx="214" cy="319.04" r="5.027"/><circle cx="214" cy="148.96" r="5.028"/><circle cx="214" cy="120.61" r="5.028"/></g><path stroke-width="1.71" d="M217.037 173.08a47.5 47.5 0 0 1-9.283 3.764 5.03 5.03 0 0 0 4.787 3.514 5.027 5.027 0 0 0 5.029-5.025 5.2 5.2 0 0 0-.533-2.253z"/><g stroke-width=".453" transform="translate(-99.663 -115.36)"><circle cx="115.81" cy="177.31" r="5.028"/><circle cx="312.2" cy="177.31" r="5.028"/><circle cx="115.81" cy="290.69" r="5.028"/></g></g><path d="m117.35 131.215 27.948 37.238h-12.39l-33.615-45.216q16.082-.001 22.938-1.91 14.434-4.284 14.434-20.762 0-6.855-2.769-11.795-2.701-4.945-7.777-7.383-7.646-3.624-22.938-3.625h-14.04v90.695H79.19V68.732h24.65q19.51.001 28.673 5.073 6.986 4.087 10.612 10.942 3.69 6.855 3.69 15.953 0 13.38-7.58 21.224-7.51 7.773-21.883 9.29M232.566 134.834h-66.769q.593 10.942 8.964 18.588 8.372 7.579 19.775 7.579 8.436 0 15.555-4.613 7.118-4.679 10.217-12.26h10.414q-4.087 11.665-13.974 18.918-9.886 7.184-21.948 7.184-8.041 0-15.292-3.031c-7.251-3.031-8.986-4.768-12.457-8.24q-5.207-5.208-8.24-12.46-3.032-7.249-3.032-15.29 0-10.545 5.075-19.377c5.075-8.832 7.998-10.524 13.842-13.907s12.281-5.075 19.312-5.075q10.942-.001 20.103 5.404 9.227 5.406 14.04 14.697 2.44 4.681 3.427 9.623.987 4.879.988 12.26m-66.506-9.031h56.552q-2.505-11.007-10.216-17.398-7.647-6.395-18.39-6.393-10.48 0-18.192 6.59-7.71 6.526-9.754 17.2"/></svg>