<svg xmlns="http://www.w3.org/2000/svg" viewBox="0 0 50.8 50.8"><path fill="#20aa73" d="M13.63 25.67v6.07l15.008-10.006L13.63 11.729v6.069l5.904 3.936z" class="st1"/><path fill="#4a93dd" d="M36.615 25.215v-6.07L21.607 29.152l15.008 10.005v-6.069l-5.904-3.936z" class="st2"/><path fill="#20aa73" d="M42.821 15.254A20.06 20.06 0 0 1 45.563 25.4c0 11.135-9.028 20.162-20.163 20.162-6.559 0-12.384-3.134-16.066-7.983l-4.356 2.904C9.608 46.737 17.038 50.8 25.4 50.8c14.005 0 25.4-11.394 25.4-25.4 0-4.77-1.324-9.236-3.62-13.053z" class="st1"/><path fill="#4a93dd" d="M5.237 25.4c0-11.135 9.028-20.162 20.163-20.162 6.495 0 12.27 3.075 15.957 7.845l4.36-2.906C41.08 4 33.7 0 25.4 0 11.394 0 0 11.394 0 25.4a25.24 25.24 0 0 0 3.532 12.9l4.36-2.906A20.06 20.06 0 0 1 5.237 25.4" class="st2"/></svg>