<svg xmlns="http://www.w3.org/2000/svg" fill="none" viewBox="0 0 410 423.57"><g fill="#0b84f3"><path fill-opacity=".2" d="M116.44 45.13c-6.986.38-12.616 1.488-18.29 3.646-2.83 1.065-7.467 3.384-10.02 4.988-10.676 6.695-18.814 16.758-23.059 28.47-.846 2.32-3.136 9.714-4.609 14.804-9.815 34.026-15.387 71.233-16.583 110.61-.19 6.271-.19 21.206 0 27.376.802 26.107 3.296 49.676 7.818 73.712 1.837 9.728 4.783 22.796 6.49 28.732 3.486 12.062 10.603 22.33 20.725 29.856 6.782 5.046 14.483 8.43 23.015 10.093 4.113.802 9.538 1.166 13.535.904 5.527-.365 16.495-1.838 25.407-3.428 40.166-7.16 77.27-19.98 110.92-38.329 21.309-11.624 39.525-24.21 57.1-39.48 17.517-15.199 32.452-31.548 45.593-49.896 3.048-4.245 4.579-6.724 6.11-9.845 3.939-8.05 5.79-16.058 5.776-25.013 0-8.343-1.575-15.752-4.973-23.336-1.634-3.66-3.194-6.286-6.695-11.274-12.893-18.363-27.201-34.362-44.644-49.91-27.041-24.094-59.157-43.857-95.021-58.486-7.774-3.165-15.431-5.95-24.65-8.97-19.513-6.373-43.666-11.9-64.1-14.657-3.208-.438-7.57-.686-9.844-.57z"/><path fill-opacity=".1" d="M92.39.037c-8.878.481-16.032 1.89-23.242 4.633-3.596 1.353-9.49 4.3-12.733 6.34-13.567 8.507-23.91 21.295-29.303 36.18-1.075 2.946-3.985 12.343-5.857 18.812C8.781 109.244 1.701 156.526.181 206.572c-.24 7.97-.24 26.95 0 34.79 1.02 33.177 4.189 63.128 9.935 93.674 2.335 12.362 6.079 28.97 8.248 36.513 4.43 15.328 13.475 28.376 26.338 37.94 8.618 6.413 18.405 10.713 29.248 12.826 5.226 1.02 12.122 1.483 17.2 1.15 7.024-.464 20.962-2.336 32.287-4.356 51.044-9.1 98.196-25.393 140.96-48.709 27.079-14.773 50.229-30.768 72.563-50.174 22.26-19.313 41.239-40.09 57.939-63.407 3.874-5.393 5.82-8.544 7.766-12.51 5.005-10.232 7.358-20.407 7.34-31.787 0-10.602-2.002-20.018-6.32-29.656-2.076-4.652-4.06-7.988-8.508-14.327-16.384-23.335-34.567-43.668-56.734-63.426-34.364-30.619-75.177-55.733-120.75-74.323-9.88-4.022-19.61-7.562-31.324-11.399-24.8-8.1-55.493-15.124-81.46-18.627-4.077-.556-9.62-.871-12.51-.723z"/><path d="M141.33 91.901c-5.025.273-9.073 1.07-13.153 2.622-2.035.766-5.37 2.434-7.206 3.587-7.678 4.815-13.53 12.052-16.582 20.474-.609 1.668-2.255 6.986-3.315 10.646-7.059 24.47-11.065 51.226-11.925 79.546-.136 4.51-.136 15.25 0 19.687.577 18.774 2.37 35.724 5.622 53.01 1.322 6.995 3.44 16.393 4.667 20.662 2.507 8.674 7.625 16.058 14.904 21.47 4.877 3.63 10.415 6.063 16.551 7.258 2.958.577 6.86.84 9.734.651 3.975-.263 11.862-1.322 18.271-2.465 28.886-5.15 55.57-14.37 79.766-27.564 15.324-8.36 28.424-17.41 41.063-28.393 12.597-10.929 23.337-22.687 32.787-35.882 2.192-3.052 3.294-4.835 4.395-7.079 2.832-5.79 4.164-11.548 4.153-17.988 0-6-1.132-11.328-3.576-16.782-1.175-2.633-2.297-4.52-4.814-8.108-9.272-13.205-19.562-24.71-32.106-35.892-19.446-17.327-42.542-31.539-68.333-42.059-5.59-2.276-11.097-4.28-17.726-6.45-14.034-4.584-31.403-8.56-46.098-10.542-2.307-.314-5.443-.493-7.079-.409z"/></g></svg>