<svg xmlns="http://www.w3.org/2000/svg" fill="none" viewBox="0 0 16 16"><g clip-path="url(#a)"><rect width="16" height="16" fill="#000" rx="8"/><path fill="#fff" d="m3.597 5.895 5.946-3.371-.664-.377-5.946 3.372v5.77l.663.377zm1.414.803 4.535-2.572v.851L5.76 7.123v5.77H7.09l-.663-.376v-.851l2.165 1.228h1.327l-3.492-1.98v-.852l4.993 2.832h1.327l-2.161-1.226 2.453-1.391V4.506l-.663-.377V9.9L9.92 11.291l-.75-.425 2.453-1.392v-5.77l-.664-.377v5.771l-2.454 1.391-.75-.425 2.454-1.392V2.996L4.347 6.321v5.77l.664.377zm4.535-.965v2.559L7.089 9.686l-.664-.377V7.503c.365-.207 3.12-1.776 3.12-1.77"/></g><defs><clipPath id="a"><path fill="#fff" d="M0 0h16v16H0z"/></clipPath></defs></svg>