<svg xmlns="http://www.w3.org/2000/svg" fill="none" viewBox="0 0 138.17 138.17"><defs><linearGradient id="a" x1="38.608" x2="172.87" y1="162.64" y2="28.371" gradientTransform="matrix(.91348 .24477 -.27368 1.0214 -1.372 -54.345)" gradientUnits="userSpaceOnUse"><stop offset="0" stop-color="#ff6b35"/><stop offset=".25" stop-color="#e91e63"/><stop offset=".5" stop-color="#d11352"/><stop offset="1" stop-color="#b20bd0"/><stop offset=".75" stop-color="#841ee9"/><stop offset=".75" stop-color="#7206de"/></linearGradient></defs><path fill="url(#a)" d="M87.456.515c8.002 2.144 12.751 10.369 10.607 18.37l-7.765 28.979 28.977-7.765c8.002-2.145 16.231 2.607 18.376 10.609s-2.606 16.231-10.609 18.376l-28.977 7.765 21.212 21.213c5.858 5.858 5.858 15.362 0 21.219-5.86 5.857-15.362 5.858-21.22-.001L76.847 98.067l-7.765 28.978c-2.144 8.002-10.37 12.75-18.371 10.607-8.002-2.144-12.751-10.37-10.607-18.371l7.765-28.978-28.977 7.765C10.889 100.213 2.66 95.46.515 87.458c-2.146-8.001 2.606-16.23 10.609-18.375L40.1 61.318 18.889 40.105c-5.858-5.859-5.858-15.362 0-21.22 5.859-5.856 15.362-5.857 21.22.002L61.32 40.1l7.765-28.978C71.229 3.12 79.454-1.63 87.456.515"/></svg>