<svg xmlns="http://www.w3.org/2000/svg" viewBox="0 0 1692 1676.8"><path fill="#2855a3" d="M992.004 1662.622c.16.08.322.147.488.213 32.843 13.853 69.32 17.92 104.08 10 340.845-77.571 595.371-382.564 595.371-747.035V524.864c-29.959 6.52-61.025 13.866-91.25 22.186h-.28c-148.53 40.772-278.474 104.01-184.316 191.528 182.929 169.89-155.33 235.755-386.097 285.407-360.578 77.384-680.943 365.017-37.999 638.637"/><path fill="#6dd0f6" d="M0 766.378v158.876c0 65.265 63.838 111.13 125.813 90.678 73.585-24.293 158.73-45.586 256.953-63.025 831.14-147.277 703.823-208.022 640.171-247.82-63.657-39.946-173.489-133.557 167.25-201.929 175.021-35.226 361.683-54.639 501.76-65.185V.144H766.223C343.047.144-.01 343.202-.01 766.378"/><path fill="#c4c2c1" d="M1600.695 547.05c36.786-10.52 91.251-22.186 91.251-22.186-29.96 6.52-61.025 13.866-91.25 22.186"/><path fill="#22427a" d="M992.004 1662.622c-268.1-114.09-368.698-230.634-368.738-333.338-.041-143.596 196.502-260.18 406.737-305.299 184.688-39.732 438.202-89.864 438.335-195.368.04-26.333-15.706-56.119-52.238-90.038-22.16-20.6-31.906-39.853-31.92-57.785-.053-58.252 102.665-102.571 216.235-133.744h.28c30.226-8.32 61.292-15.666 91.251-22.186v128.837c-112.064 40.212-187.222 95.97-109.424 168.09 182.929 169.888-155.33 235.753-386.097 285.405-324.098 69.625-615.758 308.993-204.421 555.426"/></svg>