<svg xmlns="http://www.w3.org/2000/svg" viewBox="0 0 6.085 5.427"><g stroke="#27262b"><g fill="none" transform="translate(3.043 2.713)scale(.26458)"><ellipse rx="11" ry="4.2"/><ellipse rx="11" ry="4.2" transform="rotate(60)"/><ellipse rx="11" ry="4.2" transform="rotate(120)"/></g><path fill="#27262b" stroke="none" d="M2.77 1.976a.16.16 0 0 0-.09.029.16.16 0 0 0-.093.144v1.133c0 .066.038.119.086.148l.003.001.011.004c.017.006.043.018.074.018q.05.001.098-.028l.907-.562a.17.17 0 0 0 .079-.148.17.17 0 0 0-.073-.143l-.006-.006L2.858 2h-.001L2.853 2a.2.2 0 0 0-.083-.024m.08.332.652.407-.653.403z"/></g></svg>