<svg xmlns="http://www.w3.org/2000/svg" viewBox="0 0 6.085 5.427"><g stroke="#27262b"><g fill="none" transform="translate(3.04 2.713)scale(.26458)"><ellipse rx="11" ry="4.2"/><ellipse rx="11" ry="4.2" transform="rotate(60)"/><ellipse rx="11" ry="4.2" transform="rotate(120)"/></g><path fill="#27262b" stroke="none" d="M117.04 92.672a.2.2 0 0 0-.111.035.2.2 0 0 0-.114.178v1.392c0 .081.047.146.106.182l.004.002.014.004c.021.008.052.022.091.022q.06.002.12-.034l1.115-.691a.21.21 0 0 0 .097-.182.21.21 0 0 0-.09-.176l-.003-.003-.004-.004-1.116-.694h-.002l-.004-.002a.3.3 0 0 0-.103-.029zm.098.408.802.5-.802.496z" transform="translate(-92.444 -73.412)scale(.81349)"/></g></svg>