<svg xmlns="http://www.w3.org/2000/svg" viewBox="0 0 600 600"><circle cx="300" cy="300" r="300" fill="#6706ce" fill-rule="evenodd" clip-rule="evenodd"/><path fill="#fff" d="M279.34 267.67c27.7-21.58 15.55-51.11-30.24-45.4-53.03 6.6-120.62 58.45-137.46 120.7a128 128 0 0 0-3.19 15.5c-.73 5.15-1.12 10.35-1.17 15.55-.05 5.15.25 10.3.89 15.4.64 5.11 1.64 10.17 2.98 15.14 1.36 5.03 3.06 9.97 5.09 14.76 2.09 4.92 4.51 9.68 7.24 14.26 2.83 4.76 5.98 9.31 9.4 13.64 11.67 14.78 26.65 27.16 42.63 37.02 3.46 2.14 7.18 4.21 11.25 4.41 5.94.28 10.44-4.44 10.68-10.23.09-2.18-.46-4.24-1.46-6-13.42-23.67-24.52-58.81-22.24-80.99 5.69-55.14 61.54-89.45 105.6-123.76"/><path fill="#fff" d="M500.28 363.84c-2.9-6.91-10.16-10.81-17.51-10.15-5.02.45-9.17 3.13-12.55 6.68-5.49 4.97-9.31 11.89-13.43 17.91-4.86 7.08-9.94 14.02-15.41 20.63-10.8 13.04-23.24 24.79-37.76 33.61-24.63 14.95-47.17 22.12-74.27 8.31-19.83-15.86-13.13-34.6 3.29-49.87 28.08-26.1 61.93-44.42 88.52-72.44 25-26.34 47.05-59.11 52.24-95.78 1.46-10.27 1.48-20.74-.17-31-7.8-48.31-51.48-78.97-95.59-92.01C321.47 83.13 259.6 88 206.48 112.56c-21.86 10.11-42.23 23.65-59.94 39.98a250 250 0 0 0-22.1 23.2c-11.1 13.27-23.73 28.77-25.89 46.57-1.33 10.99 8.58 18.59 18.99 17.18 6.98-.94 13.16-5.15 18.3-9.74 5.97-5.33 11.45-11.25 17.21-16.82 17.38-16.82 35.94-32.47 58.01-42.79 28.11-13.15 59.61-19.55 90.6-16.32 31.43 3.27 69.67 17.44 81.15 49.98 11.97 33.97-13.73 67.36-37.18 89.06-38.29 35.44-110.99 71.63-102.98 134.19 4.29 33.51 28.4 62.19 59.24 74.96 53.66 22.23 111.74-4.84 148.89-46.18 12.46-13.24 30.38-35.82 46.68-69.46 3.15-6.53 5.77-15.5 2.82-22.53"/></svg>