<svg xmlns="http://www.w3.org/2000/svg" fill="none" viewBox="0 0 601 601"><g clip-path="url(#a)"><circle cx="300.5" cy="300.5" r="283" fill="#d33847" stroke="#fff" stroke-width="35"/><g filter="url(#b)"><g fill="#fff"><rect width="24.055" height="230.22" x="151.68" y="447.35" fill-opacity=".5" rx="5" transform="rotate(48 151.68 447.35)"/><rect width="11.252" height="161.54" x="128.34" y="443.54" fill-opacity=".2" rx="5" transform="rotate(48 128.34 443.54)"/><rect width="11.252" height="161.54" x="161.83" y="480.58" fill-opacity=".2" rx="5" transform="rotate(48 161.83 480.58)"/></g><g filter="url(#c)"><ellipse cx="323.29" cy="298.11" fill="#eb4b5b" rx="49.619" ry="37.056" transform="rotate(-37 323.29 298.11)"/></g><path fill="#fffffe" fill-rule="evenodd" d="M154.7 310.02a3.57 3.57 0 0 0-1.844 1.083l-43.996 48.476a3.58 3.58 0 0 0-.924 2.249c-.015.355.02.7.113 1.053a3.58 3.58 0 0 0 2.311 2.492l55.47 18.814 7.076-7.456a87 87 0 0 1 9.502-8.641l7.778-6.089-5.674 8.086a87 87 0 0 1-8.131 9.941l-7.616 8.027c-.498 11.435 1.958 21.7 7.394 30.41l-21.169 19.458c-2.253 2.233-.742 3.913 1.435 6.3l15.22 16.567c2.094 2.419 3.522 3.923 5.861 1.736l22.945-21.047c4.865 2.029 16.58 5.709 34.623 3.854l10.812-7.431a88.5 88.5 0 0 1 11.098-6.495l9.067-4.458-7.411 6.868a88.6 88.6 0 0 1-10.041 8.034l-8.841 6.076 17.749 56.136a3.56 3.56 0 0 0 2.444 2.364 3.57 3.57 0 0 0 3.317-.752l49.323-43.036a3.6 3.6 0 0 0 1.145-1.916l13.209-58.95c13.404-10.617 27.04-23.055 40.557-36.98 77.818-80.18 91.736-144.9 93.109-176.35.444-10.173-.52-15.911-.591-16.336l-.003-.017a3.58 3.58 0 0 0-2.766-2.867c-3.663-.796-91.005-18.203-210.44 91.32l-.017.016c-.596.567-15.925 15.14-32.613 35.663zm143.41-38.435c19.417-17.792 46.067-20.304 59.531-5.611 13.464 14.694 8.639 41.024-10.777 58.816-19.417 17.793-46.067 20.304-59.532 5.611-13.464-14.694-8.639-41.024 10.778-58.816" clip-rule="evenodd"/><path fill="#d33847" d="m152.86 311.1-1.842-1.691-.01.01zm1.844-1.083.546 2.439.01-.002.009-.002zm-45.84 49.559-1.851-1.68-.005.006zm-.811 3.302 2.42-.629-.002-.005zm2.311 2.492-.803 2.367zm55.47 18.814-.803 2.367 1.515.514 1.102-1.161zm7.076-7.456 1.813 1.72zm9.502-8.641 1.541 1.969zm7.778-6.089 2.046 1.436-3.587-3.404zm-5.674 8.086 2.047 1.436zm-8.131 9.941-1.813-1.72zm-7.616 8.027-1.814-1.721-.643.678-.041.934zm7.394 30.41 1.692 1.841 1.527-1.404-1.098-1.76zm-21.169 19.458-1.692-1.841-.034.032-.034.033zm1.435 6.3-1.848 1.684.007.007zm15.22 16.567 1.891-1.636-.025-.028-.025-.027zm5.861 1.736-1.69-1.843-.009.008-.008.008zm22.945-21.047.963-2.307-1.475-.616-1.178 1.08zm34.623 3.854.255 2.487.635-.065.526-.362zm10.812-7.431 1.416 2.061v-.001zm11.098-6.495 1.102 2.244zm9.067-4.458 1.7 1.834-2.802-4.077zm-7.411 6.868-1.699-1.833zm-10.041 8.034 1.416 2.06zm-8.841 6.076-1.416-2.06-1.526 1.048.558 1.766zm17.749 56.136 2.385-.75-.002-.003zm2.444 2.364.685-2.405-.014-.004zm3.317-.752 1.641 1.886.003-.002zm49.323-43.036 1.644 1.883.003-.002zm1.145-1.916 2.436.561.003-.014zm13.209-58.95-1.553-1.959-.693.549-.194.864zm40.557-36.98 1.794 1.742v-.001zm92.518-192.68-2.498-.109-.012.264.044.26zm0 0 2.497.109.012-.261-.043-.259zm-.003-.017 2.466-.411-.003-.014-.002-.015zm-2.766-2.867.534-2.443h-.003zm-210.44 91.32-1.69-1.843-.034.032zm-.017.016 1.722 1.812.001-.001zm-32.613 35.663.565 2.436.834-.194.541-.664zm143.46-30.252-1.843 1.689zm-202.94 46.819c.172-.187.368-.293.549-.334l-1.092-4.879a6.07 6.07 0 0 0-3.14 1.832zm-43.985 48.466 43.995-48.476-3.703-3.361-43.995 48.477zm-.278.678c.01-.246.105-.486.283-.684l-3.713-3.348a6.1 6.1 0 0 0-1.566 3.814zm.033.31a1 1 0 0 1-.033-.31l-4.996-.218a6 6 0 0 0 .193 1.796zm.696.758a1.08 1.08 0 0 1-.694-.753l-4.839 1.259a6.07 6.07 0 0 0 3.927 4.229zm55.47 18.814-55.47-18.814-1.606 4.735 55.47 18.814zm1.011 4.088 7.075-7.456-3.627-3.441-7.075 7.456zm7.075-7.456a85 85 0 0 1 9.23-8.392l-3.082-3.937a90 90 0 0 0-9.775 8.888zm9.23-8.392 7.778-6.089-3.082-3.937-7.778 6.089zm4.19-9.494-5.673 8.086 4.093 2.872 5.673-8.086zm-5.673 8.086a85 85 0 0 1-7.898 9.657l3.627 3.441a90 90 0 0 0 8.364-10.226zm-7.898 9.657-7.617 8.026 3.627 3.442 7.617-8.027zm3.712 38.834c-5.134-8.226-7.496-17.977-7.018-28.979l-4.995-.217c-.516 11.869 2.032 22.648 7.771 31.843zm-21.598 22.621 21.169-19.457-3.384-3.681-21.169 19.457zm1.59 2.776c-.559-.613-.993-1.093-1.336-1.532-.347-.444-.49-.711-.544-.858-.035-.094-.003-.047-.025.033-.011.037.019-.123.383-.484l-3.52-3.551c-.763.756-1.389 1.643-1.681 2.698-.305 1.098-.181 2.133.152 3.036.314.851.816 1.591 1.295 2.204.482.617 1.052 1.242 1.581 1.822zm15.214 16.56-15.22-16.567-3.682 3.382 15.22 16.568zm2.313 1.6c-.408.381-.578.411-.53.399.116-.03.232.004.23.003-.07-.032-.273-.151-.651-.514-.37-.356-.782-.82-1.312-1.433l-3.781 3.273c.516.596 1.069 1.227 1.628 1.764.552.531 1.244 1.105 2.085 1.479.909.403 1.951.555 3.059.267 1.039-.27 1.924-.872 2.686-1.585zm22.962-21.063-22.945 21.047 3.38 3.685 22.945-21.047zm36.057 3.21c-17.579 1.807-28.876-1.785-33.404-3.674l-1.925 4.614c5.201 2.17 17.333 5.937 35.84 4.034zm9.652-7.004-10.812 7.431 2.832 4.12 10.812-7.43zm11.411-6.679a91 91 0 0 0-11.411 6.679l2.832 4.12a86 86 0 0 1 10.784-6.311zm9.068-4.457-9.068 4.457 2.205 4.488 9.068-4.458zm-4.609 10.945 7.411-6.868-3.399-3.667-7.411 6.868zm-10.325 8.26a91 91 0 0 0 10.325-8.26l-3.399-3.667a86 86 0 0 1-9.758 7.806zm-8.841 6.076 8.841-6.076-2.832-4.121-8.841 6.077zm18.716 53.323-17.748-56.137-4.768 1.508 17.749 56.136zm.732.708a1.06 1.06 0 0 1-.73-.705l-4.77 1.5a6.06 6.06 0 0 0 4.158 4.022zm1.005-.229a1.06 1.06 0 0 1-.991.233l-1.37 4.809a6.07 6.07 0 0 0 5.643-1.27zm49.321-43.034-49.323 43.037 3.287 3.767 49.323-43.037zm.351-.592a1.1 1.1 0 0 1-.354.594l3.293 3.763a6.1 6.1 0 0 0 1.934-3.236zm13.206-58.936-13.209 58.95 4.879 1.093 13.209-58.95zm41.203-38.175c-13.451 13.857-27.007 26.221-40.316 36.762l3.105 3.919c13.5-10.693 27.216-23.206 40.799-37.198zm92.406-174.72c-1.345 30.793-14.987 94.946-92.406 174.72l3.588 3.482c78.217-80.591 92.412-145.89 93.813-177.98zm-.56-15.811c.048.282.995 5.842.56 15.811l4.995.219c.453-10.377-.529-16.292-.624-16.859zm-.032-.524 4.995.218zm.029.503.003.017 4.932-.822-.003-.017zm-.835-.836c.436.095.764.439.84.865l4.922-.88a6.08 6.08 0 0 0-4.693-4.87zm-208.22 90.721c118.78-108.92 205.27-91.361 208.22-90.72l1.062-4.886c-4.379-.952-92.571-18.203-212.66 91.92zm.017-.016.017-.016-3.447-3.622-.017.016zm-32.396 35.43c16.591-20.407 31.835-34.896 32.395-35.429l-3.445-3.624c-.631.601-16.046 15.257-32.83 35.898zm-60.857 14.651 59.482-13.793-1.13-4.871-59.482 13.793zm144.53-39.027c9.345-8.562 20.362-13.382 30.543-14.341 10.18-.96 19.368 1.933 25.456 8.576l3.686-3.378c-7.376-8.049-18.245-11.247-29.611-10.176-11.363 1.071-23.379 6.403-33.452 15.633zm55.999-5.765c6.088 6.644 8.169 16.049 6.326 26.107s-7.605 20.615-16.949 29.177l3.378 3.686c10.072-9.229 16.432-20.735 18.489-31.962 2.057-11.229-.182-22.336-7.558-30.386zm-10.623 55.284c-9.344 8.563-20.362 13.382-30.544 14.342-10.18.959-19.368-1.934-25.456-8.577l-3.686 3.377c7.376 8.05 18.246 11.249 29.611 10.178 11.364-1.071 23.38-6.404 33.453-15.634zm-56 5.765c-6.087-6.644-8.168-16.049-6.325-26.106 1.843-10.06 7.605-20.615 16.949-29.178l-3.378-3.686c-10.072 9.229-16.432 20.736-18.489 31.962-2.058 11.229.181 22.336 7.557 30.385z"/><path fill="#000" fill-opacity=".2" d="m152.86 311.1-1.842-1.691-.01.01zm1.844-1.083.546 2.439.01-.002.009-.002zm-45.84 49.559-1.851-1.68-.005.006zm-.811 3.302 2.42-.629-.002-.005zm2.311 2.492-.803 2.367zm55.47 18.814-.803 2.367 1.515.514 1.102-1.161zm7.076-7.456 1.813 1.72zm9.502-8.641 1.541 1.969zm7.778-6.089 2.046 1.436-3.587-3.404zm-5.674 8.086 2.047 1.436zm-8.131 9.941-1.813-1.72zm-7.616 8.027-1.814-1.721-.643.678-.041.934zm7.394 30.41 1.692 1.841 1.527-1.404-1.098-1.76zm-21.169 19.458-1.692-1.841-.034.032-.034.033zm1.435 6.3-1.848 1.684.007.007zm15.22 16.567 1.891-1.636-.025-.028-.025-.027zm5.861 1.736-1.69-1.843-.009.008-.008.008zm22.945-21.047.963-2.307-1.475-.616-1.178 1.08zm34.623 3.854.255 2.487.635-.065.526-.362zm10.812-7.431 1.416 2.061v-.001zm11.098-6.495 1.102 2.244zm9.067-4.458 1.7 1.834-2.802-4.077zm-7.411 6.868-1.699-1.833zm-10.041 8.034 1.416 2.06zm-8.841 6.076-1.416-2.06-1.526 1.048.558 1.766zm17.749 56.136 2.385-.75-.002-.003zm2.444 2.364.685-2.405-.014-.004zm3.317-.752 1.641 1.886.003-.002zm49.323-43.036 1.644 1.883.003-.002zm1.145-1.916 2.436.561.003-.014zm13.209-58.95-1.553-1.959-.693.549-.194.864zm40.557-36.98 1.794 1.742v-.001zm92.518-192.68-2.498-.109-.012.264.044.26zm0 0 2.497.109.012-.261-.043-.259zm-.003-.017 2.466-.411-.003-.014-.002-.015zm-2.766-2.867.534-2.443h-.003zm-210.44 91.32-1.69-1.843-.034.032zm-.017.016 1.722 1.812.001-.001zm-32.613 35.663.565 2.436.834-.194.541-.664zm143.46-30.252-1.843 1.689zm-202.94 46.819c.172-.187.368-.293.549-.334l-1.092-4.879a6.07 6.07 0 0 0-3.14 1.832zm-43.985 48.466 43.995-48.476-3.703-3.361-43.995 48.477zm-.278.678c.01-.246.105-.486.283-.684l-3.713-3.348a6.1 6.1 0 0 0-1.566 3.814zm.033.31a1 1 0 0 1-.033-.31l-4.996-.218a6 6 0 0 0 .193 1.796zm.696.758a1.08 1.08 0 0 1-.694-.753l-4.839 1.259a6.07 6.07 0 0 0 3.927 4.229zm55.47 18.814-55.47-18.814-1.606 4.735 55.47 18.814zm1.011 4.088 7.075-7.456-3.627-3.441-7.075 7.456zm7.075-7.456a85 85 0 0 1 9.23-8.392l-3.082-3.937a90 90 0 0 0-9.775 8.888zm9.23-8.392 7.778-6.089-3.082-3.937-7.778 6.089zm4.19-9.494-5.673 8.086 4.093 2.872 5.673-8.086zm-5.673 8.086a85 85 0 0 1-7.898 9.657l3.627 3.441a90 90 0 0 0 8.364-10.226zm-7.898 9.657-7.617 8.026 3.627 3.442 7.617-8.027zm3.712 38.834c-5.134-8.226-7.496-17.977-7.018-28.979l-4.995-.217c-.516 11.869 2.032 22.648 7.771 31.843zm-21.598 22.621 21.169-19.457-3.384-3.681-21.169 19.457zm1.59 2.776c-.559-.613-.993-1.093-1.336-1.532-.347-.444-.49-.711-.544-.858-.035-.094-.003-.047-.025.033-.011.037.019-.123.383-.484l-3.52-3.551c-.763.756-1.389 1.643-1.681 2.698-.305 1.098-.181 2.133.152 3.036.314.851.816 1.591 1.295 2.204.482.617 1.052 1.242 1.581 1.822zm15.214 16.56-15.22-16.567-3.682 3.382 15.22 16.568zm2.313 1.6c-.408.381-.578.411-.53.399.116-.03.232.004.23.003-.07-.032-.273-.151-.651-.514-.37-.356-.782-.82-1.312-1.433l-3.781 3.273c.516.596 1.069 1.227 1.628 1.764.552.531 1.244 1.105 2.085 1.479.909.403 1.951.555 3.059.267 1.039-.27 1.924-.872 2.686-1.585zm22.962-21.063-22.945 21.047 3.38 3.685 22.945-21.047zm36.057 3.21c-17.579 1.807-28.876-1.785-33.404-3.674l-1.925 4.614c5.201 2.17 17.333 5.937 35.84 4.034zm9.652-7.004-10.812 7.431 2.832 4.12 10.812-7.43zm11.411-6.679a91 91 0 0 0-11.411 6.679l2.832 4.12a86 86 0 0 1 10.784-6.311zm9.068-4.457-9.068 4.457 2.205 4.488 9.068-4.458zm-4.609 10.945 7.411-6.868-3.399-3.667-7.411 6.868zm-10.325 8.26a91 91 0 0 0 10.325-8.26l-3.399-3.667a86 86 0 0 1-9.758 7.806zm-8.841 6.076 8.841-6.076-2.832-4.121-8.841 6.077zm18.716 53.323-17.748-56.137-4.768 1.508 17.749 56.136zm.732.708a1.06 1.06 0 0 1-.73-.705l-4.77 1.5a6.06 6.06 0 0 0 4.158 4.022zm1.005-.229a1.06 1.06 0 0 1-.991.233l-1.37 4.809a6.07 6.07 0 0 0 5.643-1.27zm49.321-43.034-49.323 43.037 3.287 3.767 49.323-43.037zm.351-.592a1.1 1.1 0 0 1-.354.594l3.293 3.763a6.1 6.1 0 0 0 1.934-3.236zm13.206-58.936-13.209 58.95 4.879 1.093 13.209-58.95zm41.203-38.175c-13.451 13.857-27.007 26.221-40.316 36.762l3.105 3.919c13.5-10.693 27.216-23.206 40.799-37.198zm92.406-174.72c-1.345 30.793-14.987 94.946-92.406 174.72l3.588 3.482c78.217-80.591 92.412-145.89 93.813-177.98zm-.56-15.811c.048.282.995 5.842.56 15.811l4.995.219c.453-10.377-.529-16.292-.624-16.859zm-.032-.524 4.995.218zm.029.503.003.017 4.932-.822-.003-.017zm-.835-.836c.436.095.764.439.84.865l4.922-.88a6.08 6.08 0 0 0-4.693-4.87zm-208.22 90.721c118.78-108.92 205.27-91.361 208.22-90.72l1.062-4.886c-4.379-.952-92.571-18.203-212.66 91.92zm.017-.016.017-.016-3.447-3.622-.017.016zm-32.396 35.43c16.591-20.407 31.835-34.896 32.395-35.429l-3.445-3.624c-.631.601-16.046 15.257-32.83 35.898zm-60.857 14.651 59.482-13.793-1.13-4.871-59.482 13.793zm144.53-39.027c9.345-8.562 20.362-13.382 30.543-14.341 10.18-.96 19.368 1.933 25.456 8.576l3.686-3.378c-7.376-8.049-18.245-11.247-29.611-10.176-11.363 1.071-23.379 6.403-33.452 15.633zm55.999-5.765c6.088 6.644 8.169 16.049 6.326 26.107s-7.605 20.615-16.949 29.177l3.378 3.686c10.072-9.229 16.432-20.735 18.489-31.962 2.057-11.229-.182-22.336-7.558-30.386zm-10.623 55.284c-9.344 8.563-20.362 13.382-30.544 14.342-10.18.959-19.368-1.934-25.456-8.577l-3.686 3.377c7.376 8.05 18.246 11.249 29.611 10.178 11.364-1.071 23.38-6.404 33.453-15.634zm-56 5.765c-6.087-6.644-8.168-16.049-6.325-26.106 1.843-10.06 7.605-20.615 16.949-29.178l-3.378-3.686c-10.072 9.229-16.432 20.736-18.489 31.962-2.058 11.229.181 22.336 7.557 30.385z"/></g></g><defs><filter id="b" width="486.58" height="457.96" x="-17.345" y="165.26" color-interpolation-filters="sRGB" filterUnits="userSpaceOnUse"><feFlood flood-opacity="0" result="BackgroundImageFix"/><feColorMatrix in="SourceAlpha" result="hardAlpha" values="0 0 0 0 0 0 0 0 0 0 0 0 0 0 0 0 0 0 127 0"/><feOffset dx="3" dy="3"/><feGaussianBlur stdDeviation="1.5"/><feComposite in2="hardAlpha" operator="out"/><feColorMatrix values="0 0 0 0 0 0 0 0 0 0 0 0 0 0 0 0 0 0 0.25 0"/><feBlend in2="BackgroundImageFix" result="effect1_dropShadow_110_2"/><feBlend in="SourceGraphic" in2="effect1_dropShadow_110_2" result="shape"/></filter><filter id="c" width="92.96" height="86.085" x="277.81" y="256.07" color-interpolation-filters="sRGB" filterUnits="userSpaceOnUse"><feFlood flood-opacity="0" result="BackgroundImageFix"/><feBlend in="SourceGraphic" in2="BackgroundImageFix" result="shape"/><feColorMatrix in="SourceAlpha" result="hardAlpha" values="0 0 0 0 0 0 0 0 0 0 0 0 0 0 0 0 0 0 127 0"/><feOffset dx="2" dy="2"/><feGaussianBlur stdDeviation="1"/><feComposite in2="hardAlpha" k2="-1" k3="1" operator="arithmetic"/><feColorMatrix values="0 0 0 0 0 0 0 0 0 0 0 0 0 0 0 0 0 0 0.25 0"/><feBlend in2="shape" result="effect1_innerShadow_110_2"/></filter><clipPath id="a"><path fill="#fff" d="M0 0h601v601H0z"/></clipPath></defs></svg>