<svg xmlns="http://www.w3.org/2000/svg" viewBox="0 0 36.736 50.619"><g transform="translate(-15.046 -113.02)"><path fill="#fd6500" d="M32.23 162.51c-1.09-1.345-2.332-3.985-2.567-5.457l-.172-1.078h3.87c3.027 0 3.87.076 3.87.35 0 .74-.87 3.275-1.495 4.357-.703 1.216-2.153 2.975-2.435 2.952-.094-.008-.576-.513-1.07-1.124zm-9.558-8.842c-2.639-6.338-2.597-14.31.117-22.42 1.658-4.956 5.592-11.998 9.307-16.662l1.25-1.57.89 1.04c1.61 1.884 5.508 7.87 6.916 10.622 2.784 5.438 4.333 10.53 4.774 15.687.415 4.854-.372 10.2-2.029 13.778l-.713 1.54-1.533-.912-1.533-.913h-6.809c-5.2 0-6.932.082-7.33.35-.287.191-.957.61-1.488.93l-.965.582zm19.694-3.777c1.642-5.532 1.123-13.189-1.339-19.708-1.44-3.817-4.397-9.109-6.772-12.122-.752-.954-.816-.982-1.285-.558-.93.841-3.91 5.532-5.364 8.442-4.065 8.133-5.239 16.863-3.207 23.85l.412 1.418h17.163zm-27.275 4.96c.078-.328.227-1.19.331-1.919.167-1.158.4-1.537 1.867-3.042l1.676-1.72.005 1.069c.006 1.353.636 3.794 1.332 5.157l.536 1.05h-2.945c-2.92 0-2.943-.005-2.802-.595m31.514-.794c.57-1.293 1.116-3.409 1.277-4.96.066-.632.14-.595 1.607.798s1.556 1.551 1.916 3.44c.207 1.088.377 2.009.377 2.045s-1.302.066-2.895.066H45.99z"/><circle cx="32.946" cy="139.98" r="4.076" fill="none" stroke="#fd6500" stroke-linecap="round" stroke-linejoin="round"/><g fill="#fd6500"><circle cx="28.047" cy="134.35" r="1.387"/><circle cx="27.295" cy="144.49" r="1.687"/><circle cx="38.286" cy="134.13" r="2.255"/><circle cx="38.286" cy="146.99" r="2.99"/><path d="m28.028 135.54 1.036-1.036 1.536 1.537-1.036 1.036zM36.608 134.837l1.135 1.136-1.536 1.537-1.136-1.136zM29.07 141.923l1.036 1.036-1.537 1.536-1.036-1.036zM34.812 144.172l1.286-1.244 1.643 1.59-1.286 1.243z"/><circle cx="31.189" cy="140.18" r=".585"/><circle cx="32.863" cy="140.18" r=".585"/><circle cx="34.538" cy="140.18" r=".585"/></g></g></svg>