<svg xmlns="http://www.w3.org/2000/svg" viewBox="0 0 477.8 380"><path fill="#ffbe00" d="m319.7 269.5-64.7 1.6-24.4 56-63.6 16.6-39.8 36.3h320.4c16.6 0 30.1-13.5 30.1-30.1V190.7l-113.6 28.4zm-233.4 4.7-53.9 46.3c-.5-3.3-1.8-6.6-4.1-9.4L0 334.9c6 7.1 16.1 8.5 23.8 3.8l52.7-23.9zm312.9-162.5 6.5 17.2c10.1-2.6 25.6-13.7 36.5-22.3-.4 3-.2 6 .9 9l34.7-12.8c-3.6-9.6-14.2-14.4-23.8-10.9-.3.1-.6.3-.9.5l.1-.1zm59.8 29h-.2l-63.6-5.5-14.5-38.1V56.7c2.9 1.6 6.1 2.5 9.6 2.5 10.5 0 19.1-8.1 20.1-18.3l15.2-10.1-.7-20.5c-.1-2.1-1.7-3.7-3.8-3.7l-19-.3c-4-5.6-11.4-8-17.9-5l-41.8 19.6c.1.1.1.3.1.4 1.4 2.9 3.5 5.1 6 6.7C297.6 54.3 276 89.8 276 89.8L81.4 194.6c-11.4 6.1-25.7 1.8-31.8-9.6s-1.8-25.7 9.6-31.8l55.2-29.7c14-7.5 22.2-21.5 23.2-36.2l-33.1 17.8-55.2 29.7c-21.6 11.6-29.7 38.6-18.1 60.1 8 14.9 23.3 23.4 39.2 23.4 7.1 0 14.3-1.7 20.9-5.3l24.9-13.4c-1.8 9.8-1 20.3 2.9 30.2 1.3 3.4 2.2 5.5 2.2 5.5 8.8 19.1-2.8 34.1-18 34.1h-4.8L81 345.6c-2.3-2.4-5.3-4.2-8.8-5.1l-8.7 35.9c8.8 2.1 17.5-2.4 21.1-10.4l39.7-71.2c50.2-4.9 76.6-38.9 75.4-86.8 52 3.2 121.3-29.5 152.1-74.2 23.4 29.7 67.6 25.5 87.3 18l3.8-1.3c-1.4 2.6-2.2 5.6-2.2 8.8l37-.4c-.2-10.1-8.5-18.3-18.7-18.2M114.1 73.3c1.8 3.4 2.7 7 2.8 10.6l19.5-10.5c-.9-3.4-2.1-6.8-3.9-10l-1-1.9-18.4 9.9zM107 60.1l18.4-9.9-2.4-4.4c-2.7-5.1-9.1-7-14.2-4.3s-7 9.1-4.3 14.2z"/><path fill="#0f2647" d="M389.2 11.4c-3.3 0-5.9 2.7-5.9 6s2.7 6 5.9 6c3.3 0 6-2.7 6-6s-2.7-6-6-6m-34.8 44.7c-1.4.8-2.3 1.9-2.3 1.9s2.5 2.9 5.6 2.9 5.6-2.9 5.6-2.9-.9-1.1-2.3-1.9c2.2-.9 3.7-2.3 3.7-2.3s-1.5-1.4-3.7-2.3c1.4-.8 2.3-1.9 2.3-1.9s-2.5-2.9-5.6-2.9-5.6 2.9-5.6 2.9.9 1.1 2.3 1.9c-2.2.9-3.7 2.3-3.7 2.3s1.5 1.5 3.7 2.3m-20.2 7.3s-2.5-2.9-5.6-2.9-5.6 2.9-5.6 2.9.9 1.1 2.3 1.9c-2.2.9-3.7 2.3-3.7 2.3s1.5 1.4 3.7 2.3c-1.4.8-2.3 1.9-2.3 1.9s2.5 2.9 5.6 2.9 5.6-2.9 5.6-2.9-.9-1.1-2.3-1.9c2.2-.9 3.7-2.3 3.7-2.3s-1.5-1.4-3.7-2.3c1.4-.9 2.3-1.9 2.3-1.9m26.6 28.3s-.9-1.1-2.3-1.9c2.2-.9 3.7-2.3 3.7-2.3s-1.5-1.4-3.7-2.3c1.4-.8 2.3-1.9 2.3-1.9s-2.5-2.9-5.6-2.9-5.6 2.9-5.6 2.9.9 1.1 2.3 1.9c-2.2.9-3.7 2.3-3.7 2.3s1.5 1.4 3.7 2.3c-1.4.8-2.3 1.9-2.3 1.9s2.5 2.9 5.6 2.9c3 0 5.6-2.9 5.6-2.9m-30.3 10.1c1.4-.8 2.3-1.9 2.3-1.9s-2.5-2.9-5.6-2.9-5.6 2.9-5.6 2.9.9 1.1 2.3 1.9c-2.2.9-3.7 2.3-3.7 2.3s1.5 1.4 3.7 2.3c-1.4.8-2.3 1.9-2.3 1.9s2.5 2.9 5.6 2.9 5.6-2.9 5.6-2.9-.9-1.1-2.3-1.9c2.2-.9 3.7-2.3 3.7-2.3s-1.4-1.4-3.7-2.3m-28.6-8.7c1.4-.8 2.3-1.9 2.3-1.9s-2.5-2.9-5.6-2.9-5.6 2.9-5.6 2.9.9 1.1 2.3 1.9c-2.2.9-3.7 2.3-3.7 2.3s1.5 1.4 3.7 2.3c-1.4.8-2.3 1.9-2.3 1.9s2.5 2.9 5.6 2.9 5.6-2.9 5.6-2.9-.9-1.1-2.3-1.9c2.2-.9 3.7-2.3 3.7-2.3s-1.5-1.4-3.7-2.3m-11.1 34s-.9-1.1-2.3-1.9c2.2-.9 3.7-2.3 3.7-2.3s-1.5-1.4-3.7-2.3c1.4-.8 2.3-1.9 2.3-1.9s-2.5-2.9-5.6-2.9-5.6 2.9-5.6 2.9.9 1.1 2.3 1.9c-2.2.9-3.7 2.3-3.7 2.3s1.5 1.4 3.7 2.3c-1.4.8-2.3 1.9-2.3 1.9s2.5 2.9 5.6 2.9 5.6-2.9 5.6-2.9m-49.1 5s2.5 2.9 5.6 2.9 5.6-2.9 5.6-2.9-.9-1.1-2.3-1.9c2.2-.9 3.7-2.3 3.7-2.3s-1.5-1.4-3.7-2.3c1.4-.8 2.3-1.9 2.3-1.9s-2.5-2.9-5.6-2.9-5.6 2.9-5.6 2.9.9 1.1 2.3 1.9c-2.2.9-3.7 2.3-3.7 2.3s1.5 1.4 3.7 2.3c-1.4.9-2.3 1.9-2.3 1.9m27 17.2c1.4-.8 2.3-1.9 2.3-1.9s-2.5-2.9-5.6-2.9-5.6 2.9-5.6 2.9.9 1.1 2.3 1.9c-2.2.9-3.7 2.3-3.7 2.3s1.5 1.4 3.7 2.3c-1.4.8-2.3 1.9-2.3 1.9s2.5 2.9 5.6 2.9 5.6-2.9 5.6-2.9-.9-1.1-2.3-1.9c2.2-.9 3.7-2.3 3.7-2.3s-1.5-1.5-3.7-2.3m29.6 6.5c1.4-.8 2.3-1.9 2.3-1.9s-2.5-2.9-5.6-2.9-5.6 2.9-5.6 2.9.9 1.1 2.3 1.9c-2.2.9-3.7 2.3-3.7 2.3s1.5 1.4 3.7 2.3c-1.4.8-2.3 1.9-2.3 1.9s2.5 2.9 5.6 2.9 5.6-2.9 5.6-2.9-.9-1.1-2.3-1.9c2.2-.9 3.7-2.3 3.7-2.3s-1.5-1.4-3.7-2.3m24.2-23.4c1.4-.8 2.3-1.9 2.3-1.9s-2.5-2.9-5.6-2.9-5.6 2.9-5.6 2.9.9 1.1 2.3 1.9c-2.2.9-3.7 2.3-3.7 2.3s1.5 1.4 3.7 2.3c-1.4.8-2.3 1.9-2.3 1.9s2.5 2.9 5.6 2.9 5.6-2.9 5.6-2.9-.9-1.1-2.3-1.9c2.2-.9 3.7-2.3 3.7-2.3s-1.5-1.5-3.7-2.3m43.4-19.5c1.4-.8 2.3-1.9 2.3-1.9s-2.5-2.9-5.6-2.9-5.6 2.9-5.6 2.9.9 1.1 2.3 1.9c-2.2.9-3.7 2.3-3.7 2.3s1.5 1.4 3.7 2.3c-1.4.8-2.3 1.9-2.3 1.9s2.5 2.9 5.6 2.9 5.6-2.9 5.6-2.9-.9-1.1-2.3-1.9c2.2-.9 3.7-2.3 3.7-2.3s-1.5-1.5-3.7-2.3m-142.4 36.8c1.4-.8 2.3-1.9 2.3-1.9s-2.5-2.9-5.6-2.9-5.6 2.9-5.6 2.9.9 1.1 2.3 1.9c-2.2.9-3.7 2.3-3.7 2.3s1.5 1.4 3.7 2.3c-1.4.8-2.3 1.9-2.3 1.9s2.5 2.9 5.6 2.9 5.6-2.9 5.6-2.9-.9-1.1-2.3-1.9c2.2-.9 3.7-2.3 3.7-2.3s-1.5-1.4-3.7-2.3m28.9 28.5c1.4-.8 2.3-1.9 2.3-1.9s-2.5-2.9-5.6-2.9-5.6 2.9-5.6 2.9.9 1.1 2.3 1.9c-2.2.9-3.7 2.3-3.7 2.3s1.5 1.4 3.7 2.3c-1.4.8-2.3 1.9-2.3 1.9s2.5 2.9 5.6 2.9 5.6-2.9 5.6-2.9-.9-1.1-2.3-1.9c2.2-.9 3.7-2.3 3.7-2.3s-1.5-1.5-3.7-2.3m-36.8 5.2c1.4-.8 2.3-1.9 2.3-1.9s-2.5-2.9-5.6-2.9-5.6 2.9-5.6 2.9.9 1.1 2.3 1.9c-2.2.9-3.7 2.3-3.7 2.3s1.5 1.4 3.7 2.3c-1.4.8-2.3 1.9-2.3 1.9s2.5 2.9 5.6 2.9 5.6-2.9 5.6-2.9-.9-1.1-2.3-1.9c2.2-.9 3.7-2.3 3.7-2.3s-1.4-1.5-3.7-2.3m-30-21.2c1.4-.8 2.3-1.9 2.3-1.9s-2.5-2.9-5.6-2.9-5.6 2.9-5.6 2.9.9 1.1 2.3 1.9c-2.2.9-3.7 2.3-3.7 2.3s1.5 1.4 3.7 2.3c-1.4.8-2.3 1.9-2.3 1.9s2.5 2.9 5.6 2.9 5.6-2.9 5.6-2.9-.9-1.1-2.3-1.9c2.2-.9 3.7-2.3 3.7-2.3s-1.5-1.5-3.7-2.3M143 189.6c-1.4.8-2.3 1.9-2.3 1.9s2.5 2.9 5.6 2.9 5.6-2.9 5.6-2.9-.9-1.1-2.3-1.9c2.2-.9 3.7-2.3 3.7-2.3s-1.5-1.4-3.7-2.3c1.4-.8 2.3-1.9 2.3-1.9s-2.5-2.9-5.6-2.9-5.6 2.9-5.6 2.9.9 1.1 2.3 1.9c-2.2.9-3.7 2.3-3.7 2.3s1.5 1.4 3.7 2.3m38.3 10.2c1.4-.8 2.3-1.9 2.3-1.9s-2.5-2.9-5.6-2.9-5.6 2.9-5.6 2.9.9 1.1 2.3 1.9c-2.2.9-3.7 2.3-3.7 2.3s1.5 1.4 3.7 2.3c-1.4.8-2.3 1.9-2.3 1.9s2.5 2.9 5.6 2.9 5.6-2.9 5.6-2.9-.9-1.1-2.3-1.9c2.2-.9 3.7-2.3 3.7-2.3s-1.5-1.5-3.7-2.3M175 231c1.4-.8 2.3-1.9 2.3-1.9s-2.5-2.9-5.6-2.9-5.6 2.9-5.6 2.9.9 1.1 2.3 1.9c-2.2.9-3.7 2.3-3.7 2.3s1.5 1.4 3.7 2.3c-1.4.8-2.3 1.9-2.3 1.9s2.5 2.9 5.6 2.9 5.6-2.9 5.6-2.9-.9-1.1-2.3-1.9c2.2-.9 3.7-2.3 3.7-2.3s-1.5-1.4-3.7-2.3m-29.2-4.5s-.9-1.1-2.3-1.9c2.2-.9 3.7-2.3 3.7-2.3s-1.5-1.4-3.7-2.3c1.4-.8 2.3-1.9 2.3-1.9s-2.5-2.9-5.6-2.9-5.6 2.9-5.6 2.9.9 1.1 2.3 1.9c-2.2.9-3.7 2.3-3.7 2.3s1.5 1.4 3.7 2.3c-1.4.8-2.3 1.9-2.3 1.9s2.5 2.9 5.6 2.9c3 .1 5.6-2.9 5.6-2.9m7.6 29.5c1.4-.8 2.3-1.9 2.3-1.9s-2.5-2.9-5.6-2.9-5.6 2.9-5.6 2.9.9 1.1 2.3 1.9c-2.2.9-3.7 2.3-3.7 2.3s1.5 1.4 3.7 2.3c-1.4.8-2.3 1.9-2.3 1.9s2.5 2.9 5.6 2.9 5.6-2.9 5.6-2.9-.9-1.1-2.3-1.9c2.2-.9 3.7-2.3 3.7-2.3s-1.5-1.5-3.7-2.3"/></svg>