<svg version="1.1" viewBox="0 0 612.15 800" xmlns="http://www.w3.org/2000/svg"><path d="m612.15 263.39c0-47.098-12.335-91.253-34.062-129.52-57.611-59.294-182.93-73.031-214.04-0.281-31.96 74.573 53.686 157.56 91.113 150.97 47.659-8.41-8.411-117.75-8.411-117.75 72.89 137.37 56.07 95.319-75.694 221.48-131.76 126.16-266.33 392.35-285.95 403.56-0.841 0.561-1.682 0.982-2.664 1.402h516.82c9.111 0 14.999-9.672 10.934-17.802l-135.13-267.45c-2.943-5.747-0.841-12.896 4.766-16.12 79.058-45.416 132.32-130.64 132.32-228.48z" fill="url(#a)"/><path d="m612.15 263.39c0-47.098-12.335-91.253-34.062-129.52-57.611-59.294-182.93-73.031-214.04-0.281-31.96 74.573 53.686 157.56 91.113 150.97 47.659-8.41-8.411-117.75-8.411-117.75 72.89 137.37 56.07 95.319-75.694 221.48-131.76 126.16-266.33 392.35-285.95 403.56-0.841 0.561-1.682 0.982-2.664 1.402h516.82c9.111 0 14.999-9.672 10.934-17.802l-135.13-267.45c-2.943-5.747-0.841-12.896 4.766-16.12 79.058-45.416 132.32-130.64 132.32-228.48z" fill="url(#b)"/><path d="m85.097 791.84c19.625-11.214 154.19-277.54 285.95-403.7 131.76-126.16 148.58-84.105 75.694-221.48 0 0-278.95 391.08-379.87 584.52" fill="url(#c)"/><path d="m124.35 441.41c188.39-346.37 213.06-381.27 311.19-381.27 51.584 0 103.59 23.269 137.23 64.62-45.837-73.872-127-123.35-219.93-124.76h-320.02c-6.729 0-12.196 5.4668-12.196 12.195v645.08c19.064-49.201 51.444-119.57 103.73-215.87z" fill="url(#d)"/><path d="m371.05 388.14c-131.76 126.16-266.33 392.49-285.95 403.7-19.624 11.214-52.565 12.615-70.087-7.009-18.643-20.886-47.659-54.668 109.34-343.43 188.39-346.37 213.06-381.27 311.19-381.27 51.584 0 103.59 23.269 137.23 64.62 1.822 2.944 3.644 6.027 5.467 9.111-57.612-59.293-182.93-73.03-214.05-0.28-31.96 74.572 53.687 157.56 91.113 150.97 47.659-8.41-8.41-117.75-8.41-117.75 72.75 137.23 55.929 95.178-75.834 221.33z" fill="url(#e)"/><path d="m139.77 456.83c188.39-346.37 213.06-381.27 311.19-381.27 42.472 0 85.225 15.84 117.75 44.435-33.642-38.408-83.544-59.854-133.16-59.854-98.122 0-122.79 34.903-311.19 381.27-156.99 288.76-127.98 322.54-109.34 343.43 2.664 2.944 5.747 5.467 8.971 7.57-16.4-23.83-23.689-79.199 115.78-335.58z" fill="url(#f)" opacity=".3"/><defs><linearGradient id="a" x1="318.45" x2="534.32" y1="426.06" y2="476.52" gradientTransform="translate(-93.925)" gradientUnits="userSpaceOnUse"><stop stop-color="#FF6533" offset="0"/><stop stop-color="#FF5633" offset=".157"/><stop stop-color="#FF4333" offset=".434"/><stop stop-color="#FF3733" offset=".714"/><stop stop-color="#F33" offset="1"/></linearGradient><linearGradient id="b" x1="284.69" x2="671.57" y1="354.5" y2="654.47" gradientTransform="translate(-93.925)" gradientUnits="userSpaceOnUse"><stop stop-color="#BF3338" offset="0"/><stop stop-color="#F33" offset="1"/></linearGradient><linearGradient id="c" x1="297.31" x2="353.38" y1="413.59" y2="472.47" gradientTransform="translate(-93.925)" gradientUnits="userSpaceOnUse"><stop stop-color="#FF6533" offset="0"/><stop stop-color="#FF5633" offset=".157"/><stop stop-color="#FF4333" offset=".434"/><stop stop-color="#FF3733" offset=".714"/><stop stop-color="#F33" offset="1"/></linearGradient><linearGradient id="d" x1="399.25" x2="382.43" y1="514.94" y2="273.84" gradientTransform="translate(-93.925)" gradientUnits="userSpaceOnUse"><stop stop-color="#FF6533" offset="0"/><stop stop-color="#FF5633" offset=".157"/><stop stop-color="#FF4333" offset=".434"/><stop stop-color="#FF3733" offset=".714"/><stop stop-color="#F33" offset="1"/></linearGradient><linearGradient id="e" x1="326.38" x2="406.02" y1="409.46" y2="463.62" gradientTransform="translate(-93.925)" gradientUnits="userSpaceOnUse"><stop stop-color="#FBB040" offset="0"/><stop stop-color="#FB8840" offset="1"/></linearGradient><linearGradient id="f" x1="407.97" x2="326.67" y1="103.25" y2="997.56" gradientTransform="translate(-93.925)" gradientUnits="userSpaceOnUse"><stop stop-color="#fff" offset="0"/><stop stop-color="#fff" stop-opacity="0" offset="1"/></linearGradient></defs></svg>
