<svg fill="none" viewBox="0 0 48 47.001" xmlns="http://www.w3.org/2000/svg" xmlns:xlink="http://www.w3.org/1999/xlink"><linearGradient id="prefix__b" x2="1" gradientTransform="matrix(-10.126 -17.554 17.891 -9.9352 33.226 56.242)" gradientUnits="userSpaceOnUse"><stop stop-color="#fb7655" offset="0"/><stop stop-color="#e42b1e" offset=".41"/><stop stop-color="#900" offset=".99"/><stop stop-color="#900" offset="1"/></linearGradient><linearGradient id="prefix__a"><stop stop-color="#871101" offset="0"/><stop stop-color="#911209" offset=".99"/><stop stop-color="#911209" offset="1"/></linearGradient><linearGradient id="prefix__c" x2="1" gradientTransform="matrix(-13.05 -8.5988 4.7249 -23.75 44.854 48.402)" gradientUnits="userSpaceOnUse" xlink:href="#prefix__a"/><linearGradient id="prefix__d" x2="1" gradientTransform="matrix(-13.05 -8.5984 75.008 -1.4959 -.729 52.555)" gradientUnits="userSpaceOnUse" xlink:href="#prefix__a"/><linearGradient id="prefix__e" x2="1" gradientTransform="matrix(2.0232 12.91 -8.8318 2.9574 13.791 28.825)" gradientUnits="userSpaceOnUse"><stop stop-color="#fff" offset="0"/><stop stop-color="#e57252" offset=".23"/><stop stop-color="#de3b20" offset=".46"/><stop stop-color="#a60003" offset=".99"/><stop stop-color="#a60003" offset="1"/></linearGradient><linearGradient id="prefix__f" x2="1" gradientTransform="matrix(.74537 13.175 -13.229 .74234 29.905 17.878)" gradientUnits="userSpaceOnUse"><stop stop-color="#fff" offset="0"/><stop stop-color="#e4714e" offset=".23"/><stop stop-color="#be1a0d" offset=".56"/><stop stop-color="#a80d00" offset=".99"/><stop stop-color="#a80d00" offset="1"/></linearGradient><linearGradient id="prefix__g" x2="1" gradientTransform="matrix(2.2315 9.4425 -13.657 1.5429 42.467 5.3)" gradientUnits="userSpaceOnUse"><stop stop-color="#fff" offset="0"/><stop stop-color="#e46342" offset=".18"/><stop stop-color="#c82410" offset=".4"/><stop stop-color="#a80d00" offset=".99"/><stop stop-color="#a80d00" offset="1"/></linearGradient><linearGradient id="prefix__h" x2="1" gradientTransform="matrix(9.6162 -4.7211 14.002 3.2423 21.823 1.124)" gradientUnits="userSpaceOnUse"><stop stop-color="#fff" offset="0"/><stop stop-color="#c81f11" offset=".54"/><stop stop-color="#bf0905" offset=".99"/><stop stop-color="#bf0905" offset="1"/></linearGradient><linearGradient id="prefix__i" x2="1" gradientTransform="matrix(.79147 7.7805 -1.9827 3.1058 1.937 25.459)" gradientUnits="userSpaceOnUse"><stop stop-color="#fff" offset="0"/><stop stop-color="#de4024" offset=".31"/><stop stop-color="#bf190b" offset=".99"/><stop stop-color="#bf190b" offset="1"/></linearGradient><linearGradient id="prefix__j" x2="1" gradientTransform="matrix(37.205 -37.564 38.312 36.479 -23.652 18.656)" gradientUnits="userSpaceOnUse"><stop stop-color="#bd0012" offset="0"/><stop stop-color="#fff" offset=".07"/><stop stop-color="#fff" offset=".17"/><stop stop-color="#c82f1c" offset=".27"/><stop stop-color="#820c01" offset=".33"/><stop stop-color="#a31601" offset=".46"/><stop stop-color="#b31301" offset=".72"/><stop stop-color="#e82609" offset=".99"/><stop stop-color="#e82609" offset="1"/></linearGradient><linearGradient id="prefix__k" x2="1" gradientTransform="matrix(-11.206 -2.7157 3.6081 -8.4347 22.198 44.902)" gradientUnits="userSpaceOnUse"><stop stop-color="#8c0c01" offset="0"/><stop stop-color="#990c00" offset=".54"/><stop stop-color="#a80d0e" offset=".99"/><stop stop-color="#a80d0e" offset="1"/></linearGradient><linearGradient id="prefix__l" x2="1" gradientTransform="matrix(-9.9554 -8.7611 7.9433 -10.98 39.278 32.968)" gradientUnits="userSpaceOnUse"><stop stop-color="#7e110b" offset="0"/><stop stop-color="#9e0c00" offset=".99"/><stop stop-color="#9e0c00" offset="1"/></linearGradient><linearGradient id="prefix__m" x2="1" gradientTransform="matrix(-4.9591 -5.2054 5.1661 -4.9969 44.325 13.902)" gradientUnits="userSpaceOnUse"><stop stop-color="#79130d" offset="0"/><stop stop-color="#9e120b" offset=".99"/><stop stop-color="#9e120b" offset="1"/></linearGradient><radialGradient id="prefix__n" cx=".5" cy=".5" r=".5" gradientTransform="matrix(24.4 0 0 12.519 22.646 12.625)" gradientUnits="userSpaceOnUse"><stop stop-color="#a80d00" offset="0"/><stop stop-color="#7e0e08" offset=".99"/><stop stop-color="#7e0e08" offset="1"/></radialGradient><radialGradient id="prefix__o" cx=".5" cy=".5" r=".5" gradientTransform="matrix(32.436 0 0 24.793 1.732 22.274)" gradientUnits="userSpaceOnUse"><stop stop-color="#a30c00" offset="0"/><stop stop-color="#800e08" offset=".99"/><stop stop-color="#800e08" offset="1"/></radialGradient><linearGradient id="prefix__p" x2="1" gradientTransform="matrix(-4.0412 -13.463 6.7818 -8.0221 3.07 50.953)" gradientUnits="userSpaceOnUse"><stop stop-color="#8b2114" offset="0"/><stop stop-color="#9e100a" offset=".43"/><stop stop-color="#b3100c" offset=".99"/><stop stop-color="#b3100c" offset="1"/></linearGradient><linearGradient id="prefix__q" x2="1" gradientTransform="matrix(9.0603 3.9268 -9.5742 3.716 42.252 .473)" gradientUnits="userSpaceOnUse"><stop stop-color="#b31000" offset="0"/><stop stop-color="#910f08" offset=".44"/><stop stop-color="#791c12" offset=".99"/><stop stop-color="#791c12" offset="1"/></linearGradient><path d="M37.188 31.021L9.783 47.001l35.484-2.365L48 9.503z" fill="url(#prefix__b)"/><path d="M45.325 44.611l-3.05-20.669-8.307 10.771z" fill="url(#prefix__c)"/><path d="M45.366 44.612L23.022 42.89 9.901 46.955z" fill="url(#prefix__d)"/><path d="M9.933 46.96l5.582-17.955-12.283 2.579z" fill="url(#prefix__e)"/><path d="M33.966 34.773L28.83 15.02 14.132 28.548z" fill="url(#prefix__f)"/><path d="M46.835 15.298L32.941 4.156l-3.869 12.281z" fill="url(#prefix__g)"/><path d="M40.337.184l-8.171 4.433L27.01.124z" fill="url(#prefix__h)"/><path d="M0 37.606l3.423-6.13-2.769-7.303z" fill="url(#prefix__i)"/><path d="M.47 23.942l2.786 7.76 12.106-2.667 13.821-12.612 3.9-12.165L26.944 0 16.5 3.837c-3.29 3.004-9.674 8.949-9.904 9.06-.228.115-4.215 7.515-6.127 11.046z" fill="#fff"/><path d="M10.252 10.003c7.13-6.941 16.322-11.042 19.85-7.548 3.524 3.494-.214 11.987-7.344 18.926S6.55 32.646 3.025 29.152c-3.527-3.492.097-12.21 7.227-19.15z" fill="url(#prefix__j)"/><path d="M9.933 46.952l5.538-18.012 18.393 5.802c-6.651 6.123-14.047 11.3-23.931 12.21z" fill="url(#prefix__k)"/><path d="M29.207 16.387l4.722 18.364c5.555-5.735 10.54-11.9 12.982-19.527z" fill="url(#prefix__l)"/><path d="M46.864 15.317c1.89-5.6 2.325-13.632-6.585-15.124l-7.312 3.965z" fill="url(#prefix__m)"/><path d="M0 37.525c.262 9.242 7.052 9.38 9.945 9.46l-6.682-15.32z" fill="#9e1209"/><path d="M29.234 16.416c4.269 2.576 12.872 7.75 13.046 7.845.272.15 3.71-5.692 4.49-8.994z" fill="url(#prefix__n)"/><path d="M15.464 28.94l7.404 14.025c4.377-2.33 7.806-5.171 10.945-8.214z" fill="url(#prefix__o)"/><path d="M3.234 31.683L2.185 43.948c1.98 2.655 4.702 2.886 7.559 2.679-2.067-5.05-6.195-15.148-6.51-14.944z" fill="url(#prefix__p)"/><path d="M32.924 4.189l14.708 2.026C46.847 2.949 44.436.843 40.328.183z" fill="url(#prefix__q)"/></svg>
