<svg xmlns="http://www.w3.org/2000/svg" viewBox="0 0 104.49973 104.49973"><defs><filter id="Z" width="1.215" height="1.217" x="-.108" y="-.109" color-interpolation-filters="sRGB"><feGaussianBlur stdDeviation="3.924"/></filter><filter id="ab" width="1.151" height="1.139" x="-.075" y="-.07" color-interpolation-filters="sRGB"><feGaussianBlur stdDeviation="2.437"/></filter><filter id="ad" width="1.067" height="1.037" x="-.034" y="-.019" color-interpolation-filters="sRGB"><feGaussianBlur stdDeviation=".37"/></filter><filter id="M" width="1.202" height="1.085" x="-.101" y="-.043" color-interpolation-filters="sRGB"><feGaussianBlur stdDeviation="1.132"/></filter><filter id="am" width="1.141" height="1.301" x="-.07" y="-.151" color-interpolation-filters="sRGB"><feGaussianBlur stdDeviation="1.025"/></filter><filter id="ap" width="1.141" height="1.301" x="-.07" y="-.151" color-interpolation-filters="sRGB"><feGaussianBlur stdDeviation="1.025"/></filter><filter id="af" width="1.401" height="1.468" x="-.2" y="-.234" color-interpolation-filters="sRGB"><feGaussianBlur stdDeviation="2.844"/></filter><filter id="ai" width="1.183" height="1.213" x="-.091" y="-.107" color-interpolation-filters="sRGB"><feGaussianBlur stdDeviation="1.297"/></filter><filter id="B" width="1.865" height="1.579" x="-.432" y="-.29" color-interpolation-filters="sRGB"><feGaussianBlur stdDeviation=".86"/></filter><filter id="C" width="2.161" height="1.972" x="-.581" y="-.486" color-interpolation-filters="sRGB"><feGaussianBlur stdDeviation="2.64"/></filter><filter id="O" width="1.152" height="1.136" x="-.076" y="-.068" color-interpolation-filters="sRGB"><feGaussianBlur stdDeviation="2.209"/></filter><filter id="R" width="1.29" height="1.286" x="-.145" y="-.143" color-interpolation-filters="sRGB"><feGaussianBlur stdDeviation="4.779"/></filter><filter id="T" width="1.231" height="1.25" x="-.115" y="-.125" color-interpolation-filters="sRGB"><feGaussianBlur stdDeviation="3.173"/></filter><filter id="W" width="1.042" height="1.258" x="-.021" y="-.129" color-interpolation-filters="sRGB"><feGaussianBlur stdDeviation=".479"/></filter><filter id="E" width="1.355" height="1.319" x="-.178" y="-.159" color-interpolation-filters="sRGB"><feGaussianBlur stdDeviation=".901"/></filter><filter id="A" width="2.633" height="1.116" x="-.816" y="-.058" color-interpolation-filters="sRGB"><feGaussianBlur stdDeviation="1.446"/></filter><filter id="z" width="1.174" height="1.162" x="-.087" y="-.081" color-interpolation-filters="sRGB"><feGaussianBlur stdDeviation=".785"/></filter><filter id="x" width="1.102" height="1.147" x="-.051" y="-.073" color-interpolation-filters="sRGB"><feGaussianBlur stdDeviation="1.138"/></filter><filter id="v" width="1.1" height="1.092" x="-.05" y="-.046" color-interpolation-filters="sRGB"><feGaussianBlur stdDeviation=".643"/></filter><filter id="K" width="1.235" height="1.08" x="-.118" y="-.04" color-interpolation-filters="sRGB"><feGaussianBlur stdDeviation="1.352"/></filter><filter id="aN" width="1.311" height="1.442" x="-.155" y="-.221" color-interpolation-filters="sRGB"><feGaussianBlur stdDeviation=".899"/></filter><filter id="aO" width="1.069" height="1.159" x="-.034" y="-.079" color-interpolation-filters="sRGB"><feGaussianBlur stdDeviation=".758"/></filter><filter id="aQ" width="1.322" height="1.261" x="-.161" y="-.13" color-interpolation-filters="sRGB"><feGaussianBlur stdDeviation=".849"/></filter><filter id="aX" width="1.093" height="1.178" x="-.047" y="-.089" color-interpolation-filters="sRGB"><feGaussianBlur stdDeviation=".11"/></filter><filter id="aZ" width="1.232" height="1.211" x="-.116" y="-.105" color-interpolation-filters="sRGB"><feGaussianBlur stdDeviation=".11"/></filter><filter id="bc" width="1.243" height="1.272" x="-.121" y="-.136" color-interpolation-filters="sRGB"><feGaussianBlur stdDeviation=".264"/></filter><filter id="at" width="1.469" height="1.292" x="-.235" y="-.146" color-interpolation-filters="sRGB"><feGaussianBlur stdDeviation=".513"/></filter><filter id="ax" width="1.046" height="1.051" x="-.023" y="-.026" color-interpolation-filters="sRGB"><feGaussianBlur stdDeviation=".135"/></filter><filter id="aK" width="1.046" height="1.05" x="-.023" y="-.025" color-interpolation-filters="sRGB"><feGaussianBlur stdDeviation=".147"/></filter><filter id="az" width="1.316" height="1.419" x="-.158" y="-.209" color-interpolation-filters="sRGB"><feGaussianBlur stdDeviation=".249"/></filter><filter id="aF" width="1.357" height="1.362" x="-.179" y="-.181" color-interpolation-filters="sRGB"><feGaussianBlur stdDeviation=".519"/></filter><filter id="D" width="1.584" height="1.616" x="-.292" y="-.308" color-interpolation-filters="sRGB"><feGaussianBlur stdDeviation="1.74"/></filter><filter id="I" width="1.073" height="1.148" x="-.037" y="-.074" color-interpolation-filters="sRGB"><feGaussianBlur stdDeviation=".932"/></filter><filter id="G" width="1.153" height="1.258" x="-.076" y="-.129" color-interpolation-filters="sRGB"><feGaussianBlur stdDeviation="2.036"/></filter><linearGradient id="e"><stop offset="0" stop-color="#fefefc"/><stop offset=".757" stop-color="#fefefc"/><stop offset="1" stop-color="#d4d4d4"/></linearGradient><linearGradient id="d"><stop offset="0" stop-color="#b98309"/><stop offset="1" stop-color="#382605"/></linearGradient><linearGradient id="c"><stop offset="0" stop-color="#7c7c7c"/><stop offset="1" stop-color="#7c7c7c" stop-opacity=".329"/></linearGradient><linearGradient id="j"><stop offset="0" stop-color="#110800"/><stop offset=".591" stop-color="#a65a00" stop-opacity=".8"/><stop offset="1" stop-color="#ff921e" stop-opacity="0"/></linearGradient><linearGradient id="b"><stop offset="0" stop-color="#3e2a06"/><stop offset="1" stop-color="#ad780a"/></linearGradient><linearGradient id="i"><stop offset="0"/><stop offset="1" stop-opacity=".249"/></linearGradient><linearGradient id="g"><stop offset="0" stop-color="#d2940a"/><stop offset=".751" stop-color="#d89c08"/><stop offset=".866" stop-color="#b67e07"/><stop offset="1" stop-color="#946106"/></linearGradient><linearGradient id="h"><stop offset="0" stop-color="#3a2903"/><stop offset=".555" stop-color="#735208"/><stop offset="1" stop-color="#ac8c04"/></linearGradient><linearGradient id="a"><stop offset="0" stop-color="#646464" stop-opacity="0"/><stop offset=".306" stop-color="#646464" stop-opacity=".583"/><stop offset=".47" stop-color="#646464"/><stop offset=".728" stop-color="#646464" stop-opacity=".257"/><stop offset="1" stop-color="#646464" stop-opacity="0"/></linearGradient><linearGradient id="aA" x1="213.02" x2="219.73" y1="132.77" y2="140.72" gradientTransform="translate(-60 -58.362)" gradientUnits="userSpaceOnUse"><stop offset="0" stop-color="#949494" stop-opacity=".392"/><stop offset=".5" stop-color="#949494"/><stop offset="1" stop-color="#949494" stop-opacity=".392"/></linearGradient><linearGradient id="aH" x1="337.25" x2="358.62" y1="119.99" y2="132.49" gradientTransform="translate(-250)" gradientUnits="userSpaceOnUse"><stop offset="0" stop-color="#747474"/><stop offset=".125" stop-color="#8c8c8c"/><stop offset=".25" stop-color="#a4a4a4"/><stop offset=".5" stop-color="#d4d4d4"/><stop offset=".619" stop-color="#d4d4d4"/><stop offset="1" stop-color="#7c7c7c"/></linearGradient><linearGradient id="aJ" x1="294.51" x2="308.74" y1="114.56" y2="128" gradientTransform="translate(-300 -1)" gradientUnits="userSpaceOnUse" href="#a"/><linearGradient id="aw" x1="253.23" x2="266.63" y1="115.67" y2="128.57" gradientTransform="translate(-300 -1)" gradientUnits="userSpaceOnUse" href="#a"/><linearGradient id="as" x1="164.05" x2="169.88" y1="132.06" y2="142.49" gradientTransform="translate(-50 -58.362)" gradientUnits="userSpaceOnUse"><stop offset="0" stop-color="#757574" stop-opacity="0"/><stop offset=".263" stop-color="#757574"/><stop offset=".5" stop-color="#757574"/><stop offset="1" stop-color="#757574" stop-opacity="0"/></linearGradient><linearGradient id="aP" x1="256.86" x2="313.34" y1="158.31" y2="157.87" gradientTransform="translate(-40.602 -20.607)scale(.31845)" gradientUnits="userSpaceOnUse"><stop offset="0" stop-color="#ad780a"/><stop offset=".12" stop-color="#d89e08"/><stop offset=".255" stop-color="#edb80b"/><stop offset=".392" stop-color="#ebc80d"/><stop offset=".527" stop-color="#f5d838"/><stop offset=".769" stop-color="#f6d811"/><stop offset="1" stop-color="#f5cd31"/></linearGradient><linearGradient id="ba" x1="243.03" x2="243.47" y1="157.02" y2="159.77" gradientUnits="userSpaceOnUse"><stop offset="0" stop-color="#f5ce2d"/><stop offset="1" stop-color="#d79b08"/></linearGradient><linearGradient id="N" x1="338.29" x2="341.98" y1="323.9" y2="351.49" gradientTransform="translate(-310)" gradientUnits="userSpaceOnUse"><stop offset="0"/><stop offset="1" stop-opacity="0"/></linearGradient><linearGradient id="P" x1="442.04" x2="490.12" y1="371.54" y2="293.59" gradientTransform="translate(-72.447 -20.608)scale(.31845)" gradientUnits="userSpaceOnUse" href="#b"/><linearGradient id="U" x1="355.16" x2="353.75" y1="289.59" y2="302.32" gradientTransform="translate(-150 -60.362)" gradientUnits="userSpaceOnUse"><stop offset="0" stop-color="#f3cd0c"/><stop offset="1" stop-color="#f3cd0c" stop-opacity="0"/></linearGradient><linearGradient id="an" x1="358.5" x2="361.5" y1="279.36" y2="279.24" gradientUnits="userSpaceOnUse" href="#c"/><linearGradient id="X" x1="123.13" x2="170.86" y1="301.54" y2="381.62" gradientTransform="translate(-18.31 -20.608)scale(.31845)" gradientUnits="userSpaceOnUse" href="#d"/><linearGradient id="ac" x1="171.57" x2="186.6" y1="323.99" y2="352.28" gradientTransform="translate(-80.53 -60.13)" gradientUnits="userSpaceOnUse"><stop offset="0" stop-color="#ebc40c"/><stop offset="1" stop-color="#ebc40c" stop-opacity="0"/></linearGradient><linearGradient id="k" x1="123.13" x2="170.86" y1="301.54" y2="381.62" gradientUnits="userSpaceOnUse" href="#d"/><linearGradient id="l" x1="442.04" x2="490.12" y1="371.54" y2="293.59" gradientTransform="translate(-250 -58.362)" gradientUnits="userSpaceOnUse" href="#b"/><linearGradient id="n" x1="442.04" x2="490.12" y1="371.54" y2="293.59" gradientTransform="matrix(.87491 0 0 .81149 -158.36 15.227)" gradientUnits="userSpaceOnUse" href="#b"/><linearGradient id="o" x1="442.04" x2="490.12" y1="371.54" y2="293.59" gradientTransform="translate(-500 -116.72)" gradientUnits="userSpaceOnUse" href="#b"/><radialGradient id="aq" cx="223.2" cy="137.66" r="14.572" gradientTransform="matrix(.25961 -.01093 .00943 .39743 -14.947 -29.06)" gradientUnits="userSpaceOnUse" href="#e"/><radialGradient id="ay" cx="223.2" cy="137.66" r="14.572" gradientTransform="matrix(.34577 -.01093 .01256 .39743 -22.94 -29.06)" gradientUnits="userSpaceOnUse" href="#e"/><radialGradient id="aL" cx="275.54" cy="150.65" r="15.382" gradientTransform="matrix(.22223 -.1615 .1466 .2017 -34.9 40.545)" gradientUnits="userSpaceOnUse"><stop offset="0" stop-color="#020204"/><stop offset=".734" stop-color="#020204"/><stop offset="1" stop-color="#5c5c5c"/></radialGradient><radialGradient id="aM" cx="294.48" cy="193.1" r="31.111" gradientTransform="matrix(.29813 -.12305 .0864 .20935 -51.582 26.116)" gradientUnits="userSpaceOnUse" href="#g"/><radialGradient id="aR" cx="77.672" cy="147.09" r="3.23" gradientTransform="matrix(1 0 0 .58333 60 3.054)" gradientUnits="userSpaceOnUse" href="#h"/><radialGradient id="aY" cx="63.125" cy="147.44" r="1.535" gradientTransform="matrix(1 0 0 1.0751 60 -69.456)" gradientUnits="userSpaceOnUse" href="#h"/><radialGradient id="au" cx="268.07" cy="126.53" r="35.511" gradientTransform="matrix(.20141 -.03316 .03065 .18616 -3.126 114.04)" gradientUnits="userSpaceOnUse"><stop offset="0" stop-color="#c8c8c8"/><stop offset="1" stop-color="#797978"/></radialGradient><radialGradient id="u" cx="336.22" cy="220.54" r="27.391" gradientTransform="matrix(-.69844 0 0 .76336 166.31 50.22)" gradientUnits="userSpaceOnUse" href="#i"/><radialGradient id="w" cx="312.15" cy="236.37" r="27.391" gradientTransform="matrix(1 0 0 .76336 -150 -8.142)" gradientUnits="userSpaceOnUse" href="#i"/><radialGradient id="y" cx="275.55" cy="225.13" r="10.845" gradientTransform="matrix(1 0 0 1.0692 -150 -73.222)" gradientUnits="userSpaceOnUse" href="#i"/><radialGradient id="ae" cx="363.34" cy="303.42" r="16.846" gradientTransform="matrix(1.3082 .35053 -.36795 1.3732 -150.51 -298.71)" gradientUnits="userSpaceOnUse" href="#j"/><radialGradient id="ag" cx="363.34" cy="303.42" r="16.846" gradientTransform="matrix(1.3082 .35053 -.36795 1.3732 -310.51 -240.35)" gradientUnits="userSpaceOnUse" href="#j"/><radialGradient id="ak" cx="382.23" cy="246.86" r="20.538" gradientTransform="matrix(.36025 .1568 -.07247 .16649 260.62 181.94)" gradientUnits="userSpaceOnUse" href="#c"/><radialGradient id="p" cx="223.2" cy="137.66" r="14.572" gradientTransform="matrix(1.0858 -.03431 .03944 1.248 -15.542 -75.905)" gradientUnits="userSpaceOnUse" href="#e"/><radialGradient id="q" cx="223.2" cy="137.66" r="14.572" gradientTransform="matrix(.81524 -.03431 .02961 1.248 9.562 -75.905)" gradientUnits="userSpaceOnUse" href="#e"/><radialGradient id="r" cx="294.48" cy="193.1" r="31.111" gradientTransform="matrix(.81495 -.25453 .31491 .43302 -75.371 150.74)" gradientUnits="userSpaceOnUse" href="#g"/><clipPath id="aa"><path fill="url(#k)" d="M137.58 281.02c1.6-.663 3.398-.784 5.1-.47 1.703.314 3.312 1.05 4.744 2.023 2.864 1.946 4.988 4.777 7.023 7.58 4.672 6.433 9.168 13.001 13.245 19.828 3.306 5.538 6.343 11.257 10.164 16.453 2.494 3.392 5.306 6.54 7.813 9.922s4.728 7.056 5.839 11.117c1.444 5.277.885 11.093-1.627 15.953-1.766 3.42-4.476 6.353-7.772 8.34-3.296 1.986-7.17 3.014-11.016 2.87-6.114-.23-11.7-3.286-17.384-5.55-11.581-4.612-24.16-6.059-36.097-9.651-3.669-1.104-7.276-2.41-10.97-3.426-1.641-.452-3.309-.849-4.859-1.552s-3-1.749-3.862-3.217c-.666-1.134-.948-2.47-.93-3.785.018-1.316.326-2.615.774-3.852.896-2.474 2.343-4.713 3.32-7.157 1.595-3.99 1.882-8.388 1.667-12.679-.215-4.29-.91-8.545-1.205-12.83-.13-1.915-.18-3.853.185-5.737.366-1.883 1.176-3.724 2.558-5.055 1.274-1.227 2.965-1.955 4.696-2.317 1.732-.36 3.516-.377 5.284-.337s3.54.134 5.303-.01c1.763-.146 3.534-.541 5.07-1.42 1.46-.834 2.654-2.074 3.643-3.433.99-1.36 1.79-2.846 2.61-4.314.819-1.469 1.667-2.932 2.74-4.226s2.39-2.423 3.943-3.067" transform="matrix(1 0 0 1.0183 0 -4.031)"/></clipPath><clipPath id="Y"><path fill="url(#k)" d="M137.58 281.02c1.6-.663 3.398-.784 5.1-.47 1.703.314 3.312 1.05 4.744 2.023 2.864 1.946 4.988 4.777 7.023 7.58 4.672 6.433 9.168 13.001 13.245 19.828 3.306 5.538 6.343 11.257 10.164 16.453 2.494 3.392 5.306 6.54 7.813 9.922s4.728 7.056 5.839 11.117c1.444 5.277.885 11.093-1.627 15.953-1.766 3.42-4.476 6.353-7.772 8.34-3.296 1.986-7.17 3.014-11.016 2.87-6.114-.23-11.7-3.286-17.384-5.55-11.581-4.612-24.16-6.059-36.097-9.651-3.669-1.104-7.276-2.41-10.97-3.426-1.641-.452-3.309-.849-4.859-1.552s-3-1.749-3.862-3.217c-.666-1.134-.948-2.47-.93-3.785.018-1.316.326-2.615.774-3.852.896-2.474 2.343-4.713 3.32-7.157 1.595-3.99 1.882-8.388 1.667-12.679-.215-4.29-.91-8.545-1.205-12.83-.13-1.915-.18-3.853.185-5.737.366-1.883 1.176-3.724 2.558-5.055 1.274-1.227 2.965-1.955 4.696-2.317 1.732-.36 3.516-.377 5.284-.337s3.54.134 5.303-.01c1.763-.146 3.534-.541 5.07-1.42 1.46-.834 2.654-2.074 3.643-3.433.99-1.36 1.79-2.846 2.61-4.314.819-1.469 1.667-2.932 2.74-4.226s2.39-2.423 3.943-3.067" transform="translate(-240 -1)"/></clipPath><clipPath id="Q"><path fill="url(#l)" d="M513.19 336.61c-2.624 3.115-6.268 5.17-9.896 7.02-6.19 3.154-12.602 5.922-18.42 9.716-3.898 2.543-7.496 5.527-10.86 8.743-2.878 2.75-5.606 5.687-8.833 8.017-3.256 2.352-7.02 4.055-10.991 4.65-4.83.725-9.821-.212-14.299-2.164-3.137-1.367-6.156-3.323-7.963-6.229-1.814-2.917-2.228-6.488-2.233-9.924-.008-6.076 1.119-12.09 2.179-18.073.88-4.972 1.72-9.955 2.26-14.975.983-9.13.976-18.353.32-27.513-.11-1.534-.238-3.083-.008-4.604s.855-3.037 2.02-4.04c1.078-.926 2.521-1.336 3.94-1.414 1.419-.079 2.834.146 4.24.352 3.312.484 6.651.865 9.889 1.716 2.043.538 4.033 1.26 6.072 1.811 3.403.92 6.967 1.362 10.467.952 3.77-.44 7.43-1.857 11.224-1.765 1.557.038 3.102.332 4.587.8 1.515.478 3.009 1.162 4.123 2.295.846.862 1.435 1.946 1.878 3.07.66 1.673 1.015 3.456 1.167 5.249.135 1.587.114 3.194.415 4.759.495 2.574 1.847 4.923 3.528 6.935s3.69 3.72 5.696 5.408c2 1.68 4.011 3.354 6.168 4.828 1.012.692 2.056 1.34 3.017 2.1.96.762 1.845 1.647 2.445 2.716.815 1.45 1.064 3.208.538 4.877s-1.482 3.276-2.67 4.688z"/></clipPath><clipPath id="S"><path fill="url(#n)" d="M509.36 335.74c-2.296 2.528-5.484 4.196-8.658 5.697-5.415 2.56-11.025 4.805-16.116 7.884-3.41 2.063-6.559 4.485-9.502 7.095-2.518 2.231-4.905 4.615-7.728 6.506-2.848 1.908-6.14 3.29-9.616 3.773-4.226.589-8.592-.172-12.51-1.756-2.745-1.11-5.385-2.696-6.966-5.055-1.588-2.367-1.95-5.265-1.954-8.053-.007-4.93.978-9.81 1.906-14.666.77-4.034 1.505-8.078 1.978-12.152.86-7.41.854-14.893.28-22.327-.097-1.245-.208-2.502-.008-3.736s.748-2.464 1.768-3.278c.943-.752 2.206-1.084 3.447-1.148s2.48.119 3.71.286c2.898.392 5.82.701 8.652 1.393 1.787.436 3.528 1.022 5.312 1.469 2.977.747 6.095 1.105 9.158.772 3.298-.357 6.5-1.506 9.82-1.432 1.362.031 2.713.27 4.013.65 1.326.387 2.632.942 3.607 1.862.74.699 1.256 1.579 1.644 2.49.577 1.358.888 2.806 1.02 4.26.118 1.289.1 2.592.363 3.862.433 2.09 1.616 3.995 3.087 5.628 1.47 1.632 3.228 3.019 4.984 4.388 1.75 1.364 3.509 2.723 5.396 3.918.885.562 1.799 1.087 2.64 1.705.84.618 1.613 1.336 2.14 2.204.712 1.176.93 2.603.47 3.957s-1.297 2.659-2.337 3.804"/></clipPath><clipPath id="V"><path fill="url(#o)" d="M263.19 278.25c-2.624 3.115-6.268 5.17-9.896 7.02-6.19 3.154-12.603 5.922-18.42 9.716-3.899 2.543-7.496 5.527-10.86 8.743-2.878 2.75-5.606 5.687-8.833 8.017-3.256 2.352-7.02 4.055-10.991 4.65-4.83.725-9.821-.212-14.299-2.164-3.138-1.367-6.156-3.323-7.963-6.229-1.814-2.917-2.228-6.488-2.233-9.924-.008-6.076 1.118-12.09 2.179-18.073.88-4.972 1.72-9.955 2.26-14.975.983-9.13.976-18.353.32-27.513-.11-1.534-.238-3.083-.008-4.604s.855-3.037 2.02-4.04c1.077-.926 2.521-1.336 3.94-1.414 1.418-.079 2.834.146 4.24.352 3.312.484 6.651.865 9.889 1.716 2.043.538 4.033 1.26 6.072 1.811 3.403.92 6.967 1.362 10.467.952 3.77-.44 7.43-1.857 11.224-1.765 1.557.038 3.102.332 4.587.8 1.515.478 3.009 1.162 4.122 2.295.847.862 1.436 1.946 1.88 3.07.659 1.673 1.014 3.456 1.166 5.249.135 1.587.114 3.194.415 4.759.495 2.574 1.847 4.923 3.528 6.935s3.69 3.72 5.696 5.408c2 1.68 4.011 3.354 6.168 4.828 1.012.692 2.056 1.34 3.017 2.1.96.762 1.845 1.647 2.445 2.716.815 1.45 1.064 3.208.538 4.877s-1.482 3.276-2.67 4.688z"/></clipPath><clipPath id="J"><path fill="#020204" d="M304.85 225.45c5.977 4.895 9.769 12.286 10.943 20.003.916 6.019.32 12.195-1.012 18.132s-3.391 11.676-5.434 17.401c-.814 2.283-1.633 4.587-1.956 6.993-.324 2.406-.119 4.955 1.02 7.088 1.308 2.446 3.746 4.13 6.368 4.923 2.588.783 5.383.766 8.003.102 2.62-.665 5.066-1.964 7.199-3.65 5.417-4.283 8.686-10.949 9.952-17.812 1.265-6.863.684-13.95-.493-20.83-1.604-9.381-4.304-18.55-7.74-27.408a96 96 0 0 0-9.618-18.52c-3.779-5.668-9.141-10.093-13.103-15.635-1.376-1.925-3.031-3.931-4.384-5.878-2.916-4.198-2.255-3.415-4.064-6.132-1.312-1.971-3.384-2.648-5.565-3.51-2.18-.863-4.629-1.117-6.88-.472-2.968.85-5.393 3.231-6.683 6.082s-1.515 6.123-1.013 9.22c.647 3.996 2.442 7.703 4.465 11.19 2.286 3.937 4.933 7.726 8.385 10.653 3.602 3.055 7.958 5.07 11.61 8.06"/></clipPath><clipPath id="L"><path fill="#020204" d="M240.47 195.04c-7.073 8.037-14.352 15.816-18.346 24.505-1.976 4.413-2.91 9.207-4.265 13.849-1.538 5.272-3.626 10.37-5.97 15.336-2.166 4.585-4.55 9.063-6.94 13.536-1.738 3.254-3.505 6.581-4.107 10.221-.477 2.876-.199 5.844.533 8.666.733 2.822 1.91 5.51 3.238 8.106 5.667 11.075 14.17 20.622 24.242 27.925a85 85 0 0 0 14.602 8.526c2.783 1.27 5.714 2.405 8.772 2.458 1.53.026 3.074-.226 4.474-.84 1.4-.616 2.651-1.605 3.483-2.888 1.023-1.578 1.37-3.538 1.164-5.407-.205-1.87-.934-3.653-1.913-5.26-2.39-3.922-6.165-6.76-9.796-9.572-7.84-6.074-15.425-12.48-22.682-19.24-2.05-1.909-4.099-3.878-5.53-6.285-1.395-2.343-2.148-5.013-2.658-7.692-1.4-7.349-1.041-15.083 1.46-22.133.978-2.758 2.27-5.392 3.518-8.04 2.161-4.589 4.207-9.265 7.049-13.467 3.538-5.23 8.267-9.66 11.15-15.278 2.435-4.741 3.42-10.072 4.363-15.318.737-4.104 2.15-8.124 2.869-12.232-1.406 2.666-5.938 7.043-8.71 10.525z"/></clipPath><clipPath id="al"><path fill="#020204" d="M386.19 285.33c-.405-1.104-1.118-2.082-1.99-2.87-.873-.788-1.901-1.392-2.983-1.851-2.165-.919-4.521-1.262-6.832-1.696-2.18-.41-4.342-.906-6.528-1.277-2.271-.386-4.618-.633-6.865-.126-1.966.444-3.785 1.46-5.272 2.819-1.487 1.36-2.649 3.056-3.485 4.89-1.472 3.23-1.934 6.865-1.654 10.403.21 2.633.876 5.346 2.61 7.34 1.4 1.61 3.386 2.614 5.433 3.22a18.4 18.4 0 0 0 10.86-.155 28.6 28.6 0 0 0 14.33-10.78c1.139-1.649 2.112-3.447 2.553-5.403.336-1.49.349-3.08-.178-4.514"/></clipPath><clipPath id="ao"><path fill="#020204" d="M386.19 285.33c-.405-1.104-1.118-2.082-1.99-2.87-.873-.788-1.901-1.392-2.983-1.851-2.165-.919-4.521-1.262-6.832-1.696-2.18-.41-4.342-.906-6.528-1.277-2.271-.386-4.618-.633-6.865-.126-1.966.444-3.785 1.46-5.272 2.819-1.487 1.36-2.649 3.056-3.485 4.89-1.472 3.23-1.934 6.865-1.654 10.403.21 2.633.876 5.346 2.61 7.34 1.4 1.61 3.386 2.614 5.433 3.22a18.4 18.4 0 0 0 10.86-.155 28.6 28.6 0 0 0 14.33-10.78c1.139-1.649 2.112-3.447 2.553-5.403.336-1.49.349-3.08-.178-4.514"/></clipPath><clipPath id="aI"><path fill="url(#p)" d="M85.75 122.36c-2.78 1.91-5.11 4.575-6.25 7.75-1.436 4.002-.886 8.48.5 12.5 1.42 4.117 3.794 8.041 7.38 10.512 1.792 1.236 3.867 2.083 6.03 2.339 2.162.255 4.409-.095 6.34-1.101 2.353-1.226 4.148-3.373 5.262-5.781 1.115-2.408 1.589-5.07 1.738-7.72.19-3.375-.14-6.806-1.25-10-1.205-3.468-3.39-6.67-6.473-8.666-1.541-.998-3.292-1.683-5.11-1.935-1.82-.252-3.706-.063-5.417.602-.976.379-1.888.907-2.75 1.5"/></clipPath><clipPath id="av"><path fill="url(#q)" d="M54.232 122.36c-1.781.097-3.485.919-4.788 2.137s-2.221 2.812-2.786 4.503c-1.13 3.384-.875 7.052-.619 10.61.233 3.222.47 6.506 1.677 9.502.603 1.498 1.45 2.91 2.58 4.064s2.552 2.042 4.119 2.434c1.469.368 3.038.292 4.483-.162s2.763-1.279 3.846-2.338c1.579-1.545 2.643-3.566 3.253-5.69.61-2.122.784-4.35.753-6.56-.04-2.764-.401-5.538-1.266-8.164s-2.246-5.103-4.173-7.086c-.933-.96-1.998-1.805-3.199-2.397s-2.543-.925-3.88-.853"/></clipPath><clipPath id="bb"><path fill="url(#r)" d="M214.64 148.04a27.3 27.3 0 0 0-7.271.884c-4.053 1.057-7.574 2.94-10.086 5.393-1.628.855-3.05 1.9-4.207 3.086-.662.68-1.244 1.417-1.501 2.248-.202.653-.199 1.345-.285 2.02-.033.253-.078.507-.036.765.02.13.063.259.137.381.022.037.053.07.08.106.083.15.184.297.315.43.289.294.68.532 1.095.733s.852.367 1.281.55c2.28.965 4.228 2.324 5.993 3.758 2.367 1.925 4.53 4.061 7.51 5.46 2.104.988 4.527 1.552 6.926 1.724 2.816.202 5.585-.123 8.181-.693 2.407-.529 4.697-1.271 6.752-2.254 3.907-1.868 6.987-4.606 11.424-5.835.969-.268 1.99-.459 2.913-.79.923-.33 1.763-.826 2.12-1.527.343-.673.205-1.45.236-2.19.033-.79.263-1.555.333-2.342s-.038-1.629-.622-2.352q-.197-.24-.452-.451c-.05-.293-.221-.58-.466-.833-.505-.52-1.293-.872-2.095-1.117-1.098-.335-2.256-.502-3.4-.696a67 67 0 0 1-10.294-2.603c-1.653-.561-3.27-1.184-4.904-1.78-1.68-.612-3.387-1.2-5.166-1.577a23.7 23.7 0 0 0-4.512-.498z"/></clipPath><clipPath id="F"><path fill="#fdfdfb" d="M-26.296 154.81c-1.046 1.311-1.728 2.887-2.14 4.514-.41 1.626-.562 3.308-.626 4.984-.128 3.353.077 6.77-.81 10.006-.95 3.46-3.077 6.457-5.158 9.378-3.605 5.06-7.249 10.25-9.027 16.202a28.8 28.8 0 0 0-1.049 11.165 118 118 0 0 0-10.423 18.781c-4.386 9.942-7.396 20.526-8.454 31.341-1.297 13.242.397 26.862 5.627 39.097 3.781 8.846 9.418 16.944 16.686 23.247a57 57 0 0 0 12.189 8.097c15.213 7.477 34.013 7.491 48.973-.48 7.818-4.166 14.418-10.258 20.781-16.422 3.832-3.712 7.644-7.513 10.567-11.976 5.628-8.592 7.588-19.036 8.805-29.234 2.13-17.833 2.199-36.67-5.621-52.838a58.3 58.3 0 0 0-10.581-15.141 83 83 0 0 0-6.692-22.542c-2.37-5.155-5.268-10.062-7.47-15.291-.905-2.147-1.69-4.345-2.694-6.447s-2.242-4.125-3.925-5.735c-1.723-1.65-3.87-2.819-6.136-3.567s-4.649-1.087-7.031-1.207c-4.765-.24-9.539.384-14.306.195-3.795-.15-7.578-.816-11.37-.592-1.895.112-3.79.45-5.55 1.165-1.759.714-3.381 1.817-4.566 3.301"/></clipPath><clipPath id="H"><path fill="#fdfdfb" d="M-47.296 161.44c-1.046 1.424-1.728 3.135-2.14 4.9-.41 1.766-.562 3.592-.626 5.412-.128 3.64.077 7.35-.81 10.863-.95 3.755-3.077 7.01-5.158 10.18-3.605 5.493-7.249 11.129-9.027 17.59a33.8 33.8 0 0 0-1.049 12.122 132 132 0 0 0-10.423 20.389c-4.386 10.793-7.396 22.285-8.454 34.025-1.297 14.377.397 29.163 5.627 42.445 3.781 9.603 9.418 18.395 16.686 25.238 3.695 3.479 7.8 6.448 12.189 8.79 15.213 8.118 34.013 8.133 48.973-.521 7.818-4.523 14.418-11.137 20.781-17.83 3.832-4.03 7.644-8.155 10.567-13 5.628-9.328 7.588-20.666 8.805-31.738 2.13-19.361 2.199-39.811-5.621-57.364-2.692-6.043-6.279-11.615-10.581-16.437a96 96 0 0 0-6.692-24.473c-2.37-5.597-5.268-10.924-7.47-16.601-.905-2.33-1.69-4.717-2.694-7-1.004-2.282-2.242-4.478-3.925-6.226-1.723-1.79-3.87-3.06-6.136-3.872s-4.649-1.18-7.031-1.31c-4.765-.26-9.539.416-14.306.21-3.795-.163-7.578-.885-11.37-.642-1.895.122-3.79.49-5.55 1.265-1.759.776-3.381 1.973-4.566 3.584"/></clipPath></defs><path d="M52.25 4.98C26.19 4.98 4.98 26.2 4.98 52.25S26.2 99.52 52.25 99.52 99.52 78.3 99.52 52.25 78.3 4.98 52.25 4.98m-.07 4.2a3.1 3.11 0 0 1 3.02 3.11 3.11 3.11 0 0 1-6.22 0 3.11 3.11 0 0 1 3.2-3.11m7.12 5.12a38.27 38.27 0 0 1 26.2 18.66l-3.67 8.28a2.86 2.86 0 0 0 1.44 3.75l7.06 3.13a38.3 38.3 0 0 1 .08 6.64h-3.93c-.39 0-.55.26-.55.64v1.8c0 4.24-2.39 5.17-4.49 5.4-2 .23-4.21-.84-4.49-2.06-1.18-6.63-3.14-8.04-6.24-10.49 3.85-2.44 7.85-6.05 7.85-10.87 0-5.21-3.57-8.49-6-10.1-3.42-2.25-7.2-2.7-8.22-2.7h-40.6A38.27 38.27 0 0 1 45.15 14.3l4.79 5.02a2.82 2.82 0 0 0 4 .09zM15.1 37.32a3.11 3.11 0 0 1 3.02 3.11 3.11 3.11 0 0 1-6.22 0 3.11 3.11 0 0 1 3.2-3.11m74.15.14a3.11 3.11 0 0 1 3.02 3.11 3.11 3.11 0 0 1-6.22 0 3.11 3.11 0 0 1 3.2-3.11m-68.29.5h5.42V62.4H15.44a38.3 38.3 0 0 1-1.24-14.61l6.7-2.98a2.83 2.83 0 0 0 1.44-3.74zm22.62.26h12.91c.67 0 4.71.77 4.71 3.8 0 2.51-3.1 3.41-5.65 3.41H43.57zm0 17.56h9.89c.9 0 4.83.26 6.08 5.28.39 1.54 1.26 6.56 1.85 8.17.59 1.8 2.98 5.4 5.53 5.4h16.14a38 38 0 0 1-3.54 4.1l-6.57-1.41a2.84 2.84 0 0 0-3.37 2.18l-1.56 7.28a38.27 38.27 0 0 1-31.91-.15l-1.56-7.28a2.83 2.83 0 0 0-3.36-2.18l-6.43 1.38a38 38 0 0 1-3.32-3.92h31.27c.35 0 .59-.06.59-.39V63.18c0-.32-.24-.39-.59-.39h-9.15zM29.15 81.11a3.11 3.11 0 0 1 3.02 3.11 3.11 3.11 0 0 1-6.22 0 3.11 3.11 0 0 1 3.2-3.11m46.05.14a3.11 3.11 0 0 1 3.02 3.11 3.11 3.11 0 0 1-6.22 0 3.11 3.11 0 0 1 3.2-3.11"/><path fill-rule="evenodd" stroke="#000" stroke-linecap="round" stroke-linejoin="round" stroke-width="3" d="M96.88 52.25a44.63 44.63 0 0 1-44.63 44.63A44.63 44.63 0 0 1 7.62 52.25 44.63 44.63 0 0 1 52.25 7.62a44.63 44.63 0 0 1 44.63 44.63m-.84-4.31 6.96 4.31-6.96 4.31 5.98 5.59-7.66 2.87 4.78 6.65-8.09 1.32 3.4 7.46-8.19-.29 1.88 7.98-7.98-1.88.29 8.19-7.46-3.4-1.32 8.09-6.65-4.78-2.87 7.66-5.59-5.98-4.31 6.96-4.31-6.96-5.59 5.98-2.87-7.66-6.65 4.78-1.32-8.09-7.46 3.4.29-8.19-7.98 1.88 1.88-7.98-8.19.29 3.4-7.46-8.09-1.32 4.78-6.65-7.66-2.87 5.98-5.59-6.96-4.31 6.96-4.31-5.98-5.59 7.66-2.87-4.78-6.65 8.09-1.32-3.4-7.46 8.19.29-1.88-7.98 7.98 1.88-.29-8.19 7.46 3.4 1.32-8.09 6.65 4.78 2.87-7.66 5.59 5.98 4.31-6.96 4.31 6.96 5.59-5.98 2.87 7.66 6.65-4.78 1.32 8.09 7.46-3.4-.29 8.19 7.98-1.88-1.88 7.98 8.19-.29-3.4 7.46 8.09 1.32-4.78 6.65 7.66 2.87z"/><path fill="#020204" d="M52.007 4.213c-2.282-.025-4.593.437-6.602 1.52-2.136 1.15-3.886 2.992-4.964 5.166-1.077 2.172-1.5 4.493-1.565 7.048-.121 4.856.11 9.948.476 14.563.097 1.405.272 2.228.094 3.67-.601 3.066-3.285 5.13-4.715 7.824-1.578 2.97-2.243 6.33-3.434 9.477-1.09 2.88-2.62 5.58-3.653 8.48-1.444 4.056-1.876 8.513-.922 12.71.728 3.2 2.247 6.202 4.294 8.769-.296.534-.583 1.074-.89 1.602-.948 1.64-2.107 3.193-2.647 5.008-.27.908-.377 1.876-.203 2.807.175.93.646 1.82 1.386 2.41.485.388 1.07.636 1.673.776.604.14 1.228.174 1.848.16 2.355-.05 4.636-.765 6.915-1.363a79 79 0 0 1 4.077-.952c4.853-.994 10.27-.597 14.775.056 1.526.23 3.04.532 4.54.896 2.35.569 4.69 1.295 7.108 1.364.636.018 1.277-.01 1.898-.148.62-.14 1.224-.391 1.72-.788.743-.591 1.214-1.483 1.388-2.416s.067-1.903-.206-2.812c-.547-1.817-1.716-3.367-2.687-4.998-.383-.643-.74-1.303-1.12-1.948 2.92-3.278 5.27-7.07 6.63-11.235 1.484-4.546 1.756-9.44 1.13-14.181-.623-4.741-2.126-9.338-4.106-13.69-2.483-5.458-4.57-7.43-6.083-12.223-1.636-5.18-.285-11.31-1.5-16.008a16.5 16.5 0 0 0-2.015-4.52c-1.043-1.635-2.365-3.101-3.935-4.24-2.507-1.815-5.61-2.75-8.705-2.784"/><path fill="#fdfdfb" d="M43.056 31.559c-.333.417-.55.92-.681 1.437-.131.518-.18 1.053-.2 1.587-.04 1.068.024 2.156-.258 3.187-.302 1.1-.98 2.056-1.643 2.986-1.148 1.61-2.308 3.264-2.874 5.16a9.2 9.2 0 0 0-.334 3.555 37.6 37.6 0 0 0-3.32 5.98c-1.396 3.167-2.355 6.537-2.692 9.98-.413 4.218.127 8.556 1.792 12.452 1.204 2.817 3 5.396 5.314 7.403a18.2 18.2 0 0 0 3.882 2.579c4.844 2.38 10.83 2.385 15.595-.153 2.49-1.327 4.59-3.267 6.618-5.23 1.22-1.182 2.434-2.392 3.365-3.814 1.792-2.736 2.416-6.062 2.804-9.31.678-5.678.7-11.677-1.79-16.826-.858-1.772-2-3.407-3.37-4.821a26.4 26.4 0 0 0-2.13-7.18c-.756-1.64-1.68-3.203-2.38-4.87-.288-.682-.538-1.382-.858-2.051s-.713-1.314-1.25-1.827c-.548-.525-1.232-.897-1.953-1.135-.722-.24-1.481-.347-2.24-.385-1.517-.076-3.037.122-4.555.062-1.21-.048-2.414-.26-3.62-.188-.604.035-1.208.143-1.768.37-.56.228-1.077.58-1.454 1.052"/><path fill="url(#u)" d="M-61.003 211.59c.88 1.524-.547 6.778 19.964 3.415 0 0-3.602.458-7.153 1.405-5.521 2.133-10.33 4.517-14.04 7.675-3.675 3.121-6.367 7.197-9.74 10.697 0 0 5.462-11.52 6.824-14.987 1.361-3.469-.228-3.31.849-8.414s3.713-10.007 3.713-10.007-2.152 7.211-.417 10.216" filter="url(#v)" opacity=".25" style="fill:url(#u)" transform="matrix(.36759 0 0 .31845 60.134 -20.607)"/><path fill="url(#w)" d="M172.05 151.86c-4.825 3.361-7.652 2.963-13.507 3.62-5.855.658-21.698.42-21.698.42s2.294-.042 7.378.905c5.083.946 15.453 1.852 21.292 4.074 5.839 2.223 7.968 2.857 11.517 5.1 5.05 3.195 8.758 8.198 13.587 11.698 0 0 .233-4.644-1.716-8.113s-7.19-8.935-8.732-14.039-2.275-15.132-2.275-15.132-1.02 8.105-5.846 11.466z" filter="url(#x)" opacity=".42" style="fill:url(#w)" transform="translate(7.166 -2.022)scale(.31845)"/><path fill="url(#y)" d="M126.67 144.68a60 60 0 0 1-.697 4.344c-.14.71-.295 1.42-.559 2.093-.264.674-.644 1.313-1.181 1.797-.47.424-1.045.716-1.62.98a24.4 24.4 0 0 1-7.109 2.019q1.47.106 2.935.268c.616.067 1.232.142 1.832.296.6.153 1.185.39 1.684.755.548.4.978.948 1.3 1.546.64 1.192.854 2.563.972 3.91.152 1.724.163 3.46.033 5.185.116-1.155.358-2.296.72-3.398.653-1.986 1.705-3.848 3.12-5.387.562-.61 1.18-1.17 1.859-1.648a10.3 10.3 0 0 1 7.236-1.76 11.24 11.24 0 0 1-7.194-2.234c-1.042-.785-1.95-1.763-2.58-2.905a8.1 8.1 0 0 1-.751-5.86" filter="url(#z)" opacity=".2" style="fill:url(#y)" transform="translate(7.166 -2.022)scale(.31845)"/><path d="M120.5 178.72a89 89 0 0 0-2.526 14.277c-.637 6.812-.483 13.672-.849 20.505-.31 5.797-.991 11.656.016 17.374a29.8 29.8 0 0 0 2.554 7.875q.29-1.426.423-2.876c.426-4.636-.354-9.287-.618-13.935-.462-8.148.666-16.29 1.125-24.438.353-6.255.31-12.532-.125-18.781" color="#000" filter="url(#A)" opacity=".11" transform="translate(7.166 -2.022)scale(.31845)"/><g fill="#7c7c7c"><path d="M351.96 200.86c-1.452.389-1.23 3.994-.296 5.498.789 1.27 3.072 2.271 3.758 1.005 1.115-2.056-1.471-7.036-3.462-6.503" filter="url(#B)" opacity=".25" transform="matrix(-.02227 .30476 -.17977 -.03775 82.502 -59.464)"/><path d="M361.75 209.34c.002-1.533-7.565-10.056-9.79-8.486s-.491 3.784-.296 5.497c.196 1.714-.945 6.61.239 7.26s3.366-2.52 5.3-4.277c1.56-1.415 4.545 1.54 4.547.006" filter="url(#C)" opacity=".75" transform="matrix(-.03056 -.30476 -.24672 .03775 134.196 155.05)"/><path d="M277.96 90.857c-2.225 1.57-1.253 3.53-.296 5.498.957 1.967-2.104 7.64-2.137 7.884s6.026-2.875 7.677-4.902c1.95-2.393 6.877 3.238 6.608 2.381.002-1.533-9.627-12.43-11.852-10.86z" filter="url(#D)" transform="translate(-44.75 -25.014)scale(.36692)"/></g><path fill="#838384" d="M16.687 165.86c-2.162 1.97 1.014 4.928 2.52 8.404.936 2.162 3.527 5.205 6.032 4.718 1.885-.367 3.054-3.08 2.876-4.991-.344-3.689-3.457-4.553-5.717-5.82-1.792-1.004-4.193-3.694-5.711-2.311" filter="url(#E)" transform="translate(58.119 -20.29)scale(.31845)"/><path fill-opacity=".259" d="M-28.632 172.6c1.703 4.938 5.13 9.152 9.186 12.444 1.349 1.095 2.782 2.104 4.366 2.817s3.332 1.12 5.062.972c1.695-.144 3.308-.809 4.79-1.645 1.48-.837 2.855-1.847 4.292-2.758 2.463-1.56 5.1-2.821 7.657-4.22 3.083-1.687 6.07-3.59 8.665-5.96 1.188-1.084 2.296-2.268 3.608-3.199 1.311-.93 2.882-1.605 4.487-1.496 1.204.082 2.333.594 3.513.848.59.127 1.2.19 1.797.098.596-.09 1.18-.344 1.598-.78.512-.532.736-1.299.71-2.038s-.285-1.453-.63-2.107c-.688-1.308-1.734-2.435-2.2-3.838-.414-1.249-.33-2.599-.293-3.914.036-1.315.007-2.69-.6-3.857-.46-.889-1.235-1.595-2.12-2.064-.886-.468-1.88-.71-2.877-.803-1.995-.188-3.994.2-5.994.313-2.656.15-5.322-.182-7.977-.022-3.312.2-6.557 1.16-9.875 1.166-3.786.007-7.568-1.231-11.308-.64-1.604.254-3.135.838-4.675 1.353-1.541.514-3.133.967-4.758.943-1.844-.026-3.629-.665-5.469-.796-.92-.066-1.862 0-2.726.323s-1.644.924-2.068 1.743a3.7 3.7 0 0 0-.386 1.524 5.6 5.6 0 0 0 .178 1.57c.255 1.026.724 1.983 1.11 2.967 1.392 3.554 1.692 7.448 2.937 11.056" clip-path="url(#F)" filter="url(#G)" transform="translate(51.43 -17.741)scale(.31845)"/><path d="M-54.381 165.47a39.4 39.4 0 0 1 8.77 8.052c2.313 2.883 4.28 6.154 7.299 8.288 2.132 1.509 4.695 2.358 7.294 2.617 3.051.303 6.14-.187 9.082-1.052 2.726-.802 5.363-1.93 7.782-3.422 4.598-2.836 8.439-6.993 13.51-8.857 1.107-.407 2.259-.698 3.326-1.2s2.072-1.254 2.581-2.318c.49-1.022.471-2.202.63-3.325.172-1.2.555-2.362.765-3.556.21-1.195.235-2.473-.282-3.57-.427-.909-1.205-1.628-2.1-2.085-.894-.457-1.9-.664-2.904-.713-2.006-.099-3.987.415-5.988.597-2.65.242-5.318-.099-7.977-.019-3.308.1-6.568.85-9.874 1.005-3.772.178-7.534-.417-11.308-.551-1.633-.058-3.276-.029-4.885.252s-3.188.822-4.548 1.726c-1.32.877-2.397 2.067-3.607 3.091-.605.512-1.248.985-1.954 1.345-.705.36-1.478.605-2.27.643-.407.02-.818-.016-1.221.047a2.6 2.6 0 0 0-1.698 1.052 2.6 2.6 0 0 0-.423 1.953" clip-path="url(#H)" filter="url(#I)" opacity=".3" transform="matrix(.31845 0 0 .29333 58.119 -15.797)"/><path fill="#020204" d="M72.48 51.187c1.939 1.559 3.168 3.913 3.549 6.37.297 1.917.104 3.884-.328 5.774-.433 1.89-1.1 3.719-1.762 5.542-.264.727-.53 1.46-.634 2.227-.105.766-.04 1.577.33 2.257.424.779 1.215 1.315 2.065 1.568.839.249 1.745.243 2.595.032.849-.212 2.279-.486 2.97-1.023 1.757-1.364 2.174-3.732 2.59-5.812.434-2.168.222-4.442-.16-6.633-.52-2.987-1.395-5.908-2.51-8.728a30.4 30.4 0 0 0-3.117-5.898c-1.225-1.805-2.964-3.214-4.248-4.98-.447-.612-.983-1.251-1.422-1.871-.945-1.336-.73-1.087-1.317-1.952-.426-.628-1.098-.844-1.805-1.118s-1.5-.356-2.23-.15c-.962.27-1.75 1.029-2.167 1.936-.418.908-.491 1.95-.328 2.937.21 1.272.79 2.452 1.448 3.563.74 1.254 1.599 2.46 2.718 3.392 1.168.973 2.58 1.615 3.764 2.567m-36.503-9.684c-2.253 2.56-4.57 5.037-5.843 7.804-.63 1.405-.927 2.932-1.358 4.41-.49 1.679-1.155 3.302-1.901 4.884-.69 1.46-1.45 2.886-2.21 4.31-.553 1.037-1.116 2.096-1.308 3.255-.152.916-.063 1.86.17 2.76s.608 1.755 1.03 2.58c1.806 3.528 4.513 6.568 7.72 8.894a27 27 0 0 0 4.65 2.715c.887.405 1.82.766 2.794.783.487.008.98-.072 1.425-.268s.844-.51 1.11-.92c.325-.502.435-1.126.37-1.721s-.298-1.164-.61-1.675c-.76-1.25-1.963-2.153-3.12-3.05a104 104 0 0 1-7.222-6.126c-.653-.607-1.305-1.234-1.761-2-.444-.747-.684-1.597-.846-2.45-.446-2.34-.332-4.804.464-7.05.312-.877.724-1.716 1.12-2.56.689-1.46 1.34-2.95 2.246-4.288 1.126-1.665 2.632-3.076 3.55-4.865.776-1.51 1.09-3.207 1.39-4.878.234-1.307.684-2.587.913-3.895-.447.849-1.89 2.243-2.774 3.352z"/><path fill="#838384" d="M290.78 216.02c.485.468.98.943 1.5 1.375 3.667 3.055 5.619 6.485 9.338 9.477 6.084 4.894 12.259 13.344 13.454 21.06.932 6.02-.301 9.29-1.805 16.389-1.504 7.098-5.77 17.148-8.074 23.992-.919 2.729 1.861 1.603 1.496 4.48a17.7 17.7 0 0 0-.034 4.259c.022-.271.038-.553.069-.822.443-3.923 1.623-7.695 2.909-11.395 2.474-7.122 5.314-14.101 7.272-21.408 1.957-7.307 1.74-12.564.718-18.844-1.284-7.897-5.797-15.187-12.188-20-4.518-3.403-9.846-5.585-14.656-8.563z" clip-path="url(#J)" filter="url(#K)" transform="matrix(.32421 0 0 .31845 -26.354 -20.607)"/><path fill="#7c7c7c" d="M232.33 224.27a33 33 0 0 0-5.953 7.318c-2.668 4.459-4.24 9.469-6.178 14.29-1.444 3.588-3.126 7.192-3.327 11.055-.104 1.984.19 3.966.257 5.952.066 1.986-.118 4.05-1.09 5.784a7 7 0 0 1-3.733 3.144 11.07 11.07 0 0 1 5.335 3.865c1.115 1.5 1.828 3.254 2.796 4.851.787 1.298 1.754 2.501 2.943 3.445 1.19.943 2.612 1.62 4.117 1.813a7.26 7.26 0 0 0 5.766-1.843 135.3 135.3 0 0 1 5.15-53.8c.335-1.095.687-2.198.77-3.34.083-1.143-.129-2.348-.824-3.258a3.54 3.54 0 0 0-1.43-1.108 3.54 3.54 0 0 0-1.791-.253 3.54 3.54 0 0 0-1.681.67c-.49.363-.882.856-1.127 1.415" clip-path="url(#L)" filter="url(#M)" opacity=".95" transform="translate(-40.601 -20.607)scale(.31845)"/><path fill="url(#N)" d="M86.056 328.13a16.6 16.6 0 0 1-2.05 4.41c-1.98 3.013-4.854 5.28-7.726 7.371-4.9 3.566-10.003 6.838-14.563 10.89-3.056 2.715-5.841 5.76-8.423 8.965-2.208 2.742-4.284 5.62-6.801 8.057-2.54 2.46-5.53 4.447-8.752 5.53-3.918 1.316-8.058 1.253-11.832.259-2.645-.696-5.224-1.907-6.862-4.097-1.645-2.198-2.178-5.152-2.368-8.052-.337-5.129.26-10.37.803-15.575.452-4.326.868-8.655 1.039-12.972.31-7.852-.197-15.636-1.232-23.273-.173-1.279-.362-2.568-.257-3.885.106-1.318.536-2.689 1.437-3.706.832-.94 1.992-1.495 3.15-1.769s2.33-.29 3.493-.321c2.74-.075 5.496-.24 8.195.006 1.703.155 3.373.474 5.073.643 2.838.28 5.782.132 8.628-.724 3.064-.922 5.986-2.652 9.099-3.128a13 13 0 0 1 3.801.006c1.268.183 2.528.542 3.502 1.336.74.604 1.282 1.433 1.706 2.317.632 1.317 1.02 2.77 1.241 4.261.197 1.321.267 2.68.598 3.958.546 2.101 1.781 3.886 3.268 5.34s3.225 2.602 4.96 3.733c1.73 1.128 3.468 2.247 5.315 3.177.867.436 1.758.83 2.586 1.333.829.502 1.6 1.121 2.151 1.935.746 1.105 1.046 2.553.822 3.975" filter="url(#O)" opacity=".2" style="fill:url(#N)" transform="matrix(.32702 0 0 .31845 57.383 -20.607)"/><path fill="url(#P)" d="M90.979 86.587c-.836.992-1.996 1.646-3.152 2.235-1.97 1.004-4.013 1.886-5.866 3.094-1.241.81-2.387 1.76-3.458 2.784-.916.876-1.785 1.81-2.813 2.553-1.037.75-2.235 1.292-3.5 1.48-1.538.232-3.127-.066-4.553-.688-1-.435-1.96-1.058-2.536-1.984-.578-.928-.71-2.066-.711-3.16-.003-1.935.356-3.85.694-5.755.28-1.584.547-3.17.72-4.77.312-2.906.31-5.844.1-8.761-.034-.488-.075-.981-.001-1.466.073-.484.272-.967.643-1.286.343-.295.803-.426 1.255-.45.45-.026.902.046 1.35.112 1.055.154 2.118.275 3.15.546.65.17 1.283.4 1.933.577 1.083.293 2.218.433 3.333.303 1.2-.14 2.366-.591 3.574-.562a5.3 5.3 0 0 1 1.46.255c.483.152.96.37 1.314.73.27.275.457.62.598.978.21.533.323 1.1.372 1.672.043.505.036 1.017.132 1.515.157.82.588 1.568 1.123 2.209.536.64 1.175 1.184 1.814 1.722.637.535 1.277 1.068 1.964 1.537.323.22.655.427.96.669.307.242.589.524.78.865a1.96 1.96 0 0 1 .17 1.553c-.166.53-.471 1.043-.85 1.493" style="fill:url(#P);stroke-width:.31845"/><path fill="#cd8907" d="M512.89 328.72a15.3 15.3 0 0 1-2.571 4.26c-2.403 2.814-5.73 4.654-9.038 6.31-5.653 2.831-11.503 5.318-16.821 8.736-3.554 2.284-6.841 4.966-9.918 7.86-2.63 2.472-5.125 5.116-8.066 7.208-2.981 2.12-6.418 3.647-10.037 4.18-4.41.65-8.96-.193-13.058-1.945-2.857-1.222-5.617-2.97-7.272-5.6-1.646-2.617-2.031-5.83-2.039-8.922-.013-5.465 1.018-10.871 1.99-16.248.806-4.469 1.575-8.948 2.063-13.463.889-8.208.849-16.498.293-24.735-.094-1.38-.2-2.774.011-4.14.212-1.368.778-2.728 1.826-3.631.983-.847 2.303-1.218 3.599-1.286s2.587.142 3.87.33c3.024.445 6.073.78 9.032 1.544 1.865.481 3.684 1.131 5.545 1.628 3.11.829 6.363 1.225 9.56.855 3.44-.397 6.786-1.671 10.25-1.586 1.42.035 2.83.3 4.188.72 1.382.425 2.749 1.034 3.765 2.062.766.776 1.295 1.754 1.716 2.76.625 1.496 1.032 3.097 1.066 4.719.034 1.693-.336 3.395-.106 5.073.186 1.363.763 2.648 1.5 3.81.737 1.16 1.634 2.21 2.523 3.26 1.717 2.029 3.439 4.097 5.593 5.655 2.452 1.773 5.362 2.811 7.895 4.467.755.493 1.486 1.052 2.018 1.78a4.76 4.76 0 0 1 .624 4.34" clip-path="url(#Q)" filter="url(#R)" transform="translate(-72.446 -20.607)scale(.31845)"/><path fill="#f5c021" d="M508.79 327.93a15 15 0 0 1-2.311 3.491c-2.154 2.428-5.061 4.1-8.124 5.173-5.041 1.767-10.546 2.004-15.495 4.016-3.016 1.226-5.73 3.073-8.479 4.819-2.222 1.41-4.492 2.769-6.932 3.756-2.755 1.115-5.686 1.74-8.626 2.179-1.87.278-3.762.484-5.651.387-1.89-.098-3.785-.508-5.452-1.401-1.264-.678-2.401-1.653-3.076-2.919-.75-1.406-.88-3.056-.862-4.649.046-4.246 1.025-8.446.996-12.692-.026-3.696-.815-7.345-1.042-11.034-.437-7.095 1.204-14.313-.24-21.273-.231-1.114-.542-2.227-.527-3.365.008-.568.099-1.14.315-1.667.217-.526.563-1.005 1.025-1.337.389-.28.85-.45 1.323-.527a4.7 4.7 0 0 1 1.432.007c.948.137 1.852.482 2.775.737 2.642.73 5.433.715 8.118 1.265 1.685.346 3.317.912 4.984 1.334 2.8.71 5.72 1.014 8.592.702 3.089-.336 6.108-1.376 9.213-1.3 1.273.03 2.538.25 3.765.589 1.228.34 2.456.82 3.384 1.69.67.629 1.152 1.432 1.542 2.262.57 1.212.968 2.529.958 3.868-.005.697-.119 1.388-.186 2.081-.068.694-.088 1.404.091 2.077.18.677.554 1.287.983 1.84s.914 1.06 1.358 1.602c1.242 1.517 2.13 3.286 3.097 4.991s2.052 3.393 3.58 4.621c2.08 1.672 4.779 2.34 7.097 3.662.679.386 1.337.84 1.814 1.459.382.496.638 1.088.735 1.706a3.8 3.8 0 0 1-.174 1.85" clip-path="url(#S)" filter="url(#T)" transform="matrix(.36399 0 0 .39243 -94.42 -45.17)"/><path fill="url(#U)" d="M187.31 230.29c3.276-.887 6.066 1.597 8.442 3.472 1.536 1.31 3.754.98 5.637 1.042 3.12-.113 6.225.523 9.347.136 6.145-.52 12.168-2.03 18.342-2.29 2.95-.185 6.26-.357 8.808 1.366 1.033.715 2.547 3.741 3.567 2.604-.42-3.178-2.778-6.255-5.94-7.102-2.474-.39-4.99.292-7.489.071-7.423-.177-14.793-1.555-22.234-1.16-5.176.045-10.347-.195-15.515-.396-2.03-.415-2.747 1.389-3.849 2.08" clip-path="url(#V)" filter="url(#W)" style="fill:url(#U)" transform="translate(7.166 -2.022)scale(.31845)"/><path fill="url(#X)" d="M25.5 68.884a2.9 2.9 0 0 1 1.625-.15c.543.1 1.055.335 1.51.644.913.62 1.59 1.522 2.238 2.414 1.487 2.049 2.92 4.14 4.217 6.315 1.053 1.763 2.02 3.584 3.237 5.239.794 1.08 1.69 2.083 2.488 3.16.799 1.077 1.506 2.247 1.86 3.54.46 1.68.28 3.532-.518 5.08a6.7 6.7 0 0 1-2.475 2.656 6.4 6.4 0 0 1-3.51.914c-1.946-.073-3.724-1.046-5.534-1.767-3.688-1.47-7.694-1.93-11.496-3.074-1.168-.351-2.317-.767-3.493-1.09-.523-.145-1.054-.271-1.547-.495-.494-.224-.956-.557-1.23-1.024a2.3 2.3 0 0 1-.296-1.206 3.8 3.8 0 0 1 .246-1.227c.286-.787.746-1.5 1.057-2.28.508-1.27.6-2.67.53-4.036-.068-1.367-.29-2.721-.382-4.086-.042-.61-.058-1.227.058-1.827.117-.6.375-1.186.815-1.61.406-.39.944-.622 1.495-.738.552-.114 1.12-.12 1.683-.107s1.128.043 1.689-.003c.56-.047 1.125-.172 1.614-.452.465-.266.846-.66 1.16-1.094.316-.433.57-.906.832-1.373.26-.468.53-.934.872-1.346s.76-.772 1.256-.977" style="fill:url(#X);stroke-width:.31845"/><path fill="#d99a03" d="M-99.89 282.78c1.455-.586 3.094-.65 4.623-.304 1.528.347 2.95 1.09 4.188 2.047 2.478 1.914 4.2 4.614 5.854 7.269 3.97 6.433 7.852 12.934 11.516 19.567 2.777 4.993 5.425 10.093 8.838 14.679 2.264 3.041 4.847 5.83 7.158 8.836s4.371 6.282 5.393 9.934c1.316 4.706.782 9.91-1.496 14.233a19 19 0 0 1-7.186 7.512 18.5 18.5 0 0 1-10.087 2.488c-5.598-.257-10.711-3.053-15.981-4.95-10.103-3.666-21.053-4.158-31.416-7.02-3.715-1.009-7.337-2.353-11.07-3.294-1.652-.417-3.333-.757-4.902-1.42-1.57-.662-3.047-1.688-3.898-3.164-.633-1.098-.885-2.389-.846-3.655.039-1.265.359-2.51.81-3.693.901-2.367 2.32-4.51 3.229-6.875 1.379-3.574 1.55-7.504 1.294-11.326s-.921-7.61-1.153-11.434c-.104-1.71-.12-3.44.226-5.116.345-1.677 1.076-3.31 2.295-4.512 1.32-1.309 3.141-2.024 4.977-2.304s3.706-.158 5.555.007 3.705.373 5.561.261c1.856-.11 3.736-.563 5.269-1.606 1.397-.945 2.446-2.325 3.244-3.799.799-1.474 1.368-3.055 1.977-4.616.609-1.562 1.266-3.122 2.221-4.51s2.237-2.605 3.806-3.235" clip-path="url(#Y)" filter="url(#Z)" transform="translate(58.119 -20.29)scale(.31845)"/><path fill="#f5bd0c" d="M138.75 281.24c1.41-.712 3.07-.858 4.616-.537s2.979 1.09 4.196 2.096c2.435 2.01 3.98 4.875 5.42 7.685 3.304 6.455 6.383 13.05 10.337 19.128 2.87 4.41 6.18 8.517 9.082 12.905 3.936 5.951 7.136 12.496 8.456 19.507.889 4.716.86 9.81-1.372 14.058-1.469 2.796-3.85 5.09-6.663 6.526s-6.044 2.017-9.19 1.734c-4.953-.445-9.453-2.925-14.116-4.655-8.275-3.069-17.218-3.803-25.734-6.119-3.592-.976-7.11-2.235-10.751-3.01-1.606-.34-3.244-.59-4.777-1.179-1.533-.588-2.986-1.565-3.77-3.008-.551-1.016-.736-2.205-.654-3.358s.42-2.275.865-3.342c.887-2.134 2.2-4.09 2.89-6.295 1.013-3.243.597-6.758-.164-10.068-.76-3.311-1.856-6.562-2.194-9.942-.15-1.505-.147-3.04.191-4.514.339-1.475 1.027-2.892 2.109-3.95 1.393-1.362 3.344-2.04 5.283-2.229s3.892.069 5.82.351 3.869.59 5.815.5 3.929-.61 5.453-1.824c1.508-1.2 2.456-2.987 3-4.836.543-1.849.72-3.782.943-5.696.222-1.915.5-3.847 1.23-5.63.729-1.784 1.96-3.428 3.68-4.298" clip-path="url(#aa)" filter="url(#ab)" transform="matrix(.31845 0 0 .31273 -18.31 -19.347)"/><path fill="url(#ac)" d="M76.407 237.61c2.606 4.713 4.196 10.122 6.781 14.875 2.378 4.372 5.085 8.874 7.5 12.906 1.076 1.795 3.583 4.555 6.12 8.837 2.297 3.881 4.617 9.298 5.916 11.116-.746-2.128-2.28-7.846-4.109-11.923-1.71-3.808-3.7-5.982-4.927-8.03-2.415-4.033-5.017-7.657-7.5-11.5-3.425-5.302-6.035-11.235-9.781-16.281" filter="url(#ad)" style="fill:url(#ac)" transform="translate(7.166 -2.022)scale(.31845)"/><path fill="url(#ae)" d="M231.48 237.28c-.563-1.102-1.587-1.926-2.729-2.402s-2.397-.63-3.634-.62c-2.474.02-4.934.664-7.4.45-2.083-.18-4.059-.963-6.09-1.457-2.097-.51-4.322-.71-6.404-.143-2.226.606-4.19 2.094-5.42 4.045-1.084 1.721-1.599 3.753-1.76 5.78-.163 2.028.012 4.067.218 6.09.148 1.464.313 2.931.667 4.359s.904 2.823 1.766 4.015c1.241 1.716 3.084 2.94 5.07 3.675a14.1 14.1 0 0 0 10.132-.177c5.658-2.457 10.449-6.864 13.369-12.3a26.2 26.2 0 0 0 2.382-6.164c.208-.853.372-1.723.38-2.6.007-.879-.147-1.77-.546-2.551" filter="url(#af)" opacity=".35" style="fill:url(#ae)" transform="translate(7.166 -2.022)scale(.31845)"/><path fill="url(#ag)" d="M71.484 295.64c-.563-1.102-1.587-1.926-2.729-2.402s-2.397-.63-3.634-.62c-2.474.02-4.935.664-7.4.45-2.083-.18-4.059-.963-6.09-1.457-2.097-.51-4.322-.71-6.404-.143-2.226.606-4.19 2.094-5.42 4.045-1.084 1.721-1.599 3.753-1.76 5.78-.163 2.028.012 4.067.218 6.09.148 1.464.313 2.931.667 4.359s.904 2.823 1.766 4.015c1.241 1.716 3.084 2.94 5.07 3.675a14.1 14.1 0 0 0 10.132-.177c5.659-2.457 10.449-6.864 13.369-12.3a26.2 26.2 0 0 0 2.382-6.164c.208-.853.372-1.723.38-2.6.007-.879-.147-1.77-.546-2.551" filter="url(#ai)" opacity=".35" style="fill:url(#ag)" transform="matrix(.31845 0 0 .23022 58.119 4.473)"/><path fill="#020204" d="M82.38 70.256a2.3 2.3 0 0 0-.633-.914 3.4 3.4 0 0 0-.95-.59c-.69-.292-1.44-.401-2.176-.54-.694-.13-1.382-.288-2.08-.406-.722-.123-1.47-.202-2.185-.04a3.73 3.73 0 0 0-1.68.897 4.8 4.8 0 0 0-1.11 1.558c-.467 1.028-.614 2.186-.525 3.313.066.838.279 1.702.83 2.337.447.513 1.08.832 1.73 1.025a5.86 5.86 0 0 0 3.46-.05 9.1 9.1 0 0 0 4.563-3.432c.363-.525.673-1.098.813-1.72.107-.475.11-.982-.057-1.438"/><path fill="url(#ak)" d="M362.22 276.46c-.55.03-1.081.09-1.625.188-3.47.616-6.647 2.808-8.437 5.843a12.4 12.4 0 0 0-1.657 7.156c.074-1.741.53-3.446 1.375-4.968 1.435-2.582 4.033-4.53 6.938-5.063 1.79-.328 3.632-.13 5.437.094 1.733.216 3.482.443 5.188.812 2.64.572 5.254 1.452 7.469 3 .516.362 1 .769 1.406 1.25.406.482.722 1.038.844 1.657.178.904-.08 1.853-.532 2.656s-1.065 1.506-1.718 2.156a40 40 0 0 1-1.657 1.531c2.56-.496 5.152-1.197 7.282-2.687.9-.63 1.715-1.385 2.25-2.344.534-.96.762-2.121.5-3.188-.178-.72-.572-1.382-1.063-1.937s-1.08-1.012-1.687-1.438a20 20 0 0 0-9.063-3.468 111 111 0 0 0-6.281-.97c-1.644-.205-3.321-.372-4.969-.28" clip-path="url(#al)" filter="url(#am)" style="fill:url(#ak)" transform="translate(-40.601 -20.607)scale(.31845)"/><path fill="url(#an)" d="M362.22 276.46c-.55.03-1.081.09-1.625.188-3.47.616-6.647 2.808-8.437 5.843a12.4 12.4 0 0 0-1.657 7.156c.074-1.741.53-3.446 1.375-4.968 1.435-2.582 4.033-4.53 6.938-5.063 1.79-.328 3.632-.13 5.437.094 1.733.216 3.482.443 5.188.812 2.64.572 5.254 1.452 7.469 3 .516.362 1 .769 1.406 1.25.406.482.722 1.038.844 1.657.178.904-.08 1.853-.532 2.656s-1.065 1.506-1.718 2.156a40 40 0 0 1-1.657 1.531c2.56-.496 5.152-1.197 7.282-2.687.9-.63 1.715-1.385 2.25-2.344.534-.96.762-2.121.5-3.188-.178-.72-.572-1.382-1.063-1.937s-1.08-1.012-1.687-1.438a20 20 0 0 0-9.063-3.468 111 111 0 0 0-6.281-.97c-1.644-.205-3.321-.372-4.969-.28" clip-path="url(#ao)" filter="url(#ap)" style="fill:url(#an)" transform="translate(-40.601 -20.607)scale(.31845)"/><path fill="url(#aq)" d="M43.543 18.358c-.567.03-1.11.293-1.524.68-.415.389-.708.896-.887 1.435-.36 1.077-.28 2.246-.198 3.379.075 1.026.15 2.07.534 3.026.193.477.462.926.822 1.294.36.367.813.65 1.312.775.467.117.967.093 1.427-.052a3.1 3.1 0 0 0 1.225-.744c.503-.492.842-1.136 1.036-1.812s.25-1.386.24-2.09c-.013-.88-.128-1.763-.403-2.6-.276-.835-.716-1.624-1.33-2.256a3.8 3.8 0 0 0-1.018-.763 2.5 2.5 0 0 0-1.236-.272" style="fill:url(#aq);stroke-width:.31845"/><path fill="#020204" d="M42.177 23.055c-.12.715-.123 1.466.123 2.148.162.45.43.859.755 1.21.213.23.455.438.738.574.282.135.61.193.914.117.28-.07.526-.251.707-.477s.302-.495.388-.77c.254-.816.213-1.708-.04-2.524-.183-.595-.487-1.168-.963-1.57a1.9 1.9 0 0 0-.782-.41 1.36 1.36 0 0 0-.872.07c-.3.138-.532.397-.684.69s-.23.617-.284.942"/><path fill="url(#as)" d="M114.69 77.125c.242.634 1.054.864 1.5 1.375.433.497.887 1.01 1.125 1.625.455 1.176-.449 2.92.5 3.75.298.26.895.266 1.188 0 1.145-1.042.89-3.144.437-4.625-.411-1.344-1.427-2.616-2.68-3.255-.578-.295-1.45-.541-1.945-.12-.319.271-.274.859-.125 1.25" filter="url(#at)" style="fill:url(#as)" transform="translate(7.166 -2.022)scale(.31845)"/><path fill="url(#au)" d="M50.392 129.53c2.685-1.6 5.955-1.97 9.067-1.676s6.125 1.209 9.141 2.03c2.212.601 4.452 1.161 6.525 2.137 2.074.977 4 2.416 5.142 4.403.183.32.345.65.54.962.193.313.423.61.716.83.293.222.657.365 1.024.345.184-.01.366-.06.524-.154a1 1 0 0 0 .378-.392c.098-.187.128-.404.117-.615a3 3 0 0 0-.117-.622c-.755-2.753-2.535-5.088-3.889-7.601-.813-1.509-1.477-3.093-2.298-4.597-2.818-5.16-7.444-9.215-12.701-11.847s-11.127-3.896-16.997-4.239c-6.801-.398-13.62.41-20.329 1.591-2.909.512-5.86 1.115-8.436 2.562-1.287.723-2.467 1.656-3.388 2.81s-1.577 2.536-1.788 3.997c-.203 1.409.009 2.86.501 4.196.493 1.335 1.259 2.559 2.157 3.662 1.797 2.208 4.1 3.934 6.222 5.831s4.09 3.992 6.463 5.563c1.187.786 2.473 1.435 3.844 1.817s2.83.489 4.223.203c1.445-.296 2.783-1.005 3.954-1.902s2.186-1.98 3.148-3.097c1.925-2.236 3.723-4.687 6.258-6.196" clip-path="url(#av)" style="fill:url(#au)" transform="translate(26.273 -20.607)scale(.31845)"/><path fill="url(#aw)" d="M-38.438 119.38c2.504 2.345 4.365 5.24 5.625 8.31-.55-3.385-1.423-6.104-3.625-8.31-1.351-1.266-2.886-2.378-4.625-3.159-1.521-.683-3.214-1.108-4.18-1.125-.968-.018-1.203.004-1.402.013-.198.01-.357.016.272.088.63.071 2.034.451 3.541 1.128s3.043 1.79 4.394 3.055" filter="url(#ax)" style="fill:url(#aw)" transform="translate(58.119 -20.29)scale(.31845)"/><path fill="url(#ay)" d="M53.58 18.358c-.885.609-1.627 1.457-1.99 2.468-.457 1.275-.282 2.7.16 3.98.452 1.312 1.208 2.56 2.35 3.349a4.3 4.3 0 0 0 1.92.744 3.5 3.5 0 0 0 2.019-.35c.749-.39 1.32-1.074 1.675-1.841s.506-1.615.554-2.46c.06-1.073-.045-2.166-.398-3.183-.384-1.105-1.08-2.124-2.062-2.76a4 4 0 0 0-1.627-.616 3.5 3.5 0 0 0-1.725.192c-.31.12-.6.289-.876.477" style="fill:url(#ay);stroke-width:.31845"/><path fill="#020204" d="M55.622 21.033a2.05 2.05 0 0 0-.94.316 2.5 2.5 0 0 0-.712.693c-.38.55-.545 1.225-.571 1.892-.02.5.035 1.008.2 1.48.167.474.447.91.833 1.23a2.365 2.365 0 0 0 2.862.133c.335-.233.605-.554.798-.915a3.4 3.4 0 0 0 .36-1.164c.095-.715-.011-1.463-.342-2.104-.33-.641-.891-1.17-1.568-1.42a2.2 2.2 0 0 0-.92-.141"/><path fill="#141413" d="M154.66 79.25c-.866.342-2.237.127-2.616.977-.225.503.092 1.332.603 1.54 1.033.42 2.632-.34 3.049-1.375.181-.449-.093-1.16-.54-1.348-.165-.07-.33.14-.496.206" filter="url(#az)" transform="translate(7.166 -2.022)scale(.31845)"/><path fill="url(#aA)" d="M158.62 81.5c1.161-1.161-.826-4.24-2.375-5.5-1.122-.913-4.39-1.868-4.25-.875s1.61 2.267 2.595 3.237c1.212 1.196 3.479 3.69 4.03 3.138" filter="url(#aF)" style="fill:url(#aA)" transform="translate(7.166 -2.022)scale(.31845)"/><path fill="url(#aH)" d="M75.25 132.49a23.7 23.7 0 0 1 8.121-4.4c6.086-1.882 13-1.137 18.379 2.275 1.857 1.178 3.512 2.642 5.239 4.004s3.561 2.64 5.635 3.371c1.121.394 2.319.623 3.5.5a6.5 6.5 0 0 0 2.985-1.12 7.6 7.6 0 0 0 2.18-2.336c1.112-1.837 1.47-4.065 1.279-6.203-.383-4.277-2.796-8.053-4.819-11.841-.633-1.186-1.236-2.393-2-3.5-2.343-3.396-6.073-5.636-9.985-6.948s-8.046-1.786-12.14-2.302c-1.825-.23-3.673-.47-5.5-.25-2.1.253-4.076 1.1-6.125 1.625-.972.249-1.963.425-2.928.704s-1.913.669-2.697 1.296c-1.144.916-1.865 2.29-2.176 3.723s-.24 2.925-.012 4.373c.458 2.896 1.541 5.724 1.438 8.654-.07 2.012-.702 3.988-.625 6 .023.59.107 1.177.25 1.75" clip-path="url(#aI)" style="fill:url(#aH)" transform="translate(26.273 -20.607)scale(.31845)"/><path fill="url(#aJ)" d="M-4.594 113.12c-.477.6-.908 1.252-1.25 1.969a17.7 17.7 0 0 1 6.031 2.562c3.545 2.355 6.237 5.797 8.125 9.625a10 10 0 0 0 1.188-1.593c-1.898-3.988-4.644-7.595-8.313-10.032-1.762-1.17-3.724-2.053-5.78-2.53z" filter="url(#aK)" style="fill:url(#aJ)" transform="translate(58.119 -20.29)scale(.31845)"/><path fill="url(#aL)" d="M46.209 25.842c.562-.633.947-1.404 1.488-2.056.27-.326.582-.623.95-.834.367-.21.793-.33 1.215-.295.47.04.909.275 1.253.598s.598.729.802 1.154c.195.407.35.84.63 1.194.3.377.72.634 1.099.93.19.149.372.31.522.498s.267.406.315.642a1.34 1.34 0 0 1-.06.722 1.6 1.6 0 0 1-.4.606c-.352.34-.832.523-1.316.59-.968.138-1.947-.151-2.925-.124-.99.027-1.956.377-2.945.34-.494-.017-.996-.138-1.402-.42a1.8 1.8 0 0 1-.508-.534 1.5 1.5 0 0 1-.215-.702 1.6 1.6 0 0 1 .142-.688c.094-.217.227-.415.376-.598.299-.365.665-.67.979-1.023" style="fill:url(#aL);stroke-width:.31845"/><path fill="url(#aM)" d="M40.843 31.947q.03.142.104.267c.084.142.208.257.34.354.134.097.279.178.419.266.743.467 1.35 1.124 1.887 1.817.722.93 1.36 1.964 2.325 2.64.68.478 1.495.75 2.322.833.972.098 1.955-.06 2.892-.335a10.2 10.2 0 0 0 2.479-1.09c1.464-.903 2.687-2.226 4.302-2.82.352-.13.72-.222 1.06-.382s.659-.4.82-.738c.157-.326.15-.702.202-1.06.054-.381.176-.751.243-1.132s.075-.787-.09-1.136a1.47 1.47 0 0 0-.668-.664 2.3 2.3 0 0 0-.925-.228c-.64-.031-1.27.132-1.907.19-.844.078-1.693-.03-2.54-.005-1.054.03-2.092.269-3.145.32-1.2.058-2.4-.127-3.6-.176-.521-.021-1.045-.016-1.56.072-.512.088-1.016.262-1.444.558-.418.288-.751.682-1.134 1.014a3 3 0 0 1-.626.429c-.23.11-.48.18-.734.174-.13-.003-.265-.024-.39.015a.5.5 0 0 0-.204.13 1.3 1.3 0 0 0-.152.19 3.3 3.3 0 0 0-.276.497" style="fill:url(#aM);stroke-width:.31845"/><path fill="#d9b30d" d="M60.557 169.1a6.7 6.7 0 0 0 .644 4.77 6.7 6.7 0 0 0 3.702 3.077c1.978.66 4.206.337 6.055-.628 1.071-.559 2.05-1.346 2.67-2.384a4.5 4.5 0 0 0 .604-1.696 3.7 3.7 0 0 0-.185-1.785 3.9 3.9 0 0 0-1.146-1.596 5.2 5.2 0 0 0-1.734-.946c-1.257-.415-2.61-.424-3.934-.36a39 39 0 0 0-5.969.753" filter="url(#aN)" transform="translate(26.273 -20.607)scale(.31845)"/><path fill="#604405" d="M54.066 156.68c-1.339.791-2.629 1.664-3.897 2.563-.657.466-1.335.97-1.681 1.696-.246.515-.302 1.099-.31 1.67-.007.57.03 1.143-.046 1.709-.051.386-.154.766-.171 1.155-.009.195.004.392.056.58.05.188.142.367.275.508.173.184.408.296.649.37.24.073.49.11.735.169 1.175.276 2.197.996 3.094 1.803.898.807 1.703 1.715 2.64 2.477 2.537 2.064 5.89 2.918 9.16 2.972s6.505-.63 9.696-1.35c2.506-.564 5.015-1.154 7.425-2.043 3.703-1.365 7.14-3.432 10.118-6.022 1.35-1.174 2.617-2.463 4.133-3.415 1.34-.842 2.842-1.398 4.206-2.203.122-.072.243-.146.352-.236s.206-.198.269-.325a.98.98 0 0 0 .039-.716 1.9 1.9 0 0 0-.36-.634 4.4 4.4 0 0 0-.569-.577c-1.424-1.22-3.357-1.663-5.226-1.811s-3.76-.044-5.61-.353c-1.738-.29-3.393-.938-5.072-1.477a37 37 0 0 0-5.389-1.31c-4.294-.7-8.717-.567-12.977.32a37.9 37.9 0 0 0-11.539 4.48" filter="url(#aO)" transform="translate(26.273 -20.607)scale(.31845)"/><path fill="url(#aP)" d="M43.354 27.845a7.6 7.6 0 0 0-1.635 1.492c-.268.328-.511.685-.646 1.087-.106.315-.142.65-.21.976-.024.122-.054.245-.053.37q0 .094.027.184.03.092.094.16a.5.5 0 0 0 .273.136c.102.02.205.024.308.036.463.053.89.278 1.274.542s.738.572 1.132.82c.87.552 1.909.797 2.938.836 1.03.04 2.057-.116 3.067-.318.802-.16 1.603-.35 2.364-.651 1.167-.46 2.218-1.168 3.222-1.918.457-.34.907-.692 1.317-1.087.138-.135.273-.274.422-.397.15-.123.315-.23.499-.29.28-.09.585-.063.875-.015.22.037.438.086.66.077a1 1 0 0 0 .325-.065.7.7 0 0 0 .268-.19.64.64 0 0 0 .14-.406.83.83 0 0 0-.117-.415c-.148-.252-.404-.422-.67-.54-.366-.163-.76-.242-1.15-.336a16.5 16.5 0 0 1-3.45-1.26c-.546-.27-1.077-.571-1.615-.86-.552-.296-1.115-.58-1.716-.762-1.341-.407-2.808-.274-4.132.187a8.84 8.84 0 0 0-3.81 2.607" style="fill:url(#aP);stroke-width:.31845"/><path fill="#f6da4a" d="M83.239 153.08a1.8 1.8 0 0 0-.901-.591 2.4 2.4 0 0 0-1.085-.049c-.72.123-1.364.51-1.965.925-1.709 1.176-3.22 2.628-4.538 4.23-1.745 2.12-3.185 4.571-3.667 7.274-.082.456-.135.922-.079 1.38.057.46.233.916.56 1.244.285.288.675.464 1.077.522s.816.002 1.2-.128c.77-.26 1.41-.8 2.015-1.342 3.336-2.985 6.353-6.567 7.56-10.879.12-.432.224-.875.221-1.324s-.12-.91-.398-1.262" filter="url(#aQ)" transform="translate(26.273 -20.607)scale(.31845)"/><path fill="url(#aR)" d="M135.25 88.528c.231.742 1.428.62 2.12.975.606.313 1.094.998 1.776 1.017.65.02 1.664-.225 1.748-.87.112-.854-1.133-1.396-1.935-1.708-1.032-.403-2.353-.607-3.32-.069-.222.124-.464.413-.389.655" filter="url(#aX)" opacity=".8" style="fill:url(#aR)" transform="translate(7.166 -2.022)scale(.31845)"/><path fill="url(#aY)" d="M123.83 88.108c-.888-.289-2.357 1.278-1.878 2.079.132.22.535.5.806.35.41-.225.744-1.03 1.188-1.345.296-.21.23-.972-.116-1.084" filter="url(#aZ)" opacity=".8" style="fill:url(#aY)" transform="translate(7.166 -2.022)scale(.31845)"/><path fill="url(#ba)" d="M245.9 158.28a2.608 2.328 0 0 1-2.608 2.328 2.608 2.328 0 0 1-2.608-2.328 2.608 2.328 0 0 1 2.608-2.328 2.608 2.328 0 0 1 2.608 2.328" clip-path="url(#bb)" color="#000" filter="url(#bc)" style="fill:url(#ba)" transform="matrix(.3489 0 -.0542 .48344 -17.113 -46.758)"/></svg>