<svg xmlns="http://www.w3.org/2000/svg" version="1.0" viewBox="0 0 622 607.67"><path d="M110.2 1.17c-16.7 3.7-28.9 13.7-38.4 32l-4.2 8-2.8-11.5c-1.5-6.3-3-12.4-3.2-13.5s-1-4.1-1.6-6.8l-1.2-4.7H0l.2 16.2.3 16.3H11l10.6-.1-.1 48.7c0 26.8-.3 49-.7 49.4-.3.4-5.2.7-10.7.7H0v32.8h102.8l.1-16.4v-16.3l-12.5-.1c-6.8 0-14.1-.1-16.2-.1l-3.8-.1.1-24.3c.2-20.1.5-25 1.9-28.7 1.7-4.4 9.3-19 10.5-20 .3-.3 2.3-2.7 4.5-5.3 4.6-5.7 12.6-11.3 19-13.2l4.6-1.4v30.4h14.9c8.2 0 15.1-.2 15.4-.5s.8-3.2 1.1-6.5c.4-3.3.9-7.1 1.1-8.5.5-3.5 2.3-16.6 3.1-22.5.3-2.8 1.4-10.7 2.3-17.7l1.7-12.7-2.6-1c-9.4-3.7-27.2-4.9-37.8-2.6m136.8 105c-17.2 4.4-27.7 18.9-26.5 36.4.8 11.2 9.7 23.6 20.5 28.3 10.5 4.7 24.3 3.1 33.6-3.8 17.3-12.8 19.2-36.7 4-51.8-8.4-8.4-20.7-12-31.6-9.1m54 312v189.5h321v-379H301z"/></svg>