<svg xmlns="http://www.w3.org/2000/svg" viewBox="0 0 832 832"><g transform="matrix(5.6944 0 0 6 -632.17 -1593.4)"><rect width="146.11" height="138.67" x="111.02" y="265.57" fill="#7f7fff" opacity=".99" rx="17.934" ry="21.724"/><g fill="#fff"><circle cx="146.46" cy="298.6" r="5.865" opacity=".99"/><circle cx="206.92" cy="291.41" r="5.865" opacity=".99"/><circle cx="191.62" cy="349.02" r="7.309" opacity=".99"/><circle cx="134.79" cy="355.98" r="4.823" opacity=".99"/><circle cx="176.14" cy="395.53" r="4.823" opacity=".99"/><circle cx="223.32" cy="381.83" r="4.823" opacity=".99"/><circle cx="243.76" cy="337.31" r="4.823" opacity=".99"/><circle cx="237.07" cy="312.2" r="3.78" opacity=".99"/><circle cx="208.66" cy="278.51" r="3.78" opacity=".99"/><circle cx="124.58" cy="353.2" r="3.78" opacity=".99"/><circle cx="155.07" cy="384.12" r="3.78" opacity=".99"/><circle cx="127.4" cy="309.92" r="4.823" opacity=".99"/><circle cx="163.9" cy="276.47" r="4.823" opacity=".99"/><circle cx="152.94" cy="325.41" r="3.78" opacity=".99"/><circle cx="194.34" cy="374.89" r="3.78" opacity=".99"/></g><g fill="none" stroke="#fff"><path stroke-width="6.622" d="m206.68 290.19-15.419 60.152m14.669-58.572-60.058 6.998M191.2 349.64l-45.274-51.219"/><path stroke-width="4.966" d="m191.2 349.99-14.957 46.305"/><path stroke-width="3.311" d="m145.75 298.23 17.382-20.15m-35.972 31.86 18.017-11.862M134.67 355.6l11.088-57.919"/><path stroke-width="4.966" d="m175.38 395.25-41.001-38.563m88.931 24.323-48.104 14.045m68.084-57.865-19.981 43.973M190.57 349.64l52.031-12.11m-35.811-46.15 35.688 45.66M133.67 355.6l55.438-5.956"/><path stroke-width="3.311" d="m174.73 394.86-20.212-10.869M123.39 352.82l30.087 30.87m-26.917-73.35-2.252 42.484m38.812-76.484 44.754 1.539m29.566 34.591-28.354-34.741m35.224 59.311-7.45-24.915m-30.6-21.395 2.656-12.656M135.23 356.09l-11.723-2.233"/><path stroke-width="1.655" d="m154.51 384.38 38.691-9.48m.989-.05 27.834 6.005M125.98 310.33l50.658-5.668m.002-1.122 30.149-11.211"/></g><circle cx="176" cy="304.15" r="3.78" fill="#fff" opacity=".99"/><circle cx="223.38" cy="350.02" r="3.537" fill="#fff" opacity=".99"/><path fill="none" stroke="#fff" stroke-width="1.655" d="m222.94 349.89 13.578-38.127M222.75 381.13l.471-32.09m-89.231 6.1 19.396-29.762m10.124-48.628-10.692 48.628"/></g></svg>