<svg xmlns="http://www.w3.org/2000/svg" xml:space="preserve" viewBox="0 0 245.941 137.007"><g fill="#380d09"><path d="m13.25 101.563-13.25 12s6.5 8.125 15.125 13 13.381 4.508 23.065 4.379c9.31 0 18.81-1.754 26.435-8.504s9.066-8.6 9.033-17.112c-.016-3.994-1.075-12.813-5.908-18.513-5.466-6.445-14.781-9.566-14.781-9.566s-28.53-7.155-25.594-17.059c1.232-4.156 7.818-5.726 14.292-4.583 8.192 1.444 16.474 6.371 16.474 6.371l11.577-11.33s-5.274-6.198-13.468-10.208c-6.064-2.967-14.428-4.059-19.783-4.078C23.875 36.313 8.132 47.557 6.25 59.188c-1.375 8.5 1.383 15.676 7.625 21.125 7.875 6.875 13.478 7.771 13.478 7.771s25.123 6.469 25.123 14.286-6.101 10.692-15.851 10.817-23.375-11.624-23.375-11.624M194.341 40.589l.2 18.199h10.4l.1 53.9s1.801 6.2 6.5 10.8c6.065 5.937 12.4 7.454 12.4 7.454h20.399l.101-18.554-11-.1s-2.401.101-5.1-2.5c-2.801-2.7-2.7-6.2-2.7-6.2l.2-44.9h20l.1-18.2-20-.1-.2-35.2h-20.8l.2 35.4h-10.8zM152.5 44.938c-12.529-2.767-25.25-1.375-33.375 3.375L129.75 5.188 108.562 0 78.437 121.438l21 6.062 2.896-11.895c6.167 11.666 13.194 17.279 26.667 20.333 25 5.667 47.312-11.762 53.334-38.667C187.5 74.188 171.75 49.188 152.5 44.938m6.089 67.261-30.152 8.302-22.49-22.776 7.666-31.077 30.155-8.302 22.487 22.776z"/></g></svg>