<svg xmlns="http://www.w3.org/2000/svg" viewBox="0 0 164.62 186.89"><g transform="translate(0 -.49)"><path fill="#d6ba32" d="M14.97 168.4 0 .49h164.62L149.66 168.4l-67.53 18.98"/><path fill="#ffda3e" d="M149.66 15.25H82.49v158.78l54.39-14.96z"/><linearGradient id="a" x1="-93.882" x2="-92.882" y1="-200.48" y2="-200.48" gradientTransform="matrix(83.388 0 0 -88.948 7869.4 -17712)" gradientUnits="userSpaceOnUse"><stop offset="0" stop-color="#646464"/><stop offset="1"/></linearGradient><path fill="url(#a)" d="m82.34 100.89.01 31.8c19.2-.64 36.96.22 36.63 5.99l1.62-28.52c0 .01.45-7.94-38.26-9.27"/><linearGradient id="b" x1="-93.882" x2="-92.882" y1="-200.48" y2="-200.48" gradientTransform="matrix(83.388 0 0 -88.948 7869.4 -17755)" gradientUnits="userSpaceOnUse"><stop offset="0" stop-color="#646464"/><stop offset="1"/></linearGradient><path fill="url(#b)" d="m82.34 53.61.01 36.25c20.41 1.09 39.2 3.75 38.83 10.23L123 67.96c-.01 0 .5-8.99-40.66-14.35"/><linearGradient id="c" x1="-93.882" x2="-92.882" y1="-200.48" y2="-200.48" gradientTransform="matrix(83.388 0 0 -88.948 7869.8 -17764)" gradientUnits="userSpaceOnUse"><stop offset="0" stop-color="#4B4B4B"/><stop offset="1"/></linearGradient><path fill="url(#c)" d="m40.48 44.98 1.91 34.08s19.58 4.47 40.33 11.04V53.97c-11.5-3.07-25.46-6.13-42.24-8.99"/><linearGradient id="d" x1="-93.882" x2="-92.882" y1="-200.48" y2="-200.48" gradientTransform="matrix(83.388 0 0 -88.948 7869.8 -17721)" gradientUnits="userSpaceOnUse"><stop offset="0" stop-color="#4B4B4B"/><stop offset="1"/></linearGradient><path fill="url(#d)" d="m42.98 89.75 1.69 30.24s18.5 5.5 38.04 12.91v-31.8c-10.77-3.62-23.9-7.46-39.73-11.35"/><linearGradient id="e" x1="-93.882" x2="-92.882" y1="-200.48" y2="-200.48" gradientTransform="matrix(83.388 0 0 88.948 7869.4 17881)" gradientUnits="userSpaceOnUse"><stop offset="0" stop-color="#A00000"/><stop offset="1" stop-color="red"/></linearGradient><path fill="url(#e)" d="M125.71 20.11c-.45 7.93-21.31 14.89-43.37 20.21l.01 37.55c40.78-12.25 41.3-21.3 41.3-21.3z"/><linearGradient id="f" x1="-93.882" x2="-92.882" y1="-200.48" y2="-200.48" gradientTransform="matrix(83.388 0 0 88.948 7869.4 17927)" gradientUnits="userSpaceOnUse"><stop offset="0" stop-color="#A00000"/><stop offset="1" stop-color="red"/></linearGradient><path fill="url(#f)" d="M122.99 67.96c-.4 6.97-20 14.82-40.65 21.31l.01 32.88c38.37-14.05 38.82-22.05 38.82-22.05z"/><linearGradient id="g" x1="-93.882" x2="-92.882" y1="-200.48" y2="-200.48" gradientTransform="matrix(83.388 0 0 88.948 7869.4 17968)" gradientUnits="userSpaceOnUse"><stop offset="0" stop-color="#A00000"/><stop offset="1" stop-color="red"/></linearGradient><path fill="url(#g)" d="M120.6 110.17c-.35 6.18-18.84 14.66-38.25 22v29.02c36.22-15.37 36.63-22.5 36.63-22.5z"/><linearGradient id="h" x1="-93.882" x2="-92.882" y1="-200.48" y2="-200.48" gradientTransform="matrix(83.388 0 0 88.948 7869.8 17892)" gradientUnits="userSpaceOnUse"><stop offset="0" stop-color="#780000"/><stop offset="1" stop-color="#C00000"/></linearGradient><path fill="url(#h)" d="M82.72 40.38c-21.91 3.39-42.24 4.6-42.24 4.6l1.91 34.08c15.94.16 29.27-.34 40.33-1.26z"/><linearGradient id="i" x1="-93.882" x2="-92.882" y1="-200.48" y2="-200.48" gradientTransform="matrix(83.388 0 0 88.948 7869.8 17938)" gradientUnits="userSpaceOnUse"><stop offset="0" stop-color="#780000"/><stop offset="1" stop-color="#C00000"/></linearGradient><path fill="url(#i)" d="M82.72 89.18c-20.56 1.17-39.73.57-39.73.57l1.69 30.24c15.07 1.4 27.64 2.01 38.04 2.07z"/><linearGradient id="n" x1="-93.882" x2="-92.882" y1="-200.48" y2="-200.48" gradientTransform="matrix(83.388 0 0 88.948 7869.8 17977)" gradientUnits="userSpaceOnUse"><stop offset="0" stop-color="#780000"/><stop offset="1" stop-color="#C00000"/></linearGradient><path fill="url(#n)" d="M82.72 132.09c-19.36-.56-37.51-2.59-37.51-2.59l1.51 27c14.3 2.38 26.18 3.86 35.99 4.68v-29.09"/></g></svg>