<svg xmlns="http://www.w3.org/2000/svg" version="1.1" viewBox="0 0 278.92 453.25"><g transform="matrix(1.25 0 0 -1.25 -449.11 629.13)"><linearGradient gradientTransform="matrix(90,0,0,-90,-49226,-1256.1)" gradientUnits="userSpaceOnUse" id="a" x1="550.94" x2="554.04" y1="-16.914" y2="-16.914"><stop offset="0" stop-color="#444"/><stop offset="1"/></linearGradient><path d="m359.29 280.16v-27.892c0-4.702 101.44-12.576 167.53-27.893 31.926 7.402 55.61 16.534 55.61 27.893v27.892c0 11.351-23.684 20.493-55.61 27.892-66.089-15.319-167.53-23.195-167.53-27.892" fill="url(#a)"/></g><g transform="matrix(1.25 0 0 -1.25 -449.11 629.13)"><linearGradient gradientTransform="matrix(90,0,0,-90,-49226,-1220.1)" gradientUnits="userSpaceOnUse" id="b" x1="550.94" x2="554.04" y1="-17.754" y2="-17.754"><stop offset="0" stop-color="#444"/><stop offset="1"/></linearGradient><path d="m359.29 391.73v-27.893c0-4.702 101.44-12.576 167.53-27.892 31.926 7.399 55.61 16.534 55.61 27.892v27.893c0 11.352-23.684 20.492-55.61 27.892-66.089-15.319-167.53-23.195-167.53-27.892" fill="url(#b)"/></g><g transform="matrix(1.25 0 0 -1.25 -449.11 629.13)"><linearGradient gradientTransform="matrix(90,0,0,-90,-49226,-1238.1)" gradientUnits="userSpaceOnUse" id="c" x1="550.94" x2="554.04" y1="-17.334" y2="-17.334"><stop offset="0" stop-color="#A61214"/><stop offset="1" stop-color="#D82023"/></linearGradient><path d="m359.29 335.95v-83.676c0 6.973 223.14 20.919 223.14 55.784v83.677c0-34.865-223.14-48.811-223.14-55.785" fill="url(#c)"/></g><g transform="matrix(1.25 0 0 -1.25 -449.11 629.13)"><linearGradient gradientTransform="matrix(90,0,0,-90,-49226,-1202.1)" gradientUnits="userSpaceOnUse" id="d" x1="550.94" x2="554.04" y1="-18.174" y2="-18.174"><stop offset="0" stop-color="#A61214"/><stop offset="1" stop-color="#D82023"/></linearGradient><path d="m359.29 447.52v-83.677c0 6.973 223.14 20.92 223.14 55.785v83.676c0-34.866-223.14-48.812-223.14-55.784" fill="url(#d)"/></g><g transform="matrix(1.25 0 0 -1.25 -449.11 629.13)"><linearGradient gradientTransform="matrix(90,0,0,-90,-49226,-1274.1)" gradientUnits="userSpaceOnUse" id="e" x1="550.94" x2="554.04" y1="-16.494" y2="-16.494"><stop offset="0" stop-color="#A61214"/><stop offset="1" stop-color="#D82023"/></linearGradient><path d="m359.29 224.38v-83.677c0 6.973 223.14 20.92 223.14 55.784v83.677c0-34.865-223.14-48.811-223.14-55.784" fill="url(#e)"/></g></svg>