<svg xmlns="http://www.w3.org/2000/svg" viewBox="180 -120 936.77 571.64"><pattern id="a" width="28.9" height="28.9" x="180" y="440" overflow="visible" patternTransform="translate(291.21 17074)" patternUnits="userSpaceOnUse" viewBox="5.2 -34.1 28.9 28.9"><path d="M32.1-5.2c0-2.9-2.3-5.2-5.2-5.2s-5.2 2.3-5.2 5.2S24 0 26.9 0s5.2-2.3 5.2-5.2m-14.4 0c0-2.9-2.3-5.2-5.2-5.2S7.2-8.1 7.2-5.2 9.6 0 12.5 0s5.2-2.3 5.2-5.2m21.7-14.5c0-2.9-2.3-5.2-5.2-5.2S29-22.6 29-19.7s2.3 5.2 5.2 5.2 5.2-2.3 5.2-5.2m-14.5 0c0-2.9-2.3-5.2-5.2-5.2s-5.2 2.3-5.2 5.2 2.3 5.2 5.2 5.2 5.2-2.3 5.2-5.2m-14.4 0c0-2.9-2.3-5.2-5.2-5.2S0-22.6 0-19.7s2.3 5.2 5.2 5.2 5.3-2.3 5.3-5.2m21.6-14.4c0-2.9-2.3-5.2-5.2-5.2s-5.2 2.3-5.2 5.2 2.3 5.2 5.2 5.2 5.2-2.4 5.2-5.2m-14.4 0c0-2.9-2.3-5.2-5.2-5.2S7.2-37 7.2-34.1s2.3 5.2 5.2 5.2 5.3-2.4 5.3-5.2"/></pattern><path fill="url(#a)" d="m368.61-65.02 109.7 58 50.5-54.3 46.8 47.3 82.1-91.5 67.7 113.6 83.3-39.2 130.1-32.1-42.2 84.4 42.6 63 124.4 96.7-132 27.8-24.9 106.1-109.9-16.9-28 130.6-70.6-115.6-92.7 98-67.7-91.6-95.4 83.9 16.5-148.2-124.7 28 16.5-50.9-122.5-38.7 92.8-68.2-44.8-68.6 49.6-29.2 45.9-4.5-10.1-74.3-2.3-4.7c-11.7-27.8 3.5-12 9.3-8.9"/><path fill="#0076c6" d="m825.214 364.58-93.5-88.2-52.5 121.8-84-66.2-58.8 109.3-27.3-146-99.8 65.1v-53.6l-116.6 1.1 60.9-93.5-57.7-51.5 34.6-43-42-56.8 34.7-5.2-31.5-43.1 160.7 25.2 28.3-67.2 53.6 30.5 45.1-112.4 90.4 87.2 60.9-63.1 21 56.8 130.2-76.7-6.3 89.3 134.5 53.5-106.1 67.3 55.7 171.2-136.6-9.5z"/><path d="M448.414 116.28c-12.4 4.7-27.2 10.3-44.2 16.9l-43.8 16.8c0-18.2-5-27.4-15.1-27.4-14.4 0-28.7 8.2-43.1 24.5-10.1 12-14.4 23.7-12.8 34.9 1.2 7.4 8.5 11.1 22.1 11.1 7.4 0 17.1-1.2 29.1-3.5 16.7-3.5 31.4-5.2 44.2-5.2 32.6 0 51.6 11.3 57.1 33.8 1.5 7 2.3 14.4 2.3 22.1 0 24.8-9.3 51.6-27.9 80.3-24.1 37.6-57.8 69.3-101.3 94.9q-34.35 20.4-67.5 20.4c-20.2 0-40-5.6-59.4-16.9 9.7-23.3 25.2-57.6 46.6-103 12.4 8.5 25.6 12.8 39.6 12.8 6.2 0 12.6-1 19.2-2.9 12-3.1 23.5-7.6 34.3-13.4 15.5-8.5 23.3-17.3 23.3-26.2 0-9.7-8-14.6-23.9-14.6-10.9 0-26.7 2.2-47.4 6.7-20.8 4.5-36.6 6.7-47.4 6.7-14.4 0-25.4-2.7-33.2-8.2-15.1-10.1-21.3-25.8-18.6-47.2 5-43.1 32.8-92.9 83.3-149.6 51.6-58.2 96.1-88.7 133.3-91.4 36.1-2.3 54.1 24.8 54.1 81.5 0 13.6-1 29-2.9 46.1"/><path d="M449.814 127.88c15.6-6.4 29-10.1 40.1-10.9 12.5-.9 22.3 1.7 29.3 7.7 9.7 8.7 15 19.7 16 33 .4 4.9.1 10.1-.8 15.6-3.7 24.9-14.9 47.2-33.8 66.9-18.8 19.7-40.5 32.1-65.1 37.1q.15-4.65 2.4-27.6l9.8-97.1c1.4-14.5 2.1-22.7 2.1-24.7m32.3 32.3c-4.4 27.7-7.4 53.9-9 78.4 7.8-8.5 14.5-18.2 20.3-29.1 7.1-13.4 10.4-24.6 9.7-33.8-.8-11.8-7.8-17-21-15.5m61.8-38.4 44.3-14.8c-2.1 16.1-3.4 28.8-3.9 38 13.5-15.5 25.7-30.4 36.7-44.5l36.2 17-45.6 53.5 44.1 103.7-44.1 32-32.4-97.3q-2.25 43.8-1.5 86.4l-40.1 17.4z"/><path d="M638.714 220.68c26.6-67.5 47-136.2 61-206l70.7-11.5-10.2 108.6 27.8-100.3 68-11.8c-8.1 64.3-12.1 122.3-12.1 174v30.5l-60.4 10.7 10.7-129.6-38.8 143.6-32.6 4.4 19.5-182.3-42 161.6zm211.4-28.9c6.9-41.1 11.3-80.2 13.1-117.4l44.6-17.4c1.2 31.8 6.4 68.6 15.7 110.4l-30.6 14.2-1.7-19.5-9.8 4.1-.4 14zm39.2-50.7-5.1-58.8h-.2l-1.9 61.8z"/><path d="m946.714 33.08 38-7.7c-.3 4.5-.4 11-.4 19.3 0 19.9.7 37.4 2 52.5.7 8.6 1.8 15.6 3.3 20.9l14.9-85.6 37.7-7c-15.2 58.7-25.2 109.5-29.8 152.5l-34.7 9.7c-.1-.3-1.1-2.9-2.9-7.7l-11.4-32.5c-1.9-5.3-3-8.6-3.3-10.1-3.1 17.3-5.5 34-7.2 50.3l-35.1 10.5zm89.3 148.5c5-1.4 9.6-1.2 13.8.5 4.9 1.7 7.7 5.1 8.3 10 .8 6.7-2 13.2-8.4 19.6-5 5-10.7 8.4-17.1 10.1-5.1 1.4-9.7 1.4-13.7 0-4.8-1.8-7.5-5.1-8.1-10-.8-6.7 1.8-13.3 7.9-19.8 5-5.2 10.8-8.7 17.3-10.4m7.7-138.5 46.5 1.9c-9.3 23.1-16.1 41.2-20.2 54.1-5.6 17.7-10.2 36.6-13.7 56.8l-30.4 2.5z"/><path fill="none" stroke="#000" stroke-width="9" d="m824.214 361.58-93.5-88.2-52.5 121.8-84-66.2-58.8 109.3-27.3-146-99.8 65.1v-53.6l-116.6 1.1 60.9-93.5-57.7-51.5 34.6-43-42-56.8 34.7-5.2-31.5-43.1 160.7 25.2 28.3-67.2 53.6 30.5 45.1-112.4 90.4 87.2 60.9-63.1 21 56.8 130.2-76.7-6.3 89.3 134.5 53.5-106.1 67.3 55.7 171.2-136.6-9.5z"/><path fill="#fb2127" stroke="#000" stroke-width="9" d="M555.214 139.48c-1-13.3-6.3-24.4-16-33-7-6.1-16.8-8.6-29.3-7.7-11.1.8-24.5 4.4-40.1 10.9 0 2-.7 10.2-2 24.7l-6.4 63.6c-6.1-21.2-24.9-31.8-56.5-31.8-12.8 0-27.6 1.7-44.2 5.2-12 2.3-21.7 3.5-29.1 3.5-13.6 0-21-3.7-22.1-11.1-1.6-11.3 2.7-22.9 12.8-34.9 14.4-16.3 28.7-24.5 43.1-24.5 10.1 0 15.1 9.1 15.1 27.4l43.7-16.9c17.1-6.6 31.8-12.2 44.2-16.9 1.9-17.1 2.9-32.4 2.9-46 0-56.7-18-83.8-54.1-81.5-37.3 2.7-81.7 33.2-133.3 91.4-50.5 56.7-78.2 106.5-83.3 149.6-2.7 21.3 3.5 37.1 18.6 47.2 7.8 5.4 18.8 8.2 33.2 8.2 10.9 0 26.7-2.2 47.4-6.7 20.8-4.5 36.6-6.7 47.4-6.7 15.9 0 23.9 4.9 23.9 14.6 0 8.9-7.8 17.7-23.3 26.2-10.9 5.8-22.3 10.3-34.3 13.4-6.6 2-13 2.9-19.2 2.9-14 0-27.2-4.3-39.6-12.8-21.3 45.4-36.9 79.8-46.6 103 19.4 11.3 39.2 16.9 59.4 16.9q33.15 0 67.5-20.4c43.5-25.6 77.2-57.2 101.3-94.9 9.8-15.1 17-29.7 21.6-43.7 23.5-5.3 44.4-17.5 62.7-36.5 18.8-19.7 30.1-42 33.8-66.9.9-5.8 1.1-11 .8-15.8zm-41.8 51.6c-5.8 10.9-12.6 20.6-20.3 29.1 1.6-24.6 4.6-50.7 9-78.4 13.2-1.5 20.2 3.7 21 15.5.7 9.2-2.5 20.4-9.7 33.8zm50.5-87.7 44.3-14.8c-2.1 16.1-3.4 28.8-3.9 38 13.5-15.5 25.7-30.4 36.7-44.5l36.2 17-45.6 53.5 44.1 103.7-44.1 32-32.4-97.3q-2.25 43.8-1.5 86.4l-40 17.6z"/><path fill="#fb2127" stroke="#000" stroke-width="9" d="M658.714 202.28c26.6-67.5 47-136.2 61-206l70.7-11.5-10.1 108.6 27.7-100.3 68-11.8c-8.1 64.3-12.1 122.3-12.1 174v30.5l-60.4 10.7 10.7-129.6-38.8 143.6-32.6 4.4 19.5-182.3-42 161.6zm211.4-28.9c6.9-41.1 11.3-80.2 13.1-117.4l44.6-17.4c1.2 31.8 6.4 68.6 15.7 110.4l-30.6 14.2-1.7-19.5-9.8 4.1-.4 14zm39.2-50.7-5.1-58.8h-.2l-1.9 61.8z"/><path fill="#fb2127" stroke="#000" stroke-width="9" d="m966.814 14.68 38-7.7c-.3 4.5-.4 11-.4 19.3 0 19.9.7 37.4 2 52.5.7 8.6 1.8 15.6 3.3 20.9l14.8-85.7 37.7-7c-15.2 58.7-25.2 109.5-29.8 152.5l-34.7 9.7c-.1-.3-1.1-2.9-2.9-7.7l-11.3-32.5c-1.9-5.3-3-8.6-3.3-10.1-3.1 17.3-5.5 34-7.2 50.3l-35.1 10.5zm89.3 148.5c5-1.4 9.6-1.2 13.8.5 4.9 1.7 7.7 5.1 8.3 10 .8 6.7-2 13.2-8.4 19.6-5 5-10.7 8.4-17.1 10.1-5.1 1.4-9.7 1.4-13.7 0-4.8-1.8-7.5-5.1-8.1-10-.8-6.7 1.8-13.3 7.9-19.8 4.9-5.2 10.7-8.7 17.3-10.4zm7.6-138.5 46.5 1.9c-9.3 23.1-16.1 41.2-20.2 54.1-5.6 17.7-10.2 36.6-13.7 56.8l-30.4 2.5z"/></svg>