<svg xmlns="http://www.w3.org/2000/svg" fill="none" viewBox="0 0 37.461 33.03"><path fill="#1f1633" d="M21.711 1.695a3.503 3.503 0 0 0-6 0l-4.935 8.452a24.16 24.16 0 0 1 13.313 19.995h-3.465a20.76 20.76 0 0 0-11.595-17.04L4.46 20.999a11.94 11.94 0 0 1 6.923 9.128H3.426a.57.57 0 0 1-.465-.833l2.205-3.75a8 8 0 0 0-2.52-1.425L.464 27.87a3.405 3.405 0 0 0 1.267 4.68c.518.292 1.1.447 1.695.45h10.898a14.55 14.55 0 0 0-6-12.982l1.733-3a17.9 17.9 0 0 1 7.725 15.982h9.232A26.91 26.91 0 0 0 14.707 9.15l3.502-6a.577.577 0 0 1 .788-.202c.397.217 15.218 26.078 15.495 26.378a.57.57 0 0 1-.51.847h-3.57q.068 1.433 0 2.858h3.585a3.443 3.443 0 0 0 3-5.168z"/></svg>