<svg xmlns="http://www.w3.org/2000/svg" viewBox="0 0 78.418 78.418"><g fill="none" fill-rule="evenodd"><path fill="#1192e8" d="m16.702 48.919 20.19 14.682v14.817C21.247 77.505 8.065 67.412 2.645 53.441zM61.716 48.919l14.057 4.522c-5.42 13.97-18.602 24.064-34.247 24.977V63.601z"/><path fill="#009d9a" d="m14.376 8.873 8.668 11.981-7.668 23.62-14.148 4.552a39.3 39.3 0 0 1-1.222-9.134L0 39.242c0-12.24 5.6-23.172 14.376-30.37zM64.042 8.873c8.775 7.197 14.376 18.129 14.376 30.37 0 3.378-.427 6.656-1.228 9.783l-14.148-4.552-7.668-23.62z"/><path fill="#42be65" d="M39.209 0c7.76 0 14.994 2.257 21.083 6.15l-8.7 12.024H26.827l-8.7-12.024A39 39 0 0 1 38.56.005z"/></g></svg>