<svg xmlns="http://www.w3.org/2000/svg" fill="none" viewBox="0 0 46.393 68.119"><g clip-path="url(#a)" transform="translate(-1.558 -1.585)"><path fill="url(#b)" d="M11.546 23.585C13.642 15.626 17.73 8.36 23.41 2.498l.568-.586a1.066 1.066 0 0 1 1.545.01l.862.91a48.4 48.4 0 0 1 11.566 20.732c.18.666-.313 1.323-.99 1.323H12.525c-.667 0-1.152-.645-.98-1.302z"/><g fill-rule="evenodd" clip-rule="evenodd"><path fill="url(#c)" d="M11.237 39.825c-.628 0-1.184.374-1.146 1.155.136 2.829.502 5.194.82 7.546l.067.29c.103.595.63.968 1.202.968h25.112c.526 0 .986-.362 1.12-.88l.083-.322c.423-2.034.667-4.15.924-7.682.051-.701-.483-1.075-1.067-1.075zm7.658 3.237a.247.247 0 0 0-.244.249v2.988c0 .137.11.249.244.249h11.72a.247.247 0 0 0 .244-.25v-2.987a.247.247 0 0 0-.244-.25z"/><path fill="#106bfe" d="M17.43 53.519c0-.687-.547-1.245-1.22-1.245s-1.222.557-1.222 1.245v3.22l-5.514 4.08a4.8 4.8 0 0 0-3.032-1.076c-2.697 0-4.883 2.23-4.883 4.98s2.186 4.98 4.883 4.98 4.884-2.23 4.884-4.98a5.1 5.1 0 0 0-.388-1.948l5.777-4.276c.593-.498.715-1.1.715-1.76zM8.884 64.723c0 1.375-1.093 2.49-2.442 2.49S4 66.098 4 64.723s1.094-2.49 2.442-2.49 2.442 1.115 2.442 2.49m24.418-12.449c-.674 0-1.221.557-1.221 1.245v3.219c0 .66 0 1.263.715 1.76l5.83 4.153a5 5 0 0 0-.44 2.072c0 2.75 2.186 4.98 4.883 4.98s4.883-2.23 4.883-4.98-2.186-4.98-4.883-4.98a4.8 4.8 0 0 0-2.93.995l-5.616-4v-3.22c0-.687-.547-1.244-1.221-1.244m7.325 12.449c0 1.375 1.093 2.49 2.442 2.49 1.348 0 2.442-1.115 2.442-2.49s-1.094-2.49-2.442-2.49-2.442 1.115-2.442 2.49m-15.87-12.449c.673 0 1.22.557 1.22 1.245V59.9c2.106.553 3.663 2.503 3.663 4.823 0 2.75-2.187 4.98-4.884 4.98s-4.883-2.23-4.883-4.98c0-2.32 1.556-4.27 3.662-4.823v-6.38c0-.688.547-1.245 1.221-1.245m2.44 12.449c0 1.375-1.092 2.49-2.44 2.49-1.35 0-2.443-1.115-2.443-2.49s1.094-2.49 2.442-2.49 2.442 1.115 2.442 2.49"/><path fill="url(#d)" d="M11.662 27.376c-.487 0-.947.249-1.044.811-.549 3.223-.593 5.911-.538 8.155.013.553.457.993.999.993H38.43c.541 0 .985-.44.998-.993 0-2.368.157-4.434-.538-8.155a1.086 1.086 0 0 0-1.044-.811zm7.233 3.237a.247.247 0 0 0-.245.249v2.987c0 .138.11.25.245.25h11.72a.247.247 0 0 0 .244-.25v-2.987a.247.247 0 0 0-.245-.25z"/></g></g><defs><linearGradient id="b" x1="24.755" x2="24.755" y1="2.479" y2="24.887" gradientUnits="userSpaceOnUse"><stop offset="0" stop-color="#36E7FC"/><stop offset="1" stop-color="#3CC5FE"/></linearGradient><linearGradient id="c" x1="32.041" x2="32.041" y1="49.833" y2="39.77" gradientUnits="userSpaceOnUse"><stop offset="0" stop-color="#0F74FF"/><stop offset="1" stop-color="#33AEFF"/></linearGradient><linearGradient id="d" x1="24.755" x2="24.755" y1="27.376" y2="37.336" gradientUnits="userSpaceOnUse"><stop offset="0" stop-color="#3BC6FD"/><stop offset="1" stop-color="#32ACFF"/></linearGradient><clipPath id="a"><path fill="#fff" d="M0 0h266v72H0z"/></clipPath></defs></svg>