<svg xmlns="http://www.w3.org/2000/svg" viewBox="0 0 330.15 366.37"><path d="m278.52 186.13-69.15-38.32h46.87c40.75 0 73.91-33.15 73.91-73.91S297 0 256.24 0H92.59C41.54 0 0 41.54 0 92.59c0 36.41 19.79 69.99 51.63 87.64l69.15 38.32H73.91C33.16 218.55 0 251.7 0 292.46s33.16 73.91 73.91 73.91h163.65c51.05 0 92.59-41.54 92.59-92.59 0-36.42-19.78-70-51.63-87.65M62.73 160.2c-24.03-13.32-39.16-38.4-39.81-65.78C22 55.1 55.02 22.91 94.35 22.91h160.41c27.43 0 51.07 21.04 52.43 48.44 1.45 29.29-21.96 53.58-50.94 53.58 0 0-66.44.01-92.39.01-5.65 0-10.21 4.58-10.21 10.23l-.02 75.4zM235.8 343.46H75.39c-27.43 0-51.07-21.04-52.42-48.44-1.45-29.29 21.96-53.58 50.94-53.58h92.38c5.65 0 10.23-4.58 10.23-10.23V155.8l90.89 50.37c24.03 13.32 39.16 38.4 39.81 65.78.94 39.32-32.08 71.51-71.42 71.51" style="fill:#00f782"/></svg>