<svg xmlns="http://www.w3.org/2000/svg" fill="none" viewBox="0 0 139.05 111.83"><path fill="#a79772" d="m139.05 53.753-12.929-12.929c.739 2.6 2.521 10.6 2.624 11.881z"/><path fill="url(#a)" fill-rule="evenodd" d="m116.6 88.72.107-.138.096-.146c10.147-15.487 13.545-28.937 12.242-40.53-1.303-11.597-7.235-20.669-14.446-27.54C100.364 6.802 80.353 1.051 77.014.154a4.48 4.48 0 0 0-3.077.27 4.48 4.48 0 0 0-2.094 2.046 4.56 4.56 0 0 0 .255 4.52l2.968 4.584a13.7 13.7 0 0 0-2.578.716c-6.461 2.485-11.636 9.864-15.169 23.113-4.001 15.005-11.846 22.647-19.406 26.664-7.725 4.104-15.532 4.614-19.526 4.614-3.398 0-6.202-1.062-8.188-2.157a17 17 0 0 1-2.246-1.474 11 11 0 0 1-.63-.529l-.004-.005a4.31 4.31 0 0 0-6.357 5.798l3.35-2.71c-3.35 2.71-3.35 2.712-3.348 2.714l.004.005.013.015.042.052.154.187q.2.241.576.685c.5.59 1.232 1.436 2.175 2.486a168 168 0 0 0 8.035 8.331c6.817 6.603 16.472 14.877 27.676 21.314 11.168 6.416 24.231 11.213 37.737 10.328 13.711-.899 27.254-7.613 39.223-23zM12.56 74.61c-5.214-5.256-8.248-9.006-8.248-9.006.376.463 63.768 78.477 108.88 20.469 16.25-24.802 13.65-42.815 4.603-55.521 9.048 12.706 11.65 30.72-4.601 55.523-35.37 45.476-81.973 7.351-100.64-11.465z" clip-rule="evenodd"/><path fill="#a78f72" fill-rule="evenodd" d="M82.845 51.238c3.899 12.987-14.556 28.569-31.925 28.569-15.298 0-40.516-11.424-30.167-21.548 3.19-3.121 6.752-3.105 10.569-3.088 2.818.013 5.775.027 8.825-1.222 3.713-1.52 6.162-4.03 8.515-6.443a75 75 0 0 1 1.967-1.969c2.919-5.376 8.613-9.026 15.16-9.026 8.668 0 15.841 6.397 17.057 14.727z" clip-rule="evenodd"/><path fill="#161619" d="M104.4 47.955a6.465 6.465 0 1 1 0-12.93 6.465 6.465 0 0 1 0 12.93"/><defs><linearGradient id="a" x1="52.752" x2="111.32" y1="57.052" y2="108.39" gradientTransform="translate(0 -11.667)" gradientUnits="userSpaceOnUse"><stop offset="0" stop-color="#D1C2B0"/><stop offset="1" stop-color="#FBEDDD"/></linearGradient></defs></svg>