<svg xmlns="http://www.w3.org/2000/svg" viewBox="0 0 318 428"><g fill="none"><path fill="#448cce" d="m53.252 242.14 65.952 54.962c2.345 2.505 4.977 4.726 7.856 6.555a40.6 40.6 0 0 0 20.682 6.328c3.245.092 6.556-.153 9.877-.881 22.058-4.819 36.044-26.682 31.249-48.832l-.038.013.08-.112-89.143-74.304c-22.3-18.598-25.395-51.946-6.874-74.345l15.963-19.31c8.965-10.853 21.613-17.548 35.59-18.854 13.97-1.315 27.645 2.94 38.447 11.951l64.678 53.91c2.27 2.393 4.79 4.521 7.545 6.292a40.7 40.7 0 0 0 20.949 6.405c3.213.086 6.477-.17 9.753-.884 22.033-4.816 36-26.611 31.258-48.736l.092-.112-87.762-73.142C203.646 7.567 171.1-2.546 137.722.55 104.366 3.665 74.217 19.624 52.82 45.498l-15.963 19.31C-7.307 118.232.05 197.778 53.252 242.138z"/><path fill="#29a768" d="m260.66 182.61-66.868-51.045-5.453-4.167a41.2 41.2 0 0 0-24.356-6.337c-2.195.117-4.416.366-6.627.846-22.368 4.874-36.528 26.961-31.667 49.33l.039-.007-.064.08 90.782 69.287c23.068 17.612 27.515 50.736 9.913 73.827l-15.178 19.888c-8.516 11.189-20.892 18.383-34.819 20.254-13.925 1.878-27.77-1.795-38.946-10.317l-70.294-53.658-.194-.143a41.3 41.3 0 0 0-27.747-8.68c-2.18.11-4.368.365-6.563.84-22.361 4.88-36.531 26.964-31.654 49.336l.118-.026 92.112 70.32c22.107 16.866 48.556 25.76 75.887 25.76 5.637 0 11.319-.372 16.995-1.143 33.238-4.46 62.742-21.623 83.077-48.29l15.18-19.902c41.972-55.065 31.362-134.04-23.671-176.05z"/></g></svg>