<svg xmlns="http://www.w3.org/2000/svg" viewBox="0 0 473.05 397.26"><g transform="translate(-66.627 -52.281)"><linearGradient id="a" x1="354.49" x2="395.18" y1="372.37" y2="425.31" gradientUnits="userSpaceOnUse"><stop offset="0" stop-color="#15768C"/><stop offset=".169" stop-color="#188B9D"/><stop offset=".381" stop-color="#1A9EAC"/><stop offset=".598" stop-color="#1CA9B5"/><stop offset=".83" stop-color="#1CADB8"/></linearGradient><path d="M235.3 419.1c42.2 28.7 91.6 38.7 136.8 23.1 51.7-17.9 85.9-65.5 96.1-123.7-34 25.2-78 49.6-127.7 69.3-36.9 14.7-72.7 25.1-105.2 31.3" fill="url(#a)"/><linearGradient id="b" x1="146.02" x2="305.35" y1="146.14" y2="62.682" gradientUnits="userSpaceOnUse"><stop offset=".066" stop-color="#f63"/><stop offset=".237" stop-color="#FF7133"/><stop offset=".637" stop-color="#FF8733"/><stop offset=".897" stop-color="#FF8F33"/></linearGradient><path fill="url(#b)" d="M360.1 76.9C320 52.8 274.4 45.1 232.5 59.6c-49.4 17.1-82.7 61.2-94.6 115.8 34-25.2 78-49.6 127.8-69.4 32.9-13.1 64.9-22.8 94.4-29.1"/><path d="M514.4 101.9c-10.3-34.3-73-42.5-154.2-25-29.5 6.3-61.5 16-94.4 29.1-49.7 19.8-93.8 44.2-127.8 69.4-50.2 37.2-78.3 76.1-69.9 104 6.9 23 38.7 34.3 83.3 32.7 44.4-1.5 101.6-15.8 159.7-43.7-69.9 15.5-122.9 13.2-121.6-7 1.9-29.6 73-85.9 179.2-125.5 15.4-5.7 29.8-10.7 43.3-14.9 45.5-14.3 80.2-20.4 102.8-18.2-.3-.3-.3-.6-.4-.9" fill="#f63"/><path d="M538.2 214.4c-7.2-23.9-41-35.1-88.2-32.5-43.7 2.4-98.7 16.6-154.7 43.5 69.9-15.5 122.9-13.2 121.6 7-1.9 29.6-73 85.9-179.2 125.5-17.9 6.7-34.5 12.3-49.9 17-42.2 12.9-74.7 18.2-96.1 16.1.1.3.1.6.2.9 9.9 32.8 67.4 41.7 143.4 27.2 32.5-6.2 68.3-16.6 105.2-31.3 49.7-19.8 93.7-44.2 127.7-69.3 50.3-37.3 78.4-76.2 70-104.1" fill="#1fbec9"/><linearGradient id="d" x1="143.39" x2="377.07" y1="255.22" y2="144.45" gradientUnits="userSpaceOnUse"><stop offset="0" stop-color="#ED5F2F"/><stop offset="1" stop-color="#f63"/></linearGradient><path fill="url(#d)" d="M189.4 261.4c1.9-29.6 73-85.9 179.2-125.5 15.4-5.7 29.8-10.7 43.3-14.9-15.4-17.9-33-32.8-51.7-44.1-29.5 6.3-61.5 16-94.4 29.1-49.7 19.8-93.8 44.2-127.8 69.4-8.6 39.5-5.9 84.5 10.3 128.8 1 2.7 2 5.3 3.1 7.9 44.4-1.5 101.6-15.8 159.7-43.7-70 15.5-123 13.3-121.7-7"/><linearGradient id="e" x1="192.82" x2="415.87" y1="353.33" y2="268.36" gradientUnits="userSpaceOnUse"><stop offset="0" stop-color="#1BACB5"/><stop offset=".911" stop-color="#1FBEC9"/></linearGradient><path fill="url(#e)" d="M456.3 197.6c-2-5.3-4.1-10.5-6.4-15.7-43.7 2.4-98.7 16.6-154.7 43.5 69.9-15.5 122.9-13.2 121.6 7-1.9 29.6-73 85.9-179.2 125.5-17.9 6.7-34.5 12.3-49.9 17 14.1 17.6 30.2 32.5 47.5 44.3 32.5-6.2 68.3-16.6 105.2-31.3 49.7-19.8 93.7-44.2 127.7-69.3 6.7-37.7 3.3-79.6-11.8-121"/></g></svg>