<svg viewBox="0 0 51.235 51.015" xmlns="http://www.w3.org/2000/svg"><path d="M19.818 0c-1.77 0-3.2 1.42-3.2 3.166v6.955l-6.085-3.484A3.21 3.21 0 006.17 7.795a3.157 3.157 0 001.168 4.332L18.2 18.342a3.213 3.213 0 001.855.412c1.653-.121 2.957-1.494 2.957-3.16V3.166C23.013 1.419 21.58 0 19.818 0zm11.6 0c-1.77 0-3.195 1.42-3.195 3.166v12.428c0 1.667 1.302 3.04 2.959 3.16a3.204 3.204 0 001.851-.412l10.86-6.215a3.158 3.158 0 001.17-4.332 3.209 3.209 0 00-4.364-1.158l-6.082 3.484V3.166c0-1.746-1.43-3.166-3.2-3.166zM2.975 16.131a3.19 3.19 0 00-2.543 1.578A3.141 3.141 0 001.6 22.033l6.066 3.477L1.6 28.977a3.15 3.15 0 00-1.168 4.332c.88 1.512 2.833 2.03 4.365 1.156l10.855-6.217a3.153 3.153 0 001.46-1.809 3.13 3.13 0 00.144-1.03 3.297 3.297 0 00-.117-.749 3.153 3.153 0 00-1.487-1.902L4.797 16.547a3.211 3.211 0 00-1.822-.416zm44.82 0c-.464.034-.926.17-1.355.416l-10.863 6.21a3.184 3.184 0 00-1.481 1.903 3.082 3.082 0 00.031 1.78c.223.735.725 1.39 1.45 1.808l10.862 6.217a3.214 3.214 0 004.366-1.156 3.152 3.152 0 00-1.17-4.332L43.57 25.51l6.065-3.477a3.144 3.144 0 001.17-4.324 3.201 3.201 0 00-3.01-1.578zm-22.844 3.451a.913.913 0 00-.566.235l-4.512 4.468a.913.913 0 00-.234.565v1.316c0 .179.105.433.234.559l4.512 4.469a.92.92 0 00.566.238h1.328a.902.902 0 00.567-.238l4.515-4.47a.903.903 0 00.233-.558V24.85a.913.913 0 00-.233-.565l-4.515-4.468a.905.905 0 00-.567-.235h-.994zm.639 3.813h.05c.183 0 .436.107.565.234l1.309 1.29a.945.945 0 01.238.566v.048a.92.92 0 01-.238.559l-1.31 1.293a.923.923 0 01-.564.232h-.05a.919.919 0 01-.563-.232l-1.306-1.293a.9.9 0 01-.233-.559v-.048c0-.18.102-.433.233-.567l1.306-1.289a.918.918 0 01.563-.234zm-6.004 8.861c-.473.03-.948.165-1.385.418L7.338 38.88a3.165 3.165 0 00-1.168 4.338 3.205 3.205 0 004.363 1.152l6.086-3.478v6.953c0 1.751 1.43 3.17 3.2 3.17 1.76 0 3.195-1.419 3.195-3.17v-12.43c0-1.669-1.304-3.04-2.957-3.156a3.182 3.182 0 00-.471-.004zm12.064 0a3.158 3.158 0 00-.469.004c-1.657.117-2.959 1.488-2.959 3.156v12.43c0 1.751 1.426 3.17 3.195 3.17s3.2-1.419 3.2-3.17v-6.953l6.082 3.478c1.527.88 3.481.36 4.363-1.152a3.166 3.166 0 00-1.17-4.338l-10.86-6.207a3.162 3.162 0 00-1.382-.418z" fill="#29B5E8" fill-rule="evenodd"/></svg>
