<svg xmlns="http://www.w3.org/2000/svg" viewBox="0 0 59.999 60"><linearGradient id="a" x1="27.048" x2="33.312" y1="62.824" y2="3.448" gradientTransform="matrix(1 0 0 -1 0 62)" gradientUnits="userSpaceOnUse"><stop offset="0" stop-color="#fcf84a"/><stop offset=".32" stop-color="#abe682"/><stop offset=".79" stop-color="#36cdd2"/><stop offset="1" stop-color="#07c3f2"/></linearGradient><linearGradient id="b" x1="4.068" x2="60.246" y1="61.892" y2="35.243" gradientTransform="matrix(1 0 0 -1 0 62)" gradientUnits="userSpaceOnUse"><stop offset="0" stop-color="#3bea62"/><stop offset="1" stop-color="#087cfa"/></linearGradient><linearGradient id="d" x1="9.217" x2="65.779" y1="3.879" y2="43.473" gradientTransform="matrix(1 0 0 -1 0 62)" gradientUnits="userSpaceOnUse"><stop offset="0" stop-color="#009ae5"/><stop offset=".18" stop-color="#0490dd"/><stop offset=".49" stop-color="#1073c6"/><stop offset=".89" stop-color="#2346a1"/><stop offset="1" stop-color="#293896"/></linearGradient><g fill-rule="evenodd"><path fill="url(#a)" d="M10.862 60A59.96 59.96 0 0 0 60 25.6 60 60 0 0 0 10.862 0C9.118 0 7.366.072 5.614.232A60 60 0 0 0 10.862 60"/><path fill="url(#b)" d="M5.67.232A70.66 70.66 0 0 1 37.239 25.6H60A59.81 59.81 0 0 0 10.926 0Q8.31 0 5.67.232"/><path fill="url(#d)" d="M37.247 25.6C34.503 43.704 10.862 60 10.862 60 32.35 57.96 51.2 45.08 60 25.6Z"/></g></svg>