<svg viewBox="0 0 17.614 17.462" xmlns="http://www.w3.org/2000/svg"><g transform="translate(-.079 -.162)"><ellipse cx="8.886" cy="8.893" rx="8.807" ry="8.731"/><path d="M6.139 4.259c-.412-.015-.864.126-1.474.414-.65.21-1.022.775-.258.774l-.019.498-.482.185-.017.483s-.075.562.537.53c-.08.018-.146.058-.056.147.166.166.384.11 1.177.13.792.018.878.9.878.9s.178 1.444.151 2.851c-.859-.457-1.716-.861-1.982-.803-.59.13-1.094.711-.59 1.548.46.767 1.24 1.312 2.025 1.804-.234.388-.525.593-1.114.45-.296-.073-.271-.24-1.072-.679-1.475-.594-1.221-.17-.859.18.76.542 1.134 1.034 1.697 1.264.553.226 1.293.202 2.237-.604l.044-.05-.03.037c1.207.751 2.71.984 4.095.678.068-.022.288-.051.27-.077.01 0 .02.003.031.004.007-.036 1.383.148 2.398-.264.984-.399 1.626-1.145 1.762-1.92.559-3.185-2.607-3.438-3.022-3.567l-.95-.258a8.28 8.28 0 00-.726-1.37 3.125 3.125 0 00-.676-.755l.003.002s.093-.294.447-.599c.071-.057 1.263-.967 3.43-.045l.153 1.476.985-.05-.12-2.003c-.347-.408-3.302-1.634-5.436-.006-.313.271-.51.649-.51.649.003 0 .005.002.008.003A4.75 4.75 0 008.03 5.98v-.003s-.415-1.14-1.17-1.521a1.704 1.704 0 00-.721-.196zm-.475 1.52l.001.006-.001-.007zM8.329 7.67l.01.005-.01-.002V7.67zm3.407 1.924zm-3.497.09c.32.537.554 1.019.656 1.615-.05.362-.126.72-.235 1.058 0 0-.274-.165-.666-.394.073-.449.121-.933.18-1.478.02-.26.043-.532.065-.802zm3.56.19l.008.037c.014.07.025.14.037.21.343.096.687.19 1.03.287 0 0 1.695.33 1.437 2.04-.244 1.61-2.673 1.483-2.665 1.43.291-1.818.349-3.005.153-4.003z" fill="#fff"/></g></svg>