<svg xmlns="http://www.w3.org/2000/svg" viewBox="0 0 22.663 27.454"><path fill="#c02223" d="M16.486.04 2.437 3.135a3.1 3.1 0 0 0-2.438 3.03v17.845c0 1.268.947 2.33 2.2 2.479l7.37.963 6.49-6.462 6.587-6.747-.116-10.21a1.97 1.97 0 0 0-2.38-1.903l-1.63.354.008-.774A1.686 1.686 0 0 0 16.486.039z"/><path fill="#882425" d="M18.537 2.485v16.19l4.126-4.439-.116-10.549a1.687 1.687 0 0 0-2.05-1.63z"/><path fill="url(#a)" d="m9.57 27.453 11.032-2.876 2.061-10.342z"/><path fill="url(#c)" d="M12.855 11.395s-1.26-1.639-2.19-2.083c-.593-.28-1.475-.388-2.166-.042-1.022.51-1.129 1.944-.19 2.512.223.14.52.255.906.346 2.075.477 5.501 1.466 5.081 5.443 0 0-.239 3.73-4.167 4.159a6.2 6.2 0 0 1-2.067-.132c-.93-.206-2.577-.626-3.384-1.128l-.149-4.257h.396s.782 1.893 3.005 2.808c.412.164.865.23 1.302.164.551-.082 1.202-.379 1.465-1.276 0 0 .445-1.31-1.86-2.026-1.845-.576-3.583-1.17-4.3-3.113a5.1 5.1 0 0 1-.164-2.923C4.678 8.57 5.55 6.775 8.02 6c0 0 3.245-.881 5.468.313l-.099 5.081z"/><defs><linearGradient id="a" x1="18.493" x2="19.444" y1="28.253" y2="20.289" gradientTransform="translate(-3.168 -.774)" gradientUnits="userSpaceOnUse"><stop offset="0" stop-color="#DCF1F3"/><stop offset="1" stop-color="#C2C2C9"/></linearGradient><linearGradient id="c" x1="11.789" x2="13.299" y1="24.114" y2="2.852" gradientTransform="translate(-3.168 -.774)" gradientUnits="userSpaceOnUse"><stop offset="0" stop-color="#DCF1F3"/><stop offset="1" stop-color="#C2C2C9"/></linearGradient></defs></svg>