<svg xmlns="http://www.w3.org/2000/svg" fill="none" viewBox="0 0 86 48.096"><path fill="url(#a)" d="m.352 20.345 10.3 13.72a2.1 2.1 0 0 0 2.76 0l9.05-12.05c.82-1.09.12-2.64-1.23-2.76l-19.35-1.66c-1.49-.13-2.43 1.56-1.53 2.75"/><path fill="url(#b)" d="m64.832 20.295-18.73 24.93c-.86 1.14-.04 2.77 1.38 2.77h16.34a2.1 2.1 0 0 0 1.77-.89l20.06-26.7c.9-1.2-.06-2.9-1.55-2.76l-17.72 1.78a2.1 2.1 0 0 0-1.55.87"/><path fill="url(#c)" d="m59.662 20.505-20.06 26.7a2.1 2.1 0 0 1-1.79.89l-15.6-.1a2.1 2.1 0 0 1-1.76-.88l-4.92-6.53a2.1 2.1 0 0 1 0-2.67L43.272.975a2.1 2.1 0 0 1 3.54-.01l12.84 16.85a2.1 2.1 0 0 1 .01 2.68z"/><defs><linearGradient id="a" x1="-87.42" x2="-111.73" y1="-63.26" y2="-14.59" gradientTransform="translate(.002 .095)" gradientUnits="userSpaceOnUse"><stop offset=".18" stop-color="#B38AF8"/><stop offset=".56" stop-color="#005FFF"/><stop offset="1" stop-color="#00ECBB"/></linearGradient><linearGradient id="b" x1="-108.5" x2="-155" y1="-125.22" y2="-32.56" gradientTransform="translate(.002 .095)" gradientUnits="userSpaceOnUse"><stop offset=".18" stop-color="#B38AF8"/><stop offset=".56" stop-color="#005FFF"/><stop offset="1" stop-color="#00ECBB"/></linearGradient><linearGradient id="c" x1="-157.45" x2="-243.1" y1="-225.79" y2="-109.47" gradientTransform="translate(.002 .095)" gradientUnits="userSpaceOnUse"><stop offset=".18" stop-color="#B38AF8"/><stop offset=".56" stop-color="#005FFF"/><stop offset="1" stop-color="#00ECBB"/></linearGradient></defs></svg>