<svg version="1.0" viewBox="0 0 107.96 107.96" xmlns="http://www.w3.org/2000/svg"><path d="M107.96 0H0v107.96h107.96V0z" fill="#809cc9"/><g fill="#fff"><path d="M108.895 13.125l1.662 6.583c-15.285 2.216-28.886 4.828-40.802 7.837-12.857 3.247-23.198 6.546-31.025 9.896-7.844 3.284-11.507 5.952-10.99 8 .456 1.807 3.735 2.626 9.863 2.453 3.141-.058 8.252-.399 15.335-1.028 7.083-.626 16.221-1.536 27.415-2.726 20.599-2.144 34.762-3.077 42.491-2.8 7.711.21 11.944 1.784 12.688 4.725 1.007 3.988-6.304 9.331-21.931 16.026-15.657 6.633-35.88 13.076-60.652 19.332C32.095 86.688 14.116 90.452-.99 92.714l-1.645-6.51c17.868-2.555 33.937-5.633 48.205-9.236 13.326-3.364 23.594-6.629 30.8-9.799 7.205-3.169 10.533-5.84 9.983-8.019-.477-1.886-3.805-2.849-9.973-2.891-3.159.034-7.51.257-13.062.668-5.566.414-12.479 1.056-20.739 1.923-12.814 1.375-23.462 2.415-31.93 3.121-8.48.709-14.801 1.051-18.976 1.03-8.01-.074-12.39-1.62-13.15-4.628-1.024-4.061 5.74-9.195 20.295-15.403 14.707-6.268 34.63-12.576 59.795-18.93 17.404-4.394 34.164-8.032 50.282-10.915z"/><path d="M4.65 69.203c.279 0 .521.105.728.316.205.205.309.451.309.736 0 .297-.104.548-.309.754a1.018 1.018 0 01-.745.308c-.297 0-.548-.103-.753-.309a1.04 1.04 0 01-.309-.753c0-.297.103-.545.309-.745.21-.204.467-.307.77-.307zm0 6.803c.279 0 .521.107.728.318.205.207.309.456.309.748s-.104.541-.309.748a1.064 1.064 0 01-.745.301 1.075 1.075 0 01-.753-.305 1.005 1.005 0 01-.228-.336 1.051 1.051 0 01-.081-.417 1.058 1.058 0 011.079-1.057zM8.304 69.203c.28 0 .522.105.728.316.206.205.309.451.309.736 0 .297-.103.548-.309.754a1.014 1.014 0 01-.744.308c-.297 0-.549-.103-.754-.309a1.04 1.04 0 01-.309-.753c0-.297.103-.545.309-.745.211-.204.468-.307.77-.307zm0 6.803c.28 0 .522.107.728.318.206.207.309.456.309.748s-.103.541-.309.748a1.064 1.064 0 01-.744.301 1.075 1.075 0 01-.754-.305 1.052 1.052 0 01-.309-.753c0-.292.103-.542.309-.748.211-.206.468-.309.77-.309z"/></g></svg>
