<svg xmlns="http://www.w3.org/2000/svg" version="1.1" viewBox="0 0 59.391 59.39"><path d="m59.387 16.45a82.463 82.463 0 0 0-0.027-1.792c-0.034-1.301-0.111-2.614-0.342-3.9-0.235-1.308-0.619-2.523-1.223-3.71a12.464 12.464 0 0 0-5.452-5.452c-1.187-0.604-2.403-0.987-3.708-1.222-1.287-0.232-2.6-0.308-3.902-0.343a85.714 85.714 0 0 0-1.792-0.027c-0.71-4e-3 -1.419-4e-3 -2.128-4e-3h-22.235c-0.71 0-1.418 0-2.127 4e-3 -0.598 4e-3 -1.196 0.01-1.793 0.027-0.325 8e-3 -0.651 0.02-0.978 0.036-0.978 0.047-1.959 0.133-2.924 0.307-0.98 0.176-1.908 0.436-2.811 0.81a12.503 12.503 0 0 0-4.055 2.706 12.46 12.46 0 0 0-2.294 3.158c-0.604 1.187-0.986 2.402-1.222 3.71-0.231 1.286-0.308 2.599-0.343 3.9a85.767 85.767 0 0 0-0.027 1.792c-5e-3 0.71-4e-3 1.419-4e-3 2.128v22.234c0 0.71 0 1.419 4e-3 2.129 4e-3 0.597 0.01 1.194 0.027 1.79 0.035 1.302 0.112 2.615 0.343 3.902 0.235 1.306 0.618 2.522 1.222 3.71a12.457 12.457 0 0 0 5.453 5.453c1.186 0.603 2.401 0.986 3.707 1.22 1.287 0.232 2.6 0.309 3.902 0.344 0.597 0.016 1.195 0.023 1.793 0.026 0.709 5e-3 1.418 4e-3 2.127 4e-3h22.235c0.71 0 1.419 1e-3 2.128-4e-3 0.598-3e-3 1.195-0.01 1.792-0.026 1.302-0.035 2.615-0.112 3.902-0.344 1.306-0.234 2.521-0.617 3.708-1.221a12.461 12.461 0 0 0 5.452-5.453c0.604-1.187 0.988-2.403 1.223-3.71 0.23-1.286 0.308-2.599 0.342-3.9 0.017-0.597 0.023-1.194 0.027-1.791 5e-3 -0.71 4e-3 -1.42 4e-3 -2.129v-22.234c0-0.71 0-1.419-4e-3 -2.128z" fill="#f05138"/><path d="m47.061 36.661-4e-3 -5e-3c0.066-0.223 0.133-0.446 0.19-0.675 2.466-9.82-3.55-21.432-13.731-27.545 4.461 6.048 6.434 13.373 4.681 19.78-0.156 0.572-0.344 1.12-0.552 1.653-0.225-0.148-0.51-0.316-0.89-0.526 0 0-10.128-6.253-21.104-17.313-0.288-0.29 5.853 8.777 12.822 16.14-3.283-1.842-12.434-8.5-18.227-13.802 0.712 1.187 1.559 2.33 2.49 3.43 4.837 6.136 11.145 13.705 18.703 19.518-5.31 3.25-12.814 3.502-20.285 3e-3a30.646 30.646 0 0 1-5.193-3.098c3.162 5.058 8.033 9.423 13.96 11.97 7.07 3.039 14.1 2.833 19.337 0.05l-4e-3 7e-3 0.079-0.047c0.215-0.116 0.428-0.233 0.637-0.358 2.516-1.306 7.485-2.63 10.152 2.559 0.653 1.27 2.041-5.46-3.062-11.739z" fill="#fff"/></svg>