<svg xmlns="http://www.w3.org/2000/svg" viewBox="0 0 731.4 844.52"><g transform="translate(-151.21 -90)"><linearGradient id="a" x1="260.97" x2="919.18" y1="871.18" y2="491.16" gradientUnits="userSpaceOnUse"><stop offset="0" stop-color="#669abd"/><stop offset="1" stop-color="#77dbdb"/></linearGradient><path d="M882.61 427.82 297.54 765.65v168.87l585.06-337.8z" style="fill:url(#a)"/><linearGradient id="b" x1="553.5" x2="626.65" y1="617.83" y2="744.51" gradientUnits="userSpaceOnUse"><stop offset=".559" stop-opacity="0"/><stop offset="1"/></linearGradient><path d="M882.61 427.82 297.54 765.65v168.87l585.06-337.8z" style="opacity:.16;fill:url(#b)"/><linearGradient id="c" x1="114.66" x2="334.09" y1="744.53" y2="871.21" gradientUnits="userSpaceOnUse"><stop offset="0" stop-color="#6a8fad"/><stop offset="1" stop-color="#669abd"/></linearGradient><path d="M297.54 934.52V765.65l-146.31-84.47-.01 168.91z" style="fill:url(#c)"/><linearGradient id="d" x1="260.95" x2="187.81" y1="744.53" y2="871.21" gradientUnits="userSpaceOnUse"><stop offset=".559" stop-opacity="0"/><stop offset="1"/></linearGradient><path d="M297.54 934.52V765.65l-146.31-84.47-.01 168.91z" style="opacity:.16;fill:url(#d)"/><linearGradient id="e" x1="114.66" x2="553.5" y1="237.79" y2="491.16" gradientUnits="userSpaceOnUse"><stop offset="0" stop-color="#6a8fad"/><stop offset="1" stop-color="#669abd"/></linearGradient><path d="m443.79 512.27 146.29-84.46-438.85-253.36-.02 168.91z" style="fill:url(#e)"/><linearGradient id="f" x1="370.66" x2="297.51" y1="301.13" y2="427.82" gradientUnits="userSpaceOnUse"><stop offset=".559" stop-opacity="0"/><stop offset="1"/></linearGradient><path d="m443.79 512.27 146.29-84.46-438.85-253.36-.02 168.91z" style="opacity:.15;fill:url(#f)"/></g><linearGradient id="g" x1="78.091" x2="736.34" y1="554.5" y2="174.46" gradientUnits="userSpaceOnUse"><stop offset="0" stop-color="#ccecff"/><stop offset="1" stop-color="#9feced"/></linearGradient><path d="m297.5 90 585.11 337.82-585.1 337.82-146.28-84.46 438.85-253.37-438.85-253.36z" style="fill:url(#g)" transform="translate(-151.21 -90)"/></svg>