<svg xmlns="http://www.w3.org/2000/svg" viewBox="0 0 34.364 20.618"><path fill="oklch(74.6% .16 232.661)" d="M17.183 0Q10.31 0 8.59 6.873q2.578-3.436 6.014-2.577c1.307.326 2.242 1.274 3.275 2.324 1.685 1.71 3.635 3.689 7.894 3.689q6.873 0 8.591-6.872-2.577 3.436-6.013 2.576c-1.308-.326-2.243-1.274-3.276-2.324C23.39 1.98 21.44 0 17.183 0M8.59 10.309q-6.871 0-8.59 6.873 2.578-3.436 6.013-2.577c1.308.326 2.243 1.274 3.276 2.324 1.685 1.71 3.635 3.689 7.894 3.689q6.873 0 8.59-6.872-2.577 3.436-6.013 2.577c-1.307-.327-2.242-1.276-3.276-2.325-1.684-1.71-3.634-3.689-7.893-3.689z"/></svg>