<svg version="1.1" viewBox="0 0 121.54 135.75" xmlns="http://www.w3.org/2000/svg"><path d="m84.92 49.51a13.1 13.1 0 0 1-13.14 13.08 13.1 13.1 0 0 1-13.14-13.08 13.1 13.1 0 0 1 13.14-13.07 13.1 13.1 0 0 1 13.14 13.07z" fill="#ffc131"/><path d="m62.9 86.25a13.1 13.1 0 0 1-13.14 13.07 13.1 13.1 0 0 1-13.15-13.07 13.1 13.1 0 0 1 13.15-13.08 13.1 13.1 0 0 1 13.14 13.08z" fill="#24c8db"/><path d="m39.74 37.74c-22.68 4.62-39.74 24.58-39.74 48.5 0 27.35 22.28 49.51 49.76 49.51a49.75 49.75 0 0 0 47.51-34.78 57.88 57.88 0 0 1-19.03 5.55 35.02 35.02 0 0 1-28.48 14.57 34.93 34.93 0 0 1-35.02-34.84 34.87 34.87 0 0 1 22.97-32.73 34.8 34.8 0 0 1 2.03-15.78z" fill="#24c8db"/><path d="m81.8 98.02c22.67-4.61 39.74-24.58 39.74-48.5 0-27.36-22.28-49.52-49.76-49.52a49.75 49.75 0 0 0-47.51 34.79 57.87 57.87 0 0 1 19.03-5.55 35.03 35.03 0 0 1 28.48-14.57 34.93 34.93 0 0 1 35.02 34.84 34.87 34.87 0 0 1-22.97 32.73 34.8 34.8 0 0 1-2.03 15.78z" clip-rule="evenodd" fill="#ffc131" fill-rule="evenodd"/></svg>
