<svg viewBox="0 0 24.875 18" xmlns="http://www.w3.org/2000/svg"><style></style><path d="M21.538 14.7c-.4.4-1.2 1-2.6 1h-8.6c2.6-2.5 4.8-4.6 5-4.8s.7-.7 1.2-1.1c1-.9 1.8-1 2.5-1 1 0 1.8.4 2.5 1 1.4 1.3 1.4 3.6 0 4.9m1.7-6.5c-1-1.1-2.5-1.8-4.1-1.8-1.4 0-2.6.5-3.7 1.3-.4.4-1 .8-1.5 1.4-.4.4-9 8.8-9 8.8.5.1 1.1.1 1.6.1h10.9c.8 0 1.4 0 2-.1 1.3-.1 2.6-.6 3.7-1.6 2.3-2.2 2.3-5.9.1-8.1z" fill="#00a3ff"/><path d="M9.238 7.6c-1.1-.8-2.2-1.2-3.5-1.2-1.6 0-3.1.7-4.1 1.8-2.2 2.3-2.2 5.9.1 8.2 1 .9 2 1.4 3.2 1.5l2.3-2.2h-1.3c-1.3-.1-2.1-.5-2.6-1-1.4-1.4-1.4-3.6-.1-5 .7-.7 1.5-1 2.5-1 .6 0 1.5.1 2.4 1 .4.4 1.5 1.2 1.9 1.6h.1l1.5-1.5v-.1c-.7-.7-1.8-1.6-2.4-2.1" fill="#00c8dc"/><path d="M19.738 5.1c-1.1-3-4-5.1-7.3-5.1-3.9 0-7 2.9-7.6 6.5.3 0 .6-.1 1-.1s.9.1 1.3.1c.5-2.5 2.7-4.3 5.3-4.3 2.2 0 4.1 1.3 5 3.2 0 0 .1.1.1 0 .7-.1 1.5-.3 2.2-.3" fill="#006eff"/></svg>
