<svg xmlns="http://www.w3.org/2000/svg" viewBox="0 0 500 500"><circle cx="250" cy="250" r="250" fill="#ff4f00"/><path fill="#fff" d="M340 282.76q0 26.555-6.108 47.189-6.108 20.442-17.561 34.389-11.452 14.137-28.06 21.397-16.606 7.26-37.985 7.26-21.188 0-37.985-7.069-16.798-7.26-28.441-21.588-11.643-13.947-17.752-34.389Q160 309.315 160 282.76v-65.148q0-26.556 6.108-46.998 6.109-20.633 17.752-34.771 11.452-14.137 28.059-21.397 16.798-7.45 37.986-7.451 21.378 0 37.985 7.451 16.797 7.26 28.441 21.397 11.453 14.138 17.561 34.771Q340 191.056 340 217.612zm-144.5-7.069 108.23-83.106q-1.527-13.755-5.536-24.263-3.817-10.699-10.498-17.768-6.49-7.26-16.034-10.89-9.354-3.63-21.76-3.63-12.598 0-22.333 4.012-9.544 3.822-16.225 11.272-8.017 9.361-12.026 24.264-3.817 14.71-3.817 34.197v65.912zm108.99 14.52V226.4l-108.04 82.725q1.718 13.946 6.108 24.645 4.39 10.508 11.453 17.385 6.49 6.496 15.652 9.935 9.162 3.248 20.615 3.248 12.025 0 21.379-3.63 9.353-3.63 15.843-10.508 8.781-9.361 12.789-24.454 4.199-15.093 4.199-35.535z"/></svg>