<svg xmlns="http://www.w3.org/2000/svg" viewBox="0 0 70.469 77.47"><path fill="#e3262b" d="M45.891 54.873a653 653 0 0 0 19.066-.574c2.852-5.502 4.256-11.077 4.927-15.916-7.95.265-15.924.44-23.88.518-.02 4.91-.055 10.374-.114 15.972z"/><path d="M66.776 41.097c-.76 3.808-1.924 7.378-3.475 10.657-4.936.209-9.888.363-14.77.459.032-3.444.057-7.034.075-10.726 6.03-.076 12.119-.206 18.17-.389m3.108-2.715c-7.95.266-15.924.44-23.88.518-.02 4.91-.055 10.374-.114 15.972a653 653 0 0 0 19.067-.574c2.851-5.502 4.255-11.077 4.927-15.916"/><path fill="#eb7525" d="M70.128 36.399c.559-5.365.266-9.583.246-11.385a371 371 0 0 0-.074-4.273 717 717 0 0 0-24.273-.757c.006 2.377.017 8.747-.012 16.942 8.034-.08 16.086-.256 24.113-.527"/><path d="M48.646 22.64c6.327.113 12.727.314 19.089.598q.016.95.025 1.803.008.534.033 1.274c.052 1.706.135 4.35-.074 7.544-6.358.2-12.755.34-19.08.42.012-4.876.011-8.933.007-11.64m-2.62-2.658c.007 2.377.018 8.747-.01 16.942 8.033-.08 16.085-.256 24.112-.527.559-5.365.266-9.583.246-11.384a375 375 0 0 0-.074-4.274 718 718 0 0 0-24.273-.757z"/><path fill="#6284c1" d="M45.871 56.85a1518 1518 0 0 1-.266 16.4c8.823-4.6 14.54-10.648 18.234-16.925a653 653 0 0 1-17.968.524z"/><path d="M58.783 59.139c-2.842 3.67-6.344 6.854-10.47 9.518.053-2.906.1-5.993.141-9.237 3.417-.066 6.87-.16 10.329-.28m5.055-2.814c-5.987.256-11.982.433-17.967.524a1518 1518 0 0 1-.266 16.4c8.823-4.599 14.54-10.647 18.234-16.924z"/><path fill="#92c53f" d="M.167 20.77a347 347 0 0 0-.073 4.242c-.02 1.8-.312 6.01.244 11.364 7.984.268 15.934.447 23.808.535-.03-8.178-.02-14.535-.014-16.909-7.925.125-15.928.382-23.965.767z"/><path d="M21.513 22.663c-.003 2.703-.003 6.75.01 11.6-6.19-.084-12.485-.227-18.775-.424-.207-3.187-.125-5.822-.072-7.524q.024-.741.032-1.274.01-.84.025-1.773a752 752 0 0 1 18.78-.605m2.619-2.661c-7.925.125-15.928.382-23.965.767-.034 1.513-.06 2.947-.073 4.243-.02 1.8-.312 6.01.244 11.364 7.984.268 15.934.447 23.808.535-.03-8.178-.02-14.535-.014-16.909"/><path fill="#c6d872" d="M24.154 38.887a1067 1067 0 0 1-23.576-.526c.669 4.835 2.068 10.405 4.912 15.905 6.294.282 12.56.48 18.779.587a2570 2570 0 0 1-.115-15.965z"/><path d="M3.686 41.076c5.98.181 11.968.313 17.866.394.02 3.688.044 7.276.076 10.717a678 678 0 0 1-14.48-.466c-1.546-3.276-2.706-6.842-3.463-10.645M.578 38.361c.67 4.835 2.068 10.405 4.912 15.905 6.294.282 12.56.48 18.78.587a2570 2570 0 0 1-.116-15.965 1068 1068 0 0 1-23.576-.526z"/><path fill="#8061a5" d="M24.291 56.83c-5.857-.1-11.757-.28-17.682-.537 3.65 6.216 9.28 12.209 17.945 16.795-.115-5.24-.201-10.788-.263-16.259z"/><path d="M11.661 59.11c3.374.12 6.733.215 10.046.285.041 3.179.087 6.207.14 9.062-4.005-2.63-7.41-5.756-10.186-9.348zm-5.052-2.817c3.65 6.216 9.28 12.209 17.945 16.795-.115-5.24-.201-10.788-.263-16.259-5.857-.1-11.757-.28-17.682-.536"/><path fill="#f3c018" d="M70.25 18.76a619 619 0 0 0-.595-15.416C50.474-1.114 20.02-1.115.814 3.344a618 618 0 0 0-.596 15.445c8.351-.398 16.665-.66 24.893-.778l1.006-.014-.004 1.006c0 .386-.107 31.294.442 55.091a64 64 0 0 0 8.604 3.351l.076.025.076-.025a64 64 0 0 0 8.297-3.203c.553-23.835.441-54.87.44-55.256l-.005-1.005 1.005.013a718 718 0 0 1 25.203.767z"/><path d="M35.242 2.614c11.845 0 23.074 1.009 31.902 2.853.155 3.213.3 6.924.412 10.55a724 724 0 0 0-22.476-.639l-1.004-.013-2.659-.034.01 2.659.004 1.005c.001.302.112 29.842-.401 53.544a63 63 0 0 1-5.796 2.187 62 62 0 0 1-6.103-2.323c-.506-23.492-.405-53.089-.404-53.391l.004-1.006.01-2.663-2.662.039-1.006.014c-7.27.105-14.71.324-22.162.652.113-3.636.257-7.358.413-10.58 8.838-1.845 20.073-2.853 31.919-2.853m0-2.615C22.831 0 10.417 1.115.813 3.344a618 618 0 0 0-.595 15.445c8.351-.398 16.665-.66 24.893-.778l1.006-.015-.004 1.007c0 .386-.107 31.294.442 55.09a64 64 0 0 0 8.604 3.352l.076.024.076-.024a64 64 0 0 0 8.297-3.203c.553-23.836.441-54.87.44-55.257l-.005-1.004 1.005.013c8.397.107 16.814.364 25.203.766a619 619 0 0 0-.595-15.415C60.066 1.115 47.656 0 35.244 0z"/></svg>