<svg viewBox="0 0 256 287.97" xmlns="http://www.w3.org/2000/svg"><path d="M255.99 84.658c-.002-4.843-1.037-9.122-3.129-12.794-2.055-3.612-5.134-6.638-9.262-9.032-34.081-19.67-68.195-39.28-102.26-58.97-9.185-5.307-18.091-5.114-27.208.27-13.565 8.008-81.481 46.956-101.72 58.689C4.077 67.651.021 75.042.019 84.649c-.013 39.558 0 79.114-.013 118.67.002 4.736.993 8.932 2.993 12.55 2.056 3.72 5.177 6.83 9.401 9.278 20.239 11.733 88.164 50.678 101.73 58.688 9.121 5.387 18.027 5.579 27.215.27 34.07-19.691 68.186-39.3 102.27-58.97 4.224-2.447 7.345-5.559 9.401-9.276 1.997-3.618 2.99-7.814 2.992-12.551 0 0 0-79.094-.013-118.65" fill="#a9b9cb"/><path d="M141.1 4.12c-9.17-5.294-18.061-5.101-27.163.269-13.543 7.987-81.348 46.834-101.55 58.537C4.066 67.743.017 75.115.015 84.696c-.013 39.456 0 78.91-.013 118.36.002 4.725.991 8.91 2.988 12.518 2.053 3.71 5.169 6.813 9.386 9.254a9008.5 9008.5 0 0020.159 11.62l187.09-187.09c-26.178-15.074-52.363-30.136-78.524-45.241" fill="#7f8b99"/><path d="M154.46 125.95l39.839.281c0-16.599-16.802-57.249-64.973-57.249-30.691 0-71.951 19.512-71.951 75.61 0 56.097 40.447 74.39 71.951 74.39 51.017 0 63.21-35.302 63.21-55.252l-38.007-2.173s1.017 23.075-25.406 23.075c-24.39 0-28.46-29.878-28.46-40.04 0-15.447 5.493-40.244 28.46-40.244 22.968 0 25.337 21.602 25.337 21.602" fill="#fff"/></svg>
