<svg xmlns="http://www.w3.org/2000/svg" preserveAspectRatio="xMinYMin" viewBox="0 0 1145.8 535.8"><g fill="#00000"><path d="M878.1.4c147.9 0 267.7 119.8 267.7 267.7 0 147.8-119.8 267.7-267.7 267.7H288c-21.1 0-38.2-17.1-38.2-38.2s17.1-38.2 38.2-38.2h137.5c21 0 38.1-17.1 38.1-38.2S446.5 383 425.5 383h-30.601c-21.099 0-38.199-17.1-38.199-38.2s17.1-38.2 38.2-38.2h91.703c21.215-.059 37.67-17.35 38.197-38.2 0-21.1-17.1-38.2-38.2-38.2H165.7c-21.1 0-38.2-17.1-38.2-38.2s17.1-38.2 38.2-38.2h236.8c21.214-.059 37.669-17.35 38.196-38.2 0-21.1-17.1-38.2-38.2-38.2h-53.4c-21.1 0-38.2-17.1-38.2-38.2s17.1-39.2 38.2-39.2zm-42.799 89.2c-82.2 0-148.7 66.6-148.7 148.7v59.5c0 82.2 66.5 148.7 148.7 148.7 82.1 0 148.7-66.5 148.7-148.7v-59.5c0-82.1-66.6-148.7-148.7-148.7m50.8 140.6c19.8 0 35.9 16.1 35.9 35.9v4.6c0 19.8-16.1 35.9-35.9 35.9h-111.6c-19.8 0-35.9-16.1-35.9-35.9v-4.6c0-19.8 16.1-35.9 35.9-35.9zM168 459.4c19.9 0 35.9 16 35.9 35.9v4.6c0 19.8-16 35.9-35.9 35.9H35.9C16.1 535.8 0 519.7 0 499.9v-4.6c0-19.9 16.1-35.9 35.9-35.9z"/><path d="M229.2 1C249 1 265 17.1 265 36.9v4.7c0 19.8-16 35.8-35.8 35.8H81.7c-19.8 0-35.9-16-35.9-35.8v-4.7C45.8 17.1 61.9 1 81.7 1zM275 306.6c19.8 0 35.9 16.1 35.9 35.9v4.6c0 19.8-16.1 35.9-35.9 35.9h-81c-19.8 0-35.9-16.1-35.9-35.9v-4.6c0-19.8 16.1-35.9 35.9-35.9z"/></g></svg>