<svg xmlns="http://www.w3.org/2000/svg" fill="none" viewBox="0 0 31.189 36"><g clip-path="url(#a)"><path fill="#dc150b" d="M0 26.96V9.049c0-.038.019-.066.047-.084l15.5-8.956a.09.09 0 0 1 .095 0l15.5 8.946a.1.1 0 0 1 .048.085v17.91a.1.1 0 0 1-.047.085l-15.501 8.956a.09.09 0 0 1-.094 0L.047 27.034C.019 27.016 0 26.988 0 26.96"/><path fill="#fff" d="M10.381 15.034c-.01-.01-.028-.019-.037-.01L5.252 17.97h-.02q-.027 0-.027-.028v-5.936c0-.01.01-.019.018-.028l10.334-5.964q.015-.015.029 0l5.138 2.963.01.01c.01.009 0 .028-.01.037l-5.148 2.973q-.017.014-.019.028v17.958c-.009.01-.028.019-.037.01l-5.13-2.955c0-.009-.009-.018-.009-.028V15.053zM20.799 26.999c-.019 0-.038-.019-.038-.037V15.032c0-.018.01-.028.02-.037l5.147-2.973c.01-.009.01-.009.02-.009a.04.04 0 0 1 .037.037V23.98c0 .02-.01.029-.02.038l-5.147 2.973c-.01.009-.01.009-.019.009"/></g><defs><clipPath id="a"><path fill="#fff" d="M0 0h31.189v36H0z"/></clipPath></defs></svg>