<svg xmlns="http://www.w3.org/2000/svg" viewBox="0 0 274 274.12"><path fill="#287ac8" d="m136.998-.008-137 137 137 137.125 137-137.125Z"/><path fill="#fff" d="M142.948 204.68h29.125l-21-31.875-14.75 22z"/><path fill="#231f20" d="M123.398 86.768H72.773v20.625h35l14.25 21.25 14.375-22zm12.988 63.787-14.75 22.25-21 31.875h29.125l6.625-9.875 14.75-22 14.5-21.625-14.75-22.625z"/><path fill="#fff" d="m149.36 86.768-13 19.875-14.374 22-14.75 22.625 14.5 21.625 14.375-21.875.25-.5 14.375-22 14.125-21.25h35V86.643h-50.5z"/></svg>