<svg xmlns="http://www.w3.org/2000/svg" fill-rule="evenodd" stroke-linejoin="round" stroke-miterlimit="2" clip-rule="evenodd" viewBox="0 0 120 95"><g fill="#9c4221" fill-rule="nonzero"><path d="M92.365 84.118V21.677h-8.286V13h17.924v80.005H84.079v-8.887zM39.92 13v8.844h-8.28v62.274h8.28v8.887H22.002V13z"/></g><path fill="#fffde8" fill-rule="nonzero" d="M61.087 93.302c-.28-1.504-.162-2.96-.08-4.41.061-1.077.192-2.15.296-3.27-.316.144-1.876 3.175-3 4.084-.64.517-3.611 1.9-4.134 1.863-.49-.035-.165-1.008-.014-1.56.484-1.77.9-3.54 1.498-5.264.184-.531.397-1.06.395-1.73-.48.427-5.511 3.966-6.995 4.27-.25.052-.526-.062-.79-.064-.466-.003-.526-.307-.42-.673.674-2.308 3.215-7.781 3.173-8.473-.964 1.105-9.847-.605-9.974-1.146-.132-.56.446-.821.85-1.043 3.573-1.963 6.99-4.21 10.344-6.562 2.074-1.454 4.562-2.71 5.714-5.054.504-1.025.385-1.519.202-2.07-5.033 3.148-18.682-4.432-19.345-4.742-.79-.37-8.516-4.123-14.512-7.224-1.554-.803 3.032-1.158 2.983-1.43-.04-.228-9.477-1.57-11.474-2.48-.562-.257-.206-.773.03-1.025.501-.539 5.385-2.443 4.89-2.474-1.022-.065-17.793-.881-15.69-3.023 1-1.018 11.53-2.528 11.088-2.544-1.805-.068-17.157-4.935-16.063-6.775.569-.957 15.137 1.204 14.683.884-1.255-.88-11.23-14.212-8.49-13.358 1.525.476 19.93 15.11 34.711 20.88 1.979.772 11.763 4.339 13.816 4.786.639.139 1.077.038 1.53-.597 1.123-1.57 2.776-2.07 4.542-2.193 1.528-.107 2.934.314 4.3 1.061 1.59.868 3.218 1.075 5.008.439 3.073-1.092 5.658-3.002 8.144-5.106C95.442 22.777 99.023 4.708 99.695 4.4c.61.58.92 8.004.11 12.457C103.97 14.312 106.15.014 107.07.001c1.203-.018 2.138 12.036-.938 16.683 7.57-3.938 10.474-12.863 11.254-10.533.661 1.973.391 3.228-1.126 6.734-2.142 4.949-2.466 4.443-5.384 8.974 4.777.374 8.833-3.806 9.124-1.909.214 1.388-7.859 7.897-9.25 8.29 2.52 1.187 6.587-.715 7.444-.37 3.51 1.409-16.536 14.676-16.033 14.623 1.74-.183 3.708-1.038 3.45-.263-.28.845-17.005 12.656-20.706 15.723-1.474 1.222-5.99 4.597-11.863 3.61-.165.273.417 2.239 1.865 3.393 4.052 3.229 7.386 4.604 12.164 6.357 1.196.438 5.88 1.785 5.998 2.282.287 1.214-3.74 4.042-9.48 2.501.093.415.855 1.21 1.078 1.43 1.47 1.453 2.677 3.128 3.694 4.965.433.783.362.876-.472.948-2.734.237-7.31-3.282-7.648-3.006-.352.286 2.273 5.203 3 7.619.13.43.336.985.136 1.284-.274.41-5.658-2.711-7.155-5.06-.13-.206-.156-.512-.453-.575-.31.206-.125.463-.064.695.226.849 1.065 6.38 1.215 7.512.075.567-.165.69-.665.599-1.504-.272-2.456-1.37-3.376-2.52-.597-.746-1.06-1.589-1.451-2.478-.1-.227-.154-.495-.426-.657-.232.484-.1.966-.106 1.423-.025 2.07-.695 3.884-1.841 5.52-.236.337-.473.182-.677-.02a6.4 6.4 0 0 1-1.238-1.766c-.325-.671-.653-1.34-.985-2.022-.65.508-.7 1.311-1.081 1.907-.447.7-2.986 3.567-3.354 3.045-.328-.464-.432-1.042-.633-1.636"/></svg>