<svg xmlns="http://www.w3.org/2000/svg" viewBox="0 0 185.08 190.68"><path d="M60.35 101.01c16.16 0 29.31 13.15 29.31 29.31s-13.15 29.31-29.31 29.31-29.31-13.15-29.31-29.31 13.15-29.31 29.31-29.31m0-31.03C27.02 69.98 0 97 0 130.33s27.02 60.35 60.35 60.35 60.35-27.02 60.35-60.35-27.02-60.35-60.35-60.35M152.89 52.22c9.79 0 17.75 7.96 17.75 17.75s-7.96 17.75-17.75 17.75-17.75-7.96-17.75-17.75c0-9.78 7.96-17.75 17.75-17.75m0-14.43c-17.78 0-32.19 14.41-32.19 32.19s14.41 32.19 32.19 32.19 32.19-14.41 32.19-32.19c-.01-17.78-14.42-32.19-32.19-32.19M89.67 11.9c6.21 0 11.26 5.05 11.26 11.26s-5.05 11.26-11.26 11.26-11.26-5.05-11.26-11.26S83.46 11.9 89.67 11.9m0-11.9C76.88 0 66.5 10.37 66.5 23.17s10.37 23.17 23.17 23.17c12.79 0 23.17-10.37 23.17-23.17S102.46 0 89.67 0" class="st0"/></svg>