<svg xmlns="http://www.w3.org/2000/svg" viewBox="0 0 59.409 91"><path fill="#68b044" d="m34.009 6.8-2.4 9.6c3.4-6.8 8.9-11.9 15.2-16.4-4.6 5.3-8.8 10.6-11.3 16 4.3-6.1 10.1-9.4 16.6-11.7-8.7 7.7-15.6 16.1-20.8 24.4l-4.2-1.8c.7-6.7 3.2-13.5 6.9-20.1"/><path fill="#f5f8de" d="m22.909 25.1 7.9 3.3c0 2-.2 8.2 1.1 10 13.2 17 11 51.2-2.7 52-20.8 0-28.8-14.1-28.8-27.1 0-11.9 14.2-19.7 22.7-26.7 2.3-1.9 1.9-6.1-.2-11.5"/><path fill="#7e4798" d="m30.809 28.3 2.9 1.5c-.3 1.9.1 6.1 2 7.1 8.4 5.2 16.2 10.8 19.3 16.5 11 19.9-7.7 38.4-24 36.6 8.8-6.5 11.4-19.9 8.1-34.6-1.3-5.7-3.4-10.9-7.1-16.8-1.6-2.7-1-6.3-1.2-10.3"/><path fill="#010101" d="M27.609 37.8c-.6 3.1-1.3 8.7-4 10.8-1.1.8-2.3 1.6-3.5 2.4-4.9 3.3-9.7 6.4-11.9 14.3-.5 1.7-.1 3.5.3 5.2 1.2 4.9 4.6 10.1 7.3 13.2 0 .1.5.5.5.6 2.2 2.6 2.9 3.4 11.3 5.3l-.2.9c-5.1-1.3-9.2-2.6-11.9-5.6 0-.1-.5-.5-.5-.5-2.8-3.2-6.3-8.6-7.5-13.7-.5-2-.9-3.6-.3-5.7 2.3-8.2 7.3-11.5 12.3-14.9 1.1-.7 2.5-1.4 3.6-2.3 2.3-1.5 3.4-6.2 4.5-10"/><path fill="#010101" d="M29.809 50.8c.1 3.5-.3 5.3.6 7.8.5 1.5 2.4 3.5 2.9 5.5.7 2.6 1.5 5.5 1.5 7.3 0 2-.1 5.8-1 9.8-.7 3.3-2.2 6.2-4.8 7.8-2.7-.5-5.8-1.5-7.6-3.1-3.6-3.1-6.7-8.3-7.1-12.8-.3-3.7 3.1-9.2 7.9-11.9 4-2.4 5-5 5.9-9.4-1.2 3.8-2.4 6.9-6.3 9-5.7 3-8.6 7.9-8.3 12.7.4 6.1 2.8 10.2 7.6 13.5 2 1.4 5.8 2.9 8.2 3.3V90c1.8-.3 4.1-3.3 5.3-7.2 1-3.6 1.4-8.1 1.3-11-.1-1.7-.8-5.3-2.2-8.6-.7-1.8-1.9-3.6-2.6-4.9-.9-1.5-.9-4.3-1.3-7.5"/><path fill="#010101" d="M29.209 64.5c.1 2.4 1 5.4 1.4 8.5.3 2.3.2 4.6.1 6.6-.1 2.3-.8 6.5-1.9 8.6-1-.5-1.4-1-2.1-1.8-.8-1.1-1.4-2.3-1.9-3.6-.4-1-.9-2.2-1.1-3.5-.3-2-.2-5.2 2.1-8.4 1.8-2.6 2.2-2.8 2.8-5.7-.8 2.6-1.4 2.9-3.3 5.1-2.1 2.4-2.4 6-2.4 8.9 0 1.2.5 2.6 1 3.8.5 1.3 1 2.7 1.7 3.7 1.1 1.6 2.5 2.6 3.2 2.7v-.1c1.3-1.5 2.1-2.9 2.4-4.4.3-1.8.4-3.5.6-5.6.2-1.8.1-4.1-.4-6.5-.6-3-1.7-6.1-2.2-8.3"/><path fill="#010101" d="M29.609 35c.1 3.5.3 10 1.3 12.6.3.9 2.8 4.7 4.5 9.4 1.2 3.2 1.5 6.2 1.7 7.1.8 3.8-.2 10.3-1.5 16.4-.7 3.3-3 7.4-5.6 9l-.5.9c1.5-.1 5.1-3.6 6.4-8.1 2.2-7.5 3-11 2-19.4-.1-.8-.5-3.6-1.8-6.5-1.9-4.5-4.6-8.8-4.9-9.7-.7-1.4-1.5-7.6-1.6-11.7"/><path fill="#010101" d="M30.809 28.6c-.2 3.6-.2 6.4.4 9.1.7 2.9 4.5 7.1 6.1 11.9 3 9.2 2.2 21.2.1 30.5-.8 3.3-4.6 8.1-8.5 9.6l2.8.7c1.5-.1 5.5-3.8 7.1-8 2.5-6.7 3-14.6 2-23-.1-.8-1.4-8-2.7-11-1.8-4.5-4.7-7.7-5.7-10.5-.8-2.1-1.1-7.7-.6-8.8z"/><path fill="#010101" d="M50.809 46.3c-2.9-2.6-6.5-4.8-10.3-6.9-1.7-.9-6.9-5-5.1-10.8l-13.1-5.4-.9.7c4.4 7.9 2.1 12.1-.1 13.5-4.4 3-10.8 6.8-13.9 10.1-6.1 6.3-7.9 12.3-7.3 20.1.6 10.1 7.9 18.5 17.8 21.8 4.3 1.4 8.3 1.6 12.7 1.6 7.1 0 14.5-1.9 19.8-6.3 5.7-4.7 9-11.8 9-19.1s-3.1-14.3-8.6-19.3m-1.9 36.9c-4.9 4-13.7 6.8-18.4 6.6-5.2-.3-10.3-1.1-14.8-3.3-7.9-3.8-13.1-12.1-13.5-18.8-.7-13.7 5.9-17.6 12-22.6 3.4-2.8 8.2-4.2 10.9-9.2.5-1.1.8-3.5.2-6-.3-.9-1.5-3.9-2-4.6l9.8 4.3c-1.2 4.5 2.5 9.2 5.5 10.9s7.7 4.9 10.6 7.5c5.1 4.5 7.7 10.9 7.7 17.6s-2.8 13.3-8 17.6"/></svg>