<svg xmlns="http://www.w3.org/2000/svg" viewBox="200 300 174.7 136.38"><path fill="#6670cc" d="m255.64 406.6-20.508-15.918-16.697 15.277c-4.399 4.102-9.818 5.063-14.635 2.417-4.536-2.491-5.061-6.194-1.318-10.112l21.143-21.939c5.163-5.306 11.435-5.886 17.467-1.424 6.001 4.44 11.82 9.126 18.325 14.174l6.456-15.965 10.974-27.85c1.919-5.192 5.518-7.175 10.706-7.16 5.271.015 8.635 2.305 10.44 7.482l15.889 44.109c.385 1.064.85 2.098 1.775 4.364l6.22-32.813 9.986-53.951c.782-4.439 3.475-6.231 7.306-6.982 5.521-1.082 10.119.711 12.53 5.014l17.841 32.346 4.315 7.88c1.789 3.289.59 5.755-2.223 7.687-5.52 3.792-13.056 2.134-16.428-3.702-2.814-4.872-5.454-9.844-8.836-15.979l-6.439 34.074-11.332 61.312c-.909 5.05-4.108 6.912-8.654 7.346-6.134.586-9.883-1.565-11.801-6.85l-19.145-53.017c-.489-1.352-1.062-2.674-2.097-5.265l-9.336 23.498-2.456 6c-3.837 9.784-10.326 11.879-19.465 5.946z"/></svg>