<svg version="1.1" viewBox="0 0 42.126 62.45" xmlns="http://www.w3.org/2000/svg"><g transform="translate(0 .0027688)"><path d="m27 44.27a0.42 0.42 0 1 0-0.41-0.42 0.41 0.41 0 0 0 0.41 0.42m-15-0.83a0.42 0.42 0 1 0 0.42 0.41 0.42 0.42 0 0 0-0.42-0.41"/><path d="m36.9 32.41a2.39 2.39 0 0 0 1.44-2.12 2.65 2.65 0 0 0-5.27 0 2.38 2.38 0 0 0 1.45 2.12 0.8 0.8 0 0 1 0.47 0.74v6h-0.19a14.93 14.93 0 0 0-7.59-9.4c0.43-0.91 1-2 1.55-3 1.53-2.65 6.12-7.65 8.78-11s6.52-9.75 3.46-11.52-7.65 4.55-12 10.67c-3 4.22-4.6 10.22-5.28 13.52a18.9 18.9 0 0 0-4.52-0.54 18.2 18.2 0 0 0-6.46 1.12 85 85 0 0 1 0.32-11.58c0.71-6.94 1.32-17.62-2.86-17.42s-4.69 11.63-4.39 18.05c0.19 4.56 2.09 10.17 3.19 13.03a15 15 0 0 0-5.41 8.05h-0.71a2.75 2.75 0 0 0-2.88 2.58v5.17a2.75 2.75 0 0 0 2.88 2.59h0.91a12.9 12.9 0 0 0 2.93 4.46 0.84 0.84 0 0 1 0 1.23 1.64 1.64 0 0 0-0.12 2.34 17.1 17.1 0 0 0 12.54 4.94c5.42 0 10.21-2 13.14-5.6a0.79 0.79 0 0 0-0.1-1.12l-0.62-0.57a0.83 0.83 0 0 1 0-1.21 13.2 13.2 0 0 0 2.94-4.47h1a2.74 2.74 0 0 0 2.87-2.59v-5.17a2.53 2.53 0 0 0-1.47-2.23 0.81 0.81 0 0 1-0.44-0.73v-5.6a0.8 0.8 0 0 1 0.44-0.74m-6.54-15.07c3-4.89 6-8.84 7.21-8.09s-1.52 5.58-4.87 10.07a95 95 0 0 0-6.2 10.06l-1.59-0.62a91 91 0 0 1 5.45-11.42m-16 13.17a0.83 0.83 0 0 1 0.64-0.81 17.5 17.5 0 0 1 4.17-0.48 17.3 17.3 0 0 1 4.17 0.48 0.83 0.83 0 0 1 0.63 0.81v3.49a0.84 0.84 0 0 1-1 0.82 15.6 15.6 0 0 0-3.78-0.45 16.7 16.7 0 0 0-3.79 0.43 0.83 0.83 0 0 1-1-0.82zm4.07 17.24c-0.44-0.32-1.08-0.85-1.08-1.2 0-0.54 0.72-1.19 1.7-1.19a1.4 1.4 0 0 1 1.5 1.09c0 0.25-0.57 0.89-1.08 1.28a0.82 0.82 0 0 0-0.33 0.66v1a2.1 2.1 0 0 0 1.5 0.7c0.84-0.06 1.41-1 1.41-1.06a0.18 0.18 0 0 1 0.26-0.07 0.18 0.18 0 0 1 0.07 0.25 2.49 2.49 0 0 1-1.71 1.25h-0.12a2.2 2.2 0 0 1-1.11-0.35 0.85 0.85 0 0 0-0.94 0 1.86 1.86 0 0 1-1 0.33c-1 0-1.7-1.23-1.73-1.29a0.18 0.18 0 0 1 0.07-0.25 0.19 0.19 0 0 1 0.26 0.08s0.6 1.09 1.4 1.09a1.8 1.8 0 0 0 1.3-0.7v-1a0.84 0.84 0 0 0-0.35-0.62zm-10.51-29.52c-0.68-7.23 0.55-12.31 2.31-12.38s1.5 6.53 1.36 11.83c-0.09 3.64-0.05 8.89 0 11.82l-1.5 0.8a86 86 0 0 1-2.17-12.07m-6.43 23.48a1.27 1.27 0 0 1 1.39-1.29h0.86a19.6 19.6 0 0 0-0.38 3.79 8 8 0 0 0 0 0.95h-1.04a0.83 0.83 0 0 1-0.83-0.83zm1.39 6.47a1.35 1.35 0 0 1-1.44-1.3v-0.88h1.29a0.84 0.84 0 0 1 0.83 0.71 14 14 0 0 0 0.32 1.45zm27.45 8.76a15.73 15.73 0 0 1-11.16 4.16 15.7 15.7 0 0 1-11.17-4.16 0.82 0.82 0 0 1 0-1.19l0.23-0.21a0.84 0.84 0 0 1 1-0.07 18.2 18.2 0 0 0 9.87 2.62 18.17 18.17 0 0 0 9.9-2.62 0.84 0.84 0 0 1 1 0.07l0.23 0.21a0.82 0.82 0 0 1 0.1 1.19m-11.16 0.29c-8.91 0-14.86-5.22-14.86-13 0-6.35 3-11.25 7.91-13.55a0.84 0.84 0 0 1 1.2 0.76v3.44a0.83 0.83 0 0 1-0.53 0.77c-4.51 1.85-7.62 5.69-7.62 10.09 0 5.9 5.61 9.91 13.9 9.91s13.9-4 13.9-9.91c0-4.4-3.11-8.24-7.62-10.09a0.85 0.85 0 0 1-0.53-0.77v-3.46a0.85 0.85 0 0 1 1.21-0.76c4.87 2.34 7.87 7.21 7.87 13.6 0 7.74-5.91 12.97-14.83 12.97m-6.05-12.86a1.52 1.52 0 1 1-1.52-1.51 1.52 1.52 0 0 1 1.52 1.51m11.91 0a1.52 1.52 0 1 1 1.52 1.52 1.52 1.52 0 0 1-1.55-1.52zm11.88 2.51a1.35 1.35 0 0 1-1.44 1.3h-1c0.13-0.47 0.24-1 0.33-1.45a0.84 0.84 0 0 1 0.82-0.71h1.3zm0-5.17v2.62a0.84 0.84 0 0 1-0.84 0.83h-1.07v-0.95a19.3 19.3 0 0 0-0.39-3.79h0.82a1.35 1.35 0 0 1 1.48 1.29m-1.2-10.34a1.08 1.08 0 1 1 1.2-1.08 1.13 1.13 0 0 1-1.2 1.08"/></g></svg>
