<svg xmlns="http://www.w3.org/2000/svg" viewBox="0 -10 177 57.148"><defs><linearGradient id="a" x1="-1.186" x2="64.436" y1="-52.045" y2="-52.045" gradientTransform="scale(1.2648 .79063)" gradientUnits="userSpaceOnUse"><stop offset="0" stop-color="#ff6b35"/><stop offset="1" stop-color="#f7931e"/></linearGradient><linearGradient id="b" x1="56.404" x2="97.88" y1="48.268" y2="48.268" gradientTransform="matrix(1.7815 0 0 .56132 -7 -8.852)" gradientUnits="userSpaceOnUse"><stop offset="0" stop-color="#2c3e50"/><stop offset="1" stop-color="#34495e"/></linearGradient></defs><path fill="none" stroke="url(#a)" stroke-linecap="round" stroke-width="3" d="M0 0q8-15 16-8t16-12T48-5t16-13 16 8" opacity=".9" transform="translate(3 31.148)"/><g fill="#ff6b35" transform="translate(3 31.148)"><circle r="3"/><circle cx="16" cy="-8" r="3"/><circle cx="32" cy="-20" r="3"/><circle cx="48" cy="-5" r="3"/><circle cx="64" cy="-18" r="3"/><circle cx="80" cy="-10" r="3"/></g><path stroke="#e0e0e0" stroke-dasharray="2, 2" stroke-width=".5" d="M19 36.148v-30m16 30v-30m16 30v-30m16 30v-30" opacity=".5"/><text x="93" y="41.148" fill="url(#b)" font-family="'Segoe UI', Arial, sans-serif" font-size="32" font-weight="600">tsink</text><path fill="none" stroke="#34495e" stroke-linecap="round" stroke-width="2" d="M86 21.148h-3v25h3m87-25h3v25h-3" opacity=".7"/></svg>