<svg xmlns="http://www.w3.org/2000/svg" viewBox="0 0 186 186"><circle cx="93" cy="93" r="93" fill="#046"/><path fill="#fc8" d="M116 76a20 20 0 0 1-20-20 20 20 0 0 1 20-20v11a9 9 0 0 0-9 9 9 9 0 0 0 9 9z"/><path fill="#fc8" d="M116 66a10 10 0 0 1-10-10 10 10 0 0 1 10-10v1a9 9 0 0 0-9 9 9 9 0 0 0 9 9z"/><g fill="#d95"><ellipse cx="116" cy="41.5" rx="4" ry="5.5"/><circle cx="86" cy="66" r="10"/><circle cx="126" cy="66" r="10"/><path d="M86.5 56h39v20h-39z"/><path d="M76 66.5h60V76H76z"/><circle cx="36" cy="81" r="15"/><circle cx="36" cy="121" r="15"/></g><g stroke-width="0"><ellipse cx="15" cy="91" fill="#fc8" rx="4" ry="10"/><ellipse cx="15" cy="111" fill="#fc8" rx="4" ry="10"/><path fill="#d95" d="M11 99h65v4H11z"/><ellipse cx="100.5" cy="100.5" fill="#fc8" rx="74.5" ry="34.5"/></g><ellipse cx="70" cy="95.5" fill="#d95" rx="15" ry="12.5"/><ellipse cx="70" cy="95.5" fill="#fc8" rx="14" ry="11.5"/><ellipse cx="70" cy="95.5" fill="#d95" rx="11" ry="8.5"/><ellipse cx="110" cy="95.5" fill="#d95" rx="15" ry="12.5"/><ellipse cx="110" cy="95.5" fill="#fc8" rx="14" ry="11.5"/><ellipse cx="110" cy="95.5" fill="#d95" rx="11" ry="8.5"/><ellipse cx="150" cy="95.5" fill="#d95" rx="15" ry="12.5"/><ellipse cx="150" cy="95.5" fill="#fc8" rx="14" ry="11.5"/><ellipse cx="150" cy="95.5" fill="#d95" rx="11" ry="8.5"/></svg>