<svg xmlns="http://www.w3.org/2000/svg" viewBox="0 0 52.222 34.5"><path d="M28.11 12.695 15.535 5.648l-.02 3.636 9.585 5.33z"/><path d="m19.018 23.674 7.777.112 15.359-9.58.03-3.676L23.128 0l-7.582 4.371-.01.113 14.568 8.16-6.801 4.269L8.188 8.518 0 13.114v.173zm11.218 2.778 1.747-1.134 11.096 6.904 1.787-1.093-11.116-6.945 1.983-1.286 11.096 6.904 1.797-1.093L37.5 21.764l1.818-1.174 11.117 6.914 1.787-1.093-11.136-6.965 1.047-.674.02-3.36-14.814 9.242-.061.041v3.667l1.191-.776L39.585 34.5l1.788-1.093zm-11.825 1.9v-3.84L.001 14.452v3.523zm1.027.285 6.812.052v-3.892l-6.811-.102v3.942z"/></svg>