<svg xmlns="http://www.w3.org/2000/svg" fill="none" viewBox="0 0 15.83 15.212"><path fill="#e95420" fill-rule="evenodd" d="M13.864 2.245a2.245 2.245 0 1 1-4.489-.002 2.245 2.245 0 0 1 4.489.002M4.49 7.17A2.245 2.245 0 1 1 0 7.17a2.245 2.245 0 0 1 4.489 0zm2.83 5.787a5.48 5.48 0 0 1-3.738-2.848 3.23 3.23 0 0 1-1.924.239 7.33 7.33 0 0 0 5.269 4.413c.522.11 1.063.165 1.594.165a3.24 3.24 0 0 1-.66-1.877l-.07-.011a13 13 0 0 1-.47-.08zm6.03.01a2.244 2.244 0 1 1-4.488-.002 2.244 2.244 0 0 1 4.488.002m.89-.825a7.35 7.35 0 0 0 .367-8.626A3.2 3.2 0 0 1 13.34 5a5.56 5.56 0 0 1 .523 3.736 5.5 5.5 0 0 1-.697 1.74 3.2 3.2 0 0 1 1.072 1.666zm-12.09-8.2-.08.005A7.4 7.4 0 0 1 9.044.238a3.2 3.2 0 0 0-.614 1.32c-.027.165-.055.33-.064.503a5.5 5.5 0 0 0-4.417 2.363 3.4 3.4 0 0 0-1.026-.412 3.3 3.3 0 0 0-.678-.073q-.05 0-.094.004z" clip-rule="evenodd"/></svg>