<svg xmlns="http://www.w3.org/2000/svg" viewBox="0 0 115.21 36.401"><path fill="#1d6434" d="M23.413 0h4.736v20.679q0 5.395-1.22 8.569-1.221 3.174-4.42 5.176Q19.337 36.4 14.16 36.4q-5.03 0-8.227-1.733-3.199-1.733-4.566-5.005Q0 26.367 0 20.68V0h4.736v20.654q0 4.663.855 6.885.879 2.197 2.978 3.394 2.124 1.196 5.176 1.196 5.225 0 7.446-2.368t2.222-9.107zm12.573 35.791V0h4.859l18.799 28.1V0h4.54v35.791h-4.858L40.527 7.666v28.125Zm36.964 0V0h4.736v35.791Zm9.447 0L96.24 17.139 84.033 0h5.64l6.494 9.18q2.026 2.856 2.88 4.394 1.197-1.953 2.833-4.077L109.082 0h5.151L101.66 16.87l13.55 18.921h-5.86l-9.008-12.769q-.757-1.098-1.563-2.392-1.196 1.953-1.709 2.685l-8.984 12.476Z"/></svg>