<svg xmlns="http://www.w3.org/2000/svg" viewBox="0 0 50.244 49.827"><defs><path id="a" d="M.101 1.81 1.74.156l2.188 2.167-1.58 1.597z"/><path id="c" d="M.093 2.311 2.2.066l1.654 1.637L1.69 3.894z"/><path id="f" d="M.232 2.232 2.398.044l1.596 1.58-2.108 2.245z"/><path id="j" d="M.156 1.62 1.736.022l2.245 2.109-1.637 1.654z"/></defs><g fill="none" fill-rule="evenodd"><path fill="#7a67f8" d="M34.695 38.865h-.012c-2.854-.005-5.404-1.983-8.594-5.173l-6.93-6.873 2.166-2.188 6.937 6.88c3.075 3.074 4.876 4.272 6.427 4.275h.005c1.567 0 3.467-1.262 6.558-4.353l3.541-3.587c1.784-1.784 2.57-3.34 2.408-4.762-.13-1.156-.894-2.397-2.401-3.904l-.033-.034c-1.628-1.732-3.619-3.663-5.699-4.732-.386-1.977-1.651-3.534-1.831-3.818 3.803.558 7.197 3.703 9.757 6.424 2.789 2.793 5.804 7.176-.017 12.996l-3.54 3.587c-3.251 3.25-5.844 5.261-8.742 5.261"/><path fill="#f85977" d="m25.336 28.608 6.492-6.562c3.076-3.077 4.274-4.877 4.276-6.428.004-1.568-1.257-3.47-4.352-6.563l-3.587-3.541c-3.648-3.647-5.859-2.815-8.667-.007l-.033.033c-1.54 1.447-3.237 3.182-4.346 5.01-1.031.072-2.361.424-3.997 1.517.906-3.396 3.737-6.422 6.216-8.755 2.794-2.788 7.177-5.803 12.997.017l3.588 3.541c3.255 3.255 5.266 5.851 5.261 8.753-.005 2.854-1.983 5.405-5.173 8.594l-6.488 6.56z"/><path fill="#159bff" d="M12.459 38.707c-3.583-.761-6.776-3.735-9.214-6.326C1.972 31.105.258 29.13-.022 26.663c-.273-2.415.801-4.796 3.284-7.279l3.541-3.587c3.25-3.25 5.844-5.261 8.742-5.261h.011c2.854.005 5.405 1.982 8.594 5.172l7.046 6.976-2.165 2.19-7.053-6.983c-3.076-3.076-4.876-4.273-6.427-4.276h-.006c-1.566 0-3.466 1.261-6.557 4.352l-3.541 3.588c-1.784 1.784-2.57 3.34-2.409 4.761.131 1.157.894 2.397 2.402 3.904l.033.035c1.55 1.649 3.43 3.479 5.401 4.573.168 1.738 1.2 3.296 1.585 3.879"/><path fill="#67e5ad" d="M26.257 49.827c-1.926 0-4.114-.886-6.558-3.33l-3.588-3.54c-7.007-7.008-7.023-10.411-.088-17.347l6.802-6.873 2.192 2.163-6.81 6.881c-3.077 3.077-4.275 4.877-4.277 6.428-.003 1.568 1.258 3.469 4.352 6.563l3.588 3.541c3.646 3.646 5.857 2.815 8.666.007l.034-.033c1.653-1.555 3.5-3.459 4.592-5.436 1.662-.141 2.901-.842 3.835-1.438-.799 3.537-3.738 6.69-6.301 9.102-1.621 1.618-3.778 3.312-6.439 3.312"/><g transform="translate(21.09 18.577)"><mask id="b" fill="#fff"><use href="#a"/></mask><path d="M3.927 2.323 2.347 3.92.1 1.81 1.74.156z" mask="url(#b)"/></g><g transform="translate(27.34 20.98)"><mask id="e" fill="#fff"><use href="#c"/></mask><path d="M1.69 3.894.093 2.311 2.2.066l1.654 1.637z" mask="url(#e)"/></g><g transform="translate(18.927 24.587)"><mask id="i" fill="#fff"><use href="#f"/></mask><path d="m2.398.044 1.596 1.58-2.108 2.245L.232 2.232z" mask="url(#i)"/></g><g transform="translate(25.177 26.99)"><mask id="k" fill="#fff"><use href="#j"/></mask><path d="M.156 1.62 1.736.022l2.245 2.109-1.637 1.654z" mask="url(#k)"/></g></g></svg>