<svg xmlns="http://www.w3.org/2000/svg" viewBox="0 0 270.93 270.93"><path fill="#323330" d="M0 0h270.93v270.93H0z" paint-order="stroke fill markers"/><g fill="#fff" style="shape-inside:url(#rect4401-2);white-space:pre" transform="matrix(.26459 0 0 .26491 -13.684 24.697)"><path d="M229.29 801.48c-1.867 1.867-2.333 5.6 0 7.933 29.867 29.4 71.867 46.2 114.33 46.2 70.933 0 115.73-42.933 115.73-96.133 0-47.133-28.467-72.333-65.333-88.2l-41.533-17.267c-26.133-10.733-44.8-18.2-44.8-37.333 0-18.2 14.467-29.867 42-29.867 24.733 0 43.4 8.867 62.533 24.733 2.8 2.334 6.533 1.4 8.4-.933l27.533-34.533c1.867-1.867 1.867-5.6-.467-7.933-24.733-24.733-61.133-40.133-98-40.133-62.067 0-108.27 39.2-108.27 91.467 0 48.067 34.067 73.267 64.867 86.333l42 18.2c28.467 12.133 43.867 18.667 43.867 39.667 0 19.6-14.467 33.6-47.6 33.6-26.133 0-54.133-13.533-75.133-33.133-2.8-2.334-6.533-1.867-8.4.466zM476.16 801.48c-1.867 1.867-2.333 5.6 0 7.933 29.867 29.4 71.867 46.2 114.33 46.2 70.933 0 115.73-42.933 115.73-96.133 0-47.133-28.467-72.333-65.333-88.2l-41.533-17.267c-26.133-10.733-44.8-18.2-44.8-37.333 0-18.2 14.467-29.867 42-29.867 24.733 0 43.4 8.867 62.533 24.733 2.8 2.334 6.533 1.4 8.4-.933l27.533-34.533c1.867-1.867 1.867-5.6-.467-7.933-24.733-24.733-61.133-40.133-98-40.133-62.067 0-108.27 39.2-108.27 91.467 0 48.067 34.067 73.267 64.867 86.333l42 18.2c28.467 12.133 43.867 18.667 43.867 39.667 0 19.6-14.467 33.6-47.6 33.6-26.133 0-54.133-13.533-75.133-33.133-2.8-2.334-6.533-1.867-8.4.466zM749.62 844.41c0 2.333 2.333 5.6 6.067 5.6h54.133c2.333 0 5.6-1.867 5.6-5.6V714.68h112.47v129.73c0 2.333 1.866 5.6 5.6 5.6h54.133c2.333 0 6.066-1.867 6.066-5.6v-305.2c0-2.333-2.333-5.6-6.066-5.6H933.49c-2.334 0-5.6 1.867-5.6 5.6v116.67H815.42V539.21c0-2.333-1.867-5.6-5.6-5.6h-54.133c-2.334 0-6.067 1.867-6.067 5.6z"/></g></svg>