<svg xmlns="http://www.w3.org/2000/svg" viewBox="0 0 221.7 223.59"><defs><clipPath id="a"><path d="M102.94 205.59c-16.71-19.158-13.541-34.978-13.541-34.978s4.609 10.887 15.703 22.351c5.253 5.43 9.181 7.247 11.862 7.254 2.98.009 4.417-2.22 4.417-4.207v-38.894c0-3.837-2.473-4.676-4.752-4.633-1.946.036-3.748.712-3.748.712 11.381-16.544 38.609-18.867 38.609-18.867l11.957 12.773.281-.241 10.955-9.337c20.025 11.9 29.679 33.961 29.679 33.961-8.935-9.46-14.631-11.665-18.011-11.648-2.999.015-4.176 1.778-4.176 1.778-.161.819-.441 12.652-.54 24.493-.102 12.267-.013 24.542.602 24.579 3.458 6.49 14.489 19.576 14.489 19.576-20.602-4.061-31.837-17.561-31.837-17.561-3.316 2.613-10.085 2.179-10.085 2.179 3.168-1.744 6.338-6.824 6.338-11.032v-41.364s-6.915-6.094-12.245-6.094c-3.151 0-5.094 1.725-6.156 3.135-.735.977-1.049 1.8-1.049 1.8v51.087c-.653-.473-1.582-.868-2.537-.862-1.132.005-2.304.572-3.1 2.242-.601 1.257-.988 3.139-.988 5.877 0 9.432 10.661 15.674 10.661 15.674-13.543-3.629-26.076-10.596-42.788-29.753"/></clipPath><clipPath id="b"><path d="M66.746 184.69c0-46.307 37.222-83.845 83.139-83.845s83.139 37.538 83.139 83.845c0 46.306-37.223 83.845-83.139 83.845-45.917 0-83.139-37.539-83.139-83.845m26.938-56.68c-15.012 15.14-23.28 35.27-23.28 56.68s8.268 41.538 23.28 56.677 34.971 23.477 56.201 23.477c21.229 0 41.189-8.337 56.201-23.477 15.012-15.139 23.279-35.268 23.279-56.677 0-21.41-8.267-41.54-23.279-56.68-15.012-15.138-34.972-23.475-56.201-23.475-21.23 0-41.189 8.337-56.201 23.475"/></clipPath></defs><g clip-path="url(#a)" transform="matrix(1.3333 0 0 -1.3333 -88.995 358.05)"><path d="M87.986 236.52h117.56V133.15H87.986z"/></g><g clip-path="url(#b)" transform="matrix(1.3333 0 0 -1.3333 -88.995 358.05)"><path d="M65.57 269.71H234.2V99.67H65.57z"/></g></svg>