<svg xmlns="http://www.w3.org/2000/svg" viewBox="0 0 62.88 66.842"><defs><linearGradient id="a"><stop offset="0" stop-color="#fff" stop-opacity="0"/><stop offset=".25" stop-color="#fff"/><stop offset=".5" stop-color="#fff" stop-opacity=".498"/><stop offset=".75" stop-color="#fff"/><stop offset="1" stop-color="#fff" stop-opacity="0"/></linearGradient><linearGradient id="c"><stop offset="0" stop-color="#fff" stop-opacity="0"/><stop offset=".5" stop-color="#fff"/><stop offset="1" stop-color="#fff" stop-opacity="0"/></linearGradient><linearGradient id="b"><stop offset="0" stop-color="#999"/><stop offset=".134" stop-color="#fff"/><stop offset=".269" stop-color="#b3b3b3"/><stop offset=".317" stop-color="#999"/><stop offset=".567" stop-color="#fff"/><stop offset=".784" stop-color="#b3b3b3"/><stop offset=".801" stop-color="#fff"/><stop offset=".892" stop-color="#d8d8d8"/><stop offset="1" stop-color="gray"/></linearGradient><linearGradient id="f" x1="314.59" x2="379.59" y1="287.98" y2="286.61" gradientTransform="translate(0 308)" gradientUnits="userSpaceOnUse" href="#a"/><linearGradient id="g" x1="199.69" x2="457.78" y1="267.04" y2="267.04" gradientTransform="matrix(.9961 0 0 1 .781 307.99)" gradientUnits="userSpaceOnUse" href="#b"/><linearGradient id="e" x1="225.91" x2="516.17" y1="252.35" y2="252.35" gradientUnits="userSpaceOnUse"><stop offset="0" stop-color="#666"/><stop offset=".25" stop-color="gray"/><stop offset=".5" stop-color="#b3b3b3"/><stop offset=".75" stop-color="#ccc"/><stop offset="1" stop-color="gray"/></linearGradient><linearGradient id="j" x1="203.3" x2="454.62" y1="255.07" y2="252.54" gradientTransform="translate(0 308)" gradientUnits="userSpaceOnUse" href="#c"/><linearGradient id="k" x1="472.44" x2="719.45" y1="385.67" y2="383.28" gradientTransform="translate(-268.7 34.686)" gradientUnits="userSpaceOnUse"><stop offset="0" stop-color="#999"/><stop offset=".313" stop-color="#666"/><stop offset=".444" stop-color="#999"/><stop offset=".575" stop-color="#ccc"/><stop offset=".8" stop-color="gray"/><stop offset=".9" stop-color="#ccc"/><stop offset="1" stop-color="#666"/></linearGradient><linearGradient id="l" x1="314.59" x2="379.59" y1="287.98" y2="286.61" gradientUnits="userSpaceOnUse" href="#a"/><linearGradient id="m" x1="199.69" x2="457.78" y1="267.04" y2="267.04" gradientTransform="matrix(.9961 0 0 1 .781 -.006)" gradientUnits="userSpaceOnUse" href="#b"/><linearGradient id="n" x1="203.3" x2="454.62" y1="255.07" y2="252.54" gradientUnits="userSpaceOnUse" href="#c"/><linearGradient id="o" x1="203.3" x2="454.62" y1="255.07" y2="252.54" gradientTransform="translate(0 306)" gradientUnits="userSpaceOnUse"><stop offset="0" stop-color="#b3b3b3"/><stop offset=".28" stop-color="#666" stop-opacity=".502"/><stop offset=".5" stop-color="gray"/><stop offset=".75" stop-color="#666"/><stop offset="1" stop-color="gray"/></linearGradient><linearGradient id="p" x1="164.21" x2="267.76" y1="404.95" y2="406.14" gradientUnits="userSpaceOnUse"><stop offset="0" stop-color="#fff"/><stop offset="1" stop-color="#fff" stop-opacity="0"/></linearGradient><linearGradient id="v" x1="314.06" x2="370.17" y1="286.36" y2="286.7" gradientUnits="userSpaceOnUse"><stop offset="0" stop-color="#fff" stop-opacity="0"/><stop offset=".262" stop-color="#fff" stop-opacity=".802"/><stop offset=".738" stop-color="#fff"/><stop offset="1" stop-color="#fff" stop-opacity="0"/></linearGradient><linearGradient id="h" x1="225.91" x2="516.17" y1="252.35" y2="252.35" gradientUnits="userSpaceOnUse" href="#e"/><linearGradient id="w" x2="0" y1="8.707" y2="120.54" gradientUnits="userSpaceOnUse"><stop offset="0" stop-color="#f0ff80"/><stop offset="1" stop-color="#8bb300"/></linearGradient><linearGradient id="i" x1="225.91" x2="516.17" y1="252.35" y2="252.35" gradientUnits="userSpaceOnUse" href="#e"/><radialGradient id="x" cx="64.7" cy="-15.174" r="55.27" gradientTransform="matrix(1.5331 0 0 1.124 -33.828 2.99)" gradientUnits="userSpaceOnUse"><stop offset="0" stop-color="#eee"/><stop offset="1" stop-color="#eee" stop-opacity="0"/></radialGradient></defs><path fill="url(#f)" d="m307.87 583.19 77.133-2.023-16.187 31.502-43.345 1.264z" style="fill:url(#f)" transform="matrix(.17417 0 0 .17183 -34.867 -38.768)"/><g fill-rule="evenodd"><path fill="url(#g)" stroke="#ccc" stroke-width=".998" d="M328.19 534.12c-70.417 0-127.5 10.745-127.5 24.001 0 .227-.002.462.031.688h-.031v32h.031c1.91 12.942 58.26 23.314 127.47 23.314s125.53-10.372 127.44-23.313h.062v-32.001h-.062c.033-.226.062-.461.062-.688 0-13.255-57.084-24.001-127.5-24.001z" style="fill:url(#g)" transform="matrix(.17417 0 0 .17183 -34.867 -38.768)"/><path fill="url(#h)" d="M516.18 253.22c0 11.987-65.02 21.705-145.23 21.705-80.206 0-145.23-9.718-145.23-21.705s65.02-21.705 145.23-21.705c80.206 0 145.23 9.718 145.23 21.705" style="fill:url(#i)" transform="matrix(.14751 0 0 .16625 -32.428 15.212)"/><path fill="url(#j)" d="M205.67 558.5c-1.333 1.23-2.031 2.487-2.031 3.781 0 11.598 55.964 21 125 21s125-9.402 125-21c0-1.288-.709-2.557-2.031-3.781.013.13.03.276.03.406 0 11.598-55.068 21-123 21-67.93 0-123-9.402-123-21 0-.13.018-.276.032-.406" style="fill:url(#j)" transform="matrix(.17417 0 0 .17183 -34.867 -38.768)"/></g><path fill="url(#k)" d="M205.19 270.39h246l.483 288.11c.033 19.825-92.558 23.184-129.71 22.768-53.231-.595-116.26-6.854-116.29-22.768z" opacity=".333" style="fill:url(#k)" transform="matrix(.17417 0 0 .17183 -34.867 -38.768)"/><path fill="url(#l)" d="m307.87 275.19 77.133-2.023-16.187 31.502-43.345 1.264z" style="fill:url(#l)" transform="matrix(.17417 0 0 .17183 -34.867 -38.768)"/><g fill-rule="evenodd"><path fill="url(#m)" stroke="#ccc" stroke-width=".998" d="M328.19 226.12c-70.417 0-127.5 10.745-127.5 24.001 0 .227-.002.462.031.688h-.031v32h.031c1.91 12.942 58.26 23.314 127.47 23.314s125.53-10.372 127.44-23.313h.062v-32.001h-.062c.033-.226.062-.461.062-.688 0-13.255-57.084-24.001-127.5-24.001z" style="fill:url(#m)" transform="matrix(.17417 0 0 .17183 -34.867 -38.768)"/><path fill="url(#h)" d="M516.18 253.22c0 11.987-65.02 21.705-145.23 21.705-80.206 0-145.23-9.718-145.23-21.705s65.02-21.705 145.23-21.705c80.206 0 145.23 9.718 145.23 21.705" style="fill:url(#h)" transform="matrix(.14751 0 0 .16625 -32.428 -37.712)"/><path fill="url(#n)" d="M205.67 250.5c-1.333 1.23-2.031 2.487-2.031 3.781 0 11.598 55.964 21 125 21s125-9.402 125-21c0-1.288-.709-2.557-2.031-3.781.013.13.03.276.03.406 0 11.598-55.068 21-123 21-67.93 0-123-9.402-123-21 0-.13.018-.276.032-.406" style="fill:url(#n)" transform="matrix(.17417 0 0 .17183 -34.867 -38.768)"/></g><path fill="url(#o)" fill-rule="evenodd" d="M205.67 556.5c-1.333 1.23-2.031 2.487-2.031 3.781 0 11.598 55.964 21 125 21s125-9.402 125-21c0-1.288-.709-2.557-2.031-3.781.013.13.03.276.03.406 0 11.598-55.068 21-123 21-67.93 0-123-9.402-123-21 0-.13.018-.276.032-.406" style="fill:url(#o)" transform="matrix(.17417 0 0 .17183 -34.867 -38.768)"/><path fill="url(#p)" d="m208 295.36-2.485 266.38c4.114 8.116 15.963 9.696 38.485 14.218l2-272.59z" style="fill:url(#p)" transform="matrix(.17417 0 0 .17183 -34.867 -38.768)"/><path fill="url(#v)" d="M314.84 275.19c20.649.736 34.124.782 55.325-1.104l-14.762 30.767c-9.934.644-17.66 1.012-26.49.69z" style="fill:url(#v)" transform="matrix(.17417 0 0 .17183 -34.867 -38.768)"/><path fill="gray" d="m13.862 8.25 1.18.07-.075 5.197-1.057-.084zm.099 52.932.74.044-.266 5.182-.36-.02z"/><path fill="url(#w)" d="M122.09 64.626a56.735 55.92 0 1 1-113.47 0 56.735 55.92 0 1 1 113.47 0" style="fill:url(#w)" transform="matrix(.28848 0 0 .2927 27.093 30.706)"/><path fill="none" stroke="#638000" stroke-width="3.924" d="M122.09 64.626a56.735 55.92 0 1 1-113.47 0 56.735 55.92 0 1 1 113.47 0z" transform="matrix(.28848 0 0 .2927 27.093 30.706)"/><path fill="none" stroke="url(#x)" stroke-width="2.079" d="M65.344 11.219c-29.98 0-54.219 23.916-54.219 53.406s24.239 53.406 54.219 53.406 54.25-23.917 54.25-53.406-24.27-53.406-54.25-53.406z" style="stroke:url(#x)" transform="matrix(.28848 0 0 .2927 27.093 30.706)"/><path fill="#555" fill-rule="evenodd" d="M40.126 39.03a.31.31 0 0 0-.28.307v8.308l-4.838.006a.31.31 0 0 0-.24.507l11.04 13.26c.06.072.146.11.239.109a.31.31 0 0 0 .24-.114l10.844-13.26a.31.31 0 0 0 .034-.325.31.31 0 0 0-.273-.177l-4.839-.006.006-8.308a.3.3 0 0 0-.091-.217.32.32 0 0 0-.222-.09z"/></svg>