<svg xmlns="http://www.w3.org/2000/svg" viewBox="0 0 105 105"><g transform="translate(52.5 52.5)"><g mask="url(#a)"><circle r="43" fill="none" stroke="#000" stroke-width="9"/><path id="b" stroke="#000" stroke-linejoin="round" stroke-width="3" d="m46 3 5-3-5-3z"/><use href="#b" transform="rotate(11.25)"/><use href="#b" transform="rotate(22.5)"/><use href="#b" transform="rotate(33.75)"/><use href="#b" transform="rotate(45)"/><use href="#b" transform="rotate(56.25)"/><use href="#b" transform="rotate(67.5)"/><use href="#b" transform="rotate(78.75)"/><use href="#b" transform="rotate(90)"/><use href="#b" transform="rotate(101.25)"/><use href="#b" transform="rotate(112.5)"/><use href="#b" transform="rotate(123.75)"/><use href="#b" transform="rotate(135)"/><use href="#b" transform="rotate(146.25)"/><use href="#b" transform="rotate(157.5)"/><use href="#b" transform="rotate(168.75)"/><use href="#b" transform="scale(-1)"/><use href="#b" transform="rotate(191.25)"/><use href="#b" transform="rotate(202.5)"/><use href="#b" transform="rotate(213.75)"/><use href="#b" transform="rotate(225)"/><use href="#b" transform="rotate(236.25)"/><use href="#b" transform="rotate(247.5)"/><use href="#b" transform="rotate(258.75)"/><use href="#b" transform="rotate(-90)"/><use href="#b" transform="rotate(-78.75)"/><use href="#b" transform="rotate(-67.5)"/><use href="#b" transform="rotate(-56.25)"/><use href="#b" transform="rotate(-45)"/><use href="#b" transform="rotate(-33.75)"/><use href="#b" transform="rotate(-22.5)"/><use href="#b" transform="rotate(-11.25)"/><path id="c" stroke="#000" stroke-linejoin="round" stroke-width="6" d="m-7-42 7 7 7-7z"/><use href="#c" transform="rotate(72)"/><use href="#c" transform="rotate(144)"/><use href="#c" transform="rotate(216)"/><use href="#c" transform="rotate(-72)"/></g><mask id="a"><path fill="#fff" d="M-60-60H60V60H-60z"/><circle id="d" cy="-40" r="3"/><use href="#d" transform="rotate(72)"/><use href="#d" transform="rotate(144)"/><use href="#d" transform="rotate(216)"/><use href="#d" transform="rotate(-72)"/></mask></g><path fill="#c04828" d="M71.814 60.256V23.529H60.645v36.727c0 6.002-1.107 11.468-8.113 11.491s-8.177-5.612-8.177-11.491V23.529h-11.17v36.727c0 8.694 2.958 21.216 19.314 21.216s19.314-12.541 19.314-21.216z"/></svg>