<svg xmlns="http://www.w3.org/2000/svg" fill="#fff" viewBox="0 0 2003.2 1791.5"><clipPath id="a"><path d="m1890 370-160 280-46 80h-108l-138 261a441.1 441.1 0 0 1-268 509l-15 6-145 264-146-265c-5-2-10-4-15-5a441.6 441.6 0 0 1-269-510L444 730H336l-46-80-160-280h460l75 149 4 2c0-1 1-2 1-2 16-173 162-309 339-309s323 136 339 309c0 1-2 2-2 2l-1-2 85-149z"/></clipPath><radialGradient id="b" cx="152.5" cy="387.5" r="1854.4" gradientTransform="translate(2.428 -135)" gradientUnits="userSpaceOnUse"><stop offset="0" stop-color="#fff" stop-opacity=".1"/><stop offset="1" stop-color="#fff" stop-opacity="0"/></radialGradient><path fill="#4285f4" stroke="#fff" stroke-miterlimit="10" stroke-width="150" d="M1892.5 235h-460l-82 144a339.6 339.6 0 0 0-338-304c-178 0-324 136-340 309 0 1-2 2-2 2l-4-2-70-139h1l-5-10h-460l6 10 154 270 41 70h-1l6 10h109l137 260c-2 8-3 16-5 24q-6 37.5-6 75c0 186 116 346 280 410 5 2 10 4 15 5l144 266 146-265c5-2 10-3 15-5 164-64 280-223 280-410 0-34-4-68-11-100l138-260h108l6-10 194-340z"/><g clip-path="url(#a)" transform="translate(2.428 -135)"><path fill="#9e9e9e" d="m1605 640-43 90h122l6-10 45-80zm-1192 0H285l52 90h120z"/><path fill="#424242" d="m1890 370-160 280h-112l-179 341-429 779-429-780-179-340H290L130 370h460l75 149 244 445 100 183 96-183 240-445 85-149"/><path d="M1180 1090a170 170 0 1 1-340 0 170 170 0 1 1 340 0m-20-520a150 150 0 1 1-300 0 150 150 0 1 1 300 0"/><g fill="#263238" fill-opacity=".2"><path d="m1690 720-6 10h-109l-137 261-428 779-429-780-137-260H336l-6-10h114l5 10 132 250 429 780 429-779 137-261"/><path fill="#4285f4" fill-opacity="1" d="M1439 991c-22-97-77-182-152-243 40-56 63-124 63-198 0-10-1-21-1-31-16-173-162-309-339-309S687 346 672 519c-1 10-2 21-2 31 0 74 23 142 63 198-75 61-130 145-152 242-8 32-11 65-11 100 0 186 116 346 280 410 50 19 104 30 160 30s111-11 160-30c164-64 280-223 280-410 0-34-4-68-11-99m-429-561c77 0 140 63 140 140s-63 140-140 140-140-63-140-140 63-140 140-140m0 820c-88 0-160-72-160-160 0-51 24-97 62-126 27-21 61-34 98-34s71 13 98 34c38 29 62 75 62 126 0 88-72 160-160 160"/><path fill="#fff" d="M1350 550v5c-3-185-154-335-340-335S673 370 670 555v-5c0-188 152-340 340-340s340 152 340 340M729 752c-97 80-159 202-159 338v5c2-136 65-258 163-337l5-4-5-6zm562 0-4-4-5 6 5 4c99 80 162 201 163 337v-5c0-136-62-258-159-338M596 380H136l-6-10h460zm834-10-6 10h460l6-10z"/><path d="M1450 1085v5a440 440 0 0 1-880 0v-5c3 241 199 435 440 435s437-194 440-435M670 545v5c0 77 25 147 68 204 2-1 3-2 5-4-45-56-72-128-73-205m680 0c-1 78-28 149-73 205 2 1 3 2 5 4 43-56 68-127 68-204z"/></g></g><path fill="url(#b)" d="m1892.5 235-160 280-46 80h-108l-137 261a441.1 441.1 0 0 1-268 509l-15 6-146 264-146-265c-5-2-10-4-15-5a441.6 441.6 0 0 1-269-510l-136-260h-108l-46-80-160-280h460l75 149 4 2c0-1 1-2 1-2 16-173 162-309 339-309s323 136 339 309c0 1-2 2-2 2l-1-2 85-149z"/></svg>