<svg xmlns="http://www.w3.org/2000/svg" viewBox="0 0 56 56"><defs><radialGradient id="a" cx="6.73" cy="9.957" r="12.672" fx="6.2" gradientTransform="matrix(0 13.394 -16.444 0 192.9 -118.89)" gradientUnits="userSpaceOnUse"><stop offset="0" stop-color="#e4c6fa"/><stop offset=".262" stop-color="#a56de2"/><stop offset=".705" stop-color="#7239b3"/><stop offset="1" stop-color="#452981"/></radialGradient><linearGradient id="b" x1="24" x2="24" y1="5" y2="43" gradientTransform="matrix(1.4324 0 0 1.4363 -6.378 -6.47)" gradientUnits="userSpaceOnUse"><stop offset="0" stop-color="#fff"/><stop offset=".063" stop-color="#fff" stop-opacity=".235"/><stop offset=".951" stop-color="#fff" stop-opacity=".157"/><stop offset="1" stop-color="#fff" stop-opacity=".392"/></linearGradient></defs><rect width="55" height="55" x=".5" y=".5" fill="url(#a)" color="#000" rx="3" ry="3"/><rect width="53" height="53.142" x="1.5" y="1.429" fill="none" stroke="url(#b)" stroke-linecap="round" stroke-linejoin="round" opacity=".3" rx="2" ry="2"/><rect width="55" height="55" x=".5" y=".5" fill="none" stroke="#452981" stroke-linecap="round" stroke-linejoin="round" color="#000" opacity=".5" rx="3" ry="3"/><path fill="#201c2c" d="M27.462 11.984q-2.026.001-4.06.493-2.003.465-3.866 1.326a21 21 0 0 0-3.467 2.002l-.005.004a17.3 17.3 0 0 0-2.844 2.562l-.006.008a12.5 12.5 0 0 0-1.95 3.012l-.005.011a8.35 8.35 0 0 0-.729 3.373c0 .912.11 1.722.373 2.434l.008.021c.272.69.68 1.293 1.217 1.75l.014.012c.54.444 1.188.754 1.908.947l.023.006c.702.171 1.473.252 2.32.252a1.016 1.016 0 0 0 1.016-1.015c0-.376-.132-.636-.266-.85l.047.084a4 4 0 0 1-.148-.371l-.002-.002a7 7 0 0 1-.178-.703 8.5 8.5 0 0 1-.072-1.236c0-2.366.542-4.247 1.588-5.75.797-1.131 1.9-1.962 3.17-2.653l.691 29.322a1.016 1.016 0 0 0 1.016.992h6.53a1.02 1.02 0 0 0 .952-.66l12.594-33.779a1.016 1.016 0 0 0-.951-1.37h-3.164a1.02 1.02 0 0 0-.961.685l-7.649 22.25-.314-22.066a1.016 1.016 0 0 0-.914-.996 19 19 0 0 0-.934-.07h-.002a19 19 0 0 0-.98-.024z" color="#000" opacity=".15" style="isolation:auto;mix-blend-mode:normal"/><path fill="#201c2c" d="m23.255 46.999-.73-30.967q-3.188 1.195-4.98 3.74-1.772 2.546-1.772 6.331 0 .863.089 1.417.11.531.221.863.111.31.2.487.11.177.11.31-1.173 0-2.08-.221-.908-.244-1.528-.753-.598-.508-.93-1.35-.31-.84-.31-2.08 0-1.505.641-2.966.664-1.46 1.793-2.767 1.151-1.305 2.679-2.412 1.55-1.107 3.298-1.904 1.77-.819 3.674-1.261Q25.556 13 27.46 13q.509 0 .93.022.442.022.884.066l.399 27.89 9.54-27.758h3.165L29.784 47h-6.53z" color="#000" opacity=".3" style="isolation:auto;mix-blend-mode:normal"/><path fill="#fff" d="m23.255 45.999-.73-30.967q-3.188 1.195-4.98 3.74-1.772 2.546-1.772 6.331 0 .863.089 1.417.11.531.221.863.111.31.2.487.11.177.11.31-1.173 0-2.08-.221-.908-.244-1.528-.753-.598-.508-.93-1.35-.31-.84-.31-2.08 0-1.505.641-2.966.664-1.46 1.793-2.767 1.151-1.305 2.679-2.412 1.55-1.107 3.298-1.904 1.77-.819 3.674-1.261Q25.556 12 27.46 12q.509 0 .93.022.442.022.884.066l.399 27.89 9.54-27.758h3.165L29.784 46h-6.53z"/></svg>