<svg xmlns="http://www.w3.org/2000/svg" viewBox="0 0 43.404 49.816"><path fill="#141416" d="M.001 18.234 21.192 0l22.212 18.234v.13L21.702 35.817 0 18.364Z"/><path fill="#40c4ff" d="M21.818 35.814h.128s.042 3.273 0 4.841c-.041 1.568-.128 0-.128 0L.001 23.121V18.28z"/><path fill="#3dc4ff" d="M21.818 40.525h.128v4.71l-.128.131L.001 27.832v-4.841z"/><path fill="#fff" fill-opacity=".25" d="M21.818 40.525h.128v4.71l-.128.131L.001 27.832v-4.841z"/><path fill="#3dc4ff" d="m21.818 45.236.128-.13v4.579l-.128.13L.001 32.283v-4.58z"/><path fill="#fff" fill-opacity=".5" d="m21.818 45.236.128-.13v4.579l-.128.13L.001 32.283v-4.58z"/><path fill="#e040fb" d="M21.657 35.814v4.841l21.747-17.534V18.28z"/><path fill="#e040fb" d="M21.657 40.525v4.842l21.747-17.534V22.99z"/><path fill="#fff" fill-opacity=".25" d="M21.657 40.525v4.842l21.747-17.534V22.99z"/><path fill="#e040fb" d="M21.657 45.236v4.58l21.747-17.403v-4.711z"/><path fill="#fff" fill-opacity=".5" d="M21.657 45.236v4.58l21.747-17.403v-4.711z"/><path fill="#fff" d="M14.56 11.622s10.253.326 12.979 2.66 3.112 6.443.863 9.178-6.282 3.06-9.008.727-4.834-12.565-4.834-12.565"/></svg>