<svg xmlns="http://www.w3.org/2000/svg" viewBox="0 0 1125.6 315.2"><path d="M120.9 214.2 190.5 0h52.3l-98.5 273.8H98.2L0 0h52.1zm291.2-62.6H299.6v84.2H431v38H252V0h177.7v38.4H299.6V114h112.5zm83.7-113.2H546c16.5.3 29 4.4 37.3 12.4s12.5 19.4 12.5 34c0 14-4.5 25.1-13.5 33.2s-21.6 12.1-37.6 12.1h-27.1v24.2l86.1 119.5h51v-2.4l-77.2-106.7c24.9-5.5 43.3-21.7 52.6-35.9 8.2-12.6 13.3-27.7 13.3-46 0-26.8-8.6-47.4-25.8-61.5C600.5 7.1 576.1 0 544.5 0h-96.3v273.8h47.6"/><path d="m1052.3 157.7-41.5 62.7 29.7 53.4h85.1z" class="st0"/><circle cx="827.9" cy="274.7" r="40.5" class="st0"/><path d="m1037 0-47.6 74.2L949 0h-84l85.3 135.8-67.1 105.7c5.7 9.5 9.1 20.5 9.2 32.4h50.1L1121.3 0z" class="st0"/><path d="M763.5 273.8c.1-9.9 2.5-19.2 6.6-27.5V38.4h85.4V0H638.2v38.4h84.6v235.4z"/></svg>