<svg xmlns="http://www.w3.org/2000/svg" fill="none" version="1.1" viewBox="0 0 100 99.484"><mask height="100" id="a" mask-type="alpha" maskUnits="userSpaceOnUse" width="100" x="0" y="0"><path clip-rule="evenodd" d="m70.912 99.317a6.223 6.223 0 0 0 4.96-0.19l20.589-9.907a6.25 6.25 0 0 0 3.539-5.633v-67.174a6.25 6.25 0 0 0-3.54-5.632l-20.586-9.907a6.226 6.226 0 0 0-7.104 1.21l-39.415 35.956-17.168-13.03a4.162 4.162 0 0 0-5.318 0.237l-5.506 5.009a4.168 4.168 0 0 0-5e-3 6.162l14.89 13.582-14.891 13.583a4.168 4.168 0 0 0 5e-3 6.162l5.506 5.009a4.162 4.162 0 0 0 5.318 0.236l17.168-13.032 39.416 35.958a6.217 6.217 0 0 0 2.143 1.4zm4.103-72.018-29.905 22.701 29.906 22.701z" fill="#fff" fill-rule="evenodd"/></mask><g mask="url(#a)" transform="translate(.0014283 -.25835)"><path d="m96.461 10.796-20.604-9.92a6.23 6.23 0 0 0-7.107 1.207l-67.45 61.5a4.167 4.167 0 0 0 4e-3 6.162l5.51 5.009a4.167 4.167 0 0 0 5.32 0.236l81.227-61.62c2.725-2.068 6.64-0.124 6.64 3.296v-0.239a6.25 6.25 0 0 0-3.54-5.631z" fill="#0065a9"/><g filter="url(#b)"><path d="m96.461 89.204-20.604 9.92a6.229 6.229 0 0 1-7.107-1.207l-67.45-61.5a4.167 4.167 0 0 1 4e-3 -6.162l5.51-5.009a4.167 4.167 0 0 1 5.32-0.237l81.227 61.621c2.725 2.068 6.64 0.124 6.64-3.296v0.239a6.25 6.25 0 0 1-3.54 5.631z" fill="#007acc"/></g><g filter="url(#c)"><path d="m75.858 99.126a6.232 6.232 0 0 1-7.108-1.21c2.307 2.307 6.25 0.673 6.25-2.588v-90.658c0-3.261-3.943-4.895-6.25-2.588a6.232 6.232 0 0 1 7.108-1.21l20.601 9.907a6.25 6.25 0 0 1 3.541 5.634v67.174a6.25 6.25 0 0 1-3.541 5.632z" fill="#1f9cf0"/></g><path clip-rule="evenodd" d="m70.851 99.317a6.224 6.224 0 0 0 4.96-0.19l20.589-9.907a6.25 6.25 0 0 0 3.539-5.633v-67.174a6.25 6.25 0 0 0-3.54-5.633l-20.586-9.907a6.226 6.226 0 0 0-7.104 1.21l-39.415 35.958-17.168-13.032a4.162 4.162 0 0 0-5.318 0.236l-5.506 5.01a4.168 4.168 0 0 0-4e-3 6.161l14.889 13.584-14.89 13.582a4.168 4.168 0 0 0 5e-3 6.162l5.506 5.01a4.162 4.162 0 0 0 5.318 0.236l17.168-13.032 39.414 35.958a6.218 6.218 0 0 0 2.143 1.4zm4.103-72.018-29.906 22.701 29.906 22.701z" fill="url(#d)" fill-rule="evenodd" opacity=".25" style="mix-blend-mode:overlay"/></g><defs><filter color-interpolation-filters="sRGB" filterUnits="userSpaceOnUse" height="92.246" id="b" width="116.73" x="-8.394" y="15.829"><feFlood flood-opacity="0" result="BackgroundImageFix"/><feColorMatrix in="SourceAlpha" values="0 0 0 0 0 0 0 0 0 0 0 0 0 0 0 0 0 0 127 0"/><feOffset/><feGaussianBlur stdDeviation="4.167"/><feColorMatrix values="0 0 0 0 0 0 0 0 0 0 0 0 0 0 0 0 0 0 0.25 0"/><feBlend in2="BackgroundImageFix" mode="overlay" result="effect1_dropShadow"/><feBlend in="SourceGraphic" in2="effect1_dropShadow" result="shape"/></filter><filter color-interpolation-filters="sRGB" filterUnits="userSpaceOnUse" height="116.15" id="c" width="47.917" x="60.417" y="-8.076"><feFlood flood-opacity="0" result="BackgroundImageFix"/><feColorMatrix in="SourceAlpha" values="0 0 0 0 0 0 0 0 0 0 0 0 0 0 0 0 0 0 127 0"/><feOffset/><feGaussianBlur stdDeviation="4.167"/><feColorMatrix values="0 0 0 0 0 0 0 0 0 0 0 0 0 0 0 0 0 0 0.25 0"/><feBlend in2="BackgroundImageFix" mode="overlay" result="effect1_dropShadow"/><feBlend in="SourceGraphic" in2="effect1_dropShadow" result="shape"/></filter><linearGradient gradientUnits="userSpaceOnUse" id="d" x1="49.939" x2="49.939" y1=".258" y2="99.742"><stop offset="0" stop-color="#fff"/><stop offset="1" stop-color="#fff" stop-opacity="0"/></linearGradient></defs></svg>