<svg xmlns="http://www.w3.org/2000/svg" viewBox="0 0 60.426 32.351"><path fill="#005a9c" d="m0 .18 9.531 32.17h.397l5.957-19.936 5.959 19.936h.396l7.143-24.105c1.364-4.603.687-4.093 4.758-4.093h3.357l-6.637 11.52h2.664c1.722 0 3.535.62 4.489 1.865q.198.26.365.556.038.07.074.14c.105.198.203.403.287.624q.503 1.316.504 3.168 0 2.621-1.152 4.488-.313.505-.664.872-.225.234-.465.414l-.041.029q-.243.18-.502.3a2.7 2.7 0 0 1-.62.194 2.8 2.8 0 0 1-.527.057l-.023-.002-.023-.002-.012-.002-.027-.002a4.4 4.4 0 0 1-.696-.063h-.004c-.061-.01-.117-.035-.177-.049l-.038-.01c-.015-.003-.03-.01-.044-.013-.153-.036-.307-.07-.452-.125a4 4 0 0 1-.658-.326 4.2 4.2 0 0 1-.607-.457c-.414-.45-.726-.962-1.057-1.461H27.4c.275.817.617 1.556 1.01 2.234l-.011.022c.042.077.099.149.146.225.28.454.582.886.918 1.275q.449.519.965.96.257.22.525.413l.002.002q.267.192.545.355c.115.069.234.127.352.188l.047.025q.085.049.171.092l.006.002q.288.136.586.246l.008.004h.002q.297.108.604.19.005 0 .011.003h.002q.306.081.623.135l.016.002q.283.046.574.072l.014.002q.01.004.021.004l.034.004h.002l.015.002h.002c.117.01.238.01.358.014q.036.001.074.004l.047.002q.09.006.181.008h.024c.178 0 .348-.017.521-.028v-.01c.187-.013.379-.015.56-.039l.077-.011q.513-.073.996-.211c1.503-.425 2.793-1.31 3.861-2.68q2.325-2.979 2.325-7.348 0-3.534-1.59-6.154a8 8 0 0 0-3.283-3.04c-.043-.023-.09-.04-.133-.061a9 9 0 0 0-.547-.25 10 10 0 0 0-.723-.264c2.325-4.026 4.69-8.028 6.979-12.074H31.774c-3.625 0-4.353.618-5.612 4.896l-4.318 14.683-5.76-19.58h-4.168l.953 3.2c.794 2.664.724 3.972-.021 6.494l-2.92 9.886L4.17.181z"/><path d="m59.775 0 .338 2.054c.316 1.916-.005 2.71-.857 4.34L58.06 8.683s-.918-1.941-2.443-3.015c-1.285-.905-2.122-1.102-3.431-.832-1.681.347-3.587 2.357-4.419 4.835-.995 2.965-1.005 4.4-1.04 5.718-.056 2.113.277 3.362.277 3.362s-1.451-2.686-1.438-6.62c.009-2.808.451-5.354 1.75-7.867 1.143-2.209 2.842-3.535 4.35-3.691 1.559-.161 2.791.59 3.743 1.404.999.854 2.01 2.72 2.01 2.72zM60.07 23.238s-1.057 1.889-1.715 2.617-1.837 2.01-3.292 2.651c-1.456.641-2.218.762-3.656.624-1.437-.138-2.773-.97-3.241-1.317s-1.664-1.369-2.339-2.322c-.676-.954-1.733-2.859-1.733-2.859s.589 1.911.958 2.721c.212.466.864 1.894 1.79 3.136.862 1.159 2.539 3.154 5.086 3.604s4.297-.693 4.73-.971c.433-.277 1.432-.93 2.01-1.549.603-.644.923-1.107 1.325-1.92.292-.591.545-1.978.381-2.83z"/></svg>