<svg xmlns="http://www.w3.org/2000/svg" viewBox="0 0 300 300"><path fill="#00b5ab" fill-rule="evenodd" d="M0 20C0 8.954 8.954 0 20 0h60c11.046 0 20 8.954 20 20v80h100V20c0-11.046 8.954-20 20-20h60c11.046 0 20 8.954 20 20v260c0 11.046-8.954 20-20 20H20c-11.046 0-20-8.954-20-20V44z" clip-rule="evenodd"/><path fill="#fff" d="M50 55a5 5 0 1 0 0-10 5 5 0 0 0 0 10M250 55a5 5 0 1 0 0-10 5 5 0 0 0 0 10"/><path fill="none" stroke="#fff" stroke-linecap="round" stroke-width="8" d="m150 180 34 34 34-34m-68 0-34 34-34-34"/></svg>