<svg xmlns="http://www.w3.org/2000/svg" viewBox="0 0 389.2 273.21"><g fill-rule="evenodd"><path fill="#5c943c" d="M15.988.502c-.005.275-.361.95-.791 1.5s-.786 1.281-.791 1.625-.369 1.37-.809 2.281c-.44.91-.8 1.934-.8 2.275s-.18.619-.4.619-.4.54-.4 1.2-.16 1.2-.355 1.2c-.196 0-.467.585-.603 1.3s-.476 1.75-.757 2.3c-.519 1.015-.784 1.843-2.311 7.2-.47 1.65-1.003 3.36-1.184 3.8s-.441 1.34-.578 2c-.347 1.681-.83 3.618-1.573 6.32-.352 1.275-.639 2.75-.639 3.276s-.151 1.05-.335 1.164c-.183.113-.366 1.04-.404 2.058s-.223 2.151-.41 2.517c-.188.366-.472 1.835-.633 3.265s-.375 3.32-.476 4.2-.358 2.263-.572 3.074-.347 1.621-.297 1.8-.06 1.766-.243 3.526-.401 3.92-.484 4.8c-.2 2.133-.187 25.511.017 27.8.368 4.143 1.056 10.671 1.221 11.6.098.55.377 2.53.619 4.4s.608 4.12.813 5 .437 2.14.515 2.8.247 1.47.376 1.8c.128.33.318 1.14.421 1.8.218 1.394 1.316 5.845 1.882 7.628.215.676.39 1.61.39 2.077s.18.959.4 1.095.4.689.4 1.229.162 1.294.359 1.676.77 2.045 1.272 3.695 1.061 3.171 1.241 3.38.328.783.328 1.276.18 1.008.4 1.144.4.777.4 1.424.18 1.176.4 1.176.4.36.4.8.18.8.4.8.4.355.4.788.323 1.378.719 2.1.972 2.122 1.283 3.112.689 1.89.841 2c.22.16 3.295 6.443 4.501 9.2.145.33.59 1.14.99 1.8 1.695 2.8 3.266 5.89 3.266 6.425 0 .316.18.575.4.575s.4.242.4.538.36.864.8 1.262.8 1.056.8 1.462.158.738.351.738c.194 0 .576.54.849 1.2s.655 1.2.849 1.2.351.188.351.418.9 1.752 2 3.382 2 3.152 2 3.382.15.418.332.418.588.495.9 1.1c.617 1.196.705 1.321 2.175 3.1.546.66.992 1.359.993 1.553 0 .194.315.644.7 1 1.002.927 3.3 3.94 3.3 4.327 0 .18.36.552.8.827s.8.767.8 1.093.36.818.8 1.093.8.634.8.798.9 1.203 2 2.309 2 2.12 2 2.253c0 .297 11.333 11.446 14.992 14.747a1062 1062 0 0 1 3.205 2.9c.3.275.623.5.718.5s1.142.913 2.328 2.029c1.187 1.116 2.877 2.54 3.757 3.165.88.624 1.889 1.466 2.243 1.87.773.885 2.283 2.136 2.578 2.136.117 0 .599.36 1.071.8s1.095.8 1.383.8.525.168.525.373.366.489.813.631 1.249.694 1.782 1.227 1.247.969 1.587.969.618.18.618.4.242.4.538.4.864.36 1.262.8.951.8 1.229.8c.277 0 .564.137.638.304.073.167 1.168.925 2.433 1.684 1.265.76 2.3 1.523 2.3 1.697 0 .173.36.315.8.315s.8.18.8.4.36.4.8.4.8.149.8.332c0 .182.9.753 2 1.268s2 1.048 2 1.185c0 .472 9.145 4.815 10.139 4.815.363 0 .661.18.661.4s.234.4.52.4c.736 0 2.673.941 2.677 1.3.002.165.453.3 1.003.3s1 .18 1 .4.349.4.776.4.888.18 1.024.4.597.4 1.024.4.776.18.776.4.45.4 1 .4 1 .18 1 .4.349.4.776.4.888.18 1.024.4.676.4 1.2.4 1.064.18 1.2.4.687.4 1.224.4.976.18.976.4.345.4.768.4c.422 0 1.277.265 1.9.589 3.101 1.615 10.698 4.312 11.077 3.933.102-.103.607.042 1.121.321s1.204.546 1.534.592c.33.047 1.644.373 2.92.725 1.275.352 2.994.64 3.82.64s1.674.174 1.887.387c.212.212.982.431 1.71.487s1.411.241 1.517.413 1.072.313 2.146.313 2.064.18 2.2.4 1.137.4 2.224.4 1.976.18 1.976.4c0 .222 1.059.4 2.376.4 1.307 0 2.488.18 2.624.4s1.666.4 3.4.4 3.264.18 3.4.4c.142.23 2.263.4 5 .4s4.858.17 5 .4c.337.545 24.463.545 24.8 0 .143-.231 2.311-.4 5.144-.4 2.693 0 5.067-.162 5.276-.359.209-.198 1.64-.467 3.18-.599 4.815-.41 6.787-.707 7.18-1.081.209-.198 1.604-.361 3.1-.361s2.72-.163 2.72-.361c0-.199.855-.459 1.9-.578 3.819-.433 4.904-.635 5.694-1.058.443-.237.806-.354.806-.26 0 .095.765-.004 1.7-.219l2.3-.527c.33-.075 1.41-.439 2.4-.81.99-.37 2.16-.727 2.6-.792s1.31-.318 1.934-.56 1.286-.346 1.472-.231.452.026.59-.197c.138-.224.603-.407 1.033-.407.789 0 1.089-.119 3.499-1.382.73-.383 1.43-.594 1.555-.469.124.125.725-.127 1.334-.561.608-.433 1.396-.788 1.75-.788s1.001-.18 1.438-.4l1.59-.8c.437-.22 1.146-.4 1.576-.4s.893-.18 1.029-.4.597-.4 1.024-.4.776-.18.776-.4.36-.4.8-.4.8-.18.8-.4.54-.4 1.2-.4 1.2-.18 1.2-.4.36-.4.8-.4.8-.18.8-.4.36-.4.8-.4.8-.18.8-.4.36-.4.8-.4.8-.18.8-.4.36-.4.8-.4.8-.18.8-.4.467-.4 1.038-.4 1.516-.336 2.1-.748c.584-.411 1.46-.871 1.947-1.022s2.177-.984 3.755-1.852c1.579-.868 3.116-1.578 3.415-1.578.3 0 .55-.135.556-.3s.996-.749 2.2-1.297 2.189-1.133 2.189-1.3.248-.303.551-.303.786-.283 1.073-.629 1.165-.959 1.949-1.362c.785-.402 1.967-1.199 2.627-1.77s1.425-1.038 1.7-1.039.5-.18.5-.4.278-.4.618-.4 1.055-.437 1.589-.971 1.516-1.293 2.182-1.686c.666-.394 1.211-.857 1.211-1.029 0-.173.225-.315.5-.316s1.075-.541 1.778-1.2 1.397-1.198 1.543-1.198c.304 0 2.45-1.724 6.94-5.575.529-.454 1.07-.825 1.202-.825s1.279-.99 2.548-2.2 2.406-2.2 2.525-2.2c.345 0 12.564-11.864 12.564-12.199 0-.067.585-.739 1.3-1.494s2.11-2.322 3.1-3.483 2.385-2.737 3.1-3.502 1.3-1.522 1.3-1.682.559-.819 1.241-1.465c.683-.646 1.877-2.165 2.654-3.375s1.532-2.29 1.679-2.4 1.069-1.37 2.047-2.8 1.881-2.69 2.005-2.8c.436-.384 2.774-3.947 2.774-4.225 0-.155.329-.572.73-.928.402-.356.986-1.232 1.298-1.947s.675-1.3.807-1.3c.131 0 .67-.855 1.197-1.9.526-1.045 1.075-1.99 1.22-2.1.298-.227 5.187-9.912 6.007-11.9.295-.715.672-1.3.839-1.3s.302-.36.302-.8.18-.8.4-.8.4-.439.4-.976.18-1.088.4-1.224.4-.597.4-1.024.18-.776.4-.776.4-.36.4-.8.18-.8.4-.8.4-.45.4-1 .18-1 .4-1 .4-.272.4-.605.18-.963.4-1.4.564-1.127.765-1.533c.787-1.593.683-4.243-.173-4.397-.436-.078-.963-.305-1.172-.504-.209-.198-.704-.361-1.1-.361s-.72-.18-.72-.4-.321-.4-.713-.4-3.137-.956-6.1-2.124-6.197-2.376-7.187-2.684c-.99-.307-1.919-.73-2.064-.94-.272-.394-1.536.612-1.536 1.222 0 .394-2.306 6.292-3.569 9.126-25.46 57.155-82.416 97.523-145.63 103.22-30.722 2.768-60.642-2.086-90.4-14.663-45.96-19.427-85.848-64.412-98.028-110.56-2.056-7.787-2.1-7.973-3.29-13.8-1.062-5.196-1.917-11.09-2.681-18.468-.523-5.051-.516-24.354.011-29.618 1.163-11.613 3.395-23.127 6.46-33.314 2.006-6.668 5.758-16.727 7.55-20.241l.734-1.441-3.686-1.459c-2.027-.803-3.997-1.459-4.378-1.459s-.692-.18-.692-.4-.45-.4-1-.4-1-.18-1-.4-.54-.4-1.2-.4-1.2-.18-1.2-.4-.362-.4-.805-.4-1.163-.18-1.6-.4l-1.59-.8c-.437-.22-1.157-.4-1.6-.4s-.805-.18-.805-.4c0-.598-2.798-.499-2.809.1"/><path fill="#f7e8b0" d="M37.649 9.102c-3.864 7.579-9.527 25.421-11.585 36.5-2.24 12.059-2.867 19.069-2.867 32.046 0 14.79.872 22.946 4.037 37.754.293 1.375.893 3.736 2.335 9.2 12.18 46.143 52.068 91.128 98.028 110.56 16.685 7.052 30.023 10.909 45.74 13.227 78.32 11.548 152.2-26.22 187.38-95.782 3.05-6.032 6.482-14.132 6.482-15.297 0-.277.18-.503.4-.503s.4-.18.4-.4-.349-.4-.776-.4-.888-.18-1.024-.4-.597-.4-1.024-.4-.776-.18-.776-.4-.439-.4-.976-.4-1.088-.18-1.224-.4-.599-.4-1.029-.4-1.094-.157-1.476-.35c-3.093-1.558-4.271-2.05-4.909-2.05-.406 0-.85-.18-.986-.4s-.687-.4-1.224-.4-.976-.136-.976-.303c0-.351-2.849-1.297-3.908-1.297-.54 0-1.106.977-2.255 3.891-13.216 33.506-40.329 62.644-73.837 79.352-7.67 3.825-19.254 8.516-24.6 9.963-.66.179-2.19.597-3.4.929-8.189 2.251-13.081 3.238-21 4.237-1.76.223-4.82.622-6.8.888-4.868.655-25.578.652-31-.004-9.572-1.158-16.004-2.294-22.928-4.05-88.514-22.451-137.75-112.45-107.67-196.81.588-1.65 1.323-3.585 1.634-4.3s.853-1.975 1.206-2.8c1.256-2.94 1.553-3.394 2.451-3.735.499-.19.908-.45.908-.579s-.171-.128-.379.001c-.209.129-1.323-.22-2.475-.776s-2.386-1.011-2.741-1.011-.82-.175-1.034-.389c-.213-.213-.744-.456-1.18-.539-1.588-.304-4.591-1.592-4.591-1.97 0-.166-.551-.302-1.224-.302-.713 0-1.12-.167-.976-.4.136-.22-.126-.4-.582-.4s-1.141-.159-1.523-.353a32 32 0 0 0-1.895-.847 32 32 0 0 1-1.895-.847c-1.143-.581-1.453-.423-2.253 1.147M94.4 30.038c0 .201.39.365.867.365.476 0 .741-.125.588-.278-.432-.433-1.455-.493-1.455-.087m4 1.565c0 .22.371.4.824.4s.712-.18.576-.4-.507-.4-.824-.4-.576.18-.576.4"/><path fill="#db2c44" d="M59.375 16.414c-.789.292-1.079.752-2.385 3.788l-1.205 2.8c-.285.66-.999 2.55-1.587 4.2-30.081 84.356 19.157 174.36 107.67 196.81 6.924 1.756 13.356 2.892 22.928 4.05 5.422.656 26.132.659 31 .004 1.98-.266 5.04-.665 6.8-.888 7.919-.999 12.811-1.986 21-4.237 1.21-.332 2.74-.75 3.4-.929 5.346-1.447 16.93-6.138 24.6-9.963 33.487-16.697 60.346-45.536 73.803-79.243.835-2.09 1.805-4.019 2.157-4.287.563-.429.532-.489-.26-.5-.495-.007-.9-.193-.9-.413s-.349-.4-.776-.4-.888-.18-1.024-.4-.687-.4-1.224-.4-.976-.18-.976-.4-.315-.406-.7-.412c-.385-.007-1.42-.456-2.3-.998s-2.005-.987-2.5-.988-.9-.162-.9-.359c0-.289-.901-.674-2.4-1.025-.11-.025-.585-.261-1.055-.522-.471-.262-1.416-.519-2.1-.571s-1.245-.193-1.245-.312c0-.12-.585-.453-1.3-.742-.715-.288-1.613-.692-1.995-.897s-.975-.374-1.319-.374-1.37-.36-2.28-.8c-.911-.44-1.892-.8-2.181-.8s-.525-.18-.525-.4-.54-.4-1.2-.4-1.2-.18-1.2-.4-.54-.4-1.2-.4-1.2-.136-1.2-.302c0-.391-2.112-1.326-3.176-1.406-.453-.034-.824-.204-.824-.377s-.36-.315-.8-.315-.8-.18-.8-.4-.45-.4-1-.4-1-.18-1-.4-.54-.4-1.2-.4-1.2-.18-1.2-.4-.36-.4-.8-.4-.8-.18-.8-.4-.54-.4-1.2-.4-1.2-.18-1.2-.4-.349-.4-.776-.4-.866-.144-.975-.321c-.109-.176-1.11-.569-2.224-.872s-2.025-.66-2.025-.792-.855-.486-1.9-.786-2.08-.684-2.3-.853-.535-.321-.701-.337c-1.793-.176-3.499-.61-3.499-.89 0-.192-.45-.349-1-.349s-1-.18-1-.4-.36-.4-.8-.4-.8-.18-.8-.4-.54-.4-1.2-.4-1.2-.18-1.2-.4-.349-.4-.776-.4-.888-.18-1.024-.4-.697-.4-1.247-.4c-.565 0-.893-.174-.753-.4.144-.233-.263-.4-.976-.4-.673 0-1.224-.18-1.224-.4s-.551-.4-1.224-.4c-.713 0-1.12-.167-.976-.4.14-.227-.196-.4-.776-.4-.563 0-1.024-.18-1.024-.4s-.54-.4-1.2-.4-1.2-.18-1.2-.4-.272-.4-.605-.4-.963-.18-1.4-.4l-1.59-.8c-.437-.22-1.061-.4-1.387-.4s-1.235-.36-2.018-.8-1.779-.8-2.212-.8-.788-.18-.788-.4-.475-.4-1.056-.4-1.256-.272-1.5-.605-.804-.676-1.244-.764-1.34-.444-2-.793c-.66-.348-1.59-.634-2.067-.636-.476-.001-.93-.192-1.007-.424s-.407-.465-.733-.519-.956-.298-1.4-.543-1.479-.571-2.3-.725-1.493-.44-1.493-.636c0-.195-.439-.355-.976-.355s-1.088-.18-1.224-.4-.697-.4-1.247-.4c-.565 0-.893-.174-.753-.4.136-.22-.126-.4-.582-.4s-1.141-.157-1.523-.35c-3.106-1.564-4.274-2.05-4.933-2.05-.419 0-.762-.18-.762-.4s-.315-.403-.7-.406c-.855-.007-3.031-.768-4.861-1.701-.749-.381-1.784-.693-2.3-.693-.517 0-.939-.18-.939-.4s-.45-.4-1-.4-1-.18-1-.4-.36-.4-.8-.4-.8-.18-.8-.4-.54-.4-1.2-.4-1.2-.147-1.2-.328c0-.18-.911-.576-2.025-.879s-2.115-.696-2.224-.872-.548-.321-.975-.321-.776-.18-.776-.4-.325-.4-.722-.4c-.398 0-2.285-.63-4.194-1.4-1.91-.77-3.824-1.4-4.255-1.4-.43 0-.893-.18-1.029-.4s-.597-.4-1.024-.4-.776-.18-.776-.4-.54-.4-1.2-.4-1.2-.18-1.2-.4-.272-.4-.605-.4-.963-.18-1.4-.4l-1.59-.8c-.437-.22-1.157-.4-1.6-.4s-.805-.18-.805-.4-.54-.4-1.2-.4-1.2-.18-1.2-.4-.551-.4-1.224-.4c-.713 0-1.12-.167-.976-.4.14-.227-.196-.4-.776-.4-.563 0-1.024-.18-1.024-.4s-.54-.4-1.2-.4-1.2-.18-1.2-.4-.36-.4-.8-.4-.8-.18-.8-.4-.45-.4-1-.4-1-.18-1-.4-.45-.4-1-.4-1-.18-1-.4-.435-.4-.967-.4c-.531 0-1.026-.178-1.1-.397-.073-.218-.628-.437-1.233-.487s-1.1-.231-1.1-.403-.36-.313-.8-.313-.8-.191-.8-.424-.165-.321-.368-.196-.631-.036-.952-.357c-.322-.322-.706-.464-.854-.316s-.42.026-.604-.271-.669-.568-1.078-.6-1.509-.463-2.444-.956-1.7-.767-1.7-.608c0 .158-.216.072-.48-.192s-.984-.48-1.6-.48-1.12-.18-1.12-.4-.461-.4-1.024-.4c-.58 0-.916-.173-.776-.4.136-.22-.036-.4-.383-.4-.988 0-3.817-.961-3.817-1.297 0-.167-.36-.303-.8-.303s-.8-.18-.8-.4-.54-.4-1.2-.4-1.2-.18-1.2-.4-.272-.4-.605-.4-.918-.159-1.3-.353a32 32 0 0 0-1.895-.847 32 32 0 0 1-1.895-.847c-.382-.194-.967-.353-1.3-.353s-.605-.18-.605-.4-.54-.4-1.2-.4-1.2-.18-1.2-.4-.54-.4-1.2-.4-1.2-.18-1.2-.4-.36-.4-.8-.4-.8-.18-.8-.4-.54-.4-1.2-.4-1.2-.18-1.2-.4-.36-.4-.8-.4-.8-.142-.8-.315-.582-.359-1.293-.413c-.712-.055-1.468-.273-1.68-.485-.213-.213-.711-.387-1.107-.387s-.72-.18-.72-.4-.435-.4-.967-.4c-.531 0-1.026-.178-1.1-.397-.073-.218-.628-.437-1.233-.487s-1.1-.231-1.1-.403-.324-.313-.72-.313-.891-.165-1.1-.367-.74-.426-1.18-.5c-.44-.073-.891-.253-1.003-.399s-1.011-.386-2-.531c-.988-.146-1.857-.431-1.93-.634-.074-.203-.389-.369-.7-.369-.312 0-.567-.18-.567-.4s-.731-.4-1.624-.4c-.98 0-1.525-.158-1.376-.4.145-.234-.27-.4-1-.4s-1.145-.166-1-.4-.27-.4-1-.4-1.145-.166-1-.4c.136-.22-.113-.4-.553-.4s-.911-.18-1.047-.4-.787-.4-1.447-.4c-.698 0-1.097-.167-.953-.4.147-.238-.329-.4-1.176-.4-.783 0-1.424-.18-1.424-.4s-.495-.403-1.1-.406c-.857-.005-.968-.092-.5-.394.45-.291.247-.389-.812-.394-.948-.004-1.601-.269-1.988-.806-.576-.8-1.467-1.156-1-.4.136.22-.044.4-.4.4s-.536-.18-.4-.4c.145-.234-.27-.4-1-.4s-1.145-.166-1-.4c.144-.233-.263-.4-.976-.4-.673 0-1.224-.18-1.224-.4s-.45-.4-1-.4-1-.18-1-.4-.45-.4-1-.4-1-.18-1-.4-.45-.4-1-.4c-.631 0-1-.226-1-.613 0-.582-.485-.917-1.669-1.156-.292-.058-1.521-.583-2.731-1.165s-2.47-1.061-2.8-1.065c-.33-.003-1.101-.267-1.713-.587s-1.007-.408-.877-.197c.131.211.047.383-.186.383s-.424-.18-.424-.4-.495-.403-1.1-.406c-.857-.005-.968-.092-.5-.394.485-.314.428-.389-.3-.394-.495-.003-.9-.186-.9-.406s-.191-.4-.424-.4-.312.18-.176.4.057.4-.176.4-.424-.18-.424-.4-.371-.4-.824-.4-.712-.18-.576-.4c.149-.242-.396-.4-1.376-.4-.893 0-1.624-.18-1.624-.4s-.461-.4-1.024-.4-.925-.16-.804-.355c.306-.494-1.038-.786-1.994-.433m41.696 57.168c3.242 1.976 2.457 9.26-1.466 13.62a20 20 0 0 0-1.519 1.93c-1.577 2.367-6.509 4.646-8.366 3.865-5.996-2.521-.155-16.77 8.077-19.704 1.679-.599 1.842-.584 3.274.289m67.756 11.853c4.203 4.479-4.456 18.967-11.337 18.967-4.173 0-4.916-4.799-1.725-11.136 3.491-6.933 10.155-10.928 13.062-7.831m-49.16 32.476c4.635 5.131 4.891 16.989.441 20.489-3.244 2.552-7.307-1.817-8.516-9.158-1.483-9.004 3.659-16.22 8.075-11.331m52.185 11.718c5.222 2.527 10.386 12.007 8.935 16.402-2.002 6.066-10.324 1.977-14.458-7.104-3.304-7.256-.39-12.161 5.523-9.298m47.176 9.77c4.02 3.066 5.609 13.297 2.93 18.871-2.469 5.138-7.473 3.325-9.571-3.468-2.942-9.526 1.337-19.449 6.641-15.403m60.295 1.068c1.763.939 2.644 5.286 1.508 7.44a41 41 0 0 0-1 2.154c-3.308 7.627-12.418 12.213-14.864 7.483-3.126-6.045 8.687-20.096 14.356-17.077m-111.17 33.118c6.567 2.497-2.761 19.217-10.722 19.217-4.238 0-5.126-3.87-2.252-9.807 3.163-6.536 9.137-10.869 12.974-9.41m82.359 11.681c5.078 3.547 9.108 12.669 7.484 16.94-2.425 6.378-12.093-.473-14.562-10.32-1.611-6.421 2.226-10.01 7.078-6.62"/><path fill="#090405" d="M98.397 74.002c-2.008.552-3.514 1.6-5.713 3.975-7.521 8.124-5.969 18.647 1.947 13.2 7.901-5.436 10.906-19.139 3.766-17.175m65.664 11.475c-5.477 1.936-11.351 12.564-9.201 16.648 3.299 6.269 15.684-6.634 14.161-14.754-.231-1.23-2.159-2.806-3.108-2.54-.062.017-.896.308-1.852.646m-48.312 31.72c-4.579 1.829-4.727 15.344-.216 19.855 1.496 1.496 2.938 1.733 4.383.721 5.689-3.985 1.843-22.977-4.167-20.576m51.061 12.792c-1.76 1.76-1.573 5.115.521 9.341 4.556 9.193 12.941 12.151 12.835 4.527-.103-7.422-9.767-17.457-13.356-13.868m47.608 10.391c-5.556 5.948-.066 24.305 5.848 19.552 2.105-1.692 3.223-10.629 1.792-14.333-2.336-6.05-5.1-7.938-7.64-5.219m60.182 1.368c-8.018 3.773-12.752 17.191-6.062 17.182 6.41-.008 15.144-13.285 11.28-17.149-1.237-1.238-2.64-1.246-5.218-.033m113.8 3.475c0 .453.18.712.4.576s.4-.507.4-.824-.18-.576-.4-.576-.4.371-.4.824m-225.1 29.803c-6.189 3.083-11.497 13.897-8.153 16.608 4.271 3.461 14.202-6.115 14.243-13.735.021-3.884-2.076-4.874-6.09-2.873m81.351 10.673c-3.276 5.174 3.944 18.3 10.066 18.3 3.782 0 3.959-6.993.322-12.746-3.496-5.529-8.656-8.288-10.388-5.554m114.33 12.4-1.175 1.3 1.3-1.175c.715-.646 1.3-1.231 1.3-1.3 0-.309-.33-.037-1.425 1.175m-206.94 69.643c.417.359 3.164.576 2.952.233-.128-.207-.882-.376-1.675-.376-.794 0-1.368.065-1.277.143"/><path fill="#831a27" d="M97.797 73.292c-8.232 2.934-14.073 17.183-8.077 19.704 1.857.781 6.789-1.498 8.366-3.865.34-.512 1.024-1.38 1.519-1.93 3.923-4.36 4.708-11.644 1.466-13.62-1.432-.873-1.595-.888-3.274-.289m4.252 2.005c1.343 2.511-.732 9.096-4.039 12.815-5.348 6.012-10.282 6.099-10.16.179.168-8.16 11.322-18.368 14.199-12.994m60.748 9.968c-5.177 2.984-9.997 11.89-8.814 16.285 1.61 5.979 10.007 2.041 14.339-6.723 3.624-7.332.371-12.961-5.525-9.562m4.589.106c5.71 2.385-2.867 18.256-9.849 18.224-7.786-.036-.541-16.268 8.373-18.762.062-.018.726.224 1.476.538m-53.325 32.228c-3.234 3.233-3.626 11.114-.846 17.01 5.359 11.368 13.475-.792 8.676-12.999-1.944-4.947-5.218-6.624-7.83-4.011m5.384.97c4.089 4.281 4.386 16.461.468 19.206-5.711 4-10.605-12.129-5.797-19.105 1.513-2.195 3.297-2.228 5.329-.101m46.691 11.183c-2.966 2.551-.147 11.358 5.243 16.384 5.397 5.033 10.949 2.655 9.42-4.035-1.97-8.622-10.573-15.867-14.663-12.349m4.989.251c4.409 2.001 8.97 8.993 9.038 13.856.106 7.624-8.279 4.666-12.835-4.527-3.467-6.995-1.533-11.748 3.797-9.329m43.225 9.576c-4.25 3.503-3.829 15.412.705 19.975 4.85 4.88 9.626-2.043 7.966-11.549-1.349-7.727-5.099-11.37-8.671-8.426m4.251.359c1.136.693 2.223 2.474 3.454 5.663.945 2.446.694 9.811-.411 12.08-3.35 6.875-9.238 1.305-9.385-8.878-.106-7.288 2.638-11.123 6.342-8.865m55.883.933c-6.201 3.007-11.649 12.55-9.517 16.672 2.446 4.73 11.556.144 14.864-7.483a41 41 0 0 1 1-2.154c.531-1.007.425-5.595-.147-6.34-1.323-1.723-3.561-1.974-6.2-.695m5.331.912c3.864 3.864-4.87 17.141-11.28 17.149-2.44.003-3.146-.883-3.107-3.903.097-7.552 10.502-17.132 14.387-13.246m-115.02 31.792c-7.096 2.158-13.989 14.47-10.215 18.244 3.204 3.204 10.452-1.117 14.026-8.36 3.311-6.71 1.468-11.49-3.811-9.884m3.659 1.191c3.123 2.532-1.104 12.286-6.967 16.076-6.183 3.996-9.472-.156-5.877-7.419 3.262-6.591 9.885-11.055 12.844-8.657m75.869 10.36c-2.57 3.054-1.238 9.198 3.235 14.915 6.324 8.084 13.029 5.083 10.049-4.498-2.52-8.104-10.178-14.109-13.284-10.417m5.169.282c4.051 2.021 8.106 9.106 8.106 14.162 0 9.341-11.04 2.636-13.585-8.251-1.196-5.121 1.415-7.938 5.479-5.911"/></g></svg>