<svg version="1.1" viewBox="0 0 313 342" xmlns="http://www.w3.org/2000/svg"><path d="m249.91 59.471c38.291 28.574 63.09 74.276 63.09 125.78 0 86.571-70.067 156.75-156.5 156.75s-156.5-70.179-156.5-156.75c0-51.546 24.841-97.281 63.187-125.85l-28.508-38.02c-4.446-5.878-3.201-14.25 2.668-18.703 5.868-4.4531 14.227-3.2062 18.673 2.6718l29.944 39.938c21.196-10.737 45.16-16.786 70.536-16.786s49.34 6.049 70.536 16.786l29.944-39.938c4.446-5.878 12.805-7.1249 18.673-2.6718 5.869 4.453 7.114 12.825 2.668 18.703z" fill="#3ddb85"/><path d="m311.07 161c3.539 22.346 2.192 45.194-3.949 66.969-6.14 21.775-16.928 41.96-31.62 59.164-14.693 17.204-32.939 31.018-53.484 40.49-20.544 9.472-42.898 14.377-65.52 14.377s-44.976-4.905-65.52-14.377c-20.545-9.472-38.791-23.286-53.484-40.49-14.692-17.204-25.48-37.389-31.62-59.164-6.141-21.775-7.488-44.623-3.949-66.969l122.66 19.429c21.146 3.349 42.686 3.349 63.832 0z" fill="#ffc400"/><path d="m288.62 164.39-46.113 138.49c-1.448 4.35-7.042 5.534-10.129 2.145l-75.654-83.087-75.654 83.087c-3.086 3.389-8.681 2.205-10.129-2.145l-46.112-138.49 52.354 8.292 14.393 57.05 42.237-48.286c15.226 1.721 30.597 1.721 45.822 0l42.237 48.286 14.393-57.05z" clip-rule="evenodd" fill="#fff" fill-rule="evenodd"/></svg>
