<svg xmlns="http://www.w3.org/2000/svg" viewBox="0 0 254.46 245.8"><g transform="translate(-209.84 -342.3)"><circle cx="341.4" cy="465.2" r="122.9" fill="#ffbc00"/><path fill="#fff" d="M406.435 343.543h2.151l-1.368 1.633h-.783zm-158.398 3.965v1.866l-5.086 7.465h-.782l-.782-5.83q4.497-3.5 6.65-3.5m185.409 2.567q6.65 0 7.432 10.03l-3.717 31.493h1.37l2.933-2.333h.782v.7c-4.042 2.955-7.954 11.04-11.738 24.264-1.435 11.357-3.846 21.851-7.237 31.494-3 9.952-4.498 19.131-4.498 27.529l-5.672 16.566q0 2.099 6.454 4.198-1.174 4.899-3.52 4.899v.933h1.368v.7q0 2.565-6.65 2.566l.782.933v3.266h-1.369q1.37 4.899 5.868 4.899v1.632h-5.868v.933q2.934 0 2.934 4.2l-8.215 3.265.783.933v.7q0 1.633-2.934 1.633v.933q3.716 0 3.716 1.632-5.28 2.1-13.89 20.76c-5.866 11.04-10.95 16.565-15.253 16.565h-1.565q-4.89-3.734-8.019-24.723c-8.345-21.305-12.516-33.82-12.516-37.554q0-14.462-8.019-30.794-2.152-7.232-2.933-18.193l-3.52-.933c-8.868 16.02-13.497 28.534-13.89 37.554q-3.717 7.929-5.868 19.132 8.02 2.565 8.02 4.898v.933q-6.26-.933-8.802-3.498c-1.825 4.198-4.237 15.866-7.237 34.987-2.346 8.864-5.28 13.3-8.8 13.3-9.907-3.887-18.193-10.263-24.84-19.131q-1.565 0-5.086-13.3-2.151 0-2.933-13.301c-4.955-12.591-8.345-26.984-10.173-43.156v-24.264h-.782l-3.52.933v-.933q0-1.633 3.52-1.633l-.782-14V420.76l-5.672-34.988v-14.927c2.477-9.33 6.78-14 12.91-14h41.073v1.633q-4.89.233-6.65 2.566-3.716-2.566-7.236-2.566h-8.02l-4.498.7-.782-.7h-.587l-5.867.7-2.933-.7-2.152.7-2.347-.7c9.523 12.438 15.126 22.943 16.82 31.493h6.65v1.633h-5.085v1.866q2.933 10.73 4.302 10.73h1.565l3.52-.933.783.933.782-.933.782.933v.7q-3.912 2.8-5.28 7.697h-.587v1.633h1.369c1.826 25.967 5.215 45.645 10.172 59.011l2.934 2.333h1.565q2.933-.001 12.324-27.29 6.063-12.36 8.8-21.697l-.782-2.566q6.064-9.098 12.516-9.098h1.37q4.106 0 5.866 5.131 5.475 7.699 8.801 23.096l10.95 24.264q2.151 2.567 2.152 5.832c4.042 9.175 7.693 15.244 10.95 18.192h2.348c2.737 0 6.389-11.356 10.95-34.059q1.173 0 6.454-18.193v-.933l-12.324-1.632-2.933.933h-3.717v-1.867l7.432-.7h14.476q8.41-30.09 15.455-46.65c1.565-22.702 3.716-34.059 6.454-34.059l8.8-4.199m-41.659 2.566q-1.174 3.267-5.085 3.267v-1.633l5.085-1.632m-73.733 4.198h19.75v1.633l-4.499.7-4.302-.7-3.717 1.632-1.369-1.632h-5.867v-1.633m-102.913 3.266h2.151l1.37 1.633v.933l-4.303 4.899v4.198h-1.565v-2.566l.782-.7v-.933l-3.716-4.198q1.37-3.266 5.28-3.266m143.75 10.03h2.151v.7q0 1.632-2.152 1.632l-.782.933v.933l-2.152-.933v-1.633l2.934-1.632m-10.95 9.097v.933q-.001 1.866-9.385 3.965v-1.632l4.302-2.333.782.7h.587l3.716-1.633M220.2 387.636v.7l-1.565 1.632-.586-.7v-.932l.586-.7zm106.576 0v.7q-4.106 3.732-13.304 6.764v-1.632q1.565 0 1.565-2.566zm37.164 8.163.783.933v.7l-1.37 1.866h-.782l-1.564-1.866v-.7zm26.992.933h.782v.7l-1.368 1.866h-.783v-.933zm-12.325 11.662 2.934 2.333q-.783 2.566-4.303 2.566l-1.564-2.566q0-1.166 2.933-2.333m17.598 10.73.587.933v.7l-.587.933h-1.565v-.933zm-27.77 8.397v.7l-3.717 3.499h-2.151v-.933q0-2.1 5.867-3.267m-121.225 32.422h.782v.7q-2.933 7.698-5.085 9.33h-1.565v-3.5l5.867-6.53m95.68 38.951h.782v1.633l-5.867 3.499-.782-.933v-1.633zm-80.38 10.964h1.368l2.347 9.097h-1.565l-2.151-8.398v-.7m78.229 10.73h.586l2.347 2.567-.782.7h-.783l-1.368-2.333v-.933"/></g></svg>