<svg xmlns="http://www.w3.org/2000/svg" viewBox="0 0 336 282"><defs><linearGradient id="a" x1="112.54" x2="258.15" y1="19.633" y2="208.94" gradientTransform="scale(.88125 1.1348)" gradientUnits="userSpaceOnUse"><stop offset="0" stop-color="#69C294"/><stop offset="1" stop-color="#69B3BD"/></linearGradient><linearGradient id="c" x1="326.37" x2="75.401" y1="31.51" y2="216.48" gradientTransform="scale(.87113 1.1479)" gradientUnits="userSpaceOnUse"><stop offset="0" stop-color="#6091CF"/><stop offset="1" stop-color="#6A6BB0"/></linearGradient></defs><g fill-rule="evenodd"><path fill="url(#a)" d="m169.5 1.006.153.006c15.776.6 23.354 4.231 51.1 18.044 27.748 13.813 54.01 13.809 57.12 18.752s-.941 32.27-3.506 64.748c-3.419 43.309-1.13 98.459-9.805 109.82-31.245 40.908-92.349 70.628-95.063 70.628-2.714-.006-63.817-29.726-95.062-70.634-8.675-11.357-6.386-66.507-9.805-109.82-2.565-32.478-6.617-59.805-3.507-64.748s29.373-4.94 57.12-18.752c27.747-13.813 35.326-17.444 51.101-18.044L169.5 1z" transform="translate(-1 -1)"/><path fill="url(#c)" d="M272.9 128.02H168.95V1v.003l.154.006c15.855.6 23.472 4.232 51.359 18.045s54.282 13.809 57.408 18.752-.947 32.27-3.525 64.748c-.65 8.191-1.094 16.807-1.447 25.469zM168.95 283c-2.728-.006-64.139-29.726-95.542-70.635-7.069-9.208-6.894-47.208-8.406-84.342h103.95z" transform="translate(-1 -1)"/><g fill="#fff" fill-rule="nonzero"><path d="M218.5 198c-15.188 0-27.5-12.088-27.5-27s12.312-27 27.5-27 27.5 12.088 27.5 27-12.312 27-27.5 27m0-3.553c13.189 0 23.882-10.498 23.882-23.447s-10.692-23.447-23.882-23.447-23.882 10.498-23.882 23.447 10.692 23.447 23.882 23.447"/><path d="m214.63 176.84 13.253-13.3a1.823 1.823 0 1 1 2.581 2.573l-15.834 15.89-7.102-7.127a1.823 1.823 0 0 1 2.581-2.573zM89.529 61.505v35.21a.71.71 0 0 0 .706.714h51.529a.71.71 0 0 0 .706-.714v-35.21zM90.235 51h51.529c2.339 0 4.235 1.919 4.235 4.286v41.429c0 2.367-1.896 4.285-4.235 4.285h-51.53C87.897 101 86 99.082 86 96.715v-41.43C86 52.92 87.896 51 90.235 51m1.412 7.857c1.364 0 2.47-1.12 2.47-2.5s-1.106-2.5-2.47-2.5-2.47 1.12-2.47 2.5 1.105 2.5 2.47 2.5m7.764 0c1.365 0 2.471-1.12 2.471-2.5s-1.106-2.5-2.47-2.5-2.471 1.12-2.471 2.5 1.106 2.5 2.47 2.5M205.38 48.522c-.99 0-1.794.788-1.794 1.761v45.434c0 .973.803 1.761 1.794 1.761h26.236c.99 0 1.794-.788 1.794-1.761V50.283c0-.973-.803-1.761-1.794-1.761zm0-3.522h26.236c2.972 0 5.382 2.365 5.382 5.283v45.434c0 2.918-2.41 5.283-5.382 5.283H205.38c-2.972 0-5.382-2.365-5.382-5.283V50.283c0-2.918 2.41-5.283 5.382-5.283m9.687 8.1c-.891 0-1.614-.709-1.614-1.584s.723-1.585 1.614-1.585h6.807c.892 0 1.615.71 1.615 1.585s-.723 1.585-1.615 1.585zm3.588 42.97c-1.981 0-3.588-1.577-3.588-3.522s1.607-3.522 3.588-3.522 3.588 1.577 3.588 3.522-1.606 3.522-3.588 3.522M134.33 174.17a1.37 1.37 0 0 1-1.973.042 1.455 1.455 0 0 1-.04-2.022c.382-.408.695-.89.942-1.468 1.924-4.498.873-10.761-2.807-13.696-3.781-3.016-9.612-4.811-15.346-4.236-.767.077-1.45-.497-1.525-1.283s.486-1.486 1.253-1.563c6.455-.648 12.995 1.366 17.332 4.825 4.765 3.801 6.053 11.48 3.649 17.1a7.8 7.8 0 0 1-1.485 2.3zm-19.684 12.106c.274.738-.087 1.564-.807 1.845a1.386 1.386 0 0 1-1.801-.827c-2.472-6.65-.67-12.761 3.348-16.112 1.414-1.18 3.081-1.769 5.493-2.178.43-.073.626-.103 1.565-.24 3.796-.556 4.653-1.055 4.653-3.132 0-5.016-5.093-7.609-12.549-6.008-6.436 1.382-10.989 6.915-12.261 12.968-.879 4.182-.765 8.867.356 14.06.166.771-.31 1.534-1.062 1.705s-1.497-.317-1.663-1.088c-1.203-5.576-1.327-10.67-.36-15.279 1.488-7.076 6.796-13.528 14.418-15.165 8.969-1.925 15.912 1.609 15.912 8.806 0 2.205-.851 3.77-2.463 4.71-1.115.649-2.192.903-4.586 1.253-.915.134-1.103.162-1.504.23-1.974.336-3.236.782-4.187 1.575-3.11 2.595-4.533 7.416-2.502 12.877zm5.396 8.319c.528.575.5 1.48-.061 2.02s-1.445.513-1.972-.062c-1.587-1.73-2.9-3.451-3.949-5.159-.41-.668-.214-1.551.438-1.972s1.514-.219 1.924.45c.95 1.547 2.153 3.123 3.62 4.723m11.447-14.39c.764.107 1.298.828 1.193 1.61s-.808 1.33-1.571 1.223c-3.079-.432-4.114-.02-4.114.857 0 1.298.885 1.961 3.334 2.069.77.034 1.368.7 1.334 1.49-.033.789-.684 1.4-1.453 1.367-3.778-.166-6.006-1.835-6.006-4.926 0-1.618.831-2.846 2.314-3.437 1.214-.485 2.856-.55 4.97-.253m-20.244 12.535c.44.648.283 1.54-.35 1.99s-1.502.29-1.942-.359q-2.276-3.36-3.53-7.665c-1.4-4.806-1.022-10.494.905-15.07a1.383 1.383 0 0 1 1.834-.746c.708.313 1.034 1.154.729 1.879-1.671 3.968-2.004 8.966-.794 13.119q1.132 3.877 3.148 6.852m-.395-23.305c-.496.604-1.376.682-1.966.174s-.666-1.41-.17-2.014c1.854-2.26 5.597-3.821 11.266-4.842.759-.137 1.482.383 1.616 1.16.133.778-.374 1.52-1.133 1.656-5.076.914-8.292 2.255-9.613 3.866zm21.258-21.726a1.45 1.45 0 0 1 .437 1.972 1.376 1.376 0 0 1-1.925.447c-2.142-1.384-3.654-2.19-5.627-2.879-2.589-.903-5.575-1.385-9.229-1.385-5.864 0-11.41 2.592-15.571 6.581-.563.54-1.446.51-1.972-.067a1.455 1.455 0 0 1 .065-2.021c4.646-4.454 10.848-7.352 17.478-7.352 3.954 0 7.243.53 10.13 1.537 2.217.774 3.904 1.674 6.215 3.167zm-6.3 44.04c.632.452.788 1.343.347 1.991-.44.648-1.31.807-1.942.356-6.211-4.433-8.57-9.15-6.617-13.97.772-1.904 2.074-3.216 3.875-4.095 1.282-.625 2.386-.922 4.896-1.438l.115-.024c.758-.156 1.16-.242 1.6-.347.751-.178 1.501.3 1.676 1.07.174.77-.293 1.537-1.044 1.716-.475.113-.898.204-1.682.365l-.116.024c-4.356.895-5.85 1.625-6.742 3.826-1.348 3.325.376 6.774 5.634 10.527m-15.661-40.86c.738-.226 1.516.204 1.737.96s-.198 1.554-.937 1.78q-.743.228-1.475.511c-1.907.738-4.432 2.482-6.543 4.701-2.644 2.78-4.482 6.073-5.167 9.694-.147.775-.88 1.281-1.636 1.131s-1.25-.9-1.104-1.676c.797-4.209 2.906-7.988 5.908-11.145 2.388-2.51 5.254-4.49 7.555-5.38q.825-.319 1.662-.576z"/></g><path fill="#6165a0" d="M.006 172q23.742 4.468 34.391 4.468H56V217H34.397Q17.444 217 0 212.576l10.59-19.004z"/><path fill="#292c55" d="m38.233 197 17.661-20H56v40h-1.556z"/><path fill="#6165a0" d="m335.99 172-10.583 21.572 10.59 19.004Q318.552 217 301.599 217h-21.602v-40.532h21.602q10.65 0 34.391-4.468z"/><path fill="#292c55" d="M281.56 217H280v-40.4l18.96 20.4z"/><path fill="#444884" d="M38 197q65.25 16.053 130.5 16.053c65.25 0 87-5.35 130.5-16.053v44.947Q233.75 258 168.5 258c-65.25 0-87-5.35-130.5-16.053z"/><path fill="#fff" d="M101.98 227.86q.314.36.282.886-.01.175-.128.47a1603 1603 0 0 1-4.49 10.58 1.12 1.12 0 0 1-.54.569 1.2 1.2 0 0 1-.762.1q-.675-.097-.98-.822-1.076-3.498-2.137-6.998-1.43 3.322-2.875 6.64a1.2 1.2 0 0 1-.464.507 1.2 1.2 0 0 1-.618.168 1.14 1.14 0 0 1-.727-.219 1.06 1.06 0 0 1-.446-.625q-1.545-5.558-3.049-11.12a1.5 1.5 0 0 1-.037-.482q.039-.5.388-.825.349-.326.868-.285.84.067 1.033.837 1.156 4.335 2.338 8.667 1.412-3.03 2.81-6.064.35-.729 1.144-.673.743.053.966.824.996 3.155 2.008 6.306 1.734-4.073 3.445-8.152.319-.735 1.187-.68.47.03.784.39zm12.061 3.175q-1.058.738-1.464 2.377 3.674.19 7.349.354l.008-.2q-.068-1.336-1.087-2.238a3.74 3.74 0 0 0-2.36-.965q-1.39-.066-2.447.672zm7.959 4.517a1.2 1.2 0 0 1-.837.279 998 998 0 0 1-8.787-.418q.082 1.841 1.243 3.006 1.16 1.166 2.915 1.25 1.204.056 1.97-.26a4.9 4.9 0 0 0 1.366-.844q.385-.21.736-.194a.95.95 0 0 1 .7.332q.275.313.26.715-.022.527-.54.932-.758.696-1.985 1.144a6.3 6.3 0 0 1-2.483.388q-2.035-.096-3.537-1.03a5.93 5.93 0 0 1-2.26-2.506q-.76-1.576-.657-3.507c.074-1.405.425-2.62 1.051-3.653q.939-1.545 2.383-2.327a5.7 5.7 0 0 1 3.053-.703 5.75 5.75 0 0 1 2.938.966 6.3 6.3 0 0 1 2.138 2.382q.785 1.491.738 3.299-.043.45-.405.75m17.81 4.338a4.1 4.1 0 0 0 1.479-1.649q.535-1.055.564-2.36.028-1.306-.46-2.372a4.05 4.05 0 0 0-1.393-1.691 3.7 3.7 0 0 0-2.048-.655q-1.169-.03-2.104.545a4.05 4.05 0 0 0-1.477 1.603q-.54 1.027-.58 2.356-.04 1.332.442 2.401a4.1 4.1 0 0 0 1.393 1.712q.91.641 2.09.672a3.66 3.66 0 0 0 2.095-.562m1.501-9.976q1.345.912 2.098 2.483.752 1.574.716 3.532-.037 1.959-.858 3.524-.821 1.566-2.221 2.413a5.5 5.5 0 0 1-3.06.804 5.25 5.25 0 0 1-2.422-.644q-1.114-.609-1.791-1.485l-.021.729a1.18 1.18 0 0 1-1.242 1.167 1.15 1.15 0 0 1-.83-.366q-.33-.349-.312-.876l.515-16.342q.017-.528.348-.856t.85-.312q.517.016.84.378t.309.863l-.18 6.126q.623-.885 1.783-1.505a4.85 4.85 0 0 1 2.447-.587q1.686.045 3.031.954zm19.565 10.28q.916-.6 1.432-1.655.513-1.054.515-2.385.001-1.305-.507-2.362a4.17 4.17 0 0 0-1.415-1.673q-.906-.619-2.073-.625-1.17-.007-2.08.59-.913.596-1.432 1.646-.52 1.05-.532 2.38-.012 1.333.492 2.391.503 1.06 1.414 1.67t2.09.615q1.18.006 2.096-.593zm3.878-10.43q.336.338.336.89l.01 10.9a1.18 1.18 0 0 1-1.204 1.206q-.528 0-.854-.34-.327-.34-.325-.866v-.653q-.653.879-1.785 1.49a5 5 0 0 1-2.44.605q-1.71-.01-3.096-.901-1.386-.892-2.16-2.47-.772-1.58-.749-3.538.023-1.959.823-3.52t2.173-2.427a5.46 5.46 0 0 1 3.009-.857q1.314.007 2.441.563t1.797 1.41l.001-.602q0-.528.324-.88.322-.35.844-.35.52 0 .855.34zm20.5-.04q.341.345.352.847l.14 6.68q.056 2.611-1.358 4.085-1.416 1.475-4.055 1.518-2.615.042-4.063-1.386t-1.473-4.04l-.069-6.68a1.2 1.2 0 0 1 .326-.857q.331-.355.827-.362.522-.006.86.341.34.349.346.85l.085 6.68q.041 3.291 3.126 3.245 1.53-.025 2.318-.87.785-.844.755-2.476l-.124-6.68q-.01-.5.319-.86.328-.356.824-.368.52-.01.863.334m13.824 1.593.255 7.48q.042 1.256 1.17 1.215.175-.006.474-.106.298-.098.472-.105a.69.69 0 0 1 .562.255q.235.268.251.694.02.527-.569.927-.589.399-1.342.426a6.1 6.1 0 0 1-1.526-.122q-.696-.15-1.259-.849-.563-.696-.608-2.153l-.241-7.58-1.442.045a1.06 1.06 0 0 1-.792-.289 1.08 1.08 0 0 1-.334-.781q-.015-.477.287-.788.303-.31.773-.325l1.439-.047-.068-2.108q-.015-.502.307-.865.323-.362.842-.38a1.1 1.1 0 0 1 .84.323q.345.34.363.841l.072 2.109 2.058-.075q.47-.018.793.284.32.302.34.779.017.476-.282.79a1.08 1.08 0 0 1-.772.33zm23.32 1.82.38 6.694q.029.502-.291.872a1.15 1.15 0 0 1-.845.402 1.12 1.12 0 0 1-.861-.304 1.18 1.18 0 0 1-.385-.833l-.364-6.696c-.12-2.173-1.088-3.207-2.908-3.11q-1.465.078-2.388 1.069-.923.99-.857 2.37.163 3.348.324 6.697.025.502-.297.87a1.15 1.15 0 0 1-.85.394q-.527.026-.869-.298-.342-.322-.366-.85l-.744-16.157a1.2 1.2 0 0 1 .293-.869q.316-.366.81-.39.518-.027.868.308.35.336.374.837l.307 6.346q.573-1.009 1.655-1.756a4.5 4.5 0 0 1 2.344-.817c2.905-.158 4.462 1.575 4.67 5.22zm21.075-1.59.526 6.81q.04.501-.272.878a1.16 1.16 0 0 1-.838.42 1.12 1.12 0 0 1-.866-.285 1.18 1.18 0 0 1-.403-.826l-.508-6.786q-.112-1.477-.847-2.302-.736-.825-2.248-.71-.992.074-1.767.57a3.36 3.36 0 0 0-1.184 1.27 3 3 0 0 0-.35 1.648l.467 6.79q.035.501-.28.876t-.841.412q-.527.036-.875-.28-.35-.315-.384-.841l-.712-10.725a1.2 1.2 0 0 1 .278-.875q.31-.374.806-.409.52-.036.879.29.358.329.393.829l.06.877q.576-1.048 1.68-1.82a4.76 4.76 0 0 1 2.414-.873c2.968-.225 4.592 1.455 4.872 5.061z"/></g></svg>