<svg version="1.1" viewBox="0 0 242 283" xmlns="http://www.w3.org/2000/svg"><title>Robot-Edit</title><g id="a" fill="none" fill-rule="evenodd"><g id="b"><g fill="#ea5906"><polygon points="61 100 66 100 66 95 61 95"/><polygon points="70 100 75 100 75 95 70 95"/><polygon points="78 100 83 100 83 95 78 95"/><polygon points="87 100 92 100 92 95 87 95"/><path d="m59.947 53.677v-31.508c-8.7156 0-15.781 7.053-15.781 15.754 0 8.7005 7.0658 15.754 15.781 15.754"/><path d="m197.83 37.923c0-8.7005-7.0658-15.754-15.781-15.754v31.508c8.7156 0 15.781-7.053 15.781-15.754"/><path d="m97.579 23.694c7.221 0 13.095 5.8648 13.095 13.074s-5.8743 13.074-13.095 13.074c-7.2223 0-13.098-5.8648-13.098-13.074s5.8762-13.074 13.098-13.074m0 29.198c8.905 0 16.15-7.233 16.15-16.124s-7.2455-16.124-16.15-16.124c-8.9075 0-16.154 7.233-16.154 16.124s7.2461 16.124 16.154 16.124"/><path d="m97.577 47.707c6.0515 0 10.958-4.8974 10.958-10.939s-4.9065-10.94-10.958-10.94c-6.0515 0-10.959 4.898-10.959 10.94s4.9077 10.939 10.959 10.939"/><path d="m144.42 23.694c7.2198 0 13.095 5.8648 13.095 13.074s-5.8756 13.074-13.095 13.074c-7.2223 0-13.098-5.8648-13.098-13.074s5.8762-13.074 13.098-13.074m0 29.198c8.905 0 16.15-7.233 16.15-16.124s-7.2455-16.124-16.15-16.124c-8.9074 0-16.154 7.233-16.154 16.124s7.2461 16.124 16.154 16.124"/><path d="m144.42 47.707c6.0515 0 10.958-4.8974 10.958-10.939s-4.9065-10.94-10.958-10.94c-6.0516 0-10.959 4.898-10.959 10.94s4.9077 10.939 10.959 10.939"/><polygon points="166.32 35.174 171.41 35.174 171.41 30.091 166.32 30.091"/><polygon points="166.32 42.494 171.41 42.494 171.41 37.412 166.32 37.412"/><path d="m67.23 12.104c0-4.9926 4.0682-9.0537 9.0688-9.0537h89.401c5.0018 0 9.07 4.0611 9.07 9.0537v39.534c0 4.9926-4.0682 9.0537-9.07 9.0537h-89.401c-5.0006 0-9.0688-4.0611-9.0688-9.0537zm9.0688 51.638h89.401c6.6687 0 12.125-5.4464 12.125-12.104v-39.534c0-6.6572-5.4564-12.104-12.125-12.104h-89.401c-6.6687 0-12.124 5.4464-12.124 12.104v39.534c0 6.6572 5.4552 12.104 12.124 12.104z"/><path id="c" d="m189.23 68.469c6.5664 0 11.958 5.2826 12.12 11.801l4e-3 0.30172v1.2394c8.0489 1.311 34.912 10.302 35.449 39.1l8e-3 0.87874v64.165c3.2127 2.1239 5.1937 5.0218 5.1937 8.2187 0 2.4679-1.1817 4.7577-3.1981 6.6517-0.20718 4.5745 1.0782 13.574 1.7027 17.308l0.0479 0.28371 0.0214 0.23789c2e-3 0.19091 0.0202 4.7126-2.9561 7.7185-1.6864 1.7036-3.9466 2.5674-6.7176 2.5674-8.7345 0-9.1066-7.33-9.2857-10.853-0.0226-0.44406-0.0422-0.84968-0.0764-1.1992-0.14115-1.4572-0.65318-2.2032-1.5227-2.2172-0.0275-6.1e-4 -0.055-1e-3 -0.0825-1e-3 -0.92997 0-1.5312 0.28303-2.5217 1.789-2.7545 4.0654-7.7404 3.6763-10.405 2.1032-1.511-0.89055-2.4936-2.2075-2.8406-3.8074-0.49615-2.2825 0.333-4.9859 2.4667-8.0357 1.6479-2.3569 1.9907-4.3856 1.8771-5.8984-2.0127-1.8933-3.1932-4.1813-3.1932-6.6474 0-3.104 1.8682-5.9264 4.9164-8.0318l0.29864-0.2015v-57.809c0-4.8132-1.4872-6.6498-4.5442-9.3794-1.2466-1.113-2.7115-1.7626-4.2963-2.0903l-0.34139-0.0653v92.261c0 6.5563-5.2923 11.938-11.822 12.1l-0.30222 4e-3h-8.5995v33.929h6.9882l0.13748 0.0256c0.0105 2e-3 0.10959 0.0213 0.2828 0.0635l0.14356 0.036c2.1182 0.54582 11.449 3.5615 12.902 14.534l0.0526 0.43153v13.02h-42.223l-12.985-4.5253v-9.8576c-0.31285-4.933 0.53662-8.631 2.4643-10.736l0.18388-0.19261v-36.729h-55.398v36.729c1.995 2.0045 2.9126 5.6139 2.6728 10.469l-0.02588 0.45883v9.8576l-12.984 4.5253h-42.224v-13.02c1.4016-12.568 13.005-14.991 13.373-15.063l8e-3 -2e-3 0.13809-0.0256h6.9888v-33.929h-8.3453c-6.5682 0-11.959-5.2826-12.121-11.802l-0.0037-0.30175v-92.266c-1.7164 0.30193-3.3013 0.96802-4.6364 2.1605-2.9761 2.6558-4.4633 4.4663-4.5415 8.9956l-0.0033 0.38382v57.809c3.225 2.1251 5.2144 5.0292 5.2144 8.2333 0 2.4661-1.1793 4.7541-3.1938 6.6474-0.11365 1.5127 0.23036 3.5414 1.8783 5.8984 2.1325 3.0498 2.9622 5.7532 2.4667 8.0357-0.34828 1.5999-1.3302 2.9168-2.8412 3.8074-2.6647 1.5731-7.6512 1.9623-10.404-2.1032-0.99046-1.506-1.5935-1.789-2.5229-1.789-0.02627 0-0.05377 6.1e-4 -0.08249 1e-3 -0.86887 0.014-1.3821 0.76002-1.5227 2.2172-0.03361 0.34951-0.05377 0.75513-0.07638 1.1992-0.17903 3.5232-0.55175 10.853-9.2851 10.853-2.771 0-5.0311-0.86371-6.7188-2.5674-2.7863-2.814-2.9481-6.9565-2.9559-7.6305l-2.304e-4 -0.088 0.021997-0.23789c0.60372-3.5408 1.9639-12.896 1.7506-17.591-2.017-1.894-3.1987-4.1838-3.1987-6.6517 0-3.0969 1.8596-5.9134 4.8962-8.0173l0.29751-0.20137v-64.165c0-29.197 26.782-38.468 35.208-39.936l0.24967-0.04213v-1.2394c0-6.5557 5.2917-11.938 11.823-12.099l0.3023-0.0037zm8.5066 199.74h-36.436c0.0449 0.44466 0.0695 0.89001 0.0708 1.3353l-7e-3 0.4452h36.703c-0.0813-0.62399-0.19369-1.2169-0.33178-1.7805zm-117.28 0h-36.435c-0.10403 0.4227-0.19327 0.86188-0.26594 1.3183l-0.06707 0.46219h36.704c-0.01894-0.59349 0.0049-1.1876 0.06416-1.7805zm70.306-8.3882c-1.1245 1.1126-1.7615 3.3582-1.8333 6.3268l-6e-3 0.35967 9.3932 3.2737c0.0697-3.2639-1.508-6.7322-3.1394-8.7207-1.1004-1.3419-2.0769-1.8659-2.6231-1.9092-0.70084-0.0531-1.2807 0.16469-1.7915 0.66974zm-61.37-0.67749-0.18832 8e-3c-0.54686 0.0433-1.5227 0.56726-2.6231 1.9092-1.572 1.9175-3.0962 5.2109-3.1401 8.3703l0.0013 0.35041 9.392-3.2737c-0.02627-3.1468-0.66907-5.5293-1.8386-6.6864-0.41794-0.41323-0.88169-0.63413-1.4207-0.67173zm97.928-1.2018h-30.89c0.37639 0.34889 0.74728 0.74354 1.1102 1.1864 1.3896 1.6944 2.6927 4.1545 3.3628 6.8275l0.10046 0.42375h36.158c-2.5571-6.5425-8.894-8.2211-9.8417-8.4376zm-101.99 0h-30.89c-0.93167 0.21273-7.0645 1.8367-9.7037 8.0978l-0.13799 0.33987h36.158c0.63485-2.8357 2.0011-5.4677 3.4633-7.2513 0.36356-0.44284 0.73506-0.83749 1.1108-1.1864zm-18.524-36.979h-3.8439v33.929h3.8439zm23.321 0h-4.1757v20.002h1.4261v6.4058h-1.4261v7.5215h4.1757zm88.673 0h-3.8452v33.929h3.8452zm-22.991 0h-4.1745v33.929h4.1745v-7.5215h-1.4249v-6.4058h1.4249zm-149.55-17.923c-0.16742 5.9911-1.5587 14.487-1.7713 15.751 0.019553 0.58922 0.20775 3.572 2.0848 5.4543 1.1053 1.1089 2.5889 1.6481 4.5325 1.6481 2.1496 0 3.5329-0.57947 4.4421-1.5444-1.2935-0.28302-2.9634-0.9241-4.0706-2.3856-1.1469-1.5146-1.3895-3.478-0.721-5.838 0.23646-0.83504 0.43077-1.4901 0.59819-2.0525 0.14198-0.4786 0.26287-0.88621 0.37214-1.28l0.07123-0.26111 0.06841-0.26078c0.34723-1.353 0.60652-2.8437 1.1649-6.809-2.5327-0.49285-4.8319-1.3279-6.7713-2.4222zm229.49 0c-1.9394 1.0943-4.238 1.9293-6.7701 2.4222 0.55748 3.9653 0.81622 5.456 1.1638 6.809l0.0685 0.26078 0.0713 0.26111c0.10945 0.39379 0.23061 0.8014 0.37296 1.28 0.16681 0.56239 0.36173 1.2175 0.59758 2.0525 0.66846 2.36 0.42527 4.3234-0.72161 5.838-1.1078 1.4615-2.7759 2.1026-4.0706 2.3856 0.91042 0.96496 2.2919 1.5444 4.4427 1.5444 1.9443 0 3.426-0.53921 4.5326-1.6481 1.8758-1.8824 2.0658-4.8651 2.0848-5.4543-0.14692-0.87363-0.85705-5.1991-1.337-9.7654l-0.0738-0.72253c-0.17903-1.809-0.31569-3.6292-0.36118-5.2632zm-16.758 2.5399c-0.83037 1.3413-1.8905 2.4966-2.9274 3.6214-1.1206 1.2157-2.1789 2.3642-2.8058 3.6153-0.23952 0.47882-0.2829 0.89726-0.13504 1.3175 0.19003 0.54287 0.6709 1.0162 1.128 1.3633 0.21874-0.20922 0.42832-0.44223 0.62202-0.72647 1.0858-1.6524 2.4978-3.1767 5.1961-3.1468 2.5284 0.0415 4.216 1.9013 4.513 4.9736 0.0385 0.38977 0.0623 0.84236 0.0874 1.3383 0.0642 1.2724 0.16681 2.4764 0.40938 3.55 0.88171-0.0988 2.3237-0.43978 3.0215-1.3694 0.53342-0.71122 0.60491-1.775 0.21263-3.1614-0.23157-0.81979-0.42282-1.4633-0.58596-2.0153-0.73078-2.4563-0.94892-3.1926-1.7756-9.0671-0.75094 0.0604-1.5147 0.0945-2.2901 0.0945-1.6137 0-3.1798-0.1348-4.67-0.38733zm-195.97 0c-1.4921 0.25253-3.0563 0.38733-4.6712 0.38733-0.776 0-1.5385-0.0342-2.2901-0.0945-0.82732 5.8746-1.0455 6.6108-1.7744 9.0671-0.16375 0.55202-0.35561 1.1955-0.58719 2.0153-0.39289 1.3864-0.3214 2.4502 0.21325 3.1614 0.6984 0.92959 2.1398 1.2706 3.0209 1.3694 0.24196-1.0735 0.34462-2.2776 0.41061-3.55 0.02505-0.49591 0.04888-0.9485 0.08554-1.3383 0.29757-3.0724 1.9846-4.9322 4.5136-4.9736 2.6983-0.0299 4.1097 1.4944 5.1973 3.1468 0.19186 0.28424 0.40327 0.51725 0.62019 0.72647 0.45704-0.34707 0.93853-0.82041 1.1292-1.3633 0.14787-0.42026 0.10387-0.8387-0.13626-1.3175-0.6263-1.251-1.6846-2.3996-2.8052-3.6153-1.0375-1.1248-2.097-2.28-2.9262-3.6214zm188.46-2.596c-0.25663 1.6323-0.93425 3.4847-2.3316 5.4842-1.6039 2.2922-2.2901 4.2435-1.9858 5.6428 0.16437 0.7594 0.63852 1.3749 1.4084 1.8287 0.47721 0.28119 1.8331 0.80454 3.2732 0.65876-0.41794-0.45808-0.79372-1.0095-1.0204-1.6567-0.36539-1.0406-0.27679-2.1526 0.25541-3.2164 0.78027-1.5585 2.0072-2.8894 3.1938-4.1758 0.75278-0.81674 1.5166-1.6506 2.1612-2.5362-1.8239-0.50383-3.4932-1.1931-4.9542-2.0294zm-180.94 0c-1.4616 0.83627-3.1315 1.5255-4.9548 2.0294 0.64463 0.88567 1.409 1.7195 2.1612 2.5362 1.186 1.2864 2.4129 2.6174 3.1938 4.1758 0.53342 1.0638 0.62141 2.1758 0.25602 3.2164-0.22791 0.64717-0.60369 1.1986-1.021 1.6567 1.4402 0.14578 2.7972-0.37757 3.2732-0.65876 0.76988-0.45381 1.2434-1.0693 1.4096-1.8287 0.30429-1.3993-0.38311-3.3505-1.9858-5.6428-1.3986-1.9995-2.0769-3.8519-2.3323-5.4842zm154.47-19.981h-127v17.954c0 6.5253 5.2752 11.882 11.786 12.043l0.30136 4e-3h102.83c6.5471 0 11.921-5.2576 12.082-11.746l4e-3 -0.30032zm16.349-96.877v18.404c3.5598 1.0357 7.0408 2.682 9.9328 5.2628 4.6683 4.168 7.086 10.939 7.1889 17.878l3e-3 0.46281v53.944h14.055v-60.285c0-12.018-4.9969-21.623-14.852-28.549-6.3821-4.4863-13.076-6.4998-16.328-7.1171zm-160.7 0c-3.2531 0.6179-9.9474 2.6314-16.328 7.1171-9.7035 6.8196-14.697 16.237-14.849 27.996l-0.00355 0.55294v60.285h14.056v-53.944c0-7.0994 2.419-14.08 7.1929-18.34 2.7576-2.4629 6.0563-4.0748 9.4466-5.1176l0.4849-0.14513zm144.35 38.877h-67v36h67zm-124 3h-2v30h2zm32 0c-8.2843 0-15 6.7157-15 15s6.7157 15 15 15c8.2843 0 15-6.7157 15-15s-6.7157-15-15-15zm-15 0h-1.966l-12.034 30h1.966zm15 1.875c7.2487 0 13.125 5.8763 13.125 13.125s-5.8763 13.125-13.125 13.125c-7.2487 0-13.125-5.8763-13.125-13.125s5.8763-13.125 13.125-13.125zm79.914-53.875h-102.83c-6.5477 0-11.922 5.2448-12.084 11.717l-0.0037 0.29959v14.983h127v-14.983c0-6.6095-5.4382-12.017-12.086-12.017z"/></g><g stroke="#ea5906"><g stroke-width="2"><path d="m118 150.74c6.6472-10.333 16.971-10.937 30.971-1.8118 21 13.688 13.001-28.443 36.029-6.4362" stroke-linecap="square"/><circle id="d" cx="75" cy="198" r="12"/><circle cx="105" cy="198" r="12"/></g><g stroke-linecap="round" stroke-width="4"><line x1="75" x2="75" y1="209" y2="198"/><line x1="105" x2="111.92" y1="198" y2="190.07"/><line x1="133" x2="171" y1="190.5" y2="190.5"/><line x1="133" x2="171" y1="197.5" y2="197.5"/><line x1="133" x2="155" y1="204.5" y2="204.5"/></g></g></g></g></svg>
