<svg viewBox="0 0 530 599.7" xmlns="http://www.w3.org/2000/svg"><path d="M265 0l265 149.9v299.9L265 599.7 0 449.8V149.9z" fill="#fff"/><path d="M482.7 439.4L273.8 557.7v-92L404 394zm14.3-12.9V179.3l-76.4 44.1v159zM46.5 439.4l208.9 118.2v-92L125.2 394zm-14.3-12.9V179.3l76.4 44.1v159zm8.9-263.2L255.4 42.1v89l-137.3 75.5-1.1.6zm446.9 0L273.8 42.1v89L411 206.7l1.1.6z" fill="#8ed6fb"/><path d="M255.4 444.7L127 374V234.1l128.4 74.1zm18.4 0l128.4-70.6v-140l-128.4 74.1zM135.6 217.9l129-70.9 128.9 70.9-128.9 74.4z" fill="#1c78c0"/></svg>
