<svg xmlns="http://www.w3.org/2000/svg" viewBox="0 0 93.154 86.372"><defs><linearGradient id="d" x1="355.38" x2="358.69" y1="55.22" y2="62.19" gradientUnits="userSpaceOnUse" href="#a"/></defs><filter id="b" width="1.474" height="1.471" x="-.237" y="-.236"><feGaussianBlur stdDeviation=".63"/></filter><filter id="c" width="1.101" height="1.135" x="-.05" y="-.067"><feGaussianBlur stdDeviation="1.28"/></filter><linearGradient id="a" x1="355.38" x2="358.69" y1="55.22" y2="62.19" gradientUnits="userSpaceOnUse"><stop offset="0" stop-color="#8ae234"/><stop offset="1" stop-color="#4e9a06"/></linearGradient><linearGradient id="e" x1="359.28" x2="395.38" y1="48.9" y2="111.42" href="#a"/><linearGradient id="f" x1="362.7" x2="394.47" y1="51.19" y2="112.55" gradientUnits="userSpaceOnUse"><stop offset="0" stop-color="#fff" stop-opacity=".55"/><stop offset="1" stop-color="#fff" stop-opacity="0"/></linearGradient><radialGradient id="g" cx="-28.43" cy="105.5" r="14.38" gradientTransform="matrix(1.14 0 0 -1.14 436.96 173.78)" gradientUnits="userSpaceOnUse"><stop offset="0" stop-color="#fff"/><stop offset=".5" stop-color="#fff520" stop-opacity=".9"/><stop offset="1" stop-color="#fff300" stop-opacity="0"/></radialGradient><g filter="url(#b)" transform="translate(-330.65 -32.47)"><path d="M346.1 46.13h10.42V56.6H346.1z"/><path fill="none" stroke="#000" stroke-miterlimit="4.64" stroke-width="1.91" d="M346.1 46.13h10.42V56.6H346.1z"/></g><g filter="url(#c)" transform="translate(-330.65 -32.47)"><path fill-rule="evenodd" stroke="#000" stroke-miterlimit="4.64" stroke-width="2.38" d="M341.2 51.27h72.05a6.27 6.27 0 0 1 6.29 6.25v50.77a6.26 6.26 0 0 1-6.24 6.29h-72.1a6.27 6.27 0 0 1-6.29-6.24V57.57a6.26 6.26 0 0 1 6.24-6.28h.05z"/></g><g fill-rule="evenodd" stroke="#366a04"><path fill="url(#d)" stroke-width="1.92" d="M350.72 51.13h10.42V61.6h-10.42z" transform="translate(-335.26 -37.47)"/><path fill="url(#e)" stroke-width="2.38" d="M345.78 56.27h72.07a6.3 6.3 0 0 1 6.3 6.3v50.73a6.3 6.3 0 0 1-6.3 6.3h-72.07a6.3 6.3 0 0 1-6.3-6.3V62.57a6.3 6.3 0 0 1 6.3-6.3z" transform="translate(-335.26 -37.47)"/></g><path fill="#fff" stroke="#366a04" stroke-width="2.38" d="M62.052 50.46a15.5 15.5 0 0 1-15.48 15.48 15.5 15.5 0 0 1-15.48-15.48 15.5 15.5 0 0 1 15.48-15.48 15.5 15.5 0 0 1 15.48 15.48z"/><path fill="none" stroke="url(#f)" stroke-linejoin="round" stroke-width="2.23" d="M347.5 58.5h68.37c4.46 0 6 1.87 6 5.82v47c0 4-1.64 5.82-6 5.82H347.5c-4.46 0-6-1.73-6-5.82v-47c.04-4.4 1.97-5.82 6-5.82z" transform="translate(-335.26 -37.47)"/><path fill="url(#g)" d="M421 53.81a16.35 16.35 0 1 1-16.34-16.34A16.34 16.34 0 0 1 421 53.81" transform="translate(-335.26 -37.47)"/></svg>