<svg xmlns="http://www.w3.org/2000/svg" viewBox="0 0 37.1 35.99"><circle cx="12.25" cy="27.64" r="8.35" fill="#f60"/><circle cx="28.75" cy="15.96" r="8.35" fill="#fc0"/><circle cx="8.35" cy="15.77" r="8.35" fill="#0089cc"/><circle cx="25.04" cy="27.64" r="8.35" fill="#009939"/><circle cx="18.55" cy="8.35" r="8.35" fill="#bf0000"/><path fill="#fc0007" d="M20.41 15.96c0 .18.02.35.03.52 3.7-.85 6.46-4.16 6.46-8.12 0-.18-.02-.35-.03-.52-3.7.85-6.46 4.16-6.46 8.12"/><path fill="#1cd306" d="M21.51 20.09c1.44 2.51 4.14 4.21 7.24 4.21 1.27 0 2.46-.29 3.53-.79-1.44-2.51-4.14-4.21-7.24-4.21-1.26 0-2.46.28-3.53.79"/><path fill="#0f7504" d="M16.7 27.64c0 2.04.73 3.9 1.95 5.35a8.34 8.34 0 0 0 1.95-5.35c0-2.04-.73-3.9-1.95-5.35a8.27 8.27 0 0 0-1.95 5.35"/><path fill="#0c5e87" d="M5.05 23.43c1.01.44 2.13.68 3.3.68 3.07 0 5.75-1.67 7.2-4.14a8.3 8.3 0 0 0-3.3-.68 8.36 8.36 0 0 0-7.2 4.14"/><path fill="#6b0001" d="M10.24 7.65c-.02.23-.04.47-.04.7 0 3.96 2.76 7.26 6.46 8.12.02-.23.04-.47.04-.7 0-3.96-2.76-7.26-6.46-8.12"/><path fill="#fff" d="M11.02 26.61H9.71c-1.15 0-2.09-.93-2.09-2.08V12.71c0-1.15.94-2.08 2.09-2.08h16.37c1.15 0 2.09.94 2.09 2.08v11.81c0 1.15-.94 2.08-2.09 2.08H20.5L9.31 32.08z"/></svg>