<svg xmlns="http://www.w3.org/2000/svg" viewBox="0 0 182.81 204.12"><g stroke-width=".651"><path fill="url(#a)" d="M40.877 194.58c-3.164-7.545-39.784-95.563-39.784-95.563s-8.55-20.306 22.177-34.734 68.133-32.597 68.133-32.597v137.93s-22.143 21.957-30.902 30.759c-7.958 8-16.448 1.778-19.625-5.798z"/><path fill="url(#b)" d="M141.93 194.58c3.164-7.545 39.784-95.563 39.784-95.563s8.55-20.306-22.177-34.734-68.133-32.597-68.133-32.597v137.93s22.143 21.957 30.902 30.759c7.958 8 16.448 1.778 19.625-5.798z"/><path fill="url(#c)" d="M91.404 31.689 27.9.882S14.371-5.08 17.761 13.987l8.677 48.809z"/><path fill="url(#d)" d="M91.404 31.689 154.908.882s13.529-5.962 10.139 13.105l-8.677 48.809z"/></g><defs><linearGradient id="a" x2="1" gradientTransform="rotate(100.27 50.09 32.965)scale(256.33)" gradientUnits="userSpaceOnUse"><stop offset="0" stop-color="red"/><stop offset="1" stop-color="#900"/></linearGradient><linearGradient id="b" x2="1" gradientTransform="scale(-230.25 230.25)rotate(-62.438 .448 .91)" gradientUnits="userSpaceOnUse"><stop offset="0" stop-color="red"/><stop offset="1" stop-color="#900"/></linearGradient><linearGradient id="c" x2="1" gradientTransform="rotate(59.812 20.355 8.397)scale(254.44)" gradientUnits="userSpaceOnUse"><stop offset="0" stop-color="#900" stop-opacity=".65"/><stop offset="1" stop-color="#fe0000" stop-opacity=".65"/></linearGradient><linearGradient id="d" x2="1" gradientTransform="rotate(100.27 50.09 32.965)scale(256.33)" gradientUnits="userSpaceOnUse"><stop offset="0" stop-color="red" stop-opacity=".65"/><stop offset="1" stop-color="#900" stop-opacity=".65"/></linearGradient></defs></svg>