<svg xmlns="http://www.w3.org/2000/svg" viewBox="0 0 50.8 42.333"><linearGradient id="a" x1="67.733" x2="67.733" y1="31.883" y2="50.933" gradientUnits="userSpaceOnUse"><stop offset="0" stop-color="#91e12a"/><stop offset="1" stop-color="#7b8a49"/></linearGradient><linearGradient id="d" x1="84.667" x2="84.667" y1="23.416" y2="65.75" gradientUnits="userSpaceOnUse"><stop offset="0" stop-color="#2263ea"/><stop offset="1" stop-color="#33c0f4"/></linearGradient><linearGradient id="b" x1="50.8" x2="50.8" y1="23.416" y2="65.75" gradientUnits="userSpaceOnUse"><stop offset="0" stop-color="#e12400"/><stop offset="1" stop-color="#febe00"/></linearGradient><linearGradient id="e" x1="52.917" x2="52.917" y1="40.35" y2="65.75" gradientUnits="userSpaceOnUse"><stop offset="0" stop-color="#f6d339"/><stop offset="1" stop-color="#ffd55f"/></linearGradient><linearGradient id="f" x1="82.55" x2="82.55" y1="40.35" y2="65.75" gradientUnits="userSpaceOnUse"><stop offset="0" stop-color="#99def2"/><stop offset="1" stop-color="#84d2f8"/></linearGradient><path fill="url(#a)" d="m61.383 40.35 6.35-8.467 6.35 8.467-6.35 10.583z" transform="translate(-42.333 -23.416)"/><path fill="url(#b)" d="m50.8 23.416-8.467 42.333 19.05-25.4z" transform="translate(-42.333 -23.416)"/><path fill="url(#d)" d="m93.133 65.75-19.05-25.4 10.583-16.933z" transform="translate(-42.333 -23.416)"/><path fill="url(#e)" d="m42.333 65.75 19.05-25.4 6.35 10.583-8.467 14.817z" transform="translate(-42.333 -23.416)"/><path fill="url(#f)" d="m67.733 50.933 6.35-10.583 19.05 25.4H76.2z" transform="translate(-42.333 -23.416)"/></svg>