<svg xmlns="http://www.w3.org/2000/svg" version="1.2" viewBox="0 0 768.05 725.49"><path d="M0 523.8S167.5-21.5 414.9 7.3c120.4 14.1 130.5 297.2 130.5 297.2s-54.6-159.2-169.5-156.2C255 151.4 171.3 230.9 0 523.8" fill="#0e63a4"/><path d="M494.3 0s388.6 417.7 239.8 617.5C661.8 714.8 411.5 582 411.5 582s165.2 32.3 220.1-68.7C689.3 407 662.3 294.8 494.3 0" fill="#f96d2b"/><path d="M700.8 690s-556 127.6-654.7-101.1C-2 477.6 238.2 327.3 238.2 327.3s-110.6 126.9-50.6 225c63.2 103 173.8 135.8 513.2 137.7" fill="#4c9b4c"/></svg>