<svg xmlns="http://www.w3.org/2000/svg" fill="none" viewBox="0 0 512 295.97"><path fill="#0b100f" d="M507.28.08h-4.88c-25.679-.04-46.518 20.756-46.518 46.432v103.84c0 20.737-17.139 37.534-37.538 37.534-12.12 0-24.219-6.099-31.399-16.337l-106.06-151.47C272.085 7.501 257.766.003 242.267.003c-24.18 0-45.939 20.556-45.939 45.932v104.44c0 20.737-16.999 37.534-37.538 37.534-12.16 0-24.239-6.099-31.419-16.337L8.691 2.062C6.011-1.779-.009.121-.009 4.8v90.564c0 4.579 1.4 9.018 4.02 12.778l116.8 166.79c6.9 9.858 17.08 17.177 28.819 19.836 29.379 6.679 56.418-15.937 56.418-44.752v-104.38c0-20.736 16.799-37.533 37.538-37.533h.06c12.5 0 24.22 6.099 31.399 16.337l106.08 151.45c8.82 12.597 22.399 20.076 38.599 20.076 24.719 0 45.898-20.576 45.898-45.932v-104.42c0-20.736 16.799-37.533 37.538-37.533h4.14c2.6 0 4.7-2.1 4.7-4.699V4.779c0-2.6-2.1-4.7-4.7-4.7z"/></svg>