<svg xmlns="http://www.w3.org/2000/svg" viewBox="0 0 123.29 219.71"><g fill-rule="evenodd"><path fill="#c5c5c5" d="M14.29 150.08c-11.983 1.676-12.538 24.458-9.8 37.275 1.848 8.644 11.427 12.052 15.988 7.157 2.59-2.78 1.96-8.838 2.65-16.956"/><path fill="#fdfdfd" d="M10.45 150.85c-11.465 18.011-7.02 31.201-1.921 44.192-1.556-14.95-1.626-29.752 1.921-44.192"/><path fill="#c5c5c5" d="M98.638 183.9c-7.842 2.436-13.609 6.533-16.332 13.066 8.384 11.147 15.063 32.612 30.934 15.371 18.249-28.383 3.032-34.955-6.248-30.965-5.26 2.261-3.78 5.799-5.989 7.236"/><path fill="#fdfdfd" d="m115.835 180.73-7.686 7.686-12.297 25.554 6.82 5.187 8.84-3.65 10.76-19.887-2.69-12.201z"/><path fill="#f9d119" stroke="#6d6d6d" stroke-width="2.152" d="M32.191 75.14 15.208 96.878l81.508.176-26.515-23.633z"/><path fill="#e9b2a4" stroke="#6d6d6d" stroke-width="2.013" d="m48.246 17.11 12.802 10.451c-3.815-16.877-25.282-29.604-31.153-25.9-3.92 2.473 7.2 12.254 18.351 15.449z"/><path fill="#f5c9be" d="m26.615 53.96 33.616 6.112 8.808-4.135c-2.917-11.145-4.939-22.29-10.786-33.436l-7.73-6.112-13.436 4.28C32.004 9.259.26 4.162 1.856 13.54c-6.85 4.673 29.094 9.71 31.4 14.9z"/><path fill="#fdfdfd" stroke="#6d6d6d" stroke-linecap="round" stroke-linejoin="round" stroke-width="1.51" d="M53.167 34.3c-2.004-3.27-5.398-4.061-7.055-3.505-7.959 2.67-4.116 18.58-5.02 23.335 9.045-1.726 17.932-4.34 27.582-2.16l-5.211-18.306c-4.47-4.633-7.353-2.706-10.296.636"/><path fill="#fdfdfd" d="M25.357 51.26c-6.998 3.236-7.162 6.472-10.246 9.708l-2.337 4.314 5.932-1.978-.899 6.652c2.852 2.08 5.22 4.4 11.325 4.853l7.191.72c11.575 5.394 23.32 4.65 35.233-2.158l5.393-6.472 5.166 1.234-2.29-6.627c3.183-5.962-4.926-5.073-11.817-5.836-14.01 4.97-26.718-5.833-42.652-4.41z"/><path fill="#6d6d6d" d="M42.577 62.67c-10.176 2.735-2.926 8.174 4.07 9.198 9.274 1.359 23.552.086 26.343-3.862l-30.013-4.802z"/><path fill="#f5c9be" stroke="#6d6d6d" stroke-linecap="round" stroke-linejoin="round" stroke-width="2.152" d="m9.59 104.2-3.602 3.993c-6.8 7.54-7.766 19.956 5.038 23.905"/></g><g fill="none" stroke="#6d6d6d" stroke-linecap="round" stroke-linejoin="round"><path stroke-width="2.013" d="M28.381 50.54c.78-6.271 2.45-16.481 5.215-22.752-18.933-9.451-32.524-5.937-32.298-13.884.364-12.833 27.555-2.244 36.63 6.084"/><path stroke-width="2.013" d="M35.372 24.01c19.379-20.808 29.751 7.871 34.066 30.888"/><path stroke-width="1.51" d="M41.346 29.34c1.307-4.874 8.963-4.48 10.805-1.271m4.448-.119c.219-.231 2.404-1.778 3.686.128"/></g><path fill="#f5c9be" fill-rule="evenodd" d="M40.891 68.89c1.959 2.015 4.4 3.478 8.112 3.49-1.715-3.438-3.905-5.784-8.112-3.49"/><g stroke="#6d6d6d"><path fill="none" stroke-linecap="round" stroke-linejoin="round" stroke-width="2.013" d="M35.508 74.7c-3.363 2.197-24.632-.785-15.898-11.037-1.046-.854-3.786.414-6.101 1.144-.155-3.092 3.159-7.18 8.262-7.754-.366-.085-2.216 1.101-5.212 1.017 6.764-15.381 28.255-2.066 42.964-.89 7.845.627 17.438-7.612 23.007 3.814l-3.05-.763c2.247 1.53 3.336 3.843 2.16 8.135l-3.432-2.16c-6.447 3.805-31.047-2.19-36.566-3.713-4.035-1.113-5.412 5.555.447 8.547 7.46 3.81 27.989 1.784 30.302-3.04"/><path fill="#fdfdfd" fill-rule="evenodd" stroke-width="1.615" d="M50.562 65.29c3.755 2.559 5.155 5.118 5.807 7.677l7.777.91c1.745-2.118 2.223-3.944 1.739-6.284-3.388-.822-11.931-1.602-15.323-2.303z"/><path fill="none" stroke-linecap="round" stroke-linejoin="round" stroke-width="2.013" d="M31.431 71.54c9.7 9.34 35.46 10.735 45.226-3.977"/></g><path fill="#89c3f5" fill-rule="evenodd" d="m34.155 137.02 41.811-2.306 22.865 48.803c-6.844 3.294-12.232 7.558-16.908 12.297-5.348-8.025-9.518-16.232-10.183-24.978-5.475-7.237-8.096-14.475-11.144-21.712l-6.533-.768c-5.697 29.858-16.298 45.762-40.734 22.288l1.537-19.406 13.45 6.725z"/><g stroke="#6d6d6d"><g fill="none" stroke-linecap="round" stroke-linejoin="round" stroke-width="2.152"><path d="M33.311 137.78c-.207 8.886-3.976 18.96-7.11 28.821m48.228-32.661 26.323 52.166M48.298 148.35c5.172.298 7.473 1.455 19.598-.195m-7.404 1.875c3.84 8.835 6.67 20.828 17.564 27.602"/><path d="M71.205 172.19c1.12 8.15 3.502 16.505 10.465 24.041M98.638 183.9c-7.842 2.436-13.609 6.533-16.332 13.066 8.384 11.147 18.75 32.229 30.934 15.371 19.351-26.772 2.663-35.089-6.248-30.965-5.195 2.404-5.954 8.584-8.162 10.021"/></g><path fill="#fdfdfd" fill-rule="evenodd" stroke-linecap="round" stroke-linejoin="round" stroke-width="1.076" d="M100.752 185.24c-6.17 2.671-9.535 5.995-12.489 9.415l4.227 2.882c1.008-1.995 3.595-3.626 6.376-6.329z"/><g fill="none"><path stroke-linecap="round" stroke-linejoin="round" stroke-width="1.614" d="M115.93 181.02c-7.985 2.377-13.79 22.59-20.366 32.952"/><path stroke-width="1.614" d="M120.734 184.86c-9.095-5.316-15.014 19.531-22.288 31.511m13.065-26.801 10.472 3.651M107.669 196l12.297 4.131m-14.699 1.829 11.817 4.42m-14.603 2.02 9.8 3.843"/><path stroke-linecap="round" stroke-linejoin="round" stroke-width="2.152" d="M54.638 149.12c-4.309 16.271-8.78 26.844-14.105 30.763-6.174 4.542-15.075-.718-26.933-8.667-1.907-7.11-.49-14.219 1.921-21.327 4.127 2.862 7.806 6.255 12.41 7.685"/><path stroke-linecap="round" stroke-linejoin="round" stroke-width="2.152" d="M14.29 150.08c-11.983 1.676-12.538 24.458-9.8 37.275 1.848 8.644 11.427 12.052 15.988 7.157 2.59-2.78 1.96-8.838 2.65-16.956"/><path stroke-width="1.614" d="M11.86 150.7c-6.661 12.297-4.766 31.659-2.746 43.956"/></g><path fill="#fdfdfd" fill-rule="evenodd" stroke-linecap="round" stroke-linejoin="round" stroke-width="1.076" d="M22.935 177.94c-2.911.262-6.778-1.387-10.76-3.267l-.577 4.996c3.587 2.116 7.174 2.542 10.76 2.882z"/><path fill="#c3c3c3" stroke-linecap="round" stroke-linejoin="round" stroke-width="2.265" d="M-164.43 581.72h100.96v59.832h-100.96z" transform="matrix(.99605 -.08884 .08318 .99653 121.85 -512.58)"/></g><path fill="#fdfdfd" d="m10.74 84.98 92.524-8.205 4.54 52.334-92.66 7.73z"/><g fill-rule="evenodd"><path fill="#f7d6ce" d="m87.835 90.18-9.376 6.365 17.608 13.873 9.338-6.67z"/><path fill="#fce57d" d="m27.366 83 47.071-4.022 14.624 11.44-11.306 7.436-5.454-2.456-1.124.754L74 131.43l-40.18 3.773-.378-32.824-4.716 2.64-10.941-10.752z"/><path fill="#f7d6ce" d="m17.5 95.88 11.072 9.737-5.736 6.003-10.578-1.067-.317-9.003z"/><path fill="#c5c5c5" d="m48.874 81.56 13.642-1.16s-11.826 19.393-5.572 25.322c5.96 5.651 18.544-13.22 23.633-6.765 7.785 9.876-18.253 33.054-18.253 33.054l-14.603 1.353s14.831-13.378 10.183-18.75c-3.686-4.26-11.427 9.59-15.755 5.992-10.123-8.412 6.725-39.046 6.725-39.046"/></g><g fill="#9d9d9d" fill-rule="evenodd"><path d="m-47.507 591.89 12.995 10.538-9.756 7.143-4.986-3.261c-1.259-.825-2.199-.003-2.118 1.498l1.896 35.463-36.23 3.723-.647-33.784c-.024-1.243-1.467-1.914-2.434-1.132l-4.506 4.256-10.157-9.466 9.555-11.249-3.822.28-8.28 10.153a1.494 1.494 0 0 0 .019 2.078l11.5 11.263c.541.547 1.41.596 2.008.11l3.182-3.176.484 30.16a1.493 1.493 0 0 0 1.605 1.465l39.462-3.029a1.495 1.495 0 0 0 1.371-1.622l-1.404-33.15c.987.977 2.715 2.1 3.986 2.683l12.3-8.847c.732-.493.88-1.508.321-2.189l-12.8-10.432z" color="#000" style="isolation:auto;mix-blend-mode:normal;text-decoration-color:#000;text-decoration-line:none;text-decoration-style:solid;text-indent:0;text-transform:none;white-space:normal" transform="translate(121.85 -512.58)"/><path d="m-105.44 607.83-4.54 5.253.54 3.199 6.375-6.643zm11.083 9.652-6.101 6.54-6.477-.69-.718 2.9 8.063.511 6.822-7.44z" color="#000" style="isolation:auto;mix-blend-mode:normal;text-decoration-color:#000;text-decoration-line:none;text-decoration-style:solid;text-indent:0;text-transform:none;white-space:normal" transform="translate(121.85 -512.58)"/><path d="m89.624 89.56-3.207 1.32 18.449 12.707 1.072-.61.188-1.698z"/></g><path fill="none" stroke="#6d6d6d" stroke-linecap="round" stroke-linejoin="round" stroke-width="1.139" d="M-163.13 585.32h93.907v53.201h-93.907z" transform="matrix(.99639 -.0849 .08705 .9962 121.85 -512.58)"/><g fill="#f5c9be" fill-rule="evenodd"><path d="m8.04 110.19 13.315 3.26 3.26 4.076-.407 4.891.408 3.261-3.261 1.359-13.586 2.31c.09-6.386-3.726-12.771.272-19.157z"/><g stroke="#6d6d6d" stroke-linecap="round" stroke-linejoin="round" stroke-width="2.152"><path d="M5.99 129.71c6.821 4.3 20.353-1.302 13.422-3.557"/><path d="M15.42 126.21c1.846.255 5.703.932 7.86.152 1.898-.688 2.533-2.968-.163-4.961"/><path d="M14.47 120.7c4.318.541 12.572 1.939 11.032-2.408-.345-.976-1.129-1.393-3.158-2.144"/><path d="M14.69 116.29c1.707.298 7.578 1.21 8.03-1.14.68-3.53-7.619-3.243-14.138-4.304"/></g></g><path fill="#6d6d6d" d="M51.896 42.63a2.987 6.42 0 0 1-2.987 6.42 2.987 6.42 0 0 1-2.987-6.42 2.987 6.42 0 0 1 2.987-6.42 2.987 6.42 0 0 1 2.987 6.42"/><path fill="#fdfdfd" d="m49.494 43.53-5.167 2.983v-5.966z"/><path fill="#6d6d6d" d="M63.59 42.245a2.987 6.42 0 0 1-2.987 6.42 2.987 6.42 0 0 1-2.987-6.42 2.987 6.42 0 0 1 2.987-6.419 2.987 6.42 0 0 1 2.987 6.42"/><path fill="#fdfdfd" d="M61.187 43.146 56.02 46.13v-5.967z"/><path fill="#6d6d6d" d="M66.378 56.1a5.652 2.86 0 0 1-5.652 2.86 5.652 2.86 0 0 1-5.652-2.86 5.652 2.86 0 0 1 5.652-2.86 5.652 2.86 0 0 1 5.652 2.86"/><path fill="#fdfdfd" d="M63.142 55.29a2.102 1.064 0 0 1-2.102 1.063 2.102 1.064 0 0 1-2.101-1.063 2.102 1.064 0 0 1 2.101-1.064 2.102 1.064 0 0 1 2.102 1.064"/><path fill="#9d9d9d" fill-rule="evenodd" d="m79.352 96.63-3.207 1.32 17.723 12.552h1.886l.189-1.697z"/><g fill="#f5c9be" fill-rule="evenodd"><path stroke="#6d6d6d" stroke-linecap="round" stroke-linejoin="round" stroke-width="4" d="M-163.82 512.54c-20.056 10.486-24.95 39.848 2.752 48.393" transform="matrix(-.43737 0 0 .51104 37.175 -163.69)"/><path d="m108.86 102.96-10.825 3.098-2.65 3.872.331 4.646-.331 3.097 2.65 1.29 11.046 2.195z"/><g stroke="#6d6d6d" stroke-linecap="round" stroke-linejoin="round" stroke-width="4"><path d="M-167.71 558.07c12.679 7.992 37.831-2.42 24.948-6.612" transform="matrix(-.43737 0 0 .51104 37.175 -163.69)"/><path d="M-150.19 551.57c3.432.474 10.6 1.733 14.611.28 3.527-1.28 4.708-5.517-.303-9.222" transform="matrix(-.43737 0 0 .51104 37.175 -163.69)"/><path d="M-151.95 541.32c8.027 1.007 23.368 3.604 20.506-4.476-.642-1.814-2.098-2.59-5.871-3.986" transform="matrix(-.43737 0 0 .51104 37.175 -163.69)"/><path d="M-151.54 533.12c3.172.556 13.854 2.202 14.926-2.119 1.643-6.622-6.547-4.373-25.101-8" transform="matrix(-.43737 0 0 .51104 37.175 -163.69)"/></g></g><path fill="none" stroke="#6d6d6d" stroke-linecap="round" stroke-linejoin="round" stroke-width=".747" d="M60.251 66.67c.39 1.445.833 2.89.533 4.335"/><path fill="#fdfdfd" fill-rule="evenodd" stroke="#6d6d6d" stroke-linecap="round" stroke-linejoin="round" d="M5.35 13.18c3.621-3.721 18.695 1.338 27.143 8.75-10.858-4.698-30.075-5.737-27.143-8.75"/></svg>