<svg xmlns="http://www.w3.org/2000/svg" fill="none" viewBox="0 0 30 30"><g fill="#262626"><path d="M15.802 7.83c.476 1.157.208 2.348-.598 2.661s-1.845-.372-2.32-1.53c-.476-1.157-.208-2.348.598-2.66s1.844.372 2.32 1.529zM29.25 21.952c.447.514.81 1.07.742 1.733-.068.664-.683.929-1.093.995-.41.067-8.471 1.128-9.36 1.195-.785.059-.93-.039-1.236-.246-.138-.09-3.287-3.084-4.844-4.57-.769-.557-1.465-.999-1.956-1.183-.452-.17-.632-.783-.211-1.14l1.048-.886a.697.697 0 0 1 .952.053c.298.26 1.275 1.328 1.726 1.83a971 971 0 0 1 4.112 3.952c.751.265 2.55-.066 2.937-.199 0 0-2.636-3.272-3.175-3.68-.54-.407-1.024-.721-1.401-.872-.789-.416-.432-.958-.155-1.177l1.14-.81a.696.696 0 0 1 .91.089c1.417 1.774 4.403 5.455 5.004 5.985.752.266 2.505-.022 2.938-.199L21.9 16.076c-.871-.737-1.677-1.341-2.232-1.572-.441-.184-.613-.81-.165-1.154l1.154-.89c.195-.118.66-.262.96.109l.792.964z"/><path d="M11.848 1.99c-1.277 0-2.684.301-4.19 1.05-3.153 1.564-4.802 4.79-5.323 7.162-.732 3.33-.315 6.834.89 9.049.85 1.563 1.542 2.372 2.918 3.522 2.086 1.742 3.67 2.514 6.391 2.848.866.106 2.233.065 2.233.065.289.008.564.121.771.316l1.408 1.32 1.586 1.387c.28.244.102.694-.274.694h-1.78c-.282 0-.536-.243-.628-.365a54 54 0 0 0-1.488-1.372l-1.767-.052-.525 1.987a.544.544 0 0 1-.53.4h-.704a.535.535 0 0 1-.532-.655l.471-1.912a8.5 8.5 0 0 1-1.151-.313l-.734 2.494a.544.544 0 0 1-.525.385h-.788a.534.534 0 0 1-.527-.669l.836-3.016c-1.675-.768-3.149-2.094-3.149-2.094-1.125-.87-2.335-2.558-2.8-3.294C.759 18.94.396 17.744.092 15.469c-.22-1.64 0-4.409.229-5.631C1.195 6.3 2.884 3.242 6.59 1.34 8.467.376 10.276 0 11.847 0c1.599 0 3.697.507 5.26 1.309 1.55.794 2.317 1.518 3.36 2.536.327.32 1.16.95 1.869.9.45.059 1.71.013 3.155-.644.747-.263 1.267.255 1.43.53.181.286.379.982-.285 1.481l-4.853 3.652c-.223.362-.388.698-.451.983-.227.91-.984.502-1.276.312S19.1 9.902 19.1 9.902a.65.65 0 0 1 .134-.954 55 55 0 0 1 2.418-1.602l.81-.609c-.594.045-2.102-.177-3.385-1.426 0 0-1.636-1.59-2.925-2.24-1.542-.779-3.056-1.08-4.304-1.08z"/></g></svg>