<svg viewBox="0 0 62.002 55" xmlns="http://www.w3.org/2000/svg"><path d="M17.891 0a4.92 4.92 0 00-4.16 2.4L.621 25.1a4.93 4.93 0 000 4.79l13.11 22.71a4.92 4.92 0 004.16 2.4h26.22a4.92 4.92 0 004.16-2.4l13.11-22.7a4.93 4.93 0 000-4.79L48.271 2.4a4.92 4.92 0 00-4.16-2.4zm.24 13.28h4.63a.6.6 0 01.49.29l7.67 13.63a.59.59 0 01.07.22.59.59 0 01.07-.22l7.65-13.63a.6.6 0 01.51-.29h4.52a.62.62 0 01.51.86l-7.46 13.36 7.49 13.34a.62.62 0 01-.51.88h-4.53a.6.6 0 01-.51-.31l-7.66-13.64a.59.59 0 01-.07-.22.59.59 0 01-.07.22l-7.68 13.64a.6.6 0 01-.49.31h-4.52a.62.62 0 01-.51-.88l7.48-13.34-7.49-13.36a.61.61 0 01.4-.86z" fill="#3498db"/></svg>
