<svg xmlns="http://www.w3.org/2000/svg" xmlns:xlink="http://www.w3.org/1999/xlink" fill="none" viewBox="0 0 74.689 76.367"><linearGradient id="i" x1="42.465" x2="42.465" y1="75.813" y2="9.153" gradientTransform="translate(-9.164 -3.652)" gradientUnits="userSpaceOnUse"><stop offset="0" stop-color="#1578e4"/><stop offset="1" stop-color="#00c3f2"/></linearGradient><linearGradient id="a"><stop offset="0" stop-color="#1492e7"/><stop offset="1" stop-color="#dbedfb"/></linearGradient><linearGradient xlink:href="#a" id="j" x1="62.446" x2="62.446" y1="52.903" y2="47.935" gradientTransform="translate(-9.164 -3.652)" gradientUnits="userSpaceOnUse"/><linearGradient xlink:href="#a" id="k" x1="59.13" x2="59.13" y1="52.903" y2="47.935" gradientTransform="translate(-9.164 -3.652)" gradientUnits="userSpaceOnUse"/><linearGradient xlink:href="#a" id="m" x1="42.465" x2="42.465" y1="52.903" y2="47.935" gradientTransform="translate(-9.164 -3.652)" gradientUnits="userSpaceOnUse"/><linearGradient xlink:href="#a" id="n" x1="39.148" x2="39.148" y1="52.903" y2="47.935" gradientTransform="translate(-9.164 -3.652)" gradientUnits="userSpaceOnUse"/><linearGradient xlink:href="#a" id="o" x1="35.832" x2="35.832" y1="52.903" y2="47.935" gradientTransform="translate(-9.164 -3.652)" gradientUnits="userSpaceOnUse"/><linearGradient xlink:href="#a" id="p" x1="32.514" x2="32.514" y1="52.903" y2="47.935" gradientTransform="translate(-9.164 -3.652)" gradientUnits="userSpaceOnUse"/><linearGradient xlink:href="#a" id="q" x1="29.198" x2="29.198" y1="52.903" y2="47.935" gradientTransform="translate(-9.164 -3.652)" gradientUnits="userSpaceOnUse"/><linearGradient xlink:href="#a" id="r" x1="25.8" x2="25.8" y1="52.903" y2="47.935" gradientTransform="translate(-9.164 -3.652)" gradientUnits="userSpaceOnUse"/><linearGradient xlink:href="#a" id="t" x1="22.483" x2="22.483" y1="52.903" y2="47.935" gradientTransform="translate(-9.164 -3.652)" gradientUnits="userSpaceOnUse"/><linearGradient id="c"><stop offset="0" stop-color="#1285e7"/><stop offset="1" stop-color="#00b5ef"/></linearGradient><linearGradient xlink:href="#c" id="u" x1="48.862" x2="48.862" y1="62.588" y2="21.676" gradientTransform="translate(-9.164 -3.652)" gradientUnits="userSpaceOnUse"/><linearGradient id="w" x1="58.082" x2="35.913" y1="62.407" y2="24.01" gradientTransform="translate(-9.164 -3.652)" gradientUnits="userSpaceOnUse"><stop offset="0" stop-color="#2b90e7"/><stop offset="1" stop-color="#00b6ef"/></linearGradient><linearGradient id="x" x1="59.15" x2="36.246" y1="62.639" y2="22.969" gradientTransform="translate(-9.164 -3.652)" gradientUnits="userSpaceOnUse"><stop offset="0" stop-color="#3795ea"/><stop offset="1" stop-color="#49c4f2"/></linearGradient><linearGradient id="y" x1="60.447" x2="37.235" y1="62.246" y2="22.042" gradientTransform="translate(-9.164 -3.652)" gradientUnits="userSpaceOnUse"><stop offset="0" stop-color="#3696ea"/><stop offset="1" stop-color="#90d9f6"/></linearGradient><linearGradient id="z" x1="61.48" x2="38.559" y1="61.314" y2="21.613" gradientTransform="translate(-9.164 -3.652)" gradientUnits="userSpaceOnUse"><stop offset="0" stop-color="#3097ea"/><stop offset="1" stop-color="#b5e5f9"/></linearGradient><linearGradient id="A" x1="61.813" x2="39.672" y1="60.221" y2="21.872" gradientTransform="translate(-9.164 -3.652)" gradientUnits="userSpaceOnUse"><stop offset="0" stop-color="#3a98ea"/><stop offset="1" stop-color="#bce7fa"/></linearGradient><linearGradient id="d"><stop offset="0" stop-color="#00a4ec"/><stop offset="1" stop-color="#b9dff6"/></linearGradient><linearGradient xlink:href="#d" id="B" x1="45.144" x2="49.444" y1="40.658" y2="38.175" gradientTransform="translate(-9.164 -3.652)" gradientUnits="userSpaceOnUse"/><linearGradient xlink:href="#d" id="C" x1="43.487" x2="47.787" y1="37.789" y2="35.306" gradientTransform="translate(-9.164 -3.652)" gradientUnits="userSpaceOnUse"/><linearGradient id="e"><stop offset="0" stop-color="#00b4ef"/><stop offset="1" stop-color="#c3e9fa"/></linearGradient><linearGradient xlink:href="#e" id="D" x1="38.469" x2="42.742" y1="29.098" y2="26.632" gradientTransform="translate(-9.164 -3.652)" gradientUnits="userSpaceOnUse"/><linearGradient xlink:href="#e" id="F" x1="36.805" x2="41.105" y1="26.215" y2="23.732" gradientTransform="translate(-9.164 -3.652)" gradientUnits="userSpaceOnUse"/><linearGradient xlink:href="#c" id="G" x1="36.235" x2="36.235" y1="62.688" y2="21.777" gradientTransform="translate(-9.164 -3.652)" gradientUnits="userSpaceOnUse"/><linearGradient id="H" x1="27.015" x2="49.183" y1="62.509" y2="24.113" gradientTransform="translate(-9.164 -3.652)" gradientUnits="userSpaceOnUse"><stop offset="0" stop-color="#3194e9"/><stop offset="1" stop-color="#71cff4"/></linearGradient><linearGradient id="I" x1="25.94" x2="48.846" y1="62.742" y2="23.067" gradientTransform="translate(-9.164 -3.652)" gradientUnits="userSpaceOnUse"><stop offset="0" stop-color="#5aa6ec"/><stop offset="1" stop-color="#a2def8"/></linearGradient><linearGradient id="K" x1="24.649" x2="47.86" y1="62.346" y2="22.142" gradientTransform="translate(-9.164 -3.652)" gradientUnits="userSpaceOnUse"><stop offset="0" stop-color="#66abee"/><stop offset="1" stop-color="#bee8fa"/></linearGradient><linearGradient id="L" x1="23.619" x2="46.541" y1="61.414" y2="21.713" gradientTransform="translate(-9.164 -3.652)" gradientUnits="userSpaceOnUse"><stop offset="0" stop-color="#7bb6f0"/><stop offset="1" stop-color="#b1e3f9"/></linearGradient><linearGradient id="M" x1="23.279" x2="45.432" y1="60.345" y2="21.975" gradientTransform="translate(-9.164 -3.652)" gradientUnits="userSpaceOnUse"><stop offset="0" stop-color="#5aa6ec"/><stop offset="1" stop-color="#afe3f9"/></linearGradient><linearGradient id="f"><stop offset="0" stop-color="#c1e7fa"/><stop offset="1" stop-color="#89d4f5"/></linearGradient><linearGradient xlink:href="#f" id="N" x1="44.069" x2="48.369" y1="23.7" y2="26.183" gradientTransform="translate(-9.164 -3.652)" gradientUnits="userSpaceOnUse"/><linearGradient xlink:href="#f" id="P" x1="42.404" x2="46.705" y1="26.582" y2="29.065" gradientTransform="translate(-9.164 -3.652)" gradientUnits="userSpaceOnUse"/><linearGradient xlink:href="#f" id="Q" x1="40.689" x2="44.989" y1="29.554" y2="32.036" gradientTransform="translate(-9.164 -3.652)" gradientUnits="userSpaceOnUse"/><linearGradient id="R" x1="39.021" x2="43.321" y1="32.443" y2="34.926" gradientTransform="translate(-9.164 -3.652)" gradientUnits="userSpaceOnUse"><stop offset="0" stop-color="#b0dff8"/><stop offset="1" stop-color="#52bdf2"/></linearGradient><linearGradient id="g"><stop offset="0" stop-color="#b4def8"/><stop offset="1" stop-color="#4eb5f0"/></linearGradient><linearGradient xlink:href="#g" id="S" x1="37.354" x2="41.655" y1="35.331" y2="37.814" gradientTransform="translate(-9.164 -3.652)" gradientUnits="userSpaceOnUse"/><linearGradient xlink:href="#g" id="T" x1="35.687" x2="39.986" y1="38.219" y2="40.701" gradientTransform="translate(-9.164 -3.652)" gradientUnits="userSpaceOnUse"/><linearGradient id="U" x1="34.026" x2="38.325" y1="41.096" y2="43.578" gradientTransform="translate(-9.164 -3.652)" gradientUnits="userSpaceOnUse"><stop offset="0" stop-color="#b5ddf8"/><stop offset="1" stop-color="#46aeee"/></linearGradient><linearGradient id="V" x1="32.363" x2="36.664" y1="43.974" y2="46.457" gradientTransform="translate(-9.164 -3.652)" gradientUnits="userSpaceOnUse"><stop offset="0" stop-color="#96cef4"/><stop offset="1" stop-color="#46aaee"/></linearGradient><linearGradient id="h"><stop offset="0" stop-color="#8fc1f2"/><stop offset="1" stop-color="#3193ea"/></linearGradient><linearGradient xlink:href="#h" id="W" x1="28.368" x2="31.663" y1="53.215" y2="55.117" gradientTransform="translate(-9.164 -3.652)" gradientUnits="userSpaceOnUse"/><linearGradient xlink:href="#h" id="X" x1="25.655" x2="29.956" y1="55.593" y2="58.076" gradientTransform="translate(-9.164 -3.652)" gradientUnits="userSpaceOnUse"/><linearGradient xlink:href="#h" id="Y" x1="23.989" x2="28.288" y1="58.479" y2="60.962" gradientTransform="translate(-9.164 -3.652)" gradientUnits="userSpaceOnUse"/><linearGradient id="Z" x1="50.948" x2="59.22" y1="43.12" y2="47.154" gradientTransform="translate(-9.164 -3.652)" gradientUnits="userSpaceOnUse"><stop offset=".001"/><stop offset="1" stop-opacity="0"/></linearGradient><radialGradient id="aa" cx="0" cy="0" r="1" gradientTransform="matrix(-4.8289 9.5987 -16.609 -8.3557 54.081 13.036)" gradientUnits="userSpaceOnUse"><stop offset="0"/><stop offset="1" stop-opacity="0"/></radialGradient><radialGradient id="ab" cx="0" cy="0" r="1" gradientTransform="matrix(4.7111 2.3096 -1.3147 2.6817 24.841 72.687)" gradientUnits="userSpaceOnUse"><stop offset=".417" stop-color="#0c0c12"/><stop offset="1" stop-color="#3d4651"/></radialGradient><linearGradient id="ac" x1="56.285" x2="62.769" y1="26.014" y2="29.318" gradientTransform="translate(-9.164 -3.652)" gradientUnits="userSpaceOnUse"><stop offset="0" stop-color="#344351"/><stop offset=".1" stop-color="#9697a0"/><stop offset=".181" stop-color="#8b8c95"/><stop offset=".351" stop-color="#787a83"/><stop offset=".47" stop-color="#71747d"/><stop offset=".591" stop-color="#777982"/><stop offset=".749" stop-color="#87898f"/><stop offset=".8" stop-color="#8e8f94"/><stop offset=".849" stop-color="#3d3b42"/><stop offset=".9" stop-color="#606e84"/></linearGradient><linearGradient id="ad" x1="78.282" x2="70.964" y1="19.429" y2="9.539" gradientTransform="translate(-9.164 -3.652)" gradientUnits="userSpaceOnUse"><stop offset=".27" stop-color="#262b33"/><stop offset=".45" stop-color="#74747e"/><stop offset=".54" stop-color="#b0b0bc"/><stop offset=".73" stop-color="#74747e"/></linearGradient><linearGradient id="ah" x1="65.438" x2="76.244" y1="20.203" y2="18.808" gradientTransform="translate(-9.164 -3.652)" gradientUnits="userSpaceOnUse"><stop offset=".14" stop-color="#606e84"/><stop offset=".4" stop-color="#9899a5"/><stop offset=".73" stop-color="#475768"/><stop offset=".92" stop-color="#262b33"/></linearGradient><linearGradient id="ai" x1="70.476" x2="69.427" y1="21.122" y2="15.176" gradientTransform="translate(-9.164 -3.652)" gradientUnits="userSpaceOnUse"><stop offset="0" stop-color="#101215" stop-opacity=".1"/><stop offset=".46" stop-color="#101215" stop-opacity=".7"/><stop offset=".7" stop-color="#474951"/><stop offset=".91" stop-color="#7b7d88"/></linearGradient><linearGradient id="aA" x1="38.603" x2="48.634" y1="54.268" y2="59.204" gradientTransform="translate(-9.164 -3.652)" gradientUnits="userSpaceOnUse"><stop offset=".115" stop-color="#2c3952"/><stop offset=".374" stop-color="#3d414e"/><stop offset=".55" stop-color="#474a54"/><stop offset=".754" stop-color="#4e5057"/><stop offset=".892" stop-color="#323945"/><stop offset="1" stop-color="#143052"/></linearGradient><linearGradient id="aB" x1="54.126" x2="61.884" y1="21.037" y2="4.016" gradientTransform="translate(-9.164 -3.652)" gradientUnits="userSpaceOnUse"><stop offset=".118" stop-color="#6d7078" stop-opacity="0"/><stop offset=".2" stop-color="#6d7078" stop-opacity=".7"/><stop offset=".34" stop-color="#35363a"/><stop offset=".374" stop-color="#1d1f22"/><stop offset=".4" stop-color="#101215"/><stop offset=".5" stop-color="#16171a"/><stop offset=".56" stop-color="#292a2e"/><stop offset=".688" stop-color="#4b4d51"/><stop offset=".807" stop-color="#63666b"/><stop offset=".915" stop-color="#72757b"/><stop offset="1" stop-color="#777a80"/></linearGradient><linearGradient id="aC" x1="45.863" x2="60.447" y1="11.181" y2="11.181" gradientTransform="translate(-9.164 -3.652)" gradientUnits="userSpaceOnUse"><stop offset="0" stop-color="#4a4d56"/><stop offset="1" stop-color="#29292d"/></linearGradient><linearGradient id="aD" x1="45.863" x2="58.473" y1="7.768" y2="7.768" gradientTransform="translate(-9.164 -3.652)" gradientUnits="userSpaceOnUse"><stop offset="0" stop-color="#767880"/><stop offset=".41" stop-color="#0c0a0b"/></linearGradient><linearGradient id="aE" x1="77.252" x2="82.149" y1="23.08" y2="14.597" gradientTransform="translate(-9.164 -3.652)" gradientUnits="userSpaceOnUse"><stop offset="0" stop-color="#858997"/><stop offset=".23" stop-color="#244668"/><stop offset=".282" stop-color="#1a3249"/><stop offset=".4" stop-color="#040506"/><stop offset=".464" stop-color="#313236"/><stop offset=".546" stop-color="#65656e"/><stop offset=".607" stop-color="#868691"/><stop offset=".64" stop-color="#92929e"/></linearGradient><path fill="url(#i)" d="M14.543 5.512h37.52c8.035 0 14.543 6.508 14.543 14.543v37.52c0 8.035-6.508 14.543-14.543 14.543h-37.52C6.508 72.118 0 65.61 0 57.575v-37.52C0 12.02 6.508 5.512 14.543 5.512"/><path fill="#fff" d="M50.934 9.098H15.672C8.965 9.098 3.52 14.543 3.52 21.25v35.262c0 6.707 5.445 12.152 12.152 12.152h35.262c6.707 0 12.152-5.446 12.152-12.152V21.184c0-6.707-5.445-12.086-12.152-12.086M62.09 56.645c0 6.11-4.914 11.023-11.023 11.023H15.54c-6.043 0-11.023-4.914-11.023-11.023V21.05c0-6.11 4.914-11.023 11.023-11.023h35.594c6.043 0 11.023 4.914 11.023 11.023v35.594z"/><path fill="#69c5f3" d="M33.402 11.488c-15.008 0-27.227 12.219-27.227 27.227s12.219 27.227 27.227 27.227c15.074 0 27.227-12.219 27.227-27.227S48.41 11.488 33.402 11.488m0 54.055c-14.809 0-26.828-12.02-26.828-26.828s12.02-26.828 26.828-26.828S60.23 23.907 60.23 38.715 48.21 65.543 33.402 65.543"/><path fill="#68c5f4" d="M33.402 17.066c-12.02 0-21.715 9.695-21.715 21.715s9.695 21.648 21.715 21.648 21.715-9.695 21.715-21.715-9.762-21.648-21.715-21.648m0 42.898c-11.754 0-21.25-9.496-21.25-21.25s9.496-21.25 21.25-21.25 21.25 9.496 21.25 21.25-9.562 21.25-21.25 21.25"/><path fill="#fff" d="M12.617 43.695h41.438a3.047 3.047 0 0 1 3.055 3.055 3.047 3.047 0 0 1-3.055 3.054H12.617a3.047 3.047 0 0 1-3.055-3.054c-.066-1.66 1.328-3.055 3.055-3.055"/><path fill="#0a93e9" d="M12.484 44.293h41.57a2.45 2.45 0 0 1 2.457 2.457v.067a2.45 2.45 0 0 1-2.457 2.456h-41.57a2.45 2.45 0 0 1-2.457-2.457v-.132c.066-1.328 1.129-2.391 2.457-2.391"/><path fill="#1694ea" d="M11.488 49.008h43.629l.332-.2H11.156z"/><path fill="#319dec" d="M10.492 48.211h45.555l.133-.2H10.36z"/><path fill="#65b1ee" d="M10.094 46.949h46.418v-.266H10.094z"/><path fill="#8ec6f3" d="M10.559 45.289h45.555l.067.133.066.133h-45.82l.066-.133z"/><path fill="#95caf3" d="M11.555 44.492h43.562l.2.066.198.133H11.156l.2-.133z"/><path fill="url(#j)" d="M52.859 44.293h-.332s1.129.797 1.129 2.59c0 1.66-1.129 2.39-1.129 2.39h.332s1.129-.53 1.129-2.39c0-1.992-1.129-2.59-1.129-2.59"/><path fill="url(#k)" d="M49.672 44.293h-.332s.996.93.996 2.59c0 1.46-.996 2.39-.996 2.39h.332s.996-.73.996-2.39c-.066-1.793-.996-2.59-.996-2.59"/><path fill="url(#m)" d="M33.137 44.293h.332v4.98h-.332z"/><path fill="url(#n)" d="M29.883 44.293h.332s-.133 1.262-.133 2.59c0 1.195.133 2.39.133 2.39h-.332s-.133-1.195-.133-2.39c0-1.328.133-2.59.133-2.59"/><path fill="url(#o)" d="M26.695 44.293h.332s-.332 1.262-.332 2.59c0 1.195.332 2.39.332 2.39h-.332s-.332-1.195-.332-2.39c0-1.328.332-2.59.332-2.59"/><path fill="url(#p)" d="M23.441 44.293h.332s-.465 1.262-.465 2.59c0 1.195.465 2.39.465 2.39h-.332s-.465-1.195-.465-2.39c0-1.328.465-2.59.465-2.59"/><path fill="url(#q)" d="M20.188 44.293h.332s-.664 1.063-.664 2.59c0 1.328.664 2.39.664 2.39h-.332s-.664-1.062-.664-2.39c0-1.528.664-2.59.664-2.59"/><path fill="url(#r)" d="M16.934 44.293h.332s-.996.93-.996 2.59c0 1.46.996 2.39.996 2.39h-.332s-.996-.73-.996-2.39c.066-1.793.996-2.59.996-2.59"/><path fill="url(#t)" d="M13.746 44.293h.332s-1.129.797-1.129 2.59c0 1.66 1.129 2.39 1.129 2.39h-.332s-1.129-.53-1.129-2.39c0-1.992 1.129-2.59 1.129-2.59"/><path fill="#fff" d="m32.008 18.992 20.719 35.859c.863 1.461.332 3.32-1.129 4.184-1.46.863-3.32.332-4.183-1.13l-20.72-35.858c-.863-1.461-.331-3.32 1.13-4.184 1.46-.863 3.32-.332 4.183 1.129"/><path fill="url(#u)" d="M31.477 19.258 52.262 55.25c.664 1.129.266 2.656-.863 3.32l-.133.067c-1.129.664-2.656.265-3.32-.864L27.16 21.714c-.664-1.128-.265-2.656.864-3.32l.066-.066c1.195-.664 2.723-.266 3.387.93z"/><path fill="url(#w)" d="m26.828 20.719 21.781 37.785.133.066.133.067.132.066-22.18-38.383z"/><path fill="url(#x)" d="m27.027 19.457 22.777 39.445h.266L27.16 19.258l-.067.133z"/><path fill="url(#y)" d="m27.957 18.461 23.242 40.176.2-.133-23.243-40.176z"/><path fill="url(#z)" d="m29.617 18.062 22.711 39.379-.133.266-22.91-39.711h.133z"/><path fill="url(#A)" d="M30.813 18.461 52.594 56.18v.399l-22.18-38.317.133.067.133.066z"/><path fill="#3c98ea" d="m51.598 54.055-.133-.266s-.133 1.328-1.594 2.258c-1.394.864-2.656.266-2.656.266l.133.266s1.063.73 2.656-.266c1.594-.93 1.594-2.258 1.594-2.258m-1.66-2.789L49.805 51s-.332 1.328-1.727 2.125c-1.261.797-2.523.399-2.523.399l.133.265s1.129.465 2.59-.398 1.66-2.125 1.66-2.125"/><path fill="#4ca4ed" d="m48.344 48.477-.133-.266s-.598 1.13-1.86 1.86c-1.128.664-2.39.664-2.39.664l.133.265s1.195 0 2.39-.664c1.262-.73 1.86-1.859 1.86-1.859"/><path fill="#4da7ee" d="m46.75 45.687-.133-.266s-.863 1.13-1.992 1.727c-1.062.598-2.324.797-2.324.797l.133.265s1.261-.199 2.324-.796c1.062-.598 1.992-1.727 1.992-1.727"/><path fill="url(#B)" d="m40.176 34.398.133.266s-1.13.53-2.258 1.129c-1.062.597-1.992 1.394-1.992 1.394l-.133-.266s.996-.796 1.992-1.394a61 61 0 0 1 2.258-1.129"/><path fill="url(#C)" d="m38.582 31.609.133.266s-1.262.398-2.324 1.062c-1.063.598-1.926 1.528-1.926 1.528l-.133-.266s.863-.93 1.926-1.527c1.062-.73 2.324-1.063 2.324-1.063"/><path fill="#9dd4f7" d="M35.594 29.418c.863-.266 1.527-.398 1.527-.398l-.132-.266s-.598.066-1.262.332c-.399.133-.465.465-.133.332"/><path fill="url(#D)" d="m33.734 23.242.133.266s-1.262-.332-2.723.465c-1.261.796-1.527 2.058-1.527 2.058l-.133-.265s.133-1.13 1.527-1.993c1.461-.93 2.723-.531 2.723-.531"/><path fill="url(#F)" d="m32.141 20.387.2.266s-1.329-.532-2.856.332c-1.461.93-1.461 2.191-1.461 2.191l-.2-.266s-.132-1.129 1.461-2.125c1.66-.996 2.856-.398 2.856-.398"/><path fill="#fff" d="M27.691 43.695c5.777-9.961 12.418-21.516 12.418-21.516.863-1.46.332-3.32-1.129-4.183-1.46-.864-3.32-.333-4.184 1.128 0 0-8.101 14.078-14.21 24.57zm-3.586 6.11c-2.789 4.78-4.715 8.234-4.715 8.234-.863 1.46-2.723 1.992-4.183 1.129s-1.993-2.723-1.13-4.184c0 0 1.13-2.059 2.923-5.113 2.257-.067 6.375-.067 7.105-.067"/><path fill="url(#G)" d="M26.961 43.695c5.844-10.094 12.617-21.848 12.617-21.848.664-1.129.266-2.656-.863-3.32l-.067-.067c-1.129-.664-2.656-.265-3.32.863 0 0-7.969 13.812-14.078 24.371zm-3.52 6.11c-2.656 4.648-4.582 7.968-4.582 7.968-.664 1.13-2.125 1.527-3.32.863h-.133c-1.129-.664-1.527-2.125-.863-3.32 0 0 1.262-2.191 3.187-5.512z"/><path fill="url(#H)" d="m26.762 43.695 13.215-22.844v-.398s-7.305 12.684-13.414 23.242zm-3.586 6.11-5.047 8.765-.2.133-.198.066s2.257-3.918 5.18-8.965z"/><path fill="url(#I)" d="m25.766 43.695 13.945-24.106-.133-.266s-7.637 13.215-14.012 24.305zm-3.52 6.11-5.312 9.163h-.266s2.258-3.918 5.313-9.23a.7.7 0 0 0 .265.066"/><path fill="url(#K)" d="M24.305 43.695c6.574-11.356 14.476-25.102 14.476-25.102l-.2-.133-14.608 25.234zm-3.586 6.176c-2.922 5.113-5.113 8.898-5.113 8.898l-.2-.133s2.126-3.718 5.047-8.765c.133-.067.067-.067.266 0"/><path fill="url(#L)" d="M22.711 43.695a11437 11437 0 0 0 14.742-25.566h-.266S29.02 32.274 22.445 43.695zm-3.852 6.11c-2.656 4.581-4.449 7.702-4.449 7.702l.133.266s1.926-3.32 4.648-7.969z"/><path fill="url(#M)" d="m21.715 43.695 14.609-25.301-.266.133-.066.066S27.89 32.605 21.516 43.695zm-3.52 6.11c-2.324 4.05-3.984 6.906-3.984 6.906v-.532s1.461-2.523 3.719-6.441c.133.066.133.066.266.066"/><path fill="url(#N)" d="m34.664 20.387-.133.266s1.195-.598 2.79.265c1.46.797 1.527 2.192 1.527 2.192l.132-.266s.133-1.262-1.527-2.191c-1.66-.93-2.789-.266-2.789-.266"/><path fill="url(#P)" d="m33.07 23.242-.133.266s1.328-.399 2.723.398c1.328.73 1.594 1.992 1.594 1.992l.132-.265s-.132-1.196-1.593-1.993c-1.528-.863-2.723-.398-2.723-.398"/><path fill="url(#Q)" d="m31.41 26.031-.133.266s1.195-.067 2.524.73c1.195.664 1.793 1.727 1.793 1.727l.132-.266s-.597-1.062-1.792-1.726c-1.262-.731-2.524-.731-2.524-.731"/><path fill="url(#R)" d="m29.816 28.887-.133.266s1.328.199 2.457.863c1.063.598 1.86 1.594 1.86 1.594l.132-.266s-.796-.996-1.859-1.594c-1.129-.664-2.457-.863-2.457-.863"/><path fill="url(#S)" d="m28.156 31.676-.133.266s1.262.332 2.39.996c1.063.597 1.927 1.46 1.927 1.46l.132-.265s-.863-.863-1.925-1.46c-1.063-.599-2.391-.997-2.391-.997"/><path fill="url(#T)" d="m26.563 34.465-.2.266s1.196.465 2.325 1.129a18 18 0 0 1 1.992 1.328l.133-.266s-.93-.73-1.992-1.328a31 31 0 0 0-2.258-1.129"/><path fill="url(#U)" d="m24.77 37.586.133-.266 4.316 2.457-.133.266z"/><path fill="url(#V)" d="m23.176 40.441.133-.266s1.062.797 2.191 1.395a27 27 0 0 0 2.125 1.062l-.133.2s-1.129-.465-2.191-1.063c-1.129-.598-2.125-1.328-2.125-1.328"/><path fill="#73b9f1" d="M22.113 43.695c-.332-.266-.531-.465-.531-.465l.133-.265s.398.331.93.73z"/><path fill="url(#W)" d="M19.523 49.805c.266.2.531.399.863.598 1.196.664 2.39.597 2.39.597l-.132.266s-1.195.066-2.39-.598a5.5 5.5 0 0 1-1.13-.863z"/><path fill="url(#X)" d="m16.668 51.664.133-.266s.332 1.328 1.793 2.125c1.328.73 2.523.332 2.523.332l-.133.266s-1.062.465-2.523-.332c-1.527-.863-1.793-2.125-1.793-2.125"/><path fill="url(#Y)" d="m15.008 54.52.133-.266s.133 1.395 1.726 2.258c1.461.797 2.59.2 2.59.2l-.199.265s-.996.73-2.59-.2c-1.66-.929-1.66-2.257-1.66-2.257"/><path fill="url(#Z)" d="m36.523 72.184 28.422-59.699-7.172-3.387-29.617 62.09s.93.465 2.125.996z"/><path fill="url(#aa)" d="m53.324 5.512 13.281 6.308v19.058c-4.582-2.191-35.262-16.8-35.262-16.8s2.125-4.45 4.117-8.567z"/><path fill="url(#ab)" d="M20.387 69.527c-.2.399-.531.863-.465 1.594.066 2.722 4.516 5.246 7.106 5.246 1.793 0 2.39-.73 3.054-2.059.664-1.328-8.965-6.375-9.695-4.781"/><path fill="url(#ac)" d="M51 13.016s6.84 1.66 7.371 2.125-.863 3.121-1.129 3.52c-2.191 2.656-9.031 17.332-9.031 17.332l-6.309-3.586s5.645-10.492 7.637-14.211c1.262-2.524 1.461-5.18 1.461-5.18z"/><path fill="url(#ad)" d="M66.805 9.563c1.195.863 2.79.664 4.05.464.864-.132-.464 1.13-1.925 4.051S67.536 17.2 67.336 17c-.199-.199-6.773-3.918-6.574-4.25.266-.332 1.328-7.57 1.86-7.37 1.925.464 2.257 2.788 4.183 4.183"/><path fill="url(#ah)" d="M56.578 17.73c.465-.73 2.59-5.246 5.977-5.246 1.527 0 4.449 3.852 4.714 4.383.2.465-.464 2.324-.797 1.46-.398-.995-2.058-3.12-3.851-3.12s-4.25 2.058-4.848 2.789c-.597.664-1.66.465-1.195-.266"/><path fill="url(#ai)" d="M56.445 17.465c.332-.531 1.86-2.855 2.59-3.586s2.59-2.656 4.183-2.922c1.594-.265 3.254 2.988 2.723 3.653-.398.464-1.062-.067-1.86-.73-.796-.599-1.327-1.794-3.85.132-.864.664-1.727 1.195-3.72 4.05-.53.731-.398-.066-.066-.597"/><path fill="url(#aA)" d="M48.211 36.855c.266-.531.598-1.328-.133-1.926-.797-.597-4.515-2.59-5.18-2.722-.664-.133-1.195 0-1.46.464-.266.465-20.653 35.394-21.051 36.391-.399.996-.465 1.727.132 1.926.598.2 7.438 3.453 8.102 4.184.664.73.996-.067 1.262-.465 1.261-1.594 17.996-37.32 18.328-37.852z"/><path fill="url(#aB)" d="M56.91 17.332c.332-.465 1.129-1.793 2.125-2.988.664-.797 4.25-2.524 5.047-5.313.465-1.527-.266-3.055-1.262-3.719C59.433 3.254 53.59 0 45.023 0c-5.777 0-8.234 1.926-8.234 1.926h2.922L49.87 5.91l1.261 5.313s.133 1.793-.465 3.851c-.398 1.66-.53 2.656-1.128 4.317.464.199 1.527-.532 2.722-.2 1.063.266 1.727 1.727 2.457.864 1.262-1.66 1.66-1.993 2.192-2.723z"/><path fill="url(#aC)" d="M50.934 13.215c-.531-4.914-1.727-9.562-14.211-9.496.797-.797 2.723-1.594 2.723-1.594l-2.723-.2s.399-.331 1.195-.398c7.305-.597 13.812.93 13.348 10.426-.066 1.528-.199 2.192-.332 1.262z"/><path fill="url(#aD)" d="M36.723 3.719c.863-.332 2.059-.531 4.316-.399 2.79.133 6.309 1.196 7.77 2.524.73.664.664.133-.133-.73-2.059-2.391-5.18-2.923-9.23-2.989-.465-.066-1.992.797-2.723 1.594"/><path fill="url(#aE)" d="m70.988 10.027 3.652 1.86s-1.394 1.859-2.523 3.984c-1.195 2.257-1.992 4.715-1.992 4.715l-3.52-2.125s.864-2.391 2.125-4.715c.996-1.926 2.258-3.719 2.258-3.719"/><path fill="#bfc0d0" d="M74.641 11.887c.266.133-.598 2.191-1.86 4.582-1.261 2.39-2.456 4.25-2.656 4.117-.265-.133.598-2.191 1.86-4.582 1.195-2.39 2.39-4.25 2.656-4.117"/></svg>