<svg xmlns="http://www.w3.org/2000/svg" fill="none" viewBox="0 0 125.62 62.827"><g fill="#475467"><path d="M117.05 21.531c-5.141 0-9.297 2.645-11.488 4.392l.629-3.358h-12.74L88.963 43.35h13.317l2.274-12.095c1.11-1.415 2.96-3.235 5.108-3.235 3.51 0 2.751 2.8 2.46 5.012l-1.8 9.996 12.986.027s1.514-7.968 1.697-8.843c1.82-8.724-.289-12.678-7.962-12.678zM88.677 34.65s5.068-13.172-13.606-13.172S54.949 34.65 54.949 34.65s-2.317 9.582 15.777 9.582 17.371-7.076 17.371-7.076H74.779s-1.014 2.8-3.765 2.8-4.488-1.03-3.766-5.306h21.425zm-15.055-8.402c4.63 0 3.185 4.275 3.185 4.275h-7.961s.146-4.275 4.78-4.275z"/><path d="M70.208 13.868H49.075l-11.972 9.168-6.994-9.168H13.172L26.41 31.226 0 51.458h21.137l13.066-10.01 7.634 10.01h16.937l-13.878-18.2z"/><path d="M21.654 51.06a23.56 23.56 0 0 1-8.445-9.721l-6.43 4.925a31.6 31.6 0 0 0 3.496 5.194h10.858l.517-.398zm-5.89-33.798a23.5 23.5 0 0 1 3.146-3.394h-5.735zm30.891 34.196h11.999q.032-.039.063-.073l-5.008-6.566a23.6 23.6 0 0 1-7.054 6.639"/></g><path fill="#85c241" d="M34.464 54.868a23.36 23.36 0 0 1-12.055-3.334l-.766.586-.225.173H11c5.754 6.46 14.13 10.534 23.463 10.534s17.71-4.074 23.464-10.534H45.146a23.34 23.34 0 0 1-10.683 2.575z"/><path fill="#475467" d="m56.771 24.16 6.603-5.058a31.3 31.3 0 0 0-2.848-5.237H50.022a23.5 23.5 0 0 1 6.752 10.295z"/><path fill="#85c241" d="M11.008 31.415c0-5.002 1.571-9.635 4.24-13.444l-2.742-3.596-1.027-1.346h8.429c4-3.172 9.055-5.071 14.553-5.071s10.558 1.9 14.555 5.071h10.908C54.223 5.137 44.946 0 34.464 0 17.118 0 3.05 14.064 3.05 31.415a31.2 31.2 0 0 0 3.34 14.09l6.467-4.952a23.4 23.4 0 0 1-1.846-9.138zm51.249-7.975a19 19 0 0 1 2.287-1.057 31 31 0 0 0-.852-2.47l-6.665 5.108q.297 1.055.497 2.145c1.23-1.396 2.834-2.685 4.73-3.723zm-6.228 17.189a23.5 23.5 0 0 1-1.826 3.45l5.048 6.623a31.5 31.5 0 0 0 3.828-6.354c-2.976-.676-5.472-2.029-7.05-3.719"/></svg>