<svg xmlns="http://www.w3.org/2000/svg" viewBox="0 0 192.541 192.54"><path d="M172.473 20.116C154.307 2.021 128.188 0 96.271 0 64.312 0 38.156 2.045 19.997 20.187 1.844 38.327 0 64.441 0 96.364c0 31.923 1.844 58.051 20.005 76.192 18.159 18.148 44.31 19.984 76.266 19.984 31.955 0 58.106-1.836 76.265-19.984 18.159-18.147 20.005-44.27 20.005-76.192 0-31.964-1.868-58.109-20.068-76.248" fill="#ff6900" mask="url(#a)"/><path d="M89.184 131.949c0 .646-.544 1.182-1.206 1.182h-16.42c-.673 0-1.22-.536-1.22-1.182V89.01c0-.652.547-1.185 1.22-1.185h16.42a1.2 1.2 0 011.206 1.185z" fill="#fff" mask="url(#a)"/><path d="M121.333 131.949c0 .646-.547 1.182-1.211 1.182h-15.63c-.67 0-1.217-.536-1.217-1.182V94.902c-.016-6.468-.386-13.116-3.725-16.457-2.871-2.88-8.225-3.54-13.794-3.678H57.424a1.2 1.2 0 00-1.209 1.184v55.998c0 .646-.551 1.182-1.22 1.182h-15.64a1.197 1.197 0 01-1.205-1.182v-71.35c0-.654.538-1.187 1.206-1.187h45.123c11.793 0 24.12.538 30.201 6.626 6.106 6.115 6.653 18.422 6.653 30.228zm32.197 0c0 .646-.551 1.182-1.214 1.182H136.68c-.668 0-1.211-.536-1.211-1.182v-71.35a1.2 1.2 0 011.21-1.187h15.638c.663 0 1.215.533 1.215 1.188v71.349z" fill="#fff" mask="url(#a)"/></svg>
