<svg xmlns="http://www.w3.org/2000/svg" viewBox="0 0 104.4 89.8"><path d="M90.1 20.9c-1.8-6.4-7.6-11.1-14.6-11.1-2.7 0-5.2.7-7.4 1.9C63.6 4.7 55.7 0 46.7 0 33.8 0 23.1 9.7 21.5 22.2 9.3 24.2 0 34.7 0 47.5 0 61.6 11.4 73 25.5 73c7 0 13.4-2.9 18-7.5 1.2-1.2 2.3-2.5 3.2-4-.9 1.4-1.9 2.6-3.1 3.8-4.9 6.8-7.7 15.2-7.7 24.2v.3C46.7 82.5 59.7 78 73.6 77.6h.2c13.2 0 24.5-8.4 28.8-20.2q1.8-4.95 1.8-10.5c0-10.9-5.7-20.5-14.3-26M30.3 48.8c0 2-1.6 3.7-3.7 3.7-2 0-3.5-1.7-3.5-3.7V39c0-2 1.5-3.7 3.5-3.7s3.7 1.7 3.7 3.7zm13.1 4.8c0 2.1-1.7 3.8-3.8 3.8s-3.8-1.7-3.8-3.8v-22c0-2.1 1.7-3.8 3.8-3.8s3.8 1.7 3.8 3.8zm13.5-4.7c0 2-1.8 3.7-3.8 3.7s-3.7-1.7-3.7-3.7v-10c0-2 1.6-3.7 3.7-3.7 2 0 3.8 1.7 3.8 3.7zm13.7 4.8c0 2.1-1.7 3.8-3.8 3.8S63 55.8 63 53.7v-22c0-2.1 1.7-3.8 3.8-3.8s3.8 1.7 3.8 3.8zM84 48.8c0 2-1.6 3.7-3.7 3.7-2 0-3.5-1.7-3.5-3.7V39c0-2 1.5-3.7 3.5-3.7S84 37 84 39z" style="fill:#2a80e2"/></svg>