<svg xmlns="http://www.w3.org/2000/svg" viewBox="0 0 424.68 424.29"><defs><clipPath id="e"><path fill="#343f64" d="m262.17 274.47.341-150.88-79.88.341 1.707 127.67 43.695 52.23z"/></clipPath><clipPath id="c"><path fill="#ff7d51" d="M242.2 46.436c-6.726.018-13.167 5.748-17.878 15.905-5.171-8.067-11.716-12.491-18.478-12.491-15.837 0-28.675 23.766-28.675 53.083s12.838 53.082 28.675 53.083c7.632-.014 14.946-5.66 20.322-15.687 4.503 7.926 10.176 12.268 16.034 12.274 13.857 0 25.091-23.766 25.09-53.083 0-29.317-11.233-53.082-25.09-53.083zm-38.916 159.08c-12.537 0-22.701 31.026-22.701 69.298s10.164 69.298 22.701 69.298 21.155-60.265 22.701-69.298c0-38.272-10.164-69.298-22.701-69.298m41.476 51.888c-11.312 0-20.482 27.816-20.482 62.129s9.17 62.129 20.482 62.129 20.482-27.816 20.482-62.129-9.17-62.129-20.482-62.129" paint-order="markers fill stroke"/></clipPath><clipPath id="a"><path fill="#a83b00" d="M330.06 20.536v306.14h8.85V20.536zm34.509 18.289v274.81h8.85V38.825zm39.352 21.577v222.86h8.85V60.402z" color="#000" style="font-feature-settings:normal;font-variant-alternates:normal;font-variant-caps:normal;font-variant-ligatures:normal;font-variant-numeric:normal;font-variant-position:normal;isolation:auto;mix-blend-mode:normal;shape-padding:0;text-decoration-color:#000;text-decoration-line:none;text-decoration-style:solid;text-indent:0;text-orientation:mixed;text-transform:none;white-space:normal"/></clipPath><clipPath id="f"><path fill="#ff7d51" d="M242.2 46.436c-6.726.018-13.167 5.748-17.878 15.905-5.171-8.067-11.716-12.491-18.478-12.491-15.837 0-28.434 23.766-28.434 53.083s13.896 53.082 29.733 53.083c7.632-.014 14.946-5.66 20.322-15.687 4.504 7.926 8.877 12.268 14.735 12.274 13.857 0 25.091-23.766 25.09-53.083 0-29.317-11.233-53.082-25.09-53.083zm-38.916 159.08c-12.537 0-22.701 31.026-22.701 69.298s10.164 69.298 22.701 69.298 22.701-31.026 22.701-69.298-10.164-69.298-22.701-69.298m41.476 51.888c-11.312 0-20.482 27.816-20.482 62.129s9.17 62.129 20.482 62.129 20.482-27.816 20.482-62.129-9.17-62.129-20.482-62.129" paint-order="markers fill stroke"/></clipPath></defs><path fill="#ff7d51" d="M421.176 113.113v198.82l-171.6 96.762v12.095h-26.458v-6.804H192.88v6.804h-26.458v-12.095L3.502 316.397v-203.94l162.92-96.862V3.5h26.458l-.53 6.804h30.768V3.5h26.458v12.095z"/><path fill="#343f64" d="M172.39 331.31s-8.452-1.877-20.141-8.363c-10.221-5.672-22.189-13.143-22.189-13.143 0-2.509 1.375-98.143 21.165-98.143 20.011 0 21.165 72.421 21.165 119.65z" transform="translate(-70.194 38.363)" paint-order="markers fill stroke"/><path fill="#343f64" d="m191.976 312.833.341-150.88-79.88.341 1.707 127.67 43.695 49.277z"/><path fill="#ff7d51" d="M915.4 175.51c-25.421.067-49.766 21.724-67.57 60.113-19.544-30.489-44.28-47.21-69.838-47.211-59.855 0-108.38 89.824-108.38 200.63 0 110.8 53.584 200.63 113.44 200.63 28.845-.054 56.488-21.392 76.809-59.289 17.021 29.955 33.398 46.366 55.538 46.389 52.374 0 94.83-89.825 94.83-200.63 0-110.8-42.457-200.63-94.83-200.63zM768.32 776.75c-47.385 0-85.799 117.26-85.799 261.91s38.413 261.91 85.799 261.91c47.385 0 79.954-227.77 85.799-261.91 0-144.65-38.413-261.91-85.799-261.91m156.76 196.11c-42.754 0-77.412 105.13-77.412 234.82s34.658 234.82 77.412 234.82 77.412-105.13 77.412-234.82-34.658-234.82-77.412-234.82" transform="translate(-70.194 38.363)scale(.26458)" paint-order="markers fill stroke"/><g fill="#343f64"><path d="M172.39 16.979s-8.452 1.748-20.141 7.788c-10.221 5.281-22.189 12.238-22.189 12.238 0 2.336 1.375 91.391 21.165 91.391 20.011 0 21.165-67.439 21.165-111.42z" transform="translate(-70.194 38.363)" paint-order="markers fill stroke"/><path d="M143.21 40.178s-8.452 1.478-20.141 6.585c-10.221 4.465-22.189 10.348-22.189 10.348 0 1.975 1.375 77.273 21.165 77.273 20.011 0 21.165-57.021 21.165-94.205z" transform="translate(-70.194 38.363)" paint-order="markers fill stroke"/><path d="m423.426 197.793-50.522-9.558-1.024 82.27 50.18-6.145z"/></g><g fill="none" stroke="#a83b00"><path stroke-width="7" d="M3.5 112.457v203.94l162.92 92.298v12.095h26.458v-6.804h30.238v6.804h26.458v-12.095l171.6-96.762v-198.82l-171.6-97.518V3.5h-26.458v6.804h-30.238V3.5H166.42v12.095z"/><path stroke-width="6" d="M223.646 10.304v403.68M192.346 10.304v403.68"/></g><g fill="#343f64" transform="matrix(1.0742 0 0 1 -103.813 38.363)"><ellipse cx="413.74" cy="188.1" rx="39.257" ry="75.784" paint-order="markers fill stroke"/><rect width="37.579" height="183.26" x="370.73" y="99.689" ry="20.823" paint-order="markers fill stroke"/><path d="M398.17 191.69a29.36 90.633 0 0 1-29.328 90.633 29.36 90.633 0 0 1-29.391-90.437 29.36 90.633 0 0 1 29.264-90.829 29.36 90.633 0 0 1 29.455 90.24l-29.359.393z" paint-order="markers fill stroke"/></g><g fill="none" stroke="#a83b00" stroke-linecap="round"><path stroke-width="8.816" d="M152.846 57.868v305.54"/><path stroke-width="8.353" d="M113.646 79.74v274.28M298.906 77.351v274.28"/><path stroke-width="7.522" d="M338.116 98.885v222.43"/></g><path fill="#142143" d="M384.76 99.645c-5.12 0-9.781 1.94-13.341 5.144a31.66 90.81 0 0 0-9.093-3.775 31.66 90.81 0 0 0-31.556 91.006 31.66 90.81 0 0 0 31.693 90.612 31.66 90.81 0 0 0 9.341-4.173c3.508 3 8.02 4.802 12.956 4.802 10.919 0 19.765-8.807 20.239-19.926a42.333 75.932 0 0 0 5.882.828 42.333 75.932 0 0 0 42.333-75.931A42.333 75.932 0 0 0 410.88 112.3a42.333 75.932 0 0 0-7.066 1.077c-2.818-8.026-10.265-13.732-19.055-13.732zm-20.261 92.152v.026h-2.07z" clip-path="url(#a)" transform="matrix(.99758 0 0 1 -69.193 38.363)" paint-order="markers fill stroke"/><path fill="none" stroke="#a83b00" stroke-linecap="round" stroke-width="8.816" d="M264.536 59.097v305.54"/><g color="#000"><path fill="#a83b00" d="M183.77 37.143a4.177 4.177 0 0 0-4.113 4.234v274.28a4.177 4.177 0 1 0 8.353 0V41.377a4.177 4.177 0 0 0-4.24-4.234" clip-path="url(#c)" style="font-feature-settings:normal;font-variant-alternates:normal;font-variant-caps:normal;font-variant-ligatures:normal;font-variant-numeric:normal;font-variant-position:normal;isolation:auto;mix-blend-mode:normal;shape-padding:0;text-decoration-color:#000;text-decoration-line:none;text-decoration-style:solid;text-indent:0;text-orientation:mixed;text-transform:none;white-space:normal" transform="translate(-70.194 38.363)"/><path fill="#142143" d="M222.97 15.035c-2.433.037-4.376.98-4.342 3.412v305.54c-.05 5.929 8.867 6.987 8.817 1.059V19.506a4.41 4.41 0 0 0-4.475-4.471" clip-path="url(#e)" style="font-feature-settings:normal;font-variant-alternates:normal;font-variant-caps:normal;font-variant-ligatures:normal;font-variant-numeric:normal;font-variant-position:normal;isolation:auto;mix-blend-mode:normal;shape-padding:0;text-decoration-color:#000;text-decoration-line:none;text-decoration-style:solid;text-indent:0;text-orientation:mixed;text-transform:none;white-space:normal" transform="translate(-70.194 38.363)"/><path fill="#a83b00" d="M222.97 15.035c-2.433.037-4.376.98-4.342 3.412v305.54c-.05 5.929 8.867 6.987 8.817 1.059V19.506a4.41 4.41 0 0 0-4.475-4.471" clip-path="url(#f)" style="font-feature-settings:normal;font-variant-alternates:normal;font-variant-caps:normal;font-variant-ligatures:normal;font-variant-numeric:normal;font-variant-position:normal;isolation:auto;mix-blend-mode:normal;shape-padding:0;text-decoration-color:#000;text-decoration-line:none;text-decoration-style:solid;text-indent:0;text-orientation:mixed;text-transform:none;white-space:normal" transform="translate(-70.194 38.363)"/></g><path fill="#a83b00" d="M156.946 339.433s2.308-48.098-7.25-73.12c-1.783-4.665.18 15.932-.427 18.871-2.649 12.825 2.082 62.264 2.082 62.264z"/></svg>