<svg xmlns="http://www.w3.org/2000/svg" viewBox="0 0 125.88 37.006"><g fill="#f7a41d" stroke-width="1.123"><path d="M.895 36.335q-.359-.943-.583-2.425-.225-1.527-.27-3.144 0-1.662.09-3.144.135-1.526.449-2.47 1.302-.494 2.874-1.122t3.234-1.976q1.661-1.392 3.188-3.997 1.572-2.65 2.74-7.096l-1.347-.27q-.809 3.055-1.976 5.39-1.168 2.335-3.19 3.772Q4.13 21.29.852 21.74.4 18.865.177 15.677q-.18-3.234-.18-6.243.045-3.009.225-5.3Q.446 1.8.716.723q3.817.134 7.275.27l6.916.179q3.503.045 7.276.045 2.605 0 5.569-.045 3.009-.045 5.838-.09 2.874-.09 5.075-.135 2.2-.09 3.233-.18.45 1.078.674 2.65t.224 3.279q.045 1.661-.134 3.143-.18 1.437-.584 2.246-3.728.853-6.467 4.356-2.695 3.503-4.401 10.06l1.347.315q.898-3.279 2.11-5.839 1.258-2.56 3.1-3.997 1.886-1.437 4.625-1.257.27 1.841.404 4.221.135 2.336.135 4.85t-.09 4.85q-.09 2.291-.27 4.088-.179 1.751-.403 2.604-3.414-.044-6.467-.224-3.01-.135-6.243-.314-3.233-.135-7.275-.135-8.803 0-13.967.224-5.165.225-7.32.45zM44.772 36.335q-.404-1.078-.583-2.56t-.225-3.054.09-2.919q.18-1.392.449-2.2.539-.18 1.213-.719.718-.584 1.212-2.02.54-1.438.54-4.222 0-2.695-.45-4.177-.404-1.482-1.078-2.11t-1.437-.72q-.404-.942-.584-2.38-.18-1.482-.18-3.053.046-1.572.27-3.01.225-1.481.674-2.425 1.078.09 2.784.225 1.707.09 3.638.225 1.976.09 3.817.18 1.841.044 3.234.044 2.02 0 4.176-.09 2.2-.134 4.042-.314 1.886-.18 3.01-.27.403.944.538 2.515.18 1.572.135 3.324-.045 1.706-.225 3.278t-.539 2.515q-1.078 0-1.617.853-.494.809-.673 2.156-.135 1.347-.135 2.874v4.67h1.303q-.09-2.11 0-4.086.134-1.976.314-2.83 2.066-.359 4.67-.448 2.65-.135 5.3 0 2.694.09 4.805.449.27 1.167.404 3.323.18 2.11.18 4.715.045 2.56 0 5.075-.045 2.47-.225 4.401-.134 1.932-.359 2.785-4.49-.09-9.386-.404-4.85-.27-9.925-.27-2.515 0-5.434.045-2.874.09-5.659.18-2.784.134-4.94.224-2.156.135-3.144.225zM111.643 37.005q-6.377 0-9.52-1.527-3.1-1.572-3.19-5.524-.583 1.662-.403 3.099.224 1.437.718 2.83-4.805.134-7.994.269-3.188.18-5.793.134-.674-3.592-.763-7.095-.045-3.548.538-7.5 2.47 0 4.94.494t4.671 1.392q2.2.853 3.773 2.11l.898-.942q-1.527-1.213-3.324-2.021-1.751-.853-3.547-1.437-2.29-.809-4.177-2.066-1.841-1.258-2.92-3.144t-1.077-4.49q0-3.234 1.482-5.839 1.482-2.65 4.85-4.177Q94.218 0 99.967 0q5.703 0 8.712 1.616 3.01 1.572 3.1 5.839.628-1.707.403-3.189t-.718-3.144q3.233-.045 5.39-.09 2.155-.09 3.816-.18 1.662-.089 3.369-.089.673 3.234.718 7.006.09 3.728-.494 7.635-2.56-.045-4.58-.45-1.977-.448-3.683-1.302-1.707-.853-3.503-2.11l-.809 1.032q1.707 1.258 3.503 2.156 1.797.853 3.369 1.572 2.335 1.033 3.952 2.29t2.47 3.054q.898 1.797.898 4.491 0 3.728-1.303 5.928-1.257 2.2-3.368 3.279-2.11 1.033-4.625 1.347-2.47.314-4.94.314z"/></g></svg>